<svg width="150" height="30" viewBox="0 0 150 30" fill="none" xmlns="http://www.w3.org/2000/svg">
<path fill-rule="evenodd" clip-rule="evenodd" d="M15.2145 0H16.0881C16.7702 0 17.3202 0.524856 17.3202 1.17262V28.8239C17.3202 29.475 16.7668 29.9999 16.0881 29.9999H15.2145C14.5323 29.9999 13.9824 29.4717 13.9824 28.8239V1.17594C13.9824 0.524856 14.5358 0 15.2145 0ZM108.065 8.23121C107.32 7.57016 106.523 7.13831 105.27 7.13831C103.565 7.13831 102.632 8.17806 102.632 9.93534V10.4336H108.517V12.9749H102.632V21.0636H99.5449V9.93201C99.5449 6.78287 101.887 4.36787 105.214 4.36787C107.024 4.36787 108.437 5.02892 109.715 6.17165L108.065 8.23121ZM113.892 4.39453H110.805V21.0637H113.892V4.39453ZM41.7793 6.3374H45.0753V18.1234H51.9804V21.0633H45.0753H41.7793V18.1234V6.3374ZM59.9514 8.81689C56.0916 8.81689 53.1367 11.6139 53.1367 15.1949C53.1367 18.8789 55.9071 21.5729 60.3795 21.5729C62.3494 21.5729 64.375 20.8089 65.7045 19.7691L64.3193 17.5568C63.5467 18.168 62.0014 18.8025 60.4595 18.8025C58.3643 18.8025 56.8851 17.8491 56.3979 16.3376H66.5015V15.1949C66.5015 11.6106 63.7868 8.81689 59.9514 8.81689ZM59.9514 11.4844C61.7403 11.4844 62.9097 12.4543 63.3239 13.9226H56.4118C56.8643 12.4411 58.1416 11.4844 59.9514 11.4844ZM75.9512 8.86523C73.2365 8.86523 70.1737 9.98471 68.7363 11.4065V21.0366H71.8235V12.712C72.8189 12.0509 74.0405 11.6855 75.3108 11.6855C77.0163 11.6855 77.9455 12.5492 77.9455 14.2002V21.0366H81.0361V13.4395C81.0361 10.5162 79.1741 8.86523 75.9512 8.86523ZM123.319 8.91504C119.431 8.91504 116.424 11.7121 116.424 15.293C116.424 18.8773 119.431 21.671 123.319 21.671C127.206 21.671 130.213 18.874 130.213 15.293C130.217 11.7121 127.206 8.91504 123.319 8.91504ZM123.319 18.8508C121.216 18.8508 119.591 17.2995 119.591 15.293C119.591 13.2866 121.216 11.7353 123.319 11.7353C125.421 11.7353 127.046 13.2866 127.046 15.293C127.046 17.3028 125.424 18.8508 123.319 18.8508ZM144.247 16.1772L146.777 9.17139H150L145.472 21.1667H143.318L140.293 13.4865L137.272 21.1667H135.114L130.59 9.17139H133.813L136.343 16.1772L139.03 9.17139H141.56L144.247 16.1772ZM93.5765 9.82248C92.5741 9.24779 91.2968 8.8392 89.6088 8.8392C85.9335 8.8392 83.2188 11.6096 83.2188 15.194C83.2188 18.7783 85.9613 21.5487 89.6367 21.5487C92.5915 21.5487 95.2297 20.4558 96.6671 19.034V4.39453H93.58V9.82248H93.5765ZM86.3894 15.194C86.3894 13.1875 87.9869 11.6362 90.2248 11.6362C91.6518 11.6362 92.7238 12.0515 93.58 12.7457V17.7584C92.6785 18.3962 91.61 18.755 90.2248 18.755C87.9869 18.7517 86.3894 17.2004 86.3894 15.194ZM22.9279 6.3374H22.0543C21.3757 6.3374 20.8223 6.86226 20.8223 7.51335V22.4153C20.8223 23.063 21.3722 23.5912 22.0543 23.5912H22.9279C23.6066 23.5912 24.16 23.0664 24.16 22.4153V7.51002C24.1565 6.86226 23.6066 6.3374 22.9279 6.3374ZM8.40395 6.3374H9.27753C9.95621 6.3374 10.5096 6.86226 10.5096 7.51002V22.4153C10.5096 23.0664 9.95621 23.5912 9.27753 23.5912H8.40395C7.72178 23.5912 7.17188 23.063 7.17188 22.4153V7.51335C7.17188 6.86226 7.72526 6.3374 8.40395 6.3374ZM29.0524 17.1774C30.3057 17.1774 31.3217 16.2077 31.3217 15.0116C31.3217 13.8154 30.3057 12.8457 29.0524 12.8457C27.7992 12.8457 26.7832 13.8154 26.7832 15.0116C26.7832 16.2077 27.7992 17.1774 29.0524 17.1774ZM4.53847 15.0115C4.53847 16.2077 3.5225 17.1774 2.26924 17.1774C1.01597 17.1774 0 16.2077 0 15.0115C0 13.8154 1.01597 12.8457 2.26924 12.8457C3.5225 12.8457 4.53847 13.8154 4.53847 15.0115Z" fill="#424242"/>
</svg>
