<svg width="123" height="31" viewBox="0 0 123 31" fill="none" xmlns="http://www.w3.org/2000/svg">
<path d="M16.3444 30.4194L8.00713 15.5H0.9375L9.27479 30.4194H16.3444Z" fill="#8E8E8E"/>
<path d="M12.6693 15.4994H19.7146L11.3773 0.580078H4.33203L12.6693 15.4994Z" fill="#8E8E8E"/>
<path d="M11.3964 0.580078L19.7336 15.4994H8.00781L16.3451 30.4188C26.8764 30.4188 33.5072 19.1074 28.3878 9.91686L23.1466 0.580078H11.3964Z" fill="#424242"/>
<path d="M72.362 16.3984C72.362 18.7631 71.265 20.2257 68.7784 20.2257C66.2918 20.2257 65.2436 18.7631 65.2436 16.3984V5.79395H58.9297V16.5447C58.9297 22.6879 62.2451 25.467 68.7784 25.467C75.3361 25.467 78.6271 22.6879 78.6271 16.4959V5.79395H72.3376V16.3984H72.362Z" fill="#424242"/>
<path d="M91.0818 10.5994C93.1539 10.5994 94.6166 11.5745 95.1286 13.6711H101.101C100.467 7.23525 95.7136 5.1875 91.0574 5.1875C84.646 5.1875 80.3555 9.23425 80.3555 15.3288C80.3555 21.4233 84.646 25.47 91.0574 25.47C95.738 25.47 100.467 23.4223 101.101 16.9377H95.1286C94.6166 19.0586 93.1296 20.0337 91.0818 20.0337C88.5952 20.0337 86.6206 18.181 86.6206 15.3044C86.6206 12.4522 88.5952 10.5994 91.0818 10.5994Z" fill="#424242"/>
<path d="M119.433 18.5964C121.042 17.475 122.188 15.6466 122.188 13.0869C122.188 8.08942 119.213 5.82227 113.948 5.82227H103.051V24.8615H109.34V19.9371H114.094L116.678 24.8615H122.846L119.433 18.5964ZM113.509 15.2322H109.316V11.0148H113.509C115.094 11.0148 115.922 11.7949 115.922 13.1113C115.922 14.4277 115.094 15.2322 113.509 15.2322Z" fill="#424242"/>
<path d="M43.8395 5.79395L46.4724 10.4989H50.2022V16.8616C50.2022 19.8601 48.6176 20.1526 47.74 20.1526C46.5942 20.1526 45.2778 19.7138 45.3022 17.4223V16.9591H39.0371V17.4223C38.9395 23.7362 42.5963 25.4914 47.5937 25.4914C53.1519 25.4914 56.4674 23.3217 56.4674 16.569V5.79395H43.8395Z" fill="#424242"/>
</svg>
