<svg width="183" height="30" viewBox="0 0 183 30" fill="none" xmlns="http://www.w3.org/2000/svg">
<path d="M41.9826 5.51157C39.342 5.51157 37.1965 6.33676 35.5226 7.96355C33.8486 9.59035 33.0234 11.783 33.0234 14.5886C33.0234 17.3707 33.8486 19.5869 35.5226 21.2137C37.1965 22.8405 39.3656 23.6657 42.0062 23.6657C44.1752 23.6657 46.0378 23.0763 47.5703 21.8738C49.1028 20.6714 50.0459 19.0682 50.3759 17.017L46.5565 16.687C46.085 19.1154 44.3403 20.4357 41.8883 20.4357C40.3794 20.4357 39.1298 19.917 38.1632 18.9032C37.1965 17.8894 36.725 16.4512 36.725 14.5886C36.725 12.8204 37.1965 11.4058 38.116 10.3448C39.0591 9.28385 40.3087 8.74159 41.8647 8.74159C44.3167 8.74159 46.0614 10.109 46.5565 12.561L50.3524 12.2309C50.0459 10.1798 49.1028 8.5294 47.5467 7.32698C46.0142 6.12457 44.1517 5.51157 41.9826 5.51157Z" fill="#424242"/>
<path d="M59.7164 11.0993C58.1367 11.0993 57.005 11.5944 56.3685 12.6082V11.2171H53.0442V23.4063H56.4864V17.2292C56.4864 15.5317 57.7359 14.4236 59.7164 14.4236V11.0993Z" fill="#424242"/>
<path d="M73.6711 11.2171H69.8516L67.0696 18.4788L64.2639 11.2171H60.4681L65.2306 22.3218L62.1184 29.4184H65.8671L73.6711 11.2171Z" fill="#424242"/>
<path d="M82.3766 10.9814C80.7262 10.9814 79.5238 11.4765 78.7693 12.4903V11.2171H75.5157V29.4184H78.958V22.369C79.736 23.2413 80.8913 23.6657 82.3766 23.6657C84.1213 23.6657 85.5359 23.0763 86.6204 21.921C87.7285 20.7657 88.2708 19.2332 88.2708 17.3235C88.2708 15.4138 87.7285 13.8813 86.6204 12.7261C85.5359 11.5708 84.1213 10.9814 82.3766 10.9814ZM81.8343 13.9285C83.6026 13.9285 84.7814 15.178 84.7814 17.3235C84.7814 19.469 83.6026 20.7186 81.8343 20.7186C80.1132 20.7186 78.958 19.5162 78.958 17.6065V17.0406C78.958 15.1309 80.1132 13.9285 81.8343 13.9285Z" fill="#424242"/>
<path d="M98.1076 14.1878V11.2171H95.2548L95.2784 7.18552H91.8362L91.8126 11.2171H89.5728V14.1878H91.7891L91.7655 19.5397C91.7419 22.2747 93.4394 23.6421 96.1979 23.6421C96.8109 23.6421 97.4475 23.5949 98.1076 23.5006V20.4357C97.6597 20.5064 97.306 20.5535 97.0467 20.5535C95.9857 20.5535 95.2077 19.9641 95.2077 18.7146L95.2313 14.1878H98.1076Z" fill="#424242"/>
<path d="M112.85 17.3235C112.85 15.4138 112.237 13.8813 111.011 12.7261C109.809 11.5708 108.253 10.9814 106.366 10.9814C104.48 10.9814 102.924 11.5708 101.698 12.7261C100.496 13.8813 99.8829 15.4138 99.8829 17.3235C99.8829 19.2097 100.496 20.7422 101.698 21.921C102.924 23.0763 104.48 23.6657 106.366 23.6657C108.253 23.6657 109.809 23.0763 111.011 21.921C112.237 20.7422 112.85 19.2097 112.85 17.3235ZM108.536 14.848C109.078 15.4374 109.361 16.2626 109.361 17.3235C109.361 18.3845 109.078 19.2097 108.536 19.7991C107.993 20.3885 107.262 20.695 106.366 20.695C105.471 20.695 104.74 20.3885 104.197 19.7991C103.655 19.2097 103.372 18.3845 103.372 17.3235C103.372 16.2626 103.655 15.4374 104.197 14.848C104.74 14.235 105.471 13.9285 106.366 13.9285C107.262 13.9285 107.993 14.235 108.536 14.848Z" fill="#424242"/>
<path d="M123.971 13.787V16.9935H128.404C127.861 19.3276 126.235 20.4357 123.948 20.4357C120.718 20.4357 118.737 18.4316 118.737 14.5886C118.737 10.7456 120.718 8.74159 123.948 8.74159C126.329 8.74159 127.956 10.0383 128.451 12.2074L132.223 11.5708C131.751 9.66108 130.785 8.17574 129.299 7.11479C127.814 6.05383 126.046 5.51157 123.971 5.51157C121.354 5.51157 119.209 6.33676 117.535 7.96355C115.861 9.59035 115.036 11.783 115.036 14.5886C115.036 17.3707 115.861 19.5869 117.535 21.2137C119.209 22.8405 121.378 23.6657 123.995 23.6657C126.565 23.6657 128.592 22.8641 130.101 21.2844C131.634 19.7048 132.388 17.5829 132.388 14.9659V13.787H123.971Z" fill="#424242"/>
<path d="M146.604 17.0406C146.604 15.1545 146.086 13.6691 145.025 12.6082C143.964 11.5236 142.549 10.9814 140.781 10.9814C138.942 10.9814 137.457 11.5472 136.301 12.7025C135.146 13.8342 134.58 15.3667 134.58 17.3235C134.58 19.2568 135.146 20.7893 136.301 21.9446C137.457 23.0998 138.989 23.6657 140.875 23.6657C142.313 23.6657 143.539 23.2885 144.577 22.5576C145.638 21.8267 146.274 20.86 146.487 19.7048L143.021 19.5397C142.761 20.4357 142.007 20.8836 140.781 20.8836C139.249 20.8836 138.305 19.9406 138.235 18.4081H146.604V17.0406ZM140.757 13.6691C142.266 13.6691 143.068 14.5886 143.139 16.1211H138.235C138.329 14.5886 139.272 13.6691 140.757 13.6691Z" fill="#424242"/>
<path d="M155.862 10.9814C154.306 10.9814 153.221 11.4765 152.585 12.4667V11.2171H149.331V23.4063H152.773V16.6398C152.773 15.1545 153.693 14.1878 155.037 14.1878C156.357 14.1878 157.182 15.0837 157.182 16.6162V23.4063H160.625V15.9561C160.625 12.8439 158.715 10.9814 155.862 10.9814Z" fill="#424242"/>
<path d="M165.627 5.15792C163.906 5.06361 162.845 7.51559 164.165 8.69443C164.943 9.47247 166.31 9.47247 167.088 8.69443C167.489 8.29363 167.701 7.79852 167.701 7.23267C167.701 6.07741 166.782 5.15792 165.627 5.15792ZM167.348 11.2171H163.906V23.4063H167.348V11.2171Z" fill="#424242"/>
<path d="M182.131 17.0406C182.131 15.1545 181.612 13.6691 180.551 12.6082C179.49 11.5236 178.076 10.9814 176.307 10.9814C174.468 10.9814 172.983 11.5472 171.828 12.7025C170.672 13.8342 170.107 15.3667 170.107 17.3235C170.107 19.2568 170.672 20.7893 171.828 21.9446C172.983 23.0998 174.515 23.6657 176.402 23.6657C177.84 23.6657 179.066 23.2885 180.103 22.5576C181.164 21.8267 181.801 20.86 182.013 19.7048L178.547 19.5397C178.288 20.4357 177.533 20.8836 176.307 20.8836C174.775 20.8836 173.832 19.9406 173.761 18.4081H182.131V17.0406ZM176.284 13.6691C177.793 13.6691 178.594 14.5886 178.665 16.1211H173.761C173.855 14.5886 174.798 13.6691 176.284 13.6691Z" fill="#424242"/>
<path d="M20.8385 6.23521C18.8482 4.78917 16.429 4.05532 13.9707 4.1519C11.5125 4.24849 9.15831 5.16989 7.2876 6.76763C5.41688 8.36537 4.13856 10.5464 3.65861 12.9593C3.17866 15.3722 3.52503 17.8764 4.64192 20.0684C5.7588 22.2604 7.58115 24.0125 9.81532 25.0425C12.0495 26.0725 14.5654 26.3203 16.9575 25.746C19.3497 25.1716 21.4789 23.8087 23.0019 21.8767C24.1739 20.39 24.9345 18.633 25.2229 16.781H22.2251C21.9697 17.9669 21.4464 19.0868 20.6862 20.0511C19.5732 21.463 18.0173 22.459 16.2692 22.8787C14.521 23.2983 12.6825 23.1173 11.0498 22.3646C9.41719 21.6119 8.08547 20.3315 7.26928 18.7297C6.4531 17.1278 6.19998 15.2978 6.55071 13.5346C6.90145 11.7713 7.83561 10.1775 9.20267 9.00989C10.5697 7.84231 12.2901 7.16898 14.0865 7.0984C15.8829 7.02781 17.6508 7.56409 19.1052 8.62081L17.1244 11.3472C16.2823 10.7354 15.2588 10.425 14.2188 10.4658C13.1788 10.5067 12.1828 10.8965 11.3913 11.5725C10.5999 12.2484 10.059 13.1712 9.85598 14.192C9.65292 15.2128 9.79946 16.2723 10.272 17.1997C10.7445 18.1271 11.5155 18.8684 12.4607 19.3041C13.406 19.7399 14.4704 19.8447 15.4824 19.6018C16.4945 19.3588 17.3953 18.7821 18.0397 17.9648C18.3247 17.6033 18.5522 17.204 18.7173 16.781H14.4007V13.411H28.7239C28.7239 13.411 28.7231 14.4837 28.6238 16.781C28.5246 19.0784 27.2901 21.8806 25.6485 23.963C23.6568 26.4895 20.8725 28.2718 17.7442 29.0229C14.616 29.7739 11.326 29.4498 8.40443 28.103C5.48282 26.7561 3.09975 24.4648 1.63921 21.5983C0.178668 18.7319 -0.274282 15.4571 0.353347 12.3018C0.980976 9.14652 2.65263 6.2944 5.09895 4.20505C7.54526 2.11569 10.6238 0.91079 13.8384 0.784486C17.053 0.658182 20.2166 1.61783 22.8193 3.50881L20.8385 6.23521Z" fill="#424242"/>
</svg>
