<svg xmlns="http://www.w3.org/2000/svg" width="120" height="29" viewBox="0 0 120 29" fill="none">
<path fill-rule="evenodd" clip-rule="evenodd" d="M120 13.5829V14.1461C120 14.1461 119.36 14.3875 119.36 15.1921V27.9044C119.36 28.3871 118.96 28.7089 118.56 28.7089H116.08L110.641 20.0195C110.641 20.0195 110.721 20.7436 110.721 21.6287V28.7089H107.681V13.5829H109.681C110.721 13.5829 111.441 13.9852 111.921 14.7898L116.48 22.0309C116.48 22.0309 116.32 21.5482 116.32 20.4218V13.5829H120ZM61.7619 13.5829V27.9044C61.7619 28.3871 61.3619 28.7089 60.9619 28.7089H58.402L52.9622 20.0195C52.9622 20.0195 53.0422 20.7436 53.0422 21.6287V28.7089H50.0022V13.5829H52.0022C53.0422 13.5829 53.7621 13.9852 54.2421 14.7898L58.802 22.0309C58.802 22.0309 58.642 21.5482 58.642 20.4218V13.5829C58.722 13.5829 61.7619 13.5829 61.7619 13.5829ZM24.1629 13.5829H20.083V19.3758H16.5631V13.5829H11.8433V14.1461C11.8433 14.1461 12.4832 14.3875 12.4832 15.1921V28.7089H16.5631V22.1919H20.083V28.7089H24.1629V13.5829ZM37.3626 13.5829H28.3228V27.3411C28.3228 28.1457 29.0428 28.7089 29.8428 28.7089H37.3626C37.8426 28.7089 38.1626 28.3066 38.1626 27.9044V25.9734H32.9627C32.6427 25.9734 32.3227 25.732 32.3227 25.3297V22.1114H36.9626V19.3758H32.3227V16.3185H38.0826V14.3875C38.1626 13.9852 37.7626 13.5829 37.3626 13.5829ZM45.9223 13.5829H41.8425V27.9044C41.8425 28.3871 42.2424 28.7089 42.6424 28.7089H45.9223V13.5829ZM103.441 13.5829H94.401V27.3411C94.401 28.0653 95.121 28.7089 95.921 28.7089H103.441C103.921 28.7089 104.241 28.3066 104.241 27.9044V25.9734H99.0409C98.7209 25.9734 98.4009 25.732 98.4009 25.3297V22.1114H103.041V19.3758H98.4009V16.3185H104.161V14.3875C104.241 13.9852 103.841 13.5829 103.441 13.5829ZM74.8816 13.5829H65.8418V27.3411C65.8418 28.0653 66.5618 28.7089 67.3618 28.7089H74.8816C75.3615 28.7089 75.6815 28.3066 75.6815 27.9044V25.9734H70.4817C70.1617 25.9734 69.8417 25.732 69.8417 25.3297V22.1114H74.4816V19.3758H69.8417V16.3185H75.6015V14.3875C75.6815 13.9852 75.2815 13.5829 74.8816 13.5829ZM92.0011 13.5829H89.0412C88.3212 13.5829 87.7612 13.7438 87.2012 14.3875L83.0413 19.1345V13.5024H78.9614V27.8239C78.9614 28.3066 79.3614 28.6285 79.7614 28.6285H83.0413V21.7896L86.6412 27.4216C87.2012 28.2262 87.6812 28.7089 88.9612 28.7089H92.3211L86.6412 19.7781L92.0011 13.5829Z" fill="#424242"/>
<path fill-rule="evenodd" clip-rule="evenodd" d="M4.00313 19.215C3.92314 19.2955 3.76314 19.2955 3.68314 19.1346C3.60314 19.0541 3.60314 18.9736 3.68314 18.8932C3.76314 18.5714 5.84308 12.0543 5.84308 12.0543L0.0832392 7.8705C-0.0767565 7.70958 0.00324138 7.38775 0.243235 7.38775C0.563226 7.38775 7.28305 7.38775 7.28305 7.38775C7.28305 7.38775 9.36299 0.870685 9.44299 0.548855C9.52299 0.468397 9.60298 0.387939 9.76298 0.387939C9.84298 0.387939 9.92297 0.468397 9.92297 0.548855C10.003 0.870685 12.0829 7.38775 12.0829 7.38775C12.0829 7.38775 18.7227 7.38775 19.1227 7.38775C19.3627 7.38775 19.4427 7.70958 19.2827 7.8705L15.9228 10.3647H11.9229L10.723 6.50272L9.52298 10.3647H5.52309L8.803 12.7784L7.60304 16.6404L4.00313 19.215Z" fill="#424242"/>
</svg>