<svg width="137" height="27" viewBox="0 0 137 27" fill="none" xmlns="http://www.w3.org/2000/svg">
<path fill-rule="evenodd" clip-rule="evenodd" d="M74.3078 7.77748C74.5983 8.07931 74.9922 8.24887 75.403 8.24887C75.6146 8.26265 75.8266 8.23126 76.0261 8.15661C76.2255 8.08197 76.4081 7.96566 76.5627 7.81486C76.7172 7.66406 76.8403 7.48196 76.9245 7.2798C77.0087 7.07765 77.0521 6.85971 77.0521 6.63944C77.0521 6.41917 77.0087 6.20124 76.9245 5.99908C76.8403 5.79692 76.7172 5.61483 76.5627 5.46403C76.4081 5.31323 76.2255 5.19692 76.0261 5.12227C75.8266 5.04763 75.6146 5.01623 75.403 5.03002C74.9922 5.03002 74.5983 5.19958 74.3078 5.50141C74.0173 5.80323 73.8541 6.2126 73.8541 6.63944C73.8541 7.06629 74.0173 7.47565 74.3078 7.77748ZM76.6446 9.43776L74.1463 9.51364V18.4588H76.6446V9.43776ZM50.8041 8.24887C50.3933 8.24887 49.9994 8.07931 49.7089 7.77748C49.4184 7.47565 49.2552 7.06629 49.2552 6.63944C49.2552 6.2126 49.4184 5.80323 49.7089 5.50141C49.9994 5.19958 50.3933 5.03002 50.8041 5.03002C51.0157 5.01623 51.2278 5.04763 51.4272 5.12227C51.6266 5.19692 51.8093 5.31323 51.9638 5.46403C52.1183 5.61483 52.2414 5.79692 52.3256 5.99908C52.4098 6.20124 52.4532 6.41917 52.4532 6.63944C52.4532 6.85971 52.4098 7.07765 52.3256 7.2798C52.2414 7.48196 52.1183 7.66406 51.9638 7.81486C51.8093 7.96566 51.6266 8.08197 51.4272 8.15661C51.2278 8.23126 51.0157 8.26265 50.8041 8.24887ZM49.5443 9.51364L52.0427 9.43776V18.4588H49.5443V9.51364ZM48.3233 16.2299V18.4464H40.2988V5.94097H42.8885V16.2299H48.3233ZM62.3097 22.3103V9.50128L60.3652 9.48864C60.1903 10.0345 60.088 10.6025 60.0609 11.1771H59.994C59.5406 10.1147 58.6276 9.3748 57.167 9.3748C54.7965 9.3748 53.3206 11.2688 53.3206 13.9596C53.3206 16.8591 55.0155 18.5476 57.2218 18.5476C58.4998 18.5476 59.3184 18.0227 59.8114 17.2828V22.3103H62.3097ZM59.8114 13.6592V14.2442C59.8139 14.7979 59.6071 15.3305 59.2354 15.7273C58.8638 16.1241 58.357 16.3534 57.8243 16.3659C56.6223 16.3659 55.8554 15.4362 55.8554 13.9596C55.8554 12.483 56.604 11.5565 57.7695 11.5565C58.0381 11.5488 58.3055 11.5977 58.5554 11.7004C58.8053 11.8031 59.0325 11.9574 59.2234 12.154C59.4143 12.3505 59.5648 12.5852 59.6659 12.844C59.7669 13.1027 59.8164 13.38 59.8114 13.6592ZM72.1211 9.50111V18.4462L70.0975 18.5221C69.9578 17.9369 69.8672 17.3402 69.8267 16.7388H69.7993C69.6037 17.2994 69.2392 17.7794 68.76 18.1076C68.2809 18.4357 67.7126 18.5944 67.1397 18.5601C65.0095 18.5601 63.911 17.0234 63.911 14.9966V9.50111H66.4276V14.5412C66.4276 15.6036 66.9388 16.3246 67.9491 16.3246C69.0811 16.3246 69.6471 15.1673 69.6471 14.1112V9.50111H72.1211ZM86.9102 5.0679V18.4461L84.8866 18.5219C84.7575 17.9434 84.6791 17.354 84.6523 16.7608H84.5975C84.1228 17.82 83.2099 18.5599 81.734 18.5599C79.4 18.5599 77.9211 16.6438 77.9211 14.013C77.9211 11.0566 79.6739 9.38711 81.8618 9.38711C83.1003 9.38711 83.9219 9.88037 84.4149 10.6013V5.0679H86.9102ZM84.4149 14.2755V13.6715C84.4174 13.3931 84.3661 13.1169 84.2642 12.8594C84.1622 12.6019 84.0116 12.3682 83.8213 12.1722C83.6309 11.9762 83.4047 11.8218 83.1559 11.7182C82.9072 11.6145 82.641 11.5638 82.373 11.5688C81.2045 11.5688 80.4559 12.5174 80.4559 14.013C80.4559 15.4327 81.2228 16.3813 82.4278 16.3813C82.9597 16.3746 83.4674 16.1493 83.8398 15.7547C84.2122 15.36 84.419 14.8282 84.4149 14.2755ZM91.4616 9.40624C91.4616 8.55568 92.1372 8.02448 93.2296 8.02448L93.2479 8.02132C94.6508 8.02132 95.2898 9.00468 95.3476 9.66868L97.6633 9.08056C97.3864 7.73674 96.4035 5.8048 93.1931 5.8048C90.6035 5.8048 88.8903 7.45217 88.8903 9.55485C88.8903 12.0732 90.9318 12.7235 92.6853 13.2821C94.0052 13.7026 95.162 14.071 95.162 15.1452C95.162 15.923 94.526 16.3941 93.2296 16.3941C91.6473 16.3941 90.3844 15.4297 89.8215 14.8985L88.2999 16.8305C89.6689 17.9869 91.3864 18.6049 93.1505 18.5759C96.1936 18.5759 97.7151 17.0486 97.7151 15.0977C97.7151 12.3221 95.5388 11.6318 93.7539 11.0656C92.5132 10.6721 91.4616 10.3385 91.4616 9.40624ZM107.99 13.9722C107.99 16.8907 106.295 18.5602 104.053 18.5602C102.835 18.5602 101.993 18.048 101.5 17.3271V22.3103H99.0103V9.50127L100.979 9.42538C101.155 9.99602 101.257 10.5882 101.283 11.1866H101.338C101.795 10.1463 102.689 9.38743 104.202 9.38743C106.536 9.38743 108.012 11.3036 108.012 13.9722H107.99ZM105.48 13.9722C105.48 12.5146 104.713 11.566 103.508 11.566C102.976 11.5727 102.468 11.798 102.096 12.1927C101.724 12.5873 101.517 13.1192 101.521 13.6719V14.2758C101.518 14.5542 101.57 14.8304 101.672 15.0879C101.774 15.3454 101.924 15.5791 102.114 15.7751C102.305 15.9711 102.531 16.1255 102.78 16.2292C103.029 16.3328 103.295 16.3836 103.563 16.3785C104.731 16.3785 105.48 15.4299 105.48 13.9722ZM117.499 18.5602C117.911 18.5614 118.32 18.504 118.716 18.3895L118.61 16.4196C118.512 16.4564 118.41 16.4756 118.306 16.4765C117.962 16.4765 117.813 16.3057 117.813 15.8884V9.50127H115.844C115.669 10.0471 115.567 10.6152 115.54 11.1897H115.485C115.031 10.1273 114.118 9.38743 112.658 9.38743C110.287 9.38743 108.811 11.2814 108.811 13.9722C108.811 16.8717 110.506 18.5602 112.716 18.5602C114.198 18.5602 115.019 17.8583 115.454 16.8907H115.473C115.582 17.9911 116.203 18.5602 117.499 18.5602ZM115.342 13.6529L115.324 14.2568C115.326 14.8105 115.119 15.3431 114.748 15.7399C114.376 16.1367 113.869 16.366 113.336 16.3785C112.134 16.3785 111.368 15.4489 111.368 13.9722C111.368 12.4956 112.116 11.5692 113.285 11.5692C113.553 11.5614 113.82 11.6104 114.07 11.7131C114.32 11.8158 114.547 11.9701 114.738 12.1667C114.928 12.3633 115.078 12.5981 115.179 12.8568C115.28 13.1156 115.329 13.3928 115.324 13.6719L115.342 13.6529ZM127.487 12.5395C127.489 12.7621 127.471 12.9845 127.432 13.2035L125.226 13.3363C125.256 13.2058 125.268 13.0718 125.263 12.9379C125.271 12.744 125.239 12.5506 125.169 12.3706C125.1 12.1905 124.994 12.0279 124.859 11.8936C124.725 11.7593 124.564 11.6563 124.388 11.5916C124.212 11.5268 124.025 11.5018 123.839 11.5182C122.71 11.5182 121.943 12.4826 121.943 13.9244C121.943 15.439 122.691 16.454 124.167 16.454C124.609 16.4709 125.049 16.3861 125.456 16.2057C125.862 16.0253 126.226 15.7538 126.52 15.4105L127.737 17.0389C127.189 17.7598 125.929 18.5756 123.997 18.5756C121.115 18.5756 119.402 16.6784 119.402 14.0287C119.402 11.281 121.228 9.40283 123.869 9.40283C126.148 9.40283 127.481 10.8067 127.481 12.549L127.487 12.5395ZM136.71 16.9856L135.527 15.5659L135.502 15.5753C135.229 15.9085 134.886 16.1736 134.501 16.3509C134.115 16.5282 133.696 16.6133 133.275 16.5998C131.863 16.5998 131.06 15.7651 130.84 14.5698H136.653C136.704 14.2566 136.729 13.9391 136.726 13.6213C136.726 11.1739 135.289 9.39375 132.77 9.39375C130.11 9.39375 128.376 11.2878 128.376 13.9786C128.376 16.6694 130.11 18.5665 133.01 18.5665C134.885 18.5665 136.126 17.7824 136.71 16.9856ZM134.425 13.226H130.831C131.014 12.0308 131.762 11.37 132.745 11.37C133.786 11.37 134.407 12.1636 134.425 13.226Z" fill="#424242"/>
<path d="M26.3272 22.9228C26.1942 24.3107 24.8924 25.598 23.489 25.7424C17.0739 26.3781 10.6121 26.3781 4.19709 25.7424C2.79371 25.598 1.49308 24.3107 1.35891 22.9228C0.760572 16.5122 0.760572 10.0595 1.35891 3.64896C1.49308 2.26099 2.79371 0.979793 4.19709 0.829349C10.6121 0.193603 17.0739 0.193603 23.489 0.829349C24.8924 0.97494 26.1942 2.26099 26.3272 3.64896C26.9267 10.0595 26.9267 16.5123 26.3272 22.9228Z" fill="#424242"/>
<path d="M8.57001 16.8968H11.1713L10.1051 19.2675C10.1053 19.2708 10.1053 19.274 10.1051 19.2772C10.009 19.4863 9.87214 19.674 9.70262 19.8293C9.39462 20.1106 8.99372 20.2675 8.57726 20.2697H8.56759C8.12525 20.2649 7.70234 20.0866 7.38943 19.7727C7.07652 19.4589 6.89848 19.0345 6.89345 18.5905V18.582C6.89722 18.1376 7.07436 17.7124 7.38689 17.3976C7.69942 17.0827 8.12243 16.9034 8.56517 16.898L8.57001 16.8968ZM16.6155 9.46682C16.6953 9.28726 16.7763 9.11012 16.8573 8.93056C16.9383 8.751 17.0181 8.57386 17.0991 8.3943C17.18 8.21474 17.2598 8.03882 17.3408 7.85926L17.5826 7.32421V7.3145C17.6497 7.16494 17.7376 7.02565 17.8437 6.90078C17.9492 6.77704 18.0713 6.66845 18.2063 6.57806C18.3409 6.4897 18.4875 6.42106 18.6414 6.37423C18.719 6.35254 18.7977 6.33513 18.8771 6.32206C18.9573 6.31148 19.038 6.30581 19.1189 6.30507H19.1286C19.3481 6.30481 19.5655 6.34854 19.768 6.43368C19.9713 6.51754 20.156 6.64104 20.3114 6.79702C20.4668 6.95301 20.5898 7.13838 20.6734 7.34241C20.7134 7.44416 20.7457 7.54879 20.7701 7.65543C20.7888 7.76409 20.7997 7.87398 20.8027 7.98422V7.99271C20.8031 8.21348 20.7595 8.4321 20.6746 8.63574C20.6306 8.73569 20.5793 8.83221 20.5211 8.9245C20.3994 9.10893 20.2424 9.26728 20.0593 9.39039C19.9673 9.45011 19.8707 9.50244 19.7704 9.5469C19.669 9.58647 19.5647 9.61851 19.4586 9.64274C19.3504 9.66224 19.2409 9.67319 19.131 9.6755H16.5213L16.6155 9.46561V9.46682ZM19.1153 4.37842C18.9426 4.38049 18.7702 4.39345 18.5991 4.41724C18.4279 4.44372 18.2587 4.48182 18.0927 4.53129C17.4268 4.73096 16.8333 5.12092 16.3847 5.65355C16.1611 5.91625 15.9759 6.20957 15.8347 6.52467C15.8327 6.53013 15.8303 6.53541 15.8274 6.54044C15.7477 6.71879 15.6667 6.89714 15.5857 7.0767L15.3439 7.61175C15.2633 7.7897 15.1828 7.96804 15.1022 8.1468L14.8604 8.68185C14.7105 9.01347 14.5615 9.34469 14.4132 9.6755H0.975341C0.953583 10.3161 0.937063 10.9571 0.925781 11.5985H13.5537C13.0477 12.7236 12.542 13.8479 12.0367 14.9714H8.55188C7.60222 14.9765 6.69311 15.3583 6.02284 16.0336C5.35256 16.7089 4.97552 17.6228 4.97393 18.576V18.6027C4.97712 19.5556 5.35578 20.4686 6.02726 21.1424C6.69873 21.8161 7.60848 22.1959 8.55792 22.1988H8.57726C9.26609 22.1943 9.93929 21.9923 10.5175 21.6166C11.0958 21.2408 11.5549 20.707 11.8409 20.078C11.8429 20.0729 11.8453 20.068 11.8482 20.0634L13.2697 16.9017H26.7184C26.7402 16.2595 26.7563 15.618 26.7668 14.9774H14.1388C14.6449 13.8532 15.1505 12.7289 15.6558 11.6046H19.1419C19.6119 11.6014 20.0768 11.5058 20.5102 11.3231C20.7255 11.2292 20.9325 11.1171 21.1291 10.9882C21.7166 10.5917 22.1745 10.0299 22.4454 9.3734C22.6252 8.93749 22.7184 8.47055 22.7198 7.99878C22.7192 7.99192 22.7192 7.98502 22.7198 7.97815C22.7189 7.50622 22.6252 7.0391 22.4442 6.60353C22.1716 5.94759 21.7123 5.38689 21.1239 4.99155C20.5354 4.59621 19.8439 4.38379 19.1358 4.38084L19.1153 4.37842Z" fill="#F3F2F4"/>
</svg>
