<svg xmlns="http://www.w3.org/2000/svg" width="139" height="23" viewBox="0 0 139 23" fill="none">
  <path d="M32.3737 4.29575C30.3754 4.29575 28.7518 4.92022 27.485 6.15131C26.2182 7.3824 25.5938 9.04169 25.5938 11.1649C25.5938 13.2702 26.2182 14.9474 27.485 16.1784C28.7518 17.4095 30.3932 18.034 32.3915 18.034C34.033 18.034 35.4425 17.588 36.6022 16.678C37.7619 15.7681 38.4756 14.5548 38.7254 13.0026L35.835 12.7528C35.4781 14.5905 34.1578 15.5897 32.3023 15.5897C31.1604 15.5897 30.2148 15.1971 29.4833 14.4299C28.7518 13.6627 28.3949 12.5744 28.3949 11.1649C28.3949 9.82673 28.7518 8.75622 29.4476 7.95334C30.1613 7.15045 31.1069 6.74009 32.2845 6.74009C34.14 6.74009 35.4603 7.77492 35.835 9.63047L38.7075 9.38069C38.4756 7.82844 37.7619 6.57951 36.5843 5.66958C35.4246 4.75964 34.0151 4.29575 32.3737 4.29575Z" fill="#424242"/>
  <path d="M45.7938 8.52428C44.5984 8.52428 43.742 8.89896 43.2603 9.66616V8.61349H40.7446V17.8377H43.3495V13.1632C43.3495 11.8786 44.2951 11.04 45.7938 11.04V8.52428Z" fill="#424242"/>
  <path d="M56.3541 8.61349H53.4637L51.3584 14.1088L49.2352 8.61349H46.3627L49.9667 17.017L47.6116 22.3874H50.4485L56.3541 8.61349Z" fill="#424242"/>
  <path d="M62.9421 8.43507C61.6931 8.43507 60.7832 8.80975 60.2123 9.57695V8.61349H57.7501V22.3874H60.355V17.0527C60.9438 17.7128 61.818 18.034 62.9421 18.034C64.2624 18.034 65.3329 17.588 66.1536 16.7137C66.9922 15.8394 67.4025 14.6797 67.4025 13.2345C67.4025 11.7893 66.9922 10.6296 66.1536 9.75537C65.3329 8.88111 64.2624 8.43507 62.9421 8.43507ZM62.5317 10.6653C63.8699 10.6653 64.7619 11.6109 64.7619 13.2345C64.7619 14.8581 63.8699 15.8038 62.5317 15.8038C61.2293 15.8038 60.355 14.8938 60.355 13.4486V13.0204C60.355 11.5752 61.2293 10.6653 62.5317 10.6653Z" fill="#424242"/>
  <path d="M74.8466 10.8616V8.61349H72.6878L72.7056 5.56253H70.1007L70.0829 8.61349H68.3879V10.8616H70.065L70.0472 14.9117C70.0293 16.9813 71.314 18.0162 73.4015 18.0162C73.8653 18.0162 74.3471 17.9805 74.8466 17.9091V15.5897C74.5076 15.6432 74.24 15.6789 74.0438 15.6789C73.2409 15.6789 72.6521 15.2328 72.6521 14.2872L72.6699 10.8616H74.8466Z" fill="#424242"/>
  <path d="M86.0031 13.2345C86.0031 11.7893 85.5392 10.6296 84.6114 9.75537C83.7015 8.88111 82.5239 8.43507 81.0966 8.43507C79.6692 8.43507 78.4917 8.88111 77.5639 9.75537C76.654 10.6296 76.1901 11.7893 76.1901 13.2345C76.1901 14.6619 76.654 15.8216 77.5639 16.7137C78.4917 17.588 79.6692 18.034 81.0966 18.034C82.5239 18.034 83.7015 17.588 84.6114 16.7137C85.5392 15.8216 86.0031 14.6619 86.0031 13.2345ZM82.738 11.3611C83.1484 11.8072 83.3625 12.4316 83.3625 13.2345C83.3625 14.0374 83.1484 14.6619 82.738 15.1079C82.3277 15.554 81.7746 15.7859 81.0966 15.7859C80.4186 15.7859 79.8655 15.554 79.4551 15.1079C79.0448 14.6619 78.8307 14.0374 78.8307 13.2345C78.8307 12.4316 79.0448 11.8072 79.4551 11.3611C79.8655 10.8972 80.4186 10.6653 81.0966 10.6653C81.7746 10.6653 82.3277 10.8972 82.738 11.3611Z" fill="#424242"/>
  <path d="M94.419 10.5583V12.9847H97.7733C97.3629 14.7511 96.1319 15.5897 94.4012 15.5897C91.9569 15.5897 90.4581 14.0731 90.4581 11.1649C90.4581 8.25665 91.9569 6.74009 94.4012 6.74009C96.2032 6.74009 97.4343 7.72139 97.809 9.36284L100.664 8.88111C100.307 7.43592 99.5753 6.31188 98.4513 5.509C97.3273 4.70612 95.9891 4.29575 94.419 4.29575C92.4386 4.29575 90.815 4.92022 89.5482 6.15131C88.2814 7.3824 87.657 9.04169 87.657 11.1649C87.657 13.2702 88.2814 14.9474 89.5482 16.1784C90.815 17.4095 92.4564 18.034 94.4369 18.034C96.3816 18.034 97.916 17.4274 99.0579 16.232C100.218 15.0366 100.789 13.4308 100.789 11.4503V10.5583H94.419Z" fill="#424242"/>
  <path d="M111.547 13.0204C111.547 11.5931 111.154 10.469 110.352 9.66616C109.549 8.84543 108.478 8.43507 107.14 8.43507C105.748 8.43507 104.624 8.86327 103.75 9.73752C102.876 10.5939 102.448 11.7537 102.448 13.2345C102.448 14.6976 102.876 15.8573 103.75 16.7315C104.624 17.6058 105.784 18.034 107.211 18.034C108.3 18.034 109.228 17.7485 110.013 17.1954C110.815 16.6423 111.297 15.9108 111.458 15.0366L108.835 14.9117C108.639 15.5897 108.068 15.9287 107.14 15.9287C105.98 15.9287 105.267 15.215 105.213 14.0553H111.547V13.0204ZM107.122 10.469C108.264 10.469 108.871 11.1649 108.924 12.3246H105.213C105.284 11.1649 105.998 10.469 107.122 10.469Z" fill="#424242"/>
  <path d="M118.553 8.43507C117.375 8.43507 116.554 8.80975 116.073 9.55911V8.61349H113.61V17.8377H116.215V12.7171C116.215 11.5931 116.911 10.8616 117.928 10.8616C118.927 10.8616 119.552 11.5396 119.552 12.6993V17.8377H122.157V12.1997C122.157 9.84458 120.712 8.43507 118.553 8.43507Z" fill="#424242"/>
  <path d="M125.942 4.02812C124.64 3.95676 123.837 5.81231 124.836 6.70441C125.425 7.29319 126.46 7.29319 127.048 6.70441C127.352 6.40109 127.512 6.02641 127.512 5.59821C127.512 4.72396 126.816 4.02812 125.942 4.02812ZM127.245 8.61349H124.64V17.8377H127.245V8.61349Z" fill="#424242"/>
  <path d="M138.432 13.0204C138.432 11.5931 138.039 10.469 137.236 9.66616C136.433 8.84543 135.363 8.43507 134.025 8.43507C132.633 8.43507 131.509 8.86327 130.635 9.73752C129.761 10.5939 129.332 11.7537 129.332 13.2345C129.332 14.6976 129.761 15.8573 130.635 16.7315C131.509 17.6058 132.669 18.034 134.096 18.034C135.184 18.034 136.112 17.7485 136.897 17.1954C137.7 16.6423 138.182 15.9108 138.343 15.0366L135.72 14.9117C135.523 15.5897 134.953 15.9287 134.025 15.9287C132.865 15.9287 132.151 15.215 132.098 14.0553H138.432V13.0204ZM134.007 10.469C135.149 10.469 135.755 11.1649 135.809 12.3246H132.098C132.169 11.1649 132.883 10.469 134.007 10.469Z" fill="#424242"/>
  <path d="M16.3668 4.84271C14.8606 3.74841 13.0299 3.19306 11.1696 3.26615C9.30926 3.33924 7.52774 4.03652 6.11207 5.24562C4.69639 6.45472 3.72901 8.10523 3.36581 9.93119C3.0026 11.7572 3.26472 13.6522 4.10993 15.311C4.95514 16.9699 6.33421 18.2958 8.02494 19.0753C9.71566 19.8547 11.6196 20.0422 13.4299 19.6076C15.2402 19.173 16.8514 18.1415 18.004 16.6795C18.8909 15.5544 19.4665 14.2248 19.6847 12.8233H17.4161C17.2229 13.7208 16.8268 14.5683 16.2516 15.298C15.4093 16.3664 14.2318 17.1201 12.9089 17.4377C11.586 17.7554 10.1947 17.6183 8.95918 17.0487C7.72365 16.4791 6.71586 15.5102 6.09821 14.298C5.48055 13.0858 5.289 11.7009 5.55442 10.3665C5.81984 9.03218 6.52678 7.82603 7.56131 6.94246C8.59584 6.05889 9.89772 5.54934 11.2572 5.49593C12.6166 5.44251 13.9545 5.84834 15.0551 6.64803L13.5561 8.71125C12.9189 8.24828 12.1443 8.01332 11.3573 8.04424C10.5702 8.07517 9.81652 8.37017 9.21758 8.88171C8.61864 9.39325 8.20937 10.0915 8.0557 10.8641C7.90204 11.6366 8.01294 12.4384 8.37053 13.1402C8.72811 13.842 9.31157 14.403 10.0269 14.7327C10.7422 15.0625 11.5477 15.1418 12.3136 14.9579C13.0795 14.7741 13.7612 14.3377 14.2488 13.7191C14.4644 13.4456 14.6366 13.1434 14.7615 12.8233H11.4949V10.273H22.3341C22.3341 10.273 22.3335 11.0848 22.2584 12.8233C22.1833 14.5618 21.2491 16.6825 20.0068 18.2584C18.4995 20.1703 16.3925 21.5191 14.0252 22.0874C11.6579 22.6557 9.16818 22.4105 6.95724 21.3913C4.74629 20.372 2.94289 18.6381 1.83761 16.4688C0.732337 14.2996 0.389564 11.8215 0.864526 9.43365C1.33949 7.04586 2.60452 4.8875 4.45579 3.30637C6.30706 1.72523 8.63674 0.813415 11.0694 0.717833C13.5021 0.622252 15.8962 1.34848 17.8658 2.77948L16.3668 4.84271Z" fill="#424242"/>
</svg>