<svg xmlns="http://www.w3.org/2000/svg" width="111" height="27" viewBox="0 0 111 27" fill="none">
  <g clipPath="url(#clip0_5043_7264)">
    <path d="M64.6629 17.302C64.5756 17.3224 64.2265 17.3224 64.0738 17.3224H52.8161V19.7694H64.2701C64.3574 19.7694 65.0337 19.7694 65.1646 19.749C67.4991 19.5451 68.5681 17.7303 68.5681 16.1397C68.5681 14.5084 67.4554 12.7548 65.3392 12.5712C64.9247 12.5305 64.5756 12.5305 64.4229 12.5305H56.9396C56.6123 12.5305 56.2414 12.5101 56.1105 12.4693C55.5215 12.3266 55.3033 11.8372 55.3033 11.4293C55.3033 11.0623 55.5215 10.5729 56.1324 10.4098C56.3069 10.369 56.5033 10.3486 56.9178 10.3486H67.7173V7.94241H56.7432C56.2851 7.94241 55.936 7.9628 55.6524 8.00358C53.7761 8.24828 52.4671 9.65528 52.4671 11.4497C52.4671 12.9179 53.4488 14.6308 55.6087 14.9163C56.0015 14.957 56.5469 14.957 56.7869 14.957H64.0738C64.2047 14.957 64.532 14.957 64.5974 14.9774C65.4265 15.0794 65.7101 15.6503 65.7101 16.1601C65.7101 16.6495 65.3828 17.1797 64.6629 17.302ZM43.3257 17.302C43.2384 17.3224 42.8894 17.3224 42.7585 17.3224H31.479V19.7694H42.933C43.0203 19.7694 43.6966 19.7694 43.8275 19.749C46.1619 19.5451 47.231 17.7303 47.231 16.1397C47.231 14.5084 46.1183 12.7548 44.002 12.5712C43.5875 12.5305 43.2384 12.5305 43.0857 12.5305H35.6024C35.2752 12.5305 34.9043 12.5101 34.7734 12.4693C34.1843 12.3266 33.9661 11.8372 33.9661 11.4293C33.9661 11.0623 34.1843 10.5729 34.7952 10.4098C34.9697 10.369 35.1661 10.3486 35.5806 10.3486H46.3801V7.94241H35.4061C34.9479 7.94241 34.5988 7.9628 34.3152 8.00358C32.4389 8.24828 31.1299 9.65528 31.1299 11.4497C31.1299 12.9179 32.1117 14.6308 34.2716 14.9163C34.6643 14.957 35.2097 14.957 35.4497 14.957H42.7366C42.8675 14.957 43.1948 14.957 43.2603 14.9774C44.0893 15.0794 44.3729 15.6503 44.3729 16.1601C44.3729 16.6495 44.0675 17.1797 43.3257 17.302ZM22.774 7.86084H25.6102V19.8306H22.774V7.86084ZM4.2294 7.86084H0.585938V19.8306H3.42216V10.8584L12.9344 19.8306H16.5124V7.86084H13.6762V16.7923L4.2294 7.86084ZM94.6396 19.8306H97.4758V10.8584L106.966 19.8306H110.544V7.86084H107.73V16.7923L98.2831 7.86084H94.6396V19.8306ZM79.8694 7.86084L71.8843 19.8306H75.3314L76.7495 17.6895H86.0655L87.4836 19.8306H90.9089L82.9238 7.86084H79.8694ZM84.6037 15.426H78.2113L81.4184 10.6137L84.6037 15.426Z" fill="#424242"/>
  </g>
  <defs>
    <clipPath id="clip0_5043_7264">
      <rect width="109.958" height="25.375" fill="white" transform="translate(0.585938 0.86084)"/>
    </clipPath>
  </defs>
</svg>