<svg width="140" height="32" viewBox="0 0 140 32" fill="none" xmlns="http://www.w3.org/2000/svg">
<path d="M41.8067 18.8841C43.567 18.8841 44.7247 18.0636 45.2798 16.4226L47.5634 17.0143C47.2463 18.2608 46.5485 19.2628 45.4701 20.0202C44.4075 20.7775 43.1864 21.1562 41.8067 21.1562C40.0781 21.1562 38.6032 20.5803 37.3821 19.4285C36.1769 18.2608 35.5742 16.7697 35.5742 14.9552C35.5742 13.1564 36.1769 11.6732 37.3821 10.5055C38.6032 9.33789 40.0781 8.75407 41.8067 8.75407C43.1547 8.75407 44.36 9.13276 45.4225 9.89015C46.485 10.6318 47.1987 11.6258 47.5634 12.8723L45.1846 13.5587C44.9626 12.7224 44.5503 12.0913 43.9476 11.6653C43.345 11.2392 42.6314 11.0262 41.8067 11.0262C40.7124 11.0262 39.8006 11.397 39.0711 12.1386C38.3574 12.8645 38.0006 13.8033 38.0006 14.9552C38.0006 16.1386 38.3574 17.0932 39.0711 17.819C39.7847 18.5291 40.6966 18.8841 41.8067 18.8841Z" fill="#424242"/>
<path d="M56.8919 8.75407C58.3033 8.75407 59.4452 9.21955 60.3174 10.1505C61.1896 11.0657 61.6257 12.257 61.6257 13.7244V20.8249H59.128V14.2214C59.128 13.2589 58.8663 12.4858 58.343 11.9019C57.8355 11.3181 57.1615 11.0262 56.321 11.0262C55.2267 11.0262 54.3624 11.397 53.7281 12.1386C53.1096 12.8802 52.8003 13.969 52.8003 15.4049V20.8249H50.3264V3.78373H52.8003V10.5292C53.7994 9.34578 55.1633 8.75407 56.8919 8.75407Z" fill="#424242"/>
<path d="M76.6383 9.08543V20.8249H74.1643V19.4758C73.0859 20.5961 71.6586 21.1562 69.8824 21.1562C68.2807 21.1562 66.901 20.5803 65.7433 19.4285C64.6015 18.2608 64.0306 16.7697 64.0306 14.9552C64.0306 13.1564 64.6094 11.6732 65.7671 10.5055C66.9248 9.33789 68.2966 8.75407 69.8824 8.75407C71.6586 8.75407 73.0859 9.31422 74.1643 10.4345V9.08543H76.6383ZM70.2868 18.9788C71.3176 18.9788 72.2216 18.608 72.9987 17.8664C73.7757 17.109 74.1643 16.1386 74.1643 14.9552C74.1643 13.7717 73.7757 12.8092 72.9987 12.0676C72.2216 11.3102 71.3176 10.9316 70.2868 10.9316C69.1767 10.9316 68.2569 11.3024 67.5274 12.044C66.7979 12.7698 66.4332 13.7402 66.4332 14.9552C66.4332 16.1701 66.7979 17.1484 67.5274 17.89C68.2569 18.6158 69.1767 18.9788 70.2868 18.9788Z" fill="#424242"/>
<path d="M87.4756 18.1977L88.2368 20.2568C87.2219 20.8564 86.2465 21.1562 85.3109 21.1562C83.9946 21.1562 82.9559 20.7933 82.1946 20.0675C81.4334 19.3259 81.0528 18.245 81.0528 16.8249V11.1209H78.5075V9.08543H81.0528V5.44051H83.5268V9.08543H87.5707V11.1209H83.5268V16.6593C83.5268 17.3693 83.7012 17.9137 84.0501 18.2924C84.399 18.6553 84.8748 18.8368 85.4774 18.8368C86.1593 18.8368 86.8254 18.6237 87.4756 18.1977Z" fill="#424242"/>
<path d="M97.1588 11.1209H93.2338V20.8249H90.7598V11.1209H88.833V9.08543H90.7598V7.689C90.7598 6.37935 91.1563 5.34584 91.9492 4.58846C92.7422 3.81529 93.7968 3.42871 95.1131 3.42871C95.8108 3.42871 96.4848 3.57072 97.135 3.85474L96.5403 5.86654C96.128 5.70875 95.7078 5.62986 95.2796 5.62986C94.6611 5.62986 94.1615 5.81132 93.7809 6.17423C93.4162 6.53714 93.2338 7.04207 93.2338 7.689V9.08543H97.1588V11.1209Z" fill="#424242"/>
<path d="M99.6174 10.5529C100.854 9.401 102.361 8.82507 104.137 8.82507C105.913 8.82507 107.404 9.401 108.609 10.5529C109.83 11.6889 110.441 13.1564 110.441 14.9552C110.441 16.7539 109.83 18.2293 108.609 19.3811C107.388 20.533 105.897 21.1089 104.137 21.1089C102.361 21.1089 100.854 20.533 99.6174 19.3811C98.3963 18.2293 97.7857 16.7539 97.7857 14.9552C97.7857 13.1564 98.3963 11.6889 99.6174 10.5529ZM104.137 18.9788C105.184 18.9788 106.096 18.608 106.873 17.8664C107.65 17.109 108.038 16.1386 108.038 14.9552C108.038 13.7717 107.65 12.8092 106.873 12.0676C106.096 11.3102 105.184 10.9316 104.137 10.9316C103.059 10.9316 102.131 11.3102 101.354 12.0676C100.593 12.8092 100.212 13.7717 100.212 14.9552C100.212 16.1386 100.593 17.109 101.354 17.8664C102.131 18.608 103.059 18.9788 104.137 18.9788Z" fill="#424242"/>
<path d="M114.02 10.5529C115.257 9.401 116.764 8.82507 118.54 8.82507C120.316 8.82507 121.807 9.401 123.012 10.5529C124.233 11.6889 124.844 13.1564 124.844 14.9552C124.844 16.7539 124.233 18.2293 123.012 19.3811C121.791 20.533 120.3 21.1089 118.54 21.1089C116.764 21.1089 115.257 20.533 114.02 19.3811C112.799 18.2293 112.189 16.7539 112.189 14.9552C112.189 13.1564 112.799 11.6889 114.02 10.5529ZM118.54 18.9788C119.587 18.9788 120.499 18.608 121.276 17.8664C122.053 17.109 122.441 16.1386 122.441 14.9552C122.441 13.7717 122.053 12.8092 121.276 12.0676C120.499 11.3102 119.587 10.9316 118.54 10.9316C117.462 10.9316 116.534 11.3102 115.757 12.0676C114.996 12.8092 114.615 13.7717 114.615 14.9552C114.615 16.1386 114.996 17.109 115.757 17.8664C116.534 18.608 117.462 18.9788 118.54 18.9788Z" fill="#424242"/>
<path d="M139.223 3.78373V20.8249H136.725V19.4995C135.615 20.604 134.188 21.1562 132.443 21.1562C130.858 21.1562 129.486 20.5724 128.328 19.4048C127.17 18.2372 126.592 16.7539 126.592 14.9552C126.592 13.1564 127.17 11.6732 128.328 10.5055C129.486 9.33789 130.858 8.75407 132.443 8.75407C134.204 8.75407 135.631 9.31422 136.725 10.4345V3.78373H139.223ZM132.848 18.9788C133.879 18.9788 134.783 18.608 135.56 17.8664C136.337 17.1247 136.725 16.1543 136.725 14.9552C136.725 13.7717 136.337 12.8092 135.56 12.0676C134.783 11.3102 133.879 10.9316 132.848 10.9316C131.754 10.9316 130.842 11.3024 130.112 12.044C129.383 12.7856 129.018 13.756 129.018 14.9552C129.018 16.1701 129.383 17.1484 130.112 17.89C130.842 18.6158 131.754 18.9788 132.848 18.9788Z" fill="#424242"/>
<path fill-rule="evenodd" clip-rule="evenodd" d="M11.4717 25.1146V32C11.4717 32 18.4367 26.3297 23.3531 19.8493C25.0925 17.5567 26.2739 13.9467 25.8114 10.9388C24.8047 4.39153 19.3983 -0.136811 12.7008 0.0031564C5.68792 0.149715 0 5.62455 0 12.5589C0 23.4945 11.4717 25.1146 11.4717 25.1146ZM12.9566 19.0019C16.5343 19.0019 19.4346 16.1614 19.4346 12.6574C19.4346 9.15349 16.5343 6.31298 12.9566 6.31298C9.37884 6.31298 6.47852 9.15349 6.47852 12.6574C6.47852 16.1614 9.37884 19.0019 12.9566 19.0019Z" fill="#424242"/>
</svg>
