<svg xmlns="http://www.w3.org/2000/svg" width="86" height="25" viewBox="0 0 86 25" fill="none">
  <path d="M66.8267 0.73567H70.5143V19.9248H67.0666V18.4095C66.9195 18.5939 66.8432 18.7067 66.7499 18.8033C65.9533 19.6304 64.9761 20.081 63.8309 20.2318C62.7961 20.3685 61.7881 20.3012 60.8115 19.9438C59.243 19.3684 58.1307 18.3228 57.5356 16.7597C57.2333 15.9774 57.0875 15.1445 57.1063 14.3073C57.1266 13.4194 57.102 12.5305 57.1129 11.6427C57.1305 10.1909 57.5521 8.88058 58.5326 7.76986C59.4357 6.74754 60.5639 6.15693 61.9259 5.98013C63.0409 5.83695 64.1438 5.84074 65.1649 6.34729C65.7562 6.6407 66.2854 7.05722 66.8256 7.40757L66.8267 0.73567ZM66.8399 13.1396C66.8399 12.6428 66.8739 12.2306 66.8306 11.826C66.7856 11.4122 66.7263 10.9805 66.5649 10.6014C66.1531 9.63606 65.3928 9.09751 64.3338 8.92017C63.5652 8.79055 62.8488 8.90281 62.2015 9.28625C61.3385 9.79713 60.8697 10.6193 60.8235 11.5869C60.7686 12.7111 60.7648 13.8522 60.9042 14.9662C61.014 15.8421 61.5032 16.5932 62.3783 17.0011C62.9542 17.2722 63.5482 17.3303 64.1839 17.2891C65.2901 17.2169 66.2668 16.3579 66.6324 15.4191C66.931 14.643 66.8031 13.843 66.8377 13.1391L66.8399 13.1396Z" fill="#424242"/>
  <path d="M28.4969 6.21715V7.59361C28.9032 7.27417 29.2935 6.92599 29.725 6.63746C30.4282 6.16779 31.2292 5.9617 32.0714 5.91506C33.1644 5.85486 34.2316 5.97417 35.2346 6.43734C36.7603 7.14238 37.676 8.36428 38.1371 9.92352C38.3006 10.5075 38.3965 11.1079 38.4232 11.7132C38.4704 12.5403 38.4341 13.3723 38.4352 14.2021C38.4352 15.7434 38.0608 17.1774 37.0545 18.3781C36.2909 19.3008 35.2212 19.9266 34.0351 20.1445C33.4282 20.2645 32.8088 20.3111 32.1905 20.2834C30.8098 20.2074 29.5844 19.741 28.6457 18.6319V24.5483H24.9675V6.21715H28.4969ZM28.593 12.9422C28.638 13.6505 28.6693 14.1939 28.7083 14.7368C28.7714 15.6089 29.221 16.2749 29.9045 16.7809C30.6182 17.3086 31.4505 17.403 32.3052 17.269C32.9091 17.1763 33.4581 16.9246 33.8759 16.4766C34.4748 15.8367 34.7147 15.0378 34.7329 14.1907C34.7521 13.3094 34.712 12.4253 34.6659 11.544C34.6372 10.853 34.3461 10.1979 33.8506 9.70929C33.1029 8.96737 32.1812 8.76344 31.1392 8.92235C29.9402 9.10566 29.0124 10.0396 28.7901 11.1075C28.6561 11.7583 28.644 12.4335 28.593 12.94V12.9422Z" fill="#424242"/>
  <path d="M85.5095 14.406H76.4659C76.1997 15.7076 77.1181 17.2576 78.8162 17.3634C79.6001 17.4122 80.3308 17.3601 81.0269 16.9984C81.4222 16.7928 81.7653 16.5369 81.9723 16.1252C82.059 15.9522 82.1979 15.8589 82.44 15.8649C83.4079 15.8888 84.3774 15.8747 85.3859 15.8747C84.882 18.0842 83.4464 19.3635 81.3618 20.0073C80.3621 20.3159 79.3361 20.3517 78.2875 20.2362C77.3921 20.1369 76.5455 19.9238 75.7511 19.5127C74.3029 18.7626 73.4262 17.5603 73.0193 16.0233C72.6702 14.7043 72.8085 13.349 72.8074 12.0099C72.8074 10.9491 73.032 9.91919 73.5261 8.9728C74.3001 7.49112 75.5299 6.55124 77.1637 6.12604C78.1047 5.8809 79.0687 5.85161 80.0217 5.92863C81.5392 6.05174 82.893 6.60547 83.9591 7.71836C84.6646 8.4554 85.1603 9.34213 85.2767 10.3379C85.4332 11.6693 85.4376 13.0176 85.5095 14.406ZM82.002 11.7208C82.1694 10.5819 81.6682 9.3584 80.803 8.89036C79.767 8.32958 78.6679 8.30301 77.6556 8.8985C76.6015 9.51894 76.3929 10.5749 76.4253 11.7187L82.002 11.7208Z" fill="#424242"/>
  <path d="M48.1485 16.9967V19.9639C46.7486 19.8348 45.3426 20.1629 43.9762 19.7318C42.646 19.3115 41.9559 18.3466 41.7802 17.0201C41.6962 16.379 41.705 15.7239 41.7023 15.0747C41.6935 13.1358 41.699 11.1969 41.699 9.22552H39.7336V6.20358H41.6929V2.49396H45.3789V6.17213H48.3478V9.19515H45.4162C45.4085 9.32585 45.397 9.42673 45.397 9.52706C45.397 11.6303 45.397 13.7335 45.397 15.8367C45.3894 15.9181 45.3911 16.0002 45.4019 16.0813C45.554 16.7256 45.7763 16.9349 46.5422 16.9892C47.0659 17.0271 47.5979 16.9967 48.1485 16.9967Z" fill="#424242"/>
  <path d="M18.2923 6.20682H22.0112V19.9194H18.2923V6.20682Z" fill="#424242"/>
  <path d="M54.7583 6.21605V19.921H51.0955V6.21605H54.7583Z" fill="#424242"/>
  <path d="M20.1786 4.77126C18.8478 4.76854 18.0375 3.83409 18.0375 2.65612C18.0375 1.49171 18.9159 0.486747 20.3433 0.551286C21.4841 0.601182 22.3537 1.51449 22.3416 2.67619C22.329 3.86771 21.483 4.79675 20.1786 4.77126Z" fill="#424242"/>
  <path d="M52.9198 0.562688C54.1523 0.492183 55.085 1.44454 55.091 2.66427C55.094 2.94413 55.0401 3.22175 54.9326 3.4807C54.8251 3.73964 54.6661 3.97466 54.4651 4.17186C54.264 4.36906 54.025 4.52443 53.7621 4.62878C53.4993 4.73313 53.2179 4.78435 52.9346 4.7794C51.8586 4.76422 50.7167 3.99518 50.8117 2.47716C50.8709 1.52589 51.7361 0.472117 52.9198 0.562688Z" fill="#424242"/>
  <path d="M12.114 13.5144C12.9375 13.1266 13.6594 12.6466 14.255 11.9611C15.0999 10.993 15.5863 9.87309 15.695 8.6257C15.7768 7.68745 15.7697 6.73346 15.5029 5.80226C15.1493 4.56572 14.4636 3.5434 13.4475 2.76514C12.2221 1.82906 10.7821 1.49443 9.25318 1.49335C6.48481 1.49118 3.71643 1.49118 0.948061 1.49335H0.539062V19.92H4.36882V14.1207C5.36908 14.1207 6.34518 14.1207 7.32129 14.1256C7.54088 14.1256 7.76322 14.1256 7.98337 14.1289C8.04103 14.1365 8.09633 14.1563 8.1455 14.187C8.19468 14.2177 8.23657 14.2586 8.2683 14.3067C9.37469 16.1796 10.4743 18.0534 11.5672 19.9281H15.9794L12.114 13.5144ZM4.3798 10.9654V4.57982C5.4119 4.57982 6.43741 4.57114 7.46292 4.58253C8.13105 4.59013 8.80466 4.58253 9.46619 4.659C10.6795 4.80164 11.6353 5.69433 11.8702 6.88912C12.0739 7.92228 11.9603 8.91368 11.3212 9.80638C10.8271 10.4957 10.1371 10.9133 9.31796 10.9453C7.68307 11.0077 6.04379 10.9643 4.3798 10.9643V10.9654Z" fill="#424242"/>
</svg>