<svg width="112" height="18" viewBox="0 0 112 18" fill="none" xmlns="http://www.w3.org/2000/svg">
<path d="M15.3963 10.2044C15.9822 10.9926 16.2802 11.9533 16.2415 12.9298C16.2745 13.6225 16.1258 14.3118 15.8097 14.9313C15.4935 15.5507 15.0207 16.0793 14.4369 16.4659C12.8359 17.3926 10.9897 17.8241 9.13726 17.7048H0L0 0.203875H8.65757C10.4075 0.0989934 12.1473 0.531848 13.6374 1.44272C14.1906 1.80667 14.6405 2.30385 14.9443 2.88722C15.2481 3.47058 15.3958 4.12083 15.3735 4.77624C15.3799 5.56842 15.1666 6.34725 14.7567 7.0286C14.3412 7.70016 13.7386 8.2396 13.0206 8.58267C13.9696 8.85559 14.8032 9.42463 15.3963 10.2044ZM3.97472 3.26713V7.38892H8.0408C8.83622 7.42844 9.62712 7.24912 10.3251 6.87092C10.5781 6.69859 10.7823 6.46531 10.9183 6.19332C11.0542 5.92132 11.1173 5.61962 11.1018 5.31679C11.1201 5.01673 11.058 4.71716 10.9216 4.4483C10.7853 4.17943 10.5796 3.95077 10.3251 3.78519C9.63126 3.39641 8.83719 3.2163 8.0408 3.26713H3.97472ZM11.216 14.1235C11.4862 13.949 11.7047 13.707 11.8491 13.4221C11.9936 13.1372 12.0589 12.8197 12.0384 12.5018C12.0384 11.0603 10.9419 10.2495 8.7718 10.2495H3.97472V14.574H8.7718C9.64332 14.6668 10.5235 14.5104 11.3074 14.1235H11.216Z" fill="#424242"/>
<path d="M39.6545 14.4386V17.7046H25.9258V0.203613H39.3575V3.44704H29.9919V7.25355H38.2611V10.4069H29.9919V14.4612L39.6545 14.4386Z" fill="#424242"/>
<path d="M61.1976 13.9431H52.9512L51.375 17.682H47.1719L55.0756 0.203613H59.1188L67.0454 17.682H62.7738L61.1976 13.9431ZM59.8955 10.8799L57.0858 4.12278L54.2532 10.8799H59.8955Z" fill="#424242"/>
<path d="M88.8835 12.5688C88.8905 13.5444 88.5869 14.4976 88.0155 15.2941C87.3771 16.1776 86.498 16.8648 85.4799 17.2762C84.1641 17.7853 82.7584 18.0303 81.3453 17.9969C79.9628 17.993 78.5872 17.8036 77.2564 17.4338C76.1258 17.1535 75.0623 16.656 74.127 15.9698L75.5204 12.9292C76.3423 13.5094 77.252 13.9579 78.2158 14.258C79.2333 14.587 80.2974 14.7542 81.3682 14.7536C82.2602 14.8136 83.1521 14.6346 83.9494 14.2355C84.2037 14.1099 84.4176 13.917 84.5669 13.6783C84.7161 13.4395 84.795 13.1645 84.7946 12.8841C84.8019 12.6842 84.76 12.4856 84.6725 12.3052C84.5849 12.1248 84.4545 11.9679 84.2921 11.848C83.9314 11.5308 83.5015 11.2996 83.0357 11.1723C82.5103 11.0147 81.8022 10.8119 80.9342 10.6317C79.8123 10.3805 78.7063 10.0647 77.6219 9.68579C76.7413 9.3741 75.9553 8.84713 75.3376 8.15422C74.6858 7.36956 74.3521 6.37442 74.4011 5.36127C74.3998 4.37587 74.6938 3.4121 75.2462 2.59094C75.8789 1.71648 76.7502 1.03692 77.759 0.631342C78.3887 0.366943 79.0482 0.1779 79.7235 0.0682572C79.9365 0.0559841 80.1501 0.0559841 80.3631 0.0682572C80.8726 0.0325861 81.384 0.0325861 81.8936 0.0682572C83.0104 0.0670882 84.1231 0.203332 85.2058 0.473731C86.2076 0.700388 87.1647 1.08845 88.0383 1.62238L86.782 4.68559C85.2913 3.82036 83.6001 3.34722 81.8707 3.31163C81.2609 3.29231 80.6518 3.36835 80.0661 3.53688C79.8135 3.60134 79.574 3.70803 79.358 3.85224C79.104 3.99946 78.8941 4.21037 78.7496 4.46358C78.6052 4.71679 78.5313 5.00321 78.5356 5.2937C78.5325 5.58367 78.621 5.86741 78.7888 6.10554C78.9566 6.34367 79.1955 6.52437 79.4722 6.62257C80.4123 7.01216 81.3927 7.29918 82.3961 7.47847C83.518 7.72968 84.624 8.04558 85.7083 8.42449C86.582 8.72763 87.3665 9.23818 87.9926 9.91104C88.5967 10.6665 88.912 11.6072 88.8835 12.5688Z" fill="#424242"/>
<path d="M101.653 3.49212H95.9648V0.203613H111.43V3.49212H105.742V17.682H101.653V3.49212Z" fill="#424242"/>
</svg>
