<svg width="28" height="28" viewBox="0 0 28 28" fill="none" xmlns="http://www.w3.org/2000/svg">
<path d="M14.1228 19.7201C14.7035 19.7201 15.2605 19.4895 15.6711 19.0788C16.0818 18.6682 16.3125 18.1112 16.3125 17.5305V6.65222C16.3211 6.35938 16.2708 6.06779 16.1647 5.79471C16.0586 5.52164 15.8987 5.27264 15.6947 5.06246C15.4906 4.85227 15.2464 4.68519 14.9765 4.57108C14.7067 4.45698 14.4167 4.39819 14.1237 4.39819C13.8308 4.39819 13.5408 4.45698 13.2709 4.57108C13.0011 4.68519 12.7569 4.85227 12.5528 5.06246C12.3487 5.27264 12.1889 5.52164 12.0828 5.79471C11.9767 6.06779 11.9264 6.35938 11.935 6.65222V17.5305C11.935 18.1109 12.1655 18.6676 12.5757 19.0781C12.9859 19.4887 13.5424 19.7196 14.1228 19.7201Z" fill="#F0F6FF"/>
<path d="M22.5578 0C21.977 0 21.4201 0.230696 21.0094 0.641336C20.5988 1.05198 20.3681 1.60893 20.3681 2.18966V17.3772C20.3681 19.0336 19.7101 20.6221 18.5389 21.7934C17.3676 22.9646 15.7791 23.6226 14.1227 23.6226C12.4664 23.6226 10.8778 22.9646 9.70662 21.7934C8.53539 20.6221 7.87739 19.0336 7.87739 17.3772V11.6258C7.88601 11.333 7.83577 11.0414 7.72965 10.7683C7.62353 10.4952 7.46369 10.2462 7.2596 10.0361C7.05551 9.82588 6.81131 9.65879 6.54147 9.54469C6.27164 9.43058 5.98165 9.37179 5.68868 9.37179C5.39571 9.37179 5.10573 9.43058 4.83589 9.54469C4.56605 9.65879 4.32186 9.82588 4.11777 10.0361C3.91368 10.2462 3.75384 10.4952 3.64772 10.7683C3.5416 11.0414 3.49136 11.333 3.49997 11.6258V17.3772C3.53725 20.1703 4.67294 22.8363 6.66122 24.7982C8.6495 26.7601 11.3304 27.8601 14.1237 27.8601C16.917 27.8601 19.5979 26.7601 21.5862 24.7982C23.5745 22.8363 24.7101 20.1703 24.7474 17.3772V2.18966C24.7474 1.60893 24.5167 1.05198 24.1061 0.641336C23.6954 0.230696 23.1385 0 22.5578 0V0Z" fill="#F0F6FF"/>
</svg>
