<svg width="175" height="58" viewBox="0 0 175 58" fill="none" xmlns="http://www.w3.org/2000/svg">
<path d="M174.058 30.3324C174.013 30.296 173.948 30.2844 173.897 30.3012C173.835 30.32 173.778 30.3363 173.725 30.3517L173.699 30.3592C173.567 30.3973 173.453 30.4298 173.339 30.4745C171.554 31.173 170.148 32.3696 169.041 34.1325C168.768 34.5681 168.556 35.0208 168.388 35.4724C168.664 33.9536 168.728 33.3618 168.777 31.6624C168.78 31.591 168.78 31.5185 168.78 31.4465C168.78 31.2499 168.78 31.0642 168.823 30.8947C168.875 30.6939 168.981 30.4936 169.083 30.2998C169.111 30.245 169.14 30.1901 169.163 30.142C169.172 30.1325 169.198 30.1166 169.209 30.115C169.719 30.0382 170.171 29.8248 170.59 29.4626C171.011 29.0959 171.358 28.647 171.621 28.128C172.563 26.2678 173.035 24.2117 173.023 22.0176C173.022 21.8059 172.997 21.5999 172.969 21.3758C172.956 21.2754 172.943 21.1727 172.933 21.0663C172.927 21.008 172.89 20.9561 172.837 20.9309C172.785 20.906 172.722 20.9078 172.669 20.9391C172.638 20.9587 172.61 20.9747 172.586 20.9889C172.538 21.0169 172.501 21.0388 172.467 21.0633C171.663 21.6305 170.954 22.3367 170.359 23.1616C169.389 24.51 168.824 26.0346 168.672 27.7118C168.657 27.5248 168.642 27.3379 168.626 27.1509L168.621 27.0831C168.561 26.3502 168.5 25.5921 168.449 24.8467C168.437 24.658 168.4 24.4744 168.364 24.2967C168.296 23.9552 168.231 23.6326 168.335 23.2946C168.358 23.2182 168.378 23.1413 168.398 23.0646C168.447 22.8744 168.685 22.5816 169.049 22.2615L169.063 22.2494C169.197 22.1373 169.887 21.5156 170.279 20.2859C170.677 19.0366 170.647 17.7311 170.625 16.7779L170.624 16.7525C170.595 15.4422 170.451 14.4548 170.158 13.5505C170.12 13.4349 170.075 13.3208 170.027 13.201C170.002 13.1386 169.977 13.0741 169.951 13.0066C169.93 12.9495 169.878 12.908 169.818 12.8982L169.789 12.8955C169.737 12.8955 169.688 12.9185 169.656 12.9581L169.371 13.3C168.004 14.9404 167.333 16.8643 167.375 19.0185C167.382 19.3979 167.411 19.787 167.462 20.1888C167.115 19.009 166.707 17.8606 166.244 16.7559C166.235 16.7317 166.228 16.7017 166.228 16.6763L166.225 16.5253C166.22 16.3073 166.215 16.0818 166.224 15.86C166.226 15.8232 166.25 15.7571 166.3 15.6921C166.372 15.599 166.451 15.5081 166.533 15.4135C166.673 15.253 166.818 15.0872 166.933 14.898C167.302 14.2893 167.475 13.5701 167.478 12.6346C167.483 11.5334 167.311 10.3744 166.935 8.98722C166.729 8.23043 166.419 7.24726 165.842 6.3559C165.803 6.29598 165.759 6.23956 165.712 6.17981C165.691 6.15335 165.669 6.12514 165.647 6.09482C165.614 6.05154 165.569 6.02631 165.496 6.02631C165.438 6.03052 165.386 6.06311 165.357 6.11375C164.632 7.40146 164.271 8.77712 164.254 10.3194C164.239 11.6054 164.443 12.7119 164.699 13.5864C164.048 12.4158 163.324 11.2847 162.54 10.2118L162.522 10.1875C162.504 10.1642 162.497 10.1528 162.498 10.1609C162.449 9.81374 162.415 9.53601 162.391 9.2942C162.392 9.29053 162.396 9.2702 162.433 9.20992C162.485 9.12301 162.541 9.03785 162.602 8.94779C162.723 8.76661 162.848 8.57912 162.928 8.36921C163.17 7.7356 163.224 7.01702 163.093 6.17315C162.807 4.30545 161.971 2.62367 160.537 1.03143C160.389 0.867947 160.226 0.723389 160.054 0.570595L160.006 0.528016C159.939 0.467915 159.869 0.406412 159.799 0.341405C159.755 0.299702 159.691 0.284108 159.629 0.30198C159.571 0.320203 159.526 0.367863 159.512 0.427088L159.481 0.56236C159.459 0.652074 159.443 0.722863 159.431 0.794004C159.238 1.92769 159.252 3.14198 159.474 4.50661C159.694 5.86003 160.133 7.02736 160.807 8.04137C159.797 6.86948 158.814 5.88543 157.787 5.01335C157.782 5.0074 157.775 4.98935 157.775 4.98479C157.855 4.30405 157.685 3.66274 157.253 3.02423C156.686 2.18509 155.899 1.54553 154.913 1.1236C154.323 0.871627 153.711 0.648569 153.113 0.430067C152.826 0.325285 152.539 0.220852 152.244 0.108885C151.947 -0.00728709 151.82 -0.0279634 151.751 0.0347662C151.663 0.116069 151.684 0.185458 151.723 0.311617L151.735 0.352794C152.097 1.55272 152.577 2.50172 153.204 3.25395C154.354 4.63627 155.699 5.33856 157.313 5.40059C157.37 5.40392 157.415 5.41934 157.433 5.43336C157.66 5.60087 157.828 5.73492 157.975 5.86774C158.443 6.28862 158.904 6.73701 159.355 7.20924C158.684 6.79922 157.865 6.61418 156.942 6.66009C156.437 6.68515 155.936 6.75804 155.451 6.82848L155.433 6.83128C155.289 6.85196 155.147 6.87246 155.004 6.89226C154.693 6.93379 154.379 6.98811 154.102 7.03577C153.989 7.05557 153.721 7.11567 153.659 7.24375C153.638 7.28756 153.64 7.33557 153.664 7.3792C153.685 7.41723 153.709 7.45297 153.734 7.48556C154.535 8.50798 155.448 9.18136 156.526 9.5439C157.841 9.98826 159.048 9.95164 160.133 9.42895C160.299 9.33906 160.499 9.2935 160.727 9.2935C160.9 9.2935 161.029 9.32031 161.072 9.32995C161.136 9.34046 161.223 9.37586 161.241 9.39864C161.916 10.2718 162.556 11.2043 163.154 12.184C162.649 11.7004 161.99 11.3743 161.093 11.1619C160.306 10.9774 159.502 10.9378 158.724 10.8992L158.464 10.8863C158.22 10.874 157.976 10.8588 157.725 10.8432L157.304 10.8176C157.249 10.8176 157.197 10.8435 157.166 10.8866C157.131 10.9331 157.122 10.9933 157.143 11.0475C157.16 11.0927 157.191 11.1724 157.206 11.199C158.027 12.5493 158.99 13.4832 160.15 14.0545C161.285 14.6124 162.31 14.7599 163.344 14.5165C163.464 14.4881 163.602 14.4731 163.746 14.4731C164.186 14.4731 164.492 14.6052 164.557 14.7275C165.126 15.8827 165.633 17.0832 166.071 18.3076C165.612 17.6844 164.97 17.1781 164.157 16.7995C163.349 16.4242 162.508 16.0811 161.68 15.7434C161.324 15.5987 160.967 15.4534 160.612 15.3048C160.559 15.2821 160.496 15.2868 160.447 15.3189C160.399 15.3506 160.37 15.4035 160.37 15.4604C160.37 15.5698 161.55 18.794 163.264 20.0646C163.963 20.5829 164.825 21.1161 165.911 21.1411C166.236 21.1476 166.572 21.1928 166.826 21.4769C166.864 21.5221 166.916 21.5573 166.972 21.576C167.059 21.6041 167.083 21.6563 167.125 21.8343C167.477 23.288 167.733 24.7863 167.891 26.3077C167.843 26.1534 167.788 25.9974 167.724 25.8396C167.341 24.882 166.695 24.0441 165.692 23.2025C165.176 22.7669 164.635 22.3451 164.111 21.937L164.086 21.9177C163.848 21.7318 163.61 21.5466 163.373 21.3591C163.324 21.3204 163.276 21.2804 163.221 21.2338L163.073 21.1091C163.021 21.066 162.944 21.057 162.884 21.0868C162.821 21.1178 162.784 21.182 162.789 21.2505C162.796 21.3533 162.802 21.4506 162.808 21.544L162.811 21.5876C162.822 21.7798 162.833 21.9612 162.853 22.1403C163.039 23.8839 163.565 25.3396 164.463 26.5906C165.019 27.3638 165.817 28.309 167.06 28.7559C167.363 28.8653 167.583 29.0309 167.818 29.3281C168.04 29.6063 168.081 29.8605 168.076 30.1805C168.055 31.5208 167.958 32.8504 167.787 34.1524C167.747 33.7901 167.662 33.417 167.532 33.0294C167.262 32.2269 166.843 31.4467 166.248 30.6441C165.735 29.9492 165.201 29.2518 164.685 28.577L164.651 28.532C164.446 28.2648 164.241 27.9972 164.042 27.7355C164.005 27.6817 163.951 27.6624 163.92 27.6517C163.876 27.6305 163.823 27.6284 163.776 27.648C163.73 27.6673 163.695 27.7053 163.679 27.7519L163.673 27.7702C163.665 27.7947 163.658 27.8164 163.655 27.8381C163.299 29.9278 163.517 31.8001 164.322 33.5625C164.715 34.4242 165.243 35.3998 166.173 36.1018C166.597 36.4223 166.932 36.8719 167.117 37.3676C167.156 37.4743 167.154 37.5206 167.15 37.5384C166.756 39.1431 166.242 40.6909 165.617 42.1557C165.778 41.3837 165.767 40.5728 165.583 39.7326C165.322 38.5418 164.874 37.3877 164.474 36.3995L164.355 36.1035C164.167 35.6404 163.978 35.1736 163.783 34.6898C163.759 34.628 163.699 34.5858 163.62 34.5819C163.557 34.5819 163.499 34.6171 163.469 34.6743L163.406 34.7906C163.379 34.8416 163.353 34.8891 163.331 34.9381C162.527 36.7244 162.255 38.5554 162.524 40.3805C162.716 41.6856 163.042 42.6201 163.58 43.4107C163.859 43.8193 164.124 44.2745 164.172 44.8343C164.183 44.9668 164.178 45.0581 164.118 45.162C163.439 46.3323 162.678 47.4367 161.844 48.4628C161.847 48.4572 161.85 48.4516 161.853 48.446C162.453 47.3672 162.471 46.2007 162.41 45.2018C162.357 44.3455 162.258 43.4904 162.162 42.6637L162.156 42.6158C162.117 42.2847 162.079 41.9537 162.044 41.622C162.024 41.434 162.001 41.246 161.978 41.0551L161.947 40.7969C161.94 40.7397 161.905 40.6903 161.854 40.6655C161.759 40.6167 161.606 40.6919 161.44 40.8846C160.303 42.2092 159.597 43.7059 159.342 45.3335C159.077 47.0211 159.221 48.4653 159.78 49.7486C159.795 49.7828 159.795 49.8525 159.795 49.8758L159.765 50.6142C159.76 50.6673 159.732 50.7272 159.708 50.7495C158.572 51.8264 157.321 52.7626 155.979 53.5418C156.615 52.9766 157.071 52.239 157.367 51.3044C157.695 50.2685 157.864 49.1904 158.027 48.145L158.041 48.0519C158.099 47.6847 158.16 47.3181 158.221 46.9435L158.291 46.52C158.301 46.4583 158.276 46.3966 158.227 46.3596C158.179 46.3218 158.109 46.3127 158.054 46.3362L157.993 46.3609C157.928 46.387 157.872 46.4103 157.819 46.4371C155.281 47.6845 153.611 50.5939 153.847 53.3547C153.884 53.7871 153.844 54.1933 153.724 54.5956C153.713 54.6322 153.677 54.672 153.662 54.6787C152.457 55.1789 151.311 55.5439 150.158 55.7945C150.099 55.808 150.052 55.8497 150.033 55.9059C150.013 55.9625 150.025 56.024 150.064 56.0703C150.19 56.2164 150.299 56.3736 150.389 56.5381C150.425 56.6054 150.513 56.6399 150.579 56.6231C151.518 56.4121 152.433 56.139 153.299 55.8106C153.369 55.7829 153.422 55.7698 153.472 55.7778C153.665 55.8031 153.868 55.842 154.094 55.8972C154.141 55.9084 154.179 55.9296 154.18 55.9277C154.674 56.8959 155.522 57.5127 156.774 57.8129C157.046 57.8772 157.327 57.9247 157.608 57.9537C157.903 57.9844 158.232 58 158.585 58C159.075 58 159.424 57.9702 159.428 57.9699C160.513 57.8504 161.44 57.61 162.261 57.2348C162.598 57.0811 162.982 56.8742 163.276 56.5047C163.333 56.4339 163.323 56.3317 163.255 56.2723C162.421 55.5481 161.572 55.0219 160.659 54.6638C159.306 54.1346 158.074 53.9913 156.866 54.2199C156.686 54.2545 156.51 54.2979 156.338 54.3478C157.468 53.6831 158.55 52.9017 159.572 52.0116C159.591 51.9941 159.624 51.9787 159.649 51.9743C159.816 51.9469 160.038 51.9133 160.265 51.8972C160.286 51.8972 160.313 51.9072 160.316 51.9082C160.931 52.5863 161.724 52.9159 162.74 52.9159C162.792 52.9159 162.844 52.9149 162.896 52.9131C164 52.8781 165.111 52.5793 166.197 52.0248C166.986 51.6195 167.809 51.1476 168.476 50.4439C168.624 50.2874 168.756 50.1105 168.873 49.9543L168.884 49.9391C168.936 49.8702 168.988 49.8008 169.041 49.7323C169.071 49.6954 169.083 49.6477 169.075 49.5997C169.067 49.5534 169.04 49.5122 168.993 49.4825C168.982 49.4761 168.699 49.327 168.441 49.2287C166.714 48.5718 164.97 48.5045 163.307 49.0321C162.763 49.2044 162.25 49.463 161.751 49.8205C162.674 48.7646 163.528 47.6071 164.304 46.3616C164.313 46.3484 164.335 46.3129 164.342 46.3064C164.41 46.2638 164.479 46.2235 164.548 46.1837C164.672 46.1121 164.801 46.0379 164.921 45.9496C165.023 45.8748 165.052 45.8729 165.155 45.9381C165.3 46.0311 165.47 46.0795 165.617 46.1175C166.481 46.3351 167.351 46.2267 168.314 45.7818C169.193 45.3759 169.869 44.7345 170.469 44.1019C171.342 43.1792 171.912 42.3467 172.264 41.4818C172.337 41.3003 172.39 41.1126 172.445 40.9164C172.468 40.834 172.491 40.7517 172.515 40.6707C172.542 40.5838 172.495 40.4918 172.408 40.4615L172.336 40.4561C171.98 40.4561 168.806 40.5074 166.949 42.2806C166.545 42.6665 166.183 43.0765 165.852 43.5254C166.587 41.9943 167.21 40.3807 167.712 38.7058L167.719 38.6812C167.725 38.6607 167.734 38.6297 167.74 38.6213L168.226 37.9649C168.244 37.9386 168.246 37.9386 168.275 37.9386C168.287 37.9386 168.301 37.9395 168.317 37.9404L168.421 37.9465C168.782 37.9686 168.995 37.9655 169.17 37.9385C169.861 37.8311 170.485 37.4883 171.077 36.8905C172.463 35.4922 173.416 33.7477 173.992 31.5578C174.054 31.3231 174.071 31.0862 174.09 30.835C174.098 30.7211 174.107 30.6037 174.12 30.4824C174.126 30.4242 174.102 30.3687 174.058 30.3324Z" fill="white"/>
<path d="M23.1896 55.7951C22.0748 55.5447 20.9661 55.1797 19.7995 54.6795C19.7855 54.6728 19.7509 54.633 19.74 54.5973C19.6238 54.1941 19.5848 53.7879 19.6207 53.3555C19.8491 50.5945 18.2327 47.6852 15.7777 46.4379C15.7255 46.4109 15.671 46.3876 15.6083 46.3615L15.5501 46.337C15.4948 46.313 15.4274 46.323 15.3828 46.3594C15.3346 46.3973 15.3106 46.459 15.3205 46.5208L15.3877 46.9442C15.4473 47.3188 15.5057 47.6854 15.5616 48.0523L15.5758 48.1483C15.7334 49.1911 15.8964 50.2694 16.2139 51.3053C16.5003 52.24 16.9424 52.9775 17.5572 53.5426C16.2583 52.7636 15.0479 51.8273 13.9487 50.7506C13.9256 50.728 13.8982 50.668 13.8942 50.6186L13.8648 49.8797C13.8646 49.8534 13.8643 49.7837 13.8789 49.7492C14.4204 48.4662 14.559 47.022 14.3032 45.3344C14.0565 43.7067 13.3733 42.2099 12.2723 40.8854C12.1435 40.7303 12.0298 40.6518 11.9343 40.6518C11.9111 40.6518 11.8901 40.6565 11.8735 40.6653C11.8229 40.6909 11.7886 40.7405 11.7819 40.7978L11.7524 41.0555C11.7297 41.2469 11.7078 41.4347 11.6882 41.6229C11.6542 41.9544 11.617 42.2854 11.5796 42.6166L11.5743 42.6645C11.4813 43.4913 11.3848 44.3464 11.3338 45.2026C11.2745 46.2014 11.2921 47.3679 11.8725 48.4469C11.8756 48.4523 11.8783 48.4581 11.8814 48.4635C11.0747 47.4374 10.3383 46.3331 9.68122 45.163C9.62316 45.0589 9.61817 44.9676 9.62902 44.8351C9.67571 44.2749 9.9317 43.8197 10.2013 43.4114C10.7221 42.6208 11.0373 41.6863 11.2236 40.3813C11.4839 38.5561 11.221 36.7252 10.4427 34.9389C10.4213 34.8897 10.3963 34.8422 10.3696 34.7912L10.3088 34.6745C10.2797 34.6176 10.2175 34.5801 10.1519 34.5831C10.0864 34.5866 10.0287 34.6288 10.0049 34.6901C9.81611 35.1744 9.6335 35.6411 9.4521 36.1042L9.33616 36.4002C8.94925 37.3886 8.5153 38.5426 8.26309 39.7333C8.08531 40.5735 8.07446 41.3844 8.23036 42.1565C7.62535 40.6918 7.12801 39.144 6.74712 37.5391C6.74281 37.5212 6.74144 37.475 6.77916 37.3683C6.95729 36.8724 7.28167 36.4228 7.69271 36.1023C8.59247 35.4003 9.10291 34.4247 9.48345 33.5629C10.2626 31.8005 10.474 29.9282 10.1295 27.8386C10.1258 27.8167 10.1193 27.795 10.1115 27.7714L10.1053 27.7524C10.0904 27.7056 10.0563 27.6678 10.0111 27.648C9.96702 27.6292 9.91154 27.6327 9.87726 27.6499C9.84281 27.6627 9.79061 27.6822 9.75667 27.7328C9.56166 27.9977 9.36373 28.2651 9.16562 28.5324L9.13237 28.5774C8.63279 29.2522 8.11615 29.9496 7.61967 30.6443C7.04446 31.4471 6.63825 32.2273 6.3776 33.0299C6.25185 33.4175 6.16967 33.7905 6.13091 34.1529C5.96536 32.8508 5.87147 31.5213 5.85097 30.1809C5.84615 29.8609 5.88612 29.6067 6.10094 29.3282C6.32833 29.0314 6.54074 28.8656 6.8336 28.7563C8.03691 28.3091 8.80885 27.3641 9.34684 26.5909C10.2159 25.3399 10.7257 23.8843 10.9052 22.1408C10.9243 21.9614 10.9352 21.7799 10.9464 21.5878L10.9491 21.5442C10.9545 21.4508 10.9601 21.3535 10.9674 21.2505C10.9719 21.1822 10.9359 21.118 10.8757 21.087C10.8175 21.0572 10.7429 21.066 10.6923 21.1096L10.5495 21.234C10.4957 21.2807 10.4497 21.3206 10.402 21.3595C10.1727 21.5468 9.94255 21.7322 9.71188 21.9181L9.68777 21.9374C9.18146 22.3453 8.65776 22.7671 8.15767 23.2027C7.18727 24.0445 6.56245 24.8824 6.19121 25.84C6.12988 25.9979 6.07613 26.154 6.02996 26.3086C6.18259 24.7869 6.43049 23.2884 6.77089 21.8345C6.81224 21.6567 6.83532 21.6045 6.92025 21.5761C6.97366 21.5577 7.02344 21.5223 7.05979 21.4785C7.30665 21.193 7.63173 21.1478 7.94664 21.1413C8.99748 21.1163 9.83092 20.5831 10.5074 20.0648C12.1662 18.794 13.3084 15.5699 13.3084 15.4605C13.3084 15.4036 13.2804 15.3505 13.2331 15.3184C13.1864 15.2871 13.1233 15.2827 13.0758 15.3042C12.7302 15.4534 12.3846 15.5986 12.0268 15.7491C11.2396 16.0812 10.4256 16.4243 9.64384 16.7994C8.85708 17.1781 8.23536 17.6845 7.7909 18.3076C8.21451 17.0833 8.70566 15.883 9.25554 14.7295C9.31876 14.6051 9.61576 14.473 10.0416 14.473C10.1801 14.473 10.3143 14.488 10.4302 14.5164C11.4308 14.7603 12.4229 14.6125 13.5209 14.0544C14.6443 13.4831 15.5763 12.5492 16.3701 11.1984C16.3853 11.1723 16.4151 11.0925 16.4311 11.0478C16.4512 10.9932 16.4432 10.9329 16.4097 10.8872C16.3787 10.8437 16.3291 10.8178 16.2659 10.8178C16.2654 10.8178 16.265 10.8178 16.2645 10.8178L15.8679 10.8432C15.6249 10.8588 15.3889 10.874 15.1529 10.8863L14.9008 10.8993C14.1483 10.9378 13.37 10.9774 12.6086 11.1619C11.7402 11.3743 11.1026 11.7004 10.6137 12.184C11.1924 11.2043 11.812 10.2721 12.4648 9.39897C12.4823 9.37584 12.5666 9.34045 12.6356 9.32871C12.6701 9.32047 12.7955 9.29366 12.9623 9.29366C13.1835 9.29366 13.3771 9.3394 13.5413 9.43122C14.5844 9.95006 15.7558 9.98861 17.0277 9.54424C18.0709 9.18169 18.9545 8.5083 19.729 7.48621C19.7542 7.45327 19.7769 7.41735 19.7976 7.3795C19.8212 7.33587 19.8227 7.28786 19.8021 7.24405C19.7421 7.11614 19.4827 7.05603 19.3735 7.03606C19.1054 6.9884 18.8017 6.93408 18.5006 6.89255C18.3626 6.87292 18.2244 6.85242 18.0859 6.83157L18.0682 6.82877C17.5989 6.75833 17.1138 6.68543 16.6251 6.66038C15.732 6.61394 14.9391 6.79933 14.2901 7.20971C14.7265 6.7373 15.1723 6.28907 15.625 5.86801C15.7682 5.73519 15.9301 5.60131 16.1508 5.43327C16.1679 5.41996 16.2113 5.40436 16.2645 5.40121C17.8285 5.339 19.13 4.6367 20.2429 3.25452C20.8491 2.5021 21.3139 1.55308 21.6641 0.35314L21.6762 0.311962C21.7136 0.185799 21.7342 0.11641 21.6483 0.0351052C21.582 -0.0276255 21.4652 -0.00905112 21.1616 0.113256C20.886 0.22102 20.6086 0.325629 20.3239 0.433043C19.7518 0.648745 19.16 0.871806 18.5889 1.12378C17.6346 1.54572 16.8724 2.1853 16.3241 3.02445C15.9065 3.66297 15.7415 4.30447 15.8192 4.98224C15.8187 4.98978 15.8121 5.00783 15.8111 5.00993C14.8149 5.88483 13.8626 6.86977 12.8847 8.04203C13.5368 7.028 13.9618 5.86047 14.175 4.50703C14.39 3.14255 14.4037 1.92806 14.2169 0.794357C14.205 0.72339 14.189 0.652425 14.1685 0.563585L14.138 0.426734C14.1242 0.368033 14.0808 0.320548 14.0238 0.302324C13.9668 0.285152 13.9029 0.300396 13.8603 0.341574C13.7921 0.406933 13.7253 0.468613 13.66 0.52854L13.614 0.57077C13.4469 0.723917 13.2891 0.868477 13.1463 1.03196C11.7586 2.62424 10.9493 4.30605 10.6721 6.1736C10.5458 7.01766 10.5982 7.73626 10.8323 8.36987C10.9098 8.57979 11.0308 8.76729 11.1512 8.95337C11.2063 9.03836 11.2614 9.12369 11.3119 9.21131C11.3491 9.27421 11.3522 9.29051 11.3521 9.28753C11.3292 9.53723 11.2962 9.81548 11.2518 10.1495C11.2499 10.1537 11.2437 10.1635 11.2239 10.1901L11.2079 10.2127C10.449 11.2856 9.74892 12.4167 9.11893 13.5874C9.36665 12.713 9.5639 11.6063 9.54995 10.3203C9.53307 8.7778 9.18388 7.40211 8.48205 6.11402C8.45431 6.06391 8.40401 6.03132 8.33355 6.02641C8.28239 6.02641 8.23312 6.05217 8.20091 6.09615C8.17989 6.12594 8.15853 6.15398 8.1382 6.18061C8.09289 6.24019 8.05051 6.29661 8.01261 6.35689C7.45377 7.24826 7.15402 8.2311 6.95505 8.98789C6.59139 10.3759 6.42429 11.5348 6.42911 12.6354C6.43187 13.5709 6.59949 14.29 6.95677 14.8986C7.06789 15.088 7.20777 15.2538 7.34834 15.4206C7.42294 15.5091 7.4996 15.6 7.56902 15.6932C7.6176 15.7581 7.64103 15.8241 7.64241 15.8609C7.65154 16.0828 7.64671 16.3083 7.64206 16.5263L7.63879 16.677C7.63827 16.7029 7.63242 16.7327 7.62363 16.7555C7.17504 17.861 6.78071 19.0099 6.44444 20.1899C6.49388 19.7881 6.52179 19.3991 6.52886 19.0195C6.56951 16.8653 5.91988 14.9415 4.59754 13.3009L4.32191 12.9594C4.29004 12.9192 4.24284 12.8965 4.19253 12.8965L4.16497 12.8989C4.10605 12.9089 4.05644 12.9504 4.03594 13.007C4.01079 13.0752 3.98615 13.1395 3.96221 13.2017C3.91604 13.3219 3.87246 13.4358 3.83559 13.5516C3.55186 14.4556 3.41267 15.4432 3.38442 16.7532L3.3839 16.7788C3.36271 17.7318 3.3336 19.0374 3.71845 20.2868C4.09727 21.5167 4.76533 22.1382 4.89488 22.2498L4.90866 22.2624C5.26129 22.5826 5.49093 22.8754 5.53848 23.0655C5.5576 23.1422 5.57706 23.2192 5.5998 23.2952C5.70041 23.6336 5.63753 23.956 5.56966 24.3042C5.53589 24.4799 5.50075 24.6615 5.48852 24.8477C5.43994 25.5931 5.38033 26.3512 5.32262 27.0841L5.31745 27.1519C5.30264 27.3389 5.28782 27.5259 5.27318 27.7128C5.12606 26.0356 4.57997 24.5109 3.64041 23.1626C3.06503 22.3376 2.37905 21.6318 1.60108 21.0642C1.56749 21.0397 1.53217 21.0178 1.48497 20.9893C1.46206 20.9758 1.43553 20.9596 1.40331 20.9391C1.35473 20.9095 1.29237 20.9069 1.24224 20.9318C1.19091 20.9572 1.15559 21.0089 1.14973 21.0674C1.13922 21.1734 1.12699 21.2761 1.11407 21.3826C1.08806 21.6008 1.06343 21.8069 1.06239 22.0185C1.05085 24.2127 1.50719 26.2688 2.41919 28.129C2.67329 28.648 3.00904 29.0969 3.41749 29.4639C3.8225 29.8257 4.25955 30.0391 4.75275 30.1159C4.76361 30.1178 4.78945 30.1337 4.79341 30.1369C4.82011 30.1914 4.84785 30.2461 4.87558 30.3009C4.97412 30.4945 5.07593 30.6948 5.12658 30.8956C5.16879 31.0654 5.16879 31.251 5.16879 31.4476C5.16879 31.5196 5.16879 31.5921 5.17103 31.6633C5.2184 33.363 5.28059 33.9549 5.54795 35.4736C5.38481 35.022 5.17998 34.5692 4.91555 34.1336C3.84472 32.3707 2.48431 31.1741 0.756613 30.4758C0.646705 30.4307 0.536453 30.3983 0.408628 30.3605L0.383133 30.3528C0.331279 30.3374 0.276325 30.3209 0.217581 30.3027C0.164522 30.285 0.104056 30.297 0.0608159 30.3335C0.0177484 30.3698 -0.0048189 30.4253 0.000865998 30.4831C0.013614 30.6037 0.0223997 30.7209 0.0304964 30.8353C0.0482402 31.0863 0.0649503 31.3232 0.124728 31.5576C0.682193 33.7478 1.60487 35.4921 2.9453 36.8906C3.51844 37.4885 4.12242 37.8312 4.79169 37.9386C4.96051 37.9654 5.16689 37.9688 5.51625 37.9467L5.61686 37.9406C5.63219 37.9397 5.64563 37.9388 5.65786 37.9388C5.68542 37.9388 5.68766 37.9388 5.70678 37.9675L6.17484 38.6213C6.18087 38.6299 6.18966 38.6609 6.19569 38.6823L6.20258 38.7058C6.68838 40.3809 7.29115 41.9944 8.00193 43.5257C7.68203 43.0766 7.33146 42.6666 6.94075 42.2809C5.14398 40.5076 2.07206 40.4563 1.7277 40.4563L1.6848 40.4566L1.65776 40.4617C1.57334 40.4922 1.52769 40.584 1.55371 40.6704C1.57765 40.7519 1.60005 40.8342 1.62571 40.9309C1.67481 41.1127 1.7258 41.3003 1.79729 41.4819C2.1377 42.3471 2.68948 43.1794 3.53412 44.1022C4.11449 44.7347 4.76878 45.3762 5.61962 45.7819C6.55142 46.227 7.39279 46.3356 8.2295 46.1176C8.3718 46.0796 8.53545 46.0314 8.6762 45.9385C8.77646 45.8732 8.80385 45.8753 8.90239 45.9499C9.01919 46.0382 9.14339 46.1124 9.26398 46.1842C9.33065 46.224 9.39783 46.2641 9.46054 46.3044C9.47053 46.313 9.49189 46.3486 9.49982 46.3617C10.2506 47.6072 11.0776 48.7647 11.9707 49.8207C11.4876 49.4632 10.9917 49.2046 10.4649 49.0323C8.85501 48.5047 7.16763 48.5718 5.49644 49.2291C5.247 49.3274 4.9736 49.4763 4.95534 49.4869C4.9171 49.5124 4.89074 49.5538 4.88247 49.6013C4.87524 49.6479 4.88712 49.6955 4.91503 49.732C4.96723 49.801 5.0177 49.8704 5.06766 49.9393L5.07869 49.9544C5.19152 50.1107 5.31935 50.2875 5.46268 50.4441C6.10817 51.148 6.90423 51.6199 7.66842 52.025C8.71926 52.5796 9.79388 52.8783 10.8626 52.9134C10.9129 52.9151 10.9633 52.9162 11.0134 52.9162C11.9965 52.9162 12.764 52.5866 13.3556 51.9125C13.3628 51.9072 13.3885 51.8973 13.4026 51.8971C13.6286 51.9135 13.8434 51.947 14.004 51.9742C14.0293 51.9787 14.0605 51.9942 14.08 52.012C15.0683 52.902 16.115 53.6831 17.2084 54.348C17.0427 54.298 16.8719 54.2546 16.6972 54.2197C15.5287 53.9912 14.3363 54.1345 13.0269 54.6637C12.1435 55.0219 11.3219 55.5481 10.5152 56.2723C10.4487 56.3317 10.4394 56.4338 10.4942 56.5046C10.7796 56.8742 11.151 57.0811 11.4768 57.2346C12.2713 57.6101 13.1681 57.8505 14.2195 57.97C14.2226 57.9702 14.5604 58 15.0342 58C15.3761 58 15.6943 57.9844 15.9794 57.9537C16.2519 57.9247 16.5238 57.8772 16.7875 57.8127C17.9989 57.5127 18.8198 56.8959 19.2901 55.9383C19.2985 55.9301 19.3347 55.9087 19.3805 55.8973C19.5991 55.8421 19.7959 55.8032 19.983 55.7778C20.0271 55.7706 20.082 55.7827 20.1513 55.8111C20.9878 56.1389 21.8731 56.4121 22.7808 56.6227C22.7935 56.6259 22.8068 56.6275 22.8201 56.6275C22.881 56.6275 22.9372 56.5933 22.9668 56.5376C23.0535 56.3736 23.1591 56.2162 23.2805 56.0699C23.3186 56.0238 23.33 55.9625 23.3112 55.9057C23.2933 55.8507 23.2478 55.809 23.1896 55.7951Z" fill="white"/>
<path d="M40.6203 25.4845H43.4103V39.0072H40.6053L36.5253 30.1339V39.0072H33.7353V25.4845H36.5253L40.6203 34.3579V25.4845ZM64.2153 26.8339C65.1003 27.8605 65.5503 29.2979 65.5653 31.1459V33.4632C65.5653 35.2819 65.1303 36.6899 64.2453 37.6872C63.3753 38.6845 62.1453 39.1979 60.5853 39.1979C59.0403 39.1979 57.8103 38.6992 56.9253 37.7019C56.0403 36.7045 55.5903 35.3112 55.5753 33.5219V31.2045C55.5753 29.3419 56.0103 27.8899 56.8953 26.8485C57.7803 25.8072 58.9953 25.2792 60.5553 25.2792C62.1153 25.2939 63.3303 25.8072 64.2153 26.8339ZM62.7603 31.1899C62.7603 29.9725 62.5803 29.0632 62.2353 28.4619C61.8753 27.8605 61.3353 27.5672 60.5853 27.5672C59.8503 27.5672 59.2953 27.8605 58.9353 28.4325C58.5753 29.0045 58.3953 29.8699 58.3803 31.0432V33.4485C58.3803 34.6365 58.5603 35.5019 58.9203 36.0592C59.2803 36.6165 59.8353 36.8952 60.5853 36.8952C61.3203 36.8952 61.8603 36.6165 62.2053 36.0739C62.5653 35.5312 62.7453 34.6805 62.7453 33.5219V31.1899H62.7603ZM51.5553 34.3579L47.4753 25.4845H44.6853V39.0072H47.4753V30.1339L51.5553 39.0072H54.3453V25.4845H51.5553V34.3579ZM29.8203 39.0072H32.6103V25.4845H29.8203V39.0072ZM80.7753 25.4845L85.1253 39.0072H82.1403L81.4053 36.2352H77.5953L76.8603 39.0072H73.9053L78.2253 25.4845H80.7753ZM80.7903 33.9619L79.5003 29.1365L78.2103 33.9619H80.7903ZM93.6903 39.0072H96.4803V25.4845H93.6903V39.0072ZM83.0103 27.7579H86.3703V39.0072H89.1753V27.7579H92.5953V25.4845H83.0103V27.7579ZM115.515 25.4845V34.3579L111.42 25.4845H108.63V39.0072H111.42V30.1339L115.5 39.0072H118.29V25.4845H115.515ZM106.245 26.8339C107.13 27.8605 107.58 29.2979 107.595 31.1459V33.4632C107.595 35.2819 107.16 36.6899 106.275 37.6872C105.405 38.6845 104.175 39.1979 102.615 39.1979C101.07 39.1979 99.8403 38.6992 98.9553 37.7019C98.0703 36.7045 97.6203 35.3112 97.6053 33.5219V31.2045C97.6053 29.3419 98.0403 27.8899 98.9253 26.8485C99.8103 25.8072 101.025 25.2792 102.585 25.2792C104.145 25.2939 105.36 25.8072 106.245 26.8339ZM104.79 31.1899C104.79 29.9725 104.61 29.0632 104.265 28.4619C103.905 27.8605 103.365 27.5672 102.615 27.5672C101.88 27.5672 101.325 27.8605 100.965 28.4325C100.605 29.0045 100.425 29.8699 100.41 31.0432V33.4485C100.41 34.6365 100.59 35.5019 100.95 36.0592C101.31 36.6165 101.865 36.8952 102.615 36.8952C103.35 36.8952 103.89 36.6165 104.235 36.0739C104.595 35.5312 104.775 34.6805 104.775 33.5219V31.1899H104.79ZM73.2153 25.4845L70.8903 35.2965L68.5803 25.4845H65.4903L69.4503 39.0072H72.3603L76.3503 25.4845H73.2153ZM139.23 38.2445C139.395 38.2592 139.575 38.2445 139.74 38.1859C140.385 37.9805 140.73 37.3059 140.505 36.6752C140.295 36.0445 139.605 35.7072 138.96 35.9272C138.315 36.1325 137.97 36.8072 138.195 37.4379C138.24 37.5845 138.33 37.7165 138.42 37.8339C137.76 38.9339 136.92 39.9459 135.93 40.7965C134.7 41.8525 133.245 42.7032 131.58 43.2459C129.345 43.9792 127.035 44.0525 124.89 43.5832C122.67 43.0992 120.615 42.0285 118.95 40.4885C118.77 40.3125 118.485 40.3272 118.305 40.5032C118.125 40.6792 118.14 40.9579 118.32 41.1339C120.09 42.7765 122.295 43.9205 124.68 44.4485C126.99 44.9472 129.45 44.8592 131.85 44.0819C133.62 43.5099 135.195 42.6005 136.5 41.4565C137.61 40.5325 138.51 39.4472 139.23 38.2445ZM116.985 44.5512C117.03 44.5365 117.06 44.5219 117.105 44.4925C119.28 46.1939 121.86 47.3379 124.605 47.8219C127.62 48.3645 130.815 48.1005 133.86 46.9125C134.1 46.8245 134.205 46.5605 134.115 46.3405C134.025 46.1059 133.755 46.0032 133.53 46.0912C130.635 47.2205 127.62 47.4699 124.77 46.9565C122.19 46.5019 119.76 45.4165 117.705 43.8179C117.795 43.5539 117.795 43.2605 117.69 42.9965C117.435 42.3805 116.73 42.0872 116.1 42.3365C115.47 42.5859 115.17 43.2752 115.425 43.8912C115.65 44.5072 116.37 44.8005 116.985 44.5512ZM144.36 29.7525C144.03 26.9072 142.98 24.3112 141.405 22.1259C139.77 19.8525 137.565 18.0339 135.03 16.8019C134.805 16.6992 134.535 16.7872 134.43 17.0072C134.325 17.2272 134.415 17.4912 134.64 17.5939C137.04 18.7525 139.125 20.4832 140.67 22.6245C142.155 24.6925 143.16 27.1419 143.475 29.8405C143.775 32.3779 143.43 34.8419 142.56 37.0712C141.795 39.0512 140.64 40.8405 139.155 42.3512C138.96 42.2632 138.75 42.2339 138.525 42.2632C137.85 42.3365 137.37 42.9232 137.445 43.5832C137.52 44.2432 138.12 44.7125 138.795 44.6392C139.47 44.5659 139.95 43.9792 139.875 43.3192C139.86 43.2019 139.83 43.0992 139.785 42.9965C141.36 41.3979 142.59 39.4912 143.4 37.3939C144.3 35.0325 144.66 32.4365 144.36 29.7525ZM127.665 14.3672C127.14 14.3672 126.69 14.6899 126.51 15.1592C123.96 15.3205 121.56 16.0392 119.445 17.1832C116.925 18.5472 114.795 20.5419 113.28 22.9325C113.145 23.1379 113.22 23.4165 113.43 23.5485C113.64 23.6805 113.925 23.6072 114.06 23.4019C115.5 21.1285 117.51 19.2512 119.895 17.9605C121.89 16.8752 124.155 16.2005 126.555 16.0539C126.75 16.4792 127.17 16.7725 127.665 16.7725C128.34 16.7725 128.895 16.2445 128.895 15.5845C128.88 14.9099 128.34 14.3672 127.665 14.3672ZM127.65 19.3392C131.115 19.3539 134.235 20.7325 136.5 22.9619C138.765 25.1912 140.16 28.2565 140.145 31.6445C140.145 31.8939 140.34 32.0845 140.595 32.0845C140.85 32.0845 141.045 31.8939 141.045 31.6445C141.06 28.0072 139.56 24.7219 137.13 22.3312C134.73 19.9405 131.37 18.4592 127.65 18.4445C125.91 18.4445 124.245 18.7525 122.715 19.3392C121.485 19.8085 120.36 20.4539 119.34 21.2312C119.175 21.1432 118.98 21.0992 118.77 21.0992C118.095 21.0992 117.54 21.6272 117.54 22.2872C117.54 22.9472 118.08 23.4899 118.755 23.4899C119.43 23.4899 119.985 22.9619 119.985 22.3019C119.985 22.1699 119.97 22.0379 119.925 21.9205C120.87 21.2019 121.92 20.6152 123.045 20.1899C124.47 19.6325 126.03 19.3392 127.65 19.3392Z" fill="white"/>
<path d="M36.6602 18.0756H32.3252V23.5756H29.5352V10.0823H37.1702V12.3556H32.3252V15.8169H36.6602V18.0756ZM41.1002 23.5756H38.3102V10.0823H41.1002V23.5756ZM52.0952 23.5756H49.3052L45.2252 14.7316V23.5756H42.4502V10.0823H45.2402L49.3202 18.9409V10.0823H52.0952V23.5756ZM62.8202 12.3556H59.4002V23.5756H56.6102V12.3556H53.2502V10.0823H62.8052V12.3556H62.8202ZM71.0702 17.7382H66.7352V21.3169H71.8652V23.5756H63.9452V10.0823H71.8502V12.3556H66.7352V15.5383H71.0702V17.7382ZM82.1852 19.0876C82.1102 20.6276 81.6752 21.7862 80.8652 22.5782C80.0552 23.3702 78.9002 23.7662 77.4152 23.7662C75.8552 23.7662 74.6552 23.2676 73.8302 22.2556C73.0052 21.2582 72.5852 19.8209 72.5852 17.9582V15.6996C72.5852 13.8516 73.0202 12.4143 73.8752 11.4169C74.7302 10.4196 75.9302 9.90625 77.4602 9.90625C78.9602 9.90625 80.1002 10.3169 80.8802 11.1383C81.6602 11.9596 82.1102 13.1329 82.2152 14.6729H79.4252C79.3952 13.7196 79.2452 13.0596 78.9752 12.7076C78.7052 12.3409 78.1952 12.1649 77.4602 12.1649C76.7102 12.1649 76.1852 12.4143 75.8852 12.9276C75.5702 13.4409 75.4052 14.2769 75.3902 15.4502V18.0022C75.3902 19.3369 75.5402 20.2609 75.8552 20.7596C76.1552 21.2582 76.6802 21.5076 77.4302 21.5076C78.1652 21.5076 78.6752 21.3316 78.9452 20.9796C79.2302 20.6276 79.3802 19.9969 79.4252 19.0876H82.1852ZM93.0452 23.5756H90.2702V17.8116H86.1602V23.5756H83.3702V10.0823H86.1602V15.5383H90.2702V10.0823H93.0452V23.5756Z" fill="white"/>
<path d="M120.42 32.0139L121.065 25.5312H127.395V27.6579H123.15L122.91 30.4006C123.405 30.0779 123.9 29.9166 124.425 29.9166C125.505 29.9166 126.33 30.2979 126.915 31.0459C127.5 31.7939 127.785 32.8499 127.785 34.2139C127.785 35.4899 127.44 36.5312 126.75 37.3086C126.06 38.0859 125.13 38.4819 123.975 38.4819C123.285 38.4819 122.655 38.3206 122.07 37.9979C121.485 37.6752 121.02 37.2352 120.69 36.6632C120.345 36.0912 120.18 35.4459 120.18 34.7272H122.685C122.73 35.2552 122.865 35.6659 123.09 35.9592C123.315 36.2526 123.615 36.3992 123.975 36.3992C124.395 36.3992 124.71 36.2086 124.95 35.8126C125.175 35.4166 125.295 34.8299 125.295 34.0526C125.295 33.3192 125.16 32.7619 124.89 32.3806C124.62 31.9992 124.23 31.8232 123.75 31.8232C123.27 31.8232 122.895 31.9846 122.64 32.3072L122.475 32.5272L120.42 32.0139Z" fill="white"/>
<path d="M136.334 33.0085C136.334 34.7685 136.004 36.1179 135.359 37.0565C134.699 37.9952 133.769 38.4645 132.554 38.4645C131.354 38.4645 130.424 38.0099 129.764 37.1005C129.104 36.1912 128.774 34.8859 128.744 33.1992V30.7939C128.744 29.0339 129.074 27.6845 129.719 26.7605C130.364 25.8219 131.309 25.3672 132.524 25.3672C133.739 25.3672 134.684 25.8219 135.329 26.7459C135.974 27.6699 136.319 28.9899 136.319 30.7059V33.0085H136.334ZM133.784 30.4272C133.784 29.4152 133.679 28.6672 133.484 28.1685C133.274 27.6699 132.959 27.4205 132.539 27.4205C131.729 27.4205 131.309 28.3445 131.279 30.1779V33.3605C131.279 34.3872 131.384 35.1499 131.594 35.6632C131.804 36.1619 132.119 36.4112 132.554 36.4112C132.974 36.4112 133.274 36.1765 133.469 35.7072C133.664 35.2379 133.769 34.5192 133.784 33.5512V30.4272Z" fill="white"/>
<path d="M29.1 45.1557V45.1263C29.07 43.2197 30.63 41.6503 32.58 41.621C32.61 41.621 32.655 41.621 32.685 41.621C33.66 41.577 34.62 41.9143 35.355 42.545L34.575 43.4543C34.05 42.9703 33.36 42.7063 32.625 42.721C31.335 42.765 30.33 43.8357 30.375 45.097V45.1117V45.141C30.375 46.5343 31.32 47.561 32.745 47.561C33.345 47.561 33.93 47.385 34.425 47.0477V45.7717H32.64V44.7303H35.595V47.5903C34.785 48.265 33.765 48.6463 32.7 48.6463C30.795 48.7343 29.19 47.297 29.1 45.4343C29.1 45.3317 29.1 45.2437 29.1 45.1557Z" fill="white"/>
<path d="M36.4653 45.1557V45.1263C36.4353 43.2197 37.9953 41.6503 39.9453 41.621C39.9753 41.621 40.0203 41.621 40.0503 41.621C41.0253 41.577 41.9853 41.9143 42.7203 42.545L41.9403 43.4543C41.4153 42.9703 40.7103 42.7063 39.9903 42.721C38.7003 42.765 37.6953 43.8357 37.7403 45.097V45.1117V45.141C37.7403 46.5343 38.6853 47.561 40.1103 47.561C40.7103 47.561 41.2953 47.385 41.7903 47.0477V45.7717H40.0203V44.7303H42.9753V47.5903C42.1653 48.265 41.1453 48.6463 40.0803 48.6463C38.1753 48.7197 36.5703 47.2823 36.4803 45.4197C36.4653 45.3317 36.4653 45.2437 36.4653 45.1557Z" fill="white"/>
<path d="M43.3359 41.7422H44.6859L46.7859 46.9635L48.8709 41.7422H50.1909L47.3109 48.5769H46.2459L43.3359 41.7422Z" fill="white"/>
<path d="M50.8057 45.1523V45.1229C50.7607 43.2309 52.2757 41.6616 54.2107 41.6176C54.2407 41.6176 54.2557 41.6176 54.2857 41.6176C55.3057 41.6029 56.2807 41.9843 56.9857 42.7029L56.6107 43.0696C56.0107 42.4389 55.1557 42.0723 54.2707 42.0723C52.6357 42.0869 51.3157 43.4069 51.3457 45.0203C51.3457 45.0496 51.3457 45.0789 51.3457 45.1083V45.1376C51.3607 46.8389 52.6357 48.1883 54.2857 48.1883C55.2007 48.1883 56.0707 47.8069 56.6707 47.1323L57.0157 47.4696C56.3107 48.2323 55.3057 48.6576 54.2557 48.6576C52.3507 48.6576 50.8057 47.1323 50.8057 45.2696C50.8057 45.2109 50.8057 45.1816 50.8057 45.1523Z" fill="white"/>
<path d="M61.0798 41.6797H61.5748L64.7998 48.5144H64.2448L63.3748 46.6077H59.2798L58.3948 48.5144H57.8398L61.0798 41.6797ZM63.1348 46.1677L61.3048 42.237L59.4748 46.1677H63.1348Z" fill="white"/>
<path d="M66.2709 41.7422H68.7909C70.3209 41.7422 71.3709 42.5195 71.3709 43.8249V43.8542C71.3709 45.2769 70.1109 46.0249 68.6559 46.0249H66.7809V48.5622H66.2559L66.2709 41.7422ZM68.7009 45.5262C69.9909 45.5262 70.8609 44.8662 70.8609 43.8542V43.8249C70.8609 42.7395 70.0059 42.1822 68.7609 42.1822H66.7959V45.5115L68.7009 45.5262Z" fill="white"/>
<path d="M72.9746 41.7422H73.4996V48.5182H72.9746V41.7422Z" fill="white"/>
<path d="M77.5498 42.2115H75.1348V41.7422H80.4748V42.1969H78.0598V48.5182H77.5498V42.2115Z" fill="white"/>
<path d="M83.7895 41.6797H84.2845L87.5095 48.5144H86.9545L86.0695 46.6077H81.9745L81.1045 48.5144H80.5645L83.7895 41.6797ZM85.8445 46.1677L84.0295 42.237L82.1995 46.1677H85.8445Z" fill="white"/>
<path d="M88.9941 41.7422H89.5191V48.0635H93.5991V48.5182H88.9941V41.7422Z" fill="white"/>
<path d="M99.6458 41.5469C100.051 41.5469 100.456 41.5469 100.846 41.5469C100.906 41.5469 100.921 41.5615 100.921 41.6202C100.921 41.9575 100.921 42.2802 100.921 42.6175C100.921 43.7615 100.921 44.9055 100.921 46.0495C100.906 46.4309 100.846 46.8122 100.681 47.1495C99.9308 48.8655 97.4558 49.1149 96.0758 48.0295C95.4458 47.4575 95.1608 46.6362 95.2058 45.8149C95.2058 44.3922 95.2058 42.9842 95.2058 41.5615C95.6258 41.5615 96.0608 41.5615 96.4808 41.5615C96.4658 42.9695 96.4808 44.3629 96.4808 45.7709C96.4358 46.8269 97.0358 47.6189 98.1758 47.5749C99.1508 47.5602 99.6458 46.8122 99.6608 45.9322C99.6458 44.4509 99.6458 42.9989 99.6458 41.5469Z" fill="white"/>
<path d="M106.02 43.012C105.645 42.6307 105.105 42.3667 104.55 42.4107C104.145 42.44 103.935 42.5427 103.725 42.7627C103.245 43.2027 103.41 43.936 104.085 44.1707C105.45 44.6107 107.01 44.8893 106.89 46.6493C106.785 48.424 104.775 48.9813 103.26 48.5267C102.735 48.38 102.24 48.1307 101.88 47.7347C101.865 47.72 101.865 47.6613 101.88 47.6467C102.15 47.3827 102.45 47.1187 102.75 46.8547C103.065 47.192 103.44 47.456 103.905 47.5587C104.55 47.72 105.465 47.5 105.57 46.752C105.585 46.5173 105.72 46.1507 105.165 45.8867C104.505 45.564 103.77 45.4173 103.125 45.08C102.405 44.6987 102.105 43.9947 102.165 43.2173C102.345 41.4867 104.67 41.0173 106.08 41.6333C106.35 41.7507 106.605 41.8827 106.83 42.088C106.86 42.1173 106.875 42.132 106.83 42.176C106.56 42.4547 106.32 42.7627 106.02 43.012Z" fill="white"/>
</svg>
