<svg width="189" height="58" viewBox="0 0 189 58" fill="none" xmlns="http://www.w3.org/2000/svg">
<path d="M188.941 30.3324C188.896 30.296 188.831 30.2844 188.78 30.3012C188.718 30.32 188.661 30.3363 188.608 30.3517L188.582 30.3592C188.449 30.3973 188.335 30.4298 188.222 30.4745C186.436 31.173 185.031 32.3696 183.924 34.1325C183.651 34.5681 183.439 35.0208 183.271 35.4724C183.547 33.9536 183.611 33.3618 183.66 31.6624C183.662 31.591 183.662 31.5185 183.662 31.4465C183.662 31.2499 183.662 31.0642 183.706 30.8947C183.758 30.6939 183.863 30.4936 183.965 30.2998C183.994 30.245 184.023 30.1901 184.046 30.142C184.055 30.1325 184.081 30.1166 184.091 30.115C184.602 30.0382 185.054 29.8248 185.472 29.4626C185.894 29.0959 186.241 28.647 186.504 28.128C187.446 26.2678 187.918 24.2117 187.906 22.0176C187.905 21.8059 187.879 21.5999 187.852 21.3758C187.839 21.2754 187.826 21.1727 187.816 21.0663C187.809 21.008 187.773 20.9561 187.72 20.9309C187.668 20.906 187.605 20.9078 187.552 20.9391C187.52 20.9587 187.493 20.9747 187.468 20.9889C187.421 21.0169 187.384 21.0388 187.349 21.0633C186.546 21.6305 185.837 22.3367 185.242 23.1616C184.271 24.51 183.707 26.0346 183.555 27.7118C183.54 27.5248 183.524 27.3379 183.509 27.1509L183.504 27.0831C183.444 26.3502 183.383 25.5921 183.332 24.8467C183.32 24.658 183.283 24.4744 183.247 24.2967C183.179 23.9552 183.114 23.6326 183.217 23.2946C183.241 23.2182 183.261 23.1413 183.281 23.0646C183.33 22.8744 183.567 22.5816 183.932 22.2615L183.946 22.2494C184.08 22.1373 184.77 21.5156 185.162 20.2859C185.559 19.0366 185.529 17.7311 185.507 16.7779L185.507 16.7525C185.478 15.4422 185.334 14.4548 185.041 13.5505C185.003 13.4349 184.958 13.3208 184.91 13.201C184.885 13.1386 184.86 13.0741 184.834 13.0066C184.812 12.9495 184.761 12.908 184.701 12.8982L184.672 12.8955C184.62 12.8955 184.571 12.9185 184.538 12.9581L184.253 13.3C182.887 14.9404 182.216 16.8643 182.258 19.0185C182.265 19.3979 182.294 19.787 182.345 20.1888C181.998 19.009 181.59 17.8606 181.127 16.7559C181.117 16.7317 181.111 16.7017 181.111 16.6763L181.107 16.5253C181.103 16.3073 181.098 16.0818 181.107 15.86C181.108 15.8232 181.133 15.7571 181.183 15.6921C181.255 15.599 181.334 15.5081 181.416 15.4135C181.556 15.253 181.701 15.0872 181.816 14.898C182.185 14.2893 182.358 13.5701 182.361 12.6346C182.366 11.5334 182.194 10.3744 181.818 8.98722C181.612 8.23043 181.302 7.24726 180.725 6.3559C180.685 6.29598 180.642 6.23956 180.595 6.17981C180.574 6.15335 180.552 6.12514 180.53 6.09482C180.497 6.05154 180.452 6.02631 180.379 6.02631C180.32 6.03052 180.268 6.06311 180.239 6.11375C179.514 7.40146 179.153 8.77712 179.136 10.3194C179.122 11.6054 179.326 12.7119 179.582 13.5864C178.931 12.4158 178.207 11.2847 177.423 10.2118L177.405 10.1875C177.387 10.1642 177.38 10.1528 177.381 10.1609C177.332 9.81374 177.298 9.53601 177.274 9.2942C177.274 9.29053 177.279 9.2702 177.316 9.20992C177.368 9.12301 177.424 9.03785 177.485 8.94779C177.606 8.76661 177.731 8.57912 177.811 8.36921C178.052 7.7356 178.107 7.01702 177.976 6.17315C177.69 4.30545 176.853 2.62367 175.42 1.03143C175.272 0.867947 175.109 0.723389 174.937 0.570595L174.889 0.528016C174.821 0.467915 174.752 0.406412 174.682 0.341405C174.638 0.299702 174.574 0.284108 174.512 0.30198C174.454 0.320203 174.409 0.367863 174.395 0.427088L174.364 0.56236C174.342 0.652074 174.326 0.722863 174.313 0.794004C174.12 1.92769 174.134 3.14198 174.357 4.50661C174.577 5.86003 175.016 7.02736 175.69 8.04137C174.68 6.86948 173.697 5.88543 172.67 5.01335C172.665 5.0074 172.658 4.98935 172.658 4.98479C172.738 4.30405 172.567 3.66274 172.136 3.02423C171.569 2.18509 170.782 1.54553 169.796 1.1236C169.206 0.871627 168.594 0.648569 167.996 0.430067C167.709 0.325285 167.422 0.220852 167.127 0.108885C166.83 -0.00728709 166.703 -0.0279634 166.634 0.0347662C166.545 0.116069 166.567 0.185458 166.605 0.311617L166.618 0.352794C166.98 1.55272 167.46 2.50172 168.087 3.25395C169.236 4.63627 170.581 5.33856 172.196 5.40059C172.253 5.40392 172.297 5.41934 172.316 5.43336C172.543 5.60087 172.71 5.73492 172.858 5.86774C173.326 6.28862 173.787 6.73701 174.238 7.20924C173.567 6.79922 172.748 6.61418 171.825 6.66009C171.32 6.68515 170.819 6.75804 170.334 6.82848L170.315 6.83128C170.172 6.85196 170.03 6.87246 169.887 6.89226C169.576 6.93379 169.262 6.98811 168.984 7.03577C168.872 7.05557 168.604 7.11567 168.542 7.24375C168.521 7.28756 168.522 7.33557 168.547 7.3792C168.568 7.41723 168.592 7.45297 168.617 7.48556C169.418 8.50798 170.331 9.18136 171.409 9.5439C172.723 9.98826 173.931 9.95164 175.015 9.42895C175.181 9.33906 175.381 9.2935 175.61 9.2935C175.782 9.2935 175.912 9.32031 175.955 9.32995C176.019 9.34046 176.106 9.37586 176.124 9.39864C176.799 10.2718 177.439 11.2043 178.037 12.184C177.532 11.7004 176.873 11.3743 175.975 11.1619C175.189 10.9774 174.385 10.9378 173.607 10.8992L173.347 10.8863C173.103 10.874 172.859 10.8588 172.608 10.8432L172.186 10.8176C172.132 10.8176 172.08 10.8435 172.049 10.8866C172.013 10.9331 172.005 10.9933 172.026 11.0475C172.043 11.0927 172.073 11.1724 172.089 11.199C172.909 12.5493 173.872 13.4832 175.033 14.0545C176.168 14.6124 177.193 14.7599 178.227 14.5165C178.347 14.4881 178.485 14.4731 178.629 14.4731C179.068 14.4731 179.375 14.6052 179.44 14.7275C180.008 15.8827 180.516 17.0832 180.954 18.3076C180.495 17.6844 179.853 17.1781 179.039 16.7995C178.232 16.4242 177.39 16.0811 176.563 15.7434C176.207 15.5987 175.85 15.4534 175.495 15.3048C175.442 15.2821 175.379 15.2868 175.33 15.3189C175.282 15.3506 175.253 15.4035 175.253 15.4604C175.253 15.5698 176.433 18.794 178.147 20.0646C178.846 20.5829 179.707 21.1161 180.794 21.1411C181.119 21.1476 181.455 21.1928 181.708 21.4769C181.747 21.5221 181.799 21.5573 181.855 21.576C181.942 21.6041 181.965 21.6563 182.008 21.8343C182.36 23.288 182.616 24.7863 182.774 26.3077C182.726 26.1534 182.671 25.9974 182.607 25.8396C182.223 24.882 181.578 24.0441 180.575 23.2025C180.059 22.7669 179.517 22.3451 178.994 21.937L178.969 21.9177C178.731 21.7318 178.493 21.5466 178.256 21.3591C178.207 21.3204 178.159 21.2804 178.104 21.2338L177.956 21.1091C177.904 21.066 177.827 21.057 177.766 21.0868C177.704 21.1178 177.667 21.182 177.672 21.2505C177.679 21.3533 177.685 21.4506 177.691 21.544L177.693 21.5876C177.705 21.7798 177.716 21.9612 177.736 22.1403C177.921 23.8839 178.448 25.3396 179.346 26.5906C179.902 27.3638 180.7 28.309 181.943 28.7559C182.246 28.8653 182.465 29.0309 182.701 29.3281C182.922 29.6063 182.964 29.8605 182.959 30.1805C182.937 31.5208 182.84 32.8504 182.669 34.1524C182.629 33.7901 182.545 33.417 182.414 33.0294C182.145 32.2269 181.725 31.4467 181.131 30.6441C180.618 29.9492 180.084 29.2518 179.568 28.577L179.534 28.532C179.329 28.2648 179.124 27.9972 178.925 27.7355C178.888 27.6817 178.834 27.6624 178.803 27.6517C178.758 27.6305 178.706 27.6284 178.659 27.648C178.613 27.6673 178.578 27.7053 178.562 27.7519L178.556 27.7702C178.548 27.7947 178.541 27.8164 178.537 27.8381C178.181 29.9278 178.4 31.8001 179.205 33.5625C179.598 34.4242 180.126 35.3998 181.056 36.1018C181.48 36.4223 181.815 36.8719 181.999 37.3676C182.038 37.4743 182.037 37.5206 182.032 37.5384C181.639 39.1431 181.125 40.6909 180.5 42.1557C180.661 41.3837 180.65 40.5728 180.466 39.7326C180.205 38.5418 179.757 37.3877 179.357 36.3995L179.237 36.1035C179.05 35.6404 178.861 35.1736 178.666 34.6898C178.642 34.628 178.582 34.5858 178.502 34.5819C178.44 34.5819 178.382 34.6171 178.352 34.6743L178.289 34.7906C178.262 34.8416 178.236 34.8891 178.214 34.9381C177.41 36.7244 177.138 38.5554 177.407 40.3805C177.599 41.6856 177.925 42.6201 178.463 43.4107C178.742 43.8193 179.006 44.2745 179.055 44.8343C179.066 44.9668 179.061 45.0581 179.001 45.162C178.322 46.3323 177.56 47.4367 176.727 48.4628C176.73 48.4572 176.733 48.4516 176.736 48.446C177.336 47.3672 177.354 46.2007 177.293 45.2018C177.24 44.3455 177.14 43.4904 177.044 42.6637L177.039 42.6158C177 42.2847 176.962 41.9537 176.927 41.622C176.906 41.434 176.884 41.246 176.861 41.0551L176.83 40.7969C176.823 40.7397 176.788 40.6903 176.737 40.6655C176.642 40.6167 176.489 40.6919 176.323 40.8846C175.185 42.2092 174.479 43.7059 174.225 45.3335C173.96 47.0211 174.103 48.4653 174.663 49.7486C174.678 49.7828 174.678 49.8525 174.678 49.8758L174.647 50.6142C174.643 50.6673 174.615 50.7272 174.591 50.7495C173.455 51.8264 172.204 52.7626 170.862 53.5418C171.497 52.9766 171.954 52.239 172.25 51.3044C172.578 50.2685 172.747 49.1904 172.91 48.145L172.924 48.0519C172.982 47.6847 173.042 47.3181 173.104 46.9435L173.174 46.52C173.184 46.4583 173.159 46.3966 173.11 46.3596C173.062 46.3218 172.992 46.3127 172.937 46.3362L172.876 46.3609C172.811 46.387 172.755 46.4103 172.701 46.4371C170.164 47.6845 168.494 50.5939 168.73 53.3547C168.767 53.7871 168.727 54.1933 168.607 54.5956C168.595 54.6322 168.559 54.672 168.545 54.6787C167.34 55.1789 166.194 55.5439 165.041 55.7945C164.982 55.808 164.935 55.8497 164.915 55.9059C164.896 55.9625 164.908 56.024 164.947 56.0703C165.073 56.2164 165.182 56.3736 165.271 56.5381C165.308 56.6054 165.396 56.6399 165.462 56.6231C166.401 56.4121 167.316 56.139 168.182 55.8106C168.252 55.7829 168.305 55.7698 168.355 55.7778C168.548 55.8031 168.751 55.842 168.977 55.8972C169.024 55.9084 169.062 55.9296 169.063 55.9277C169.556 56.8959 170.404 57.5127 171.656 57.8129C171.929 57.8772 172.21 57.9247 172.491 57.9537C172.786 57.9844 173.115 58 173.468 58C173.958 58 174.307 57.9702 174.311 57.9699C175.396 57.8504 176.323 57.61 177.144 57.2348C177.481 57.0811 177.864 56.8742 178.159 56.5047C178.216 56.4339 178.206 56.3317 178.138 56.2723C177.304 55.5481 176.455 55.0219 175.542 54.6638C174.189 54.1346 172.957 53.9913 171.749 54.2199C171.569 54.2545 171.393 54.2979 171.221 54.3478C172.351 53.6831 173.433 52.9017 174.455 52.0116C174.474 51.9941 174.506 51.9787 174.531 51.9743C174.699 51.9469 174.921 51.9133 175.148 51.8972C175.169 51.8972 175.195 51.9072 175.198 51.9082C175.814 52.5863 176.607 52.9159 177.623 52.9159C177.675 52.9159 177.727 52.9149 177.779 52.9131C178.883 52.8781 179.994 52.5793 181.08 52.0248C181.869 51.6195 182.692 51.1476 183.359 50.4439C183.507 50.2874 183.639 50.1105 183.755 49.9543L183.767 49.9391C183.818 49.8702 183.871 49.8008 183.924 49.7323C183.953 49.6954 183.966 49.6477 183.958 49.5997C183.95 49.5534 183.923 49.5122 183.876 49.4825C183.864 49.4761 183.582 49.327 183.324 49.2287C181.597 48.5718 179.853 48.5045 178.19 49.0321C177.645 49.2044 177.133 49.463 176.634 49.8205C177.557 48.7646 178.411 47.6071 179.187 46.3616C179.195 46.3484 179.217 46.3129 179.225 46.3064C179.292 46.2638 179.362 46.2235 179.431 46.1837C179.555 46.1121 179.684 46.0379 179.804 45.9496C179.906 45.8748 179.935 45.8729 180.038 45.9381C180.183 46.0311 180.353 46.0795 180.5 46.1175C181.364 46.3351 182.234 46.2267 183.196 45.7818C184.076 45.3759 184.752 44.7345 185.352 44.1019C186.224 43.1792 186.795 42.3467 187.146 41.4818C187.22 41.3003 187.273 41.1126 187.328 40.9164C187.35 40.834 187.374 40.7517 187.398 40.6707C187.425 40.5838 187.378 40.4918 187.291 40.4615L187.218 40.4561C186.863 40.4561 183.688 40.5074 181.832 42.2806C181.428 42.6665 181.066 43.0765 180.735 43.5254C181.47 41.9943 182.092 40.3807 182.594 38.7058L182.602 38.6812C182.608 38.6607 182.617 38.6297 182.623 38.6213L183.109 37.9649C183.127 37.9386 183.129 37.9386 183.157 37.9386C183.17 37.9386 183.184 37.9395 183.2 37.9404L183.303 37.9465C183.665 37.9686 183.878 37.9655 184.053 37.9385C184.744 37.8311 185.368 37.4883 185.96 36.8905C187.345 35.4922 188.299 33.7477 188.875 31.5578C188.937 31.3231 188.954 31.0862 188.972 30.835C188.981 30.7211 188.99 30.6037 189.003 30.4824C189.008 30.4242 188.985 30.3687 188.941 30.3324Z" fill="white"/>
<path d="M23.299 55.7951C22.1842 55.5447 21.0755 55.1797 19.9089 54.6795C19.8949 54.6728 19.8603 54.633 19.8494 54.5973C19.7331 54.1941 19.6942 53.7879 19.73 53.3555C19.9585 50.5945 18.3421 47.6852 15.887 46.4379C15.8349 46.4109 15.7804 46.3876 15.7177 46.3615L15.6595 46.337C15.6042 46.313 15.5368 46.323 15.4922 46.3594C15.444 46.3973 15.42 46.459 15.4298 46.5208L15.497 46.9442C15.5566 47.3188 15.615 47.6854 15.671 48.0523L15.6851 48.1483C15.8428 49.1911 16.0057 50.2694 16.3232 51.3053C16.6097 52.24 17.0518 52.9775 17.6666 53.5426C16.3677 52.7636 15.1573 51.8273 14.0581 50.7506C14.035 50.728 14.0076 50.668 14.0036 50.6186L13.9742 49.8797C13.974 49.8534 13.9736 49.7837 13.9883 49.7492C14.5297 48.4662 14.6684 47.022 14.4126 45.3344C14.1659 43.7067 13.4827 42.2099 12.3817 40.8854C12.2528 40.7303 12.1391 40.6518 12.0437 40.6518C12.0205 40.6518 11.9994 40.6565 11.9829 40.6653C11.9323 40.6909 11.898 40.7405 11.8913 40.7978L11.8618 41.0555C11.8391 41.2469 11.8172 41.4347 11.7975 41.6229C11.7636 41.9544 11.7264 42.2854 11.689 42.6166L11.6837 42.6645C11.5906 43.4913 11.4942 44.3464 11.4432 45.2026C11.3839 46.2014 11.4015 47.3679 11.9819 48.4469C11.985 48.4523 11.9877 48.4581 11.9908 48.4635C11.1841 47.4374 10.4476 46.3331 9.79059 45.163C9.73254 45.0589 9.72754 44.9676 9.7384 44.8351C9.78508 44.2749 10.0411 43.8197 10.3107 43.4114C10.8314 42.6208 11.1467 41.6863 11.3329 40.3813C11.5932 38.5561 11.3303 36.7252 10.552 34.9389C10.5307 34.8897 10.5057 34.8422 10.479 34.7912L10.4182 34.6745C10.3891 34.6176 10.3269 34.5801 10.2612 34.5831C10.1958 34.5866 10.1381 34.6288 10.1143 34.6901C9.92548 35.1744 9.74288 35.6411 9.56147 36.1042L9.44554 36.4002C9.05862 37.3886 8.62467 38.5426 8.37247 39.7333C8.19469 40.5735 8.18383 41.3844 8.33974 42.1565C7.73473 40.6918 7.23738 39.144 6.8565 37.5391C6.85219 37.5212 6.85081 37.475 6.88854 37.3683C7.06667 36.8724 7.39105 36.4228 7.80208 36.1023C8.70185 35.4003 9.21229 34.4247 9.59283 33.5629C10.372 31.8005 10.5834 29.9282 10.2388 27.8386C10.2352 27.8167 10.2287 27.795 10.2209 27.7714L10.2147 27.7524C10.1997 27.7056 10.1656 27.6678 10.1205 27.648C10.0764 27.6292 10.0209 27.6327 9.98664 27.6499C9.95218 27.6627 9.89999 27.6822 9.86605 27.7328C9.67104 27.9977 9.4731 28.2651 9.27499 28.5324L9.24174 28.5774C8.74216 29.2522 8.22552 29.9496 7.72904 30.6443C7.15383 31.4471 6.74762 32.2273 6.48698 33.0299C6.36122 33.4175 6.27905 33.7905 6.24029 34.1529C6.07474 32.8508 5.98085 31.5213 5.96035 30.1809C5.95553 29.8609 5.99549 29.6067 6.21031 29.3282C6.43771 29.0314 6.65012 28.8656 6.94298 28.7563C8.14628 28.3091 8.91822 27.3641 9.45622 26.5909C10.3253 25.3399 10.8351 23.8843 11.0146 22.1408C11.0337 21.9614 11.0445 21.7799 11.0557 21.5878L11.0585 21.5442C11.0638 21.4508 11.0695 21.3535 11.0768 21.2505C11.0812 21.1822 11.0452 21.118 10.9851 21.087C10.9269 21.0572 10.8523 21.066 10.8016 21.1096L10.6588 21.234C10.6051 21.2807 10.5591 21.3206 10.5114 21.3595C10.2821 21.5468 10.0519 21.7322 9.82126 21.9181L9.79714 21.9374C9.29084 22.3453 8.76714 22.7671 8.26704 23.2027C7.29665 24.0445 6.67182 24.8824 6.30058 25.84C6.23925 25.9979 6.18551 26.154 6.13934 26.3086C6.29197 24.7869 6.53986 23.2884 6.88027 21.8345C6.92161 21.6567 6.9447 21.6045 7.02963 21.5761C7.08303 21.5577 7.13282 21.5223 7.16917 21.4785C7.41603 21.193 7.7411 21.1478 8.05601 21.1413C9.10686 21.1163 9.9403 20.5831 10.6168 20.0648C12.2756 18.794 13.4177 15.5699 13.4177 15.4605C13.4177 15.4036 13.3898 15.3505 13.3425 15.3184C13.2958 15.2871 13.2327 15.2827 13.1852 15.3042C12.8396 15.4534 12.494 15.5986 12.1362 15.7491C11.3489 16.0812 10.535 16.4243 9.75321 16.7994C8.96646 17.1781 8.34473 17.6845 7.90028 18.3076C8.32389 17.0833 8.81503 15.883 9.36492 14.7295C9.42814 14.6051 9.72513 14.473 10.151 14.473C10.2895 14.473 10.4237 14.488 10.5396 14.5164C11.5402 14.7603 12.5323 14.6125 13.6303 14.0544C14.7537 13.4831 15.6857 12.5492 16.4795 11.1984C16.4946 11.1723 16.5244 11.0925 16.5405 11.0478C16.5606 10.9932 16.5525 10.9329 16.5191 10.8872C16.4881 10.8437 16.4385 10.8178 16.3753 10.8178C16.3747 10.8178 16.3744 10.8178 16.3739 10.8178L15.9773 10.8432C15.7342 10.8588 15.4982 10.874 15.2622 10.8863L15.0102 10.8993C14.2577 10.9378 13.4794 10.9774 12.718 11.1619C11.8496 11.3743 11.212 11.7004 10.7231 12.184C11.3017 11.2043 11.9214 10.2721 12.5741 9.39897C12.5917 9.37584 12.6759 9.34045 12.745 9.32871C12.7795 9.32047 12.9049 9.29366 13.0716 9.29366C13.2928 9.29366 13.4865 9.3394 13.6506 9.43122C14.6937 9.95006 15.8652 9.98861 17.137 9.54424C18.1803 9.18169 19.0639 8.5083 19.8384 7.48621C19.8636 7.45327 19.8863 7.41735 19.907 7.3795C19.9306 7.33587 19.9321 7.28786 19.9114 7.24405C19.8515 7.11614 19.5921 7.05603 19.4828 7.03606C19.2148 6.9884 18.9111 6.93408 18.6099 6.89255C18.472 6.87292 18.3338 6.85242 18.1953 6.83157L18.1775 6.82877C17.7083 6.75833 17.2232 6.68543 16.7344 6.66038C15.8414 6.61394 15.0484 6.79933 14.3995 7.20971C14.8359 6.7373 15.2817 6.28907 15.7344 5.86801C15.8776 5.73519 16.0395 5.60131 16.2602 5.43327C16.2772 5.41996 16.3207 5.40436 16.3739 5.40121C17.9379 5.339 19.2394 4.6367 20.3523 3.25452C20.9585 2.5021 21.4233 1.55308 21.7735 0.35314L21.7856 0.311962C21.8229 0.185799 21.8436 0.11641 21.7577 0.0351052C21.6913 -0.0276255 21.5745 -0.00905112 21.271 0.113256C20.9954 0.22102 20.718 0.325629 20.4332 0.433043C19.8611 0.648745 19.2694 0.871806 18.6983 1.12378C17.7439 1.54572 16.9818 2.1853 16.4335 3.02445C16.0159 3.66297 15.8509 4.30447 15.9286 4.98224C15.928 4.98978 15.9215 5.00783 15.9205 5.00993C14.9242 5.88483 13.9719 6.86977 12.9941 8.04203C13.6462 7.028 14.0712 5.86047 14.2844 4.50703C14.4994 3.14255 14.513 1.92806 14.3263 0.794357C14.3144 0.72339 14.2984 0.652425 14.2779 0.563585L14.2474 0.426734C14.2336 0.368033 14.1902 0.320548 14.1332 0.302324C14.0761 0.285152 14.0122 0.300396 13.9697 0.341574C13.9015 0.406933 13.8346 0.468613 13.7693 0.52854L13.7233 0.57077C13.5562 0.723917 13.3984 0.868477 13.2556 1.03196C11.868 2.62424 11.0587 4.30605 10.7815 6.1736C10.6552 7.01766 10.7076 7.73626 10.9417 8.36987C11.0192 8.57979 11.1402 8.76729 11.2606 8.95337C11.3157 9.03836 11.3708 9.12369 11.4213 9.21131C11.4585 9.27421 11.4616 9.29051 11.4614 9.28753C11.4385 9.53723 11.4056 9.81548 11.3612 10.1495C11.3593 10.1537 11.3531 10.1635 11.3333 10.1901L11.3172 10.2127C10.5584 11.2856 9.8583 12.4167 9.22831 13.5874C9.47603 12.713 9.67328 11.6063 9.65932 10.3203C9.64244 8.7778 9.29325 7.40211 8.59142 6.11402C8.56369 6.06391 8.51339 6.03132 8.44293 6.02641C8.39176 6.02641 8.34249 6.05217 8.31028 6.09615C8.28926 6.12594 8.2679 6.15398 8.24757 6.18061C8.20227 6.24019 8.15989 6.29661 8.12199 6.35689C7.56315 7.24826 7.2634 8.2311 7.06443 8.98789C6.70076 10.3759 6.53366 11.5348 6.53849 12.6354C6.54124 13.5709 6.70886 14.29 7.06615 14.8986C7.17726 15.088 7.31715 15.2538 7.45772 15.4206C7.53231 15.5091 7.60897 15.6 7.67839 15.6932C7.72697 15.7581 7.7504 15.8241 7.75178 15.8609C7.76091 16.0828 7.75609 16.3083 7.75144 16.5263L7.74816 16.677C7.74765 16.7029 7.74179 16.7327 7.733 16.7555C7.28441 17.861 6.89009 19.0099 6.55382 20.1899C6.60326 19.7881 6.63117 19.3991 6.63823 19.0195C6.67889 16.8653 6.02926 14.9415 4.70691 13.3009L4.43128 12.9594C4.39941 12.9192 4.35221 12.8965 4.30191 12.8965L4.27434 12.8989C4.21543 12.9089 4.16581 12.9504 4.14531 13.007C4.12016 13.0752 4.09553 13.1395 4.07158 13.2017C4.02542 13.3219 3.98183 13.4358 3.94497 13.5516C3.66124 14.4556 3.52204 15.4432 3.49379 16.7532L3.49327 16.7788C3.47208 17.7318 3.44297 19.0374 3.82782 20.2868C4.20664 21.5167 4.8747 22.1382 5.00425 22.2498L5.01803 22.2624C5.37067 22.5826 5.60031 22.8754 5.64785 23.0655C5.66697 23.1422 5.68644 23.2192 5.70918 23.2952C5.80978 23.6336 5.74691 23.956 5.67903 24.3042C5.64527 24.4799 5.61012 24.6615 5.59789 24.8477C5.54931 25.5931 5.48971 26.3512 5.432 27.0841L5.42683 27.1519C5.41201 27.3389 5.3972 27.5259 5.38256 27.7128C5.23544 26.0356 4.68934 24.5109 3.74978 23.1626C3.1744 22.3376 2.48842 21.6318 1.71045 21.0642C1.67686 21.0397 1.64155 21.0178 1.59434 20.9893C1.57143 20.9758 1.5449 20.9596 1.51269 20.9391C1.46411 20.9095 1.40175 20.9069 1.35162 20.9318C1.30028 20.9572 1.26497 21.0089 1.25911 21.0674C1.2486 21.1734 1.23637 21.2761 1.22345 21.3826C1.19744 21.6008 1.1728 21.8069 1.17177 22.0185C1.16023 24.2127 1.61657 26.2688 2.52856 28.129C2.78266 28.648 3.11841 29.0969 3.52687 29.4639C3.93187 29.8257 4.36892 30.0391 4.86213 30.1159C4.87298 30.1178 4.89882 30.1337 4.90278 30.1369C4.92949 30.1914 4.95722 30.2461 4.98496 30.3009C5.0835 30.4945 5.18531 30.6948 5.23595 30.8956C5.27816 31.0654 5.27816 31.251 5.27816 31.4476C5.27816 31.5196 5.27816 31.5921 5.2804 31.6633C5.32777 33.363 5.38996 33.9549 5.65733 35.4736C5.49419 35.022 5.28936 34.5692 5.02492 34.1336C3.9541 32.3707 2.59368 31.1741 0.865988 30.4758C0.75608 30.4307 0.645828 30.3983 0.518003 30.3605L0.492508 30.3528C0.440654 30.3374 0.3857 30.3209 0.326956 30.3027C0.273897 30.285 0.213431 30.297 0.170191 30.3335C0.127123 30.3698 0.104556 30.4253 0.110241 30.4831C0.122989 30.6037 0.131775 30.7209 0.139871 30.8353C0.157615 31.0863 0.174325 31.3232 0.234103 31.5576C0.791568 33.7478 1.71424 35.4921 3.05468 36.8906C3.62782 37.4885 4.23179 37.8312 4.90106 37.9386C5.06989 37.9654 5.27627 37.9688 5.62563 37.9467L5.72623 37.9406C5.74157 37.9397 5.755 37.9388 5.76723 37.9388C5.7948 37.9388 5.79704 37.9388 5.81616 37.9675L6.28422 38.6213C6.29025 38.6299 6.29903 38.6609 6.30506 38.6823L6.31195 38.7058C6.79775 40.3809 7.40052 41.9944 8.11131 43.5257C7.7914 43.0766 7.44083 42.6666 7.05013 42.2809C5.25335 40.5076 2.18144 40.4563 1.83707 40.4563L1.79418 40.4566L1.76713 40.4617C1.68272 40.4922 1.63707 40.584 1.66308 40.6704C1.68703 40.7519 1.70942 40.8342 1.73509 40.9309C1.78419 41.1127 1.83518 41.3003 1.90667 41.4819C2.24707 42.3471 2.79885 43.1794 3.64349 44.1022C4.22387 44.7347 4.87815 45.3762 5.72899 45.7819C6.6608 46.227 7.50216 46.3356 8.33888 46.1176C8.48117 46.0796 8.64483 46.0314 8.78557 45.9385C8.88583 45.8732 8.91322 45.8753 9.01176 45.9499C9.12856 46.0382 9.25277 46.1124 9.37336 46.1842C9.44003 46.224 9.50721 46.2641 9.56992 46.3044C9.57991 46.313 9.60127 46.3486 9.60919 46.3617C10.3599 47.6072 11.187 48.7647 12.0801 49.8207C11.597 49.4632 11.1011 49.2046 10.5742 49.0323C8.96439 48.5047 7.27701 48.5718 5.60582 49.2291C5.35637 49.3274 5.08298 49.4763 5.06472 49.4869C5.02647 49.5124 5.00012 49.5538 4.99185 49.6013C4.98461 49.6479 4.9965 49.6955 5.02441 49.732C5.0766 49.801 5.12708 49.8704 5.17704 49.9393L5.18806 49.9544C5.3009 50.1107 5.42872 50.2875 5.57205 50.4441C6.21755 51.148 7.01361 51.6199 7.77779 52.025C8.82864 52.5796 9.90326 52.8783 10.972 52.9134C11.0223 52.9151 11.0726 52.9162 11.1228 52.9162C12.1059 52.9162 12.8734 52.5866 13.4649 51.9125C13.4722 51.9072 13.4978 51.8973 13.512 51.8971C13.738 51.9135 13.9528 51.947 14.1134 51.9742C14.1387 51.9787 14.1699 51.9942 14.1893 52.012C15.1776 52.902 16.2244 53.6831 17.3177 54.348C17.152 54.298 16.9813 54.2546 16.8066 54.2197C15.6381 53.9912 14.4457 54.1345 13.1362 54.6637C12.2528 55.0219 11.4313 55.5481 10.6246 56.2723C10.5581 56.3317 10.5488 56.4338 10.6035 56.5046C10.889 56.8742 11.2604 57.0811 11.5862 57.2346C12.3807 57.6101 13.2775 57.8505 14.3289 57.97C14.332 57.9702 14.6698 58 15.1435 58C15.4855 58 15.8037 57.9844 16.0888 57.9537C16.3613 57.9247 16.6331 57.8772 16.8969 57.8127C18.1083 57.5127 18.9292 56.8959 19.3995 55.9383C19.4079 55.9301 19.4441 55.9087 19.4899 55.8973C19.7085 55.8421 19.9052 55.8032 20.0923 55.7778C20.1364 55.7706 20.1914 55.7827 20.2606 55.8111C21.0972 56.1389 21.9825 56.4121 22.8902 56.6227C22.9029 56.6259 22.9162 56.6275 22.9294 56.6275C22.9904 56.6275 23.0466 56.5933 23.0762 56.5376C23.1629 56.3736 23.2685 56.2162 23.3899 56.0699C23.428 56.0238 23.4394 55.9625 23.4206 55.9057C23.4027 55.8507 23.3572 55.809 23.299 55.7951Z" fill="white"/>
<path fill-rule="evenodd" clip-rule="evenodd" d="M59.3062 12H28V43H59.3062V12ZM37.1836 19.5391L42.6087 29.5623L42.6137 36.074H44.7003V29.667L50.1254 19.5391H47.8297L44.6991 25.8426L44.6942 25.8498C44.4868 26.1579 44.2802 26.4647 44.1765 26.7728C44.117 27.0106 44.0224 27.1801 43.9329 27.3405C43.867 27.4584 43.8039 27.5715 43.7596 27.7031C43.7073 27.6518 43.6812 27.5744 43.655 27.4968C43.6289 27.4194 43.6028 27.342 43.5506 27.2903C43.4983 27.1868 43.4722 27.1092 43.4461 27.0316C43.42 26.9539 43.3938 26.8763 43.3416 26.7728V26.6693L43.237 26.5658C43.197 26.487 43.1723 26.4231 43.1512 26.3686C43.1172 26.2807 43.0925 26.2169 43.028 26.1531L43.028 26.153C42.9235 26.0496 42.819 25.9461 42.819 25.8426L39.6883 19.5391H37.1836Z" fill="white"/>
<path d="M71.8365 22.8927C73.1555 22.8927 74.3002 23.2414 75.1812 23.94L74.3014 24.9873C73.5088 24.4649 72.7175 24.1162 71.7507 24.1162C70.2538 24.1162 69.1103 24.901 68.4944 26.3833C68.1422 27.2544 67.9668 28.3879 67.9668 29.8702C67.9668 31.0037 68.141 31.9623 68.4073 32.6597C69.1115 34.3156 70.2563 35.0992 72.0157 35.0992C72.9837 35.0992 73.8647 34.838 74.6561 34.2281L75.5358 35.3617C74.391 36.0591 73.1716 36.409 71.8402 36.409C70.2563 36.409 68.9361 35.7991 67.8797 34.4918C66.822 33.2597 66.3828 31.6161 66.3828 29.6126C66.3828 27.6092 66.9104 26.0395 67.9668 24.7335C68.9348 23.5999 70.2563 22.9025 71.8402 22.9025L71.8365 22.8927ZM76.8535 31.5212C76.8535 29.9527 77.2056 28.7317 77.9982 27.8618C78.7908 26.9919 79.7589 26.4671 80.9907 26.4671C82.3993 26.4671 83.5415 26.9895 84.3354 28.123C84.9513 28.9941 85.2151 30.2151 85.2151 31.6961C85.2151 33.4396 84.6875 34.8343 83.7182 35.7054C82.9894 36.3395 82.0478 36.6813 81.0778 36.664C79.7589 36.664 78.7883 36.2279 77.997 35.2693C77.2044 34.3982 76.8535 33.0909 76.8535 31.5212ZM83.0152 28.9954C82.5747 28.2105 81.9575 27.7632 80.9907 27.7632C80.0239 27.7632 79.4067 28.1119 78.9663 28.8105C78.6141 29.333 78.5258 30.2053 78.5258 31.3364C78.5258 32.8186 78.7 33.8622 79.1417 34.4746C79.5834 35.0869 80.1994 35.4332 81.0778 35.4332C82.1355 35.4332 82.8385 34.9107 83.1906 33.9509C83.3648 33.4285 83.4544 32.7188 83.4544 31.8588C83.5415 30.5527 83.3673 29.5917 83.0139 28.983L83.0152 28.9954ZM88.0296 29.1678C88.0296 28.2093 87.9425 27.4244 87.6775 26.8268L89.1744 26.4781C89.4382 26.9143 89.5265 27.4367 89.5265 27.8729V27.9591C89.8787 27.6105 90.2308 27.2618 90.7708 27.0006C91.3867 26.6519 91.9155 26.4781 92.4431 26.4781C93.2357 26.4781 93.94 26.8268 94.3792 27.4367C94.4663 27.6092 94.643 27.8729 94.7314 28.0466C95.789 26.9993 96.7558 26.4781 97.8122 26.4781C98.5165 26.4781 99.1312 26.7393 99.5729 27.1755C100.013 27.6979 100.277 28.3091 100.277 29.0064V36.239H98.6695V29.0927C98.6695 28.1341 98.229 27.6979 97.4252 27.6979C96.9848 27.6979 96.4572 27.8704 96.0167 28.2204C95.8425 28.3928 95.4891 28.6565 95.0487 29.0052L94.8745 29.1777V36.2377H93.2021V29.4291C93.2021 28.8192 93.115 28.3818 92.9383 28.1969C92.6746 27.9357 92.4108 27.8483 91.9703 27.8483C91.266 27.8483 90.4734 28.2844 89.5066 29.1543V36.3006H88.0309L88.0296 29.1678ZM102.995 22.544L104.579 22.1953C104.753 22.8927 104.842 23.6775 104.842 24.6349V27.8593C105.722 26.9882 106.691 26.5533 107.659 26.5533C108.804 26.5533 109.772 26.9895 110.388 27.8593C111.092 28.7304 111.446 29.9515 111.446 31.4325C111.446 33.001 111.094 34.222 110.388 35.1806C109.683 36.1391 108.716 36.5753 107.571 36.5753C107.051 36.585 106.536 36.4651 106.074 36.2266C105.547 35.9654 105.195 35.7042 104.93 35.3555L104.666 36.4028H103.169C103.343 35.9667 103.433 35.1707 103.433 33.9632V24.8086C103.346 23.7613 103.258 22.9777 102.992 22.5415L102.995 22.544ZM105.545 28.4581C105.282 28.6306 105.018 28.8943 104.841 29.1555V34.1481C105.457 34.9329 106.25 35.2816 107.205 35.2816C107.998 35.2816 108.614 35.0204 108.966 34.4105C109.406 33.7131 109.67 32.7545 109.67 31.3598C109.67 30.1277 109.496 29.2676 109.054 28.7452C108.702 28.2228 108.086 27.9604 107.205 27.9604C106.678 27.8741 106.061 28.0466 105.533 28.4828L105.545 28.4581ZM113.733 23.7761C113.733 23.4274 113.82 23.1662 114.085 22.905C114.35 22.6438 114.613 22.5563 114.965 22.5563C115.317 22.5563 115.581 22.6426 115.844 22.905C116.108 23.1675 116.197 23.4274 116.197 23.7761C116.197 24.1248 116.109 24.386 115.844 24.6472C115.579 24.9084 115.317 24.9959 114.965 24.9959C114.613 24.9959 114.349 24.9097 114.085 24.6472C113.821 24.3848 113.733 24.1248 113.733 23.7761ZM114.099 36.3166V26.7307L115.683 26.4695V36.319L114.099 36.3166ZM119.103 29.1678C119.103 28.4705 119.103 28.0343 119.016 27.8618C119.016 27.6006 118.842 27.3394 118.664 26.9032L120.161 26.4671C120.402 26.9242 120.523 27.4338 120.513 27.9493C121.481 26.9907 122.537 26.4671 123.594 26.4671C124.121 26.4671 124.562 26.5533 125.002 26.8157C125.443 27.0782 125.795 27.4256 125.97 27.863C126.145 28.2117 126.234 28.5604 126.234 28.9966V36.3178H124.737V29.7814C124.737 28.9966 124.65 28.4754 124.385 28.213C124.248 28.0734 124.084 27.9627 123.902 27.8878C123.721 27.8128 123.525 27.775 123.329 27.7768C122.977 27.7768 122.449 27.9493 121.92 28.213C121.431 28.4604 120.985 28.7841 120.6 29.1715V36.3178H119.103V29.1678ZM129.754 28.8192L128.962 27.7719C130.281 26.9008 131.602 26.4658 133.011 26.4658C134.419 26.4658 135.3 26.9882 135.739 27.9481C135.913 28.2967 135.913 28.8192 135.913 29.604V30.1264L135.826 33.2646V33.7008C135.826 34.2232 135.826 34.5719 135.913 34.8343C136.001 35.183 136.266 35.4442 136.618 35.6192L135.825 36.6665C135.121 36.4053 134.68 35.9691 134.506 35.2717C133.626 36.1428 132.657 36.5778 131.689 36.5778C130.721 36.5778 129.928 36.3166 129.325 35.7929C128.797 35.3568 128.532 34.6594 128.532 33.7883C128.509 33.2894 128.619 32.7932 128.851 32.3497C129.082 31.9061 129.428 31.5307 129.853 31.2612C130.732 30.6513 132.052 30.3901 133.638 30.3901H134.342V29.6927C134.342 28.9079 134.255 28.3867 133.99 28.2105C133.823 28.0319 133.618 27.8924 133.39 27.802C133.162 27.7117 132.916 27.6727 132.671 27.6881C132.143 27.6881 131.526 27.8606 130.822 28.1242L129.764 28.8216L129.754 28.8192ZM134.42 33.962L134.507 31.4362H133.715C132.306 31.4362 131.425 31.6974 130.898 32.221C130.546 32.5697 130.37 33.0921 130.37 33.7895C130.37 34.9231 130.898 35.5329 132.043 35.5329C132.542 35.5046 133.025 35.3442 133.441 35.0683C133.857 34.7925 134.19 34.4113 134.407 33.9645L134.42 33.962ZM140.933 26.727H143.397L142.956 27.9591H140.932V34.1481C140.932 34.6705 141.019 35.0192 141.195 35.2816C141.37 35.4541 141.723 35.6303 142.164 35.6303C142.516 35.6303 142.868 35.544 143.132 35.4578L143.306 36.4164C142.778 36.6776 142.248 36.7651 141.633 36.7651C140.137 36.7651 139.434 36.0677 139.434 34.5867V27.9628H138.113V26.7307H139.358V26.5582C139.358 26.3857 139.445 25.6871 139.532 24.5536V24.2911L141.116 23.9425C140.942 24.9897 140.942 25.9471 140.942 26.732L140.933 26.727ZM144.982 31.52C144.982 29.9515 145.334 28.7304 146.127 27.8606C146.831 26.9895 147.887 26.4658 149.119 26.4658C150.528 26.4658 151.67 26.9882 152.464 28.1218C153.08 28.9929 153.343 30.2139 153.343 31.6949C153.343 33.4384 152.816 34.8331 151.847 35.7042C151.118 36.3382 150.176 36.6801 149.206 36.6628C147.887 36.6628 146.917 36.2266 146.125 35.268C145.421 34.3969 144.982 33.0897 144.982 31.52ZM151.232 28.9941C150.791 28.2093 150.174 27.762 149.207 27.762C148.241 27.762 147.623 28.1107 147.183 28.8093C146.831 29.3317 146.742 30.2041 146.742 31.3351C146.742 32.8174 146.917 33.861 147.358 34.4733C147.8 35.0857 148.416 35.4319 149.295 35.4319C150.352 35.4319 151.055 34.9095 151.407 33.9497C151.582 33.4273 151.671 32.7176 151.671 31.8576C151.671 30.5515 151.497 29.5905 151.231 28.9818L151.232 28.9941ZM156.246 28.9917C156.246 28.1206 156.159 27.4232 155.894 26.8995L157.391 26.4634C157.632 26.9205 157.753 27.4301 157.743 27.9456V28.1181C158.536 27.0708 159.416 26.5496 160.472 26.5496C160.646 26.5496 160.824 26.5496 161 26.6359L160.384 28.2918C160.209 28.2056 160.031 28.2056 159.943 28.2056C159.591 28.2056 159.151 28.2918 158.798 28.5543C158.446 28.8167 158.094 29.0767 157.919 29.4254C157.803 29.7622 157.744 30.1156 157.743 30.4714V36.4841H156.246V28.9917Z" fill="white"/>
</svg>
