<svg width="71" height="71" viewBox="0 0 71 71" fill="none" xmlns="http://www.w3.org/2000/svg">
<circle cx="35.5" cy="35.5" r="35.5" fill="#272A40"/>
<path d="M35.1578 42.3549C35.9045 42.3549 36.6205 42.0583 37.1485 41.5304C37.6765 41.0024 37.9731 40.2863 37.9731 39.5397V25.5533C37.9842 25.1768 37.9196 24.8019 37.7831 24.4508C37.6467 24.0997 37.4412 23.7796 37.1788 23.5093C36.9164 23.2391 36.6024 23.0243 36.2555 22.8776C35.9085 22.7309 35.5357 22.6553 35.159 22.6553C34.7824 22.6553 34.4095 22.7309 34.0626 22.8776C33.7156 23.0243 33.4017 23.2391 33.1393 23.5093C32.8769 23.7796 32.6714 24.0997 32.5349 24.4508C32.3985 24.8019 32.3339 25.1768 32.345 25.5533V39.5397C32.345 40.2859 32.6412 41.0016 33.1687 41.5295C33.6961 42.0574 34.4116 42.3543 35.1578 42.3549Z" fill="#00FF72"/>
<path d="M46.0021 17C45.2555 17 44.5394 17.2966 44.0114 17.8246C43.4835 18.3525 43.1869 19.0686 43.1869 19.8153V39.3421C43.1869 41.4718 42.3409 43.5142 40.835 45.02C39.3291 46.5259 37.2867 47.3719 35.1571 47.3719C33.0275 47.3719 30.9851 46.5259 29.4792 45.02C27.9734 43.5142 27.1274 41.4718 27.1274 39.3421V31.9475C27.1385 31.571 27.0739 31.1961 26.9374 30.845C26.801 30.4939 26.5955 30.1737 26.3331 29.9035C26.0707 29.6333 25.7567 29.4184 25.4098 29.2717C25.0628 29.125 24.69 29.0495 24.3133 29.0495C23.9366 29.0495 23.5638 29.125 23.2169 29.2717C22.8699 29.4184 22.556 29.6333 22.2936 29.9035C22.0312 30.1737 21.8257 30.4939 21.6892 30.845C21.5528 31.1961 21.4882 31.571 21.4993 31.9475V39.3421C21.5472 42.9332 23.0074 46.3609 25.5637 48.8834C28.1201 51.4058 31.567 52.8201 35.1583 52.8201C38.7497 52.8201 42.1966 51.4058 44.7529 48.8834C47.3093 46.3609 48.7695 42.9332 48.8174 39.3421V19.8153C48.8174 19.0686 48.5208 18.3525 47.9928 17.8246C47.4649 17.2966 46.7488 17 46.0021 17V17Z" fill="#00FF72"/>
</svg>
