<svg width="819" height="102" viewBox="0 0 819 102" fill="none" xmlns="http://www.w3.org/2000/svg">
<path d="M0 100.352C0 73.0957 22.0957 51 49.3521 51H51.375C79.5415 51 102.375 73.8335 102.375 102H0L0 100.352Z" fill="#EDF4FE"/>
<path d="M23.2034 84.5205V75.2733H26.4995C27.219 75.2733 27.815 75.4043 28.2876 75.6661C28.7602 75.928 29.1139 76.2862 29.3487 76.7408C29.5835 77.1923 29.7008 77.701 29.7008 78.2669C29.7008 78.8358 29.5819 79.3476 29.3441 79.8021C29.1094 80.2536 28.7542 80.6118 28.2785 80.8767C27.806 81.1386 27.2114 81.2695 26.495 81.2695H24.2284V80.0865H26.3686C26.8231 80.0865 27.1919 80.0083 27.4748 79.8518C27.7578 79.6922 27.9655 79.4755 28.0979 79.2016C28.2304 78.9276 28.2966 78.6161 28.2966 78.2669C28.2966 77.9177 28.2304 77.6077 28.0979 77.3368C27.9655 77.0659 27.7563 76.8536 27.4703 76.7001C27.1874 76.5466 26.8141 76.4698 26.3505 76.4698H24.5986V84.5205H23.2034ZM30.9721 84.5205V77.5851H32.277V78.6868H32.3492C32.4756 78.3136 32.6984 78.0201 33.0175 77.8064C33.3395 77.5896 33.7038 77.4813 34.1101 77.4813C34.1944 77.4813 34.2938 77.4843 34.4082 77.4903C34.5255 77.4963 34.6174 77.5038 34.6836 77.5129V78.8042C34.6294 78.7892 34.5331 78.7726 34.3946 78.7546C34.2561 78.7335 34.1177 78.7229 33.9792 78.7229C33.6601 78.7229 33.3757 78.7907 33.1258 78.9261C32.879 79.0586 32.6833 79.2437 32.5388 79.4815C32.3944 79.7163 32.3221 79.9842 32.3221 80.2852V84.5205H30.9721ZM38.2688 84.6605C37.6187 84.6605 37.0512 84.5115 36.5666 84.2135C36.082 83.9155 35.7057 83.4986 35.4378 82.9628C35.1699 82.4269 35.0359 81.8008 35.0359 81.0844C35.0359 80.365 35.1699 79.7359 35.4378 79.197C35.7057 78.6582 36.082 78.2398 36.5666 77.9418C37.0512 77.6438 37.6187 77.4948 38.2688 77.4948C38.919 77.4948 39.4865 77.6438 39.9711 77.9418C40.4557 78.2398 40.832 78.6582 41.0999 79.197C41.3678 79.7359 41.5018 80.365 41.5018 81.0844C41.5018 81.8008 41.3678 82.4269 41.0999 82.9628C40.832 83.4986 40.4557 83.9155 39.9711 84.2135C39.4865 84.5115 38.919 84.6605 38.2688 84.6605ZM38.2734 83.5272C38.6948 83.5272 39.044 83.4158 39.3209 83.193C39.5978 82.9703 39.8025 82.6738 39.935 82.3035C40.0704 81.9333 40.1382 81.5254 40.1382 81.0799C40.1382 80.6374 40.0704 80.231 39.935 79.8608C39.8025 79.4875 39.5978 79.188 39.3209 78.9623C39.044 78.7365 38.6948 78.6236 38.2734 78.6236C37.8489 78.6236 37.4967 78.7365 37.2168 78.9623C36.9399 79.188 36.7337 79.4875 36.5982 79.8608C36.4658 80.231 36.3995 80.6374 36.3995 81.0799C36.3995 81.5254 36.4658 81.9333 36.5982 82.3035C36.7337 82.6738 36.9399 82.9703 37.2168 83.193C37.4967 83.4158 37.8489 83.5272 38.2734 83.5272ZM45.9901 77.5851V78.6688H42.2018V77.5851H45.9901ZM43.2177 75.9235H44.5678V82.4841C44.5678 82.746 44.6069 82.9432 44.6852 83.0756C44.7634 83.2051 44.8643 83.2939 44.9877 83.342C45.1141 83.3872 45.2511 83.4098 45.3986 83.4098C45.5069 83.4098 45.6018 83.4022 45.683 83.3872C45.7643 83.3721 45.8275 83.3601 45.8727 83.3511L46.1165 84.4663C46.0382 84.4964 45.9269 84.5265 45.7824 84.5566C45.6379 84.5897 45.4573 84.6078 45.2405 84.6108C44.8853 84.6168 44.5542 84.5536 44.2472 84.4212C43.9402 84.2887 43.6918 84.084 43.5022 83.8071C43.3125 83.5302 43.2177 83.1825 43.2177 82.7641V75.9235ZM50.0743 84.6605C49.4241 84.6605 48.8567 84.5115 48.372 84.2135C47.8874 83.9155 47.5111 83.4986 47.2432 82.9628C46.9753 82.4269 46.8414 81.8008 46.8414 81.0844C46.8414 80.365 46.9753 79.7359 47.2432 79.197C47.5111 78.6582 47.8874 78.2398 48.372 77.9418C48.8567 77.6438 49.4241 77.4948 50.0743 77.4948C50.7245 77.4948 51.2919 77.6438 51.7765 77.9418C52.2612 78.2398 52.6374 78.6582 52.9053 79.197C53.1732 79.7359 53.3072 80.365 53.3072 81.0844C53.3072 81.8008 53.1732 82.4269 52.9053 82.9628C52.6374 83.4986 52.2612 83.9155 51.7765 84.2135C51.2919 84.5115 50.7245 84.6605 50.0743 84.6605ZM50.0788 83.5272C50.5002 83.5272 50.8494 83.4158 51.1263 83.193C51.4033 82.9703 51.6079 82.6738 51.7404 82.3035C51.8759 81.9333 51.9436 81.5254 51.9436 81.0799C51.9436 80.6374 51.8759 80.231 51.7404 79.8608C51.6079 79.4875 51.4033 79.188 51.1263 78.9623C50.8494 78.7365 50.5002 78.6236 50.0788 78.6236C49.6544 78.6236 49.3022 78.7365 49.0222 78.9623C48.7453 79.188 48.5391 79.4875 48.4036 79.8608C48.2712 80.231 48.205 80.6374 48.205 81.0799C48.205 81.5254 48.2712 81.9333 48.4036 82.3035C48.5391 82.6738 48.7453 82.9703 49.0222 83.193C49.3022 83.4158 49.6544 83.5272 50.0788 83.5272ZM57.7955 77.5851V78.6688H54.0072V77.5851H57.7955ZM55.0231 75.9235H56.3732V82.4841C56.3732 82.746 56.4123 82.9432 56.4906 83.0756C56.5689 83.2051 56.6697 83.2939 56.7931 83.342C56.9195 83.3872 57.0565 83.4098 57.204 83.4098C57.3124 83.4098 57.4072 83.4022 57.4885 83.3872C57.5697 83.3721 57.6329 83.3601 57.6781 83.3511L57.9219 84.4663C57.8437 84.4964 57.7323 84.5265 57.5878 84.5566C57.4433 84.5897 57.2627 84.6078 57.046 84.6108C56.6908 84.6168 56.3597 84.5536 56.0526 84.4212C55.7456 84.2887 55.4972 84.084 55.3076 83.8071C55.118 83.5302 55.0231 83.1825 55.0231 82.7641V75.9235ZM59.8862 87.1213C59.6845 87.1213 59.5009 87.1047 59.3354 87.0716C59.1698 87.0415 59.0464 87.0084 58.9651 86.9723L59.2902 85.866C59.537 85.9323 59.7568 85.9609 59.9494 85.9518C60.1421 85.9428 60.3122 85.8706 60.4597 85.7351C60.6102 85.5996 60.7426 85.3784 60.857 85.0714L61.0241 84.6108L58.4865 77.5851H59.9314L61.6878 82.9673H61.76L63.5165 77.5851H64.9659L62.1077 85.4461C61.9753 85.8073 61.8067 86.1129 61.602 86.3627C61.3973 86.6156 61.1535 86.8052 60.8705 86.9316C60.5876 87.0581 60.2595 87.1213 59.8862 87.1213ZM65.9786 87.1213V77.5851H67.297V78.7094H67.4099C67.4882 78.5649 67.6011 78.3979 67.7486 78.2082C67.896 78.0186 68.1007 77.853 68.3626 77.7115C68.6245 77.5671 68.9707 77.4948 69.4011 77.4948C69.961 77.4948 70.4607 77.6363 70.9002 77.9192C71.3397 78.2022 71.6843 78.6101 71.9342 79.1429C72.187 79.6757 72.3135 80.3168 72.3135 81.0664C72.3135 81.8159 72.1885 82.4586 71.9387 82.9944C71.6888 83.5272 71.3457 83.938 70.9092 84.227C70.4727 84.513 69.9746 84.656 69.4147 84.656C68.9932 84.656 68.6486 84.5852 68.3807 84.4437C68.1158 84.3023 67.9081 84.1367 67.7576 83.9471C67.6071 83.7574 67.4912 83.5889 67.4099 83.4414H67.3286V87.1213H65.9786ZM67.3015 81.0528C67.3015 81.5405 67.3723 81.9679 67.5138 82.3351C67.6552 82.7024 67.8599 82.9898 68.1278 83.1975C68.3957 83.4022 68.7238 83.5046 69.1122 83.5046C69.5155 83.5046 69.8526 83.3977 70.1236 83.184C70.3945 82.9673 70.5992 82.6738 70.7376 82.3035C70.8791 81.9333 70.9499 81.5164 70.9499 81.0528C70.9499 80.5953 70.8806 80.1844 70.7421 79.8202C70.6067 79.4559 70.402 79.1685 70.1281 78.9577C69.8572 78.747 69.5185 78.6417 69.1122 78.6417C68.7208 78.6417 68.3897 78.7425 68.1188 78.9442C67.8509 79.1459 67.6477 79.4273 67.5092 79.7885C67.3708 80.1498 67.3015 80.5712 67.3015 81.0528ZM76.5591 84.6605C75.8758 84.6605 75.2873 84.5145 74.7936 84.2225C74.303 83.9275 73.9237 83.5136 73.6558 82.9808C73.3909 82.445 73.2584 81.8174 73.2584 81.098C73.2584 80.3876 73.3909 79.7615 73.6558 79.2196C73.9237 78.6778 74.2969 78.2549 74.7756 77.9508C75.2572 77.6468 75.8201 77.4948 76.4643 77.4948C76.8556 77.4948 77.2349 77.5595 77.6021 77.689C77.9693 77.8184 78.2989 78.0216 78.5909 78.2985C78.8829 78.5755 79.1132 78.9352 79.2818 79.3777C79.4503 79.8171 79.5346 80.3514 79.5346 80.9806V81.4592H74.0215V80.4478H78.2116C78.2116 80.0926 78.1394 79.778 77.9949 79.5041C77.8504 79.2272 77.6472 79.0089 77.3854 78.8494C77.1265 78.6898 76.8225 78.6101 76.4733 78.6101C76.094 78.6101 75.7629 78.7034 75.4799 78.89C75.2 79.0736 74.9833 79.3144 74.8297 79.6125C74.6792 79.9074 74.604 80.228 74.604 80.5742V81.3644C74.604 81.8279 74.6853 82.2223 74.8478 82.5474C75.0134 82.8724 75.2436 83.1208 75.5386 83.2924C75.8336 83.4609 76.1783 83.5452 76.5726 83.5452C76.8285 83.5452 77.0618 83.5091 77.2725 83.4369C77.4832 83.3616 77.6653 83.2502 77.8188 83.1027C77.9723 82.9552 78.0897 82.7731 78.171 82.5564L79.4488 82.7867C79.3465 83.1629 79.1629 83.4925 78.898 83.7755C78.6361 84.0554 78.3065 84.2737 77.9091 84.4302C77.5148 84.5837 77.0648 84.6605 76.5591 84.6605Z" fill="#272A40"/>
<path d="M358.312 100.352C358.312 73.0957 380.408 51 407.665 51H409.688C437.854 51 460.688 73.8335 460.688 102H358.312V100.352Z" fill="#272A40"/>
<path d="M377.297 84.5205H375.816L379.144 75.2733H380.756L384.083 84.5205H382.602L379.988 76.953H379.916L377.297 84.5205ZM377.545 80.8993H382.35V82.0733H377.545V80.8993ZM385.054 87.1213V77.5851H386.373V78.7094H386.486C386.564 78.5649 386.677 78.3979 386.824 78.2082C386.972 78.0186 387.177 77.853 387.438 77.7115C387.7 77.5671 388.047 77.4948 388.477 77.4948C389.037 77.4948 389.537 77.6363 389.976 77.9192C390.415 78.2022 390.76 78.6101 391.01 79.1429C391.263 79.6757 391.389 80.3168 391.389 81.0664C391.389 81.8159 391.264 82.4586 391.015 82.9944C390.765 83.5272 390.422 83.938 389.985 84.227C389.549 84.513 389.05 84.656 388.49 84.656C388.069 84.656 387.724 84.5852 387.457 84.4437C387.192 84.3023 386.984 84.1367 386.833 83.9471C386.683 83.7574 386.567 83.5889 386.486 83.4414H386.404V87.1213H385.054ZM386.377 81.0528C386.377 81.5405 386.448 81.9679 386.59 82.3351C386.731 82.7024 386.936 82.9898 387.204 83.1975C387.472 83.4022 387.8 83.5046 388.188 83.5046C388.591 83.5046 388.928 83.3977 389.199 83.184C389.47 82.9673 389.675 82.6738 389.813 82.3035C389.955 81.9333 390.026 81.5164 390.026 81.0528C390.026 80.5953 389.956 80.1844 389.818 79.8202C389.683 79.4559 389.478 79.1685 389.204 78.9577C388.933 78.747 388.594 78.6417 388.188 78.6417C387.797 78.6417 387.466 78.7425 387.195 78.9442C386.927 79.1459 386.724 79.4273 386.585 79.7885C386.447 80.1498 386.377 80.5712 386.377 81.0528ZM392.646 87.1213V77.5851H393.964V78.7094H394.077C394.155 78.5649 394.268 78.3979 394.416 78.2082C394.563 78.0186 394.768 77.853 395.03 77.7115C395.292 77.5671 395.638 77.4948 396.068 77.4948C396.628 77.4948 397.128 77.6363 397.567 77.9192C398.007 78.2022 398.352 78.6101 398.601 79.1429C398.854 79.6757 398.981 80.3168 398.981 81.0664C398.981 81.8159 398.856 82.4586 398.606 82.9944C398.356 83.5272 398.013 83.938 397.576 84.227C397.14 84.513 396.642 84.656 396.082 84.656C395.66 84.656 395.316 84.5852 395.048 84.4437C394.783 84.3023 394.575 84.1367 394.425 83.9471C394.274 83.7574 394.158 83.5889 394.077 83.4414H393.996V87.1213H392.646ZM393.969 81.0528C393.969 81.5405 394.04 81.9679 394.181 82.3351C394.322 82.7024 394.527 82.9898 394.795 83.1975C395.063 83.4022 395.391 83.5046 395.779 83.5046C396.183 83.5046 396.52 83.3977 396.791 83.184C397.062 82.9673 397.266 82.6738 397.405 82.3035C397.546 81.9333 397.617 81.5164 397.617 81.0528C397.617 80.5953 397.548 80.1844 397.409 79.8202C397.274 79.4559 397.069 79.1685 396.795 78.9577C396.524 78.747 396.186 78.6417 395.779 78.6417C395.388 78.6417 395.057 78.7425 394.786 78.9442C394.518 79.1459 394.315 79.4273 394.176 79.7885C394.038 80.1498 393.969 80.5712 393.969 81.0528ZM406.448 84.5205H403.455V75.2733H406.543C407.449 75.2733 408.227 75.4584 408.877 75.8287C409.527 76.1959 410.026 76.7242 410.372 77.4135C410.721 78.0998 410.896 78.9231 410.896 79.8834C410.896 80.8466 410.72 81.6744 410.367 82.3667C410.018 83.0591 409.512 83.5919 408.85 83.9651C408.188 84.3354 407.387 84.5205 406.448 84.5205ZM404.85 83.3014H406.371C407.076 83.3014 407.661 83.1689 408.128 82.9041C408.594 82.6362 408.944 82.2493 409.175 81.7436C409.407 81.2349 409.523 80.6148 409.523 79.8834C409.523 79.1579 409.407 78.5423 409.175 78.0366C408.947 77.5309 408.605 77.1471 408.15 76.8853C407.696 76.6234 407.131 76.4924 406.457 76.4924H404.85V83.3014ZM415.255 84.6605C414.572 84.6605 413.983 84.5145 413.49 84.2225C412.999 83.9275 412.62 83.5136 412.352 82.9808C412.087 82.445 411.955 81.8174 411.955 81.098C411.955 80.3876 412.087 79.7615 412.352 79.2196C412.62 78.6778 412.993 78.2549 413.472 77.9508C413.953 77.6468 414.516 77.4948 415.16 77.4948C415.552 77.4948 415.931 77.5595 416.298 77.689C416.665 77.8184 416.995 78.0216 417.287 78.2985C417.579 78.5755 417.809 78.9352 417.978 79.3777C418.146 79.8171 418.231 80.3514 418.231 80.9806V81.4592H412.718V80.4478H416.908C416.908 80.0926 416.836 79.778 416.691 79.5041C416.547 79.2272 416.343 79.0089 416.082 78.8494C415.823 78.6898 415.519 78.6101 415.169 78.6101C414.79 78.6101 414.459 78.7034 414.176 78.89C413.896 79.0736 413.679 79.3144 413.526 79.6125C413.375 79.9074 413.3 80.228 413.3 80.5742V81.3644C413.3 81.8279 413.381 82.2223 413.544 82.5474C413.71 82.8724 413.94 83.1208 414.235 83.2924C414.53 83.4609 414.874 83.5452 415.269 83.5452C415.525 83.5452 415.758 83.5091 415.969 83.4369C416.179 83.3616 416.361 83.2502 416.515 83.1027C416.669 82.9552 416.786 82.7731 416.867 82.5564L418.145 82.7867C418.043 83.1629 417.859 83.4925 417.594 83.7755C417.332 84.0554 417.003 84.2737 416.605 84.4302C416.211 84.5837 415.761 84.6605 415.255 84.6605ZM424.67 79.2783L423.446 79.4951C423.395 79.3385 423.314 79.1895 423.202 79.048C423.094 78.9066 422.946 78.7907 422.76 78.7004C422.573 78.6101 422.34 78.5649 422.06 78.5649C421.678 78.5649 421.359 78.6507 421.103 78.8223C420.847 78.9909 420.719 79.2091 420.719 79.477C420.719 79.7088 420.805 79.8954 420.976 80.0369C421.148 80.1784 421.425 80.2943 421.807 80.3846L422.909 80.6374C423.547 80.7849 424.022 81.0122 424.336 81.3192C424.649 81.6262 424.805 82.0251 424.805 82.5157C424.805 82.9311 424.685 83.3014 424.444 83.6265C424.206 83.9486 423.873 84.2014 423.446 84.3851C423.022 84.5687 422.529 84.6605 421.97 84.6605C421.193 84.6605 420.559 84.4949 420.069 84.1638C419.578 83.8297 419.277 83.3556 419.166 82.7415L420.471 82.5428C420.552 82.883 420.719 83.1404 420.972 83.3149C421.225 83.4865 421.554 83.5723 421.961 83.5723C422.403 83.5723 422.757 83.4805 423.022 83.2969C423.287 83.1103 423.419 82.883 423.419 82.6151C423.419 82.3983 423.338 82.2162 423.175 82.0687C423.016 81.9212 422.77 81.8099 422.439 81.7346L421.265 81.4772C420.618 81.3297 420.139 81.095 419.829 80.7729C419.522 80.4508 419.369 80.0429 419.369 79.5492C419.369 79.1399 419.483 78.7816 419.712 78.4746C419.941 78.1676 420.257 77.9283 420.66 77.7567C421.064 77.5821 421.526 77.4948 422.046 77.4948C422.796 77.4948 423.386 77.6574 423.816 77.9825C424.247 78.3045 424.531 78.7365 424.67 79.2783ZM426.033 84.5205V77.5851H427.384V84.5205H426.033ZM426.715 76.515C426.48 76.515 426.279 76.4367 426.11 76.2802C425.945 76.1207 425.862 75.931 425.862 75.7113C425.862 75.4885 425.945 75.2989 426.11 75.1424C426.279 74.9828 426.48 74.9031 426.715 74.9031C426.95 74.9031 427.15 74.9828 427.316 75.1424C427.484 75.2989 427.569 75.4885 427.569 75.7113C427.569 75.931 427.484 76.1207 427.316 76.2802C427.15 76.4367 426.95 76.515 426.715 76.515ZM431.852 87.2658C431.301 87.2658 430.827 87.1935 430.429 87.049C430.035 86.9046 429.713 86.7134 429.463 86.4756C429.213 86.2378 429.026 85.9774 428.903 85.6945L430.063 85.2159C430.145 85.3483 430.253 85.4883 430.389 85.6358C430.527 85.7863 430.714 85.9142 430.948 86.0196C431.186 86.1249 431.492 86.1776 431.865 86.1776C432.377 86.1776 432.8 86.0527 433.134 85.8028C433.468 85.556 433.635 85.1617 433.635 84.6198V83.2562H433.549C433.468 83.4037 433.351 83.5678 433.197 83.7484C433.047 83.929 432.839 84.0855 432.574 84.218C432.309 84.3504 431.964 84.4167 431.54 84.4167C430.992 84.4167 430.498 84.2887 430.059 84.0329C429.622 83.774 429.276 83.3932 429.02 82.8905C428.768 82.3848 428.641 81.7632 428.641 81.0257C428.641 80.2882 428.766 79.6561 429.016 79.1293C429.269 78.6025 429.615 78.1992 430.054 77.9192C430.494 77.6363 430.992 77.4948 431.549 77.4948C431.979 77.4948 432.327 77.5671 432.592 77.7115C432.857 77.853 433.063 78.0186 433.211 78.2082C433.361 78.3979 433.477 78.5649 433.558 78.7094H433.658V77.5851H434.981V84.674C434.981 85.27 434.842 85.7592 434.565 86.1415C434.288 86.5238 433.913 86.8067 433.441 86.9903C432.971 87.174 432.441 87.2658 431.852 87.2658ZM431.838 83.2969C432.226 83.2969 432.554 83.2066 432.822 83.026C433.093 82.8423 433.298 82.5805 433.436 82.2403C433.578 81.8972 433.649 81.4863 433.649 81.0077C433.649 80.5411 433.579 80.1302 433.441 79.775C433.302 79.4198 433.099 79.1429 432.831 78.9442C432.563 78.7425 432.232 78.6417 431.838 78.6417C431.432 78.6417 431.093 78.747 430.822 78.9577C430.551 79.1654 430.346 79.4484 430.208 79.8066C430.072 80.1648 430.005 80.5652 430.005 81.0077C430.005 81.4622 430.074 81.861 430.212 82.2042C430.351 82.5474 430.556 82.8153 430.827 83.0079C431.1 83.2006 431.438 83.2969 431.838 83.2969ZM437.885 80.4026V84.5205H436.535V77.5851H437.831V78.7139H437.917C438.076 78.3467 438.326 78.0517 438.666 77.8289C439.009 77.6062 439.441 77.4948 439.962 77.4948C440.435 77.4948 440.849 77.5941 441.204 77.7928C441.559 77.9885 441.834 78.2805 442.03 78.6688C442.226 79.0571 442.324 79.5372 442.324 80.1091V84.5205H440.974V80.2717C440.974 79.769 440.843 79.3762 440.581 79.0932C440.319 78.8072 439.959 78.6643 439.502 78.6643C439.189 78.6643 438.91 78.732 438.666 78.8674C438.425 79.0029 438.234 79.2016 438.093 79.4634C437.954 79.7223 437.885 80.0354 437.885 80.4026Z" fill="#00FF72"/>
<path d="M716.625 100.352C716.625 73.0957 738.721 51 765.977 51H768C796.167 51 819 73.8335 819 102H716.625V100.352Z" fill="#00FF72"/>
<path d="M746.372 76.4744V75.2733H753.529V76.4744H750.644V84.5205H749.253V76.4744H746.372ZM756.729 84.6605C756.046 84.6605 755.458 84.5145 754.964 84.2225C754.473 83.9275 754.094 83.5136 753.826 82.9808C753.561 82.445 753.429 81.8174 753.429 81.098C753.429 80.3876 753.561 79.7615 753.826 79.2196C754.094 78.6778 754.467 78.2549 754.946 77.9508C755.427 77.6468 755.99 77.4948 756.635 77.4948C757.026 77.4948 757.405 77.5595 757.772 77.689C758.14 77.8184 758.469 78.0216 758.761 78.2985C759.053 78.5755 759.283 78.9352 759.452 79.3777C759.621 79.8171 759.705 80.3514 759.705 80.9806V81.4592H754.192V80.4478H758.382C758.382 80.0926 758.31 79.778 758.165 79.5041C758.021 79.2272 757.818 79.0089 757.556 78.8494C757.297 78.6898 756.993 78.6101 756.644 78.6101C756.264 78.6101 755.933 78.7034 755.65 78.89C755.37 79.0736 755.154 79.3144 755 79.6125C754.85 79.9074 754.774 80.228 754.774 80.5742V81.3644C754.774 81.8279 754.856 82.2223 755.018 82.5474C755.184 82.8724 755.414 83.1208 755.709 83.2924C756.004 83.4609 756.349 83.5452 756.743 83.5452C756.999 83.5452 757.232 83.5091 757.443 83.4369C757.653 83.3616 757.836 83.2502 757.989 83.1027C758.143 82.9552 758.26 82.7731 758.341 82.5564L759.619 82.7867C759.517 83.1629 759.333 83.4925 759.068 83.7755C758.806 84.0554 758.477 84.2737 758.079 84.4302C757.685 84.5837 757.235 84.6605 756.729 84.6605ZM766.144 79.2783L764.92 79.4951C764.869 79.3385 764.788 79.1895 764.676 79.048C764.568 78.9066 764.42 78.7907 764.234 78.7004C764.047 78.6101 763.814 78.5649 763.534 78.5649C763.152 78.5649 762.833 78.6507 762.577 78.8223C762.321 78.9909 762.193 79.2091 762.193 79.477C762.193 79.7088 762.279 79.8954 762.45 80.0369C762.622 80.1784 762.899 80.2943 763.281 80.3846L764.383 80.6374C765.021 80.7849 765.497 81.0122 765.81 81.3192C766.123 81.6262 766.279 82.0251 766.279 82.5157C766.279 82.9311 766.159 83.3014 765.918 83.6265C765.68 83.9486 765.348 84.2014 764.92 84.3851C764.496 84.5687 764.004 84.6605 763.444 84.6605C762.667 84.6605 762.033 84.4949 761.543 84.1638C761.052 83.8297 760.751 83.3556 760.64 82.7415L761.945 82.5428C762.026 82.883 762.193 83.1404 762.446 83.3149C762.699 83.4865 763.028 83.5723 763.435 83.5723C763.877 83.5723 764.231 83.4805 764.496 83.2969C764.761 83.1103 764.893 82.883 764.893 82.6151C764.893 82.3983 764.812 82.2162 764.649 82.0687C764.49 81.9212 764.244 81.8099 763.913 81.7346L762.739 81.4772C762.092 81.3297 761.614 81.095 761.303 80.7729C760.996 80.4508 760.843 80.0429 760.843 79.5492C760.843 79.1399 760.957 78.7816 761.186 78.4746C761.415 78.1676 761.731 77.9283 762.134 77.7567C762.538 77.5821 763 77.4948 763.52 77.4948C764.27 77.4948 764.86 77.6574 765.29 77.9825C765.721 78.3045 766.005 78.7365 766.144 79.2783ZM770.745 77.5851V78.6688H766.957V77.5851H770.745ZM767.973 75.9235H769.323V82.4841C769.323 82.746 769.362 82.9432 769.44 83.0756C769.518 83.2051 769.619 83.2939 769.743 83.342C769.869 83.3872 770.006 83.4098 770.154 83.4098C770.262 83.4098 770.357 83.4022 770.438 83.3872C770.519 83.3721 770.582 83.3601 770.628 83.3511L770.871 84.4663C770.793 84.4964 770.682 84.5265 770.537 84.5566C770.393 84.5897 770.212 84.6078 769.995 84.6108C769.64 84.6168 769.309 84.5536 769.002 84.4212C768.695 84.2887 768.447 84.084 768.257 83.8071C768.067 83.5302 767.973 83.1825 767.973 82.7641V75.9235ZM771.982 84.5205V77.5851H773.332V84.5205H771.982ZM772.664 76.515C772.429 76.515 772.228 76.4367 772.059 76.2802C771.894 76.1207 771.811 75.931 771.811 75.7113C771.811 75.4885 771.894 75.2989 772.059 75.1424C772.228 74.9828 772.429 74.9031 772.664 74.9031C772.899 74.9031 773.099 74.9828 773.265 75.1424C773.433 75.2989 773.518 75.4885 773.518 75.7113C773.518 75.931 773.433 76.1207 773.265 76.2802C773.099 76.4367 772.899 76.515 772.664 76.515ZM776.243 80.4026V84.5205H774.893V77.5851H776.188V78.7139H776.274C776.434 78.3467 776.684 78.0517 777.024 77.8289C777.367 77.6062 777.799 77.4948 778.32 77.4948C778.792 77.4948 779.206 77.5941 779.561 77.7928C779.917 77.9885 780.192 78.2805 780.388 78.6688C780.583 79.0571 780.681 79.5372 780.681 80.1091V84.5205H779.331V80.2717C779.331 79.769 779.2 79.3762 778.938 79.0932C778.676 78.8072 778.317 78.6643 777.859 78.6643C777.546 78.6643 777.268 78.732 777.024 78.8674C776.783 79.0029 776.592 79.2016 776.45 79.4634C776.312 79.7223 776.243 80.0354 776.243 80.4026ZM785.143 87.2658C784.593 87.2658 784.119 87.1935 783.721 87.049C783.327 86.9046 783.005 86.7134 782.755 86.4756C782.505 86.2378 782.318 85.9774 782.195 85.6945L783.355 85.2159C783.437 85.3483 783.545 85.4883 783.681 85.6358C783.819 85.7863 784.006 85.9142 784.24 86.0196C784.478 86.1249 784.784 86.1776 785.157 86.1776C785.669 86.1776 786.092 86.0527 786.426 85.8028C786.76 85.556 786.927 85.1617 786.927 84.6198V83.2562H786.841C786.76 83.4037 786.643 83.5678 786.489 83.7484C786.339 83.929 786.131 84.0855 785.866 84.218C785.601 84.3504 785.256 84.4167 784.832 84.4167C784.284 84.4167 783.79 84.2887 783.351 84.0329C782.914 83.774 782.568 83.3932 782.312 82.8905C782.06 82.3848 781.933 81.7632 781.933 81.0257C781.933 80.2882 782.058 79.6561 782.308 79.1293C782.561 78.6025 782.907 78.1992 783.346 77.9192C783.786 77.6363 784.284 77.4948 784.841 77.4948C785.271 77.4948 785.619 77.5671 785.884 77.7115C786.149 77.853 786.355 78.0186 786.503 78.2082C786.653 78.3979 786.769 78.5649 786.85 78.7094H786.95V77.5851H788.273V84.674C788.273 85.27 788.134 85.7592 787.857 86.1415C787.58 86.5238 787.205 86.8067 786.733 86.9903C786.263 87.174 785.733 87.2658 785.143 87.2658ZM785.13 83.2969C785.518 83.2969 785.846 83.2066 786.114 83.026C786.385 82.8423 786.59 82.5805 786.728 82.2403C786.87 81.8972 786.941 81.4863 786.941 81.0077C786.941 80.5411 786.871 80.1302 786.733 79.775C786.594 79.4198 786.391 79.1429 786.123 78.9442C785.855 78.7425 785.524 78.6417 785.13 78.6417C784.724 78.6417 784.385 78.747 784.114 78.9577C783.843 79.1654 783.638 79.4484 783.5 79.8066C783.364 80.1648 783.297 80.5652 783.297 81.0077C783.297 81.4622 783.366 81.861 783.504 82.2042C783.643 82.5474 783.848 82.8153 784.119 83.0079C784.392 83.2006 784.73 83.2969 785.13 83.2969Z" fill="#272A40"/>
<path d="M716.625 49.3521C716.625 22.0957 738.721 0 765.977 0L768 0C796.167 0 819 22.8335 819 51H716.625V49.3521Z" fill="#272A40"/>
<path d="M739.639 33.5205L737.074 24.2733H738.542L740.343 31.4345H740.429L742.303 24.2733H743.757L745.631 31.439H745.717L747.514 24.2733H748.986L746.416 33.5205H745.012L743.066 26.5941H742.994L741.048 33.5205H739.639ZM749.893 33.5205V26.5851H751.243V33.5205H749.893ZM750.575 25.515C750.34 25.515 750.139 25.4367 749.97 25.2802C749.805 25.1207 749.722 24.931 749.722 24.7113C749.722 24.4885 749.805 24.2989 749.97 24.1424C750.139 23.9828 750.34 23.9031 750.575 23.9031C750.81 23.9031 751.01 23.9828 751.176 24.1424C751.344 24.2989 751.428 24.4885 751.428 24.7113C751.428 24.931 751.344 25.1207 751.176 25.2802C751.01 25.4367 750.81 25.515 750.575 25.515ZM752.804 33.5205V26.5851H754.108V27.6868H754.181C754.307 27.3136 754.53 27.0201 754.849 26.8064C755.171 26.5896 755.535 26.4813 755.942 26.4813C756.026 26.4813 756.125 26.4843 756.24 26.4903C756.357 26.4963 756.449 26.5038 756.515 26.5129V27.8042C756.461 27.7892 756.365 27.7726 756.226 27.7546C756.088 27.7335 755.949 27.7229 755.811 27.7229C755.492 27.7229 755.207 27.7907 754.957 27.9261C754.71 28.0586 754.515 28.2437 754.37 28.4815C754.226 28.7163 754.154 28.9842 754.154 29.2852V33.5205H752.804ZM760.168 33.6605C759.485 33.6605 758.896 33.5145 758.403 33.2225C757.912 32.9275 757.533 32.5136 757.265 31.9808C757 31.445 756.867 30.8174 756.867 30.098C756.867 29.3876 757 28.7615 757.265 28.2196C757.533 27.6778 757.906 27.2549 758.385 26.9508C758.866 26.6468 759.429 26.4948 760.073 26.4948C760.465 26.4948 760.844 26.5595 761.211 26.689C761.578 26.8184 761.908 27.0216 762.2 27.2985C762.492 27.5755 762.722 27.9352 762.891 28.3777C763.059 28.8171 763.144 29.3514 763.144 29.9806V30.4592H757.631V29.4478H761.821C761.821 29.0926 761.748 28.778 761.604 28.5041C761.459 28.2272 761.256 28.0089 760.994 27.8494C760.735 27.6898 760.431 27.6101 760.082 27.6101C759.703 27.6101 759.372 27.7034 759.089 27.89C758.809 28.0736 758.592 28.3144 758.439 28.6125C758.288 28.9074 758.213 29.228 758.213 29.5742V30.3644C758.213 30.8279 758.294 31.2223 758.457 31.5474C758.622 31.8724 758.853 32.1208 759.148 32.2924C759.443 32.4609 759.787 32.5452 760.182 32.5452C760.437 32.5452 760.671 32.5091 760.881 32.4369C761.092 32.3616 761.274 32.2502 761.428 32.1027C761.581 31.9552 761.699 31.7731 761.78 31.5564L763.058 31.7867C762.955 32.1629 762.772 32.4925 762.507 32.7755C762.245 33.0554 761.915 33.2737 761.518 33.4302C761.124 33.5837 760.674 33.6605 760.168 33.6605ZM767.686 26.5851V27.6688H763.767V26.5851H767.686ZM764.842 33.5205V25.7814C764.842 25.3479 764.936 24.9882 765.126 24.7023C765.316 24.4133 765.567 24.1981 765.88 24.0566C766.193 23.9121 766.533 23.8398 766.9 23.8398C767.171 23.8398 767.403 23.8624 767.596 23.9076C767.788 23.9497 767.931 23.9889 768.025 24.025L767.709 25.1177C767.645 25.0996 767.564 25.0785 767.465 25.0544C767.366 25.0274 767.245 25.0138 767.104 25.0138C766.776 25.0138 766.541 25.0951 766.399 25.2576C766.261 25.4202 766.192 25.655 766.192 25.962V33.5205H764.842ZM768.823 33.5205V26.5851H770.128V27.6868H770.2C770.327 27.3136 770.549 27.0201 770.868 26.8064C771.19 26.5896 771.555 26.4813 771.961 26.4813C772.045 26.4813 772.145 26.4843 772.259 26.4903C772.376 26.4963 772.468 26.5038 772.535 26.5129V27.8042C772.48 27.7892 772.384 27.7726 772.246 27.7546C772.107 27.7335 771.969 27.7229 771.83 27.7229C771.511 27.7229 771.227 27.7907 770.977 27.9261C770.73 28.0586 770.534 28.2437 770.39 28.4815C770.245 28.7163 770.173 28.9842 770.173 29.2852V33.5205H768.823ZM775.403 33.674C774.963 33.674 774.566 33.5928 774.211 33.4302C773.856 33.2646 773.574 33.0253 773.367 32.7123C773.162 32.3992 773.06 32.0154 773.06 31.5609C773.06 31.1696 773.135 30.8475 773.285 30.5946C773.436 30.3418 773.639 30.1416 773.895 29.9941C774.151 29.8466 774.437 29.7352 774.753 29.66C775.069 29.5847 775.391 29.5275 775.719 29.4884C776.134 29.4402 776.472 29.4011 776.73 29.371C776.989 29.3379 777.177 29.2852 777.295 29.213C777.412 29.1407 777.471 29.0233 777.471 28.8608V28.8292C777.471 28.4349 777.36 28.1293 777.137 27.9126C776.917 27.6959 776.589 27.5875 776.153 27.5875C775.698 27.5875 775.34 27.6883 775.078 27.89C774.819 28.0887 774.64 28.3099 774.541 28.5538L773.272 28.2648C773.422 27.8434 773.642 27.5032 773.931 27.2443C774.223 26.9825 774.559 26.7928 774.938 26.6754C775.317 26.555 775.716 26.4948 776.134 26.4948C776.411 26.4948 776.705 26.5279 777.015 26.5941C777.328 26.6574 777.62 26.7748 777.891 26.9463C778.165 27.1179 778.389 27.3632 778.564 27.6823C778.738 27.9984 778.826 28.4093 778.826 28.915V33.5205H777.507V32.5723H777.453C777.366 32.7469 777.235 32.9185 777.06 33.087C776.885 33.2556 776.661 33.3956 776.387 33.507C776.113 33.6183 775.785 33.674 775.403 33.674ZM775.696 32.5904C776.07 32.5904 776.389 32.5166 776.654 32.3691C776.922 32.2216 777.125 32.029 777.263 31.7912C777.405 31.5504 777.475 31.293 777.475 31.0191V30.1251C777.427 30.1732 777.334 30.2184 777.196 30.2605C777.06 30.2996 776.905 30.3343 776.73 30.3644C776.556 30.3915 776.386 30.417 776.22 30.4411C776.055 30.4622 775.916 30.4803 775.805 30.4953C775.543 30.5284 775.304 30.5841 775.087 30.6624C774.873 30.7406 774.702 30.8535 774.572 31.001C774.446 31.1455 774.383 31.3381 774.383 31.579C774.383 31.9131 774.506 32.1659 774.753 32.3375C775 32.5061 775.314 32.5904 775.696 32.5904ZM780.368 33.5205V26.5851H781.664V27.7139H781.749C781.894 27.3316 782.13 27.0336 782.458 26.8199C782.786 26.6032 783.179 26.4948 783.637 26.4948C784.1 26.4948 784.489 26.6032 784.802 26.8199C785.118 27.0366 785.351 27.3346 785.501 27.7139H785.574C785.739 27.3437 786.003 27.0487 786.364 26.8289C786.725 26.6062 787.156 26.4948 787.655 26.4948C788.284 26.4948 788.798 26.692 789.195 27.0863C789.595 27.4806 789.795 28.0751 789.795 28.8698V33.5205H788.445V28.9962C788.445 28.5267 788.317 28.1865 788.062 27.9758C787.806 27.7651 787.5 27.6597 787.145 27.6597C786.706 27.6597 786.364 27.7952 786.12 28.0661C785.876 28.334 785.754 28.6787 785.754 29.1001V33.5205H784.409V28.9105C784.409 28.5342 784.291 28.2317 784.057 28.0029C783.822 27.7741 783.516 27.6597 783.14 27.6597C782.884 27.6597 782.648 27.7275 782.431 27.8629C782.217 27.9954 782.044 28.1805 781.912 28.4183C781.782 28.6561 781.718 28.9315 781.718 29.2446V33.5205H780.368ZM794.338 33.6605C793.655 33.6605 793.066 33.5145 792.573 33.2225C792.082 32.9275 791.703 32.5136 791.435 31.9808C791.17 31.445 791.037 30.8174 791.037 30.098C791.037 29.3876 791.17 28.7615 791.435 28.2196C791.703 27.6778 792.076 27.2549 792.554 26.9508C793.036 26.6468 793.599 26.4948 794.243 26.4948C794.634 26.4948 795.014 26.5595 795.381 26.689C795.748 26.8184 796.078 27.0216 796.37 27.2985C796.662 27.5755 796.892 27.9352 797.061 28.3777C797.229 28.8171 797.313 29.3514 797.313 29.9806V30.4592H791.8V29.4478H795.991C795.991 29.0926 795.918 28.778 795.774 28.5041C795.629 28.2272 795.426 28.0089 795.164 27.8494C794.905 27.6898 794.601 27.6101 794.252 27.6101C793.873 27.6101 793.542 27.7034 793.259 27.89C792.979 28.0736 792.762 28.3144 792.609 28.6125C792.458 28.9074 792.383 29.228 792.383 29.5742V30.3644C792.383 30.8279 792.464 31.2223 792.627 31.5474C792.792 31.8724 793.023 32.1208 793.318 32.2924C793.613 32.4609 793.957 32.5452 794.352 32.5452C794.607 32.5452 794.841 32.5091 795.051 32.4369C795.262 32.3616 795.444 32.2502 795.598 32.1027C795.751 31.9552 795.869 31.7731 795.95 31.5564L797.228 31.7867C797.125 32.1629 796.942 32.4925 796.677 32.7755C796.415 33.0554 796.085 33.2737 795.688 33.4302C795.294 33.5837 794.844 33.6605 794.338 33.6605Z" fill="#00FF72"/>
<path d="M358.312 0L460.688 0C460.688 28.1665 437.667 51 409.5 51C381.333 51 358.312 28.1665 358.312 0Z" fill="#00FF72"/>
<path d="M381.516 26.1592V16.912H384.812C385.531 16.912 386.127 17.0429 386.6 17.3048C387.073 17.5667 387.426 17.9249 387.661 18.3794C387.896 18.831 388.013 19.3397 388.013 19.9056C388.013 20.4745 387.894 20.9862 387.657 21.4408C387.422 21.8923 387.067 22.2505 386.591 22.5154C386.118 22.7773 385.524 22.9082 384.808 22.9082H382.541V21.7252H384.681C385.136 21.7252 385.504 21.647 385.787 21.4904C386.07 21.3309 386.278 21.1142 386.41 20.8402C386.543 20.5663 386.609 20.2548 386.609 19.9056C386.609 19.5564 386.543 19.2464 386.41 18.9754C386.278 18.7045 386.069 18.4923 385.783 18.3388C385.5 18.1853 385.127 18.1085 384.663 18.1085H382.911V26.1592H381.516ZM389.285 26.1592V19.2238H390.589V20.3255H390.662C390.788 19.9522 391.011 19.6588 391.33 19.445C391.652 19.2283 392.016 19.1199 392.423 19.1199C392.507 19.1199 392.606 19.1229 392.721 19.129C392.838 19.135 392.93 19.1425 392.996 19.1515V20.4429C392.942 20.4278 392.846 20.4113 392.707 20.3932C392.569 20.3722 392.43 20.3616 392.292 20.3616C391.973 20.3616 391.688 20.4293 391.438 20.5648C391.191 20.6973 390.996 20.8824 390.851 21.1202C390.707 21.355 390.635 21.6229 390.635 21.9239V26.1592H389.285ZM396.581 26.2992C395.931 26.2992 395.364 26.1501 394.879 25.8521C394.394 25.5541 394.018 25.1372 393.75 24.6014C393.482 24.0656 393.348 23.4395 393.348 22.7231C393.348 22.0037 393.482 21.3745 393.75 20.8357C394.018 20.2969 394.394 19.8785 394.879 19.5805C395.364 19.2825 395.931 19.1335 396.581 19.1335C397.232 19.1335 397.799 19.2825 398.284 19.5805C398.768 19.8785 399.144 20.2969 399.412 20.8357C399.68 21.3745 399.814 22.0037 399.814 22.7231C399.814 23.4395 399.68 24.0656 399.412 24.6014C399.144 25.1372 398.768 25.5541 398.284 25.8521C397.799 26.1501 397.232 26.2992 396.581 26.2992ZM396.586 25.1658C397.007 25.1658 397.356 25.0545 397.633 24.8317C397.91 24.6089 398.115 24.3124 398.247 23.9422C398.383 23.572 398.451 23.1641 398.451 22.7186C398.451 22.2761 398.383 21.8697 398.247 21.4995C398.115 21.1262 397.91 20.8267 397.633 20.6009C397.356 20.3752 397.007 20.2623 396.586 20.2623C396.161 20.2623 395.809 20.3752 395.529 20.6009C395.252 20.8267 395.046 21.1262 394.911 21.4995C394.778 21.8697 394.712 22.2761 394.712 22.7186C394.712 23.1641 394.778 23.572 394.911 23.9422C395.046 24.3124 395.252 24.6089 395.529 24.8317C395.809 25.0545 396.161 25.1658 396.586 25.1658ZM404.303 19.2238V20.3074H400.514V19.2238H404.303ZM401.53 17.5622H402.88V24.1228C402.88 24.3847 402.919 24.5819 402.998 24.7143C403.076 24.8437 403.177 24.9325 403.3 24.9807C403.427 25.0259 403.564 25.0484 403.711 25.0484C403.819 25.0484 403.914 25.0409 403.996 25.0259C404.077 25.0108 404.14 24.9988 404.185 24.9897L404.429 26.105C404.351 26.1351 404.239 26.1652 404.095 26.1953C403.95 26.2284 403.77 26.2465 403.553 26.2495C403.198 26.2555 402.867 26.1923 402.56 26.0598C402.253 25.9274 402.004 25.7227 401.815 25.4458C401.625 25.1688 401.53 24.8212 401.53 24.4028V17.5622ZM408.387 26.2992C407.737 26.2992 407.169 26.1501 406.685 25.8521C406.2 25.5541 405.824 25.1372 405.556 24.6014C405.288 24.0656 405.154 23.4395 405.154 22.7231C405.154 22.0037 405.288 21.3745 405.556 20.8357C405.824 20.2969 406.2 19.8785 406.685 19.5805C407.169 19.2825 407.737 19.1335 408.387 19.1335C409.037 19.1335 409.604 19.2825 410.089 19.5805C410.574 19.8785 410.95 20.2969 411.218 20.8357C411.486 21.3745 411.62 22.0037 411.62 22.7231C411.62 23.4395 411.486 24.0656 411.218 24.6014C410.95 25.1372 410.574 25.5541 410.089 25.8521C409.604 26.1501 409.037 26.2992 408.387 26.2992ZM408.391 25.1658C408.813 25.1658 409.162 25.0545 409.439 24.8317C409.716 24.6089 409.92 24.3124 410.053 23.9422C410.188 23.572 410.256 23.1641 410.256 22.7186C410.256 22.2761 410.188 21.8697 410.053 21.4995C409.92 21.1262 409.716 20.8267 409.439 20.6009C409.162 20.3752 408.813 20.2623 408.391 20.2623C407.967 20.2623 407.615 20.3752 407.335 20.6009C407.058 20.8267 406.852 21.1262 406.716 21.4995C406.584 21.8697 406.517 22.2761 406.517 22.7186C406.517 23.1641 406.584 23.572 406.716 23.9422C406.852 24.3124 407.058 24.6089 407.335 24.8317C407.615 25.0545 407.967 25.1658 408.391 25.1658ZM416.108 19.2238V20.3074H412.32V19.2238H416.108ZM413.336 17.5622H414.686V24.1228C414.686 24.3847 414.725 24.5819 414.803 24.7143C414.881 24.8437 414.982 24.9325 415.106 24.9807C415.232 25.0259 415.369 25.0484 415.517 25.0484C415.625 25.0484 415.72 25.0409 415.801 25.0259C415.882 25.0108 415.945 24.9988 415.991 24.9897L416.234 26.105C416.156 26.1351 416.045 26.1652 415.9 26.1953C415.756 26.2284 415.575 26.2465 415.358 26.2495C415.003 26.2555 414.672 26.1923 414.365 26.0598C414.058 25.9274 413.81 25.7227 413.62 25.4458C413.43 25.1688 413.336 24.8212 413.336 24.4028V17.5622ZM418.199 28.76C417.997 28.76 417.813 28.7434 417.648 28.7103C417.482 28.6802 417.359 28.6471 417.278 28.611L417.603 27.5047C417.85 27.5709 418.069 27.5995 418.262 27.5905C418.455 27.5815 418.625 27.5092 418.772 27.3738C418.923 27.2383 419.055 27.0171 419.17 26.71L419.337 26.2495L416.799 19.2238H418.244L420 24.6059H420.073L421.829 19.2238H423.278L420.42 27.0848C420.288 27.446 420.119 27.7516 419.915 28.0014C419.71 28.2542 419.466 28.4439 419.183 28.5703C418.9 28.6967 418.572 28.76 418.199 28.76ZM424.291 28.76V19.2238H425.61V20.3481H425.722C425.801 20.2036 425.914 20.0365 426.061 19.8469C426.209 19.6572 426.413 19.4917 426.675 19.3502C426.937 19.2057 427.283 19.1335 427.714 19.1335C428.274 19.1335 428.773 19.275 429.213 19.5579C429.652 19.8409 429.997 20.2487 430.247 20.7815C430.5 21.3143 430.626 21.9555 430.626 22.705C430.626 23.4546 430.501 24.0972 430.251 24.633C430.001 25.1658 429.658 25.5767 429.222 25.8657C428.785 26.1517 428.287 26.2946 427.727 26.2946C427.306 26.2946 426.961 26.2239 426.693 26.0824C426.428 25.9409 426.221 25.7754 426.07 25.5857C425.92 25.3961 425.804 25.2275 425.722 25.08H425.641V28.76H424.291ZM425.614 22.6915C425.614 23.1791 425.685 23.6066 425.826 23.9738C425.968 24.341 426.172 24.6285 426.44 24.8362C426.708 25.0409 427.036 25.1433 427.425 25.1433C427.828 25.1433 428.165 25.0364 428.436 24.8227C428.707 24.6059 428.912 24.3124 429.05 23.9422C429.192 23.572 429.262 23.155 429.262 22.6915C429.262 22.2339 429.193 21.8231 429.055 21.4588C428.919 21.0946 428.715 20.8071 428.441 20.5964C428.17 20.3857 427.831 20.2803 427.425 20.2803C427.033 20.2803 426.702 20.3812 426.431 20.5829C426.163 20.7845 425.96 21.066 425.822 21.4272C425.683 21.7884 425.614 22.2099 425.614 22.6915ZM434.872 26.2992C434.188 26.2992 433.6 26.1532 433.106 25.8612C432.615 25.5662 432.236 25.1523 431.968 24.6195C431.703 24.0837 431.571 23.4561 431.571 22.7366C431.571 22.0262 431.703 21.4001 431.968 20.8583C432.236 20.3165 432.609 19.8935 433.088 19.5895C433.57 19.2855 434.133 19.1335 434.777 19.1335C435.168 19.1335 435.547 19.1982 435.915 19.3276C436.282 19.4571 436.611 19.6603 436.903 19.9372C437.195 20.2141 437.426 20.5738 437.594 21.0163C437.763 21.4558 437.847 21.9901 437.847 22.6192V23.0979H432.334V22.0864H436.524C436.524 21.7312 436.452 21.4167 436.307 21.1428C436.163 20.8658 435.96 20.6476 435.698 20.488C435.439 20.3285 435.135 20.2487 434.786 20.2487C434.407 20.2487 434.075 20.3421 433.792 20.5287C433.512 20.7123 433.296 20.9531 433.142 21.2511C432.992 21.5461 432.916 21.8667 432.916 22.2129V23.003C432.916 23.4666 432.998 23.8609 433.16 24.186C433.326 24.5111 433.556 24.7595 433.851 24.931C434.146 25.0996 434.491 25.1839 434.885 25.1839C435.141 25.1839 435.374 25.1478 435.585 25.0755C435.796 25.0003 435.978 24.8889 436.131 24.7414C436.285 24.5939 436.402 24.4118 436.484 24.1951L437.761 24.4253C437.659 24.8016 437.475 25.1312 437.21 25.4142C436.949 25.6941 436.619 25.9123 436.222 26.0689C435.827 26.2224 435.377 26.2992 434.872 26.2992Z" fill="#272A40"/>
<path d="M563.062 50.8004C563.062 22.7507 586.2 0 614.25 0C642.3 0 665.438 22.7507 665.438 50.8004C665.438 79.0705 642.52 102 614.25 102C585.98 102 563.062 79.0705 563.062 50.8004Z" fill="#00FF72"/>
<path d="M587.766 55.5V46.2528H591.062C591.778 46.2528 592.373 46.3762 592.846 46.6231C593.321 46.8699 593.676 47.2115 593.911 47.648C594.146 48.0815 594.263 48.5827 594.263 49.1516C594.263 49.7175 594.144 50.2157 593.907 50.6461C593.672 51.0736 593.317 51.4062 592.841 51.644C592.368 51.8818 591.774 52.0007 591.058 52.0007H588.561V50.7996H590.931C591.383 50.7996 591.75 50.7349 592.033 50.6055C592.319 50.4761 592.528 50.2879 592.66 50.0411C592.793 49.7943 592.859 49.4978 592.859 49.1516C592.859 48.8024 592.791 48.4999 592.656 48.244C592.523 47.9882 592.314 47.7925 592.028 47.657C591.745 47.5186 591.374 47.4493 590.913 47.4493H589.161V55.5H587.766ZM592.331 51.3279L594.616 55.5H593.026L590.787 51.3279H592.331ZM598.499 55.64C597.816 55.64 597.227 55.494 596.733 55.202C596.243 54.907 595.863 54.4931 595.596 53.9603C595.331 53.4245 595.198 52.7969 595.198 52.0775C595.198 51.3671 595.331 50.7409 595.596 50.1991C595.863 49.6573 596.237 49.2344 596.715 48.9303C597.197 48.6263 597.76 48.4743 598.404 48.4743C598.795 48.4743 599.175 48.539 599.542 48.6685C599.909 48.7979 600.239 49.0011 600.531 49.278C600.823 49.5549 601.053 49.9147 601.221 50.3572C601.39 50.7966 601.474 51.3309 601.474 51.9601V52.4387H595.961V51.4273H600.151C600.151 51.0721 600.079 50.7575 599.935 50.4836C599.79 50.2066 599.587 49.9884 599.325 49.8289C599.066 49.6693 598.762 49.5896 598.413 49.5896C598.034 49.5896 597.703 49.6829 597.42 49.8695C597.14 50.0531 596.923 50.2939 596.769 50.5919C596.619 50.8869 596.544 51.2075 596.544 51.5537V52.3439C596.544 52.8074 596.625 53.2017 596.788 53.5268C596.953 53.8519 597.183 54.1003 597.478 54.2719C597.773 54.4404 598.118 54.5247 598.512 54.5247C598.768 54.5247 599.002 54.4886 599.212 54.4163C599.423 54.3411 599.605 54.2297 599.759 54.0822C599.912 53.9347 600.029 53.7526 600.111 53.5359L601.389 53.7662C601.286 54.1424 601.103 54.472 600.838 54.755C600.576 55.0349 600.246 55.2532 599.849 55.4097C599.455 55.5632 599.005 55.64 598.499 55.64ZM607.913 50.2578L606.69 50.4745C606.638 50.318 606.557 50.169 606.446 50.0275C606.337 49.8861 606.19 49.7702 606.003 49.6799C605.817 49.5896 605.583 49.5444 605.303 49.5444C604.921 49.5444 604.602 49.6302 604.346 49.8018C604.09 49.9703 603.962 50.1886 603.962 50.4565C603.962 50.6883 604.048 50.8749 604.22 51.0164C604.391 51.1579 604.668 51.2737 605.051 51.364L606.152 51.6169C606.79 51.7644 607.266 51.9917 607.579 52.2987C607.892 52.6057 608.049 53.0046 608.049 53.4952C608.049 53.9106 607.928 54.2809 607.687 54.606C607.45 54.9281 607.117 55.1809 606.69 55.3645C606.265 55.5482 605.773 55.64 605.213 55.64C604.437 55.64 603.803 55.4744 603.312 55.1433C602.822 54.8092 602.521 54.3351 602.409 53.721L603.714 53.5223C603.795 53.8625 603.962 54.1198 604.215 54.2944C604.468 54.466 604.798 54.5518 605.204 54.5518C605.647 54.5518 606 54.46 606.265 54.2764C606.53 54.0897 606.663 53.8625 606.663 53.5946C606.663 53.3778 606.581 53.1957 606.419 53.0482C606.259 52.9007 606.014 52.7894 605.683 52.7141L604.509 52.4567C603.862 52.3092 603.383 52.0744 603.073 51.7524C602.766 51.4303 602.612 51.0224 602.612 50.5287C602.612 50.1193 602.727 49.7611 602.956 49.4541C603.184 49.1471 603.5 48.9078 603.904 48.7362C604.307 48.5616 604.769 48.4743 605.29 48.4743C606.039 48.4743 606.629 48.6368 607.06 48.9619C607.49 49.284 607.775 49.716 607.913 50.2578ZM612.266 55.64C611.583 55.64 610.994 55.494 610.501 55.202C610.01 54.907 609.631 54.4931 609.363 53.9603C609.098 53.4245 608.965 52.7969 608.965 52.0775C608.965 51.3671 609.098 50.7409 609.363 50.1991C609.631 49.6573 610.004 49.2344 610.483 48.9303C610.964 48.6263 611.527 48.4743 612.171 48.4743C612.563 48.4743 612.942 48.539 613.309 48.6685C613.676 48.7979 614.006 49.0011 614.298 49.278C614.59 49.5549 614.82 49.9147 614.989 50.3572C615.157 50.7966 615.242 51.3309 615.242 51.9601V52.4387H609.729V51.4273H613.919C613.919 51.0721 613.846 50.7575 613.702 50.4836C613.557 50.2066 613.354 49.9884 613.092 49.8289C612.834 49.6693 612.529 49.5896 612.18 49.5896C611.801 49.5896 611.47 49.6829 611.187 49.8695C610.907 50.0531 610.69 50.2939 610.537 50.5919C610.386 50.8869 610.311 51.2075 610.311 51.5537V52.3439C610.311 52.8074 610.392 53.2017 610.555 53.5268C610.72 53.8519 610.951 54.1003 611.246 54.2719C611.541 54.4404 611.885 54.5247 612.28 54.5247C612.536 54.5247 612.769 54.4886 612.98 54.4163C613.19 54.3411 613.372 54.2297 613.526 54.0822C613.679 53.9347 613.797 53.7526 613.878 53.5359L615.156 53.7662C615.054 54.1424 614.87 54.472 614.605 54.755C614.343 55.0349 614.013 55.2532 613.616 55.4097C613.222 55.5632 612.772 55.64 612.266 55.64ZM618.502 55.6535C618.062 55.6535 617.665 55.5722 617.31 55.4097C616.955 55.2441 616.673 55.0048 616.465 54.6918C616.261 54.3787 616.158 53.9949 616.158 53.5404C616.158 53.1491 616.234 52.827 616.384 52.5741C616.535 52.3213 616.738 52.1211 616.994 51.9736C617.25 51.8261 617.536 51.7147 617.852 51.6395C618.168 51.5642 618.49 51.507 618.818 51.4679C619.233 51.4197 619.57 51.3806 619.829 51.3505C620.088 51.3174 620.276 51.2647 620.394 51.1925C620.511 51.1202 620.57 51.0028 620.57 50.8403V50.8087C620.57 50.4143 620.458 50.1088 620.236 49.8921C620.016 49.6754 619.688 49.567 619.251 49.567C618.797 49.567 618.439 49.6678 618.177 49.8695C617.918 50.0682 617.739 50.2894 617.639 50.5332L616.371 50.2443C616.521 49.8228 616.741 49.4827 617.03 49.2238C617.322 48.9619 617.657 48.7723 618.037 48.6549C618.416 48.5345 618.815 48.4743 619.233 48.4743C619.51 48.4743 619.804 48.5074 620.114 48.5736C620.427 48.6368 620.719 48.7542 620.99 48.9258C621.264 49.0974 621.488 49.3427 621.662 49.6618C621.837 49.9779 621.924 50.3888 621.924 50.8945V55.5H620.606V54.5518H620.552C620.464 54.7264 620.333 54.898 620.159 55.0665C619.984 55.2351 619.76 55.3751 619.486 55.4865C619.212 55.5978 618.884 55.6535 618.502 55.6535ZM618.795 54.5699C619.169 54.5699 619.488 54.4961 619.753 54.3486C620.02 54.2011 620.224 54.0085 620.362 53.7707C620.504 53.5299 620.574 53.2725 620.574 52.9986V52.1045C620.526 52.1527 620.433 52.1979 620.294 52.24C620.159 52.2791 620.004 52.3138 619.829 52.3439C619.655 52.3709 619.485 52.3965 619.319 52.4206C619.154 52.4417 619.015 52.4597 618.904 52.4748C618.642 52.5079 618.402 52.5636 618.186 52.6419C617.972 52.7201 617.8 52.833 617.671 52.9805C617.545 53.125 617.481 53.3176 617.481 53.5585C617.481 53.8926 617.605 54.1454 617.852 54.317C618.098 54.4856 618.413 54.5699 618.795 54.5699ZM623.466 55.5V48.5646H624.771V49.6663H624.844C624.97 49.2931 625.193 48.9996 625.512 48.7858C625.834 48.5691 626.198 48.4608 626.605 48.4608C626.689 48.4608 626.788 48.4638 626.903 48.4698C627.02 48.4758 627.112 48.4833 627.178 48.4924V49.7837C627.124 49.7687 627.028 49.7521 626.889 49.734C626.751 49.713 626.612 49.7024 626.474 49.7024C626.155 49.7024 625.87 49.7702 625.62 49.9056C625.373 50.0381 625.178 50.2232 625.033 50.461C624.889 50.6958 624.817 50.9637 624.817 51.2647V55.5H623.466ZM630.763 55.64C630.092 55.64 629.514 55.488 629.029 55.1839C628.548 54.8769 628.178 54.454 627.919 53.9152C627.66 53.3763 627.53 52.7593 627.53 52.0639C627.53 51.3595 627.663 50.7379 627.928 50.1991C628.193 49.6573 628.566 49.2344 629.047 48.9303C629.529 48.6263 630.097 48.4743 630.75 48.4743C631.277 48.4743 631.746 48.5721 632.158 48.7678C632.571 48.9604 632.903 49.2314 633.156 49.5805C633.412 49.9297 633.564 50.3376 633.612 50.8042H632.298C632.226 50.4791 632.061 50.1991 631.802 49.9643C631.546 49.7295 631.203 49.6121 630.772 49.6121C630.396 49.6121 630.066 49.7115 629.783 49.9101C629.504 50.1058 629.285 50.3857 629.129 50.75C628.972 51.1112 628.894 51.5386 628.894 52.0323C628.894 52.538 628.971 52.9745 629.124 53.3417C629.278 53.709 629.494 53.9934 629.774 54.1951C630.057 54.3968 630.39 54.4976 630.772 54.4976C631.028 54.4976 631.26 54.451 631.468 54.3576C631.678 54.2613 631.854 54.1244 631.996 53.9468C632.14 53.7692 632.241 53.5554 632.298 53.3056H633.612C633.564 53.7541 633.418 54.1545 633.174 54.5066C632.931 54.8588 632.604 55.1358 632.195 55.3375C631.788 55.5391 631.311 55.64 630.763 55.64ZM636.15 51.3821V55.5H634.8V46.2528H636.132V49.6934H636.218C636.38 49.3202 636.629 49.0237 636.963 48.8039C637.297 48.5842 637.733 48.4743 638.272 48.4743C638.748 48.4743 639.163 48.5721 639.518 48.7678C639.877 48.9634 640.154 49.2554 640.349 49.6437C640.548 50.029 640.647 50.5107 640.647 51.0886V55.5H639.297V51.2512C639.297 50.7425 639.166 50.3481 638.904 50.0682C638.643 49.7852 638.278 49.6437 637.812 49.6437C637.493 49.6437 637.207 49.7115 636.954 49.8469C636.704 49.9824 636.507 50.1811 636.362 50.4429C636.221 50.7018 636.15 51.0149 636.15 51.3821Z" fill="#272A40"/>
<path d="M0 49.3521C0 22.0957 22.0957 0 49.3521 0L51.375 0C79.5415 0 102.375 22.8335 102.375 51H0L0 49.3521Z" fill="#272A40"/>
<path d="M32.15 24.285H33.5497V30.367C33.5497 31.0142 33.3977 31.5877 33.0937 32.0874C32.7896 32.584 32.3622 32.9753 31.8113 33.2613C31.2605 33.5443 30.6148 33.6857 29.8743 33.6857C29.1368 33.6857 28.4926 33.5443 27.9418 33.2613C27.3909 32.9753 26.9635 32.584 26.6595 32.0874C26.3554 31.5877 26.2034 31.0142 26.2034 30.367V24.285H27.5986V30.2542C27.5986 30.6726 27.6904 31.0443 27.8741 31.3694C28.0607 31.6945 28.3241 31.9504 28.6642 32.137C29.0044 32.3206 29.4077 32.4124 29.8743 32.4124C30.3439 32.4124 30.7488 32.3206 31.0889 32.137C31.4321 31.9504 31.6939 31.6945 31.8746 31.3694C32.0582 31.0443 32.15 30.6726 32.15 30.2542V24.285ZM36.2929 24.285L38.5054 27.9017H38.5776L40.7901 24.285H42.4065L39.5258 28.9086L42.4246 33.5322H40.7991L38.5776 29.9652H38.5054L36.2839 33.5322H34.6584L37.6068 28.9086L34.6764 24.285H36.2929ZM47.4244 33.5322H45.9434L49.2711 24.285H50.8831L54.2108 33.5322H52.7298L50.1155 25.9647H50.0433L47.4244 33.5322ZM47.6728 29.911H52.477V31.085H47.6728V29.911ZM59.5751 30.656V26.5968H60.9297V33.5322H59.6022V32.3312H59.5299C59.3704 32.7014 59.1145 33.01 58.7623 33.2568C58.4132 33.5006 57.9782 33.6225 57.4574 33.6225C57.0119 33.6225 56.6176 33.5247 56.2744 33.329C55.9343 33.1304 55.6664 32.8369 55.4707 32.4486C55.2781 32.0603 55.1818 31.5801 55.1818 31.0082V26.5968H56.5318V30.8457C56.5318 31.3183 56.6628 31.6945 56.9246 31.9745C57.1865 32.2544 57.5267 32.3944 57.9451 32.3944C58.1979 32.3944 58.4493 32.3312 58.6991 32.2047C58.952 32.0783 59.1612 31.8872 59.3267 31.6313C59.4953 31.3755 59.5781 31.0504 59.5751 30.656ZM65.0838 33.6677C64.5239 33.6677 64.0243 33.5247 63.5848 33.2387C63.1483 32.9498 62.8052 32.5389 62.5553 32.0061C62.3085 31.4703 62.1851 30.8276 62.1851 30.0781C62.1851 29.3285 62.31 28.6874 62.5598 28.1546C62.8127 27.6218 63.1588 27.2139 63.5983 26.931C64.0378 26.648 64.536 26.5065 65.0929 26.5065C65.5233 26.5065 65.8695 26.5788 66.1314 26.7233C66.3963 26.8647 66.601 27.0303 66.7454 27.2199C66.8929 27.4096 67.0073 27.5766 67.0886 27.7211H67.1699V24.285H68.5199V33.5322H67.2015V32.4531H67.0886C67.0073 32.6006 66.8899 32.7692 66.7364 32.9588C66.5859 33.1484 66.3782 33.314 66.1133 33.4555C65.8484 33.5969 65.5053 33.6677 65.0838 33.6677ZM65.3818 32.5163C65.7702 32.5163 66.0983 32.414 66.3662 32.2093C66.6371 32.0016 66.8418 31.7141 66.9802 31.3469C67.1217 30.9796 67.1925 30.5522 67.1925 30.0645C67.1925 29.5829 67.1232 29.1615 66.9847 28.8003C66.8463 28.439 66.6431 28.1576 66.3752 27.9559C66.1073 27.7542 65.7762 27.6534 65.3818 27.6534C64.9755 27.6534 64.6368 27.7587 64.3659 27.9695C64.095 28.1802 63.8903 28.4676 63.7518 28.8319C63.6164 29.1961 63.5487 29.607 63.5487 30.0645C63.5487 30.5281 63.6179 30.945 63.7564 31.3152C63.8948 31.6855 64.0995 31.979 64.3704 32.1957C64.6444 32.4094 64.9815 32.5163 65.3818 32.5163ZM70.1907 33.5322V26.5968H71.5408V33.5322H70.1907ZM70.8725 25.5267C70.6377 25.5267 70.4361 25.4485 70.2675 25.2919C70.1019 25.1324 70.0192 24.9427 70.0192 24.723C70.0192 24.5003 70.1019 24.3106 70.2675 24.1541C70.4361 23.9946 70.6377 23.9148 70.8725 23.9148C71.1073 23.9148 71.3075 23.9946 71.4731 24.1541C71.6416 24.3106 71.7259 24.5003 71.7259 24.723C71.7259 24.9427 71.6416 25.1324 71.4731 25.2919C71.3075 25.4485 71.1073 25.5267 70.8725 25.5267ZM76.3384 26.5968V27.6805H72.5501V26.5968H76.3384ZM73.5661 24.9352H74.9161V31.4959C74.9161 31.7577 74.9552 31.9549 75.0335 32.0874C75.1118 32.2168 75.2126 32.3056 75.336 32.3538C75.4625 32.3989 75.5994 32.4215 75.7469 32.4215C75.8553 32.4215 75.9501 32.414 76.0314 32.3989C76.1126 32.3839 76.1759 32.3718 76.221 32.3628L76.4648 33.478C76.3866 33.5081 76.2752 33.5382 76.1307 33.5683C75.9862 33.6015 75.8056 33.6195 75.5889 33.6225C75.2337 33.6286 74.9026 33.5653 74.5955 33.4329C74.2885 33.3004 74.0402 33.0958 73.8505 32.8188C73.6609 32.5419 73.5661 32.1942 73.5661 31.7758V24.9352Z" fill="#00FF72"/>
<path d="M102.375 49.3521C102.375 22.0957 124.471 0 151.727 0C181.011 0 204.75 23.748 204.75 53.0318C204.75 80.0717 182.83 102 155.79 102H153.163C125.114 102 102.375 79.2613 102.375 51.2116V49.3521Z" fill="#272A40"/>
<path d="M121.525 46.2528H122.925V52.3348C122.925 52.982 122.773 53.5554 122.469 54.0551C122.165 54.5518 121.737 54.9431 121.186 55.2291C120.635 55.512 119.99 55.6535 119.249 55.6535C118.512 55.6535 117.868 55.512 117.317 55.2291C116.766 54.9431 116.338 54.5518 116.034 54.0551C115.73 53.5554 115.578 52.982 115.578 52.3348V46.2528H116.974V52.2219C116.974 52.6404 117.065 53.0121 117.249 53.3372C117.436 53.6623 117.699 53.9182 118.039 54.1048C118.379 54.2884 118.783 54.3802 119.249 54.3802C119.719 54.3802 120.124 54.2884 120.464 54.1048C120.807 53.9182 121.069 53.6623 121.25 53.3372C121.433 53.0121 121.525 52.6404 121.525 52.2219V46.2528ZM126.092 46.2528V55.5H124.697V46.2528H126.092ZM131.282 45.8193L128.302 56.8907H127.096L130.076 45.8193H131.282ZM138.227 46.2528H139.627V52.3348C139.627 52.982 139.475 53.5554 139.171 54.0551C138.867 54.5518 138.44 54.9431 137.889 55.2291C137.338 55.512 136.692 55.6535 135.952 55.6535C135.214 55.6535 134.57 55.512 134.019 55.2291C133.468 54.9431 133.041 54.5518 132.737 54.0551C132.433 53.5554 132.281 52.982 132.281 52.3348V46.2528H133.676V52.2219C133.676 52.6404 133.768 53.0121 133.951 53.3372C134.138 53.6623 134.401 53.9182 134.742 54.1048C135.082 54.2884 135.485 54.3802 135.952 54.3802C136.421 54.3802 136.826 54.2884 137.166 54.1048C137.509 53.9182 137.771 53.6623 137.952 53.3372C138.136 53.0121 138.227 52.6404 138.227 52.2219V46.2528ZM142.37 46.2528L144.583 49.8695H144.655L146.867 46.2528H148.484L145.603 50.8764L148.502 55.5H146.876L144.655 51.933H144.583L142.361 55.5H140.736L143.684 50.8764L140.754 46.2528H142.37ZM155.714 55.5H152.721V46.2528H155.809C156.715 46.2528 157.493 46.4379 158.143 46.8082C158.794 47.1754 159.292 47.7037 159.638 48.393C159.987 49.0793 160.162 49.9026 160.162 50.8629C160.162 51.8261 159.986 52.6539 159.633 53.3462C159.284 54.0386 158.779 54.5714 158.116 54.9446C157.454 55.3149 156.653 55.5 155.714 55.5ZM154.116 54.2809H155.637C156.342 54.2809 156.927 54.1484 157.394 53.8835C157.86 53.6156 158.21 53.2288 158.441 52.7231C158.673 52.2144 158.789 51.5943 158.789 50.8629C158.789 50.1374 158.673 49.5218 158.441 49.0161C158.213 48.5104 157.871 48.1266 157.416 47.8647C156.962 47.6029 156.398 47.4719 155.723 47.4719H154.116V54.2809ZM164.521 55.64C163.838 55.64 163.25 55.494 162.756 55.202C162.265 54.907 161.886 54.4931 161.618 53.9603C161.353 53.4245 161.221 52.7969 161.221 52.0775C161.221 51.3671 161.353 50.7409 161.618 50.1991C161.886 49.6573 162.259 49.2344 162.738 48.9303C163.219 48.6263 163.782 48.4743 164.427 48.4743C164.818 48.4743 165.197 48.539 165.564 48.6685C165.932 48.7979 166.261 49.0011 166.553 49.278C166.845 49.5549 167.076 49.9147 167.244 50.3572C167.413 50.7966 167.497 51.3309 167.497 51.9601V52.4387H161.984V51.4273H166.174C166.174 51.0721 166.102 50.7575 165.957 50.4836C165.813 50.2066 165.61 49.9884 165.348 49.8289C165.089 49.6693 164.785 49.5896 164.436 49.5896C164.056 49.5896 163.725 49.6829 163.442 49.8695C163.162 50.0531 162.946 50.2939 162.792 50.5919C162.642 50.8869 162.566 51.2075 162.566 51.5537V52.3439C162.566 52.8074 162.648 53.2017 162.81 53.5268C162.976 53.8519 163.206 54.1003 163.501 54.2719C163.796 54.4404 164.141 54.5247 164.535 54.5247C164.791 54.5247 165.024 54.4886 165.235 54.4163C165.446 54.3411 165.628 54.2297 165.781 54.0822C165.935 53.9347 166.052 53.7526 166.133 53.5359L167.411 53.7662C167.309 54.1424 167.125 54.472 166.86 54.755C166.598 55.0349 166.269 55.2532 165.871 55.4097C165.477 55.5632 165.027 55.64 164.521 55.64ZM173.936 50.2578L172.712 50.4745C172.661 50.318 172.58 50.169 172.468 50.0275C172.36 49.8861 172.213 49.7702 172.026 49.6799C171.839 49.5896 171.606 49.5444 171.326 49.5444C170.944 49.5444 170.625 49.6302 170.369 49.8018C170.113 49.9703 169.985 50.1886 169.985 50.4565C169.985 50.6883 170.071 50.8749 170.242 51.0164C170.414 51.1579 170.691 51.2737 171.073 51.364L172.175 51.6169C172.813 51.7644 173.289 51.9917 173.602 52.2987C173.915 52.6057 174.071 53.0046 174.071 53.4952C174.071 53.9106 173.951 54.2809 173.71 54.606C173.472 54.9281 173.14 55.1809 172.712 55.3645C172.288 55.5482 171.796 55.64 171.236 55.64C170.459 55.64 169.825 55.4744 169.335 55.1433C168.844 54.8092 168.543 54.3351 168.432 53.721L169.737 53.5223C169.818 53.8625 169.985 54.1198 170.238 54.2944C170.491 54.466 170.82 54.5518 171.227 54.5518C171.669 54.5518 172.023 54.46 172.288 54.2764C172.553 54.0897 172.685 53.8625 172.685 53.5946C172.685 53.3778 172.604 53.1957 172.441 53.0482C172.282 52.9007 172.036 52.7894 171.705 52.7141L170.531 52.4567C169.884 52.3092 169.406 52.0744 169.095 51.7524C168.788 51.4303 168.635 51.0224 168.635 50.5287C168.635 50.1193 168.749 49.7611 168.978 49.4541C169.207 49.1471 169.523 48.9078 169.926 48.7362C170.33 48.5616 170.792 48.4743 171.312 48.4743C172.062 48.4743 172.652 48.6368 173.082 48.9619C173.513 49.284 173.797 49.716 173.936 50.2578ZM175.3 55.5V48.5646H176.65V55.5H175.3ZM175.981 47.4945C175.747 47.4945 175.545 47.4162 175.376 47.2597C175.211 47.1002 175.128 46.9105 175.128 46.6908C175.128 46.468 175.211 46.2784 175.376 46.1219C175.545 45.9623 175.747 45.8826 175.981 45.8826C176.216 45.8826 176.416 45.9623 176.582 46.1219C176.75 46.2784 176.835 46.468 176.835 46.6908C176.835 46.9105 176.75 47.1002 176.582 47.2597C176.416 47.4162 176.216 47.4945 175.981 47.4945ZM181.118 58.2453C180.567 58.2453 180.093 58.173 179.695 58.0285C179.301 57.884 178.979 57.6929 178.729 57.4551C178.479 57.2173 178.293 56.9569 178.169 56.674L179.33 56.1953C179.411 56.3278 179.519 56.4678 179.655 56.6153C179.793 56.7658 179.98 56.8937 180.215 56.9991C180.452 57.1044 180.758 57.1571 181.131 57.1571C181.643 57.1571 182.066 57.0322 182.4 56.7823C182.734 56.5355 182.901 56.1412 182.901 55.5993V54.2357H182.815C182.734 54.3832 182.617 54.5473 182.463 54.7279C182.313 54.9085 182.105 55.065 181.84 55.1975C181.575 55.3299 181.231 55.3961 180.806 55.3961C180.258 55.3961 179.765 55.2682 179.325 55.0124C178.889 54.7535 178.542 54.3727 178.287 53.87C178.034 53.3643 177.907 52.7427 177.907 52.0052C177.907 51.2677 178.032 50.6356 178.282 50.1088C178.535 49.582 178.881 49.1787 179.321 48.8987C179.76 48.6158 180.258 48.4743 180.815 48.4743C181.246 48.4743 181.593 48.5465 181.858 48.691C182.123 48.8325 182.329 48.9981 182.477 49.1877C182.627 49.3773 182.743 49.5444 182.824 49.6889H182.924V48.5646H184.247V55.6535C184.247 56.2495 184.108 56.7387 183.831 57.121C183.554 57.5033 183.18 57.7862 182.707 57.9698C182.237 58.1535 181.708 58.2453 181.118 58.2453ZM181.104 54.2764C181.492 54.2764 181.821 54.1861 182.088 54.0055C182.359 53.8218 182.564 53.56 182.702 53.2198C182.844 52.8767 182.915 52.4658 182.915 51.9871C182.915 51.5206 182.845 51.1097 182.707 50.7545C182.569 50.3993 182.365 50.1224 182.097 49.9237C181.83 49.722 181.498 49.6212 181.104 49.6212C180.698 49.6212 180.359 49.7265 180.088 49.9372C179.817 50.1449 179.613 50.4279 179.474 50.7861C179.339 51.1443 179.271 51.5447 179.271 51.9871C179.271 52.4417 179.34 52.8405 179.479 53.1837C179.617 53.5268 179.822 53.7947 180.093 53.9874C180.367 54.18 180.704 54.2764 181.104 54.2764ZM187.151 51.3821V55.5H185.801V48.5646H187.097V49.6934H187.183C187.342 49.3262 187.592 49.0312 187.932 48.8084C188.276 48.5857 188.708 48.4743 189.228 48.4743C189.701 48.4743 190.115 48.5736 190.47 48.7723C190.825 48.968 191.101 49.2599 191.296 49.6483C191.492 50.0366 191.59 50.5167 191.59 51.0886V55.5H190.24V51.2512C190.24 50.7485 190.109 50.3556 189.847 50.0727C189.585 49.7867 189.225 49.6437 188.768 49.6437C188.455 49.6437 188.176 49.7115 187.932 49.8469C187.692 49.9824 187.5 50.1811 187.359 50.4429C187.221 50.7018 187.151 51.0149 187.151 51.3821Z" fill="#00FF72"/>
<path d="M204.75 0C232.917 0 255.938 22.8335 255.938 51C255.938 79.1665 232.917 102 204.75 102V0Z" fill="#00FF72"/>
<path d="M255.938 0C284.104 0 307.125 22.8335 307.125 51C307.125 79.1665 284.104 102 255.938 102V0Z" fill="#272A40"/>
<path d="M307.125 0C335.292 0 358.312 22.8335 358.312 51C358.312 79.1665 335.292 102 307.125 102V0Z" fill="#EDF4FE"/>
<path d="M665.438 0C693.604 0 716.625 22.8335 716.625 51C716.625 79.1665 693.604 102 665.438 102V0Z" fill="#272A40"/>
<path d="M460.688 51C460.688 22.8335 483.708 0 511.875 0V102C483.708 102 460.688 79.1665 460.688 51Z" fill="#272A40"/>
<path d="M511.875 51C511.875 22.8335 534.896 0 563.062 0V102C534.896 102 511.875 79.1665 511.875 51Z" fill="#EDF4FE"/>
</svg>
