<svg width="345" height="170" viewBox="0 0 345 170" fill="none" xmlns="http://www.w3.org/2000/svg">
<path d="M0 74.9298C0 54.5772 16.4991 38.0781 36.8517 38.0781H38.3622C59.3944 38.0781 76.4444 55.1281 76.4444 76.1603H0L0 74.9298Z" fill="#EDF4FE"/>
<path d="M16.9813 63.25V56.345H19.4425C19.9797 56.345 20.4248 56.4428 20.7776 56.6384C21.1305 56.8339 21.3946 57.1014 21.57 57.4408C21.7453 57.7779 21.8329 58.1578 21.8329 58.5804C21.8329 59.0052 21.7442 59.3873 21.5666 59.7267C21.3913 60.0639 21.126 60.3313 20.7709 60.5291C20.418 60.7247 19.9741 60.8225 19.4391 60.8225H17.7466V59.9391H19.3447C19.6841 59.9391 19.9595 59.8807 20.1708 59.7638C20.382 59.6447 20.5371 59.4828 20.636 59.2783C20.7349 59.0737 20.7844 58.8411 20.7844 58.5804C20.7844 58.3196 20.7349 58.0881 20.636 57.8858C20.5371 57.6835 20.3809 57.5251 20.1674 57.4104C19.9561 57.2958 19.6774 57.2385 19.3312 57.2385H18.0231V63.25H16.9813ZM22.7822 63.25V58.0713H23.7566V58.8939H23.8105C23.9049 58.6152 24.0712 58.3961 24.3095 58.2365C24.55 58.0746 24.822 57.9937 25.1254 57.9937C25.1884 57.9937 25.2625 57.996 25.3479 58.0005C25.4356 58.005 25.5042 58.0106 25.5536 58.0173V58.9816C25.5131 58.9704 25.4412 58.958 25.3378 58.9445C25.2344 58.9288 25.131 58.9209 25.0276 58.9209C24.7894 58.9209 24.577 58.9715 24.3904 59.0726C24.2061 59.1715 24.06 59.3098 23.9521 59.4873C23.8442 59.6627 23.7903 59.8627 23.7903 60.0875V63.25H22.7822ZM28.2308 63.3545C27.7453 63.3545 27.3216 63.2433 26.9597 63.0207C26.5978 62.7982 26.3168 62.4869 26.1168 62.0868C25.9167 61.6867 25.8167 61.2192 25.8167 60.6842C25.8167 60.147 25.9167 59.6773 26.1168 59.2749C26.3168 58.8726 26.5978 58.5601 26.9597 58.3376C27.3216 58.1151 27.7453 58.0038 28.2308 58.0038C28.7163 58.0038 29.14 58.1151 29.5018 58.3376C29.8637 58.5601 30.1447 58.8726 30.3447 59.2749C30.5448 59.6773 30.6448 60.147 30.6448 60.6842C30.6448 61.2192 30.5448 61.6867 30.3447 62.0868C30.1447 62.4869 29.8637 62.7982 29.5018 63.0207C29.14 63.2433 28.7163 63.3545 28.2308 63.3545ZM28.2341 62.5083C28.5488 62.5083 28.8095 62.4251 29.0163 62.2588C29.2231 62.0924 29.376 61.871 29.4749 61.5946C29.576 61.3181 29.6266 61.0135 29.6266 60.6809C29.6266 60.3505 29.576 60.047 29.4749 59.7705C29.376 59.4918 29.2231 59.2682 29.0163 59.0996C28.8095 58.931 28.5488 58.8467 28.2341 58.8467C27.9172 58.8467 27.6542 58.931 27.4452 59.0996C27.2384 59.2682 27.0844 59.4918 26.9833 59.7705C26.8844 60.047 26.8349 60.3505 26.8349 60.6809C26.8349 61.0135 26.8844 61.3181 26.9833 61.5946C27.0844 61.871 27.2384 62.0924 27.4452 62.2588C27.6542 62.4251 27.9172 62.5083 28.2341 62.5083ZM33.9963 58.0713V58.8804H31.1675V58.0713H33.9963ZM31.9261 56.8305H32.9342V61.7294C32.9342 61.925 32.9635 62.0722 33.0219 62.1711C33.0803 62.2677 33.1556 62.3341 33.2478 62.37C33.3422 62.4037 33.4445 62.4206 33.5546 62.4206C33.6355 62.4206 33.7063 62.415 33.767 62.4037C33.8277 62.3925 33.8749 62.3835 33.9086 62.3768L34.0907 63.2095C34.0322 63.232 33.9491 63.2545 33.8412 63.277C33.7333 63.3017 33.5984 63.3152 33.4366 63.3174C33.1714 63.3219 32.9241 63.2747 32.6949 63.1758C32.4656 63.0769 32.2801 62.9241 32.1385 62.7173C31.9969 62.5105 31.9261 62.2509 31.9261 61.9385V56.8305ZM37.046 63.3545C36.5605 63.3545 36.1368 63.2433 35.7749 63.0207C35.413 62.7982 35.1321 62.4869 34.932 62.0868C34.732 61.6867 34.6319 61.2192 34.6319 60.6842C34.6319 60.147 34.732 59.6773 34.932 59.2749C35.1321 58.8726 35.413 58.5601 35.7749 58.3376C36.1368 58.1151 36.5605 58.0038 37.046 58.0038C37.5315 58.0038 37.9552 58.1151 38.3171 58.3376C38.679 58.5601 38.9599 58.8726 39.16 59.2749C39.36 59.6773 39.46 60.147 39.46 60.6842C39.46 61.2192 39.36 61.6867 39.16 62.0868C38.9599 62.4869 38.679 62.7982 38.3171 63.0207C37.9552 63.2433 37.5315 63.3545 37.046 63.3545ZM37.0494 62.5083C37.364 62.5083 37.6248 62.4251 37.8316 62.2588C38.0384 62.0924 38.1912 61.871 38.2901 61.5946C38.3912 61.3181 38.4418 61.0135 38.4418 60.6809C38.4418 60.3505 38.3912 60.047 38.2901 59.7705C38.1912 59.4918 38.0384 59.2682 37.8316 59.0996C37.6248 58.931 37.364 58.8467 37.0494 58.8467C36.7324 58.8467 36.4695 58.931 36.2604 59.0996C36.0536 59.2682 35.8997 59.4918 35.7985 59.7705C35.6996 60.047 35.6502 60.3505 35.6502 60.6809C35.6502 61.0135 35.6996 61.3181 35.7985 61.5946C35.8997 61.871 36.0536 62.0924 36.2604 62.2588C36.4695 62.4251 36.7324 62.5083 37.0494 62.5083ZM42.8115 58.0713V58.8804H39.9828V58.0713H42.8115ZM40.7414 56.8305H41.7495V61.7294C41.7495 61.925 41.7787 62.0722 41.8371 62.1711C41.8956 62.2677 41.9709 62.3341 42.063 62.37C42.1574 62.4037 42.2597 62.4206 42.3698 62.4206C42.4507 62.4206 42.5216 62.415 42.5822 62.4037C42.6429 62.3925 42.6901 62.3835 42.7238 62.3768L42.9059 63.2095C42.8475 63.232 42.7643 63.2545 42.6564 63.277C42.5485 63.3017 42.4137 63.3152 42.2518 63.3174C41.9866 63.3219 41.7393 63.2747 41.5101 63.1758C41.2808 63.0769 41.0954 62.9241 40.9538 62.7173C40.8122 62.5105 40.7414 62.2509 40.7414 61.9385V56.8305ZM44.3727 65.192C44.2221 65.192 44.085 65.1797 43.9613 65.1549C43.8377 65.1325 43.7456 65.1077 43.6849 65.0808L43.9276 64.2547C44.1119 64.3042 44.276 64.3255 44.4199 64.3188C44.5637 64.312 44.6907 64.2581 44.8009 64.157C44.9132 64.0558 45.0121 63.8906 45.0976 63.6613L45.2223 63.3174L43.3275 58.0713H44.4064L45.7179 62.0902H45.7719L47.0834 58.0713H48.1657L46.0315 63.9412C45.9326 64.2109 45.8067 64.439 45.6539 64.6256C45.501 64.8144 45.319 64.956 45.1077 65.0504C44.8964 65.1448 44.6514 65.192 44.3727 65.192ZM48.9219 65.192V58.0713H49.9064V58.9108H49.9907C50.0491 58.8029 50.1334 58.6782 50.2435 58.5365C50.3537 58.3949 50.5065 58.2713 50.7021 58.1657C50.8976 58.0578 51.1561 58.0038 51.4775 58.0038C51.8956 58.0038 52.2687 58.1095 52.5969 58.3208C52.9251 58.5321 53.1824 58.8366 53.369 59.2345C53.5578 59.6323 53.6522 60.1111 53.6522 60.6707C53.6522 61.2304 53.5589 61.7103 53.3724 62.1104C53.1858 62.5083 52.9296 62.8151 52.6036 63.0308C52.2777 63.2444 51.9057 63.3511 51.4877 63.3511C51.173 63.3511 50.9156 63.2983 50.7156 63.1927C50.5178 63.087 50.3627 62.9634 50.2503 62.8218C50.1379 62.6802 50.0514 62.5543 49.9907 62.4442H49.93V65.192H48.9219ZM49.9098 60.6606C49.9098 61.0248 49.9626 61.3439 50.0682 61.6182C50.1739 61.8924 50.3267 62.107 50.5268 62.2621C50.7268 62.415 50.9718 62.4914 51.2618 62.4914C51.563 62.4914 51.8147 62.4116 52.017 62.252C52.2193 62.0902 52.3721 61.871 52.4755 61.5946C52.5812 61.3181 52.634 61.0068 52.634 60.6606C52.634 60.319 52.5823 60.0122 52.4789 59.7402C52.3778 59.4682 52.2249 59.2536 52.0204 59.0962C51.8181 58.9389 51.5652 58.8602 51.2618 58.8602C50.9696 58.8602 50.7223 58.9355 50.52 59.0861C50.32 59.2367 50.1683 59.4469 50.0649 59.7166C49.9615 59.9863 49.9098 60.301 49.9098 60.6606ZM56.8225 63.3545C56.3122 63.3545 55.8728 63.2455 55.5042 63.0275C55.1378 62.8072 54.8546 62.4981 54.6545 62.1003C54.4567 61.7002 54.3578 61.2316 54.3578 60.6944C54.3578 60.1639 54.4567 59.6964 54.6545 59.2918C54.8546 58.8872 55.1333 58.5714 55.4907 58.3444C55.8503 58.1173 56.2706 58.0038 56.7517 58.0038C57.0439 58.0038 57.3271 58.0522 57.6013 58.1488C57.8755 58.2455 58.1216 58.3972 58.3397 58.604C58.5577 58.8108 58.7296 59.0794 58.8555 59.4098C58.9814 59.7379 59.0443 60.1369 59.0443 60.6067V60.9641H54.9276V60.2088H58.0565C58.0565 59.9436 58.0025 59.7087 57.8946 59.5042C57.7867 59.2974 57.635 59.1344 57.4395 59.0153C57.2462 58.8962 57.0191 58.8366 56.7584 58.8366C56.4752 58.8366 56.2279 58.9063 56.0167 59.0457C55.8076 59.1828 55.6458 59.3626 55.5311 59.5851C55.4188 59.8054 55.3626 60.0448 55.3626 60.3032V60.8933C55.3626 61.2394 55.4233 61.5339 55.5446 61.7766C55.6683 62.0194 55.8402 62.2048 56.0605 62.3329C56.2808 62.4588 56.5381 62.5217 56.8326 62.5217C57.0236 62.5217 57.1978 62.4948 57.3552 62.4408C57.5125 62.3846 57.6485 62.3015 57.7631 62.1913C57.8778 62.0812 57.9654 61.9452 58.0261 61.7834L58.9803 61.9553C58.9038 62.2363 58.7667 62.4824 58.5689 62.6937C58.3734 62.9027 58.1273 63.0657 57.8306 63.1826C57.5361 63.2972 57.2001 63.3545 56.8225 63.3545Z" fill="#272A40"/>
<path d="M344.445 39.3124C344.445 59.665 327.946 76.1641 307.594 76.1641H306.083C285.051 76.1641 268.001 59.1141 268.001 38.0818L344.445 38.0818V39.3124Z" fill="#EDF4FE"/>
<path d="M267.555 0L343.999 0C343.999 21.0322 326.809 38.0822 305.777 38.0822C284.745 38.0822 267.555 21.0322 267.555 0Z" fill="#00FF72"/>
<path d="M284.536 19.6719V12.7669H286.997C287.534 12.7669 287.979 12.8647 288.332 13.0602C288.685 13.2558 288.949 13.5233 289.125 13.8627C289.3 14.1998 289.388 14.5797 289.388 15.0023C289.388 15.4271 289.299 15.8092 289.121 16.1486C288.946 16.4857 288.681 16.7532 288.326 16.951C287.973 17.1466 287.529 17.2443 286.994 17.2443H285.301V16.361H286.899C287.239 16.361 287.514 16.3026 287.725 16.1857C287.937 16.0665 288.092 15.9047 288.191 15.7002C288.29 15.4956 288.339 15.263 288.339 15.0023C288.339 14.7415 288.29 14.51 288.191 14.3077C288.092 14.1054 287.936 13.947 287.722 13.8323C287.511 13.7177 287.232 13.6604 286.886 13.6604H285.578V19.6719H284.536ZM290.337 19.6719V14.4931H291.311V15.3158H291.365C291.46 15.0371 291.626 14.8179 291.864 14.6584C292.105 14.4965 292.377 14.4156 292.68 14.4156C292.743 14.4156 292.817 14.4178 292.903 14.4223C292.99 14.4268 293.059 14.4325 293.108 14.4392V15.4035C293.068 15.3922 292.996 15.3799 292.893 15.3664C292.789 15.3506 292.686 15.3428 292.582 15.3428C292.344 15.3428 292.132 15.3934 291.945 15.4945C291.761 15.5934 291.615 15.7316 291.507 15.9092C291.399 16.0845 291.345 16.2846 291.345 16.5093V19.6719H290.337ZM295.785 19.7764C295.3 19.7764 294.876 19.6651 294.514 19.4426C294.152 19.2201 293.872 18.9088 293.671 18.5087C293.471 18.1086 293.371 17.6411 293.371 17.1061C293.371 16.5689 293.471 16.0991 293.671 15.6968C293.872 15.2945 294.152 14.982 294.514 14.7595C294.876 14.537 295.3 14.4257 295.785 14.4257C296.271 14.4257 296.695 14.537 297.057 14.7595C297.418 14.982 297.699 15.2945 297.899 15.6968C298.099 16.0991 298.199 16.5689 298.199 17.1061C298.199 17.6411 298.099 18.1086 297.899 18.5087C297.699 18.9088 297.418 19.2201 297.057 19.4426C296.695 19.6651 296.271 19.7764 295.785 19.7764ZM295.789 18.9301C296.104 18.9301 296.364 18.847 296.571 18.6806C296.778 18.5143 296.931 18.2929 297.03 18.0164C297.131 17.74 297.181 17.4354 297.181 17.1027C297.181 16.7723 297.131 16.4689 297.03 16.1924C296.931 15.9137 296.778 15.6901 296.571 15.5215C296.364 15.3529 296.104 15.2686 295.789 15.2686C295.472 15.2686 295.209 15.3529 295 15.5215C294.793 15.6901 294.639 15.9137 294.538 16.1924C294.439 16.4689 294.39 16.7723 294.39 17.1027C294.39 17.4354 294.439 17.74 294.538 18.0164C294.639 18.2929 294.793 18.5143 295 18.6806C295.209 18.847 295.472 18.9301 295.789 18.9301ZM301.551 14.4931V15.3023H298.722V14.4931H301.551ZM299.481 13.2524H300.489V18.1513C300.489 18.3468 300.518 18.4941 300.577 18.593C300.635 18.6896 300.71 18.7559 300.802 18.7919C300.897 18.8256 300.999 18.8425 301.109 18.8425C301.19 18.8425 301.261 18.8368 301.322 18.8256C301.382 18.8144 301.43 18.8054 301.463 18.7986L301.645 19.6314C301.587 19.6539 301.504 19.6764 301.396 19.6988C301.288 19.7236 301.153 19.7371 300.991 19.7393C300.726 19.7438 300.479 19.6966 300.25 19.5977C300.02 19.4988 299.835 19.346 299.693 19.1392C299.552 18.9324 299.481 18.6728 299.481 18.3603V13.2524ZM304.601 19.7764C304.115 19.7764 303.691 19.6651 303.33 19.4426C302.968 19.2201 302.687 18.9088 302.487 18.5087C302.287 18.1086 302.187 17.6411 302.187 17.1061C302.187 16.5689 302.287 16.0991 302.487 15.6968C302.687 15.2945 302.968 14.982 303.33 14.7595C303.691 14.537 304.115 14.4257 304.601 14.4257C305.086 14.4257 305.51 14.537 305.872 14.7595C306.234 14.982 306.515 15.2945 306.715 15.6968C306.915 16.0991 307.015 16.5689 307.015 17.1061C307.015 17.6411 306.915 18.1086 306.715 18.5087C306.515 18.9088 306.234 19.2201 305.872 19.4426C305.51 19.6651 305.086 19.7764 304.601 19.7764ZM304.604 18.9301C304.919 18.9301 305.179 18.847 305.386 18.6806C305.593 18.5143 305.746 18.2929 305.845 18.0164C305.946 17.74 305.997 17.4354 305.997 17.1027C305.997 16.7723 305.946 16.4689 305.845 16.1924C305.746 15.9137 305.593 15.6901 305.386 15.5215C305.179 15.3529 304.919 15.2686 304.604 15.2686C304.287 15.2686 304.024 15.3529 303.815 15.5215C303.608 15.6901 303.454 15.9137 303.353 16.1924C303.254 16.4689 303.205 16.7723 303.205 17.1027C303.205 17.4354 303.254 17.74 303.353 18.0164C303.454 18.2929 303.608 18.5143 303.815 18.6806C304.024 18.847 304.287 18.9301 304.604 18.9301ZM310.366 14.4931V15.3023H307.537V14.4931H310.366ZM308.296 13.2524H309.304V18.1513C309.304 18.3468 309.333 18.4941 309.392 18.593C309.45 18.6896 309.526 18.7559 309.618 18.7919C309.712 18.8256 309.814 18.8425 309.925 18.8425C310.005 18.8425 310.076 18.8368 310.137 18.8256C310.198 18.8144 310.245 18.8054 310.279 18.7986L310.461 19.6314C310.402 19.6539 310.319 19.6764 310.211 19.6988C310.103 19.7236 309.968 19.7371 309.807 19.7393C309.541 19.7438 309.294 19.6966 309.065 19.5977C308.836 19.4988 308.65 19.346 308.508 19.1392C308.367 18.9324 308.296 18.6728 308.296 18.3603V13.2524ZM311.927 21.6139C311.777 21.6139 311.64 21.6015 311.516 21.5768C311.392 21.5543 311.3 21.5296 311.24 21.5026L311.482 20.6766C311.667 20.7261 311.831 20.7474 311.975 20.7407C312.118 20.7339 312.245 20.68 312.356 20.5788C312.468 20.4777 312.567 20.3125 312.652 20.0832L312.777 19.7393L310.882 14.4931H311.961L313.273 18.5121H313.327L314.638 14.4931H315.72L313.586 20.363C313.487 20.6328 313.361 20.8609 313.209 21.0475C313.056 21.2363 312.874 21.3779 312.662 21.4723C312.451 21.5667 312.206 21.6139 311.927 21.6139ZM316.477 21.6139V14.4931H317.461V15.3327H317.545C317.604 15.2248 317.688 15.1 317.798 14.9584C317.908 14.8168 318.061 14.6932 318.257 14.5875C318.452 14.4797 318.711 14.4257 319.032 14.4257C319.45 14.4257 319.823 14.5314 320.152 14.7426C320.48 14.9539 320.737 15.2585 320.924 15.6563C321.112 16.0542 321.207 16.5329 321.207 17.0926C321.207 17.6523 321.114 18.1322 320.927 18.5323C320.74 18.9301 320.484 19.2369 320.158 19.4527C319.832 19.6663 319.46 19.773 319.042 19.773C318.728 19.773 318.47 19.7202 318.27 19.6146C318.072 19.5089 317.917 19.3853 317.805 19.2437C317.693 19.1021 317.606 18.9762 317.545 18.8661H317.485V21.6139H316.477ZM317.464 17.0825C317.464 17.4466 317.517 17.7658 317.623 18.04C317.729 18.3143 317.881 18.5289 318.081 18.684C318.281 18.8368 318.526 18.9133 318.816 18.9133C319.118 18.9133 319.369 18.8335 319.572 18.6739C319.774 18.5121 319.927 18.2929 320.03 18.0164C320.136 17.74 320.189 17.4287 320.189 17.0825C320.189 16.7409 320.137 16.434 320.034 16.1621C319.932 15.8901 319.78 15.6754 319.575 15.5181C319.373 15.3608 319.12 15.2821 318.816 15.2821C318.524 15.2821 318.277 15.3574 318.075 15.508C317.875 15.6586 317.723 15.8687 317.62 16.1385C317.516 16.4082 317.464 16.7229 317.464 17.0825ZM324.377 19.7764C323.867 19.7764 323.427 19.6674 323.059 19.4494C322.692 19.2291 322.409 18.92 322.209 18.5222C322.011 18.1221 321.913 17.6534 321.913 17.1162C321.913 16.5858 322.011 16.1182 322.209 15.7137C322.409 15.3091 322.688 14.9933 323.045 14.7662C323.405 14.5392 323.825 14.4257 324.306 14.4257C324.599 14.4257 324.882 14.474 325.156 14.5707C325.43 14.6673 325.676 14.8191 325.894 15.0259C326.112 15.2326 326.284 15.5012 326.41 15.8317C326.536 16.1598 326.599 16.5588 326.599 17.0286V17.386H322.482V16.6307H325.611C325.611 16.3655 325.557 16.1306 325.449 15.9261C325.341 15.7193 325.19 15.5563 324.994 15.4372C324.801 15.3181 324.574 15.2585 324.313 15.2585C324.03 15.2585 323.783 15.3282 323.571 15.4675C323.362 15.6046 323.2 15.7845 323.086 16.007C322.973 16.2273 322.917 16.4666 322.917 16.7251V17.3151C322.917 17.6613 322.978 17.9557 323.099 18.1985C323.223 18.4413 323.395 18.6267 323.615 18.7548C323.835 18.8807 324.093 18.9436 324.387 18.9436C324.578 18.9436 324.753 18.9166 324.91 18.8627C325.067 18.8065 325.203 18.7233 325.318 18.6132C325.432 18.5031 325.52 18.3671 325.581 18.2052L326.535 18.3772C326.459 18.6582 326.321 18.9043 326.124 19.1156C325.928 19.3246 325.682 19.4876 325.385 19.6044C325.091 19.7191 324.755 19.7764 324.377 19.7764Z" fill="#272A40"/>
<path d="M0 36.8517C0 16.4991 16.4991 0 36.8517 0L38.3622 0C59.3944 0 76.4444 17.05 76.4444 38.0822H0L0 36.8517Z" fill="#272A40"/>
<path d="M23.9216 18.2747H24.9668V22.8162C24.9668 23.2995 24.8533 23.7277 24.6263 24.1008C24.3993 24.4717 24.0801 24.7639 23.6687 24.9774C23.2574 25.1887 22.7753 25.2943 22.2223 25.2943C21.6717 25.2943 21.1906 25.1887 20.7793 24.9774C20.368 24.7639 20.0488 24.4717 19.8218 24.1008C19.5948 23.7277 19.4813 23.2995 19.4813 22.8162V18.2747H20.5231V22.7319C20.5231 23.0444 20.5916 23.322 20.7287 23.5647C20.8681 23.8075 21.0648 23.9985 21.3188 24.1379C21.5728 24.275 21.8739 24.3435 22.2223 24.3435C22.573 24.3435 22.8753 24.275 23.1293 24.1379C23.3855 23.9985 23.5811 23.8075 23.716 23.5647C23.8531 23.322 23.9216 23.0444 23.9216 22.7319V18.2747ZM27.0152 18.2747L28.6672 20.9753H28.7212L30.3732 18.2747H31.5803L29.4292 21.7272L31.5938 25.1797H30.38L28.7212 22.5161H28.6672L27.0084 25.1797H25.7947L27.9963 21.7272L25.8081 18.2747H27.0152ZM35.3272 25.1797H34.2213L36.7062 18.2747H37.9098L40.3947 25.1797H39.2888L37.3366 19.5289H37.2827L35.3272 25.1797ZM35.5126 22.4757H39.1V23.3523H35.5126V22.4757ZM44.4002 23.032V20.001H45.4117V25.1797H44.4204V24.2829H44.3665C44.2474 24.5593 44.0563 24.7897 43.7933 24.974C43.5326 25.1561 43.2078 25.2471 42.8189 25.2471C42.4863 25.2471 42.1918 25.1741 41.9356 25.028C41.6816 24.8796 41.4816 24.6605 41.3355 24.3705C41.1916 24.0806 41.1197 23.722 41.1197 23.295V20.001H42.1278V23.1736C42.1278 23.5265 42.2255 23.8075 42.4211 24.0165C42.6166 24.2255 42.8706 24.3301 43.1831 24.3301C43.3719 24.3301 43.5596 24.2829 43.7461 24.1884C43.9349 24.094 44.0911 23.9513 44.2148 23.7603C44.3406 23.5692 44.4025 23.3264 44.4002 23.032ZM48.5137 25.2808C48.0956 25.2808 47.7225 25.1741 47.3943 24.9605C47.0684 24.7448 46.8121 24.4379 46.6256 24.0401C46.4413 23.64 46.3491 23.1601 46.3491 22.6004C46.3491 22.0408 46.4424 21.562 46.6289 21.1641C46.8178 20.7663 47.0762 20.4617 47.4044 20.2505C47.7326 20.0392 48.1046 19.9335 48.5204 19.9335C48.8418 19.9335 49.1003 19.9875 49.2959 20.0954C49.4937 20.201 49.6465 20.3246 49.7544 20.4662C49.8645 20.6078 49.9499 20.7326 50.0106 20.8405H50.0713V18.2747H51.0794V25.1797H50.0949V24.3739H50.0106C49.9499 24.484 49.8623 24.6099 49.7476 24.7515C49.6353 24.8931 49.4802 25.0167 49.2824 25.1224C49.0846 25.228 48.8283 25.2808 48.5137 25.2808ZM48.7362 24.4211C49.0261 24.4211 49.2711 24.3447 49.4712 24.1918C49.6735 24.0367 49.8263 23.8221 49.9297 23.5478C50.0354 23.2736 50.0882 22.9545 50.0882 22.5903C50.0882 22.2307 50.0365 21.916 49.9331 21.6463C49.8297 21.3766 49.678 21.1664 49.4779 21.0158C49.2779 20.8652 49.0306 20.7899 48.7362 20.7899C48.4327 20.7899 48.1799 20.8686 47.9776 21.0259C47.7753 21.1833 47.6224 21.3979 47.519 21.6699C47.4179 21.9419 47.3673 22.2487 47.3673 22.5903C47.3673 22.9365 47.419 23.2478 47.5224 23.5242C47.6258 23.8007 47.7787 24.0199 47.9809 24.1817C48.1855 24.3413 48.4372 24.4211 48.7362 24.4211ZM52.327 25.1797V20.001H53.3351V25.1797H52.327ZM52.8361 19.2019C52.6608 19.2019 52.5102 19.1435 52.3843 19.0266C52.2607 18.9074 52.1989 18.7658 52.1989 18.6018C52.1989 18.4354 52.2607 18.2938 52.3843 18.1769C52.5102 18.0578 52.6608 17.9982 52.8361 17.9982C53.0115 17.9982 53.1609 18.0578 53.2846 18.1769C53.4104 18.2938 53.4734 18.4354 53.4734 18.6018C53.4734 18.7658 53.4104 18.9074 53.2846 19.0266C53.1609 19.1435 53.0115 19.2019 52.8361 19.2019ZM56.9176 20.001V20.8101H54.0888V20.001H56.9176ZM54.8474 18.7602H55.8555V23.6591C55.8555 23.8547 55.8847 24.0019 55.9432 24.1008C56.0016 24.1974 56.0769 24.2637 56.1691 24.2997C56.2635 24.3334 56.3657 24.3503 56.4759 24.3503C56.5568 24.3503 56.6276 24.3447 56.6883 24.3334C56.749 24.3222 56.7962 24.3132 56.8299 24.3065L57.012 25.1392C56.9535 25.1617 56.8704 25.1842 56.7625 25.2067C56.6546 25.2314 56.5197 25.2449 56.3579 25.2471C56.0926 25.2516 55.8454 25.2044 55.6161 25.1055C55.3869 25.0066 55.2014 24.8538 55.0598 24.647C54.9182 24.4402 54.8474 24.1806 54.8474 23.8681V18.7602Z" fill="#00FF72"/>
<path d="M76.4453 36.8517C76.4453 16.4991 92.9444 0 113.297 0C135.163 0 152.89 17.7329 152.89 39.5994C152.89 59.7903 136.522 76.1644 116.331 76.1644H114.37C93.4246 76.1644 76.4453 59.1852 76.4453 38.2402V36.8517Z" fill="#272A40"/>
<path d="M90.3669 34.681H91.4121V39.2225C91.4121 39.7057 91.2986 40.1339 91.0716 40.507C90.8446 40.8779 90.5254 41.1701 90.1141 41.3836C89.7027 41.5949 89.2206 41.7006 88.6677 41.7006C88.117 41.7006 87.636 41.5949 87.2246 41.3836C86.8133 41.1701 86.4941 40.8779 86.2671 40.507C86.0401 40.1339 85.9266 39.7057 85.9266 39.2225V34.681H86.9684V39.1382C86.9684 39.4506 87.0369 39.7282 87.1741 39.971C87.3134 40.2137 87.5101 40.4048 87.7641 40.5441C88.0181 40.6812 88.3193 40.7498 88.6677 40.7498C89.0183 40.7498 89.3206 40.6812 89.5746 40.5441C89.8308 40.4048 90.0264 40.2137 90.1613 39.971C90.2984 39.7282 90.3669 39.4506 90.3669 39.1382V34.681ZM93.7774 34.681V41.5859H92.7356V34.681H93.7774ZM97.6523 34.3573L95.4271 42.6244H94.5269L96.7521 34.3573H97.6523ZM102.839 34.681H103.884V39.2225C103.884 39.7057 103.77 40.1339 103.543 40.507C103.316 40.8779 102.997 41.1701 102.586 41.3836C102.175 41.5949 101.692 41.7006 101.139 41.7006C100.589 41.7006 100.108 41.5949 99.6965 41.3836C99.2851 41.1701 98.9659 40.8779 98.7389 40.507C98.5119 40.1339 98.3984 39.7057 98.3984 39.2225V34.681H99.4402V39.1382C99.4402 39.4506 99.5088 39.7282 99.6459 39.971C99.7852 40.2137 99.9819 40.4048 100.236 40.5441C100.49 40.6812 100.791 40.7498 101.139 40.7498C101.49 40.7498 101.792 40.6812 102.046 40.5441C102.303 40.4048 102.498 40.2137 102.633 39.971C102.77 39.7282 102.839 39.4506 102.839 39.1382V34.681ZM105.932 34.681L107.584 37.3816H107.638L109.29 34.681H110.497L108.346 38.1335L110.511 41.5859H109.297L107.638 38.9224H107.584L105.926 41.5859H104.712L106.913 38.1335L104.725 34.681H105.932ZM115.896 41.5859H113.661V34.681H115.967C116.644 34.681 117.225 34.8192 117.71 35.0957C118.196 35.3699 118.568 35.7644 118.826 36.2791C119.087 36.7916 119.217 37.4063 119.217 38.1233C119.217 38.8426 119.086 39.4607 118.823 39.9777C118.562 40.4947 118.185 40.8925 117.69 41.1712C117.196 41.4477 116.598 41.5859 115.896 41.5859ZM114.703 40.6756H115.839C116.365 40.6756 116.802 40.5767 117.151 40.3789C117.499 40.1789 117.76 39.89 117.933 39.5124C118.106 39.1326 118.192 38.6695 118.192 38.1233C118.192 37.5816 118.106 37.122 117.933 36.7444C117.762 36.3667 117.507 36.0802 117.167 35.8846C116.828 35.6891 116.407 35.5913 115.903 35.5913H114.703V40.6756ZM122.473 41.6905C121.963 41.6905 121.523 41.5814 121.154 41.3634C120.788 41.1431 120.505 40.8341 120.305 40.4362C120.107 40.0361 120.008 39.5675 120.008 39.0303C120.008 38.4998 120.107 38.0323 120.305 37.6277C120.505 37.2231 120.784 36.9073 121.141 36.6803C121.501 36.4533 121.921 36.3398 122.402 36.3398C122.694 36.3398 122.977 36.3881 123.252 36.4848C123.526 36.5814 123.772 36.7331 123.99 36.9399C124.208 37.1467 124.38 37.4153 124.506 37.7457C124.632 38.0739 124.695 38.4729 124.695 38.9426V39.3H120.578V38.5448H123.707C123.707 38.2796 123.653 38.0447 123.545 37.8401C123.437 37.6333 123.285 37.4704 123.09 37.3512C122.896 37.2321 122.669 37.1726 122.409 37.1726C122.125 37.1726 121.878 37.2422 121.667 37.3816C121.458 37.5187 121.296 37.6985 121.181 37.921C121.069 38.1413 121.013 38.3807 121.013 38.6392V39.2292C121.013 39.5754 121.074 39.8698 121.195 40.1126C121.319 40.3553 121.491 40.5408 121.711 40.6689C121.931 40.7947 122.188 40.8577 122.483 40.8577C122.674 40.8577 122.848 40.8307 123.005 40.7768C123.163 40.7206 123.299 40.6374 123.413 40.5273C123.528 40.4171 123.616 40.2811 123.676 40.1193L124.631 40.2913C124.554 40.5722 124.417 40.8183 124.219 41.0296C124.024 41.2387 123.778 41.4016 123.481 41.5185C123.186 41.6331 122.85 41.6905 122.473 41.6905ZM129.503 37.6715L128.589 37.8334C128.551 37.7165 128.49 37.6052 128.407 37.4996C128.326 37.394 128.216 37.3074 128.076 37.24C127.937 37.1726 127.763 37.1388 127.554 37.1388C127.268 37.1388 127.03 37.2029 126.839 37.331C126.648 37.4569 126.553 37.6198 126.553 37.8199C126.553 37.993 126.617 38.1323 126.745 38.238C126.873 38.3436 127.08 38.4301 127.365 38.4976L128.188 38.6864C128.664 38.7965 129.019 38.9662 129.253 39.1955C129.487 39.4248 129.604 39.7226 129.604 40.089C129.604 40.3991 129.514 40.6756 129.334 40.9184C129.156 41.1589 128.908 41.3477 128.589 41.4848C128.272 41.6219 127.905 41.6905 127.486 41.6905C126.907 41.6905 126.433 41.5668 126.067 41.3196C125.701 41.0701 125.476 40.7161 125.393 40.2575L126.367 40.1092C126.428 40.3632 126.553 40.5554 126.741 40.6857C126.93 40.8138 127.176 40.8779 127.48 40.8779C127.81 40.8779 128.074 40.8094 128.272 40.6722C128.47 40.5329 128.569 40.3632 128.569 40.1631C128.569 40.0013 128.508 39.8653 128.387 39.7552C128.268 39.645 128.084 39.5619 127.837 39.5057L126.96 39.3135C126.477 39.2034 126.12 39.028 125.888 38.7875C125.659 38.547 125.544 38.2425 125.544 37.8738C125.544 37.5682 125.63 37.3007 125.801 37.0714C125.971 36.8421 126.207 36.6634 126.509 36.5353C126.81 36.405 127.155 36.3398 127.544 36.3398C128.103 36.3398 128.544 36.4612 128.865 36.7039C129.187 36.9444 129.399 37.267 129.503 37.6715ZM130.521 41.5859V36.4072H131.529V41.5859H130.521ZM131.03 35.6081C130.855 35.6081 130.704 35.5497 130.578 35.4328C130.455 35.3137 130.393 35.1721 130.393 35.008C130.393 34.8417 130.455 34.7001 130.578 34.5832C130.704 34.4641 130.855 34.4045 131.03 34.4045C131.205 34.4045 131.355 34.4641 131.478 34.5832C131.604 34.7001 131.667 34.8417 131.667 35.008C131.667 35.1721 131.604 35.3137 131.478 35.4328C131.355 35.5497 131.205 35.6081 131.03 35.6081ZM134.865 43.6359C134.454 43.6359 134.1 43.5819 133.803 43.474C133.509 43.3661 133.268 43.2234 133.082 43.0458C132.895 42.8683 132.756 42.6738 132.664 42.4625L133.53 42.1052C133.591 42.2041 133.672 42.3086 133.773 42.4187C133.876 42.5311 134.016 42.6266 134.191 42.7053C134.369 42.784 134.597 42.8233 134.875 42.8233C135.258 42.8233 135.573 42.73 135.823 42.5435C136.072 42.3592 136.197 42.0647 136.197 41.6601V40.6419H136.133C136.072 40.752 135.985 40.8745 135.87 41.0094C135.758 41.1443 135.603 41.2611 135.405 41.36C135.207 41.4589 134.95 41.5084 134.633 41.5084C134.224 41.5084 133.855 41.4129 133.527 41.2218C133.201 41.0285 132.942 40.7442 132.751 40.3688C132.563 39.9912 132.468 39.527 132.468 38.9763C132.468 38.4257 132.561 37.9536 132.748 37.5603C132.937 37.1669 133.195 36.8657 133.523 36.6567C133.852 36.4454 134.224 36.3398 134.639 36.3398C134.961 36.3398 135.221 36.3937 135.418 36.5016C135.616 36.6073 135.77 36.7309 135.88 36.8725C135.993 37.0141 136.079 37.1388 136.14 37.2467H136.214V36.4072H137.202V41.7006C137.202 42.1456 137.098 42.5109 136.892 42.7963C136.685 43.0818 136.405 43.2931 136.052 43.4302C135.702 43.5673 135.306 43.6359 134.865 43.6359ZM134.855 40.6722C135.145 40.6722 135.39 40.6048 135.59 40.4699C135.793 40.3328 135.945 40.1373 136.049 39.8833C136.154 39.6271 136.207 39.3202 136.207 38.9629C136.207 38.6145 136.156 38.3076 136.052 38.0424C135.949 37.7772 135.797 37.5704 135.597 37.422C135.397 37.2715 135.15 37.1962 134.855 37.1962C134.552 37.1962 134.299 37.2748 134.097 37.4322C133.894 37.5873 133.742 37.7985 133.638 38.066C133.537 38.3335 133.486 38.6324 133.486 38.9629C133.486 39.3023 133.538 39.6001 133.641 39.8563C133.745 40.1126 133.898 40.3126 134.1 40.4565C134.305 40.6003 134.556 40.6722 134.855 40.6722ZM139.371 38.5111V41.5859H138.363V36.4072H139.33V37.2501H139.394C139.513 36.9759 139.7 36.7556 139.954 36.5893C140.21 36.4229 140.533 36.3398 140.922 36.3398C141.275 36.3398 141.584 36.414 141.849 36.5623C142.114 36.7084 142.32 36.9264 142.466 37.2164C142.612 37.5063 142.685 37.8648 142.685 38.2919V41.5859H141.677V38.4133C141.677 38.0379 141.579 37.7446 141.384 37.5333C141.188 37.3198 140.919 37.213 140.578 37.213C140.344 37.213 140.136 37.2636 139.954 37.3647C139.774 37.4659 139.631 37.6142 139.526 37.8098C139.422 38.0031 139.371 38.2368 139.371 38.5111Z" fill="#00FF72"/>
<path d="M152.889 0C173.921 0 191.111 17.05 191.111 38.0822C191.111 59.1144 173.921 76.1644 152.889 76.1644V0Z" fill="#00FF72"/>
<path d="M191.111 0C212.144 0 229.334 17.05 229.334 38.0822C229.334 59.1144 212.144 76.1644 191.111 76.1644V0Z" fill="#272A40"/>
<path d="M229.334 0C250.366 0 267.556 17.05 267.556 38.0822C267.556 59.1144 250.366 76.1644 229.334 76.1644V0Z" fill="#EDF4FE"/>
<path d="M0 168.102C0 147.749 16.4991 131.25 36.8517 131.25H38.3622C59.3944 131.25 76.4444 148.3 76.4444 169.332H0L0 168.102Z" fill="#272A40"/>
<path d="M14.0645 156.422H12.9587L15.4435 149.517H16.6472L19.132 156.422H18.0261L16.074 150.771H16.0201L14.0645 156.422ZM14.25 153.718H17.8373V154.594H14.25V153.718ZM19.857 158.364V151.243H20.8415V152.083H20.9258C20.9843 151.975 21.0685 151.85 21.1787 151.708C21.2888 151.567 21.4417 151.443 21.6372 151.338C21.8328 151.23 22.0913 151.176 22.4127 151.176C22.8308 151.176 23.2039 151.281 23.532 151.493C23.8602 151.704 24.1176 152.008 24.3041 152.406C24.4929 152.804 24.5873 153.283 24.5873 153.843C24.5873 154.402 24.4941 154.882 24.3075 155.282C24.1209 155.68 23.8647 155.987 23.5388 156.203C23.2129 156.416 22.8409 156.523 22.4228 156.523C22.1081 156.523 21.8507 156.47 21.6507 156.365C21.4529 156.259 21.2978 156.135 21.1854 155.994C21.073 155.852 20.9865 155.726 20.9258 155.616H20.8651V158.364H19.857ZM20.8449 153.833C20.8449 154.197 20.8977 154.516 21.0034 154.79C21.109 155.064 21.2618 155.279 21.4619 155.434C21.6619 155.587 21.9069 155.663 22.1969 155.663C22.4981 155.663 22.7498 155.583 22.9521 155.424C23.1544 155.262 23.3073 155.043 23.4107 154.766C23.5163 154.49 23.5691 154.179 23.5691 153.833C23.5691 153.491 23.5174 153.184 23.414 152.912C23.3129 152.64 23.16 152.425 22.9555 152.268C22.7532 152.111 22.5003 152.032 22.1969 152.032C21.9047 152.032 21.6574 152.107 21.4552 152.258C21.2551 152.409 21.1034 152.619 21 152.888C20.8966 153.158 20.8449 153.473 20.8449 153.833ZM25.5256 158.364V151.243H26.5101V152.083H26.5944C26.6528 151.975 26.7371 151.85 26.8473 151.708C26.9574 151.567 27.1102 151.443 27.3058 151.338C27.5013 151.23 27.7598 151.176 28.0813 151.176C28.4993 151.176 28.8725 151.281 29.2006 151.493C29.5288 151.704 29.7861 152.008 29.9727 152.406C30.1615 152.804 30.2559 153.283 30.2559 153.843C30.2559 154.402 30.1626 154.882 29.9761 155.282C29.7895 155.68 29.5333 155.987 29.2074 156.203C28.8814 156.416 28.5094 156.523 28.0914 156.523C27.7767 156.523 27.5193 156.47 27.3193 156.365C27.1215 156.259 26.9664 156.135 26.854 155.994C26.7416 155.852 26.6551 155.726 26.5944 155.616H26.5337V158.364H25.5256ZM26.5135 153.833C26.5135 154.197 26.5663 154.516 26.6719 154.79C26.7776 155.064 26.9304 155.279 27.1305 155.434C27.3305 155.587 27.5755 155.663 27.8655 155.663C28.1667 155.663 28.4184 155.583 28.6207 155.424C28.823 155.262 28.9758 155.043 29.0792 154.766C29.1849 154.49 29.2377 154.179 29.2377 153.833C29.2377 153.491 29.186 153.184 29.0826 152.912C28.9815 152.64 28.8286 152.425 28.6241 152.268C28.4218 152.111 28.1689 152.032 27.8655 152.032C27.5733 152.032 27.326 152.107 27.1237 152.258C26.9237 152.409 26.772 152.619 26.6686 152.888C26.5652 153.158 26.5135 153.473 26.5135 153.833ZM35.8319 156.422H33.5966V149.517H35.9027C36.5793 149.517 37.1603 149.655 37.6458 149.932C38.1313 150.206 38.5033 150.6 38.7618 151.115C39.0225 151.628 39.1529 152.242 39.1529 152.959C39.1529 153.679 39.0214 154.297 38.7584 154.814C38.4977 155.331 38.1201 155.728 37.6256 156.007C37.1311 156.284 36.5332 156.422 35.8319 156.422ZM34.6384 155.512H35.7746C36.3006 155.512 36.7377 155.413 37.0861 155.215C37.4345 155.015 37.6953 154.726 37.8683 154.348C38.0414 153.968 38.128 153.505 38.128 152.959C38.128 152.418 38.0414 151.958 37.8683 151.58C37.6975 151.203 37.4424 150.916 37.103 150.721C36.7636 150.525 36.3421 150.427 35.8387 150.427H34.6384V155.512ZM42.4083 156.526C41.8981 156.526 41.4586 156.417 41.09 156.199C40.7236 155.979 40.4404 155.67 40.2404 155.272C40.0426 154.872 39.9437 154.403 39.9437 153.866C39.9437 153.336 40.0426 152.868 40.2404 152.464C40.4404 152.059 40.7191 151.743 41.0765 151.516C41.4362 151.289 41.8565 151.176 42.3375 151.176C42.6297 151.176 42.9129 151.224 43.1871 151.321C43.4613 151.417 43.7075 151.569 43.9255 151.776C44.1435 151.983 44.3155 152.251 44.4413 152.582C44.5672 152.91 44.6302 153.309 44.6302 153.779V154.136H40.5135V153.381H43.6423C43.6423 153.115 43.5883 152.881 43.4805 152.676C43.3726 152.469 43.2208 152.306 43.0253 152.187C42.832 152.068 42.605 152.008 42.3442 152.008C42.061 152.008 41.8138 152.078 41.6025 152.218C41.3935 152.355 41.2316 152.534 41.117 152.757C41.0046 152.977 40.9484 153.217 40.9484 153.475V154.065C40.9484 154.411 41.0091 154.706 41.1305 154.948C41.2541 155.191 41.426 155.377 41.6463 155.505C41.8666 155.631 42.124 155.694 42.4184 155.694C42.6095 155.694 42.7837 155.667 42.941 155.613C43.0983 155.557 43.2343 155.473 43.349 155.363C43.4636 155.253 43.5513 155.117 43.6119 154.955L44.5661 155.127C44.4897 155.408 44.3526 155.654 44.1548 155.866C43.9592 156.075 43.7131 156.238 43.4164 156.354C43.1219 156.469 42.7859 156.526 42.4083 156.526ZM49.4381 152.507L48.5245 152.669C48.4862 152.552 48.4256 152.441 48.3424 152.336C48.2615 152.23 48.1513 152.143 48.012 152.076C47.8726 152.008 47.6984 151.975 47.4894 151.975C47.2039 151.975 46.9657 152.039 46.7746 152.167C46.5835 152.293 46.488 152.456 46.488 152.656C46.488 152.829 46.5521 152.968 46.6802 153.074C46.8083 153.18 47.0151 153.266 47.3006 153.334L48.1232 153.522C48.5997 153.632 48.9549 153.802 49.1886 154.031C49.4224 154.261 49.5393 154.559 49.5393 154.925C49.5393 155.235 49.4494 155.512 49.2696 155.754C49.092 155.995 48.8436 156.184 48.5245 156.321C48.2075 156.458 47.84 156.526 47.4219 156.526C46.842 156.526 46.3689 156.403 46.0025 156.156C45.6361 155.906 45.4114 155.552 45.3282 155.093L46.3026 154.945C46.3633 155.199 46.488 155.391 46.6768 155.522C46.8656 155.65 47.1118 155.714 47.4152 155.714C47.7456 155.714 48.0097 155.645 48.2075 155.508C48.4053 155.369 48.5042 155.199 48.5042 154.999C48.5042 154.837 48.4435 154.701 48.3222 154.591C48.203 154.481 48.0198 154.398 47.7726 154.342L46.896 154.149C46.4127 154.039 46.0553 153.864 45.8238 153.623C45.5946 153.383 45.4799 153.078 45.4799 152.71C45.4799 152.404 45.5653 152.137 45.7362 151.907C45.907 151.678 46.143 151.499 46.4442 151.371C46.7454 151.241 47.0904 151.176 47.4793 151.176C48.0389 151.176 48.4795 151.297 48.8009 151.54C49.1223 151.78 49.3348 152.103 49.4381 152.507ZM50.4565 156.422V151.243H51.4646V156.422H50.4565ZM50.9656 150.444C50.7903 150.444 50.6397 150.386 50.5138 150.269C50.3902 150.15 50.3284 150.008 50.3284 149.844C50.3284 149.678 50.3902 149.536 50.5138 149.419C50.6397 149.3 50.7903 149.24 50.9656 149.24C51.1409 149.24 51.2904 149.3 51.414 149.419C51.5399 149.536 51.6028 149.678 51.6028 149.844C51.6028 150.008 51.5399 150.15 51.414 150.269C51.2904 150.386 51.1409 150.444 50.9656 150.444ZM54.8009 158.472C54.3896 158.472 54.0355 158.418 53.7388 158.31C53.4444 158.202 53.2039 158.059 53.0173 157.882C52.8308 157.704 52.6914 157.51 52.5993 157.298L53.4657 156.941C53.5264 157.04 53.6074 157.145 53.7085 157.255C53.8119 157.367 53.9513 157.463 54.1266 157.541C54.3041 157.62 54.5323 157.659 54.811 157.659C55.1931 157.659 55.5089 157.566 55.7584 157.379C56.0079 157.195 56.1327 156.901 56.1327 156.496V155.478H56.0686C56.0079 155.588 55.9202 155.71 55.8056 155.845C55.6932 155.98 55.5381 156.097 55.3403 156.196C55.1425 156.295 54.8852 156.344 54.5682 156.344C54.1592 156.344 53.7905 156.249 53.4624 156.058C53.1365 155.864 52.878 155.58 52.6869 155.205C52.4981 154.827 52.4037 154.363 52.4037 153.812C52.4037 153.262 52.497 152.79 52.6835 152.396C52.8724 152.003 53.1308 151.702 53.459 151.493C53.7872 151.281 54.1592 151.176 54.575 151.176C54.8964 151.176 55.156 151.23 55.3538 151.338C55.5516 151.443 55.7056 151.567 55.8157 151.708C55.9281 151.85 56.0147 151.975 56.0753 152.083H56.1495V151.243H57.1374V156.537C57.1374 156.982 57.034 157.347 56.8272 157.632C56.6204 157.918 56.3406 158.129 55.9877 158.266C55.637 158.403 55.2414 158.472 54.8009 158.472ZM54.7908 155.508C55.0807 155.508 55.3257 155.441 55.5258 155.306C55.7281 155.169 55.8809 154.973 55.9843 154.719C56.09 154.463 56.1428 154.156 56.1428 153.799C56.1428 153.45 56.0911 153.144 55.9877 152.878C55.8843 152.613 55.7326 152.406 55.5325 152.258C55.3325 152.107 55.0852 152.032 54.7908 152.032C54.4873 152.032 54.2345 152.111 54.0322 152.268C53.8299 152.423 53.677 152.634 53.5736 152.902C53.4725 153.169 53.4219 153.468 53.4219 153.799C53.4219 154.138 53.4736 154.436 53.577 154.692C53.6804 154.948 53.8332 155.149 54.0355 155.292C54.2401 155.436 54.4918 155.508 54.7908 155.508ZM59.3063 153.347V156.422H58.2982V151.243H59.2658V152.086H59.3299C59.449 151.812 59.6356 151.592 59.8896 151.425C60.1458 151.259 60.4683 151.176 60.8572 151.176C61.2101 151.176 61.5192 151.25 61.7844 151.398C62.0496 151.544 62.2553 151.762 62.4014 152.052C62.5475 152.342 62.6205 152.701 62.6205 153.128V156.422H61.6124V153.249C61.6124 152.874 61.5147 152.581 61.3191 152.369C61.1236 152.156 60.855 152.049 60.5133 152.049C60.2795 152.049 60.0716 152.1 59.8896 152.201C59.7097 152.302 59.567 152.45 59.4614 152.646C59.358 152.839 59.3063 153.073 59.3063 153.347Z" fill="#00FF72"/>
<path d="M267.555 168.102C267.555 147.749 284.054 131.25 304.406 131.25H305.917C326.949 131.25 343.999 148.3 343.999 169.332H267.555V168.102Z" fill="#00FF72"/>
<path d="M289.695 150.414V149.517H295.039V150.414H292.885V156.422H291.846V150.414H289.695ZM297.429 156.526C296.919 156.526 296.479 156.417 296.111 156.199C295.744 155.979 295.461 155.67 295.261 155.272C295.063 154.872 294.964 154.403 294.964 153.866C294.964 153.336 295.063 152.868 295.261 152.464C295.461 152.059 295.74 151.743 296.097 151.516C296.457 151.289 296.877 151.176 297.358 151.176C297.65 151.176 297.934 151.224 298.208 151.321C298.482 151.417 298.728 151.569 298.946 151.776C299.164 151.983 299.336 152.251 299.462 152.582C299.588 152.91 299.651 153.309 299.651 153.779V154.136H295.534V153.381H298.663C298.663 153.115 298.609 152.881 298.501 152.676C298.393 152.469 298.242 152.306 298.046 152.187C297.853 152.068 297.626 152.008 297.365 152.008C297.082 152.008 296.835 152.078 296.623 152.218C296.414 152.355 296.252 152.534 296.138 152.757C296.025 152.977 295.969 153.217 295.969 153.475V154.065C295.969 154.411 296.03 154.706 296.151 154.948C296.275 155.191 296.447 155.377 296.667 155.505C296.887 155.631 297.145 155.694 297.439 155.694C297.63 155.694 297.804 155.667 297.962 155.613C298.119 155.557 298.255 155.473 298.37 155.363C298.484 155.253 298.572 155.117 298.633 154.955L299.587 155.127C299.51 155.408 299.373 155.654 299.176 155.866C298.98 156.075 298.734 156.238 298.437 156.354C298.143 156.469 297.807 156.526 297.429 156.526ZM304.459 152.507L303.545 152.669C303.507 152.552 303.446 152.441 303.363 152.336C303.282 152.23 303.172 152.143 303.033 152.076C302.893 152.008 302.719 151.975 302.51 151.975C302.225 151.975 301.986 152.039 301.795 152.167C301.604 152.293 301.509 152.456 301.509 152.656C301.509 152.829 301.573 152.968 301.701 153.074C301.829 153.18 302.036 153.266 302.321 153.334L303.144 153.522C303.621 153.632 303.976 153.802 304.209 154.031C304.443 154.261 304.56 154.559 304.56 154.925C304.56 155.235 304.47 155.512 304.29 155.754C304.113 155.995 303.864 156.184 303.545 156.321C303.228 156.458 302.861 156.526 302.443 156.526C301.863 156.526 301.39 156.403 301.023 156.156C300.657 155.906 300.432 155.552 300.349 155.093L301.323 154.945C301.384 155.199 301.509 155.391 301.698 155.522C301.886 155.65 302.133 155.714 302.436 155.714C302.766 155.714 303.031 155.645 303.228 155.508C303.426 155.369 303.525 155.199 303.525 154.999C303.525 154.837 303.464 154.701 303.343 154.591C303.224 154.481 303.041 154.398 302.793 154.342L301.917 154.149C301.434 154.039 301.076 153.864 300.845 153.623C300.615 153.383 300.501 153.078 300.501 152.71C300.501 152.404 300.586 152.137 300.757 151.907C300.928 151.678 301.164 151.499 301.465 151.371C301.766 151.241 302.111 151.176 302.5 151.176C303.06 151.176 303.5 151.297 303.822 151.54C304.143 151.78 304.356 152.103 304.459 152.507ZM307.895 151.243V152.052H305.066V151.243H307.895ZM305.825 150.002H306.833V154.901C306.833 155.097 306.862 155.244 306.92 155.343C306.979 155.44 307.054 155.506 307.146 155.542C307.241 155.576 307.343 155.592 307.453 155.592C307.534 155.592 307.605 155.587 307.665 155.576C307.726 155.564 307.773 155.555 307.807 155.549L307.989 156.381C307.931 156.404 307.847 156.426 307.74 156.449C307.632 156.474 307.497 156.487 307.335 156.489C307.07 156.494 306.823 156.447 306.593 156.348C306.364 156.249 306.179 156.096 306.037 155.889C305.895 155.682 305.825 155.423 305.825 155.11V150.002ZM308.819 156.422V151.243H309.827V156.422H308.819ZM309.328 150.444C309.152 150.444 309.002 150.386 308.876 150.269C308.752 150.15 308.691 150.008 308.691 149.844C308.691 149.678 308.752 149.536 308.876 149.419C309.002 149.3 309.152 149.24 309.328 149.24C309.503 149.24 309.653 149.3 309.776 149.419C309.902 149.536 309.965 149.678 309.965 149.844C309.965 150.008 309.902 150.15 309.776 150.269C309.653 150.386 309.503 150.444 309.328 150.444ZM312 153.347V156.422H310.992V151.243H311.959V152.086H312.023C312.143 151.812 312.329 151.592 312.583 151.425C312.839 151.259 313.162 151.176 313.551 151.176C313.904 151.176 314.213 151.25 314.478 151.398C314.743 151.544 314.949 151.762 315.095 152.052C315.241 152.342 315.314 152.701 315.314 153.128V156.422H314.306V153.249C314.306 152.874 314.208 152.581 314.013 152.369C313.817 152.156 313.549 152.049 313.207 152.049C312.973 152.049 312.765 152.1 312.583 152.201C312.403 152.302 312.261 152.45 312.155 152.646C312.052 152.839 312 153.073 312 153.347ZM318.646 158.472C318.235 158.472 317.881 158.418 317.584 158.31C317.29 158.202 317.049 158.059 316.863 157.882C316.676 157.704 316.537 157.51 316.445 157.298L317.311 156.941C317.372 157.04 317.453 157.145 317.554 157.255C317.657 157.367 317.797 157.463 317.972 157.541C318.149 157.62 318.378 157.659 318.656 157.659C319.038 157.659 319.354 157.566 319.604 157.379C319.853 157.195 319.978 156.901 319.978 156.496V155.478H319.914C319.853 155.588 319.766 155.71 319.651 155.845C319.539 155.98 319.383 156.097 319.186 156.196C318.988 156.295 318.73 156.344 318.414 156.344C318.004 156.344 317.636 156.249 317.308 156.058C316.982 155.864 316.723 155.58 316.532 155.205C316.343 154.827 316.249 154.363 316.249 153.812C316.249 153.262 316.342 152.79 316.529 152.396C316.718 152.003 316.976 151.702 317.304 151.493C317.632 151.281 318.004 151.176 318.42 151.176C318.742 151.176 319.001 151.23 319.199 151.338C319.397 151.443 319.551 151.567 319.661 151.708C319.773 151.85 319.86 151.975 319.921 152.083H319.995V151.243H320.983V156.537C320.983 156.982 320.879 157.347 320.672 157.632C320.466 157.918 320.186 158.129 319.833 158.266C319.482 158.403 319.087 158.472 318.646 158.472ZM318.636 155.508C318.926 155.508 319.171 155.441 319.371 155.306C319.573 155.169 319.726 154.973 319.83 154.719C319.935 154.463 319.988 154.156 319.988 153.799C319.988 153.45 319.936 153.144 319.833 152.878C319.73 152.613 319.578 152.406 319.378 152.258C319.178 152.107 318.931 152.032 318.636 152.032C318.333 152.032 318.08 152.111 317.877 152.268C317.675 152.423 317.522 152.634 317.419 152.902C317.318 153.169 317.267 153.468 317.267 153.799C317.267 154.138 317.319 154.436 317.422 154.692C317.526 154.948 317.679 155.149 317.881 155.292C318.085 155.436 318.337 155.508 318.636 155.508Z" fill="#272A40"/>
<path d="M0 130.016C0 109.663 16.4991 93.1641 36.8517 93.1641H38.3622C59.3944 93.1641 76.4444 110.214 76.4444 131.246H0L0 130.016Z" fill="#00FF72"/>
<path d="M267.555 130.016C267.555 109.663 284.054 93.1641 304.406 93.1641H305.917C326.949 93.1641 343.999 110.214 343.999 131.246H267.555V130.016Z" fill="#272A40"/>
<path d="M284.888 118.336L282.973 111.431H284.069L285.414 116.778H285.478L286.877 111.431H287.963L289.362 116.782H289.426L290.768 111.431H291.867L289.949 118.336H288.9L287.447 113.164H287.393L285.94 118.336H284.888ZM292.545 118.336V113.157H293.553V118.336H292.545ZM293.054 112.358C292.879 112.358 292.728 112.3 292.602 112.183C292.479 112.064 292.417 111.922 292.417 111.758C292.417 111.592 292.479 111.45 292.602 111.333C292.728 111.214 292.879 111.154 293.054 111.154C293.229 111.154 293.379 111.214 293.502 111.333C293.628 111.45 293.691 111.592 293.691 111.758C293.691 111.922 293.628 112.064 293.502 112.183C293.379 112.3 293.229 112.358 293.054 112.358ZM294.718 118.336V113.157H295.692V113.98H295.746C295.841 113.701 296.007 113.482 296.245 113.322C296.486 113.161 296.758 113.08 297.061 113.08C297.124 113.08 297.198 113.082 297.284 113.086C297.371 113.091 297.44 113.097 297.489 113.103V114.068C297.449 114.056 297.377 114.044 297.274 114.03C297.17 114.015 297.067 114.007 296.963 114.007C296.725 114.007 296.513 114.057 296.326 114.159C296.142 114.257 295.996 114.396 295.888 114.573C295.78 114.749 295.726 114.949 295.726 115.173V118.336H294.718ZM300.217 118.44C299.707 118.44 299.268 118.331 298.899 118.113C298.533 117.893 298.249 117.584 298.049 117.186C297.851 116.786 297.753 116.317 297.753 115.78C297.753 115.25 297.851 114.782 298.049 114.378C298.249 113.973 298.528 113.657 298.885 113.43C299.245 113.203 299.665 113.09 300.146 113.09C300.439 113.09 300.722 113.138 300.996 113.235C301.27 113.331 301.516 113.483 301.734 113.69C301.952 113.897 302.124 114.165 302.25 114.496C302.376 114.824 302.439 115.223 302.439 115.693V116.05H298.322V115.295H301.451C301.451 115.03 301.397 114.795 301.289 114.59C301.181 114.383 301.03 114.22 300.834 114.101C300.641 113.982 300.414 113.923 300.153 113.923C299.87 113.923 299.623 113.992 299.411 114.132C299.202 114.269 299.041 114.449 298.926 114.671C298.813 114.891 298.757 115.131 298.757 115.389V115.979C298.757 116.325 298.818 116.62 298.939 116.863C299.063 117.105 299.235 117.291 299.455 117.419C299.675 117.545 299.933 117.608 300.227 117.608C300.418 117.608 300.593 117.581 300.75 117.527C300.907 117.471 301.043 117.387 301.158 117.277C301.272 117.167 301.36 117.031 301.421 116.869L302.375 117.041C302.299 117.322 302.161 117.568 301.964 117.78C301.768 117.989 301.522 118.152 301.225 118.269C300.931 118.383 300.595 118.44 300.217 118.44ZM305.831 113.157V113.966H302.904V113.157H305.831ZM303.707 118.336V112.557C303.707 112.233 303.778 111.965 303.919 111.751C304.061 111.535 304.249 111.375 304.482 111.269C304.716 111.161 304.97 111.107 305.244 111.107C305.447 111.107 305.62 111.124 305.764 111.158C305.907 111.189 306.014 111.219 306.084 111.246L305.848 112.061C305.801 112.048 305.74 112.032 305.666 112.014C305.592 111.994 305.502 111.984 305.396 111.984C305.151 111.984 304.976 112.045 304.87 112.166C304.767 112.287 304.715 112.463 304.715 112.692V118.336H303.707ZM306.68 118.336V113.157H307.654V113.98H307.708C307.803 113.701 307.969 113.482 308.207 113.322C308.448 113.161 308.72 113.08 309.023 113.08C309.086 113.08 309.16 113.082 309.246 113.086C309.333 113.091 309.402 113.097 309.451 113.103V114.068C309.411 114.056 309.339 114.044 309.236 114.03C309.132 114.015 309.029 114.007 308.925 114.007C308.687 114.007 308.475 114.057 308.288 114.159C308.104 114.257 307.958 114.396 307.85 114.573C307.742 114.749 307.688 114.949 307.688 115.173V118.336H306.68ZM311.593 118.451C311.265 118.451 310.968 118.39 310.703 118.269C310.438 118.145 310.228 117.966 310.073 117.732C309.92 117.499 309.843 117.212 309.843 116.873C309.843 116.58 309.9 116.34 310.012 116.151C310.124 115.962 310.276 115.813 310.467 115.703C310.658 115.593 310.872 115.509 311.108 115.453C311.344 115.397 311.584 115.354 311.829 115.325C312.139 115.289 312.391 115.26 312.584 115.237C312.778 115.213 312.918 115.173 313.006 115.119C313.094 115.066 313.137 114.978 313.137 114.856V114.833C313.137 114.538 313.054 114.31 312.888 114.148C312.724 113.987 312.479 113.906 312.153 113.906C311.814 113.906 311.546 113.981 311.35 114.132C311.157 114.28 311.023 114.445 310.949 114.627L310.002 114.411C310.114 114.097 310.278 113.843 310.494 113.649C310.712 113.454 310.963 113.312 311.246 113.225C311.529 113.135 311.827 113.09 312.139 113.09C312.346 113.09 312.565 113.115 312.797 113.164C313.031 113.211 313.249 113.299 313.451 113.427C313.656 113.555 313.823 113.738 313.953 113.976C314.084 114.213 314.149 114.519 314.149 114.897V118.336H313.164V117.628H313.124C313.059 117.758 312.961 117.886 312.831 118.012C312.7 118.138 312.533 118.243 312.328 118.326C312.124 118.409 311.879 118.451 311.593 118.451ZM311.812 117.641C312.091 117.641 312.329 117.586 312.527 117.476C312.727 117.366 312.879 117.222 312.982 117.045C313.088 116.865 313.141 116.673 313.141 116.468V115.801C313.105 115.836 313.035 115.87 312.932 115.902C312.831 115.931 312.715 115.957 312.584 115.979C312.454 115.999 312.327 116.019 312.204 116.037C312.08 116.052 311.976 116.066 311.893 116.077C311.698 116.102 311.519 116.143 311.357 116.202C311.198 116.26 311.07 116.344 310.973 116.455C310.878 116.562 310.831 116.706 310.831 116.886C310.831 117.136 310.923 117.324 311.108 117.453C311.292 117.578 311.527 117.641 311.812 117.641ZM315.3 118.336V113.157H316.268V114H316.332C316.44 113.715 316.616 113.492 316.861 113.333C317.106 113.171 317.4 113.09 317.741 113.09C318.088 113.09 318.378 113.171 318.611 113.333C318.847 113.494 319.022 113.717 319.134 114H319.188C319.311 113.724 319.508 113.503 319.778 113.339C320.048 113.173 320.369 113.09 320.742 113.09C321.212 113.09 321.595 113.237 321.892 113.531C322.191 113.826 322.34 114.27 322.34 114.863V118.336H321.332V114.958C321.332 114.607 321.237 114.353 321.046 114.196C320.855 114.038 320.626 113.96 320.361 113.96C320.033 113.96 319.778 114.061 319.596 114.263C319.414 114.463 319.323 114.72 319.323 115.035V118.336H318.318V114.894C318.318 114.613 318.23 114.387 318.055 114.216C317.88 114.045 317.652 113.96 317.371 113.96C317.18 113.96 317.003 114.01 316.841 114.111C316.682 114.21 316.552 114.348 316.453 114.526C316.357 114.704 316.309 114.909 316.309 115.143V118.336H315.3ZM325.732 118.44C325.222 118.44 324.783 118.331 324.414 118.113C324.048 117.893 323.764 117.584 323.564 117.186C323.366 116.786 323.268 116.317 323.268 115.78C323.268 115.25 323.366 114.782 323.564 114.378C323.764 113.973 324.043 113.657 324.4 113.43C324.76 113.203 325.18 113.09 325.661 113.09C325.954 113.09 326.237 113.138 326.511 113.235C326.785 113.331 327.031 113.483 327.249 113.69C327.467 113.897 327.639 114.165 327.765 114.496C327.891 114.824 327.954 115.223 327.954 115.693V116.05H323.837V115.295H326.966C326.966 115.03 326.912 114.795 326.804 114.59C326.696 114.383 326.545 114.22 326.349 114.101C326.156 113.982 325.929 113.923 325.668 113.923C325.385 113.923 325.138 113.992 324.926 114.132C324.717 114.269 324.556 114.449 324.441 114.671C324.328 114.891 324.272 115.131 324.272 115.389V115.979C324.272 116.325 324.333 116.62 324.454 116.863C324.578 117.105 324.75 117.291 324.97 117.419C325.19 117.545 325.448 117.608 325.742 117.608C325.933 117.608 326.108 117.581 326.265 117.527C326.422 117.471 326.558 117.387 326.673 117.277C326.787 117.167 326.875 117.031 326.936 116.869L327.89 117.041C327.814 117.322 327.676 117.568 327.479 117.78C327.283 117.989 327.037 118.152 326.74 118.269C326.446 118.383 326.11 118.44 325.732 118.44Z" fill="#00FF72"/>
<path d="M152.889 131.097C152.889 110.152 170.166 93.1641 191.111 93.1641C212.056 93.1641 229.333 110.152 229.333 131.097C229.333 152.207 212.22 169.328 191.111 169.328C170.001 169.328 152.889 152.207 152.889 131.097Z" fill="#00FF72"/>
<path d="M171.37 134.75V127.845H173.831C174.366 127.845 174.81 127.937 175.163 128.121C175.518 128.306 175.783 128.561 175.959 128.887C176.134 129.211 176.222 129.585 176.222 130.01C176.222 130.432 176.133 130.804 175.955 131.126C175.78 131.445 175.515 131.693 175.16 131.871C174.807 132.048 174.363 132.137 173.828 132.137H171.963V131.24H173.733C174.071 131.24 174.345 131.192 174.556 131.095C174.77 130.999 174.926 130.858 175.025 130.674C175.124 130.489 175.173 130.268 175.173 130.01C175.173 129.749 175.122 129.523 175.021 129.332C174.922 129.141 174.766 128.995 174.553 128.894C174.341 128.79 174.064 128.738 173.72 128.738H172.412V134.75H171.37ZM174.779 131.635L176.485 134.75H175.298L173.626 131.635H174.779ZM179.384 134.855C178.874 134.855 178.435 134.746 178.066 134.527C177.7 134.307 177.416 133.998 177.216 133.6C177.019 133.2 176.92 132.732 176.92 132.194C176.92 131.664 177.019 131.196 177.216 130.792C177.416 130.387 177.695 130.071 178.053 129.844C178.412 129.617 178.832 129.504 179.313 129.504C179.606 129.504 179.889 129.552 180.163 129.649C180.437 129.745 180.683 129.897 180.901 130.104C181.12 130.311 181.291 130.579 181.417 130.91C181.543 131.238 181.606 131.637 181.606 132.107V132.464H177.489V131.709H180.618C180.618 131.444 180.564 131.209 180.456 131.004C180.349 130.797 180.197 130.634 180.001 130.515C179.808 130.396 179.581 130.337 179.32 130.337C179.037 130.337 178.79 130.406 178.578 130.546C178.369 130.683 178.208 130.863 178.093 131.085C177.981 131.305 177.924 131.545 177.924 131.803V132.393C177.924 132.739 177.985 133.034 178.106 133.277C178.23 133.519 178.402 133.705 178.622 133.833C178.843 133.959 179.1 134.022 179.394 134.022C179.585 134.022 179.76 133.995 179.917 133.941C180.074 133.885 180.21 133.801 180.325 133.691C180.44 133.581 180.527 133.445 180.588 133.283L181.542 133.455C181.466 133.736 181.329 133.982 181.131 134.194C180.935 134.403 180.689 134.566 180.392 134.683C180.098 134.797 179.762 134.855 179.384 134.855ZM186.414 130.836L185.5 130.997C185.462 130.881 185.402 130.769 185.318 130.664C185.237 130.558 185.127 130.471 184.988 130.404C184.849 130.337 184.674 130.303 184.465 130.303C184.18 130.303 183.942 130.367 183.751 130.495C183.56 130.621 183.464 130.784 183.464 130.984C183.464 131.157 183.528 131.296 183.656 131.402C183.784 131.508 183.991 131.594 184.277 131.662L185.099 131.85C185.576 131.961 185.931 132.13 186.165 132.36C186.398 132.589 186.515 132.887 186.515 133.253C186.515 133.563 186.425 133.84 186.246 134.082C186.068 134.323 185.82 134.512 185.5 134.649C185.184 134.786 184.816 134.855 184.398 134.855C183.818 134.855 183.345 134.731 182.979 134.484C182.612 134.234 182.387 133.88 182.304 133.422L183.279 133.273C183.339 133.527 183.464 133.719 183.653 133.85C183.842 133.978 184.088 134.042 184.391 134.042C184.722 134.042 184.986 133.973 185.184 133.836C185.381 133.697 185.48 133.527 185.48 133.327C185.48 133.165 185.42 133.029 185.298 132.919C185.179 132.809 184.996 132.726 184.749 132.67L183.872 132.478C183.389 132.367 183.031 132.192 182.8 131.952C182.571 131.711 182.456 131.407 182.456 131.038C182.456 130.732 182.541 130.465 182.712 130.235C182.883 130.006 183.119 129.828 183.42 129.699C183.721 129.569 184.066 129.504 184.455 129.504C185.015 129.504 185.455 129.625 185.777 129.868C186.098 130.108 186.311 130.431 186.414 130.836ZM189.664 134.855C189.154 134.855 188.715 134.746 188.346 134.527C187.98 134.307 187.697 133.998 187.497 133.6C187.299 133.2 187.2 132.732 187.2 132.194C187.2 131.664 187.299 131.196 187.497 130.792C187.697 130.387 187.975 130.071 188.333 129.844C188.692 129.617 189.113 129.504 189.594 129.504C189.886 129.504 190.169 129.552 190.443 129.649C190.718 129.745 190.964 129.897 191.182 130.104C191.4 130.311 191.572 130.579 191.698 130.91C191.823 131.238 191.886 131.637 191.886 132.107V132.464H187.77V131.709H190.898C190.898 131.444 190.845 131.209 190.737 131.004C190.629 130.797 190.477 130.634 190.281 130.515C190.088 130.396 189.861 130.337 189.6 130.337C189.317 130.337 189.07 130.406 188.859 130.546C188.65 130.683 188.488 130.863 188.373 131.085C188.261 131.305 188.205 131.545 188.205 131.803V132.393C188.205 132.739 188.265 133.034 188.387 133.277C188.51 133.519 188.682 133.705 188.902 133.833C189.123 133.959 189.38 134.022 189.675 134.022C189.866 134.022 190.04 133.995 190.197 133.941C190.355 133.885 190.49 133.801 190.605 133.691C190.72 133.581 190.807 133.445 190.868 133.283L191.822 133.455C191.746 133.736 191.609 133.982 191.411 134.194C191.215 134.403 190.969 134.566 190.673 134.683C190.378 134.797 190.042 134.855 189.664 134.855ZM194.321 134.865C193.993 134.865 193.696 134.804 193.431 134.683C193.165 134.559 192.955 134.38 192.8 134.146C192.647 133.913 192.571 133.626 192.571 133.287C192.571 132.995 192.627 132.754 192.739 132.565C192.852 132.376 193.004 132.227 193.195 132.117C193.386 132.007 193.599 131.924 193.835 131.867C194.071 131.811 194.312 131.768 194.557 131.739C194.867 131.703 195.119 131.674 195.312 131.652C195.505 131.627 195.646 131.587 195.733 131.534C195.821 131.48 195.865 131.392 195.865 131.271V131.247C195.865 130.952 195.782 130.724 195.615 130.563C195.451 130.401 195.206 130.32 194.88 130.32C194.541 130.32 194.274 130.395 194.078 130.546C193.885 130.694 193.751 130.859 193.677 131.041L192.729 130.825C192.842 130.511 193.006 130.257 193.222 130.064C193.44 129.868 193.69 129.726 193.973 129.639C194.257 129.549 194.554 129.504 194.867 129.504C195.074 129.504 195.293 129.529 195.524 129.578C195.758 129.625 195.976 129.713 196.178 129.841C196.383 129.969 196.55 130.152 196.681 130.391C196.811 130.627 196.876 130.933 196.876 131.311V134.75H195.892V134.042H195.851C195.786 134.172 195.688 134.3 195.558 134.426C195.428 134.552 195.26 134.657 195.056 134.74C194.851 134.823 194.606 134.865 194.321 134.865ZM194.54 134.055C194.819 134.055 195.057 134 195.255 133.89C195.455 133.78 195.606 133.636 195.71 133.459C195.815 133.279 195.868 133.087 195.868 132.882V132.215C195.832 132.251 195.763 132.284 195.659 132.316C195.558 132.345 195.442 132.371 195.312 132.393C195.182 132.414 195.055 132.433 194.931 132.451C194.807 132.466 194.704 132.48 194.621 132.491C194.425 132.516 194.247 132.557 194.085 132.616C193.925 132.674 193.797 132.759 193.7 132.869C193.606 132.977 193.559 133.12 193.559 133.3C193.559 133.55 193.651 133.739 193.835 133.867C194.02 133.993 194.254 134.055 194.54 134.055ZM198.028 134.75V129.571H199.002V130.394H199.056C199.151 130.115 199.317 129.896 199.555 129.736C199.796 129.575 200.068 129.494 200.371 129.494C200.434 129.494 200.508 129.496 200.594 129.5C200.681 129.505 200.75 129.511 200.799 129.517V130.482C200.759 130.47 200.687 130.458 200.584 130.445C200.48 130.429 200.377 130.421 200.273 130.421C200.035 130.421 199.823 130.471 199.636 130.573C199.452 130.672 199.306 130.81 199.198 130.987C199.09 131.163 199.036 131.363 199.036 131.587V134.75H198.028ZM203.476 134.855C202.975 134.855 202.544 134.741 202.182 134.514C201.822 134.285 201.546 133.969 201.352 133.567C201.159 133.164 201.062 132.703 201.062 132.184C201.062 131.658 201.161 131.194 201.359 130.792C201.557 130.387 201.836 130.071 202.195 129.844C202.555 129.617 202.979 129.504 203.466 129.504C203.86 129.504 204.21 129.577 204.518 129.723C204.826 129.867 205.075 130.069 205.263 130.33C205.454 130.591 205.568 130.895 205.604 131.244H204.623C204.569 131.001 204.445 130.792 204.252 130.616C204.061 130.441 203.805 130.353 203.483 130.353C203.202 130.353 202.956 130.428 202.745 130.576C202.536 130.722 202.373 130.931 202.256 131.203C202.139 131.473 202.081 131.792 202.081 132.161C202.081 132.538 202.138 132.864 202.253 133.138C202.367 133.413 202.529 133.625 202.738 133.776C202.949 133.926 203.198 134.002 203.483 134.002C203.674 134.002 203.847 133.967 204.002 133.897C204.16 133.825 204.291 133.723 204.397 133.59C204.505 133.458 204.58 133.298 204.623 133.111H205.604C205.568 133.446 205.459 133.745 205.277 134.008C205.095 134.271 204.851 134.478 204.545 134.629C204.242 134.779 203.886 134.855 203.476 134.855ZM207.499 131.675V134.75H206.491V127.845H207.485V130.414H207.549C207.671 130.135 207.856 129.914 208.106 129.75C208.355 129.586 208.681 129.504 209.084 129.504C209.439 129.504 209.749 129.577 210.014 129.723C210.282 129.869 210.488 130.087 210.634 130.377C210.783 130.665 210.857 131.024 210.857 131.456V134.75H209.849V131.577C209.849 131.197 209.751 130.903 209.556 130.694C209.36 130.483 209.088 130.377 208.74 130.377C208.501 130.377 208.288 130.428 208.099 130.529C207.912 130.63 207.765 130.778 207.657 130.974C207.552 131.167 207.499 131.401 207.499 131.675Z" fill="#272A40"/>
<path d="M229.334 93.1641C250.366 93.1641 267.556 110.214 267.556 131.246C267.556 152.279 250.366 169.328 229.334 169.328V93.1641Z" fill="#272A40"/>
<path d="M76.4453 131.246C76.4453 110.214 93.6353 93.1641 114.668 93.1641V169.328C93.6353 169.328 76.4453 152.279 76.4453 131.246Z" fill="#272A40"/>
<path d="M114.666 131.246C114.666 110.214 131.856 93.1641 152.888 93.1641V169.328C131.856 169.328 114.666 152.279 114.666 131.246Z" fill="#EDF4FE"/>
</svg>
