<svg width="638" height="700" viewBox="0 0 638 700" fill="none" xmlns="http://www.w3.org/2000/svg">
<rect width="638" height="700" rx="30" fill="white"/>
<path d="M228.108 292.364V368H216.696V292.364H228.108ZM254.884 334.318V368H243.841V311.273H254.441V320.506H255.142C256.447 317.502 258.491 315.089 261.273 313.267C264.08 311.445 267.613 310.534 271.873 310.534C275.738 310.534 279.123 311.347 282.029 312.972C284.934 314.572 287.187 316.96 288.787 320.136C290.388 323.312 291.188 327.24 291.188 331.918V368H280.145V333.247C280.145 329.135 279.074 325.922 276.932 323.608C274.79 321.269 271.848 320.099 268.105 320.099C265.545 320.099 263.267 320.653 261.273 321.761C259.303 322.869 257.74 324.494 256.583 326.636C255.45 328.754 254.884 331.314 254.884 334.318ZM332.478 311.273V320.136H301.492V311.273H332.478ZM309.801 297.682H320.844V351.344C320.844 353.486 321.164 355.098 321.804 356.182C322.444 357.241 323.269 357.967 324.279 358.361C325.313 358.73 326.433 358.915 327.64 358.915C328.526 358.915 329.301 358.853 329.966 358.73C330.631 358.607 331.148 358.509 331.517 358.435L333.512 367.557C332.872 367.803 331.961 368.049 330.779 368.295C329.597 368.566 328.12 368.714 326.347 368.739C323.442 368.788 320.733 368.271 318.222 367.188C315.711 366.104 313.679 364.43 312.128 362.165C310.577 359.9 309.801 357.056 309.801 353.634V297.682ZM368.532 369.145C362.943 369.145 358.13 367.951 354.092 365.562C350.079 363.15 346.976 359.764 344.785 355.406C342.618 351.024 341.535 345.89 341.535 340.006C341.535 334.195 342.618 329.074 344.785 324.642C346.976 320.21 350.029 316.751 353.944 314.264C357.884 311.777 362.488 310.534 367.757 310.534C370.958 310.534 374.06 311.063 377.064 312.122C380.067 313.181 382.763 314.843 385.152 317.108C387.54 319.373 389.423 322.315 390.802 325.935C392.181 329.529 392.87 333.9 392.87 339.045V342.96H347.777V334.688H382.049C382.049 331.782 381.458 329.209 380.277 326.969C379.095 324.704 377.433 322.919 375.291 321.614C373.173 320.309 370.687 319.656 367.831 319.656C364.728 319.656 362.02 320.42 359.706 321.946C357.416 323.448 355.643 325.418 354.387 327.855C353.156 330.268 352.541 332.89 352.541 335.722V342.185C352.541 345.976 353.206 349.202 354.535 351.861C355.889 354.52 357.773 356.551 360.186 357.955C362.599 359.333 365.418 360.023 368.643 360.023C370.736 360.023 372.644 359.727 374.368 359.136C376.091 358.521 377.581 357.61 378.836 356.403C380.092 355.197 381.052 353.707 381.717 351.935L392.169 353.818C391.332 356.896 389.83 359.592 387.663 361.906C385.521 364.196 382.825 365.981 379.575 367.261C376.35 368.517 372.669 369.145 368.532 369.145ZM405.123 368V311.273H415.796V320.284H416.387C417.421 317.231 419.243 314.83 421.853 313.082C424.487 311.31 427.466 310.423 430.79 310.423C431.48 310.423 432.292 310.448 433.228 310.497C434.188 310.546 434.939 310.608 435.48 310.682V321.244C435.037 321.121 434.249 320.986 433.117 320.838C431.984 320.666 430.852 320.58 429.719 320.58C427.109 320.58 424.783 321.134 422.739 322.241C420.72 323.325 419.12 324.839 417.938 326.784C416.756 328.705 416.165 330.896 416.165 333.358V368H405.123Z" fill="#272A40"/>
<path d="M41.0252 42.3438V40.4545H52.2823V42.3438H47.744V55H45.5565V42.3438H41.0252ZM54.6918 59.0909C54.3745 59.0909 54.0857 59.0649 53.8253 59.0128C53.5649 58.9654 53.3707 58.9134 53.2429 58.8565L53.7543 57.1165C54.1425 57.2206 54.4882 57.2656 54.7912 57.2514C55.0942 57.2372 55.3617 57.1236 55.5938 56.9105C55.8305 56.6974 56.0388 56.3494 56.2188 55.8665L56.4815 55.142L52.4901 44.0909H54.7628L57.5256 52.5568H57.6392L60.402 44.0909H62.6818L58.1861 56.456C57.9777 57.0241 57.7126 57.5047 57.3906 57.8977C57.0687 58.2955 56.6851 58.5938 56.2401 58.7926C55.795 58.9915 55.2789 59.0909 54.6918 59.0909ZM64.6776 59.0909V44.0909H66.7514V45.8594H66.929C67.0521 45.6321 67.2296 45.3693 67.4616 45.071C67.6937 44.7727 68.0156 44.5123 68.4276 44.2898C68.8395 44.0625 69.384 43.9489 70.0611 43.9489C70.9418 43.9489 71.7277 44.1714 72.419 44.6165C73.1103 45.0616 73.6525 45.7031 74.0455 46.5412C74.4432 47.3793 74.642 48.3878 74.642 49.5668C74.642 50.7457 74.4455 51.7566 74.0526 52.5994C73.6596 53.4375 73.1198 54.0838 72.4332 54.5384C71.7467 54.9882 70.9631 55.2131 70.0824 55.2131C69.4195 55.2131 68.8774 55.1018 68.456 54.8793C68.0393 54.6567 67.7126 54.3963 67.4759 54.098C67.2391 53.7997 67.0568 53.5346 66.929 53.3026H66.8011V59.0909H64.6776ZM66.7585 49.5455C66.7585 50.3125 66.8698 50.9848 67.0923 51.5625C67.3149 52.1402 67.6368 52.5923 68.0582 52.919C68.4796 53.241 68.9957 53.402 69.6065 53.402C70.241 53.402 70.7713 53.2339 71.1974 52.8977C71.6236 52.5568 71.9455 52.0952 72.1634 51.5128C72.3859 50.9304 72.4972 50.2746 72.4972 49.5455C72.4972 48.8258 72.3883 48.1795 72.1705 47.6065C71.9574 47.0336 71.6354 46.5814 71.2045 46.25C70.7784 45.9186 70.2457 45.7528 69.6065 45.7528C68.991 45.7528 68.4702 45.9115 68.044 46.2287C67.6226 46.5459 67.303 46.9886 67.0852 47.5568C66.8674 48.125 66.7585 48.7879 66.7585 49.5455ZM81.723 55.2202C80.6482 55.2202 79.7225 54.9905 78.946 54.5312C78.1742 54.0672 77.5777 53.4162 77.1562 52.5781C76.7396 51.7353 76.5312 50.7481 76.5312 49.6165C76.5312 48.4991 76.7396 47.5142 77.1562 46.6619C77.5777 45.8097 78.1648 45.1444 78.9176 44.6662C79.6752 44.188 80.5606 43.9489 81.5739 43.9489C82.1894 43.9489 82.786 44.0507 83.3636 44.2543C83.9413 44.4579 84.4598 44.7775 84.919 45.2131C85.3783 45.6487 85.7405 46.2145 86.0057 46.9105C86.2708 47.6018 86.4034 48.4422 86.4034 49.4318V50.1847H77.7315V48.5938H84.3224C84.3224 48.035 84.2088 47.5402 83.9815 47.1094C83.7543 46.6738 83.4347 46.3305 83.0227 46.0795C82.6155 45.8286 82.1373 45.7031 81.5881 45.7031C80.9915 45.7031 80.4706 45.8499 80.0256 46.1435C79.5852 46.4323 79.2443 46.8111 79.0028 47.2798C78.7661 47.7438 78.6477 48.2481 78.6477 48.7926V50.0355C78.6477 50.7647 78.7756 51.3849 79.0312 51.8963C79.2917 52.4077 79.6539 52.7983 80.1179 53.0682C80.5819 53.3333 81.1241 53.4659 81.7443 53.4659C82.1468 53.4659 82.5137 53.4091 82.8452 53.2955C83.1766 53.1771 83.4631 53.0019 83.7045 52.7699C83.946 52.5379 84.1307 52.2514 84.2585 51.9105L86.2685 52.2727C86.1075 52.8646 85.8187 53.383 85.402 53.8281C84.9901 54.2685 84.4716 54.6117 83.8466 54.858C83.2263 55.0994 82.5185 55.2202 81.723 55.2202ZM93.9513 44.0909V45.7955H87.7866V44.0909H93.9513ZM89.4769 55V42.8267C89.4769 42.1449 89.6261 41.5791 89.9244 41.1293C90.2227 40.6747 90.618 40.3362 91.1104 40.1136C91.6029 39.8864 92.1379 39.7727 92.7156 39.7727C93.1417 39.7727 93.5063 39.8082 93.8093 39.8793C94.1123 39.9455 94.3372 40.0071 94.484 40.0639L93.9869 41.7827C93.8874 41.7543 93.7596 41.7211 93.6033 41.6832C93.4471 41.6406 93.2577 41.6193 93.0352 41.6193C92.5191 41.6193 92.1497 41.7472 91.9272 42.0028C91.7094 42.2585 91.6005 42.6278 91.6005 43.1108V55H89.4769ZM98.9851 55.2415C98.2938 55.2415 97.6688 55.1136 97.1101 54.858C96.5514 54.5975 96.1087 54.2211 95.782 53.7287C95.46 53.2363 95.299 52.6326 95.299 51.9176C95.299 51.3021 95.4174 50.7955 95.6541 50.3977C95.8909 50 96.2105 49.6851 96.6129 49.4531C97.0154 49.2211 97.4652 49.0459 97.9624 48.9276C98.4595 48.8092 98.9661 48.7192 99.4822 48.6577C100.136 48.5819 100.666 48.5204 101.073 48.473C101.48 48.4209 101.776 48.3381 101.961 48.2244C102.146 48.1108 102.238 47.9261 102.238 47.6705V47.6207C102.238 47.0005 102.063 46.5199 101.712 46.179C101.367 45.8381 100.851 45.6676 100.164 45.6676C99.4491 45.6676 98.8857 45.8262 98.4737 46.1435C98.0665 46.456 97.7848 46.804 97.6286 47.1875L95.6328 46.733C95.8696 46.0701 96.2152 45.535 96.6697 45.1278C97.129 44.7159 97.657 44.4176 98.2536 44.233C98.8501 44.0436 99.4775 43.9489 100.136 43.9489C100.571 43.9489 101.033 44.0009 101.521 44.1051C102.013 44.2045 102.472 44.3892 102.898 44.6591C103.329 44.929 103.682 45.3149 103.957 45.8168C104.231 46.3139 104.369 46.9602 104.369 47.7557V55H102.295V53.5085H102.21C102.072 53.7831 101.866 54.053 101.592 54.3182C101.317 54.5833 100.964 54.8035 100.533 54.9787C100.103 55.1539 99.5864 55.2415 98.9851 55.2415ZM99.4467 53.5369C100.034 53.5369 100.536 53.4209 100.952 53.1889C101.374 52.9569 101.693 52.6539 101.911 52.2798C102.134 51.901 102.245 51.4962 102.245 51.0653V49.6591C102.169 49.7348 102.022 49.8059 101.805 49.8722C101.592 49.9337 101.348 49.9882 101.073 50.0355C100.799 50.0781 100.531 50.1184 100.271 50.1562C100.01 50.1894 99.7924 50.2178 99.6172 50.2415C99.2053 50.2936 98.8288 50.3812 98.4879 50.5043C98.1518 50.6274 97.8819 50.8049 97.6783 51.0369C97.4794 51.2642 97.38 51.5672 97.38 51.946C97.38 52.4716 97.5741 52.8693 97.9624 53.1392C98.3506 53.4044 98.8454 53.5369 99.4467 53.5369ZM111.792 55.2202C110.736 55.2202 109.827 54.9811 109.065 54.5028C108.307 54.0199 107.725 53.3546 107.318 52.5071C106.911 51.6596 106.707 50.6889 106.707 49.5952C106.707 48.4872 106.915 47.5095 107.332 46.6619C107.749 45.8097 108.336 45.1444 109.093 44.6662C109.851 44.188 110.743 43.9489 111.771 43.9489C112.6 43.9489 113.338 44.1027 113.987 44.4105C114.636 44.7135 115.159 45.1397 115.556 45.6889C115.959 46.2382 116.198 46.8797 116.274 47.6136H114.207C114.093 47.1023 113.833 46.6619 113.426 46.2926C113.023 45.9233 112.484 45.7386 111.806 45.7386C111.215 45.7386 110.696 45.8949 110.251 46.2074C109.811 46.5152 109.467 46.9555 109.221 47.5284C108.975 48.0966 108.852 48.7689 108.852 49.5455C108.852 50.3409 108.973 51.0275 109.214 51.6051C109.456 52.1828 109.797 52.6302 110.237 52.9474C110.682 53.2647 111.205 53.4233 111.806 53.4233C112.209 53.4233 112.574 53.3499 112.9 53.2031C113.232 53.0516 113.509 52.8362 113.731 52.5568C113.958 52.2775 114.117 51.9413 114.207 51.5483H116.274C116.198 52.2538 115.968 52.8835 115.585 53.4375C115.201 53.9915 114.688 54.4271 114.044 54.7443C113.404 55.0616 112.654 55.2202 111.792 55.2202ZM123.246 55.2202C122.172 55.2202 121.246 54.9905 120.469 54.5312C119.698 54.0672 119.101 53.4162 118.68 52.5781C118.263 51.7353 118.055 50.7481 118.055 49.6165C118.055 48.4991 118.263 47.5142 118.68 46.6619C119.101 45.8097 119.688 45.1444 120.441 44.6662C121.199 44.188 122.084 43.9489 123.097 43.9489C123.713 43.9489 124.309 44.0507 124.887 44.2543C125.465 44.4579 125.983 44.7775 126.442 45.2131C126.902 45.6487 127.264 46.2145 127.529 46.9105C127.794 47.6018 127.927 48.4422 127.927 49.4318V50.1847H119.255V48.5938H125.846C125.846 48.035 125.732 47.5402 125.505 47.1094C125.278 46.6738 124.958 46.3305 124.546 46.0795C124.139 45.8286 123.661 45.7031 123.112 45.7031C122.515 45.7031 121.994 45.8499 121.549 46.1435C121.109 46.4323 120.768 46.8111 120.526 47.2798C120.29 47.7438 120.171 48.2481 120.171 48.7926V50.0355C120.171 50.7647 120.299 51.3849 120.555 51.8963C120.815 52.4077 121.177 52.7983 121.641 53.0682C122.105 53.3333 122.647 53.4659 123.268 53.4659C123.67 53.4659 124.037 53.4091 124.369 53.2955C124.7 53.1771 124.987 53.0019 125.228 52.7699C125.469 52.5379 125.654 52.2514 125.782 51.9105L127.792 52.2727C127.631 52.8646 127.342 53.383 126.925 53.8281C126.513 54.2685 125.995 54.6117 125.37 54.858C124.75 55.0994 124.042 55.2202 123.246 55.2202Z" fill="#272A40"/>
<path d="M41.2784 636V624.364H43.0341V629.42H48.8352V624.364H50.5966V636H48.8352V630.926H43.0341V636H41.2784ZM57.4091 624.364V636H55.6477V626.125H55.5795L52.7955 627.943V626.261L55.6989 624.364H57.4091ZM62.1179 634.409L62.0327 635.028C61.9759 635.483 61.8793 635.956 61.7429 636.449C61.6103 636.945 61.4721 637.405 61.3281 637.83C61.188 638.254 61.0724 638.591 60.9815 638.841H59.777C59.8262 638.606 59.8944 638.288 59.9815 637.886C60.0687 637.489 60.1539 637.044 60.2372 636.551C60.3205 636.059 60.383 635.557 60.4247 635.045L60.4815 634.409H62.1179ZM68.7003 636V624.364H70.456V629.42H76.2571V624.364H78.0185V636H76.2571V630.926H70.456V636H68.7003ZM80.4162 636V634.727L84.3537 630.648C84.7741 630.205 85.1207 629.816 85.3935 629.483C85.67 629.146 85.8764 628.826 86.0128 628.523C86.1491 628.22 86.2173 627.898 86.2173 627.557C86.2173 627.17 86.1264 626.837 85.9446 626.557C85.7628 626.273 85.5147 626.055 85.2003 625.903C84.8859 625.748 84.5317 625.67 84.1378 625.67C83.7211 625.67 83.3575 625.756 83.0469 625.926C82.7363 626.097 82.4976 626.337 82.331 626.648C82.1643 626.958 82.081 627.322 82.081 627.739H80.4048C80.4048 627.03 80.5677 626.411 80.8935 625.881C81.2192 625.35 81.6662 624.939 82.2344 624.648C82.8026 624.352 83.4484 624.205 84.1719 624.205C84.9029 624.205 85.5469 624.35 86.1037 624.642C86.6643 624.93 87.1018 625.324 87.4162 625.824C87.7306 626.32 87.8878 626.881 87.8878 627.506C87.8878 627.938 87.8063 628.36 87.6435 628.773C87.4844 629.186 87.206 629.646 86.8082 630.153C86.4105 630.657 85.8575 631.269 85.1491 631.989L82.8366 634.409V634.494H88.0753V636H80.4162ZM92.4616 634.409L92.3764 635.028C92.3196 635.483 92.223 635.956 92.0866 636.449C91.9541 636.945 91.8158 637.405 91.6719 637.83C91.5317 638.254 91.4162 638.591 91.3253 638.841H90.1207C90.17 638.606 90.2382 638.288 90.3253 637.886C90.4124 637.489 90.4976 637.044 90.581 636.551C90.6643 636.059 90.7268 635.557 90.7685 635.045L90.8253 634.409H92.4616ZM99.044 636V624.364H100.8V629.42H106.601V624.364H108.362V636H106.601V630.926H100.8V636H99.044ZM114.811 636.159C114.031 636.159 113.334 636.025 112.72 635.756C112.11 635.487 111.627 635.114 111.271 634.636C110.919 634.155 110.73 633.598 110.703 632.966H112.487C112.51 633.311 112.625 633.61 112.834 633.864C113.046 634.114 113.322 634.307 113.663 634.443C114.004 634.58 114.383 634.648 114.8 634.648C115.258 634.648 115.663 634.568 116.016 634.409C116.372 634.25 116.65 634.028 116.851 633.744C117.052 633.456 117.152 633.125 117.152 632.75C117.152 632.36 117.052 632.017 116.851 631.722C116.654 631.422 116.364 631.187 115.982 631.017C115.603 630.847 115.144 630.761 114.607 630.761H113.624V629.33H114.607C115.038 629.33 115.417 629.252 115.743 629.097C116.072 628.941 116.33 628.725 116.516 628.449C116.701 628.169 116.794 627.841 116.794 627.466C116.794 627.106 116.713 626.794 116.55 626.528C116.391 626.259 116.163 626.049 115.868 625.898C115.576 625.746 115.232 625.67 114.834 625.67C114.455 625.67 114.101 625.741 113.771 625.881C113.446 626.017 113.18 626.214 112.976 626.472C112.771 626.725 112.661 627.03 112.646 627.386H110.947C110.966 626.758 111.152 626.205 111.504 625.727C111.86 625.25 112.33 624.877 112.913 624.608C113.497 624.339 114.144 624.205 114.857 624.205C115.603 624.205 116.247 624.35 116.788 624.642C117.334 624.93 117.754 625.314 118.05 625.795C118.349 626.277 118.497 626.803 118.493 627.375C118.497 628.027 118.315 628.58 117.947 629.034C117.584 629.489 117.099 629.794 116.493 629.949V630.04C117.266 630.157 117.864 630.464 118.288 630.96C118.716 631.456 118.929 632.072 118.925 632.807C118.929 633.447 118.75 634.021 118.391 634.528C118.035 635.036 117.548 635.436 116.93 635.727C116.313 636.015 115.607 636.159 114.811 636.159ZM122.962 634.409L122.876 635.028C122.82 635.483 122.723 635.956 122.587 636.449C122.454 636.945 122.316 637.405 122.172 637.83C122.032 638.254 121.916 638.591 121.825 638.841H120.621C120.67 638.606 120.738 638.288 120.825 637.886C120.912 637.489 120.998 637.044 121.081 636.551C121.164 636.059 121.227 635.557 121.268 635.045L121.325 634.409H122.962ZM129.544 636V624.364H131.3V629.42H137.101V624.364H138.862V636H137.101V630.926H131.3V636H129.544ZM141.016 633.727V632.307L146.044 624.364H147.163V626.455H146.453L142.857 632.148V632.239H149.749V633.727H141.016ZM146.533 636V633.295L146.544 632.648V624.364H148.209V636H146.533ZM153.524 634.409L153.439 635.028C153.382 635.483 153.286 635.956 153.149 636.449C153.017 636.945 152.878 637.405 152.734 637.83C152.594 638.254 152.479 638.591 152.388 638.841H151.183C151.232 638.606 151.301 638.288 151.388 637.886C151.475 637.489 151.56 637.044 151.643 636.551C151.727 636.059 151.789 635.557 151.831 635.045L151.888 634.409H153.524ZM160.107 636V624.364H164.368C165.194 624.364 165.877 624.5 166.419 624.773C166.961 625.042 167.366 625.407 167.635 625.869C167.904 626.328 168.038 626.845 168.038 627.42C168.038 627.905 167.949 628.314 167.771 628.648C167.593 628.977 167.355 629.242 167.055 629.443C166.76 629.64 166.434 629.784 166.078 629.875V629.989C166.464 630.008 166.841 630.133 167.209 630.364C167.58 630.591 167.887 630.915 168.129 631.335C168.372 631.756 168.493 632.267 168.493 632.869C168.493 633.464 168.353 633.998 168.072 634.472C167.796 634.941 167.368 635.314 166.788 635.591C166.209 635.864 165.468 636 164.567 636H160.107ZM161.862 634.494H164.396C165.237 634.494 165.839 634.331 166.203 634.006C166.567 633.68 166.749 633.273 166.749 632.784C166.749 632.417 166.656 632.08 166.47 631.773C166.285 631.466 166.019 631.222 165.675 631.04C165.334 630.858 164.929 630.767 164.459 630.767H161.862V634.494ZM161.862 629.398H164.214C164.608 629.398 164.963 629.322 165.277 629.17C165.595 629.019 165.847 628.807 166.033 628.534C166.222 628.258 166.317 627.932 166.317 627.557C166.317 627.076 166.148 626.672 165.811 626.347C165.474 626.021 164.957 625.858 164.26 625.858H161.862V629.398ZM174.115 636.176C173.297 636.176 172.583 635.989 171.973 635.614C171.363 635.239 170.89 634.714 170.553 634.04C170.215 633.366 170.047 632.578 170.047 631.676C170.047 630.771 170.215 629.979 170.553 629.301C170.89 628.623 171.363 628.097 171.973 627.722C172.583 627.347 173.297 627.159 174.115 627.159C174.933 627.159 175.647 627.347 176.257 627.722C176.867 628.097 177.34 628.623 177.678 629.301C178.015 629.979 178.183 630.771 178.183 631.676C178.183 632.578 178.015 633.366 177.678 634.04C177.34 634.714 176.867 635.239 176.257 635.614C175.647 635.989 174.933 636.176 174.115 636.176ZM174.121 634.75C174.651 634.75 175.09 634.61 175.439 634.33C175.787 634.049 176.045 633.676 176.212 633.21C176.382 632.744 176.467 632.231 176.467 631.67C176.467 631.114 176.382 630.602 176.212 630.136C176.045 629.667 175.787 629.29 175.439 629.006C175.09 628.722 174.651 628.58 174.121 628.58C173.587 628.58 173.143 628.722 172.791 629.006C172.443 629.29 172.183 629.667 172.013 630.136C171.846 630.602 171.763 631.114 171.763 631.67C171.763 632.231 171.846 632.744 172.013 633.21C172.183 633.676 172.443 634.049 172.791 634.33C173.143 634.61 173.587 634.75 174.121 634.75ZM183.347 636.17C182.642 636.17 182.013 635.991 181.46 635.631C180.911 635.267 180.479 634.75 180.165 634.08C179.854 633.405 179.699 632.597 179.699 631.653C179.699 630.71 179.856 629.903 180.17 629.233C180.489 628.562 180.924 628.049 181.477 627.693C182.03 627.337 182.657 627.159 183.358 627.159C183.9 627.159 184.335 627.25 184.665 627.432C184.998 627.61 185.256 627.818 185.438 628.057C185.623 628.295 185.767 628.506 185.869 628.688H185.972V624.364H187.67V636H186.011V634.642H185.869C185.767 634.828 185.619 635.04 185.426 635.278C185.237 635.517 184.975 635.725 184.642 635.903C184.309 636.081 183.877 636.17 183.347 636.17ZM183.722 634.722C184.21 634.722 184.623 634.593 184.96 634.335C185.301 634.074 185.559 633.712 185.733 633.25C185.911 632.788 186 632.25 186 631.636C186 631.03 185.913 630.5 185.739 630.045C185.564 629.591 185.309 629.237 184.972 628.983C184.634 628.729 184.218 628.602 183.722 628.602C183.21 628.602 182.784 628.735 182.443 629C182.102 629.265 181.845 629.627 181.67 630.085C181.5 630.544 181.415 631.061 181.415 631.636C181.415 632.22 181.502 632.744 181.676 633.21C181.85 633.676 182.108 634.045 182.449 634.318C182.794 634.587 183.218 634.722 183.722 634.722ZM191.169 639.273C190.915 639.273 190.684 639.252 190.476 639.21C190.268 639.172 190.112 639.131 190.01 639.085L190.419 637.693C190.73 637.777 191.006 637.813 191.249 637.801C191.491 637.79 191.705 637.699 191.891 637.528C192.08 637.358 192.247 637.08 192.391 636.693L192.601 636.114L189.408 627.273H191.226L193.436 634.045H193.527L195.737 627.273H197.561L193.964 637.165C193.798 637.619 193.586 638.004 193.328 638.318C193.071 638.636 192.764 638.875 192.408 639.034C192.052 639.193 191.639 639.273 191.169 639.273ZM200.821 634.409L200.736 635.028C200.679 635.483 200.582 635.956 200.446 636.449C200.313 636.945 200.175 637.405 200.031 637.83C199.891 638.254 199.776 638.591 199.685 638.841H198.48C198.529 638.606 198.598 638.288 198.685 637.886C198.772 637.489 198.857 637.044 198.94 636.551C199.024 636.059 199.086 635.557 199.128 635.045L199.185 634.409H200.821ZM216.795 624.364V636H215.182L209.267 627.466H209.159V636H207.403V624.364H209.028L214.949 632.909H215.057V624.364H216.795ZM221.76 636.193C221.207 636.193 220.707 636.091 220.26 635.886C219.813 635.678 219.459 635.377 219.197 634.983C218.94 634.589 218.811 634.106 218.811 633.534C218.811 633.042 218.906 632.636 219.095 632.318C219.285 632 219.54 631.748 219.862 631.562C220.184 631.377 220.544 631.237 220.942 631.142C221.339 631.047 221.745 630.975 222.158 630.926C222.68 630.866 223.105 630.816 223.43 630.778C223.756 630.737 223.993 630.67 224.141 630.58C224.288 630.489 224.362 630.341 224.362 630.136V630.097C224.362 629.6 224.222 629.216 223.942 628.943C223.665 628.67 223.252 628.534 222.703 628.534C222.131 628.534 221.68 628.661 221.351 628.915C221.025 629.165 220.8 629.443 220.675 629.75L219.078 629.386C219.268 628.856 219.544 628.428 219.908 628.102C220.275 627.773 220.697 627.534 221.175 627.386C221.652 627.235 222.154 627.159 222.68 627.159C223.029 627.159 223.398 627.201 223.788 627.284C224.182 627.364 224.55 627.511 224.891 627.727C225.235 627.943 225.518 628.252 225.737 628.653C225.957 629.051 226.067 629.568 226.067 630.205V636H224.408V634.807H224.339C224.23 635.027 224.065 635.242 223.845 635.455C223.625 635.667 223.343 635.843 222.999 635.983C222.654 636.123 222.241 636.193 221.76 636.193ZM222.129 634.83C222.599 634.83 223 634.737 223.334 634.551C223.671 634.366 223.927 634.123 224.101 633.824C224.279 633.521 224.368 633.197 224.368 632.852V631.727C224.307 631.788 224.19 631.845 224.016 631.898C223.845 631.947 223.65 631.991 223.43 632.028C223.211 632.062 222.997 632.095 222.788 632.125C222.58 632.152 222.406 632.174 222.266 632.193C221.936 632.235 221.635 632.305 221.362 632.403C221.093 632.502 220.877 632.644 220.714 632.83C220.555 633.011 220.476 633.254 220.476 633.557C220.476 633.977 220.631 634.295 220.942 634.511C221.252 634.723 221.648 634.83 222.129 634.83ZM235.483 627.273L232.318 636H230.5L227.33 627.273H229.153L231.364 633.989H231.455L233.659 627.273H235.483ZM237.08 636V627.273H238.778V636H237.08ZM237.938 625.926C237.642 625.926 237.388 625.828 237.176 625.631C236.968 625.43 236.864 625.191 236.864 624.915C236.864 624.634 236.968 624.396 237.176 624.199C237.388 623.998 237.642 623.898 237.938 623.898C238.233 623.898 238.485 623.998 238.693 624.199C238.905 624.396 239.011 624.634 239.011 624.915C239.011 625.191 238.905 625.43 238.693 625.631C238.485 625.828 238.233 625.926 237.938 625.926ZM244.723 639.455C244.03 639.455 243.433 639.364 242.933 639.182C242.437 639 242.032 638.759 241.717 638.46C241.403 638.161 241.168 637.833 241.013 637.477L242.473 636.875C242.575 637.042 242.712 637.218 242.882 637.403C243.056 637.593 243.291 637.754 243.587 637.886C243.886 638.019 244.27 638.085 244.74 638.085C245.384 638.085 245.916 637.928 246.337 637.614C246.757 637.303 246.967 636.807 246.967 636.125V634.409H246.859C246.757 634.595 246.609 634.801 246.416 635.028C246.227 635.256 245.965 635.453 245.632 635.619C245.299 635.786 244.865 635.869 244.331 635.869C243.642 635.869 243.02 635.708 242.467 635.386C241.918 635.061 241.482 634.581 241.161 633.949C240.842 633.312 240.683 632.53 240.683 631.602C240.683 630.674 240.84 629.879 241.155 629.216C241.473 628.553 241.909 628.045 242.462 627.693C243.015 627.337 243.642 627.159 244.342 627.159C244.884 627.159 245.321 627.25 245.655 627.432C245.988 627.61 246.248 627.818 246.433 628.057C246.623 628.295 246.768 628.506 246.871 628.688H246.996V627.273H248.661V636.193C248.661 636.943 248.486 637.559 248.138 638.04C247.789 638.521 247.318 638.877 246.723 639.108C246.132 639.339 245.465 639.455 244.723 639.455ZM244.706 634.46C245.195 634.46 245.607 634.347 245.945 634.119C246.286 633.888 246.543 633.559 246.717 633.131C246.895 632.699 246.984 632.182 246.984 631.58C246.984 630.992 246.897 630.475 246.723 630.028C246.549 629.581 246.293 629.233 245.956 628.983C245.619 628.729 245.202 628.602 244.706 628.602C244.195 628.602 243.768 628.735 243.428 629C243.087 629.261 242.829 629.617 242.655 630.068C242.484 630.519 242.399 631.023 242.399 631.58C242.399 632.152 242.486 632.653 242.661 633.085C242.835 633.517 243.092 633.854 243.433 634.097C243.778 634.339 244.202 634.46 244.706 634.46ZM253.479 636.193C252.926 636.193 252.426 636.091 251.979 635.886C251.532 635.678 251.178 635.377 250.916 634.983C250.659 634.589 250.53 634.106 250.53 633.534C250.53 633.042 250.625 632.636 250.814 632.318C251.003 632 251.259 631.748 251.581 631.562C251.903 631.377 252.263 631.237 252.661 631.142C253.058 631.047 253.464 630.975 253.876 630.926C254.399 630.866 254.823 630.816 255.149 630.778C255.475 630.737 255.712 630.67 255.859 630.58C256.007 630.489 256.081 630.341 256.081 630.136V630.097C256.081 629.6 255.941 629.216 255.661 628.943C255.384 628.67 254.971 628.534 254.422 628.534C253.85 628.534 253.399 628.661 253.07 628.915C252.744 629.165 252.518 629.443 252.393 629.75L250.797 629.386C250.986 628.856 251.263 628.428 251.626 628.102C251.994 627.773 252.416 627.534 252.893 627.386C253.371 627.235 253.873 627.159 254.399 627.159C254.748 627.159 255.117 627.201 255.507 627.284C255.901 627.364 256.268 627.511 256.609 627.727C256.954 627.943 257.236 628.252 257.456 628.653C257.676 629.051 257.786 629.568 257.786 630.205V636H256.126V634.807H256.058C255.948 635.027 255.784 635.242 255.564 635.455C255.344 635.667 255.062 635.843 254.717 635.983C254.373 636.123 253.96 636.193 253.479 636.193ZM253.848 634.83C254.318 634.83 254.719 634.737 255.053 634.551C255.39 634.366 255.645 634.123 255.82 633.824C255.998 633.521 256.087 633.197 256.087 632.852V631.727C256.026 631.788 255.909 631.845 255.734 631.898C255.564 631.947 255.369 631.991 255.149 632.028C254.929 632.062 254.715 632.095 254.507 632.125C254.299 632.152 254.125 632.174 253.984 632.193C253.655 632.235 253.354 632.305 253.081 632.403C252.812 632.502 252.596 632.644 252.433 632.83C252.274 633.011 252.195 633.254 252.195 633.557C252.195 633.977 252.35 634.295 252.661 634.511C252.971 634.723 253.367 634.83 253.848 634.83ZM264.122 627.273V628.636H259.355V627.273H264.122ZM260.634 625.182H262.332V633.438C262.332 633.767 262.382 634.015 262.48 634.182C262.579 634.345 262.705 634.456 262.861 634.517C263.02 634.574 263.192 634.602 263.378 634.602C263.514 634.602 263.634 634.593 263.736 634.574C263.838 634.555 263.918 634.54 263.974 634.528L264.281 635.932C264.183 635.97 264.043 636.008 263.861 636.045C263.679 636.087 263.452 636.11 263.179 636.114C262.732 636.121 262.315 636.042 261.929 635.875C261.543 635.708 261.23 635.451 260.991 635.102C260.753 634.754 260.634 634.316 260.634 633.79V625.182ZM266.001 636V627.273H267.7V636H266.001ZM266.859 625.926C266.564 625.926 266.31 625.828 266.098 625.631C265.89 625.43 265.786 625.191 265.786 624.915C265.786 624.634 265.89 624.396 266.098 624.199C266.31 623.998 266.564 623.898 266.859 623.898C267.155 623.898 267.407 623.998 267.615 624.199C267.827 624.396 267.933 624.634 267.933 624.915C267.933 625.191 267.827 625.43 267.615 625.631C267.407 625.828 267.155 625.926 266.859 625.926ZM273.662 636.176C272.844 636.176 272.13 635.989 271.52 635.614C270.91 635.239 270.437 634.714 270.099 634.04C269.762 633.366 269.594 632.578 269.594 631.676C269.594 630.771 269.762 629.979 270.099 629.301C270.437 628.623 270.91 628.097 271.52 627.722C272.13 627.347 272.844 627.159 273.662 627.159C274.48 627.159 275.194 627.347 275.804 627.722C276.414 628.097 276.887 628.623 277.224 629.301C277.562 629.979 277.73 630.771 277.73 631.676C277.73 632.578 277.562 633.366 277.224 634.04C276.887 634.714 276.414 635.239 275.804 635.614C275.194 635.989 274.48 636.176 273.662 636.176ZM273.668 634.75C274.198 634.75 274.637 634.61 274.986 634.33C275.334 634.049 275.592 633.676 275.759 633.21C275.929 632.744 276.014 632.231 276.014 631.67C276.014 631.114 275.929 630.602 275.759 630.136C275.592 629.667 275.334 629.29 274.986 629.006C274.637 628.722 274.198 628.58 273.668 628.58C273.134 628.58 272.69 628.722 272.338 629.006C271.99 629.29 271.73 629.667 271.56 630.136C271.393 630.602 271.31 631.114 271.31 631.67C271.31 632.231 271.393 632.744 271.56 633.21C271.73 633.676 271.99 634.049 272.338 634.33C272.69 634.61 273.134 634.75 273.668 634.75ZM281.325 630.818V636H279.626V627.273H281.257V628.693H281.365C281.566 628.231 281.88 627.86 282.308 627.58C282.74 627.299 283.284 627.159 283.939 627.159C284.534 627.159 285.054 627.284 285.501 627.534C285.948 627.78 286.295 628.148 286.541 628.636C286.787 629.125 286.911 629.729 286.911 630.449V636H285.212V630.653C285.212 630.021 285.047 629.527 284.717 629.17C284.388 628.811 283.935 628.631 283.359 628.631C282.965 628.631 282.615 628.716 282.308 628.886C282.005 629.057 281.765 629.307 281.587 629.636C281.412 629.962 281.325 630.356 281.325 630.818ZM291.399 634.409L291.314 635.028C291.257 635.483 291.161 635.956 291.024 636.449C290.892 636.945 290.753 637.405 290.609 637.83C290.469 638.254 290.354 638.591 290.263 638.841H289.058C289.107 638.606 289.176 638.288 289.263 637.886C289.35 637.489 289.435 637.044 289.518 636.551C289.602 636.059 289.664 635.557 289.706 635.045L289.763 634.409H291.399ZM297.408 625.875V624.364H306.413V625.875H302.783V636H301.033V625.875H297.408ZM309.619 636.193C309.066 636.193 308.566 636.091 308.119 635.886C307.672 635.678 307.318 635.377 307.057 634.983C306.799 634.589 306.67 634.106 306.67 633.534C306.67 633.042 306.765 632.636 306.955 632.318C307.144 632 307.4 631.748 307.722 631.562C308.044 631.377 308.403 631.237 308.801 631.142C309.199 631.047 309.604 630.975 310.017 630.926C310.54 630.866 310.964 630.816 311.29 630.778C311.616 630.737 311.852 630.67 312 630.58C312.148 630.489 312.222 630.341 312.222 630.136V630.097C312.222 629.6 312.081 629.216 311.801 628.943C311.525 628.67 311.112 628.534 310.562 628.534C309.991 628.534 309.54 628.661 309.21 628.915C308.884 629.165 308.659 629.443 308.534 629.75L306.938 629.386C307.127 628.856 307.403 628.428 307.767 628.102C308.134 627.773 308.557 627.534 309.034 627.386C309.511 627.235 310.013 627.159 310.54 627.159C310.888 627.159 311.258 627.201 311.648 627.284C312.042 627.364 312.409 627.511 312.75 627.727C313.095 627.943 313.377 628.252 313.597 628.653C313.816 629.051 313.926 629.568 313.926 630.205V636H312.267V634.807H312.199C312.089 635.027 311.924 635.242 311.705 635.455C311.485 635.667 311.203 635.843 310.858 635.983C310.513 636.123 310.1 636.193 309.619 636.193ZM309.989 634.83C310.458 634.83 310.86 634.737 311.193 634.551C311.53 634.366 311.786 634.123 311.96 633.824C312.138 633.521 312.227 633.197 312.227 632.852V631.727C312.167 631.788 312.049 631.845 311.875 631.898C311.705 631.947 311.509 631.991 311.29 632.028C311.07 632.062 310.856 632.095 310.648 632.125C310.439 632.152 310.265 632.174 310.125 632.193C309.795 632.235 309.494 632.305 309.222 632.403C308.953 632.502 308.737 632.644 308.574 632.83C308.415 633.011 308.335 633.254 308.335 633.557C308.335 633.977 308.491 634.295 308.801 634.511C309.112 634.723 309.508 634.83 309.989 634.83ZM319.848 639.455C319.155 639.455 318.558 639.364 318.058 639.182C317.562 639 317.157 638.759 316.842 638.46C316.528 638.161 316.293 637.833 316.138 637.477L317.598 636.875C317.7 637.042 317.837 637.218 318.007 637.403C318.181 637.593 318.416 637.754 318.712 637.886C319.011 638.019 319.395 638.085 319.865 638.085C320.509 638.085 321.041 637.928 321.462 637.614C321.882 637.303 322.092 636.807 322.092 636.125V634.409H321.984C321.882 634.595 321.734 634.801 321.541 635.028C321.352 635.256 321.09 635.453 320.757 635.619C320.424 635.786 319.99 635.869 319.456 635.869C318.767 635.869 318.145 635.708 317.592 635.386C317.043 635.061 316.607 634.581 316.286 633.949C315.967 633.312 315.808 632.53 315.808 631.602C315.808 630.674 315.965 629.879 316.28 629.216C316.598 628.553 317.034 628.045 317.587 627.693C318.14 627.337 318.767 627.159 319.467 627.159C320.009 627.159 320.446 627.25 320.78 627.432C321.113 627.61 321.373 627.818 321.558 628.057C321.748 628.295 321.893 628.506 321.996 628.688H322.121V627.273H323.786V636.193C323.786 636.943 323.611 637.559 323.263 638.04C322.914 638.521 322.443 638.877 321.848 639.108C321.257 639.339 320.59 639.455 319.848 639.455ZM319.831 634.46C320.32 634.46 320.732 634.347 321.07 634.119C321.411 633.888 321.668 633.559 321.842 633.131C322.02 632.699 322.109 632.182 322.109 631.58C322.109 630.992 322.022 630.475 321.848 630.028C321.674 629.581 321.418 629.233 321.081 628.983C320.744 628.729 320.327 628.602 319.831 628.602C319.32 628.602 318.893 628.735 318.553 629C318.212 629.261 317.954 629.617 317.78 630.068C317.609 630.519 317.524 631.023 317.524 631.58C317.524 632.152 317.611 632.653 317.786 633.085C317.96 633.517 318.217 633.854 318.558 634.097C318.903 634.339 319.327 634.46 319.831 634.46ZM332.604 629.403L331.064 629.676C331 629.479 330.897 629.292 330.757 629.114C330.621 628.936 330.435 628.79 330.2 628.676C329.965 628.562 329.672 628.506 329.32 628.506C328.839 628.506 328.437 628.614 328.115 628.83C327.793 629.042 327.632 629.316 327.632 629.653C327.632 629.945 327.74 630.18 327.956 630.358C328.172 630.536 328.52 630.682 329.001 630.795L330.388 631.114C331.191 631.299 331.789 631.585 332.183 631.972C332.577 632.358 332.774 632.86 332.774 633.477C332.774 634 332.623 634.466 332.32 634.875C332.02 635.28 331.602 635.598 331.064 635.83C330.53 636.061 329.911 636.176 329.206 636.176C328.229 636.176 327.431 635.968 326.814 635.551C326.196 635.131 325.818 634.534 325.678 633.761L327.32 633.511C327.422 633.939 327.632 634.263 327.95 634.483C328.268 634.699 328.683 634.807 329.195 634.807C329.751 634.807 330.196 634.691 330.53 634.46C330.863 634.225 331.03 633.939 331.03 633.602C331.03 633.33 330.928 633.1 330.723 632.915C330.522 632.729 330.214 632.589 329.797 632.494L328.32 632.17C327.505 631.985 326.903 631.689 326.513 631.284C326.126 630.879 325.933 630.366 325.933 629.744C325.933 629.229 326.077 628.778 326.365 628.392C326.653 628.006 327.051 627.705 327.558 627.489C328.066 627.269 328.647 627.159 329.303 627.159C330.246 627.159 330.988 627.364 331.53 627.773C332.071 628.178 332.429 628.722 332.604 629.403ZM336.852 634.409L336.767 635.028C336.71 635.483 336.614 635.956 336.477 636.449C336.345 636.945 336.206 637.405 336.062 637.83C335.922 638.254 335.807 638.591 335.716 638.841H334.511C334.561 638.606 334.629 638.288 334.716 637.886C334.803 637.489 334.888 637.044 334.972 636.551C335.055 636.059 335.117 635.557 335.159 635.045L335.216 634.409H336.852ZM342.861 625.875V624.364H351.866V625.875H348.236V636H346.486V625.875H342.861ZM355.072 636.193C354.519 636.193 354.019 636.091 353.572 635.886C353.125 635.678 352.771 635.377 352.51 634.983C352.252 634.589 352.124 634.106 352.124 633.534C352.124 633.042 352.218 632.636 352.408 632.318C352.597 632 352.853 631.748 353.175 631.562C353.497 631.377 353.857 631.237 354.254 631.142C354.652 631.047 355.057 630.975 355.47 630.926C355.993 630.866 356.417 630.816 356.743 630.778C357.069 630.737 357.305 630.67 357.453 630.58C357.601 630.489 357.675 630.341 357.675 630.136V630.097C357.675 629.6 357.535 629.216 357.254 628.943C356.978 628.67 356.565 628.534 356.016 628.534C355.444 628.534 354.993 628.661 354.663 628.915C354.338 629.165 354.112 629.443 353.987 629.75L352.391 629.386C352.58 628.856 352.857 628.428 353.22 628.102C353.588 627.773 354.01 627.534 354.487 627.386C354.964 627.235 355.466 627.159 355.993 627.159C356.341 627.159 356.711 627.201 357.101 627.284C357.495 627.364 357.862 627.511 358.203 627.727C358.548 627.943 358.83 628.252 359.05 628.653C359.269 629.051 359.379 629.568 359.379 630.205V636H357.72V634.807H357.652C357.542 635.027 357.377 635.242 357.158 635.455C356.938 635.667 356.656 635.843 356.311 635.983C355.966 636.123 355.554 636.193 355.072 636.193ZM355.442 634.83C355.911 634.83 356.313 634.737 356.646 634.551C356.983 634.366 357.239 634.123 357.413 633.824C357.591 633.521 357.68 633.197 357.68 632.852V631.727C357.62 631.788 357.502 631.845 357.328 631.898C357.158 631.947 356.963 631.991 356.743 632.028C356.523 632.062 356.309 632.095 356.101 632.125C355.893 632.152 355.718 632.174 355.578 632.193C355.249 632.235 354.947 632.305 354.675 632.403C354.406 632.502 354.19 632.644 354.027 632.83C353.868 633.011 353.788 633.254 353.788 633.557C353.788 633.977 353.944 634.295 354.254 634.511C354.565 634.723 354.961 634.83 355.442 634.83ZM361.778 636V624.364H363.477V628.688H363.58C363.678 628.506 363.82 628.295 364.006 628.057C364.191 627.818 364.449 627.61 364.778 627.432C365.108 627.25 365.544 627.159 366.085 627.159C366.79 627.159 367.419 627.337 367.972 627.693C368.525 628.049 368.958 628.562 369.273 629.233C369.591 629.903 369.75 630.71 369.75 631.653C369.75 632.597 369.593 633.405 369.278 634.08C368.964 634.75 368.532 635.267 367.983 635.631C367.434 635.991 366.807 636.17 366.102 636.17C365.572 636.17 365.138 636.081 364.801 635.903C364.468 635.725 364.206 635.517 364.017 635.278C363.828 635.04 363.682 634.828 363.58 634.642H363.438V636H361.778ZM363.443 631.636C363.443 632.25 363.532 632.788 363.71 633.25C363.888 633.712 364.146 634.074 364.483 634.335C364.82 634.593 365.233 634.722 365.722 634.722C366.229 634.722 366.653 634.587 366.994 634.318C367.335 634.045 367.593 633.676 367.767 633.21C367.945 632.744 368.034 632.22 368.034 631.636C368.034 631.061 367.947 630.544 367.773 630.085C367.602 629.627 367.345 629.265 367 629C366.659 628.735 366.233 628.602 365.722 628.602C365.229 628.602 364.812 628.729 364.472 628.983C364.134 629.237 363.879 629.591 363.705 630.045C363.53 630.5 363.443 631.03 363.443 631.636ZM378.197 629.403L376.658 629.676C376.593 629.479 376.491 629.292 376.351 629.114C376.214 628.936 376.029 628.79 375.794 628.676C375.559 628.562 375.266 628.506 374.913 628.506C374.432 628.506 374.031 628.614 373.709 628.83C373.387 629.042 373.226 629.316 373.226 629.653C373.226 629.945 373.334 630.18 373.55 630.358C373.766 630.536 374.114 630.682 374.595 630.795L375.982 631.114C376.785 631.299 377.383 631.585 377.777 631.972C378.171 632.358 378.368 632.86 378.368 633.477C378.368 634 378.216 634.466 377.913 634.875C377.614 635.28 377.196 635.598 376.658 635.83C376.124 636.061 375.504 636.176 374.8 636.176C373.822 636.176 373.025 635.968 372.408 635.551C371.79 635.131 371.411 634.534 371.271 633.761L372.913 633.511C373.016 633.939 373.226 634.263 373.544 634.483C373.862 634.699 374.277 634.807 374.788 634.807C375.345 634.807 375.79 634.691 376.124 634.46C376.457 634.225 376.624 633.939 376.624 633.602C376.624 633.33 376.521 633.1 376.317 632.915C376.116 632.729 375.807 632.589 375.391 632.494L373.913 632.17C373.099 631.985 372.497 631.689 372.107 631.284C371.72 630.879 371.527 630.366 371.527 629.744C371.527 629.229 371.671 628.778 371.959 628.392C372.247 628.006 372.644 627.705 373.152 627.489C373.66 627.269 374.241 627.159 374.896 627.159C375.839 627.159 376.582 627.364 377.124 627.773C377.665 628.178 378.023 628.722 378.197 629.403ZM382.446 634.409L382.361 635.028C382.304 635.483 382.207 635.956 382.071 636.449C381.938 636.945 381.8 637.405 381.656 637.83C381.516 638.254 381.401 638.591 381.31 638.841H380.105C380.154 638.606 380.223 638.288 380.31 637.886C380.397 637.489 380.482 637.044 380.565 636.551C380.649 636.059 380.711 635.557 380.753 635.045L380.81 634.409H382.446ZM388.455 625.875V624.364H397.46V625.875H393.83V636H392.08V625.875H388.455ZM400.666 636.193C400.113 636.193 399.613 636.091 399.166 635.886C398.719 635.678 398.365 635.377 398.104 634.983C397.846 634.589 397.717 634.106 397.717 633.534C397.717 633.042 397.812 632.636 398.001 632.318C398.191 632 398.446 631.748 398.768 631.562C399.09 631.377 399.45 631.237 399.848 631.142C400.246 631.047 400.651 630.975 401.064 630.926C401.587 630.866 402.011 630.816 402.337 630.778C402.662 630.737 402.899 630.67 403.047 630.58C403.195 630.489 403.268 630.341 403.268 630.136V630.097C403.268 629.6 403.128 629.216 402.848 628.943C402.571 628.67 402.159 628.534 401.609 628.534C401.037 628.534 400.587 628.661 400.257 628.915C399.931 629.165 399.706 629.443 399.581 629.75L397.984 629.386C398.174 628.856 398.45 628.428 398.814 628.102C399.181 627.773 399.604 627.534 400.081 627.386C400.558 627.235 401.06 627.159 401.587 627.159C401.935 627.159 402.304 627.201 402.695 627.284C403.089 627.364 403.456 627.511 403.797 627.727C404.142 627.943 404.424 628.252 404.643 628.653C404.863 629.051 404.973 629.568 404.973 630.205V636H403.314V634.807H403.246C403.136 635.027 402.971 635.242 402.751 635.455C402.532 635.667 402.25 635.843 401.905 635.983C401.56 636.123 401.147 636.193 400.666 636.193ZM401.036 634.83C401.505 634.83 401.907 634.737 402.24 634.551C402.577 634.366 402.833 634.123 403.007 633.824C403.185 633.521 403.274 633.197 403.274 632.852V631.727C403.214 631.788 403.096 631.845 402.922 631.898C402.751 631.947 402.556 631.991 402.337 632.028C402.117 632.062 401.903 632.095 401.695 632.125C401.486 632.152 401.312 632.174 401.172 632.193C400.842 632.235 400.541 632.305 400.268 632.403C400 632.502 399.784 632.644 399.621 632.83C399.462 633.011 399.382 633.254 399.382 633.557C399.382 633.977 399.537 634.295 399.848 634.511C400.159 634.723 400.554 634.83 401.036 634.83ZM407.372 636V624.364H409.071V628.688H409.173C409.272 628.506 409.414 628.295 409.599 628.057C409.785 627.818 410.043 627.61 410.372 627.432C410.702 627.25 411.137 627.159 411.679 627.159C412.384 627.159 413.012 627.337 413.565 627.693C414.118 628.049 414.552 628.562 414.866 629.233C415.185 629.903 415.344 630.71 415.344 631.653C415.344 632.597 415.187 633.405 414.872 634.08C414.558 634.75 414.126 635.267 413.577 635.631C413.027 635.991 412.401 636.17 411.696 636.17C411.166 636.17 410.732 636.081 410.395 635.903C410.062 635.725 409.8 635.517 409.611 635.278C409.421 635.04 409.276 634.828 409.173 634.642H409.031V636H407.372ZM409.037 631.636C409.037 632.25 409.126 632.788 409.304 633.25C409.482 633.712 409.74 634.074 410.077 634.335C410.414 634.593 410.827 634.722 411.315 634.722C411.823 634.722 412.247 634.587 412.588 634.318C412.929 634.045 413.187 633.676 413.361 633.21C413.539 632.744 413.628 632.22 413.628 631.636C413.628 631.061 413.541 630.544 413.366 630.085C413.196 629.627 412.938 629.265 412.594 629C412.253 628.735 411.827 628.602 411.315 628.602C410.823 628.602 410.406 628.729 410.065 628.983C409.728 629.237 409.473 629.591 409.298 630.045C409.124 630.5 409.037 631.03 409.037 631.636ZM418.95 624.364V636H417.251V624.364H418.95ZM424.997 636.176C424.137 636.176 423.397 635.992 422.776 635.625C422.158 635.254 421.681 634.733 421.344 634.062C421.01 633.388 420.844 632.598 420.844 631.693C420.844 630.799 421.01 630.011 421.344 629.33C421.681 628.648 422.151 628.116 422.753 627.733C423.359 627.35 424.067 627.159 424.878 627.159C425.37 627.159 425.848 627.241 426.31 627.403C426.772 627.566 427.187 627.822 427.554 628.17C427.921 628.519 428.211 628.972 428.423 629.528C428.635 630.081 428.741 630.754 428.741 631.545V632.148H421.804V630.875H427.077C427.077 630.428 426.986 630.032 426.804 629.688C426.622 629.339 426.366 629.064 426.037 628.864C425.711 628.663 425.329 628.562 424.889 628.562C424.412 628.562 423.995 628.68 423.639 628.915C423.287 629.146 423.014 629.449 422.821 629.824C422.632 630.195 422.537 630.598 422.537 631.034V632.028C422.537 632.612 422.639 633.108 422.844 633.517C423.052 633.926 423.342 634.239 423.713 634.455C424.084 634.667 424.518 634.773 425.014 634.773C425.336 634.773 425.63 634.727 425.895 634.636C426.16 634.542 426.389 634.402 426.582 634.216C426.776 634.03 426.923 633.801 427.026 633.528L428.634 633.818C428.505 634.292 428.274 634.706 427.94 635.062C427.611 635.415 427.196 635.689 426.696 635.886C426.2 636.08 425.634 636.176 424.997 636.176ZM434.997 636V624.364H436.753V629.42H442.554V624.364H444.315V636H442.554V630.926H436.753V636H434.997ZM450.497 636.176C449.637 636.176 448.897 635.992 448.276 635.625C447.658 635.254 447.181 634.733 446.844 634.062C446.51 633.388 446.344 632.598 446.344 631.693C446.344 630.799 446.51 630.011 446.844 629.33C447.181 628.648 447.651 628.116 448.253 627.733C448.859 627.35 449.567 627.159 450.378 627.159C450.87 627.159 451.348 627.241 451.81 627.403C452.272 627.566 452.687 627.822 453.054 628.17C453.421 628.519 453.711 628.972 453.923 629.528C454.135 630.081 454.241 630.754 454.241 631.545V632.148H447.304V630.875H452.577C452.577 630.428 452.486 630.032 452.304 629.688C452.122 629.339 451.866 629.064 451.537 628.864C451.211 628.663 450.829 628.562 450.389 628.562C449.912 628.562 449.495 628.68 449.139 628.915C448.787 629.146 448.514 629.449 448.321 629.824C448.132 630.195 448.037 630.598 448.037 631.034V632.028C448.037 632.612 448.139 633.108 448.344 633.517C448.552 633.926 448.842 634.239 449.213 634.455C449.584 634.667 450.018 634.773 450.514 634.773C450.836 634.773 451.13 634.727 451.395 634.636C451.66 634.542 451.889 634.402 452.082 634.216C452.276 634.03 452.423 633.801 452.526 633.528L454.134 633.818C454.005 634.292 453.774 634.706 453.44 635.062C453.111 635.415 452.696 635.689 452.196 635.886C451.7 636.08 451.134 636.176 450.497 636.176ZM458.666 636.193C458.113 636.193 457.613 636.091 457.166 635.886C456.719 635.678 456.365 635.377 456.104 634.983C455.846 634.589 455.717 634.106 455.717 633.534C455.717 633.042 455.812 632.636 456.001 632.318C456.191 632 456.446 631.748 456.768 631.562C457.09 631.377 457.45 631.237 457.848 631.142C458.246 631.047 458.651 630.975 459.064 630.926C459.587 630.866 460.011 630.816 460.337 630.778C460.662 630.737 460.899 630.67 461.047 630.58C461.195 630.489 461.268 630.341 461.268 630.136V630.097C461.268 629.6 461.128 629.216 460.848 628.943C460.571 628.67 460.159 628.534 459.609 628.534C459.037 628.534 458.587 628.661 458.257 628.915C457.931 629.165 457.706 629.443 457.581 629.75L455.984 629.386C456.174 628.856 456.45 628.428 456.814 628.102C457.181 627.773 457.604 627.534 458.081 627.386C458.558 627.235 459.06 627.159 459.587 627.159C459.935 627.159 460.304 627.201 460.695 627.284C461.089 627.364 461.456 627.511 461.797 627.727C462.142 627.943 462.424 628.252 462.643 628.653C462.863 629.051 462.973 629.568 462.973 630.205V636H461.314V634.807H461.246C461.136 635.027 460.971 635.242 460.751 635.455C460.532 635.667 460.25 635.843 459.905 635.983C459.56 636.123 459.147 636.193 458.666 636.193ZM459.036 634.83C459.505 634.83 459.907 634.737 460.24 634.551C460.577 634.366 460.833 634.123 461.007 633.824C461.185 633.521 461.274 633.197 461.274 632.852V631.727C461.214 631.788 461.096 631.845 460.922 631.898C460.751 631.947 460.556 631.991 460.337 632.028C460.117 632.062 459.903 632.095 459.695 632.125C459.486 632.152 459.312 632.174 459.172 632.193C458.842 632.235 458.541 632.305 458.268 632.403C458 632.502 457.784 632.644 457.621 632.83C457.462 633.011 457.382 633.254 457.382 633.557C457.382 633.977 457.537 634.295 457.848 634.511C458.159 634.723 458.554 634.83 459.036 634.83ZM468.503 636.17C467.798 636.17 467.17 635.991 466.616 635.631C466.067 635.267 465.635 634.75 465.321 634.08C465.01 633.405 464.855 632.597 464.855 631.653C464.855 630.71 465.012 629.903 465.327 629.233C465.645 628.562 466.08 628.049 466.634 627.693C467.187 627.337 467.813 627.159 468.514 627.159C469.056 627.159 469.491 627.25 469.821 627.432C470.154 627.61 470.412 627.818 470.594 628.057C470.779 628.295 470.923 628.506 471.026 628.688H471.128V624.364H472.827V636H471.168V634.642H471.026C470.923 634.828 470.776 635.04 470.582 635.278C470.393 635.517 470.132 635.725 469.798 635.903C469.465 636.081 469.033 636.17 468.503 636.17ZM468.878 634.722C469.366 634.722 469.779 634.593 470.116 634.335C470.457 634.074 470.715 633.712 470.889 633.25C471.067 632.788 471.156 632.25 471.156 631.636C471.156 631.03 471.069 630.5 470.895 630.045C470.721 629.591 470.465 629.237 470.128 628.983C469.791 628.729 469.374 628.602 468.878 628.602C468.366 628.602 467.94 628.735 467.599 629C467.259 629.265 467.001 629.627 466.827 630.085C466.656 630.544 466.571 631.061 466.571 631.636C466.571 632.22 466.658 632.744 466.832 633.21C467.007 633.676 467.264 634.045 467.605 634.318C467.95 634.587 468.374 634.722 468.878 634.722ZM479.013 636.176C478.153 636.176 477.412 635.992 476.791 635.625C476.174 635.254 475.696 634.733 475.359 634.062C475.026 633.388 474.859 632.598 474.859 631.693C474.859 630.799 475.026 630.011 475.359 629.33C475.696 628.648 476.166 628.116 476.768 627.733C477.375 627.35 478.083 627.159 478.893 627.159C479.386 627.159 479.863 627.241 480.325 627.403C480.787 627.566 481.202 627.822 481.57 628.17C481.937 628.519 482.227 628.972 482.439 629.528C482.651 630.081 482.757 630.754 482.757 631.545V632.148H475.82V630.875H481.092C481.092 630.428 481.001 630.032 480.82 629.688C480.638 629.339 480.382 629.064 480.053 628.864C479.727 628.663 479.344 628.562 478.905 628.562C478.428 628.562 478.011 628.68 477.655 628.915C477.303 629.146 477.03 629.449 476.837 629.824C476.647 630.195 476.553 630.598 476.553 631.034V632.028C476.553 632.612 476.655 633.108 476.859 633.517C477.068 633.926 477.357 634.239 477.729 634.455C478.1 634.667 478.534 634.773 479.03 634.773C479.352 634.773 479.645 634.727 479.911 634.636C480.176 634.542 480.405 634.402 480.598 634.216C480.791 634.03 480.939 633.801 481.041 633.528L482.649 633.818C482.52 634.292 482.289 634.706 481.956 635.062C481.626 635.415 481.212 635.689 480.712 635.886C480.215 636.08 479.649 636.176 479.013 636.176ZM484.642 636V627.273H486.284V628.659H486.375C486.534 628.189 486.814 627.82 487.216 627.551C487.621 627.278 488.08 627.142 488.591 627.142C488.697 627.142 488.822 627.146 488.966 627.153C489.114 627.161 489.229 627.17 489.312 627.182V628.807C489.244 628.788 489.123 628.767 488.949 628.744C488.775 628.718 488.6 628.705 488.426 628.705C488.025 628.705 487.667 628.79 487.352 628.96C487.042 629.127 486.795 629.36 486.614 629.659C486.432 629.955 486.341 630.292 486.341 630.67V636H484.642ZM491.993 634.409L491.908 635.028C491.851 635.483 491.754 635.956 491.618 636.449C491.485 636.945 491.347 637.405 491.203 637.83C491.063 638.254 490.947 638.591 490.857 638.841H489.652C489.701 638.606 489.769 638.288 489.857 637.886C489.944 637.489 490.029 637.044 490.112 636.551C490.196 636.059 490.258 635.557 490.3 635.045L490.357 634.409H491.993ZM500.331 624.364V636H498.575V624.364H500.331ZM504.45 630.818V636H502.751V627.273H504.382V628.693H504.49C504.691 628.231 505.005 627.86 505.433 627.58C505.865 627.299 506.409 627.159 507.064 627.159C507.659 627.159 508.179 627.284 508.626 627.534C509.073 627.78 509.42 628.148 509.666 628.636C509.912 629.125 510.036 629.729 510.036 630.449V636H508.337V630.653C508.337 630.021 508.172 629.527 507.842 629.17C507.513 628.811 507.06 628.631 506.484 628.631C506.09 628.631 505.74 628.716 505.433 628.886C505.13 629.057 504.89 629.307 504.712 629.636C504.537 629.962 504.45 630.356 504.45 630.818ZM512.314 639.273V627.273H513.973V628.688H514.115C514.214 628.506 514.356 628.295 514.541 628.057C514.727 627.818 514.984 627.61 515.314 627.432C515.643 627.25 516.079 627.159 516.621 627.159C517.325 627.159 517.954 627.337 518.507 627.693C519.06 628.049 519.494 628.562 519.808 629.233C520.126 629.903 520.286 630.71 520.286 631.653C520.286 632.597 520.128 633.405 519.814 634.08C519.5 634.75 519.068 635.267 518.518 635.631C517.969 635.991 517.342 636.17 516.638 636.17C516.107 636.17 515.674 636.081 515.337 635.903C515.003 635.725 514.742 635.517 514.553 635.278C514.363 635.04 514.217 634.828 514.115 634.642H514.013V639.273H512.314ZM513.979 631.636C513.979 632.25 514.068 632.788 514.246 633.25C514.424 633.712 514.681 634.074 515.018 634.335C515.356 634.593 515.768 634.722 516.257 634.722C516.765 634.722 517.189 634.587 517.53 634.318C517.871 634.045 518.128 633.676 518.303 633.21C518.481 632.744 518.57 632.22 518.57 631.636C518.57 631.061 518.482 630.544 518.308 630.085C518.138 629.627 517.88 629.265 517.536 629C517.195 628.735 516.768 628.602 516.257 628.602C515.765 628.602 515.348 628.729 515.007 628.983C514.67 629.237 514.414 629.591 514.24 630.045C514.066 630.5 513.979 631.03 513.979 631.636ZM527.717 632.381V627.273H529.422V636H527.751V634.489H527.661C527.46 634.955 527.138 635.343 526.695 635.653C526.255 635.96 525.708 636.114 525.053 636.114C524.492 636.114 523.996 635.991 523.564 635.744C523.136 635.494 522.799 635.125 522.553 634.636C522.31 634.148 522.189 633.544 522.189 632.824V627.273H523.888V632.619C523.888 633.214 524.053 633.687 524.382 634.04C524.712 634.392 525.14 634.568 525.666 634.568C525.984 634.568 526.301 634.489 526.615 634.33C526.933 634.17 527.196 633.93 527.405 633.608C527.617 633.286 527.721 632.877 527.717 632.381ZM535.778 627.273V628.636H531.011V627.273H535.778ZM532.29 625.182H533.989V633.438C533.989 633.767 534.038 634.015 534.136 634.182C534.235 634.345 534.362 634.456 534.517 634.517C534.676 634.574 534.848 634.602 535.034 634.602C535.17 634.602 535.29 634.593 535.392 634.574C535.494 634.555 535.574 634.54 535.631 634.528L535.938 635.932C535.839 635.97 535.699 636.008 535.517 636.045C535.335 636.087 535.108 636.11 534.835 636.114C534.388 636.121 533.972 636.042 533.585 635.875C533.199 635.708 532.886 635.451 532.648 635.102C532.409 634.754 532.29 634.316 532.29 633.79V625.182ZM41.2784 660V648.364H48.4943V649.875H43.0341V653.42H47.9773V654.926H43.0341V660H41.2784ZM50.517 660V651.273H52.2159V660H50.517ZM51.375 649.926C51.0795 649.926 50.8258 649.828 50.6136 649.631C50.4053 649.43 50.3011 649.191 50.3011 648.915C50.3011 648.634 50.4053 648.396 50.6136 648.199C50.8258 647.998 51.0795 647.898 51.375 647.898C51.6705 647.898 51.9223 647.998 52.1307 648.199C52.3428 648.396 52.4489 648.634 52.4489 648.915C52.4489 649.191 52.3428 649.43 52.1307 649.631C51.9223 649.828 51.6705 649.926 51.375 649.926ZM58.2628 660.176C57.4029 660.176 56.6624 659.992 56.0412 659.625C55.4238 659.254 54.9465 658.733 54.6094 658.062C54.276 657.388 54.1094 656.598 54.1094 655.693C54.1094 654.799 54.276 654.011 54.6094 653.33C54.9465 652.648 55.4162 652.116 56.0185 651.733C56.6245 651.35 57.3329 651.159 58.1435 651.159C58.6359 651.159 59.1132 651.241 59.5753 651.403C60.0374 651.566 60.4522 651.822 60.8196 652.17C61.187 652.519 61.4768 652.972 61.6889 653.528C61.901 654.081 62.0071 654.754 62.0071 655.545V656.148H55.0696V654.875H60.3423C60.3423 654.428 60.2514 654.032 60.0696 653.688C59.8878 653.339 59.6321 653.064 59.3026 652.864C58.9768 652.663 58.5942 652.562 58.1548 652.562C57.6776 652.562 57.2609 652.68 56.9048 652.915C56.5526 653.146 56.2798 653.449 56.0866 653.824C55.8973 654.195 55.8026 654.598 55.8026 655.034V656.028C55.8026 656.612 55.9048 657.108 56.1094 657.517C56.3177 657.926 56.6075 658.239 56.9787 658.455C57.3499 658.667 57.7836 658.773 58.2798 658.773C58.6018 658.773 58.8954 658.727 59.1605 658.636C59.4257 658.542 59.6548 658.402 59.848 658.216C60.0412 658.03 60.1889 657.801 60.2912 657.528L61.8991 657.818C61.7704 658.292 61.5393 658.706 61.206 659.062C60.8764 659.415 60.4616 659.689 59.9616 659.886C59.4654 660.08 58.8991 660.176 58.2628 660.176ZM65.5909 648.364V660H63.892V648.364H65.5909ZM71.1435 660.17C70.4389 660.17 69.8101 659.991 69.2571 659.631C68.7079 659.267 68.276 658.75 67.9616 658.08C67.651 657.405 67.4957 656.597 67.4957 655.653C67.4957 654.71 67.6529 653.903 67.9673 653.233C68.2855 652.562 68.7211 652.049 69.2741 651.693C69.8272 651.337 70.4541 651.159 71.1548 651.159C71.6965 651.159 72.1321 651.25 72.4616 651.432C72.795 651.61 73.0526 651.818 73.2344 652.057C73.42 652.295 73.5639 652.506 73.6662 652.688H73.7685V648.364H75.4673V660H73.8082V658.642H73.6662C73.5639 658.828 73.4162 659.04 73.223 659.278C73.0336 659.517 72.7723 659.725 72.4389 659.903C72.1056 660.081 71.6738 660.17 71.1435 660.17ZM71.5185 658.722C72.0071 658.722 72.42 658.593 72.7571 658.335C73.098 658.074 73.3556 657.712 73.5298 657.25C73.7079 656.788 73.7969 656.25 73.7969 655.636C73.7969 655.03 73.7098 654.5 73.5355 654.045C73.3613 653.591 73.1056 653.237 72.7685 652.983C72.4313 652.729 72.0147 652.602 71.5185 652.602C71.0071 652.602 70.581 652.735 70.2401 653C69.8991 653.265 69.6416 653.627 69.4673 654.085C69.2969 654.544 69.2116 655.061 69.2116 655.636C69.2116 656.22 69.2988 656.744 69.473 657.21C69.6473 657.676 69.9048 658.045 70.2457 658.318C70.5904 658.587 71.0147 658.722 71.5185 658.722ZM84.4318 653.403L82.892 653.676C82.8277 653.479 82.7254 653.292 82.5852 653.114C82.4489 652.936 82.2633 652.79 82.0284 652.676C81.7936 652.562 81.5 652.506 81.1477 652.506C80.6667 652.506 80.2652 652.614 79.9432 652.83C79.6212 653.042 79.4602 653.316 79.4602 653.653C79.4602 653.945 79.5682 654.18 79.7841 654.358C80 654.536 80.3485 654.682 80.8295 654.795L82.2159 655.114C83.0189 655.299 83.6174 655.585 84.0114 655.972C84.4053 656.358 84.6023 656.86 84.6023 657.477C84.6023 658 84.4508 658.466 84.1477 658.875C83.8485 659.28 83.4299 659.598 82.892 659.83C82.358 660.061 81.7386 660.176 81.0341 660.176C80.0568 660.176 79.2595 659.968 78.642 659.551C78.0246 659.131 77.6458 658.534 77.5057 657.761L79.1477 657.511C79.25 657.939 79.4602 658.263 79.7784 658.483C80.0966 658.699 80.5114 658.807 81.0227 658.807C81.5795 658.807 82.0246 658.691 82.358 658.46C82.6913 658.225 82.858 657.939 82.858 657.602C82.858 657.33 82.7557 657.1 82.5511 656.915C82.3504 656.729 82.0417 656.589 81.625 656.494L80.1477 656.17C79.3333 655.985 78.7311 655.689 78.3409 655.284C77.9545 654.879 77.7614 654.366 77.7614 653.744C77.7614 653.229 77.9053 652.778 78.1932 652.392C78.4811 652.006 78.8788 651.705 79.3864 651.489C79.8939 651.269 80.4754 651.159 81.1307 651.159C82.0739 651.159 82.8163 651.364 83.358 651.773C83.8996 652.178 84.2576 652.722 84.4318 653.403ZM90.8409 660V648.364H92.5966V653.42H98.3977V648.364H100.159V660H98.3977V654.926H92.5966V660H90.8409ZM106.341 660.176C105.481 660.176 104.741 659.992 104.119 659.625C103.502 659.254 103.025 658.733 102.688 658.062C102.354 657.388 102.188 656.598 102.188 655.693C102.188 654.799 102.354 654.011 102.688 653.33C103.025 652.648 103.494 652.116 104.097 651.733C104.703 651.35 105.411 651.159 106.222 651.159C106.714 651.159 107.191 651.241 107.653 651.403C108.116 651.566 108.53 651.822 108.898 652.17C109.265 652.519 109.555 652.972 109.767 653.528C109.979 654.081 110.085 654.754 110.085 655.545V656.148H103.148V654.875H108.42C108.42 654.428 108.33 654.032 108.148 653.688C107.966 653.339 107.71 653.064 107.381 652.864C107.055 652.663 106.672 652.562 106.233 652.562C105.756 652.562 105.339 652.68 104.983 652.915C104.631 653.146 104.358 653.449 104.165 653.824C103.975 654.195 103.881 654.598 103.881 655.034V656.028C103.881 656.612 103.983 657.108 104.188 657.517C104.396 657.926 104.686 658.239 105.057 658.455C105.428 658.667 105.862 658.773 106.358 658.773C106.68 658.773 106.973 658.727 107.239 658.636C107.504 658.542 107.733 658.402 107.926 658.216C108.119 658.03 108.267 657.801 108.369 657.528L109.977 657.818C109.848 658.292 109.617 658.706 109.284 659.062C108.955 659.415 108.54 659.689 108.04 659.886C107.544 660.08 106.977 660.176 106.341 660.176ZM114.51 660.193C113.957 660.193 113.457 660.091 113.01 659.886C112.563 659.678 112.209 659.377 111.947 658.983C111.69 658.589 111.561 658.106 111.561 657.534C111.561 657.042 111.656 656.636 111.845 656.318C112.035 656 112.29 655.748 112.612 655.562C112.934 655.377 113.294 655.237 113.692 655.142C114.089 655.047 114.495 654.975 114.908 654.926C115.43 654.866 115.855 654.816 116.18 654.778C116.506 654.737 116.743 654.67 116.891 654.58C117.038 654.489 117.112 654.341 117.112 654.136V654.097C117.112 653.6 116.972 653.216 116.692 652.943C116.415 652.67 116.002 652.534 115.453 652.534C114.881 652.534 114.43 652.661 114.101 652.915C113.775 653.165 113.55 653.443 113.425 653.75L111.828 653.386C112.018 652.856 112.294 652.428 112.658 652.102C113.025 651.773 113.447 651.534 113.925 651.386C114.402 651.235 114.904 651.159 115.43 651.159C115.779 651.159 116.148 651.201 116.538 651.284C116.932 651.364 117.3 651.511 117.641 651.727C117.985 651.943 118.268 652.252 118.487 652.653C118.707 653.051 118.817 653.568 118.817 654.205V660H117.158V658.807H117.089C116.98 659.027 116.815 659.242 116.595 659.455C116.375 659.667 116.093 659.843 115.749 659.983C115.404 660.123 114.991 660.193 114.51 660.193ZM114.879 658.83C115.349 658.83 115.75 658.737 116.084 658.551C116.421 658.366 116.677 658.123 116.851 657.824C117.029 657.521 117.118 657.197 117.118 656.852V655.727C117.057 655.788 116.94 655.845 116.766 655.898C116.595 655.947 116.4 655.991 116.18 656.028C115.961 656.062 115.747 656.095 115.538 656.125C115.33 656.152 115.156 656.174 115.016 656.193C114.686 656.235 114.385 656.305 114.112 656.403C113.843 656.502 113.627 656.644 113.464 656.83C113.305 657.011 113.226 657.254 113.226 657.557C113.226 657.977 113.381 658.295 113.692 658.511C114.002 658.723 114.398 658.83 114.879 658.83ZM124.347 660.17C123.642 660.17 123.013 659.991 122.46 659.631C121.911 659.267 121.479 658.75 121.165 658.08C120.854 657.405 120.699 656.597 120.699 655.653C120.699 654.71 120.856 653.903 121.17 653.233C121.489 652.562 121.924 652.049 122.477 651.693C123.03 651.337 123.657 651.159 124.358 651.159C124.9 651.159 125.335 651.25 125.665 651.432C125.998 651.61 126.256 651.818 126.438 652.057C126.623 652.295 126.767 652.506 126.869 652.688H126.972V648.364H128.67V660H127.011V658.642H126.869C126.767 658.828 126.619 659.04 126.426 659.278C126.237 659.517 125.975 659.725 125.642 659.903C125.309 660.081 124.877 660.17 124.347 660.17ZM124.722 658.722C125.21 658.722 125.623 658.593 125.96 658.335C126.301 658.074 126.559 657.712 126.733 657.25C126.911 656.788 127 656.25 127 655.636C127 655.03 126.913 654.5 126.739 654.045C126.564 653.591 126.309 653.237 125.972 652.983C125.634 652.729 125.218 652.602 124.722 652.602C124.21 652.602 123.784 652.735 123.443 653C123.102 653.265 122.845 653.627 122.67 654.085C122.5 654.544 122.415 655.061 122.415 655.636C122.415 656.22 122.502 656.744 122.676 657.21C122.85 657.676 123.108 658.045 123.449 658.318C123.794 658.587 124.218 658.722 124.722 658.722ZM134.857 660.176C133.997 660.176 133.256 659.992 132.635 659.625C132.018 659.254 131.54 658.733 131.203 658.062C130.87 657.388 130.703 656.598 130.703 655.693C130.703 654.799 130.87 654.011 131.203 653.33C131.54 652.648 132.01 652.116 132.612 651.733C133.218 651.35 133.927 651.159 134.737 651.159C135.23 651.159 135.707 651.241 136.169 651.403C136.631 651.566 137.046 651.822 137.413 652.17C137.781 652.519 138.071 652.972 138.283 653.528C138.495 654.081 138.601 654.754 138.601 655.545V656.148H131.663V654.875H136.936C136.936 654.428 136.845 654.032 136.663 653.688C136.482 653.339 136.226 653.064 135.896 652.864C135.571 652.663 135.188 652.562 134.749 652.562C134.271 652.562 133.855 652.68 133.499 652.915C133.146 653.146 132.874 653.449 132.68 653.824C132.491 654.195 132.396 654.598 132.396 655.034V656.028C132.396 656.612 132.499 657.108 132.703 657.517C132.911 657.926 133.201 658.239 133.572 658.455C133.944 658.667 134.377 658.773 134.874 658.773C135.196 658.773 135.489 658.727 135.754 658.636C136.019 658.542 136.249 658.402 136.442 658.216C136.635 658.03 136.783 657.801 136.885 657.528L138.493 657.818C138.364 658.292 138.133 658.706 137.8 659.062C137.47 659.415 137.055 659.689 136.555 659.886C136.059 660.08 135.493 660.176 134.857 660.176ZM140.486 660V651.273H142.128V652.659H142.219C142.378 652.189 142.658 651.82 143.06 651.551C143.465 651.278 143.923 651.142 144.435 651.142C144.541 651.142 144.666 651.146 144.81 651.153C144.957 651.161 145.073 651.17 145.156 651.182V652.807C145.088 652.788 144.967 652.767 144.793 652.744C144.618 652.718 144.444 652.705 144.27 652.705C143.868 652.705 143.51 652.79 143.196 652.96C142.885 653.127 142.639 653.36 142.457 653.659C142.276 653.955 142.185 654.292 142.185 654.67V660H140.486Z" fill="#272A40" fill-opacity="0.6"/>
<path d="M47.625 596.42C47.5644 595.883 47.3144 595.466 46.875 595.17C46.4356 594.871 45.8826 594.722 45.2159 594.722C44.7386 594.722 44.3258 594.797 43.9773 594.949C43.6288 595.097 43.358 595.301 43.1648 595.562C42.9754 595.82 42.8807 596.114 42.8807 596.443C42.8807 596.72 42.9451 596.958 43.0739 597.159C43.2064 597.36 43.3788 597.528 43.5909 597.665C43.8068 597.797 44.0379 597.909 44.2841 598C44.5303 598.087 44.767 598.159 44.9943 598.216L46.1307 598.511C46.5019 598.602 46.8826 598.725 47.2727 598.881C47.6629 599.036 48.0246 599.241 48.358 599.494C48.6913 599.748 48.9602 600.062 49.1648 600.438C49.3731 600.812 49.4773 601.261 49.4773 601.784C49.4773 602.443 49.3068 603.028 48.9659 603.54C48.6288 604.051 48.1383 604.455 47.4943 604.75C46.8542 605.045 46.0795 605.193 45.1705 605.193C44.2992 605.193 43.5455 605.055 42.9091 604.778C42.2727 604.502 41.7746 604.11 41.4148 603.602C41.0549 603.091 40.8561 602.485 40.8182 601.784H42.5795C42.6136 602.205 42.75 602.555 42.9886 602.835C43.2311 603.112 43.5398 603.318 43.9148 603.455C44.2936 603.587 44.7083 603.653 45.1591 603.653C45.6553 603.653 46.0966 603.576 46.483 603.42C46.8731 603.261 47.1799 603.042 47.4034 602.761C47.6269 602.477 47.7386 602.146 47.7386 601.767C47.7386 601.422 47.6402 601.14 47.4432 600.92C47.25 600.701 46.9867 600.519 46.6534 600.375C46.3239 600.231 45.9508 600.104 45.5341 599.994L44.1591 599.619C43.2273 599.366 42.4886 598.992 41.9432 598.5C41.4015 598.008 41.1307 597.356 41.1307 596.545C41.1307 595.875 41.3125 595.29 41.6761 594.79C42.0398 594.29 42.5322 593.902 43.1534 593.625C43.7746 593.345 44.4754 593.205 45.2557 593.205C46.0436 593.205 46.7386 593.343 47.3409 593.619C47.947 593.896 48.4242 594.277 48.7727 594.761C49.1212 595.242 49.303 595.795 49.3182 596.42H47.625ZM55.5128 596.273V597.636H50.7457V596.273H55.5128ZM52.0241 594.182H53.723V602.438C53.723 602.767 53.7723 603.015 53.8707 603.182C53.9692 603.345 54.0961 603.456 54.2514 603.517C54.4105 603.574 54.5829 603.602 54.7685 603.602C54.9048 603.602 55.0241 603.593 55.1264 603.574C55.2287 603.555 55.3082 603.54 55.3651 603.528L55.6719 604.932C55.5734 604.97 55.4332 605.008 55.2514 605.045C55.0696 605.087 54.8423 605.11 54.5696 605.114C54.1226 605.121 53.706 605.042 53.3196 604.875C52.9332 604.708 52.6207 604.451 52.3821 604.102C52.1435 603.754 52.0241 603.316 52.0241 602.79V594.182ZM58.4659 608.273C58.2121 608.273 57.9811 608.252 57.7727 608.21C57.5644 608.172 57.4091 608.131 57.3068 608.085L57.7159 606.693C58.0265 606.777 58.303 606.813 58.5455 606.801C58.7879 606.79 59.0019 606.699 59.1875 606.528C59.3769 606.358 59.5436 606.08 59.6875 605.693L59.8977 605.114L56.7045 596.273H58.5227L60.733 603.045H60.8239L63.0341 596.273H64.858L61.2614 606.165C61.0947 606.619 60.8826 607.004 60.625 607.318C60.3674 607.636 60.0606 607.875 59.7045 608.034C59.3485 608.193 58.9356 608.273 58.4659 608.273ZM68.1534 593.364V605H66.4545V593.364H68.1534ZM74.2003 605.176C73.3404 605.176 72.5999 604.992 71.9787 604.625C71.3613 604.254 70.884 603.733 70.5469 603.062C70.2135 602.388 70.0469 601.598 70.0469 600.693C70.0469 599.799 70.2135 599.011 70.5469 598.33C70.884 597.648 71.3537 597.116 71.956 596.733C72.562 596.35 73.2704 596.159 74.081 596.159C74.5734 596.159 75.0507 596.241 75.5128 596.403C75.9749 596.566 76.3897 596.822 76.7571 597.17C77.1245 597.519 77.4143 597.972 77.6264 598.528C77.8385 599.081 77.9446 599.754 77.9446 600.545V601.148H71.0071V599.875H76.2798C76.2798 599.428 76.1889 599.032 76.0071 598.688C75.8253 598.339 75.5696 598.064 75.2401 597.864C74.9143 597.663 74.5317 597.562 74.0923 597.562C73.6151 597.562 73.1984 597.68 72.8423 597.915C72.4901 598.146 72.2173 598.449 72.0241 598.824C71.8348 599.195 71.7401 599.598 71.7401 600.034V601.028C71.7401 601.612 71.8423 602.108 72.0469 602.517C72.2552 602.926 72.545 603.239 72.9162 603.455C73.2874 603.667 73.7211 603.773 74.2173 603.773C74.5393 603.773 74.8329 603.727 75.098 603.636C75.3632 603.542 75.5923 603.402 75.7855 603.216C75.9787 603.03 76.1264 602.801 76.2287 602.528L77.8366 602.818C77.7079 603.292 77.4768 603.706 77.1435 604.062C76.8139 604.415 76.3991 604.689 75.8991 604.886C75.4029 605.08 74.8366 605.176 74.2003 605.176ZM86.3693 598.403L84.8295 598.676C84.7652 598.479 84.6629 598.292 84.5227 598.114C84.3864 597.936 84.2008 597.79 83.9659 597.676C83.7311 597.562 83.4375 597.506 83.0852 597.506C82.6042 597.506 82.2027 597.614 81.8807 597.83C81.5587 598.042 81.3977 598.316 81.3977 598.653C81.3977 598.945 81.5057 599.18 81.7216 599.358C81.9375 599.536 82.286 599.682 82.767 599.795L84.1534 600.114C84.9564 600.299 85.5549 600.585 85.9489 600.972C86.3428 601.358 86.5398 601.86 86.5398 602.477C86.5398 603 86.3883 603.466 86.0852 603.875C85.786 604.28 85.3674 604.598 84.8295 604.83C84.2955 605.061 83.6761 605.176 82.9716 605.176C81.9943 605.176 81.197 604.968 80.5795 604.551C79.9621 604.131 79.5833 603.534 79.4432 602.761L81.0852 602.511C81.1875 602.939 81.3977 603.263 81.7159 603.483C82.0341 603.699 82.4489 603.807 82.9602 603.807C83.517 603.807 83.9621 603.691 84.2955 603.46C84.6288 603.225 84.7955 602.939 84.7955 602.602C84.7955 602.33 84.6932 602.1 84.4886 601.915C84.2879 601.729 83.9792 601.589 83.5625 601.494L82.0852 601.17C81.2708 600.985 80.6686 600.689 80.2784 600.284C79.892 599.879 79.6989 599.366 79.6989 598.744C79.6989 598.229 79.8428 597.778 80.1307 597.392C80.4186 597.006 80.8163 596.705 81.3239 596.489C81.8314 596.269 82.4129 596.159 83.0682 596.159C84.0114 596.159 84.7538 596.364 85.2955 596.773C85.8371 597.178 86.1951 597.722 86.3693 598.403Z" fill="#272A40"/>
</svg>
