<svg width="638" height="700" viewBox="0 0 638 700" fill="none" xmlns="http://www.w3.org/2000/svg">
<g clip-path="url(#clip0_4149_13053)">
<rect width="321" height="350" fill="#3769D6"/>
<path d="M39.6742 55V40.4545H44.8588C45.9905 40.4545 46.928 40.6605 47.6713 41.0724C48.4147 41.4844 48.9711 42.0478 49.3404 42.7628C49.7097 43.473 49.8944 44.2732 49.8944 45.1634C49.8944 46.0582 49.7073 46.8632 49.3333 47.5781C48.964 48.2884 48.4052 48.8518 47.6571 49.2685C46.9138 49.6804 45.9786 49.8864 44.8517 49.8864H41.2864V48.0256H44.6529C45.3678 48.0256 45.9479 47.9025 46.3929 47.6562C46.838 47.4053 47.1647 47.0644 47.373 46.6335C47.5814 46.2027 47.6855 45.7126 47.6855 45.1634C47.6855 44.6141 47.5814 44.1264 47.373 43.7003C47.1647 43.2741 46.8356 42.9403 46.3858 42.6989C45.9408 42.4574 45.3536 42.3366 44.6245 42.3366H41.8688V55H39.6742ZM52.2967 55V44.0909H54.3493V45.8239H54.4629C54.6618 45.2367 55.0121 44.7751 55.514 44.4389C56.0207 44.098 56.5936 43.9276 57.2328 43.9276C57.3654 43.9276 57.5216 43.9323 57.7015 43.9418C57.8862 43.9512 58.0306 43.9631 58.1348 43.9773V46.0085C58.0495 45.9848 57.898 45.9588 57.6802 45.9304C57.4624 45.8973 57.2446 45.8807 57.0268 45.8807C56.5249 45.8807 56.0775 45.9872 55.6845 46.2003C55.2962 46.4086 54.9885 46.6998 54.7612 47.0739C54.5339 47.4432 54.4203 47.8646 54.4203 48.3381V55H52.2967ZM59.9725 55V44.0909H62.0961V55H59.9725ZM61.0449 42.4077C60.6756 42.4077 60.3584 42.2846 60.0932 42.0384C59.8328 41.7874 59.7026 41.4891 59.7026 41.1435C59.7026 40.7931 59.8328 40.4948 60.0932 40.2486C60.3584 39.9976 60.6756 39.8722 61.0449 39.8722C61.4142 39.8722 61.7291 39.9976 61.9895 40.2486C62.2547 40.4948 62.3873 40.7931 62.3873 41.1435C62.3873 41.4891 62.2547 41.7874 61.9895 42.0384C61.7291 42.2846 61.4142 42.4077 61.0449 42.4077ZM64.9529 55V44.0909H66.9913V45.8665H67.1262C67.3535 45.2652 67.7252 44.7964 68.2413 44.4602C68.7574 44.1193 69.3753 43.9489 70.095 43.9489C70.8242 43.9489 71.435 44.1193 71.9274 44.4602C72.4245 44.8011 72.7915 45.2699 73.0282 45.8665H73.1419C73.4023 45.2841 73.8166 44.8201 74.3848 44.4744C74.9529 44.1241 75.63 43.9489 76.416 43.9489C77.4056 43.9489 78.2129 44.259 78.8379 44.8793C79.4676 45.4995 79.7825 46.4347 79.7825 47.6847V55H77.6589V47.8835C77.6589 47.1449 77.4577 46.6098 77.0552 46.2784C76.6528 45.947 76.1722 45.7812 75.6135 45.7812C74.9222 45.7812 74.3848 45.9943 74.0012 46.4205C73.6177 46.8419 73.426 47.384 73.426 48.0469V55H71.3095V47.7486C71.3095 47.1567 71.1248 46.6809 70.7555 46.321C70.3862 45.9612 69.9056 45.7812 69.3137 45.7812C68.9113 45.7812 68.5396 45.8878 68.1987 46.1009C67.8625 46.3092 67.5903 46.6004 67.3819 46.9744C67.1783 47.3485 67.0765 47.7817 67.0765 48.2741V55H64.9529ZM85.8034 55.2415C85.1122 55.2415 84.4872 55.1136 83.9284 54.858C83.3697 54.5975 82.927 54.2211 82.6003 53.7287C82.2783 53.2363 82.1174 52.6326 82.1174 51.9176C82.1174 51.3021 82.2357 50.7955 82.4725 50.3977C82.7092 50 83.0288 49.6851 83.4313 49.4531C83.8337 49.2211 84.2836 49.0459 84.7807 48.9276C85.2779 48.8092 85.7845 48.7192 86.3006 48.6577C86.954 48.5819 87.4843 48.5204 87.8915 48.473C88.2987 48.4209 88.5946 48.3381 88.7793 48.2244C88.964 48.1108 89.0563 47.9261 89.0563 47.6705V47.6207C89.0563 47.0005 88.8811 46.5199 88.5307 46.179C88.1851 45.8381 87.669 45.6676 86.9824 45.6676C86.2675 45.6676 85.704 45.8262 85.2921 46.1435C84.8849 46.456 84.6032 46.804 84.4469 47.1875L82.4512 46.733C82.6879 46.0701 83.0336 45.535 83.4881 45.1278C83.9474 44.7159 84.4753 44.4176 85.0719 44.233C85.6685 44.0436 86.2959 43.9489 86.954 43.9489C87.3896 43.9489 87.8513 44.0009 88.339 44.1051C88.8314 44.2045 89.2907 44.3892 89.7168 44.6591C90.1477 44.929 90.5004 45.3149 90.775 45.8168C91.0497 46.3139 91.187 46.9602 91.187 47.7557V55H89.1131V53.5085H89.0279C88.8906 53.7831 88.6846 54.053 88.41 54.3182C88.1354 54.5833 87.7826 54.8035 87.3517 54.9787C86.9209 55.1539 86.4048 55.2415 85.8034 55.2415ZM86.2651 53.5369C86.8522 53.5369 87.3541 53.4209 87.7708 53.1889C88.1922 52.9569 88.5118 52.6539 88.7296 52.2798C88.9521 51.901 89.0634 51.4962 89.0634 51.0653V49.6591C88.9876 49.7348 88.8409 49.8059 88.623 49.8722C88.41 49.9337 88.1661 49.9882 87.8915 50.0355C87.6169 50.0781 87.3494 50.1184 87.089 50.1562C86.8285 50.1894 86.6107 50.2178 86.4355 50.2415C86.0236 50.2936 85.6472 50.3812 85.3063 50.5043C84.9701 50.6274 84.7002 50.8049 84.4966 51.0369C84.2978 51.2642 84.1983 51.5672 84.1983 51.946C84.1983 52.4716 84.3925 52.8693 84.7807 53.1392C85.169 53.4044 85.6638 53.5369 86.2651 53.5369ZM94.0154 55V44.0909H96.068V45.8239H96.1816C96.3805 45.2367 96.7309 44.7751 97.2328 44.4389C97.7394 44.098 98.3123 43.9276 98.9515 43.9276C99.0841 43.9276 99.2404 43.9323 99.4203 43.9418C99.6049 43.9512 99.7493 43.9631 99.8535 43.9773V46.0085C99.7683 45.9848 99.6168 45.9588 99.399 45.9304C99.1812 45.8973 98.9634 45.8807 98.7456 45.8807C98.2437 45.8807 97.7962 45.9872 97.4032 46.2003C97.015 46.4086 96.7072 46.6998 96.4799 47.0739C96.2527 47.4432 96.139 47.8646 96.139 48.3381V55H94.0154ZM103.366 59.0909C103.048 59.0909 102.76 59.0649 102.499 59.0128C102.239 58.9654 102.045 58.9134 101.917 58.8565L102.428 57.1165C102.816 57.2206 103.162 57.2656 103.465 57.2514C103.768 57.2372 104.036 57.1236 104.268 56.9105C104.504 56.6974 104.713 56.3494 104.893 55.8665L105.155 55.142L101.164 44.0909H103.437L106.199 52.5568H106.313L109.076 44.0909H111.356L106.86 56.456C106.652 57.0241 106.386 57.5047 106.064 57.8977C105.742 58.2955 105.359 58.5938 104.914 58.7926C104.469 58.9915 103.953 59.0909 103.366 59.0909Z" fill="white"/>
<rect x="321" width="317" height="350" fill="#272A40"/>
<path d="M538.428 273L540.337 261.364H541.7L539.791 273H538.428ZM533.161 269.886L533.382 268.523H542.2L541.979 269.886H533.161ZM534.337 273L536.246 261.364H537.609L535.7 273H534.337ZM533.837 265.841L534.058 264.477H542.876L542.655 265.841H533.837ZM544.229 273V271.727L548.166 267.648C548.587 267.205 548.933 266.816 549.206 266.483C549.482 266.146 549.689 265.826 549.825 265.523C549.962 265.22 550.03 264.898 550.03 264.557C550.03 264.17 549.939 263.837 549.757 263.557C549.575 263.273 549.327 263.055 549.013 262.903C548.698 262.748 548.344 262.67 547.95 262.67C547.534 262.67 547.17 262.756 546.859 262.926C546.549 263.097 546.31 263.337 546.143 263.648C545.977 263.958 545.893 264.322 545.893 264.739H544.217C544.217 264.03 544.38 263.411 544.706 262.881C545.032 262.35 545.479 261.939 546.047 261.648C546.615 261.352 547.261 261.205 547.984 261.205C548.715 261.205 549.359 261.35 549.916 261.642C550.477 261.93 550.914 262.324 551.229 262.824C551.543 263.32 551.7 263.881 551.7 264.506C551.7 264.938 551.619 265.36 551.456 265.773C551.297 266.186 551.018 266.646 550.621 267.153C550.223 267.657 549.67 268.269 548.962 268.989L546.649 271.409V271.494H551.888V273H544.229ZM554.433 273L559.513 262.955V262.869H553.638V261.364H561.331V262.92L556.268 273H554.433ZM563.307 273V271.727L567.244 267.648C567.665 267.205 568.011 266.816 568.284 266.483C568.561 266.146 568.767 265.826 568.903 265.523C569.04 265.22 569.108 264.898 569.108 264.557C569.108 264.17 569.017 263.837 568.835 263.557C568.653 263.273 568.405 263.055 568.091 262.903C567.777 262.748 567.422 262.67 567.028 262.67C566.612 262.67 566.248 262.756 565.938 262.926C565.627 263.097 565.388 263.337 565.222 263.648C565.055 263.958 564.972 264.322 564.972 264.739H563.295C563.295 264.03 563.458 263.411 563.784 262.881C564.11 262.35 564.557 261.939 565.125 261.648C565.693 261.352 566.339 261.205 567.062 261.205C567.794 261.205 568.438 261.35 568.994 261.642C569.555 261.93 569.992 262.324 570.307 262.824C570.621 263.32 570.778 263.881 570.778 264.506C570.778 264.938 570.697 265.36 570.534 265.773C570.375 266.186 570.097 266.646 569.699 267.153C569.301 267.657 568.748 268.269 568.04 268.989L565.727 271.409V271.494H570.966V273H563.307ZM574.261 273H572.398L576.585 261.364H578.614L582.801 273H580.938L577.648 263.477H577.557L574.261 273ZM574.574 268.443H580.619V269.92H574.574V268.443ZM584.078 270.727V269.307L589.107 261.364H590.226V263.455H589.516L585.919 269.148V269.239H592.811V270.727H584.078ZM589.595 273V270.295L589.607 269.648V261.364H591.271V273H589.595ZM598.842 273.193C597.945 273.189 597.178 272.953 596.541 272.483C595.905 272.013 595.418 271.33 595.081 270.432C594.744 269.534 594.575 268.453 594.575 267.188C594.575 265.926 594.744 264.848 595.081 263.955C595.422 263.061 595.911 262.379 596.547 261.909C597.187 261.439 597.952 261.205 598.842 261.205C599.732 261.205 600.496 261.441 601.132 261.915C601.768 262.384 602.255 263.066 602.592 263.96C602.933 264.85 603.104 265.926 603.104 267.188C603.104 268.456 602.935 269.54 602.598 270.438C602.261 271.331 601.774 272.015 601.138 272.489C600.501 272.958 599.736 273.193 598.842 273.193ZM598.842 271.676C599.63 271.676 600.246 271.292 600.689 270.523C601.136 269.754 601.359 268.642 601.359 267.188C601.359 266.222 601.257 265.405 601.053 264.739C600.852 264.068 600.562 263.561 600.183 263.216C599.808 262.867 599.361 262.693 598.842 262.693C598.058 262.693 597.443 263.08 596.996 263.852C596.549 264.625 596.323 265.737 596.32 267.188C596.32 268.157 596.42 268.977 596.621 269.648C596.825 270.314 597.115 270.82 597.49 271.165C597.865 271.506 598.316 271.676 598.842 271.676Z" fill="white" fill-opacity="0.8"/>
<path d="M536.014 310.159C535.234 310.159 534.537 310.025 533.923 309.756C533.313 309.487 532.83 309.114 532.474 308.636C532.122 308.155 531.933 307.598 531.906 306.966H533.69C533.713 307.311 533.829 307.61 534.037 307.864C534.249 308.114 534.526 308.307 534.866 308.443C535.207 308.58 535.586 308.648 536.003 308.648C536.461 308.648 536.866 308.568 537.219 308.409C537.575 308.25 537.853 308.028 538.054 307.744C538.255 307.456 538.355 307.125 538.355 306.75C538.355 306.36 538.255 306.017 538.054 305.722C537.857 305.422 537.567 305.187 537.185 305.017C536.806 304.847 536.348 304.761 535.81 304.761H534.827V303.33H535.81C536.241 303.33 536.62 303.252 536.946 303.097C537.276 302.941 537.533 302.725 537.719 302.449C537.904 302.169 537.997 301.841 537.997 301.466C537.997 301.106 537.916 300.794 537.753 300.528C537.594 300.259 537.366 300.049 537.071 299.898C536.779 299.746 536.435 299.67 536.037 299.67C535.658 299.67 535.304 299.741 534.974 299.881C534.649 300.017 534.384 300.214 534.179 300.472C533.974 300.725 533.865 301.03 533.849 301.386H532.151C532.17 300.758 532.355 300.205 532.707 299.727C533.063 299.25 533.533 298.877 534.116 298.608C534.7 298.339 535.348 298.205 536.06 298.205C536.806 298.205 537.45 298.35 537.991 298.642C538.537 298.93 538.957 299.314 539.253 299.795C539.552 300.277 539.7 300.803 539.696 301.375C539.7 302.027 539.518 302.58 539.151 303.034C538.787 303.489 538.302 303.794 537.696 303.949V304.04C538.469 304.157 539.067 304.464 539.491 304.96C539.92 305.456 540.132 306.072 540.128 306.807C540.132 307.447 539.954 308.021 539.594 308.528C539.238 309.036 538.751 309.436 538.134 309.727C537.516 310.015 536.81 310.159 536.014 310.159ZM546.145 298.205C546.664 298.208 547.175 298.303 547.679 298.489C548.183 298.674 548.637 298.977 549.043 299.398C549.452 299.818 549.777 300.386 550.02 301.102C550.266 301.814 550.391 302.701 550.395 303.761C550.395 304.78 550.293 305.687 550.088 306.483C549.884 307.275 549.59 307.943 549.207 308.489C548.829 309.034 548.368 309.449 547.827 309.733C547.285 310.017 546.675 310.159 545.997 310.159C545.304 310.159 544.688 310.023 544.151 309.75C543.613 309.477 543.175 309.1 542.838 308.619C542.501 308.134 542.291 307.578 542.207 306.949H543.94C544.054 307.449 544.285 307.854 544.634 308.165C544.986 308.472 545.44 308.625 545.997 308.625C546.849 308.625 547.514 308.254 547.991 307.511C548.469 306.765 548.709 305.723 548.713 304.386H548.622C548.425 304.712 548.179 304.992 547.884 305.227C547.592 305.462 547.264 305.644 546.901 305.773C546.537 305.902 546.149 305.966 545.736 305.966C545.065 305.966 544.455 305.801 543.906 305.472C543.357 305.142 542.92 304.689 542.594 304.114C542.268 303.538 542.105 302.881 542.105 302.142C542.105 301.407 542.272 300.741 542.605 300.142C542.942 299.544 543.412 299.07 544.014 298.722C544.62 298.369 545.33 298.197 546.145 298.205ZM546.151 299.682C545.707 299.682 545.308 299.792 544.952 300.011C544.599 300.227 544.321 300.521 544.116 300.892C543.912 301.259 543.81 301.669 543.81 302.119C543.81 302.57 543.908 302.979 544.105 303.347C544.306 303.71 544.579 304 544.923 304.216C545.272 304.428 545.67 304.534 546.116 304.534C546.45 304.534 546.76 304.47 547.048 304.341C547.336 304.212 547.588 304.034 547.804 303.807C548.02 303.576 548.188 303.314 548.31 303.023C548.431 302.731 548.491 302.424 548.491 302.102C548.491 301.674 548.389 301.277 548.185 300.909C547.984 300.542 547.707 300.246 547.355 300.023C547.003 299.795 546.601 299.682 546.151 299.682ZM556.902 297.818L553.152 311.75H551.635L555.385 297.818H556.902ZM558.078 307.727V306.307L563.107 298.364H564.226V300.455H563.516L559.919 306.148V306.239H566.811V307.727H558.078ZM563.595 310V307.295L563.607 306.648V298.364H565.271V310H563.595ZM568.791 310V308.727L572.729 304.648C573.149 304.205 573.496 303.816 573.768 303.483C574.045 303.146 574.251 302.826 574.388 302.523C574.524 302.22 574.592 301.898 574.592 301.557C574.592 301.17 574.501 300.837 574.32 300.557C574.138 300.273 573.89 300.055 573.575 299.903C573.261 299.748 572.907 299.67 572.513 299.67C572.096 299.67 571.732 299.756 571.422 299.926C571.111 300.097 570.873 300.337 570.706 300.648C570.539 300.958 570.456 301.322 570.456 301.739H568.78C568.78 301.03 568.943 300.411 569.268 299.881C569.594 299.35 570.041 298.939 570.609 298.648C571.178 298.352 571.823 298.205 572.547 298.205C573.278 298.205 573.922 298.35 574.479 298.642C575.039 298.93 575.477 299.324 575.791 299.824C576.106 300.32 576.263 300.881 576.263 301.506C576.263 301.938 576.181 302.36 576.018 302.773C575.859 303.186 575.581 303.646 575.183 304.153C574.786 304.657 574.232 305.269 573.524 305.989L571.212 308.409V308.494H576.45V310H568.791ZM583.058 297.818L579.308 311.75H577.791L581.541 297.818H583.058ZM588.541 310.159C588.022 310.152 587.511 310.057 587.007 309.875C586.507 309.693 586.053 309.39 585.643 308.966C585.234 308.542 584.907 307.972 584.661 307.256C584.418 306.54 584.297 305.646 584.297 304.574C584.297 303.559 584.397 302.657 584.598 301.869C584.803 301.081 585.096 300.417 585.479 299.875C585.861 299.33 586.323 298.915 586.865 298.631C587.407 298.347 588.015 298.205 588.689 298.205C589.382 298.205 589.998 298.341 590.536 298.614C591.073 298.886 591.509 299.263 591.842 299.744C592.179 300.225 592.393 300.773 592.484 301.386H590.751C590.634 300.902 590.401 300.506 590.053 300.199C589.704 299.892 589.25 299.739 588.689 299.739C587.837 299.739 587.172 300.11 586.695 300.852C586.221 301.595 585.982 302.627 585.979 303.949H586.064C586.265 303.619 586.511 303.339 586.803 303.108C587.098 302.873 587.428 302.693 587.791 302.568C588.159 302.439 588.545 302.375 588.95 302.375C589.625 302.375 590.234 302.54 590.78 302.869C591.329 303.195 591.767 303.646 592.092 304.222C592.418 304.797 592.581 305.456 592.581 306.199C592.581 306.941 592.412 307.614 592.075 308.216C591.742 308.818 591.272 309.295 590.666 309.648C590.06 309.996 589.352 310.167 588.541 310.159ZM588.536 308.682C588.982 308.682 589.382 308.572 589.734 308.352C590.087 308.133 590.365 307.837 590.57 307.466C590.774 307.095 590.876 306.68 590.876 306.222C590.876 305.775 590.776 305.367 590.575 305C590.378 304.633 590.106 304.341 589.757 304.125C589.412 303.909 589.018 303.801 588.575 303.801C588.238 303.801 587.926 303.866 587.638 303.994C587.354 304.123 587.104 304.301 586.888 304.528C586.672 304.756 586.501 305.017 586.376 305.312C586.255 305.604 586.195 305.913 586.195 306.239C586.195 306.674 586.295 307.078 586.496 307.449C586.7 307.82 586.979 308.119 587.331 308.347C587.687 308.57 588.089 308.682 588.536 308.682ZM594.406 307.727V306.307L599.435 298.364H600.554V300.455H599.844L596.247 306.148V306.239H603.139V307.727H594.406ZM599.923 310V307.295L599.935 306.648V298.364H601.599V310H599.923Z" fill="white" fill-opacity="0.8"/>
<path d="M362.278 273V261.364H364.034V266.42H369.835V261.364H371.597V273H369.835V267.926H364.034V273H362.278ZM374.153 273V261.364H381.449V262.875H375.909V266.42H381.068V267.926H375.909V271.489H381.517V273H374.153ZM385.016 261.364L387.8 265.915H387.891L390.675 261.364H392.709L389.084 267.182L392.732 273H390.686L387.891 268.511H387.8L385.004 273H382.959L386.669 267.182L382.982 261.364H385.016Z" fill="white"/>
<path d="M362.278 310V298.364H366.426C367.328 298.364 368.076 298.519 368.67 298.83C369.269 299.14 369.716 299.57 370.011 300.119C370.307 300.665 370.455 301.295 370.455 302.011C370.455 302.723 370.305 303.35 370.006 303.892C369.71 304.43 369.263 304.848 368.665 305.148C368.07 305.447 367.322 305.597 366.42 305.597H363.278V304.085H366.261C366.83 304.085 367.292 304.004 367.648 303.841C368.008 303.678 368.271 303.441 368.438 303.131C368.604 302.82 368.688 302.447 368.688 302.011C368.688 301.572 368.602 301.191 368.432 300.869C368.265 300.547 368.002 300.301 367.642 300.131C367.286 299.956 366.818 299.869 366.239 299.869H364.034V310H362.278ZM368.023 304.75L370.898 310H368.898L366.08 304.75H368.023ZM380.466 302.04C380.356 301.695 380.208 301.386 380.023 301.114C379.841 300.837 379.623 300.602 379.369 300.409C379.116 300.212 378.826 300.062 378.5 299.96C378.178 299.858 377.824 299.807 377.438 299.807C376.782 299.807 376.191 299.975 375.665 300.312C375.138 300.65 374.722 301.144 374.415 301.795C374.112 302.443 373.96 303.237 373.96 304.176C373.96 305.119 374.114 305.917 374.42 306.568C374.727 307.22 375.148 307.714 375.682 308.051C376.216 308.388 376.824 308.557 377.506 308.557C378.138 308.557 378.689 308.428 379.159 308.17C379.633 307.913 379.998 307.549 380.256 307.08C380.517 306.606 380.648 306.049 380.648 305.409L381.102 305.494H377.773V304.045H382.347V305.369C382.347 306.347 382.138 307.195 381.722 307.915C381.309 308.631 380.737 309.184 380.006 309.574C379.278 309.964 378.445 310.159 377.506 310.159C376.453 310.159 375.528 309.917 374.733 309.432C373.941 308.947 373.324 308.259 372.881 307.369C372.438 306.475 372.216 305.415 372.216 304.188C372.216 303.259 372.345 302.426 372.602 301.688C372.86 300.949 373.222 300.322 373.688 299.807C374.157 299.288 374.708 298.892 375.341 298.619C375.977 298.343 376.672 298.205 377.426 298.205C378.055 298.205 378.64 298.297 379.182 298.483C379.727 298.669 380.212 298.932 380.636 299.273C381.064 299.614 381.419 300.019 381.699 300.489C381.979 300.955 382.169 301.472 382.267 302.04H380.466ZM384.575 310V298.364H388.837C389.662 298.364 390.346 298.5 390.888 298.773C391.429 299.042 391.835 299.407 392.104 299.869C392.373 300.328 392.507 300.845 392.507 301.42C392.507 301.905 392.418 302.314 392.24 302.648C392.062 302.977 391.823 303.242 391.524 303.443C391.229 303.64 390.903 303.784 390.547 303.875V303.989C390.933 304.008 391.31 304.133 391.678 304.364C392.049 304.591 392.356 304.915 392.598 305.335C392.84 305.756 392.962 306.267 392.962 306.869C392.962 307.464 392.821 307.998 392.541 308.472C392.265 308.941 391.837 309.314 391.257 309.591C390.678 309.864 389.937 310 389.036 310H384.575ZM386.331 308.494H388.865C389.706 308.494 390.308 308.331 390.672 308.006C391.036 307.68 391.217 307.273 391.217 306.784C391.217 306.417 391.125 306.08 390.939 305.773C390.753 305.466 390.488 305.222 390.143 305.04C389.803 304.858 389.397 304.767 388.928 304.767H386.331V308.494ZM386.331 303.398H388.683C389.077 303.398 389.431 303.322 389.746 303.17C390.064 303.019 390.316 302.807 390.501 302.534C390.691 302.258 390.786 301.932 390.786 301.557C390.786 301.076 390.617 300.672 390.28 300.347C389.943 300.021 389.426 299.858 388.729 299.858H386.331V303.398Z" fill="white"/>
<path d="M362.823 55V40.4545H368.149C369.182 40.4545 370.036 40.625 370.713 40.9659C371.39 41.3021 371.897 41.759 372.233 42.3366C372.569 42.9096 372.737 43.5559 372.737 44.2756C372.737 44.8816 372.626 45.393 372.404 45.8097C372.181 46.2216 371.883 46.553 371.509 46.804C371.139 47.0502 370.732 47.2301 370.287 47.3438V47.4858C370.77 47.5095 371.241 47.6657 371.7 47.9545C372.164 48.2386 372.548 48.6435 372.851 49.169C373.154 49.6946 373.306 50.3338 373.306 51.0866C373.306 51.83 373.13 52.4976 372.78 53.0895C372.434 53.6766 371.899 54.143 371.175 54.4886C370.45 54.8295 369.525 55 368.398 55H362.823ZM365.017 53.1179H368.185C369.236 53.1179 369.989 52.9143 370.443 52.5071C370.898 52.0999 371.125 51.5909 371.125 50.9801C371.125 50.5208 371.009 50.0994 370.777 49.7159C370.545 49.3324 370.214 49.027 369.783 48.7997C369.357 48.5724 368.85 48.4588 368.263 48.4588H365.017V53.1179ZM365.017 46.7472H367.958C368.45 46.7472 368.893 46.6525 369.286 46.4631C369.683 46.2737 369.998 46.0085 370.23 45.6676C370.467 45.322 370.585 44.9148 370.585 44.446C370.585 43.8447 370.375 43.3404 369.953 42.9332C369.532 42.526 368.886 42.3224 368.014 42.3224H365.017V46.7472ZM378.913 55.2415C378.222 55.2415 377.597 55.1136 377.038 54.858C376.479 54.5975 376.036 54.2211 375.71 53.7287C375.388 53.2363 375.227 52.6326 375.227 51.9176C375.227 51.3021 375.345 50.7955 375.582 50.3977C375.819 50 376.138 49.6851 376.541 49.4531C376.943 49.2211 377.393 49.0459 377.89 48.9276C378.387 48.8092 378.894 48.7192 379.41 48.6577C380.063 48.5819 380.594 48.5204 381.001 48.473C381.408 48.4209 381.704 48.3381 381.889 48.2244C382.073 48.1108 382.166 47.9261 382.166 47.6705V47.6207C382.166 47.0005 381.99 46.5199 381.64 46.179C381.294 45.8381 380.778 45.6676 380.092 45.6676C379.377 45.6676 378.813 45.8262 378.401 46.1435C377.994 46.456 377.713 46.804 377.556 47.1875L375.561 46.733C375.797 46.0701 376.143 45.535 376.597 45.1278C377.057 44.7159 377.585 44.4176 378.181 44.233C378.778 44.0436 379.405 43.9489 380.063 43.9489C380.499 43.9489 380.961 44.0009 381.448 44.1051C381.941 44.2045 382.4 44.3892 382.826 44.6591C383.257 44.929 383.61 45.3149 383.884 45.8168C384.159 46.3139 384.296 46.9602 384.296 47.7557V55H382.222V53.5085H382.137C382 53.7831 381.794 54.053 381.519 54.3182C381.245 54.5833 380.892 54.8035 380.461 54.9787C380.03 55.1539 379.514 55.2415 378.913 55.2415ZM379.374 53.5369C379.962 53.5369 380.463 53.4209 380.88 53.1889C381.302 52.9569 381.621 52.6539 381.839 52.2798C382.061 51.901 382.173 51.4962 382.173 51.0653V49.6591C382.097 49.7348 381.95 49.8059 381.732 49.8722C381.519 49.9337 381.276 49.9882 381.001 50.0355C380.726 50.0781 380.459 50.1184 380.198 50.1562C379.938 50.1894 379.72 50.2178 379.545 50.2415C379.133 50.2936 378.757 50.3812 378.416 50.5043C378.079 50.6274 377.81 50.8049 377.606 51.0369C377.407 51.2642 377.308 51.5672 377.308 51.946C377.308 52.4716 377.502 52.8693 377.89 53.1392C378.278 53.4044 378.773 53.5369 379.374 53.5369ZM391.72 55.2202C390.664 55.2202 389.755 54.9811 388.993 54.5028C388.235 54.0199 387.653 53.3546 387.246 52.5071C386.838 51.6596 386.635 50.6889 386.635 49.5952C386.635 48.4872 386.843 47.5095 387.26 46.6619C387.676 45.8097 388.264 45.1444 389.021 44.6662C389.779 44.188 390.671 43.9489 391.699 43.9489C392.527 43.9489 393.266 44.1027 393.915 44.4105C394.563 44.7135 395.086 45.1397 395.484 45.6889C395.887 46.2382 396.126 46.8797 396.202 47.6136H394.135C394.021 47.1023 393.761 46.6619 393.354 46.2926C392.951 45.9233 392.411 45.7386 391.734 45.7386C391.142 45.7386 390.624 45.8949 390.179 46.2074C389.738 46.5152 389.395 46.9555 389.149 47.5284C388.903 48.0966 388.78 48.7689 388.78 49.5455C388.78 50.3409 388.9 51.0275 389.142 51.6051C389.383 52.1828 389.724 52.6302 390.165 52.9474C390.61 53.2647 391.133 53.4233 391.734 53.4233C392.137 53.4233 392.501 53.3499 392.828 53.2031C393.159 53.0516 393.436 52.8362 393.659 52.5568C393.886 52.2775 394.045 51.9413 394.135 51.5483H396.202C396.126 52.2538 395.896 52.8835 395.513 53.4375C395.129 53.9915 394.615 54.4271 393.971 54.7443C393.332 55.0616 392.582 55.2202 391.72 55.2202ZM400.426 51.2997L400.411 48.7074H400.781L405.127 44.0909H407.67L402.713 49.3466H402.379L400.426 51.2997ZM398.472 55V40.4545H400.596V55H398.472ZM405.362 55L401.455 49.8153L402.919 48.331L407.968 55H405.362ZM413.73 59.3182C412.863 59.3182 412.118 59.2045 411.493 58.9773C410.872 58.75 410.366 58.4493 409.973 58.0753C409.58 57.7012 409.286 57.2917 409.092 56.8466L410.917 56.0938C411.045 56.3021 411.216 56.5223 411.429 56.7543C411.647 56.991 411.94 57.1922 412.309 57.358C412.684 57.5237 413.164 57.6065 413.751 57.6065C414.556 57.6065 415.221 57.41 415.747 57.017C416.273 56.6288 416.535 56.0085 416.535 55.1562V53.0114H416.4C416.273 53.2434 416.088 53.5014 415.846 53.7855C415.61 54.0696 415.283 54.3158 414.866 54.5241C414.45 54.7325 413.907 54.8366 413.24 54.8366C412.378 54.8366 411.602 54.6354 410.91 54.233C410.224 53.8258 409.679 53.2268 409.277 52.4361C408.879 51.6406 408.68 50.6629 408.68 49.5028C408.68 48.3428 408.877 47.3485 409.27 46.5199C409.667 45.6913 410.212 45.0568 410.903 44.6165C411.595 44.1714 412.378 43.9489 413.254 43.9489C413.931 43.9489 414.478 44.0625 414.895 44.2898C415.311 44.5123 415.636 44.7727 415.868 45.071C416.104 45.3693 416.287 45.6321 416.415 45.8594H416.571V44.0909H418.652V55.2415C418.652 56.179 418.434 56.9484 417.998 57.5497C417.563 58.151 416.973 58.5961 416.23 58.8849C415.491 59.1738 414.658 59.3182 413.73 59.3182ZM413.709 53.0753C414.319 53.0753 414.836 52.9332 415.257 52.6491C415.683 52.3603 416.005 51.9484 416.223 51.4134C416.445 50.8736 416.557 50.2273 416.557 49.4744C416.557 48.7405 416.448 48.0942 416.23 47.5355C416.012 46.9768 415.693 46.5412 415.271 46.2287C414.85 45.9115 414.329 45.7528 413.709 45.7528C413.069 45.7528 412.537 45.9186 412.111 46.25C411.684 46.5767 411.363 47.0218 411.145 47.5852C410.932 48.1487 410.825 48.7784 410.825 49.4744C410.825 50.1894 410.934 50.8168 411.152 51.3565C411.37 51.8963 411.692 52.3177 412.118 52.6207C412.549 52.9238 413.079 53.0753 413.709 53.0753ZM421.5 55V44.0909H423.552V45.8239H423.666C423.865 45.2367 424.215 44.7751 424.717 44.4389C425.224 44.098 425.797 43.9276 426.436 43.9276C426.568 43.9276 426.725 43.9323 426.905 43.9418C427.089 43.9512 427.234 43.9631 427.338 43.9773V46.0085C427.253 45.9848 427.101 45.9588 426.883 45.9304C426.666 45.8973 426.448 45.8807 426.23 45.8807C425.728 45.8807 425.281 45.9872 424.888 46.2003C424.499 46.4086 424.192 46.6998 423.964 47.0739C423.737 47.4432 423.623 47.8646 423.623 48.3381V55H421.5ZM433.38 55.2202C432.357 55.2202 431.465 54.9858 430.703 54.517C429.94 54.0483 429.348 53.3925 428.927 52.5497C428.506 51.7069 428.295 50.7221 428.295 49.5952C428.295 48.4635 428.506 47.474 428.927 46.6264C429.348 45.7789 429.94 45.1207 430.703 44.652C431.465 44.1832 432.357 43.9489 433.38 43.9489C434.403 43.9489 435.295 44.1832 436.058 44.652C436.82 45.1207 437.412 45.7789 437.833 46.6264C438.255 47.474 438.465 48.4635 438.465 49.5952C438.465 50.7221 438.255 51.7069 437.833 52.5497C437.412 53.3925 436.82 54.0483 436.058 54.517C435.295 54.9858 434.403 55.2202 433.38 55.2202ZM433.387 53.4375C434.05 53.4375 434.599 53.2623 435.035 52.9119C435.471 52.5616 435.793 52.0952 436.001 51.5128C436.214 50.9304 436.32 50.2888 436.32 49.5881C436.32 48.892 436.214 48.2528 436.001 47.6705C435.793 47.0833 435.471 46.6122 435.035 46.2571C434.599 45.902 434.05 45.7244 433.387 45.7244C432.72 45.7244 432.166 45.902 431.725 46.2571C431.29 46.6122 430.965 47.0833 430.752 47.6705C430.544 48.2528 430.44 48.892 430.44 49.5881C430.44 50.2888 430.544 50.9304 430.752 51.5128C430.965 52.0952 431.29 52.5616 431.725 52.9119C432.166 53.2623 432.72 53.4375 433.387 53.4375ZM447.746 50.4759V44.0909H449.877V55H447.789V53.1108H447.675C447.424 53.6932 447.022 54.1785 446.468 54.5668C445.919 54.9503 445.234 55.142 444.415 55.142C443.715 55.142 443.094 54.9882 442.555 54.6804C442.019 54.3679 441.598 53.9062 441.29 53.2955C440.987 52.6847 440.836 51.9295 440.836 51.0298V44.0909H442.959V50.7741C442.959 51.5175 443.165 52.1094 443.577 52.5497C443.989 52.9901 444.524 53.2102 445.182 53.2102C445.58 53.2102 445.975 53.1108 446.368 52.9119C446.766 52.7131 447.095 52.4124 447.356 52.0099C447.621 51.6075 447.751 51.0961 447.746 50.4759ZM454.854 48.5227V55H452.73V44.0909H454.769V45.8665H454.904C455.155 45.2888 455.548 44.8248 456.083 44.4744C456.622 44.1241 457.302 43.9489 458.121 43.9489C458.864 43.9489 459.515 44.1051 460.074 44.4176C460.633 44.7254 461.066 45.1847 461.374 45.7955C461.682 46.4062 461.835 47.1615 461.835 48.0611V55H459.712V48.3168C459.712 47.526 459.506 46.9081 459.094 46.4631C458.682 46.0133 458.116 45.7884 457.396 45.7884C456.904 45.7884 456.466 45.8949 456.083 46.108C455.704 46.321 455.403 46.6335 455.181 47.0455C454.963 47.4527 454.854 47.9451 454.854 48.5227ZM468.767 55.2131C467.887 55.2131 467.101 54.9882 466.409 54.5384C465.723 54.0838 465.183 53.4375 464.79 52.5994C464.402 51.7566 464.208 50.7457 464.208 49.5668C464.208 48.3878 464.404 47.3793 464.797 46.5412C465.195 45.7031 465.739 45.0616 466.431 44.6165C467.122 44.1714 467.905 43.9489 468.781 43.9489C469.459 43.9489 470.003 44.0625 470.415 44.2898C470.832 44.5123 471.154 44.7727 471.381 45.071C471.613 45.3693 471.793 45.6321 471.921 45.8594H472.048V40.4545H474.172V55H472.098V53.3026H471.921C471.793 53.5346 471.608 53.7997 471.367 54.098C471.13 54.3963 470.803 54.6567 470.387 54.8793C469.97 55.1018 469.43 55.2131 468.767 55.2131ZM469.236 53.402C469.847 53.402 470.363 53.241 470.784 52.919C471.21 52.5923 471.532 52.1402 471.75 51.5625C471.973 50.9848 472.084 50.3125 472.084 49.5455C472.084 48.7879 471.975 48.125 471.757 47.5568C471.539 46.9886 471.22 46.5459 470.798 46.2287C470.377 45.9115 469.856 45.7528 469.236 45.7528C468.597 45.7528 468.064 45.9186 467.638 46.25C467.212 46.5814 466.89 47.0336 466.672 47.6065C466.459 48.1795 466.352 48.8258 466.352 49.5455C466.352 50.2746 466.461 50.9304 466.679 51.5128C466.897 52.0952 467.219 52.5568 467.645 52.8977C468.076 53.2339 468.606 53.402 469.236 53.402Z" fill="white"/>
<rect y="350" width="638" height="350" fill="#00FF72"/>
<path d="M540.834 623L542.743 611.364H544.107L542.197 623H540.834ZM535.567 619.886L535.788 618.523H544.607L544.385 619.886H535.567ZM536.743 623L538.652 611.364H540.016L538.107 623H536.743ZM536.243 615.841L536.464 614.477H545.283L545.061 615.841H536.243ZM550.686 623.193C549.788 623.189 549.021 622.953 548.385 622.483C547.749 622.013 547.262 621.33 546.925 620.432C546.588 619.534 546.419 618.453 546.419 617.188C546.419 615.926 546.588 614.848 546.925 613.955C547.266 613.061 547.754 612.379 548.391 611.909C549.031 611.439 549.796 611.205 550.686 611.205C551.576 611.205 552.339 611.441 552.976 611.915C553.612 612.384 554.099 613.066 554.436 613.96C554.777 614.85 554.947 615.926 554.947 617.188C554.947 618.456 554.779 619.54 554.442 620.438C554.105 621.331 553.618 622.015 552.982 622.489C552.345 622.958 551.58 623.193 550.686 623.193ZM550.686 621.676C551.474 621.676 552.089 621.292 552.533 620.523C552.98 619.754 553.203 618.642 553.203 617.188C553.203 616.222 553.101 615.405 552.896 614.739C552.696 614.068 552.406 613.561 552.027 613.216C551.652 612.867 551.205 612.693 550.686 612.693C549.902 612.693 549.286 613.08 548.839 613.852C548.393 614.625 548.167 615.737 548.163 617.188C548.163 618.157 548.264 618.977 548.464 619.648C548.669 620.314 548.959 620.82 549.334 621.165C549.709 621.506 550.16 621.676 550.686 621.676ZM561.014 623.193C560.116 623.189 559.349 622.953 558.713 622.483C558.077 622.013 557.59 621.33 557.253 620.432C556.916 619.534 556.747 618.453 556.747 617.188C556.747 615.926 556.916 614.848 557.253 613.955C557.594 613.061 558.082 612.379 558.719 611.909C559.359 611.439 560.124 611.205 561.014 611.205C561.904 611.205 562.668 611.441 563.304 611.915C563.94 612.384 564.427 613.066 564.764 613.96C565.105 614.85 565.276 615.926 565.276 617.188C565.276 618.456 565.107 619.54 564.77 620.438C564.433 621.331 563.946 622.015 563.31 622.489C562.673 622.958 561.908 623.193 561.014 623.193ZM561.014 621.676C561.802 621.676 562.418 621.292 562.861 620.523C563.308 619.754 563.531 618.642 563.531 617.188C563.531 616.222 563.429 615.405 563.224 614.739C563.024 614.068 562.734 613.561 562.355 613.216C561.98 612.867 561.533 612.693 561.014 612.693C560.23 612.693 559.615 613.08 559.168 613.852C558.721 614.625 558.495 615.737 558.491 617.188C558.491 618.157 558.592 618.977 558.793 619.648C558.997 620.314 559.287 620.82 559.662 621.165C560.037 621.506 560.488 621.676 561.014 621.676ZM567.45 623V611.364H574.666V612.875H569.206V616.42H574.149V617.926H569.206V623H567.45ZM576.825 623V611.364H584.041V612.875H578.581V616.42H583.524V617.926H578.581V623H576.825ZM586.433 623L591.513 612.955V612.869H585.638V611.364H593.331V612.92L588.268 623H586.433ZM595.307 623V621.727L599.244 617.648C599.665 617.205 600.011 616.816 600.284 616.483C600.561 616.146 600.767 615.826 600.903 615.523C601.04 615.22 601.108 614.898 601.108 614.557C601.108 614.17 601.017 613.837 600.835 613.557C600.653 613.273 600.405 613.055 600.091 612.903C599.777 612.748 599.422 612.67 599.028 612.67C598.612 612.67 598.248 612.756 597.938 612.926C597.627 613.097 597.388 613.337 597.222 613.648C597.055 613.958 596.972 614.322 596.972 614.739H595.295C595.295 614.03 595.458 613.411 595.784 612.881C596.11 612.35 596.557 611.939 597.125 611.648C597.693 611.352 598.339 611.205 599.062 611.205C599.794 611.205 600.438 611.35 600.994 611.642C601.555 611.93 601.992 612.324 602.307 612.824C602.621 613.32 602.778 613.881 602.778 614.506C602.778 614.938 602.697 615.36 602.534 615.773C602.375 616.186 602.097 616.646 601.699 617.153C601.301 617.657 600.748 618.269 600.04 618.989L597.727 621.409V621.494H602.966V623H595.307Z" fill="#272A40" fill-opacity="0.8"/>
<path d="M531.842 660.193C530.945 660.189 530.178 659.953 529.541 659.483C528.905 659.013 528.418 658.33 528.081 657.432C527.744 656.534 527.575 655.453 527.575 654.188C527.575 652.926 527.744 651.848 528.081 650.955C528.422 650.061 528.911 649.379 529.547 648.909C530.187 648.439 530.952 648.205 531.842 648.205C532.732 648.205 533.496 648.441 534.132 648.915C534.768 649.384 535.255 650.066 535.592 650.96C535.933 651.85 536.104 652.926 536.104 654.188C536.104 655.456 535.935 656.54 535.598 657.438C535.261 658.331 534.774 659.015 534.138 659.489C533.501 659.958 532.736 660.193 531.842 660.193ZM531.842 658.676C532.63 658.676 533.246 658.292 533.689 657.523C534.136 656.754 534.359 655.642 534.359 654.188C534.359 653.222 534.257 652.405 534.053 651.739C533.852 651.068 533.562 650.561 533.183 650.216C532.808 649.867 532.361 649.693 531.842 649.693C531.058 649.693 530.443 650.08 529.996 650.852C529.549 651.625 529.323 652.737 529.32 654.188C529.32 655.157 529.42 655.977 529.621 656.648C529.825 657.314 530.115 657.82 530.49 658.165C530.865 658.506 531.316 658.676 531.842 658.676ZM542.574 647.818L538.824 661.75H537.307L541.057 647.818H542.574ZM543.994 660V658.727L547.932 654.648C548.352 654.205 548.699 653.816 548.972 653.483C549.248 653.146 549.455 652.826 549.591 652.523C549.727 652.22 549.795 651.898 549.795 651.557C549.795 651.17 549.705 650.837 549.523 650.557C549.341 650.273 549.093 650.055 548.778 649.903C548.464 649.748 548.11 649.67 547.716 649.67C547.299 649.67 546.936 649.756 546.625 649.926C546.314 650.097 546.076 650.337 545.909 650.648C545.742 650.958 545.659 651.322 545.659 651.739H543.983C543.983 651.03 544.146 650.411 544.472 649.881C544.797 649.35 545.244 648.939 545.812 648.648C546.381 648.352 547.027 648.205 547.75 648.205C548.481 648.205 549.125 648.35 549.682 648.642C550.242 648.93 550.68 649.324 550.994 649.824C551.309 650.32 551.466 650.881 551.466 651.506C551.466 651.938 551.384 652.36 551.222 652.773C551.063 653.186 550.784 653.646 550.386 654.153C549.989 654.657 549.436 655.269 548.727 655.989L546.415 658.409V658.494H551.653V660H543.994ZM557.648 660.159C556.936 660.159 556.295 660.023 555.727 659.75C555.163 659.473 554.712 659.095 554.375 658.614C554.038 658.133 553.858 657.583 553.835 656.966H555.54C555.581 657.466 555.803 657.877 556.205 658.199C556.606 658.521 557.087 658.682 557.648 658.682C558.095 658.682 558.491 658.58 558.835 658.375C559.184 658.167 559.456 657.881 559.653 657.517C559.854 657.153 559.955 656.739 559.955 656.273C559.955 655.799 559.852 655.377 559.648 655.006C559.443 654.634 559.161 654.343 558.801 654.131C558.445 653.919 558.036 653.811 557.574 653.807C557.222 653.807 556.867 653.867 556.511 653.989C556.155 654.11 555.867 654.269 555.648 654.466L554.04 654.227L554.693 648.364H561.091V649.869H556.153L555.784 653.125H555.852C556.08 652.905 556.381 652.722 556.756 652.574C557.134 652.426 557.54 652.352 557.972 652.352C558.68 652.352 559.311 652.521 559.864 652.858C560.42 653.195 560.858 653.655 561.176 654.239C561.498 654.818 561.657 655.485 561.653 656.239C561.657 656.992 561.487 657.665 561.142 658.256C560.801 658.847 560.328 659.312 559.722 659.653C559.119 659.991 558.428 660.159 557.648 660.159ZM567.57 660.159C566.857 660.159 566.217 660.023 565.649 659.75C565.085 659.473 564.634 659.095 564.297 658.614C563.96 658.133 563.78 657.583 563.757 656.966H565.462C565.503 657.466 565.725 657.877 566.126 658.199C566.528 658.521 567.009 658.682 567.57 658.682C568.017 658.682 568.412 658.58 568.757 658.375C569.106 658.167 569.378 657.881 569.575 657.517C569.776 657.153 569.876 656.739 569.876 656.273C569.876 655.799 569.774 655.377 569.57 655.006C569.365 654.634 569.083 654.343 568.723 654.131C568.367 653.919 567.958 653.811 567.496 653.807C567.143 653.807 566.789 653.867 566.433 653.989C566.077 654.11 565.789 654.269 565.57 654.466L563.962 654.227L564.615 648.364H571.013V649.869H566.075L565.706 653.125H565.774C566.001 652.905 566.303 652.722 566.678 652.574C567.056 652.426 567.462 652.352 567.893 652.352C568.602 652.352 569.232 652.521 569.786 652.858C570.342 653.195 570.78 653.655 571.098 654.239C571.42 654.818 571.579 655.485 571.575 656.239C571.579 656.992 571.409 657.665 571.064 658.256C570.723 658.847 570.25 659.312 569.643 659.653C569.041 659.991 568.35 660.159 567.57 660.159ZM578.105 647.818L574.355 661.75H572.838L576.588 647.818H578.105ZM583.94 648.364V660H582.179V650.125H582.111L579.327 651.943V650.261L582.23 648.364H583.94ZM591.503 648.364V660H589.741V650.125H589.673L586.889 651.943V650.261L589.793 648.364H591.503ZM594.406 657.727V656.307L599.435 648.364H600.554V650.455H599.844L596.247 656.148V656.239H603.139V657.727H594.406ZM599.923 660V657.295L599.935 656.648V648.364H601.599V660H599.923Z" fill="#272A40" fill-opacity="0.8"/>
<path d="M39.2784 623V611.364H41.0341V616.42H46.8352V611.364H48.5966V623H46.8352V617.926H41.0341V623H39.2784ZM51.1534 623V611.364H58.4489V612.875H52.9091V616.42H58.0682V617.926H52.9091V621.489H58.517V623H51.1534ZM62.0156 611.364L64.7997 615.915H64.8906L67.6747 611.364H69.7088L66.0838 617.182L69.7315 623H67.6861L64.8906 618.511H64.7997L62.0043 623H59.9588L63.669 617.182L59.9815 611.364H62.0156Z" fill="#272A40"/>
<path d="M39.2784 660V648.364H43.4261C44.3277 648.364 45.0758 648.519 45.6705 648.83C46.2689 649.14 46.7159 649.57 47.0114 650.119C47.3068 650.665 47.4545 651.295 47.4545 652.011C47.4545 652.723 47.3049 653.35 47.0057 653.892C46.7102 654.43 46.2633 654.848 45.6648 655.148C45.0701 655.447 44.322 655.597 43.4205 655.597H40.2784V654.085H43.2614C43.8295 654.085 44.2917 654.004 44.6477 653.841C45.0076 653.678 45.2708 653.441 45.4375 653.131C45.6042 652.82 45.6875 652.447 45.6875 652.011C45.6875 651.572 45.6023 651.191 45.4318 650.869C45.2652 650.547 45.0019 650.301 44.642 650.131C44.286 649.956 43.8182 649.869 43.2386 649.869H41.0341V660H39.2784ZM45.0227 654.75L47.8977 660H45.8977L43.0795 654.75H45.0227ZM57.4659 652.04C57.3561 651.695 57.2083 651.386 57.0227 651.114C56.8409 650.837 56.6231 650.602 56.3693 650.409C56.1155 650.212 55.8258 650.062 55.5 649.96C55.178 649.858 54.8239 649.807 54.4375 649.807C53.7822 649.807 53.1913 649.975 52.6648 650.312C52.1383 650.65 51.7216 651.144 51.4148 651.795C51.1117 652.443 50.9602 653.237 50.9602 654.176C50.9602 655.119 51.1136 655.917 51.4205 656.568C51.7273 657.22 52.1477 657.714 52.6818 658.051C53.2159 658.388 53.8239 658.557 54.5057 658.557C55.1383 658.557 55.6894 658.428 56.1591 658.17C56.6326 657.913 56.9981 657.549 57.2557 657.08C57.517 656.606 57.6477 656.049 57.6477 655.409L58.1023 655.494H54.7727V654.045H59.3466V655.369C59.3466 656.347 59.1383 657.195 58.7216 657.915C58.3087 658.631 57.7367 659.184 57.0057 659.574C56.2784 659.964 55.4451 660.159 54.5057 660.159C53.4527 660.159 52.5284 659.917 51.733 659.432C50.9413 658.947 50.3239 658.259 49.8807 657.369C49.4375 656.475 49.2159 655.415 49.2159 654.188C49.2159 653.259 49.3447 652.426 49.6023 651.688C49.8598 650.949 50.2216 650.322 50.6875 649.807C51.1572 649.288 51.7083 648.892 52.3409 648.619C52.9773 648.343 53.6723 648.205 54.4261 648.205C55.0549 648.205 55.6402 648.297 56.1818 648.483C56.7273 648.669 57.2121 648.932 57.6364 649.273C58.0644 649.614 58.4186 650.019 58.6989 650.489C58.9792 650.955 59.1686 651.472 59.267 652.04H57.4659ZM61.5753 660V648.364H65.8366C66.6624 648.364 67.3461 648.5 67.8878 648.773C68.4295 649.042 68.8348 649.407 69.1037 649.869C69.3726 650.328 69.5071 650.845 69.5071 651.42C69.5071 651.905 69.4181 652.314 69.2401 652.648C69.062 652.977 68.8234 653.242 68.5241 653.443C68.2287 653.64 67.9029 653.784 67.5469 653.875V653.989C67.9332 654.008 68.3101 654.133 68.6776 654.364C69.0488 654.591 69.3556 654.915 69.598 655.335C69.8404 655.756 69.9616 656.267 69.9616 656.869C69.9616 657.464 69.8215 657.998 69.5412 658.472C69.2647 658.941 68.8366 659.314 68.2571 659.591C67.6776 659.864 66.937 660 66.0355 660H61.5753ZM63.331 658.494H65.8651C66.706 658.494 67.3082 658.331 67.6719 658.006C68.0355 657.68 68.2173 657.273 68.2173 656.784C68.2173 656.417 68.1245 656.08 67.9389 655.773C67.7533 655.466 67.4882 655.222 67.1435 655.04C66.8026 654.858 66.3973 654.767 65.9276 654.767H63.331V658.494ZM63.331 653.398H65.6832C66.0772 653.398 66.4313 653.322 66.7457 653.17C67.0639 653.019 67.3158 652.807 67.5014 652.534C67.6908 652.258 67.7855 651.932 67.7855 651.557C67.7855 651.076 67.617 650.672 67.2798 650.347C66.9427 650.021 66.4257 649.858 65.7287 649.858H63.331V653.398Z" fill="#272A40"/>
<path d="M39.598 405V390.455H44.9247C45.9569 390.455 46.8116 390.625 47.4886 390.966C48.1657 391.302 48.6723 391.759 49.0085 392.337C49.3447 392.91 49.5128 393.556 49.5128 394.276C49.5128 394.882 49.4015 395.393 49.179 395.81C48.9564 396.222 48.6581 396.553 48.2841 396.804C47.9148 397.05 47.5076 397.23 47.0625 397.344V397.486C47.5455 397.509 48.0166 397.666 48.4759 397.955C48.9399 398.239 49.3234 398.643 49.6264 399.169C49.9295 399.695 50.081 400.334 50.081 401.087C50.081 401.83 49.9058 402.498 49.5554 403.089C49.2098 403.677 48.6747 404.143 47.9503 404.489C47.2259 404.83 46.3002 405 45.1733 405H39.598ZM41.7926 403.118H44.9602C46.0114 403.118 46.7642 402.914 47.2188 402.507C47.6733 402.1 47.9006 401.591 47.9006 400.98C47.9006 400.521 47.7846 400.099 47.5526 399.716C47.3205 399.332 46.9891 399.027 46.5582 398.8C46.1321 398.572 45.6255 398.459 45.0384 398.459H41.7926V403.118ZM41.7926 396.747H44.733C45.2254 396.747 45.6681 396.652 46.0611 396.463C46.4588 396.274 46.7737 396.009 47.0057 395.668C47.2424 395.322 47.3608 394.915 47.3608 394.446C47.3608 393.845 47.1501 393.34 46.7287 392.933C46.3073 392.526 45.661 392.322 44.7898 392.322H41.7926V396.747ZM52.5135 405V394.091H54.5661V395.824H54.6797C54.8786 395.237 55.2289 394.775 55.7308 394.439C56.2375 394.098 56.8104 393.928 57.4496 393.928C57.5821 393.928 57.7384 393.932 57.9183 393.942C58.103 393.951 58.2474 393.963 58.3516 393.977V396.009C58.2663 395.985 58.1148 395.959 57.897 395.93C57.6792 395.897 57.4614 395.881 57.2436 395.881C56.7417 395.881 56.2943 395.987 55.9013 396.2C55.513 396.409 55.2053 396.7 54.978 397.074C54.7507 397.443 54.6371 397.865 54.6371 398.338V405H52.5135ZM63.2663 405.241C62.575 405.241 61.95 405.114 61.3913 404.858C60.8326 404.598 60.3899 404.221 60.0632 403.729C59.7412 403.236 59.5803 402.633 59.5803 401.918C59.5803 401.302 59.6986 400.795 59.9354 400.398C60.1721 400 60.4917 399.685 60.8942 399.453C61.2966 399.221 61.7464 399.046 62.2436 398.928C62.7408 398.809 63.2474 398.719 63.7635 398.658C64.4169 398.582 64.9472 398.52 65.3544 398.473C65.7616 398.421 66.0575 398.338 66.2422 398.224C66.4268 398.111 66.5192 397.926 66.5192 397.67V397.621C66.5192 397 66.344 396.52 65.9936 396.179C65.648 395.838 65.1319 395.668 64.4453 395.668C63.7304 395.668 63.1669 395.826 62.755 396.143C62.3478 396.456 62.0661 396.804 61.9098 397.188L59.9141 396.733C60.1508 396.07 60.4964 395.535 60.951 395.128C61.4103 394.716 61.9382 394.418 62.5348 394.233C63.1314 394.044 63.7588 393.949 64.4169 393.949C64.8525 393.949 65.3142 394.001 65.8018 394.105C66.2943 394.205 66.7536 394.389 67.1797 394.659C67.6106 394.929 67.9633 395.315 68.2379 395.817C68.5125 396.314 68.6499 396.96 68.6499 397.756V405H66.576V403.509H66.4908C66.3535 403.783 66.1475 404.053 65.8729 404.318C65.5982 404.583 65.2455 404.804 64.8146 404.979C64.3838 405.154 63.8677 405.241 63.2663 405.241ZM63.728 403.537C64.3151 403.537 64.817 403.421 65.2337 403.189C65.6551 402.957 65.9747 402.654 66.1925 402.28C66.415 401.901 66.5263 401.496 66.5263 401.065V399.659C66.4505 399.735 66.3037 399.806 66.0859 399.872C65.8729 399.934 65.629 399.988 65.3544 400.036C65.0798 400.078 64.8123 400.118 64.5518 400.156C64.2914 400.189 64.0736 400.218 63.8984 400.241C63.4865 400.294 63.1101 400.381 62.7692 400.504C62.433 400.627 62.1631 400.805 61.9595 401.037C61.7607 401.264 61.6612 401.567 61.6612 401.946C61.6612 402.472 61.8554 402.869 62.2436 403.139C62.6319 403.404 63.1267 403.537 63.728 403.537ZM73.6019 398.523V405H71.4783V394.091H73.5167V395.866H73.6516C73.9026 395.289 74.2956 394.825 74.8306 394.474C75.3704 394.124 76.0498 393.949 76.869 393.949C77.6123 393.949 78.2634 394.105 78.8221 394.418C79.3808 394.725 79.814 395.185 80.1218 395.795C80.4296 396.406 80.5835 397.161 80.5835 398.061V405H78.4599V398.317C78.4599 397.526 78.2539 396.908 77.842 396.463C77.43 396.013 76.8642 395.788 76.1445 395.788C75.6521 395.788 75.2141 395.895 74.8306 396.108C74.4518 396.321 74.1512 396.634 73.9286 397.045C73.7108 397.453 73.6019 397.945 73.6019 398.523ZM87.5153 405.213C86.6346 405.213 85.8486 404.988 85.1573 404.538C84.4708 404.084 83.931 403.437 83.538 402.599C83.1497 401.757 82.9556 400.746 82.9556 399.567C82.9556 398.388 83.1521 397.379 83.5451 396.541C83.9428 395.703 84.4873 395.062 85.1786 394.616C85.8699 394.171 86.6535 393.949 87.5295 393.949C88.2066 393.949 88.7511 394.062 89.163 394.29C89.5797 394.512 89.9016 394.773 90.1289 395.071C90.3609 395.369 90.5408 395.632 90.6687 395.859H90.7965V390.455H92.9201V405H90.8462V403.303H90.6687C90.5408 403.535 90.3562 403.8 90.1147 404.098C89.878 404.396 89.5513 404.657 89.1346 404.879C88.7179 405.102 88.1781 405.213 87.5153 405.213ZM87.984 403.402C88.5948 403.402 89.1109 403.241 89.5323 402.919C89.9585 402.592 90.2804 402.14 90.4982 401.562C90.7208 400.985 90.832 400.312 90.832 399.545C90.832 398.788 90.7231 398.125 90.5053 397.557C90.2875 396.989 89.9679 396.546 89.5465 396.229C89.1251 395.911 88.6043 395.753 87.984 395.753C87.3448 395.753 86.8121 395.919 86.386 396.25C85.9599 396.581 85.6379 397.034 85.4201 397.607C85.207 398.179 85.1005 398.826 85.1005 399.545C85.1005 400.275 85.2094 400.93 85.4272 401.513C85.645 402.095 85.967 402.557 86.3931 402.898C86.824 403.234 87.3543 403.402 87.984 403.402ZM95.951 405V394.091H98.0746V405H95.951ZM97.0234 392.408C96.6541 392.408 96.3369 392.285 96.0717 392.038C95.8113 391.787 95.6811 391.489 95.6811 391.143C95.6811 390.793 95.8113 390.495 96.0717 390.249C96.3369 389.998 96.6541 389.872 97.0234 389.872C97.3928 389.872 97.7076 389.998 97.968 390.249C98.2332 390.495 98.3658 390.793 98.3658 391.143C98.3658 391.489 98.2332 391.787 97.968 392.038C97.7076 392.285 97.3928 392.408 97.0234 392.408ZM103.055 398.523V405H100.931V394.091H102.97V395.866H103.105C103.356 395.289 103.749 394.825 104.284 394.474C104.824 394.124 105.503 393.949 106.322 393.949C107.065 393.949 107.717 394.105 108.275 394.418C108.834 394.725 109.267 395.185 109.575 395.795C109.883 396.406 110.037 397.161 110.037 398.061V405H107.913V398.317C107.913 397.526 107.707 396.908 107.295 396.463C106.883 396.013 106.317 395.788 105.598 395.788C105.105 395.788 104.667 395.895 104.284 396.108C103.905 396.321 103.604 396.634 103.382 397.045C103.164 397.453 103.055 397.945 103.055 398.523ZM117.458 409.318C116.592 409.318 115.846 409.205 115.221 408.977C114.601 408.75 114.094 408.449 113.701 408.075C113.308 407.701 113.015 407.292 112.821 406.847L114.646 406.094C114.774 406.302 114.944 406.522 115.157 406.754C115.375 406.991 115.669 407.192 116.038 407.358C116.412 407.524 116.893 407.607 117.48 407.607C118.285 407.607 118.95 407.41 119.475 407.017C120.001 406.629 120.264 406.009 120.264 405.156V403.011H120.129C120.001 403.243 119.816 403.501 119.575 403.786C119.338 404.07 119.011 404.316 118.595 404.524C118.178 404.732 117.636 404.837 116.968 404.837C116.107 404.837 115.33 404.635 114.639 404.233C113.952 403.826 113.408 403.227 113.005 402.436C112.608 401.641 112.409 400.663 112.409 399.503C112.409 398.343 112.605 397.348 112.998 396.52C113.396 395.691 113.94 395.057 114.632 394.616C115.323 394.171 116.107 393.949 116.983 393.949C117.66 393.949 118.207 394.062 118.623 394.29C119.04 394.512 119.364 394.773 119.596 395.071C119.833 395.369 120.015 395.632 120.143 395.859H120.299V394.091H122.38V405.241C122.38 406.179 122.163 406.948 121.727 407.55C121.291 408.151 120.702 408.596 119.958 408.885C119.22 409.174 118.386 409.318 117.458 409.318ZM117.437 403.075C118.048 403.075 118.564 402.933 118.985 402.649C119.412 402.36 119.734 401.948 119.951 401.413C120.174 400.874 120.285 400.227 120.285 399.474C120.285 398.741 120.176 398.094 119.958 397.536C119.741 396.977 119.421 396.541 119 396.229C118.578 395.911 118.057 395.753 117.437 395.753C116.798 395.753 116.265 395.919 115.839 396.25C115.413 396.577 115.091 397.022 114.873 397.585C114.66 398.149 114.554 398.778 114.554 399.474C114.554 400.189 114.663 400.817 114.88 401.357C115.098 401.896 115.42 402.318 115.846 402.621C116.277 402.924 116.807 403.075 117.437 403.075Z" fill="#272A40"/>
<path d="M214.928 273L216.837 261.364H218.2L216.291 273H214.928ZM209.661 269.886L209.882 268.523H218.7L218.479 269.886H209.661ZM210.837 273L212.746 261.364H214.109L212.2 273H210.837ZM210.337 265.841L210.558 264.477H219.376L219.155 265.841H210.337ZM224.78 273.159C224 273.159 223.303 273.025 222.689 272.756C222.079 272.487 221.596 272.114 221.24 271.636C220.888 271.155 220.698 270.598 220.672 269.966H222.456C222.479 270.311 222.594 270.61 222.803 270.864C223.015 271.114 223.291 271.307 223.632 271.443C223.973 271.58 224.352 271.648 224.768 271.648C225.227 271.648 225.632 271.568 225.984 271.409C226.34 271.25 226.619 271.028 226.82 270.744C227.02 270.456 227.121 270.125 227.121 269.75C227.121 269.36 227.02 269.017 226.82 268.722C226.623 268.422 226.333 268.187 225.95 268.017C225.571 267.847 225.113 267.761 224.575 267.761H223.592V266.33H224.575C225.007 266.33 225.386 266.252 225.712 266.097C226.041 265.941 226.299 265.725 226.484 265.449C226.67 265.169 226.763 264.841 226.763 264.466C226.763 264.106 226.681 263.794 226.518 263.528C226.359 263.259 226.132 263.049 225.837 262.898C225.545 262.746 225.2 262.67 224.803 262.67C224.424 262.67 224.07 262.741 223.74 262.881C223.414 263.017 223.149 263.214 222.945 263.472C222.74 263.725 222.63 264.03 222.615 264.386H220.916C220.935 263.758 221.121 263.205 221.473 262.727C221.829 262.25 222.299 261.877 222.882 261.608C223.465 261.339 224.113 261.205 224.825 261.205C225.571 261.205 226.215 261.35 226.757 261.642C227.303 261.93 227.723 262.314 228.018 262.795C228.318 263.277 228.465 263.803 228.462 264.375C228.465 265.027 228.284 265.58 227.916 266.034C227.553 266.489 227.068 266.794 226.462 266.949V267.04C227.234 267.157 227.833 267.464 228.257 267.96C228.685 268.456 228.897 269.072 228.893 269.807C228.897 270.447 228.719 271.021 228.359 271.528C228.003 272.036 227.517 272.436 226.899 272.727C226.282 273.015 225.575 273.159 224.78 273.159ZM231.433 273L236.513 262.955V262.869H230.638V261.364H238.331V262.92L233.268 273H231.433ZM244.119 273.159C243.6 273.152 243.089 273.057 242.585 272.875C242.085 272.693 241.631 272.39 241.222 271.966C240.813 271.542 240.485 270.972 240.239 270.256C239.996 269.54 239.875 268.646 239.875 267.574C239.875 266.559 239.975 265.657 240.176 264.869C240.381 264.081 240.674 263.417 241.057 262.875C241.439 262.33 241.902 261.915 242.443 261.631C242.985 261.347 243.593 261.205 244.267 261.205C244.96 261.205 245.576 261.341 246.114 261.614C246.652 261.886 247.087 262.263 247.42 262.744C247.758 263.225 247.972 263.773 248.062 264.386H246.33C246.212 263.902 245.979 263.506 245.631 263.199C245.282 262.892 244.828 262.739 244.267 262.739C243.415 262.739 242.75 263.11 242.273 263.852C241.799 264.595 241.561 265.627 241.557 266.949H241.642C241.843 266.619 242.089 266.339 242.381 266.108C242.676 265.873 243.006 265.693 243.369 265.568C243.737 265.439 244.123 265.375 244.528 265.375C245.203 265.375 245.813 265.54 246.358 265.869C246.907 266.195 247.345 266.646 247.67 267.222C247.996 267.797 248.159 268.456 248.159 269.199C248.159 269.941 247.991 270.614 247.653 271.216C247.32 271.818 246.85 272.295 246.244 272.648C245.638 272.996 244.93 273.167 244.119 273.159ZM244.114 271.682C244.561 271.682 244.96 271.572 245.312 271.352C245.665 271.133 245.943 270.837 246.148 270.466C246.352 270.095 246.455 269.68 246.455 269.222C246.455 268.775 246.354 268.367 246.153 268C245.956 267.633 245.684 267.341 245.335 267.125C244.991 266.909 244.597 266.801 244.153 266.801C243.816 266.801 243.504 266.866 243.216 266.994C242.932 267.123 242.682 267.301 242.466 267.528C242.25 267.756 242.08 268.017 241.955 268.312C241.833 268.604 241.773 268.913 241.773 269.239C241.773 269.674 241.873 270.078 242.074 270.449C242.278 270.82 242.557 271.119 242.909 271.347C243.265 271.57 243.667 271.682 244.114 271.682ZM254.098 261.205C254.617 261.208 255.128 261.303 255.632 261.489C256.136 261.674 256.59 261.977 256.996 262.398C257.405 262.818 257.731 263.386 257.973 264.102C258.219 264.814 258.344 265.701 258.348 266.761C258.348 267.78 258.246 268.687 258.041 269.483C257.837 270.275 257.543 270.943 257.161 271.489C256.782 272.034 256.321 272.449 255.78 272.733C255.238 273.017 254.628 273.159 253.95 273.159C253.257 273.159 252.642 273.023 252.104 272.75C251.566 272.477 251.128 272.1 250.791 271.619C250.454 271.134 250.244 270.578 250.161 269.949H251.893C252.007 270.449 252.238 270.854 252.587 271.165C252.939 271.472 253.393 271.625 253.95 271.625C254.803 271.625 255.467 271.254 255.945 270.511C256.422 269.765 256.662 268.723 256.666 267.386H256.575C256.378 267.712 256.132 267.992 255.837 268.227C255.545 268.462 255.217 268.644 254.854 268.773C254.49 268.902 254.102 268.966 253.689 268.966C253.018 268.966 252.409 268.801 251.859 268.472C251.31 268.142 250.873 267.689 250.547 267.114C250.221 266.538 250.058 265.881 250.058 265.142C250.058 264.407 250.225 263.741 250.558 263.142C250.895 262.544 251.365 262.07 251.967 261.722C252.573 261.369 253.284 261.197 254.098 261.205ZM254.104 262.682C253.661 262.682 253.261 262.792 252.905 263.011C252.553 263.227 252.274 263.521 252.07 263.892C251.865 264.259 251.763 264.669 251.763 265.119C251.763 265.57 251.861 265.979 252.058 266.347C252.259 266.71 252.532 267 252.876 267.216C253.225 267.428 253.623 267.534 254.07 267.534C254.403 267.534 254.714 267.47 255.001 267.341C255.289 267.212 255.541 267.034 255.757 266.807C255.973 266.576 256.142 266.314 256.263 266.023C256.384 265.731 256.445 265.424 256.445 265.102C256.445 264.674 256.342 264.277 256.138 263.909C255.937 263.542 255.661 263.246 255.308 263.023C254.956 262.795 254.554 262.682 254.104 262.682ZM264.327 273H260.56V261.364H264.446C265.586 261.364 266.565 261.597 267.384 262.062C268.202 262.525 268.829 263.189 269.264 264.057C269.704 264.92 269.923 265.956 269.923 267.165C269.923 268.377 269.702 269.419 269.259 270.29C268.819 271.161 268.183 271.831 267.349 272.301C266.516 272.767 265.509 273 264.327 273ZM262.315 271.466H264.23C265.116 271.466 265.853 271.299 266.44 270.966C267.027 270.629 267.467 270.142 267.759 269.506C268.05 268.866 268.196 268.085 268.196 267.165C268.196 266.252 268.05 265.477 267.759 264.841C267.471 264.205 267.041 263.722 266.469 263.392C265.897 263.062 265.187 262.898 264.338 262.898H262.315V271.466ZM276.01 273.159C275.491 273.152 274.98 273.057 274.476 272.875C273.976 272.693 273.521 272.39 273.112 271.966C272.703 271.542 272.375 270.972 272.129 270.256C271.887 269.54 271.766 268.646 271.766 267.574C271.766 266.559 271.866 265.657 272.067 264.869C272.271 264.081 272.565 263.417 272.947 262.875C273.33 262.33 273.792 261.915 274.334 261.631C274.875 261.347 275.483 261.205 276.158 261.205C276.851 261.205 277.466 261.341 278.004 261.614C278.542 261.886 278.978 262.263 279.311 262.744C279.648 263.225 279.862 263.773 279.953 264.386H278.22C278.103 263.902 277.87 263.506 277.521 263.199C277.173 262.892 276.718 262.739 276.158 262.739C275.305 262.739 274.641 263.11 274.163 263.852C273.69 264.595 273.451 265.627 273.447 266.949H273.533C273.733 266.619 273.98 266.339 274.271 266.108C274.567 265.873 274.896 265.693 275.26 265.568C275.627 265.439 276.014 265.375 276.419 265.375C277.093 265.375 277.703 265.54 278.249 265.869C278.798 266.195 279.235 266.646 279.561 267.222C279.887 267.797 280.05 268.456 280.05 269.199C280.05 269.941 279.881 270.614 279.544 271.216C279.211 271.818 278.741 272.295 278.135 272.648C277.529 272.996 276.821 273.167 276.01 273.159ZM276.004 271.682C276.451 271.682 276.851 271.572 277.203 271.352C277.555 271.133 277.834 270.837 278.038 270.466C278.243 270.095 278.345 269.68 278.345 269.222C278.345 268.775 278.245 268.367 278.044 268C277.847 267.633 277.574 267.341 277.226 267.125C276.881 266.909 276.487 266.801 276.044 266.801C275.707 266.801 275.394 266.866 275.107 266.994C274.822 267.123 274.572 267.301 274.357 267.528C274.141 267.756 273.97 268.017 273.845 268.312C273.724 268.604 273.663 268.913 273.663 269.239C273.663 269.674 273.764 270.078 273.964 270.449C274.169 270.82 274.447 271.119 274.8 271.347C275.156 271.57 275.557 271.682 276.004 271.682Z" fill="white" fill-opacity="0.8"/>
<path d="M198.71 310.159C197.998 310.159 197.358 310.023 196.79 309.75C196.225 309.473 195.775 309.095 195.438 308.614C195.1 308.133 194.92 307.583 194.898 306.966H196.602C196.644 307.466 196.866 307.877 197.267 308.199C197.669 308.521 198.15 308.682 198.71 308.682C199.157 308.682 199.553 308.58 199.898 308.375C200.246 308.167 200.519 307.881 200.716 307.517C200.917 307.153 201.017 306.739 201.017 306.273C201.017 305.799 200.915 305.377 200.71 305.006C200.506 304.634 200.223 304.343 199.864 304.131C199.508 303.919 199.098 303.811 198.636 303.807C198.284 303.807 197.93 303.867 197.574 303.989C197.218 304.11 196.93 304.269 196.71 304.466L195.102 304.227L195.756 298.364H202.153V299.869H197.216L196.847 303.125H196.915C197.142 302.905 197.443 302.722 197.818 302.574C198.197 302.426 198.602 302.352 199.034 302.352C199.742 302.352 200.373 302.521 200.926 302.858C201.483 303.195 201.92 303.655 202.239 304.239C202.561 304.818 202.72 305.485 202.716 306.239C202.72 306.992 202.549 307.665 202.205 308.256C201.864 308.847 201.39 309.312 200.784 309.653C200.182 309.991 199.491 310.159 198.71 310.159ZM208.632 310.159C207.92 310.159 207.28 310.023 206.712 309.75C206.147 309.473 205.696 309.095 205.359 308.614C205.022 308.133 204.842 307.583 204.82 306.966H206.524C206.566 307.466 206.787 307.877 207.189 308.199C207.59 308.521 208.071 308.682 208.632 308.682C209.079 308.682 209.475 308.58 209.82 308.375C210.168 308.167 210.441 307.881 210.638 307.517C210.839 307.153 210.939 306.739 210.939 306.273C210.939 305.799 210.837 305.377 210.632 305.006C210.428 304.634 210.145 304.343 209.786 304.131C209.429 303.919 209.02 303.811 208.558 303.807C208.206 303.807 207.852 303.867 207.496 303.989C207.14 304.11 206.852 304.269 206.632 304.466L205.024 304.227L205.678 298.364H212.075V299.869H207.138L206.768 303.125H206.837C207.064 302.905 207.365 302.722 207.74 302.574C208.119 302.426 208.524 302.352 208.956 302.352C209.664 302.352 210.295 302.521 210.848 302.858C211.405 303.195 211.842 303.655 212.161 304.239C212.482 304.818 212.642 305.485 212.638 306.239C212.642 306.992 212.471 307.665 212.126 308.256C211.786 308.847 211.312 309.312 210.706 309.653C210.104 309.991 209.412 310.159 208.632 310.159ZM219.168 297.818L215.418 311.75H213.901L217.651 297.818H219.168ZM225.003 298.364V310H223.241V300.125H223.173L220.389 301.943V300.261L223.293 298.364H225.003ZM232.202 310.193C231.304 310.189 230.537 309.953 229.901 309.483C229.264 309.013 228.777 308.33 228.44 307.432C228.103 306.534 227.935 305.453 227.935 304.188C227.935 302.926 228.103 301.848 228.44 300.955C228.781 300.061 229.27 299.379 229.906 298.909C230.546 298.439 231.312 298.205 232.202 298.205C233.092 298.205 233.855 298.441 234.491 298.915C235.128 299.384 235.615 300.066 235.952 300.96C236.293 301.85 236.463 302.926 236.463 304.188C236.463 305.456 236.295 306.54 235.957 307.438C235.62 308.331 235.134 309.015 234.497 309.489C233.861 309.958 233.096 310.193 232.202 310.193ZM232.202 308.676C232.99 308.676 233.605 308.292 234.048 307.523C234.495 306.754 234.719 305.642 234.719 304.188C234.719 303.222 234.616 302.405 234.412 301.739C234.211 301.068 233.921 300.561 233.543 300.216C233.168 299.867 232.721 299.693 232.202 299.693C231.418 299.693 230.802 300.08 230.355 300.852C229.908 301.625 229.683 302.737 229.679 304.188C229.679 305.157 229.779 305.977 229.98 306.648C230.185 307.314 230.474 307.82 230.849 308.165C231.224 308.506 231.675 308.676 232.202 308.676ZM242.32 310.159C241.607 310.159 240.967 310.023 240.399 309.75C239.835 309.473 239.384 309.095 239.047 308.614C238.71 308.133 238.53 307.583 238.507 306.966H240.212C240.253 307.466 240.475 307.877 240.876 308.199C241.278 308.521 241.759 308.682 242.32 308.682C242.767 308.682 243.162 308.58 243.507 308.375C243.856 308.167 244.128 307.881 244.325 307.517C244.526 307.153 244.626 306.739 244.626 306.273C244.626 305.799 244.524 305.377 244.32 305.006C244.115 304.634 243.833 304.343 243.473 304.131C243.117 303.919 242.708 303.811 242.246 303.807C241.893 303.807 241.539 303.867 241.183 303.989C240.827 304.11 240.539 304.269 240.32 304.466L238.712 304.227L239.365 298.364H245.763V299.869H240.825L240.456 303.125H240.524C240.751 302.905 241.053 302.722 241.428 302.574C241.806 302.426 242.212 302.352 242.643 302.352C243.352 302.352 243.982 302.521 244.536 302.858C245.092 303.195 245.53 303.655 245.848 304.239C246.17 304.818 246.329 305.485 246.325 306.239C246.329 306.992 246.159 307.665 245.814 308.256C245.473 308.847 245 309.312 244.393 309.653C243.791 309.991 243.1 310.159 242.32 310.159ZM252.855 297.818L249.105 311.75H247.588L251.338 297.818H252.855ZM254.276 310V308.727L258.213 304.648C258.634 304.205 258.98 303.816 259.253 303.483C259.529 303.146 259.736 302.826 259.872 302.523C260.009 302.22 260.077 301.898 260.077 301.557C260.077 301.17 259.986 300.837 259.804 300.557C259.622 300.273 259.374 300.055 259.06 299.903C258.745 299.748 258.391 299.67 257.997 299.67C257.58 299.67 257.217 299.756 256.906 299.926C256.596 300.097 256.357 300.337 256.19 300.648C256.024 300.958 255.94 301.322 255.94 301.739H254.264C254.264 301.03 254.427 300.411 254.753 299.881C255.079 299.35 255.526 298.939 256.094 298.648C256.662 298.352 257.308 298.205 258.031 298.205C258.762 298.205 259.406 298.35 259.963 298.642C260.524 298.93 260.961 299.324 261.276 299.824C261.59 300.32 261.747 300.881 261.747 301.506C261.747 301.938 261.666 302.36 261.503 302.773C261.344 303.186 261.065 303.646 260.668 304.153C260.27 304.657 259.717 305.269 259.009 305.989L256.696 308.409V308.494H261.935V310H254.276ZM268.503 298.364V310H266.741V300.125H266.673L263.889 301.943V300.261L266.793 298.364H268.503ZM271.406 307.727V306.307L276.435 298.364H277.554V300.455H276.844L273.247 306.148V306.239H280.139V307.727H271.406ZM276.923 310V307.295L276.935 306.648V298.364H278.599V310H276.923Z" fill="white" fill-opacity="0.8"/>
<path d="M39.2784 273V261.364H41.0341V266.42H46.8352V261.364H48.5966V273H46.8352V267.926H41.0341V273H39.2784ZM51.1534 273V261.364H58.4489V262.875H52.9091V266.42H58.0682V267.926H52.9091V271.489H58.517V273H51.1534ZM62.0156 261.364L64.7997 265.915H64.8906L67.6747 261.364H69.7088L66.0838 267.182L69.7315 273H67.6861L64.8906 268.511H64.7997L62.0043 273H59.9588L63.669 267.182L59.9815 261.364H62.0156Z" fill="white"/>
<path d="M39.2784 310V298.364H43.4261C44.3277 298.364 45.0758 298.519 45.6705 298.83C46.2689 299.14 46.7159 299.57 47.0114 300.119C47.3068 300.665 47.4545 301.295 47.4545 302.011C47.4545 302.723 47.3049 303.35 47.0057 303.892C46.7102 304.43 46.2633 304.848 45.6648 305.148C45.0701 305.447 44.322 305.597 43.4205 305.597H40.2784V304.085H43.2614C43.8295 304.085 44.2917 304.004 44.6477 303.841C45.0076 303.678 45.2708 303.441 45.4375 303.131C45.6042 302.82 45.6875 302.447 45.6875 302.011C45.6875 301.572 45.6023 301.191 45.4318 300.869C45.2652 300.547 45.0019 300.301 44.642 300.131C44.286 299.956 43.8182 299.869 43.2386 299.869H41.0341V310H39.2784ZM45.0227 304.75L47.8977 310H45.8977L43.0795 304.75H45.0227ZM57.4659 302.04C57.3561 301.695 57.2083 301.386 57.0227 301.114C56.8409 300.837 56.6231 300.602 56.3693 300.409C56.1155 300.212 55.8258 300.062 55.5 299.96C55.178 299.858 54.8239 299.807 54.4375 299.807C53.7822 299.807 53.1913 299.975 52.6648 300.312C52.1383 300.65 51.7216 301.144 51.4148 301.795C51.1117 302.443 50.9602 303.237 50.9602 304.176C50.9602 305.119 51.1136 305.917 51.4205 306.568C51.7273 307.22 52.1477 307.714 52.6818 308.051C53.2159 308.388 53.8239 308.557 54.5057 308.557C55.1383 308.557 55.6894 308.428 56.1591 308.17C56.6326 307.913 56.9981 307.549 57.2557 307.08C57.517 306.606 57.6477 306.049 57.6477 305.409L58.1023 305.494H54.7727V304.045H59.3466V305.369C59.3466 306.347 59.1383 307.195 58.7216 307.915C58.3087 308.631 57.7367 309.184 57.0057 309.574C56.2784 309.964 55.4451 310.159 54.5057 310.159C53.4527 310.159 52.5284 309.917 51.733 309.432C50.9413 308.947 50.3239 308.259 49.8807 307.369C49.4375 306.475 49.2159 305.415 49.2159 304.188C49.2159 303.259 49.3447 302.426 49.6023 301.688C49.8598 300.949 50.2216 300.322 50.6875 299.807C51.1572 299.288 51.7083 298.892 52.3409 298.619C52.9773 298.343 53.6723 298.205 54.4261 298.205C55.0549 298.205 55.6402 298.297 56.1818 298.483C56.7273 298.669 57.2121 298.932 57.6364 299.273C58.0644 299.614 58.4186 300.019 58.6989 300.489C58.9792 300.955 59.1686 301.472 59.267 302.04H57.4659ZM61.5753 310V298.364H65.8366C66.6624 298.364 67.3461 298.5 67.8878 298.773C68.4295 299.042 68.8348 299.407 69.1037 299.869C69.3726 300.328 69.5071 300.845 69.5071 301.42C69.5071 301.905 69.4181 302.314 69.2401 302.648C69.062 302.977 68.8234 303.242 68.5241 303.443C68.2287 303.64 67.9029 303.784 67.5469 303.875V303.989C67.9332 304.008 68.3101 304.133 68.6776 304.364C69.0488 304.591 69.3556 304.915 69.598 305.335C69.8404 305.756 69.9616 306.267 69.9616 306.869C69.9616 307.464 69.8215 307.998 69.5412 308.472C69.2647 308.941 68.8366 309.314 68.2571 309.591C67.6776 309.864 66.937 310 66.0355 310H61.5753ZM63.331 308.494H65.8651C66.706 308.494 67.3082 308.331 67.6719 308.006C68.0355 307.68 68.2173 307.273 68.2173 306.784C68.2173 306.417 68.1245 306.08 67.9389 305.773C67.7533 305.466 67.4882 305.222 67.1435 305.04C66.8026 304.858 66.3973 304.767 65.9276 304.767H63.331V308.494ZM63.331 303.398H65.6832C66.0772 303.398 66.4313 303.322 66.7457 303.17C67.0639 303.019 67.3158 302.807 67.5014 302.534C67.6908 302.258 67.7855 301.932 67.7855 301.557C67.7855 301.076 67.617 300.672 67.2798 300.347C66.9427 300.021 66.4257 299.858 65.7287 299.858H63.331V303.398Z" fill="white"/>
</g>
<defs>
<clipPath id="clip0_4149_13053">
<rect width="638" height="700" rx="30" fill="white"/>
</clipPath>
</defs>
</svg>
