<svg width="1312" height="266" viewBox="0 0 1312 266" fill="none" xmlns="http://www.w3.org/2000/svg">
<path d="M6.87029 27.0298C6.7879 26.7713 6.67711 26.5398 6.5379 26.3352C6.40154 26.1278 6.23819 25.9517 6.04785 25.8068C5.85751 25.6591 5.64018 25.5469 5.39586 25.4702C5.15438 25.3935 4.88876 25.3551 4.59898 25.3551C4.10751 25.3551 3.66432 25.4815 3.26944 25.7344C2.87455 25.9872 2.56205 26.358 2.33194 26.8466C2.10467 27.3324 1.99103 27.9276 1.99103 28.6321C1.99103 29.3395 2.10609 29.9375 2.3362 30.4261C2.56631 30.9148 2.88165 31.2855 3.28222 31.5384C3.68279 31.7912 4.13876 31.9176 4.65012 31.9176C5.12455 31.9176 5.5379 31.821 5.89018 31.6278C6.24529 31.4347 6.51944 31.1619 6.71262 30.8097C6.90864 30.4545 7.00665 30.0369 7.00665 29.5568L7.34756 29.6207H4.8504V28.5341H8.2808V29.527C8.2808 30.2599 8.12455 30.8963 7.81205 31.4361C7.50239 31.973 7.07342 32.3878 6.52512 32.6804C5.97967 32.973 5.35467 33.1193 4.65012 33.1193C3.86035 33.1193 3.16717 32.9375 2.57057 32.5739C1.97682 32.2102 1.51376 31.6946 1.18137 31.027C0.848984 30.3565 0.682791 29.5611 0.682791 28.6406C0.682791 27.9446 0.779382 27.3196 0.972563 26.7656C1.16575 26.2116 1.43705 25.7415 1.78648 25.3551C2.13876 24.9659 2.55211 24.669 3.02654 24.4645C3.50381 24.2571 4.02512 24.1534 4.59046 24.1534C5.06205 24.1534 5.50097 24.223 5.90722 24.3622C6.31631 24.5014 6.67995 24.6989 6.99813 24.9545C7.31915 25.2102 7.58478 25.5142 7.79501 25.8665C8.00523 26.2159 8.14728 26.6037 8.22114 27.0298H6.87029ZM10.1923 33V24.2727H11.5091V31.8665H15.4636V33H10.1923ZM24.4469 28.6364C24.4469 29.5682 24.2764 30.3693 23.9355 31.0398C23.5946 31.7074 23.1273 32.2216 22.5335 32.5824C21.9426 32.9403 21.2707 33.1193 20.5179 33.1193C19.7622 33.1193 19.0875 32.9403 18.4938 32.5824C17.9028 32.2216 17.4369 31.706 17.096 31.0355C16.7551 30.3651 16.5847 29.5653 16.5847 28.6364C16.5847 27.7045 16.7551 26.9048 17.096 26.2372C17.4369 25.5668 17.9028 25.0526 18.4938 24.6946C19.0875 24.3338 19.7622 24.1534 20.5179 24.1534C21.2707 24.1534 21.9426 24.3338 22.5335 24.6946C23.1273 25.0526 23.5946 25.5668 23.9355 26.2372C24.2764 26.9048 24.4469 27.7045 24.4469 28.6364ZM23.1429 28.6364C23.1429 27.9261 23.0278 27.3281 22.7977 26.8423C22.5705 26.3537 22.258 25.9844 21.8602 25.7344C21.4653 25.4815 21.0179 25.3551 20.5179 25.3551C20.0151 25.3551 19.5662 25.4815 19.1713 25.7344C18.7764 25.9844 18.4639 26.3537 18.2338 26.8423C18.0065 27.3281 17.8929 27.9261 17.8929 28.6364C17.8929 29.3466 18.0065 29.946 18.2338 30.4347C18.4639 30.9205 18.7764 31.2898 19.1713 31.5426C19.5662 31.7926 20.0151 31.9176 20.5179 31.9176C21.0179 31.9176 21.4653 31.7926 21.8602 31.5426C22.258 31.2898 22.5705 30.9205 22.7977 30.4347C23.0278 29.946 23.1429 29.3466 23.1429 28.6364ZM27.9319 33L25.5115 24.2727H26.8964L28.5967 31.0312H28.6776L30.4461 24.2727H31.8183L33.5867 31.0355H33.6677L35.3637 24.2727H36.7529L34.3282 33H33.0029L31.1663 26.4631H31.0981L29.2615 33H27.9319Z" fill="#19191B"/>
<path d="M0.62559 232.273H2.12133L4.40116 236.24H4.49491L6.77474 232.273H8.27048L5.10428 237.574V241H3.79178V237.574L0.62559 232.273ZM16.8894 236.636C16.8894 237.568 16.7189 238.369 16.378 239.04C16.0371 239.707 15.5698 240.222 14.976 240.582C14.3851 240.94 13.7132 241.119 12.9604 241.119C12.2047 241.119 11.53 240.94 10.9363 240.582C10.3453 240.222 9.87944 239.706 9.53853 239.036C9.19762 238.365 9.02717 237.565 9.02717 236.636C9.02717 235.705 9.19762 234.905 9.53853 234.237C9.87944 233.567 10.3453 233.053 10.9363 232.695C11.53 232.334 12.2047 232.153 12.9604 232.153C13.7132 232.153 14.3851 232.334 14.976 232.695C15.5698 233.053 16.0371 233.567 16.378 234.237C16.7189 234.905 16.8894 235.705 16.8894 236.636ZM15.5854 236.636C15.5854 235.926 15.4703 235.328 15.2402 234.842C15.013 234.354 14.7005 233.984 14.3027 233.734C13.9078 233.482 13.4604 233.355 12.9604 233.355C12.4576 233.355 12.0087 233.482 11.6138 233.734C11.2189 233.984 10.9064 234.354 10.6763 234.842C10.449 235.328 10.3354 235.926 10.3354 236.636C10.3354 237.347 10.449 237.946 10.6763 238.435C10.9064 238.92 11.2189 239.29 11.6138 239.543C12.0087 239.793 12.4576 239.918 12.9604 239.918C13.4604 239.918 13.9078 239.793 14.3027 239.543C14.7005 239.29 15.013 238.92 15.2402 238.435C15.4703 237.946 15.5854 237.347 15.5854 236.636ZM24.3833 232.273H25.7043V238.013C25.7043 238.624 25.5608 239.165 25.2739 239.636C24.987 240.105 24.5836 240.474 24.0637 240.744C23.5438 241.011 22.9344 241.145 22.2356 241.145C21.5395 241.145 20.9316 241.011 20.4117 240.744C19.8918 240.474 19.4884 240.105 19.2015 239.636C18.9145 239.165 18.7711 238.624 18.7711 238.013V232.273H20.0878V237.906C20.0878 238.301 20.1745 238.652 20.3478 238.959C20.5239 239.266 20.7725 239.507 21.0935 239.683C21.4145 239.857 21.7952 239.943 22.2356 239.943C22.6787 239.943 23.0608 239.857 23.3819 239.683C23.7057 239.507 23.9529 239.266 24.1233 238.959C24.2966 238.652 24.3833 238.301 24.3833 237.906V232.273Z" fill="#19191B"/>
<path d="M81 1L81 265" stroke="url(#paint0_linear_380_12468)" stroke-linecap="round"/>
<rect x="81" y="1" width="173" height="56" rx="28" fill="#19191B"/>
<path d="M122.177 33V24.2727H123.494V28.4403H123.6L127.261 24.2727H128.918L125.399 28.2017L128.931 33H127.346L124.525 29.1009L123.494 30.2855V33H122.177ZM131.703 24.2727V33H130.386V24.2727H131.703ZM141.109 27.1108H139.779C139.728 26.8267 139.633 26.5767 139.494 26.3608C139.354 26.1449 139.184 25.9616 138.982 25.8111C138.781 25.6605 138.555 25.5469 138.305 25.4702C138.058 25.3935 137.795 25.3551 137.516 25.3551C137.014 25.3551 136.563 25.4815 136.166 25.7344C135.771 25.9872 135.458 26.358 135.228 26.8466C135.001 27.3352 134.887 27.9318 134.887 28.6364C134.887 29.3466 135.001 29.946 135.228 30.4347C135.458 30.9233 135.772 31.2926 136.17 31.5426C136.568 31.7926 137.015 31.9176 137.512 31.9176C137.788 31.9176 138.049 31.8807 138.296 31.8068C138.546 31.7301 138.772 31.6179 138.974 31.4702C139.175 31.3224 139.346 31.142 139.485 30.929C139.627 30.7131 139.725 30.4659 139.779 30.1875L141.109 30.1918C141.038 30.6207 140.9 31.0156 140.695 31.3764C140.494 31.7344 140.234 32.044 139.916 32.3054C139.6 32.5639 139.239 32.7642 138.833 32.9062C138.427 33.0483 137.984 33.1193 137.504 33.1193C136.748 33.1193 136.075 32.9403 135.484 32.5824C134.893 32.2216 134.427 31.706 134.086 31.0355C133.748 30.3651 133.579 29.5653 133.579 28.6364C133.579 27.7045 133.749 26.9048 134.09 26.2372C134.431 25.5668 134.897 25.0526 135.488 24.6946C136.079 24.3338 136.751 24.1534 137.504 24.1534C137.967 24.1534 138.398 24.2202 138.799 24.3537C139.202 24.4844 139.565 24.6776 139.886 24.9332C140.207 25.1861 140.472 25.4957 140.683 25.8622C140.893 26.2259 141.035 26.642 141.109 27.1108ZM142.924 33V24.2727H144.241V28.4403H144.348L148.008 24.2727H149.666L146.146 28.2017L149.679 33H148.093L145.272 29.1009L144.241 30.2855V33H142.924ZM153.844 28.0824V29.1903H149.975V28.0824H153.844ZM163.466 28.6364C163.466 29.5682 163.295 30.3693 162.954 31.0398C162.614 31.7074 162.146 32.2216 161.552 32.5824C160.962 32.9403 160.29 33.1193 159.537 33.1193C158.781 33.1193 158.106 32.9403 157.513 32.5824C156.922 32.2216 156.456 31.706 156.115 31.0355C155.774 30.3651 155.604 29.5653 155.604 28.6364C155.604 27.7045 155.774 26.9048 156.115 26.2372C156.456 25.5668 156.922 25.0526 157.513 24.6946C158.106 24.3338 158.781 24.1534 159.537 24.1534C160.29 24.1534 160.962 24.3338 161.552 24.6946C162.146 25.0526 162.614 25.5668 162.954 26.2372C163.295 26.9048 163.466 27.7045 163.466 28.6364ZM162.162 28.6364C162.162 27.9261 162.047 27.3281 161.817 26.8423C161.589 26.3537 161.277 25.9844 160.879 25.7344C160.484 25.4815 160.037 25.3551 159.537 25.3551C159.034 25.3551 158.585 25.4815 158.19 25.7344C157.795 25.9844 157.483 26.3537 157.253 26.8423C157.025 27.3281 156.912 27.9261 156.912 28.6364C156.912 29.3466 157.025 29.946 157.253 30.4347C157.483 30.9205 157.795 31.2898 158.19 31.5426C158.585 31.7926 159.034 31.9176 159.537 31.9176C160.037 31.9176 160.484 31.7926 160.879 31.5426C161.277 31.2898 161.589 30.9205 161.817 30.4347C162.047 29.946 162.162 29.3466 162.162 28.6364ZM165.347 33V24.2727H170.759V25.4062H166.664V28.0653H170.372V29.1946H166.664V33H165.347ZM172.619 33V24.2727H178.031V25.4062H173.935V28.0653H177.643V29.1946H173.935V33H172.619ZM190.554 27.1108H189.225C189.174 26.8267 189.078 26.5767 188.939 26.3608C188.8 26.1449 188.63 25.9616 188.428 25.8111C188.226 25.6605 188 25.5469 187.75 25.4702C187.503 25.3935 187.24 25.3551 186.962 25.3551C186.459 25.3551 186.009 25.4815 185.611 25.7344C185.216 25.9872 184.904 26.358 184.674 26.8466C184.446 27.3352 184.333 27.9318 184.333 28.6364C184.333 29.3466 184.446 29.946 184.674 30.4347C184.904 30.9233 185.218 31.2926 185.615 31.5426C186.013 31.7926 186.461 31.9176 186.958 31.9176C187.233 31.9176 187.495 31.8807 187.742 31.8068C187.992 31.7301 188.218 31.6179 188.419 31.4702C188.621 31.3224 188.792 31.142 188.931 30.929C189.073 30.7131 189.171 30.4659 189.225 30.1875L190.554 30.1918C190.483 30.6207 190.346 31.0156 190.141 31.3764C189.939 31.7344 189.679 32.044 189.361 32.3054C189.046 32.5639 188.685 32.7642 188.279 32.9062C187.873 33.0483 187.429 33.1193 186.949 33.1193C186.194 33.1193 185.52 32.9403 184.929 32.5824C184.338 32.2216 183.873 31.706 183.532 31.0355C183.194 30.3651 183.025 29.5653 183.025 28.6364C183.025 27.7045 183.195 26.9048 183.536 26.2372C183.877 25.5668 184.343 25.0526 184.934 24.6946C185.525 24.3338 186.196 24.1534 186.949 24.1534C187.412 24.1534 187.844 24.2202 188.245 24.3537C188.648 24.4844 189.01 24.6776 189.331 24.9332C189.652 25.1861 189.918 25.4957 190.128 25.8622C190.338 26.2259 190.48 26.642 190.554 27.1108ZM193.049 33H191.651L194.792 24.2727H196.313L199.453 33H198.056L195.588 25.858H195.52L193.049 33ZM193.283 29.5824H197.817V30.6903H193.283V29.5824ZM200.954 33V24.2727H202.27V31.8665H206.225V33H200.954ZM207.967 33V24.2727H209.284V31.8665H213.238V33H207.967Z" fill="white"/>
<path d="M75.6667 133C75.6667 135.946 78.0545 138.333 81 138.333C83.9455 138.333 86.3333 135.946 86.3333 133C86.3333 130.054 83.9455 127.667 81 127.667C78.0545 127.667 75.6667 130.054 75.6667 133ZM137 134C137.552 134 138 133.552 138 133C138 132.448 137.552 132 137 132V134ZM81 134H137V132H81V134Z" fill="#DADADA"/>
<path opacity="0.5" d="M149.151 128.273V137H147.83V129.594H147.778L145.69 130.957V129.696L147.868 128.273H149.151ZM155.286 137V128.273H156.603V132.065H160.954V128.273H162.275V137H160.954V133.195H156.603V137H155.286ZM172.014 132.636C172.014 133.568 171.843 134.369 171.502 135.04C171.161 135.707 170.694 136.222 170.1 136.582C169.509 136.94 168.838 137.119 168.085 137.119C167.329 137.119 166.654 136.94 166.061 136.582C165.47 136.222 165.004 135.706 164.663 135.036C164.322 134.365 164.151 133.565 164.151 132.636C164.151 131.705 164.322 130.905 164.663 130.237C165.004 129.567 165.47 129.053 166.061 128.695C166.654 128.334 167.329 128.153 168.085 128.153C168.838 128.153 169.509 128.334 170.1 128.695C170.694 129.053 171.161 129.567 171.502 130.237C171.843 130.905 172.014 131.705 172.014 132.636ZM170.71 132.636C170.71 131.926 170.595 131.328 170.365 130.842C170.137 130.354 169.825 129.984 169.427 129.734C169.032 129.482 168.585 129.355 168.085 129.355C167.582 129.355 167.133 129.482 166.738 129.734C166.343 129.984 166.031 130.354 165.801 130.842C165.573 131.328 165.46 131.926 165.46 132.636C165.46 133.347 165.573 133.946 165.801 134.435C166.031 134.92 166.343 135.29 166.738 135.543C167.133 135.793 167.582 135.918 168.085 135.918C168.585 135.918 169.032 135.793 169.427 135.543C169.825 135.29 170.137 134.92 170.365 134.435C170.595 133.946 170.71 133.347 170.71 132.636ZM179.508 128.273H180.829V134.013C180.829 134.624 180.685 135.165 180.398 135.636C180.111 136.105 179.708 136.474 179.188 136.744C178.668 137.011 178.059 137.145 177.36 137.145C176.664 137.145 176.056 137.011 175.536 136.744C175.016 136.474 174.613 136.105 174.326 135.636C174.039 135.165 173.895 134.624 173.895 134.013V128.273H175.212V133.906C175.212 134.301 175.299 134.652 175.472 134.959C175.648 135.266 175.897 135.507 176.218 135.683C176.539 135.857 176.92 135.943 177.36 135.943C177.803 135.943 178.185 135.857 178.506 135.683C178.83 135.507 179.077 135.266 179.248 134.959C179.421 134.652 179.508 134.301 179.508 133.906V128.273ZM182.983 137V128.273H186.094C186.77 128.273 187.331 128.389 187.777 128.622C188.226 128.855 188.561 129.178 188.783 129.589C189.004 129.999 189.115 130.472 189.115 131.009C189.115 131.543 189.003 132.013 188.778 132.419C188.557 132.822 188.222 133.136 187.773 133.361C187.327 133.585 186.766 133.697 186.09 133.697H183.733V132.564H185.97C186.396 132.564 186.743 132.503 187.01 132.381C187.28 132.259 187.477 132.081 187.602 131.848C187.727 131.615 187.79 131.335 187.79 131.009C187.79 130.679 187.726 130.393 187.598 130.152C187.473 129.911 187.276 129.726 187.006 129.598C186.739 129.467 186.388 129.402 185.953 129.402H184.3V137H182.983ZM187.291 133.062L189.448 137H187.948L185.834 133.062H187.291Z" fill="#19191B"/>
<path d="M259.333 133C259.333 130.054 256.946 127.667 254 127.667C251.054 127.667 248.667 130.054 248.667 133C248.667 135.946 251.054 138.333 254 138.333C256.946 138.333 259.333 135.946 259.333 133ZM198 132C197.448 132 197 132.448 197 133C197 133.552 197.448 134 198 134L198 132ZM254 132L198 132L198 134L254 134L254 132Z" fill="#DADADA"/>
<rect x="81" y="209" width="173" height="56" rx="28" fill="#19191B" fill-opacity="0.03"/>
<path d="M122.177 241V232.273H123.494V236.44H123.6L127.261 232.273H128.918L125.399 236.202L128.931 241H127.346L124.525 237.101L123.494 238.286V241H122.177ZM131.703 232.273V241H130.386V232.273H131.703ZM141.109 235.111H139.779C139.728 234.827 139.633 234.577 139.494 234.361C139.354 234.145 139.184 233.962 138.982 233.811C138.781 233.661 138.555 233.547 138.305 233.47C138.058 233.393 137.795 233.355 137.516 233.355C137.014 233.355 136.563 233.482 136.166 233.734C135.771 233.987 135.458 234.358 135.228 234.847C135.001 235.335 134.887 235.932 134.887 236.636C134.887 237.347 135.001 237.946 135.228 238.435C135.458 238.923 135.772 239.293 136.17 239.543C136.568 239.793 137.015 239.918 137.512 239.918C137.788 239.918 138.049 239.881 138.296 239.807C138.546 239.73 138.772 239.618 138.974 239.47C139.175 239.322 139.346 239.142 139.485 238.929C139.627 238.713 139.725 238.466 139.779 238.188L141.109 238.192C141.038 238.621 140.9 239.016 140.695 239.376C140.494 239.734 140.234 240.044 139.916 240.305C139.6 240.564 139.239 240.764 138.833 240.906C138.427 241.048 137.984 241.119 137.504 241.119C136.748 241.119 136.075 240.94 135.484 240.582C134.893 240.222 134.427 239.706 134.086 239.036C133.748 238.365 133.579 237.565 133.579 236.636C133.579 235.705 133.749 234.905 134.09 234.237C134.431 233.567 134.897 233.053 135.488 232.695C136.079 232.334 136.751 232.153 137.504 232.153C137.967 232.153 138.398 232.22 138.799 232.354C139.202 232.484 139.565 232.678 139.886 232.933C140.207 233.186 140.472 233.496 140.683 233.862C140.893 234.226 141.035 234.642 141.109 235.111ZM142.924 241V232.273H144.241V236.44H144.348L148.008 232.273H149.666L146.146 236.202L149.679 241H148.093L145.272 237.101L144.241 238.286V241H142.924ZM153.844 236.082V237.19H149.975V236.082H153.844ZM163.466 236.636C163.466 237.568 163.295 238.369 162.954 239.04C162.614 239.707 162.146 240.222 161.552 240.582C160.962 240.94 160.29 241.119 159.537 241.119C158.781 241.119 158.106 240.94 157.513 240.582C156.922 240.222 156.456 239.706 156.115 239.036C155.774 238.365 155.604 237.565 155.604 236.636C155.604 235.705 155.774 234.905 156.115 234.237C156.456 233.567 156.922 233.053 157.513 232.695C158.106 232.334 158.781 232.153 159.537 232.153C160.29 232.153 160.962 232.334 161.552 232.695C162.146 233.053 162.614 233.567 162.954 234.237C163.295 234.905 163.466 235.705 163.466 236.636ZM162.162 236.636C162.162 235.926 162.047 235.328 161.817 234.842C161.589 234.354 161.277 233.984 160.879 233.734C160.484 233.482 160.037 233.355 159.537 233.355C159.034 233.355 158.585 233.482 158.19 233.734C157.795 233.984 157.483 234.354 157.253 234.842C157.025 235.328 156.912 235.926 156.912 236.636C156.912 237.347 157.025 237.946 157.253 238.435C157.483 238.92 157.795 239.29 158.19 239.543C158.585 239.793 159.034 239.918 159.537 239.918C160.037 239.918 160.484 239.793 160.879 239.543C161.277 239.29 161.589 238.92 161.817 238.435C162.047 237.946 162.162 237.347 162.162 236.636ZM165.347 241V232.273H170.759V233.406H166.664V236.065H170.372V237.195H166.664V241H165.347ZM172.619 241V232.273H178.031V233.406H173.935V236.065H177.643V237.195H173.935V241H172.619ZM190.554 235.111H189.225C189.174 234.827 189.078 234.577 188.939 234.361C188.8 234.145 188.63 233.962 188.428 233.811C188.226 233.661 188 233.547 187.75 233.47C187.503 233.393 187.24 233.355 186.962 233.355C186.459 233.355 186.009 233.482 185.611 233.734C185.216 233.987 184.904 234.358 184.674 234.847C184.446 235.335 184.333 235.932 184.333 236.636C184.333 237.347 184.446 237.946 184.674 238.435C184.904 238.923 185.218 239.293 185.615 239.543C186.013 239.793 186.461 239.918 186.958 239.918C187.233 239.918 187.495 239.881 187.742 239.807C187.992 239.73 188.218 239.618 188.419 239.47C188.621 239.322 188.792 239.142 188.931 238.929C189.073 238.713 189.171 238.466 189.225 238.188L190.554 238.192C190.483 238.621 190.346 239.016 190.141 239.376C189.939 239.734 189.679 240.044 189.361 240.305C189.046 240.564 188.685 240.764 188.279 240.906C187.873 241.048 187.429 241.119 186.949 241.119C186.194 241.119 185.52 240.94 184.929 240.582C184.338 240.222 183.873 239.706 183.532 239.036C183.194 238.365 183.025 237.565 183.025 236.636C183.025 235.705 183.195 234.905 183.536 234.237C183.877 233.567 184.343 233.053 184.934 232.695C185.525 232.334 186.196 232.153 186.949 232.153C187.412 232.153 187.844 232.22 188.245 232.354C188.648 232.484 189.01 232.678 189.331 232.933C189.652 233.186 189.918 233.496 190.128 233.862C190.338 234.226 190.48 234.642 190.554 235.111ZM193.049 241H191.651L194.792 232.273H196.313L199.453 241H198.056L195.588 233.858H195.52L193.049 241ZM193.283 237.582H197.817V238.69H193.283V237.582ZM200.954 241V232.273H202.27V239.866H206.225V241H200.954ZM207.967 241V232.273H209.284V239.866H213.238V241H207.967Z" fill="#19191B"/>
<path d="M254 1L254 265" stroke="url(#paint1_linear_380_12468)" stroke-linecap="round"/>
<path d="M910 1L910 265" stroke="url(#paint2_linear_380_12468)" stroke-linecap="round"/>
<path d="M286 1L286 265" stroke="url(#paint3_linear_380_12468)" stroke-linecap="round"/>
<rect x="286" y="1" width="146" height="56" rx="28" fill="#19191B"/>
<path d="M327.226 33V24.2727H330.337C331.013 24.2727 331.574 24.3892 332.02 24.6222C332.469 24.8551 332.804 25.1776 333.026 25.5895C333.248 25.9986 333.358 26.4716 333.358 27.0085C333.358 27.5426 333.246 28.0128 333.022 28.419C332.8 28.8224 332.465 29.1364 332.016 29.3608C331.57 29.5852 331.009 29.6974 330.333 29.6974H327.976V28.5639H330.213C330.64 28.5639 330.986 28.5028 331.253 28.3807C331.523 28.2585 331.721 28.081 331.846 27.848C331.971 27.6151 332.033 27.3352 332.033 27.0085C332.033 26.679 331.969 26.3935 331.841 26.152C331.716 25.9105 331.519 25.7259 331.249 25.598C330.982 25.4673 330.631 25.402 330.196 25.402H328.543V33H327.226ZM331.534 29.0625L333.691 33H332.191L330.077 29.0625H331.534ZM335.201 33V24.2727H340.672V25.4062H336.517V28.0653H340.387V29.1946H336.517V31.8665H340.723V33H335.201ZM347.431 26.5653C347.386 26.1619 347.198 25.8494 346.869 25.6278C346.539 25.4034 346.124 25.2912 345.624 25.2912C345.266 25.2912 344.957 25.348 344.695 25.4616C344.434 25.5724 344.231 25.7259 344.086 25.9219C343.944 26.1151 343.873 26.3352 343.873 26.5824C343.873 26.7898 343.921 26.9687 344.018 27.1193C344.117 27.2699 344.246 27.3963 344.405 27.4986C344.567 27.598 344.741 27.6818 344.925 27.75C345.11 27.8153 345.288 27.8693 345.458 27.9119L346.31 28.1335C346.589 28.2017 346.874 28.294 347.167 28.4105C347.459 28.527 347.731 28.6804 347.981 28.8707C348.231 29.0611 348.432 29.2969 348.586 29.5781C348.742 29.8594 348.82 30.196 348.82 30.5881C348.82 31.0824 348.692 31.5213 348.437 31.9048C348.184 32.2884 347.816 32.5909 347.333 32.8125C346.853 33.0341 346.272 33.1449 345.59 33.1449C344.937 33.1449 344.371 33.0412 343.894 32.8338C343.417 32.6264 343.043 32.3324 342.773 31.9517C342.503 31.5682 342.354 31.1136 342.326 30.5881H343.647C343.672 30.9034 343.775 31.1662 343.954 31.3764C344.136 31.5838 344.367 31.7386 344.648 31.8409C344.932 31.9403 345.244 31.9901 345.582 31.9901C345.954 31.9901 346.285 31.9318 346.574 31.8153C346.867 31.696 347.097 31.5312 347.265 31.321C347.432 31.108 347.516 30.8594 347.516 30.5753C347.516 30.3168 347.442 30.1051 347.295 29.9403C347.15 29.7756 346.952 29.6392 346.702 29.5312C346.455 29.4233 346.175 29.3281 345.863 29.2457L344.832 28.9645C344.133 28.7741 343.579 28.4943 343.17 28.125C342.763 27.7557 342.56 27.267 342.56 26.6591C342.56 26.1562 342.697 25.7173 342.969 25.3423C343.242 24.9673 343.611 24.6761 344.077 24.4688C344.543 24.2585 345.069 24.1534 345.654 24.1534C346.245 24.1534 346.766 24.2571 347.218 24.4645C347.672 24.6719 348.03 24.9574 348.292 25.321C348.553 25.6818 348.69 26.0966 348.701 26.5653H347.431ZM350.634 33V24.2727H356.105V25.4062H351.95V28.0653H355.82V29.1946H351.95V31.8665H356.156V33H350.634ZM358.841 33H357.444L360.584 24.2727H362.106L365.246 33H363.849L361.381 25.858H361.313L358.841 33ZM359.076 29.5824H363.61V30.6903H359.076V29.5824ZM366.747 33V24.2727H369.857C370.533 24.2727 371.095 24.3892 371.541 24.6222C371.989 24.8551 372.325 25.1776 372.546 25.5895C372.768 25.9986 372.879 26.4716 372.879 27.0085C372.879 27.5426 372.766 28.0128 372.542 28.419C372.32 28.8224 371.985 29.1364 371.536 29.3608C371.09 29.5852 370.529 29.6974 369.853 29.6974H367.497V28.5639H369.734C370.16 28.5639 370.506 28.5028 370.774 28.3807C371.043 28.2585 371.241 28.081 371.366 27.848C371.491 27.6151 371.553 27.3352 371.553 27.0085C371.553 26.679 371.489 26.3935 371.362 26.152C371.237 25.9105 371.039 25.7259 370.769 25.598C370.502 25.4673 370.151 25.402 369.717 25.402H368.063V33H366.747ZM371.055 29.0625L373.211 33H371.711L369.597 29.0625H371.055ZM381.969 27.1108H380.64C380.589 26.8267 380.494 26.5767 380.354 26.3608C380.215 26.1449 380.045 25.9616 379.843 25.8111C379.641 25.6605 379.416 25.5469 379.166 25.4702C378.918 25.3935 378.656 25.3551 378.377 25.3551C377.874 25.3551 377.424 25.4815 377.026 25.7344C376.631 25.9872 376.319 26.358 376.089 26.8466C375.862 27.3352 375.748 27.9318 375.748 28.6364C375.748 29.3466 375.862 29.946 376.089 30.4347C376.319 30.9233 376.633 31.2926 377.031 31.5426C377.428 31.7926 377.876 31.9176 378.373 31.9176C378.648 31.9176 378.91 31.8807 379.157 31.8068C379.407 31.7301 379.633 31.6179 379.835 31.4702C380.036 31.3224 380.207 31.142 380.346 30.929C380.488 30.7131 380.586 30.4659 380.64 30.1875L381.969 30.1918C381.898 30.6207 381.761 31.0156 381.556 31.3764C381.354 31.7344 381.094 32.044 380.776 32.3054C380.461 32.5639 380.1 32.7642 379.694 32.9062C379.288 33.0483 378.844 33.1193 378.364 33.1193C377.609 33.1193 376.935 32.9403 376.344 32.5824C375.754 32.2216 375.288 31.706 374.947 31.0355C374.609 30.3651 374.44 29.5653 374.44 28.6364C374.44 27.7045 374.61 26.9048 374.951 26.2372C375.292 25.5668 375.758 25.0526 376.349 24.6946C376.94 24.3338 377.612 24.1534 378.364 24.1534C378.827 24.1534 379.259 24.2202 379.66 24.3537C380.063 24.4844 380.425 24.6776 380.746 24.9332C381.068 25.1861 381.333 25.4957 381.543 25.8622C381.754 26.2259 381.896 26.642 381.969 27.1108ZM383.785 33V24.2727H385.102V28.0653H389.453V24.2727H390.774V33H389.453V29.1946H385.102V33H383.785Z" fill="white"/>
<rect x="452" y="1" width="458" height="56" rx="28" fill="#19191B"/>
<path d="M661.784 33H658.958V24.2727H661.873C662.728 24.2727 663.463 24.4474 664.076 24.7969C664.69 25.1435 665.16 25.642 665.487 26.2926C665.816 26.9403 665.981 27.7173 665.981 28.6236C665.981 29.5327 665.815 30.3139 665.483 30.9673C665.153 31.6207 664.676 32.1236 664.051 32.4759C663.426 32.8253 662.67 33 661.784 33ZM660.275 31.8494H661.711C662.376 31.8494 662.929 31.7244 663.369 31.4744C663.809 31.2216 664.139 30.8565 664.358 30.3793C664.576 29.8991 664.686 29.3139 664.686 28.6236C664.686 27.9389 664.576 27.358 664.358 26.8807C664.142 26.4034 663.819 26.0412 663.39 25.794C662.961 25.5469 662.429 25.4233 661.792 25.4233H660.275V31.8494ZM667.859 33V24.2727H673.33V25.4062H669.175V28.0653H673.045V29.1946H669.175V31.8665H673.381V33H667.859ZM680.089 26.5653C680.044 26.1619 679.856 25.8494 679.526 25.6278C679.197 25.4034 678.782 25.2912 678.282 25.2912C677.924 25.2912 677.615 25.348 677.353 25.4616C677.092 25.5724 676.889 25.7259 676.744 25.9219C676.602 26.1151 676.531 26.3352 676.531 26.5824C676.531 26.7898 676.579 26.9687 676.676 27.1193C676.775 27.2699 676.904 27.3963 677.063 27.4986C677.225 27.598 677.399 27.6818 677.583 27.75C677.768 27.8153 677.946 27.8693 678.116 27.9119L678.968 28.1335C679.247 28.2017 679.532 28.294 679.825 28.4105C680.117 28.527 680.389 28.6804 680.639 28.8707C680.889 29.0611 681.09 29.2969 681.244 29.5781C681.4 29.8594 681.478 30.196 681.478 30.5881C681.478 31.0824 681.35 31.5213 681.095 31.9048C680.842 32.2884 680.474 32.5909 679.991 32.8125C679.511 33.0341 678.93 33.1449 678.248 33.1449C677.595 33.1449 677.029 33.0412 676.552 32.8338C676.075 32.6264 675.701 32.3324 675.431 31.9517C675.161 31.5682 675.012 31.1136 674.984 30.5881H676.305C676.33 30.9034 676.433 31.1662 676.612 31.3764C676.794 31.5838 677.025 31.7386 677.306 31.8409C677.59 31.9403 677.901 31.9901 678.24 31.9901C678.612 31.9901 678.943 31.9318 679.232 31.8153C679.525 31.696 679.755 31.5312 679.923 31.321C680.09 31.108 680.174 30.8594 680.174 30.5753C680.174 30.3168 680.1 30.1051 679.953 29.9403C679.808 29.7756 679.61 29.6392 679.36 29.5312C679.113 29.4233 678.833 29.3281 678.521 29.2457L677.49 28.9645C676.791 28.7741 676.237 28.4943 675.828 28.125C675.421 27.7557 675.218 27.267 675.218 26.6591C675.218 26.1562 675.355 25.7173 675.627 25.3423C675.9 24.9673 676.269 24.6761 676.735 24.4688C677.201 24.2585 677.727 24.1534 678.312 24.1534C678.903 24.1534 679.424 24.2571 679.876 24.4645C680.33 24.6719 680.688 24.9574 680.95 25.321C681.211 25.6818 681.348 26.0966 681.359 26.5653H680.089ZM684.608 24.2727V33H683.292V24.2727H684.608ZM692.672 27.0298C692.59 26.7713 692.479 26.5398 692.34 26.3352C692.204 26.1278 692.04 25.9517 691.85 25.8068C691.66 25.6591 691.442 25.5469 691.198 25.4702C690.956 25.3935 690.691 25.3551 690.401 25.3551C689.91 25.3551 689.466 25.4815 689.071 25.7344C688.677 25.9872 688.364 26.358 688.134 26.8466C687.907 27.3324 687.793 27.9276 687.793 28.6321C687.793 29.3395 687.908 29.9375 688.138 30.4261C688.368 30.9148 688.684 31.2855 689.084 31.5384C689.485 31.7912 689.941 31.9176 690.452 31.9176C690.927 31.9176 691.34 31.821 691.692 31.6278C692.047 31.4347 692.321 31.1619 692.515 30.8097C692.711 30.4545 692.809 30.0369 692.809 29.5568L693.15 29.6207H690.652V28.5341H694.083V29.527C694.083 30.2599 693.927 30.8963 693.614 31.4361C693.304 31.973 692.875 32.3878 692.327 32.6804C691.782 32.973 691.157 33.1193 690.452 33.1193C689.662 33.1193 688.969 32.9375 688.373 32.5739C687.779 32.2102 687.316 31.6946 686.983 31.027C686.651 30.3565 686.485 29.5611 686.485 28.6406C686.485 27.9446 686.581 27.3196 686.775 26.7656C686.968 26.2116 687.239 25.7415 687.589 25.3551C687.941 24.9659 688.354 24.669 688.829 24.4645C689.306 24.2571 689.827 24.1534 690.392 24.1534C690.864 24.1534 691.303 24.223 691.709 24.3622C692.118 24.5014 692.482 24.6989 692.8 24.9545C693.121 25.2102 693.387 25.5142 693.597 25.8665C693.807 26.2159 693.949 26.6037 694.023 27.0298H692.672ZM703.038 24.2727V33H701.828L697.392 26.5994H697.311V33H695.994V24.2727H697.213L701.653 30.6818H701.734V24.2727H703.038Z" fill="white"/>
<path d="M280.667 133C280.667 135.946 283.054 138.333 286 138.333C288.946 138.333 291.333 135.946 291.333 133C291.333 130.054 288.946 127.667 286 127.667C283.054 127.667 280.667 130.054 280.667 133ZM568 134C568.552 134 569 133.552 569 133C569 132.448 568.552 132 568 132V134ZM286 134H568V132H286V134Z" fill="url(#paint4_linear_380_12468)"/>
<path opacity="0.5" d="M579.878 137.119C579.293 137.119 578.77 137.018 578.31 136.817C577.852 136.615 577.49 136.335 577.223 135.977C576.959 135.616 576.817 135.199 576.797 134.724H578.135C578.152 134.983 578.239 135.207 578.395 135.398C578.554 135.585 578.761 135.73 579.017 135.832C579.273 135.935 579.557 135.986 579.869 135.986C580.213 135.986 580.517 135.926 580.781 135.807C581.048 135.687 581.257 135.521 581.408 135.308C581.558 135.092 581.634 134.844 581.634 134.562C581.634 134.27 581.558 134.013 581.408 133.791C581.26 133.567 581.043 133.391 580.756 133.263C580.472 133.135 580.128 133.071 579.724 133.071H578.987V131.997H579.724C580.048 131.997 580.332 131.939 580.577 131.822C580.824 131.706 581.017 131.544 581.156 131.337C581.295 131.126 581.365 130.881 581.365 130.599C581.365 130.33 581.304 130.095 581.182 129.896C581.063 129.695 580.892 129.537 580.67 129.423C580.452 129.31 580.193 129.253 579.895 129.253C579.611 129.253 579.345 129.305 579.098 129.411C578.854 129.513 578.655 129.661 578.501 129.854C578.348 130.044 578.266 130.273 578.254 130.54H576.98C576.994 130.068 577.134 129.653 577.398 129.295C577.665 128.937 578.017 128.658 578.455 128.456C578.892 128.254 579.378 128.153 579.912 128.153C580.472 128.153 580.955 128.263 581.361 128.482C581.77 128.697 582.085 128.986 582.307 129.347C582.531 129.707 582.642 130.102 582.639 130.531C582.642 131.02 582.506 131.435 582.23 131.776C581.957 132.116 581.594 132.345 581.139 132.462V132.53C581.719 132.618 582.168 132.848 582.486 133.22C582.807 133.592 582.966 134.054 582.963 134.605C582.966 135.085 582.832 135.516 582.562 135.896C582.295 136.277 581.93 136.577 581.467 136.795C581.004 137.011 580.474 137.119 579.878 137.119ZM591.174 137H588.349V128.273H591.264C592.119 128.273 592.853 128.447 593.467 128.797C594.08 129.143 594.551 129.642 594.877 130.293C595.207 130.94 595.372 131.717 595.372 132.624C595.372 133.533 595.205 134.314 594.873 134.967C594.544 135.621 594.066 136.124 593.441 136.476C592.816 136.825 592.061 137 591.174 137ZM589.666 135.849H591.102C591.767 135.849 592.319 135.724 592.759 135.474C593.2 135.222 593.529 134.857 593.748 134.379C593.967 133.899 594.076 133.314 594.076 132.624C594.076 131.939 593.967 131.358 593.748 130.881C593.532 130.403 593.21 130.041 592.781 129.794C592.352 129.547 591.819 129.423 591.183 129.423H589.666V135.849ZM597.553 137H596.155L599.296 128.273H600.817L603.958 137H602.56L600.093 129.858H600.024L597.553 137ZM597.787 133.582H602.321V134.69H597.787V133.582ZM603.894 128.273H605.39L607.67 132.24H607.763L610.043 128.273H611.539L608.373 133.574V137H607.06V133.574L603.894 128.273ZM617.782 130.565C617.737 130.162 617.549 129.849 617.22 129.628C616.89 129.403 616.475 129.291 615.975 129.291C615.617 129.291 615.308 129.348 615.046 129.462C614.785 129.572 614.582 129.726 614.437 129.922C614.295 130.115 614.224 130.335 614.224 130.582C614.224 130.79 614.272 130.969 614.369 131.119C614.468 131.27 614.597 131.396 614.756 131.499C614.918 131.598 615.092 131.682 615.276 131.75C615.461 131.815 615.639 131.869 615.809 131.912L616.661 132.134C616.94 132.202 617.225 132.294 617.518 132.411C617.81 132.527 618.082 132.68 618.332 132.871C618.582 133.061 618.783 133.297 618.937 133.578C619.093 133.859 619.171 134.196 619.171 134.588C619.171 135.082 619.043 135.521 618.788 135.905C618.535 136.288 618.167 136.591 617.684 136.812C617.204 137.034 616.623 137.145 615.941 137.145C615.288 137.145 614.722 137.041 614.245 136.834C613.768 136.626 613.394 136.332 613.124 135.952C612.854 135.568 612.705 135.114 612.677 134.588H613.998C614.024 134.903 614.126 135.166 614.305 135.376C614.487 135.584 614.718 135.739 614.999 135.841C615.283 135.94 615.595 135.99 615.933 135.99C616.305 135.99 616.636 135.932 616.925 135.815C617.218 135.696 617.448 135.531 617.616 135.321C617.783 135.108 617.867 134.859 617.867 134.575C617.867 134.317 617.793 134.105 617.646 133.94C617.501 133.776 617.303 133.639 617.053 133.531C616.806 133.423 616.526 133.328 616.214 133.246L615.183 132.964C614.484 132.774 613.93 132.494 613.521 132.125C613.114 131.756 612.911 131.267 612.911 130.659C612.911 130.156 613.048 129.717 613.32 129.342C613.593 128.967 613.962 128.676 614.428 128.469C614.894 128.259 615.42 128.153 616.005 128.153C616.596 128.153 617.117 128.257 617.569 128.464C618.024 128.672 618.381 128.957 618.643 129.321C618.904 129.682 619.041 130.097 619.052 130.565H617.782Z" fill="#19191B"/>
<path d="M915.333 133C915.333 130.054 912.946 127.667 910 127.667C907.054 127.667 904.667 130.054 904.667 133C904.667 135.946 907.054 138.333 910 138.333C912.946 138.333 915.333 135.946 915.333 133ZM628 132C627.448 132 627 132.448 627 133C627 133.552 627.448 134 628 134L628 132ZM910 132L628 132L628 134L910 134L910 132Z" fill="url(#paint5_linear_380_12468)"/>
<rect x="286" y="209" width="624" height="56" rx="28" fill="#19191B" fill-opacity="0.03"/>
<path d="M588.472 235.111H587.142C587.091 234.827 586.996 234.577 586.856 234.361C586.717 234.145 586.547 233.962 586.345 233.811C586.143 233.661 585.918 233.547 585.668 233.47C585.42 233.393 585.158 233.355 584.879 233.355C584.376 233.355 583.926 233.482 583.528 233.734C583.133 233.987 582.821 234.358 582.591 234.847C582.364 235.335 582.25 235.932 582.25 236.636C582.25 237.347 582.364 237.946 582.591 238.435C582.821 238.923 583.135 239.293 583.533 239.543C583.93 239.793 584.378 239.918 584.875 239.918C585.151 239.918 585.412 239.881 585.659 239.807C585.909 239.73 586.135 239.618 586.337 239.47C586.538 239.322 586.709 239.142 586.848 238.929C586.99 238.713 587.088 238.466 587.142 238.188L588.472 238.192C588.401 238.621 588.263 239.016 588.058 239.376C587.856 239.734 587.597 240.044 587.278 240.305C586.963 240.564 586.602 240.764 586.196 240.906C585.79 241.048 585.347 241.119 584.866 241.119C584.111 241.119 583.437 240.94 582.847 240.582C582.256 240.222 581.79 239.706 581.449 239.036C581.111 238.365 580.942 237.565 580.942 236.636C580.942 235.705 581.112 234.905 581.453 234.237C581.794 233.567 582.26 233.053 582.851 232.695C583.442 232.334 584.114 232.153 584.866 232.153C585.329 232.153 585.761 232.22 586.162 232.354C586.565 232.484 586.927 232.678 587.249 232.933C587.57 233.186 587.835 233.496 588.045 233.862C588.256 234.226 588.398 234.642 588.472 235.111ZM590.287 241V232.273H591.604V236.065H595.955V232.273H597.276V241H595.955V237.195H591.604V241H590.287ZM600.75 232.273V241H599.433V232.273H600.75ZM602.908 241V232.273H604.225V239.866H608.179V241H602.908ZM609.921 241V232.273H611.238V239.866H615.193V241H609.921Z" fill="#19191B"/>
<path d="M1115 1L1115 265" stroke="url(#paint6_linear_380_12468)" stroke-linecap="round"/>
<path d="M942 1L942 265" stroke="url(#paint7_linear_380_12468)" stroke-linecap="round"/>
<rect x="942" y="1" width="173" height="56" rx="28" fill="#19191B"/>
<path d="M983.162 33V24.2727H986.273C986.952 24.2727 987.515 24.3963 987.961 24.6435C988.407 24.8906 988.74 25.2287 988.962 25.6577C989.184 26.0838 989.294 26.5639 989.294 27.098C989.294 27.6349 989.182 28.1179 988.958 28.5469C988.736 28.973 988.401 29.3111 987.952 29.5611C987.506 29.8082 986.945 29.9318 986.269 29.9318H984.13V28.8153H986.149C986.578 28.8153 986.926 28.7415 987.193 28.5938C987.461 28.4432 987.657 28.2386 987.782 27.9801C987.907 27.7216 987.969 27.4276 987.969 27.098C987.969 26.7685 987.907 26.4759 987.782 26.2202C987.657 25.9645 987.459 25.7642 987.189 25.6193C986.922 25.4744 986.57 25.402 986.132 25.402H984.479V33H983.162ZM991.078 33V24.2727H994.189C994.865 24.2727 995.426 24.3892 995.872 24.6222C996.321 24.8551 996.656 25.1776 996.878 25.5895C997.099 25.9986 997.21 26.4716 997.21 27.0085C997.21 27.5426 997.098 28.0128 996.873 28.419C996.652 28.8224 996.317 29.1364 995.868 29.3608C995.422 29.5852 994.861 29.6974 994.185 29.6974H991.828V28.5639H994.065C994.491 28.5639 994.838 28.5028 995.105 28.3807C995.375 28.2585 995.572 28.081 995.697 27.848C995.822 27.6151 995.885 27.3352 995.885 27.0085C995.885 26.679 995.821 26.3935 995.693 26.152C995.568 25.9105 995.371 25.7259 995.101 25.598C994.834 25.4673 994.483 25.402 994.048 25.402H992.395V33H991.078ZM995.386 29.0625L997.543 33H996.043L993.929 29.0625H995.386ZM999.052 33V24.2727H1004.52V25.4062H1000.37V28.0653H1004.24V29.1946H1000.37V31.8665H1004.58V33H999.052ZM1011.28 26.5653C1011.24 26.1619 1011.05 25.8494 1010.72 25.6278C1010.39 25.4034 1009.98 25.2912 1009.48 25.2912C1009.12 25.2912 1008.81 25.348 1008.55 25.4616C1008.29 25.5724 1008.08 25.7259 1007.94 25.9219C1007.8 26.1151 1007.72 26.3352 1007.72 26.5824C1007.72 26.7898 1007.77 26.9687 1007.87 27.1193C1007.97 27.2699 1008.1 27.3963 1008.26 27.4986C1008.42 27.598 1008.59 27.6818 1008.78 27.75C1008.96 27.8153 1009.14 27.8693 1009.31 27.9119L1010.16 28.1335C1010.44 28.2017 1010.73 28.294 1011.02 28.4105C1011.31 28.527 1011.58 28.6804 1011.83 28.8707C1012.08 29.0611 1012.28 29.2969 1012.44 29.5781C1012.59 29.8594 1012.67 30.196 1012.67 30.5881C1012.67 31.0824 1012.54 31.5213 1012.29 31.9048C1012.04 32.2884 1011.67 32.5909 1011.18 32.8125C1010.7 33.0341 1010.12 33.1449 1009.44 33.1449C1008.79 33.1449 1008.22 33.0412 1007.75 32.8338C1007.27 32.6264 1006.9 32.3324 1006.63 31.9517C1006.36 31.5682 1006.21 31.1136 1006.18 30.5881H1007.5C1007.52 30.9034 1007.63 31.1662 1007.81 31.3764C1007.99 31.5838 1008.22 31.7386 1008.5 31.8409C1008.78 31.9403 1009.1 31.9901 1009.43 31.9901C1009.81 31.9901 1010.14 31.9318 1010.43 31.8153C1010.72 31.696 1010.95 31.5312 1011.12 31.321C1011.28 31.108 1011.37 30.8594 1011.37 30.5753C1011.37 30.3168 1011.29 30.1051 1011.15 29.9403C1011 29.7756 1010.8 29.6392 1010.55 29.5312C1010.31 29.4233 1010.03 29.3281 1009.71 29.2457L1008.68 28.9645C1007.98 28.7741 1007.43 28.4943 1007.02 28.125C1006.62 27.7557 1006.41 27.267 1006.41 26.6591C1006.41 26.1562 1006.55 25.7173 1006.82 25.3423C1007.09 24.9673 1007.46 24.6761 1007.93 24.4688C1008.4 24.2585 1008.92 24.1534 1009.51 24.1534C1010.1 24.1534 1010.62 24.2571 1011.07 24.4645C1011.52 24.6719 1011.88 24.9574 1012.14 25.321C1012.4 25.6818 1012.54 26.0966 1012.55 26.5653H1011.28ZM1014.49 33V24.2727H1019.96V25.4062H1015.8V28.0653H1019.67V29.1946H1015.8V31.8665H1020.01V33H1014.49ZM1029 24.2727V33H1027.79L1023.35 26.5994H1023.27V33H1021.96V24.2727H1023.17L1027.62 30.6818H1027.7V24.2727H1029ZM1030.73 25.4062V24.2727H1037.48V25.4062H1034.76V33H1033.45V25.4062H1030.73ZM1038.92 33H1037.53L1040.67 24.2727H1042.19L1045.33 33H1043.93L1041.46 25.858H1041.39L1038.92 33ZM1039.16 29.5824H1043.69V30.6903H1039.16V29.5824ZM1045.37 25.4062V24.2727H1052.12V25.4062H1049.4V33H1048.09V25.4062H1045.37ZM1055.17 24.2727V33H1053.85V24.2727H1055.17ZM1064.91 28.6364C1064.91 29.5682 1064.74 30.3693 1064.4 31.0398C1064.06 31.7074 1063.59 32.2216 1063 32.5824C1062.4 32.9403 1061.73 33.1193 1060.98 33.1193C1060.22 33.1193 1059.55 32.9403 1058.96 32.5824C1058.36 32.2216 1057.9 31.706 1057.56 31.0355C1057.22 30.3651 1057.05 29.5653 1057.05 28.6364C1057.05 27.7045 1057.22 26.9048 1057.56 26.2372C1057.9 25.5668 1058.36 25.0526 1058.96 24.6946C1059.55 24.3338 1060.22 24.1534 1060.98 24.1534C1061.73 24.1534 1062.4 24.3338 1063 24.6946C1063.59 25.0526 1064.06 25.5668 1064.4 26.2372C1064.74 26.9048 1064.91 27.7045 1064.91 28.6364ZM1063.6 28.6364C1063.6 27.9261 1063.49 27.3281 1063.26 26.8423C1063.03 26.3537 1062.72 25.9844 1062.32 25.7344C1061.93 25.4815 1061.48 25.3551 1060.98 25.3551C1060.48 25.3551 1060.03 25.4815 1059.63 25.7344C1059.24 25.9844 1058.93 26.3537 1058.7 26.8423C1058.47 27.3281 1058.35 27.9261 1058.35 28.6364C1058.35 29.3466 1058.47 29.946 1058.7 30.4347C1058.93 30.9205 1059.24 31.2898 1059.63 31.5426C1060.03 31.7926 1060.48 31.9176 1060.98 31.9176C1061.48 31.9176 1061.93 31.7926 1062.32 31.5426C1062.72 31.2898 1063.03 30.9205 1063.26 30.4347C1063.49 29.946 1063.6 29.3466 1063.6 28.6364ZM1073.83 24.2727V33H1072.62L1068.19 26.5994H1068.11V33H1066.79V24.2727H1068.01L1072.45 30.6818H1072.53V24.2727H1073.83Z" fill="white"/>
<path d="M936.667 133C936.667 135.946 939.054 138.333 942 138.333C944.946 138.333 947.333 135.946 947.333 133C947.333 130.054 944.946 127.667 942 127.667C939.054 127.667 936.667 130.054 936.667 133ZM998 134C998.552 134 999 133.552 999 133C999 132.448 998.552 132 998 132V134ZM942 134H998V132H942V134Z" fill="#E33230"/>
<path opacity="0.5" d="M1010.15 128.273V137H1008.83V129.594H1008.78L1006.69 130.957V129.696L1008.87 128.273H1010.15ZM1016.29 137V128.273H1017.6V132.065H1021.95V128.273H1023.28V137H1021.95V133.195H1017.6V137H1016.29ZM1033.01 132.636C1033.01 133.568 1032.84 134.369 1032.5 135.04C1032.16 135.707 1031.69 136.222 1031.1 136.582C1030.51 136.94 1029.84 137.119 1029.08 137.119C1028.33 137.119 1027.65 136.94 1027.06 136.582C1026.47 136.222 1026 135.706 1025.66 135.036C1025.32 134.365 1025.15 133.565 1025.15 132.636C1025.15 131.705 1025.32 130.905 1025.66 130.237C1026 129.567 1026.47 129.053 1027.06 128.695C1027.65 128.334 1028.33 128.153 1029.08 128.153C1029.84 128.153 1030.51 128.334 1031.1 128.695C1031.69 129.053 1032.16 129.567 1032.5 130.237C1032.84 130.905 1033.01 131.705 1033.01 132.636ZM1031.71 132.636C1031.71 131.926 1031.59 131.328 1031.36 130.842C1031.14 130.354 1030.82 129.984 1030.43 129.734C1030.03 129.482 1029.58 129.355 1029.08 129.355C1028.58 129.355 1028.13 129.482 1027.74 129.734C1027.34 129.984 1027.03 130.354 1026.8 130.842C1026.57 131.328 1026.46 131.926 1026.46 132.636C1026.46 133.347 1026.57 133.946 1026.8 134.435C1027.03 134.92 1027.34 135.29 1027.74 135.543C1028.13 135.793 1028.58 135.918 1029.08 135.918C1029.58 135.918 1030.03 135.793 1030.43 135.543C1030.82 135.29 1031.14 134.92 1031.36 134.435C1031.59 133.946 1031.71 133.347 1031.71 132.636ZM1040.51 128.273H1041.83V134.013C1041.83 134.624 1041.69 135.165 1041.4 135.636C1041.11 136.105 1040.71 136.474 1040.19 136.744C1039.67 137.011 1039.06 137.145 1038.36 137.145C1037.66 137.145 1037.06 137.011 1036.54 136.744C1036.02 136.474 1035.61 136.105 1035.33 135.636C1035.04 135.165 1034.9 134.624 1034.9 134.013V128.273H1036.21V133.906C1036.21 134.301 1036.3 134.652 1036.47 134.959C1036.65 135.266 1036.9 135.507 1037.22 135.683C1037.54 135.857 1037.92 135.943 1038.36 135.943C1038.8 135.943 1039.19 135.857 1039.51 135.683C1039.83 135.507 1040.08 135.266 1040.25 134.959C1040.42 134.652 1040.51 134.301 1040.51 133.906V128.273ZM1043.98 137V128.273H1047.09C1047.77 128.273 1048.33 128.389 1048.78 128.622C1049.23 128.855 1049.56 129.178 1049.78 129.589C1050 129.999 1050.12 130.472 1050.12 131.009C1050.12 131.543 1050 132.013 1049.78 132.419C1049.56 132.822 1049.22 133.136 1048.77 133.361C1048.33 133.585 1047.77 133.697 1047.09 133.697H1044.73V132.564H1046.97C1047.4 132.564 1047.74 132.503 1048.01 132.381C1048.28 132.259 1048.48 132.081 1048.6 131.848C1048.73 131.615 1048.79 131.335 1048.79 131.009C1048.79 130.679 1048.73 130.393 1048.6 130.152C1048.47 129.911 1048.28 129.726 1048.01 129.598C1047.74 129.467 1047.39 129.402 1046.95 129.402H1045.3V137H1043.98ZM1048.29 133.062L1050.45 137H1048.95L1046.83 133.062H1048.29Z" fill="#19191B"/>
<path d="M1120.33 133C1120.33 130.054 1117.95 127.667 1115 127.667C1112.05 127.667 1109.67 130.054 1109.67 133C1109.67 135.946 1112.05 138.333 1115 138.333C1117.95 138.333 1120.33 135.946 1120.33 133ZM1059 132C1058.45 132 1058 132.448 1058 133C1058 133.552 1058.45 134 1059 134L1059 132ZM1115 132L1059 132L1059 134L1115 134L1115 132Z" fill="#E33230"/>
<rect x="942" y="209" width="173" height="56" rx="28" fill="#19191B" fill-opacity="0.03"/>
<path d="M993.984 234.565C993.938 234.162 993.751 233.849 993.421 233.628C993.092 233.403 992.677 233.291 992.177 233.291C991.819 233.291 991.509 233.348 991.248 233.462C990.986 233.572 990.783 233.726 990.638 233.922C990.496 234.115 990.425 234.335 990.425 234.582C990.425 234.79 990.474 234.969 990.57 235.119C990.67 235.27 990.799 235.396 990.958 235.499C991.12 235.598 991.293 235.682 991.478 235.75C991.663 235.815 991.84 235.869 992.011 235.912L992.863 236.134C993.141 236.202 993.427 236.294 993.719 236.411C994.012 236.527 994.283 236.68 994.533 236.871C994.783 237.061 994.985 237.297 995.138 237.578C995.295 237.859 995.373 238.196 995.373 238.588C995.373 239.082 995.245 239.521 994.989 239.905C994.736 240.288 994.369 240.591 993.886 240.812C993.405 241.034 992.825 241.145 992.143 241.145C991.489 241.145 990.924 241.041 990.447 240.834C989.969 240.626 989.596 240.332 989.326 239.952C989.056 239.568 988.907 239.114 988.878 238.588H990.2C990.225 238.903 990.327 239.166 990.506 239.376C990.688 239.584 990.92 239.739 991.201 239.841C991.485 239.94 991.796 239.99 992.134 239.99C992.506 239.99 992.837 239.932 993.127 239.815C993.42 239.696 993.65 239.531 993.817 239.321C993.985 239.108 994.069 238.859 994.069 238.575C994.069 238.317 993.995 238.105 993.847 237.94C993.702 237.776 993.505 237.639 993.255 237.531C993.008 237.423 992.728 237.328 992.415 237.246L991.384 236.964C990.685 236.774 990.131 236.494 989.722 236.125C989.316 235.756 989.113 235.267 989.113 234.659C989.113 234.156 989.249 233.717 989.522 233.342C989.795 232.967 990.164 232.676 990.63 232.469C991.096 232.259 991.621 232.153 992.207 232.153C992.798 232.153 993.319 232.257 993.771 232.464C994.225 232.672 994.583 232.957 994.844 233.321C995.106 233.682 995.242 234.097 995.253 234.565H993.984ZM997.186 241V232.273H1002.66V233.406H998.503V236.065H1002.37V237.195H998.503V239.866H1002.71V241H997.186ZM1004.66 241V232.273H1010.13V233.406H1005.97V236.065H1009.84V237.195H1005.97V239.866H1010.18V241H1004.66ZM1015.54 241V232.273H1018.65C1019.33 232.273 1019.89 232.389 1020.34 232.622C1020.79 232.855 1021.12 233.178 1021.34 233.589C1021.56 233.999 1021.68 234.472 1021.68 235.009C1021.68 235.543 1021.56 236.013 1021.34 236.419C1021.12 236.822 1020.78 237.136 1020.33 237.361C1019.89 237.585 1019.33 237.697 1018.65 237.697H1016.29V236.564H1018.53C1018.96 236.564 1019.3 236.503 1019.57 236.381C1019.84 236.259 1020.04 236.081 1020.16 235.848C1020.29 235.615 1020.35 235.335 1020.35 235.009C1020.35 234.679 1020.29 234.393 1020.16 234.152C1020.03 233.911 1019.84 233.726 1019.57 233.598C1019.3 233.467 1018.95 233.402 1018.51 233.402H1016.86V241H1015.54ZM1019.85 237.062L1022.01 241H1020.51L1018.39 237.062H1019.85ZM1023.52 241V232.273H1028.99V233.406H1024.83V236.065H1028.7V237.195H1024.83V239.866H1029.04V241H1023.52ZM1035.75 234.565C1035.7 234.162 1035.51 233.849 1035.19 233.628C1034.86 233.403 1034.44 233.291 1033.94 233.291C1033.58 233.291 1033.27 233.348 1033.01 233.462C1032.75 233.572 1032.55 233.726 1032.4 233.922C1032.26 234.115 1032.19 234.335 1032.19 234.582C1032.19 234.79 1032.24 234.969 1032.33 235.119C1032.43 235.27 1032.56 235.396 1032.72 235.499C1032.88 235.598 1033.06 235.682 1033.24 235.75C1033.43 235.815 1033.6 235.869 1033.77 235.912L1034.63 236.134C1034.91 236.202 1035.19 236.294 1035.48 236.411C1035.78 236.527 1036.05 236.68 1036.3 236.871C1036.55 237.061 1036.75 237.297 1036.9 237.578C1037.06 237.859 1037.14 238.196 1037.14 238.588C1037.14 239.082 1037.01 239.521 1036.75 239.905C1036.5 240.288 1036.13 240.591 1035.65 240.812C1035.17 241.034 1034.59 241.145 1033.91 241.145C1033.25 241.145 1032.69 241.041 1032.21 240.834C1031.73 240.626 1031.36 240.332 1031.09 239.952C1030.82 239.568 1030.67 239.114 1030.64 238.588H1031.96C1031.99 238.903 1032.09 239.166 1032.27 239.376C1032.45 239.584 1032.68 239.739 1032.97 239.841C1033.25 239.94 1033.56 239.99 1033.9 239.99C1034.27 239.99 1034.6 239.932 1034.89 239.815C1035.18 239.696 1035.41 239.531 1035.58 239.321C1035.75 239.108 1035.83 238.859 1035.83 238.575C1035.83 238.317 1035.76 238.105 1035.61 237.94C1035.47 237.776 1035.27 237.639 1035.02 237.531C1034.77 237.423 1034.49 237.328 1034.18 237.246L1033.15 236.964C1032.45 236.774 1031.9 236.494 1031.49 236.125C1031.08 235.756 1030.88 235.267 1030.88 234.659C1030.88 234.156 1031.01 233.717 1031.29 233.342C1031.56 232.967 1031.93 232.676 1032.39 232.469C1032.86 232.259 1033.39 232.153 1033.97 232.153C1034.56 232.153 1035.08 232.257 1035.53 232.464C1035.99 232.672 1036.35 232.957 1036.61 233.321C1036.87 233.682 1037.01 234.097 1037.02 234.565H1035.75ZM1044.56 232.273H1045.88V238.013C1045.88 238.624 1045.74 239.165 1045.45 239.636C1045.17 240.105 1044.76 240.474 1044.24 240.744C1043.72 241.011 1043.11 241.145 1042.42 241.145C1041.72 241.145 1041.11 241.011 1040.59 240.744C1040.07 240.474 1039.67 240.105 1039.38 239.636C1039.09 239.165 1038.95 238.624 1038.95 238.013V232.273H1040.27V237.906C1040.27 238.301 1040.35 238.652 1040.53 238.959C1040.7 239.266 1040.95 239.507 1041.27 239.683C1041.59 239.857 1041.97 239.943 1042.42 239.943C1042.86 239.943 1043.24 239.857 1043.56 239.683C1043.89 239.507 1044.13 239.266 1044.3 238.959C1044.48 238.652 1044.56 238.301 1044.56 237.906V232.273ZM1048.04 241V232.273H1049.35V239.866H1053.31V241H1048.04ZM1053.48 233.406V232.273H1060.24V233.406H1057.52V241H1056.2V233.406H1053.48ZM1066.73 234.565C1066.69 234.162 1066.5 233.849 1066.17 233.628C1065.84 233.403 1065.42 233.291 1064.92 233.291C1064.57 233.291 1064.26 233.348 1064 233.462C1063.73 233.572 1063.53 233.726 1063.39 233.922C1063.24 234.115 1063.17 234.335 1063.17 234.582C1063.17 234.79 1063.22 234.969 1063.32 235.119C1063.42 235.27 1063.55 235.396 1063.71 235.499C1063.87 235.598 1064.04 235.682 1064.23 235.75C1064.41 235.815 1064.59 235.869 1064.76 235.912L1065.61 236.134C1065.89 236.202 1066.17 236.294 1066.47 236.411C1066.76 236.527 1067.03 236.68 1067.28 236.871C1067.53 237.061 1067.73 237.297 1067.89 237.578C1068.04 237.859 1068.12 238.196 1068.12 238.588C1068.12 239.082 1067.99 239.521 1067.74 239.905C1067.48 240.288 1067.12 240.591 1066.63 240.812C1066.15 241.034 1065.57 241.145 1064.89 241.145C1064.24 241.145 1063.67 241.041 1063.19 240.834C1062.72 240.626 1062.34 240.332 1062.07 239.952C1061.8 239.568 1061.65 239.114 1061.63 238.588H1062.95C1062.97 238.903 1063.07 239.166 1063.25 239.376C1063.44 239.584 1063.67 239.739 1063.95 239.841C1064.23 239.94 1064.54 239.99 1064.88 239.99C1065.25 239.99 1065.58 239.932 1065.87 239.815C1066.17 239.696 1066.4 239.531 1066.57 239.321C1066.73 239.108 1066.82 238.859 1066.82 238.575C1066.82 238.317 1066.74 238.105 1066.59 237.94C1066.45 237.776 1066.25 237.639 1066 237.531C1065.76 237.423 1065.48 237.328 1065.16 237.246L1064.13 236.964C1063.43 236.774 1062.88 236.494 1062.47 236.125C1062.06 235.756 1061.86 235.267 1061.86 234.659C1061.86 234.156 1062 233.717 1062.27 233.342C1062.54 232.967 1062.91 232.676 1063.38 232.469C1063.84 232.259 1064.37 232.153 1064.95 232.153C1065.55 232.153 1066.07 232.257 1066.52 232.464C1066.97 232.672 1067.33 232.957 1067.59 233.321C1067.85 233.682 1067.99 234.097 1068 234.565H1066.73Z" fill="#19191B"/>
<rect x="1147" y="1" width="165" height="264" rx="32" fill="#E33230"/>
<path d="M1188.17 137V128.273H1191.28C1191.96 128.273 1192.53 128.396 1192.97 128.643C1193.42 128.891 1193.75 129.229 1193.97 129.658C1194.19 130.084 1194.3 130.564 1194.3 131.098C1194.3 131.635 1194.19 132.118 1193.97 132.547C1193.75 132.973 1193.41 133.311 1192.96 133.561C1192.52 133.808 1191.96 133.932 1191.28 133.932H1189.14V132.815H1191.16C1191.59 132.815 1191.94 132.741 1192.2 132.594C1192.47 132.443 1192.67 132.239 1192.79 131.98C1192.92 131.722 1192.98 131.428 1192.98 131.098C1192.98 130.768 1192.92 130.476 1192.79 130.22C1192.67 129.964 1192.47 129.764 1192.2 129.619C1191.93 129.474 1191.58 129.402 1191.14 129.402H1189.49V137H1188.17ZM1195.9 137H1194.5L1197.64 128.273H1199.16L1202.3 137H1200.91L1198.44 129.858H1198.37L1195.9 137ZM1196.13 133.582H1200.67V134.69H1196.13V133.582ZM1203.81 137V128.273H1206.92C1207.59 128.273 1208.15 128.389 1208.6 128.622C1209.05 128.855 1209.38 129.178 1209.6 129.589C1209.83 129.999 1209.94 130.472 1209.94 131.009C1209.94 131.543 1209.83 132.013 1209.6 132.419C1209.38 132.822 1209.04 133.136 1208.59 133.361C1208.15 133.585 1207.59 133.697 1206.91 133.697H1204.56V132.564H1206.79C1207.22 132.564 1207.57 132.503 1207.83 132.381C1208.1 132.259 1208.3 132.081 1208.42 131.848C1208.55 131.615 1208.61 131.335 1208.61 131.009C1208.61 130.679 1208.55 130.393 1208.42 130.152C1208.3 129.911 1208.1 129.726 1207.83 129.598C1207.56 129.467 1207.21 129.402 1206.78 129.402H1205.12V137H1203.81ZM1208.11 133.062L1210.27 137H1208.77L1206.66 133.062H1208.11ZM1211.35 129.406V128.273H1218.1V129.406H1215.38V137H1214.07V129.406H1211.35ZM1226.88 128.273V137H1225.67L1221.23 130.599H1221.15V137H1219.84V128.273H1221.05L1225.5 134.682H1225.58V128.273H1226.88ZM1229.04 137V128.273H1234.51V129.406H1230.36V132.065H1234.23V133.195H1230.36V135.866H1234.56V137H1229.04ZM1236.51 137V128.273H1239.62C1240.3 128.273 1240.86 128.389 1241.31 128.622C1241.75 128.855 1242.09 129.178 1242.31 129.589C1242.53 129.999 1242.64 130.472 1242.64 131.009C1242.64 131.543 1242.53 132.013 1242.31 132.419C1242.09 132.822 1241.75 133.136 1241.3 133.361C1240.86 133.585 1240.29 133.697 1239.62 133.697H1237.26V132.564H1239.5C1239.92 132.564 1240.27 132.503 1240.54 132.381C1240.81 132.259 1241.01 132.081 1241.13 131.848C1241.26 131.615 1241.32 131.335 1241.32 131.009C1241.32 130.679 1241.25 130.393 1241.13 130.152C1241 129.911 1240.8 129.726 1240.53 129.598C1240.27 129.467 1239.92 129.402 1239.48 129.402H1237.83V137H1236.51ZM1240.82 133.062L1242.98 137H1241.48L1239.36 133.062H1240.82ZM1249.25 130.565C1249.2 130.162 1249.01 129.849 1248.68 129.628C1248.35 129.403 1247.94 129.291 1247.44 129.291C1247.08 129.291 1246.77 129.348 1246.51 129.462C1246.25 129.572 1246.05 129.726 1245.9 129.922C1245.76 130.115 1245.69 130.335 1245.69 130.582C1245.69 130.79 1245.74 130.969 1245.83 131.119C1245.93 131.27 1246.06 131.396 1246.22 131.499C1246.38 131.598 1246.56 131.682 1246.74 131.75C1246.92 131.815 1247.1 131.869 1247.27 131.912L1248.12 132.134C1248.4 132.202 1248.69 132.294 1248.98 132.411C1249.27 132.527 1249.55 132.68 1249.8 132.871C1250.05 133.061 1250.25 133.297 1250.4 133.578C1250.56 133.859 1250.63 134.196 1250.63 134.588C1250.63 135.082 1250.51 135.521 1250.25 135.905C1250 136.288 1249.63 136.591 1249.15 136.812C1248.67 137.034 1248.09 137.145 1247.4 137.145C1246.75 137.145 1246.19 137.041 1245.71 136.834C1245.23 136.626 1244.86 136.332 1244.59 135.952C1244.32 135.568 1244.17 135.114 1244.14 134.588H1245.46C1245.49 134.903 1245.59 135.166 1245.77 135.376C1245.95 135.584 1246.18 135.739 1246.46 135.841C1246.75 135.94 1247.06 135.99 1247.4 135.99C1247.77 135.99 1248.1 135.932 1248.39 135.815C1248.68 135.696 1248.91 135.531 1249.08 135.321C1249.25 135.108 1249.33 134.859 1249.33 134.575C1249.33 134.317 1249.26 134.105 1249.11 133.94C1248.96 133.776 1248.77 133.639 1248.52 133.531C1248.27 133.423 1247.99 133.328 1247.68 133.246L1246.65 132.964C1245.95 132.774 1245.39 132.494 1244.98 132.125C1244.58 131.756 1244.37 131.267 1244.37 130.659C1244.37 130.156 1244.51 129.717 1244.78 129.342C1245.06 128.967 1245.43 128.676 1245.89 128.469C1246.36 128.259 1246.88 128.153 1247.47 128.153C1248.06 128.153 1248.58 128.257 1249.03 128.464C1249.49 128.672 1249.85 128.957 1250.11 129.321C1250.37 129.682 1250.5 130.097 1250.52 130.565H1249.25ZM1252.45 137V128.273H1253.77V132.065H1258.12V128.273H1259.44V137H1258.12V133.195H1253.77V137H1252.45ZM1262.91 128.273V137H1261.59V128.273H1262.91ZM1265.07 137V128.273H1268.18C1268.86 128.273 1269.42 128.396 1269.87 128.643C1270.31 128.891 1270.65 129.229 1270.87 129.658C1271.09 130.084 1271.2 130.564 1271.2 131.098C1271.2 131.635 1271.09 132.118 1270.86 132.547C1270.64 132.973 1270.31 133.311 1269.86 133.561C1269.41 133.808 1268.85 133.932 1268.18 133.932H1266.04V132.815H1268.06C1268.49 132.815 1268.83 132.741 1269.1 132.594C1269.37 132.443 1269.56 132.239 1269.69 131.98C1269.81 131.722 1269.88 131.428 1269.88 131.098C1269.88 130.768 1269.81 130.476 1269.69 130.22C1269.56 129.964 1269.37 129.764 1269.1 129.619C1268.83 129.474 1268.48 129.402 1268.04 129.402H1266.39V137H1265.07Z" fill="white"/>
<defs>
<linearGradient id="paint0_linear_380_12468" x1="80.5" y1="1" x2="80.5" y2="265" gradientUnits="userSpaceOnUse">
<stop stop-color="white" stop-opacity="0"/>
<stop offset="0.5" stop-color="#DADADA" stop-opacity="0.7"/>
<stop offset="1" stop-color="white" stop-opacity="0"/>
</linearGradient>
<linearGradient id="paint1_linear_380_12468" x1="253.5" y1="1" x2="253.5" y2="265" gradientUnits="userSpaceOnUse">
<stop stop-color="white" stop-opacity="0"/>
<stop offset="0.5" stop-color="#DADADA" stop-opacity="0.7"/>
<stop offset="1" stop-color="white" stop-opacity="0"/>
</linearGradient>
<linearGradient id="paint2_linear_380_12468" x1="909.5" y1="1" x2="909.5" y2="265" gradientUnits="userSpaceOnUse">
<stop stop-color="white" stop-opacity="0"/>
<stop offset="0.5" stop-color="#DADADA" stop-opacity="0.7"/>
<stop offset="1" stop-color="white" stop-opacity="0"/>
</linearGradient>
<linearGradient id="paint3_linear_380_12468" x1="285.5" y1="1" x2="285.5" y2="265" gradientUnits="userSpaceOnUse">
<stop stop-color="white" stop-opacity="0"/>
<stop offset="0.5" stop-color="#DADADA" stop-opacity="0.7"/>
<stop offset="1" stop-color="white" stop-opacity="0"/>
</linearGradient>
<linearGradient id="paint4_linear_380_12468" x1="286" y1="133.5" x2="568" y2="133.5" gradientUnits="userSpaceOnUse">
<stop stop-color="#DADADA"/>
<stop offset="1" stop-color="#DF7E7D"/>
</linearGradient>
<linearGradient id="paint5_linear_380_12468" x1="282.182" y1="133" x2="910" y2="132.405" gradientUnits="userSpaceOnUse">
<stop stop-color="#DADADA"/>
<stop offset="1" stop-color="#E33230"/>
</linearGradient>
<linearGradient id="paint6_linear_380_12468" x1="1114.5" y1="1" x2="1114.5" y2="265" gradientUnits="userSpaceOnUse">
<stop stop-color="white" stop-opacity="0"/>
<stop offset="0.5" stop-color="#DADADA" stop-opacity="0.7"/>
<stop offset="1" stop-color="white" stop-opacity="0"/>
</linearGradient>
<linearGradient id="paint7_linear_380_12468" x1="941.5" y1="1" x2="941.5" y2="265" gradientUnits="userSpaceOnUse">
<stop stop-color="white" stop-opacity="0"/>
<stop offset="0.5" stop-color="#DADADA" stop-opacity="0.7"/>
<stop offset="1" stop-color="white" stop-opacity="0"/>
</linearGradient>
</defs>
</svg>
