<svg width="960" height="266" viewBox="0 0 960 266" fill="none" xmlns="http://www.w3.org/2000/svg">
<path d="M6.87029 27.0298C6.7879 26.7713 6.67711 26.5398 6.5379 26.3352C6.40154 26.1278 6.23819 25.9517 6.04785 25.8068C5.85751 25.6591 5.64018 25.5469 5.39586 25.4702C5.15438 25.3935 4.88876 25.3551 4.59898 25.3551C4.10751 25.3551 3.66432 25.4815 3.26944 25.7344C2.87455 25.9872 2.56205 26.358 2.33194 26.8466C2.10467 27.3324 1.99103 27.9276 1.99103 28.6321C1.99103 29.3395 2.10609 29.9375 2.3362 30.4261C2.56631 30.9148 2.88165 31.2855 3.28222 31.5384C3.68279 31.7912 4.13876 31.9176 4.65012 31.9176C5.12455 31.9176 5.5379 31.821 5.89018 31.6278C6.24529 31.4347 6.51944 31.1619 6.71262 30.8097C6.90864 30.4545 7.00665 30.0369 7.00665 29.5568L7.34756 29.6207H4.8504V28.5341H8.2808V29.527C8.2808 30.2599 8.12455 30.8963 7.81205 31.4361C7.50239 31.973 7.07342 32.3878 6.52512 32.6804C5.97967 32.973 5.35467 33.1193 4.65012 33.1193C3.86035 33.1193 3.16717 32.9375 2.57057 32.5739C1.97682 32.2102 1.51376 31.6946 1.18137 31.027C0.848984 30.3565 0.682791 29.5611 0.682791 28.6406C0.682791 27.9446 0.779382 27.3196 0.972563 26.7656C1.16575 26.2116 1.43705 25.7415 1.78648 25.3551C2.13876 24.9659 2.55211 24.669 3.02654 24.4645C3.50381 24.2571 4.02512 24.1534 4.59046 24.1534C5.06205 24.1534 5.50097 24.223 5.90722 24.3622C6.31631 24.5014 6.67995 24.6989 6.99813 24.9545C7.31915 25.2102 7.58478 25.5142 7.79501 25.8665C8.00523 26.2159 8.14728 26.6037 8.22114 27.0298H6.87029ZM10.1923 33V24.2727H11.5091V31.8665H15.4636V33H10.1923ZM24.4469 28.6364C24.4469 29.5682 24.2764 30.3693 23.9355 31.0398C23.5946 31.7074 23.1273 32.2216 22.5335 32.5824C21.9426 32.9403 21.2707 33.1193 20.5179 33.1193C19.7622 33.1193 19.0875 32.9403 18.4938 32.5824C17.9028 32.2216 17.4369 31.706 17.096 31.0355C16.7551 30.3651 16.5847 29.5653 16.5847 28.6364C16.5847 27.7045 16.7551 26.9048 17.096 26.2372C17.4369 25.5668 17.9028 25.0526 18.4938 24.6946C19.0875 24.3338 19.7622 24.1534 20.5179 24.1534C21.2707 24.1534 21.9426 24.3338 22.5335 24.6946C23.1273 25.0526 23.5946 25.5668 23.9355 26.2372C24.2764 26.9048 24.4469 27.7045 24.4469 28.6364ZM23.1429 28.6364C23.1429 27.9261 23.0278 27.3281 22.7977 26.8423C22.5705 26.3537 22.258 25.9844 21.8602 25.7344C21.4653 25.4815 21.0179 25.3551 20.5179 25.3551C20.0151 25.3551 19.5662 25.4815 19.1713 25.7344C18.7764 25.9844 18.4639 26.3537 18.2338 26.8423C18.0065 27.3281 17.8929 27.9261 17.8929 28.6364C17.8929 29.3466 18.0065 29.946 18.2338 30.4347C18.4639 30.9205 18.7764 31.2898 19.1713 31.5426C19.5662 31.7926 20.0151 31.9176 20.5179 31.9176C21.0179 31.9176 21.4653 31.7926 21.8602 31.5426C22.258 31.2898 22.5705 30.9205 22.7977 30.4347C23.0278 29.946 23.1429 29.3466 23.1429 28.6364ZM27.9319 33L25.5115 24.2727H26.8964L28.5967 31.0312H28.6776L30.4461 24.2727H31.8183L33.5867 31.0355H33.6677L35.3637 24.2727H36.7529L34.3282 33H33.0029L31.1663 26.4631H31.0981L29.2615 33H27.9319Z" fill="#19191B"/>
<path d="M0.62559 232.273H2.12133L4.40116 236.24H4.49491L6.77474 232.273H8.27048L5.10428 237.574V241H3.79178V237.574L0.62559 232.273ZM16.8894 236.636C16.8894 237.568 16.7189 238.369 16.378 239.04C16.0371 239.707 15.5698 240.222 14.976 240.582C14.3851 240.94 13.7132 241.119 12.9604 241.119C12.2047 241.119 11.53 240.94 10.9363 240.582C10.3453 240.222 9.87944 239.706 9.53853 239.036C9.19762 238.365 9.02717 237.565 9.02717 236.636C9.02717 235.705 9.19762 234.905 9.53853 234.237C9.87944 233.567 10.3453 233.053 10.9363 232.695C11.53 232.334 12.2047 232.153 12.9604 232.153C13.7132 232.153 14.3851 232.334 14.976 232.695C15.5698 233.053 16.0371 233.567 16.378 234.237C16.7189 234.905 16.8894 235.705 16.8894 236.636ZM15.5854 236.636C15.5854 235.926 15.4703 235.328 15.2402 234.842C15.013 234.354 14.7005 233.984 14.3027 233.734C13.9078 233.482 13.4604 233.355 12.9604 233.355C12.4576 233.355 12.0087 233.482 11.6138 233.734C11.2189 233.984 10.9064 234.354 10.6763 234.842C10.449 235.328 10.3354 235.926 10.3354 236.636C10.3354 237.347 10.449 237.946 10.6763 238.435C10.9064 238.92 11.2189 239.29 11.6138 239.543C12.0087 239.793 12.4576 239.918 12.9604 239.918C13.4604 239.918 13.9078 239.793 14.3027 239.543C14.7005 239.29 15.013 238.92 15.2402 238.435C15.4703 237.946 15.5854 237.347 15.5854 236.636ZM24.3833 232.273H25.7043V238.013C25.7043 238.624 25.5608 239.165 25.2739 239.636C24.987 240.105 24.5836 240.474 24.0637 240.744C23.5438 241.011 22.9344 241.145 22.2356 241.145C21.5395 241.145 20.9316 241.011 20.4117 240.744C19.8918 240.474 19.4884 240.105 19.2015 239.636C18.9145 239.165 18.7711 238.624 18.7711 238.013V232.273H20.0878V237.906C20.0878 238.301 20.1745 238.652 20.3478 238.959C20.5239 239.266 20.7725 239.507 21.0935 239.683C21.4145 239.857 21.7952 239.943 22.2356 239.943C22.6787 239.943 23.0608 239.857 23.3819 239.683C23.7057 239.507 23.9529 239.266 24.1233 238.959C24.2966 238.652 24.3833 238.301 24.3833 237.906V232.273Z" fill="#19191B"/>
<path d="M65 1L65 265" stroke="url(#paint0_linear_380_13661)" stroke-linecap="round"/>
<rect x="65" y="1" width="141" height="56" rx="28" fill="#19191B"/>
<path d="M90.177 33V24.2727H91.4938V28.4403H91.6003L95.2608 24.2727H96.9185L93.3986 28.2017L96.9313 33H95.346L92.525 29.1009L91.4938 30.2855V33H90.177ZM99.7025 24.2727V33H98.3858V24.2727H99.7025ZM109.109 27.1108H107.779C107.728 26.8267 107.633 26.5767 107.494 26.3608C107.354 26.1449 107.184 25.9616 106.982 25.8111C106.781 25.6605 106.555 25.5469 106.305 25.4702C106.058 25.3935 105.795 25.3551 105.516 25.3551C105.014 25.3551 104.563 25.4815 104.166 25.7344C103.771 25.9872 103.458 26.358 103.228 26.8466C103.001 27.3352 102.887 27.9318 102.887 28.6364C102.887 29.3466 103.001 29.946 103.228 30.4347C103.458 30.9233 103.772 31.2926 104.17 31.5426C104.568 31.7926 105.015 31.9176 105.512 31.9176C105.788 31.9176 106.049 31.8807 106.296 31.8068C106.546 31.7301 106.772 31.6179 106.974 31.4702C107.175 31.3224 107.346 31.142 107.485 30.929C107.627 30.7131 107.725 30.4659 107.779 30.1875L109.109 30.1918C109.038 30.6207 108.9 31.0156 108.695 31.3764C108.494 31.7344 108.234 32.044 107.916 32.3054C107.6 32.5639 107.239 32.7642 106.833 32.9062C106.427 33.0483 105.984 33.1193 105.504 33.1193C104.748 33.1193 104.075 32.9403 103.484 32.5824C102.893 32.2216 102.427 31.706 102.086 31.0355C101.748 30.3651 101.579 29.5653 101.579 28.6364C101.579 27.7045 101.749 26.9048 102.09 26.2372C102.431 25.5668 102.897 25.0526 103.488 24.6946C104.079 24.3338 104.751 24.1534 105.504 24.1534C105.967 24.1534 106.398 24.2202 106.799 24.3537C107.202 24.4844 107.565 24.6776 107.886 24.9332C108.207 25.1861 108.472 25.4957 108.683 25.8622C108.893 26.2259 109.035 26.642 109.109 27.1108ZM110.924 33V24.2727H112.241V28.4403H112.348L116.008 24.2727H117.666L114.146 28.2017L117.679 33H116.093L113.272 29.1009L112.241 30.2855V33H110.924ZM121.844 28.0824V29.1903H117.975V28.0824H121.844ZM131.466 28.6364C131.466 29.5682 131.295 30.3693 130.954 31.0398C130.614 31.7074 130.146 32.2216 129.552 32.5824C128.962 32.9403 128.29 33.1193 127.537 33.1193C126.781 33.1193 126.106 32.9403 125.513 32.5824C124.922 32.2216 124.456 31.706 124.115 31.0355C123.774 30.3651 123.604 29.5653 123.604 28.6364C123.604 27.7045 123.774 26.9048 124.115 26.2372C124.456 25.5668 124.922 25.0526 125.513 24.6946C126.106 24.3338 126.781 24.1534 127.537 24.1534C128.29 24.1534 128.962 24.3338 129.552 24.6946C130.146 25.0526 130.614 25.5668 130.954 26.2372C131.295 26.9048 131.466 27.7045 131.466 28.6364ZM130.162 28.6364C130.162 27.9261 130.047 27.3281 129.817 26.8423C129.589 26.3537 129.277 25.9844 128.879 25.7344C128.484 25.4815 128.037 25.3551 127.537 25.3551C127.034 25.3551 126.585 25.4815 126.19 25.7344C125.795 25.9844 125.483 26.3537 125.253 26.8423C125.025 27.3281 124.912 27.9261 124.912 28.6364C124.912 29.3466 125.025 29.946 125.253 30.4347C125.483 30.9205 125.795 31.2898 126.19 31.5426C126.585 31.7926 127.034 31.9176 127.537 31.9176C128.037 31.9176 128.484 31.7926 128.879 31.5426C129.277 31.2898 129.589 30.9205 129.817 30.4347C130.047 29.946 130.162 29.3466 130.162 28.6364ZM133.347 33V24.2727H138.759V25.4062H134.664V28.0653H138.372V29.1946H134.664V33H133.347ZM140.619 33V24.2727H146.031V25.4062H141.935V28.0653H145.643V29.1946H141.935V33H140.619ZM158.554 27.1108H157.225C157.174 26.8267 157.078 26.5767 156.939 26.3608C156.8 26.1449 156.63 25.9616 156.428 25.8111C156.226 25.6605 156 25.5469 155.75 25.4702C155.503 25.3935 155.24 25.3551 154.962 25.3551C154.459 25.3551 154.009 25.4815 153.611 25.7344C153.216 25.9872 152.904 26.358 152.674 26.8466C152.446 27.3352 152.333 27.9318 152.333 28.6364C152.333 29.3466 152.446 29.946 152.674 30.4347C152.904 30.9233 153.218 31.2926 153.615 31.5426C154.013 31.7926 154.461 31.9176 154.958 31.9176C155.233 31.9176 155.495 31.8807 155.742 31.8068C155.992 31.7301 156.218 31.6179 156.419 31.4702C156.621 31.3224 156.792 31.142 156.931 30.929C157.073 30.7131 157.171 30.4659 157.225 30.1875L158.554 30.1918C158.483 30.6207 158.346 31.0156 158.141 31.3764C157.939 31.7344 157.679 32.044 157.361 32.3054C157.046 32.5639 156.685 32.7642 156.279 32.9062C155.873 33.0483 155.429 33.1193 154.949 33.1193C154.194 33.1193 153.52 32.9403 152.929 32.5824C152.338 32.2216 151.873 31.706 151.532 31.0355C151.194 30.3651 151.025 29.5653 151.025 28.6364C151.025 27.7045 151.195 26.9048 151.536 26.2372C151.877 25.5668 152.343 25.0526 152.934 24.6946C153.525 24.3338 154.196 24.1534 154.949 24.1534C155.412 24.1534 155.844 24.2202 156.245 24.3537C156.648 24.4844 157.01 24.6776 157.331 24.9332C157.652 25.1861 157.918 25.4957 158.128 25.8622C158.338 26.2259 158.48 26.642 158.554 27.1108ZM161.049 33H159.651L162.792 24.2727H164.313L167.453 33H166.056L163.588 25.858H163.52L161.049 33ZM161.283 29.5824H165.817V30.6903H161.283V29.5824ZM168.954 33V24.2727H170.27V31.8665H174.225V33H168.954ZM175.967 33V24.2727H177.284V31.8665H181.238V33H175.967Z" fill="white"/>
<path d="M59.6667 133C59.6667 135.946 62.0545 138.333 65 138.333C67.9455 138.333 70.3333 135.946 70.3333 133C70.3333 130.054 67.9455 127.667 65 127.667C62.0545 127.667 59.6667 130.054 59.6667 133ZM105 134C105.552 134 106 133.552 106 133C106 132.448 105.552 132 105 132V134ZM65 134H105V132H65V134Z" fill="#DADADA"/>
<path opacity="0.5" d="M117.151 128.273V137H115.83V129.594H115.778L113.69 130.957V129.696L115.868 128.273H117.151ZM123.286 137V128.273H124.603V132.065H128.954V128.273H130.275V137H128.954V133.195H124.603V137H123.286ZM140.014 132.636C140.014 133.568 139.843 134.369 139.502 135.04C139.161 135.707 138.694 136.222 138.1 136.582C137.509 136.94 136.838 137.119 136.085 137.119C135.329 137.119 134.654 136.94 134.061 136.582C133.47 136.222 133.004 135.706 132.663 135.036C132.322 134.365 132.151 133.565 132.151 132.636C132.151 131.705 132.322 130.905 132.663 130.237C133.004 129.567 133.47 129.053 134.061 128.695C134.654 128.334 135.329 128.153 136.085 128.153C136.838 128.153 137.509 128.334 138.1 128.695C138.694 129.053 139.161 129.567 139.502 130.237C139.843 130.905 140.014 131.705 140.014 132.636ZM138.71 132.636C138.71 131.926 138.595 131.328 138.365 130.842C138.137 130.354 137.825 129.984 137.427 129.734C137.032 129.482 136.585 129.355 136.085 129.355C135.582 129.355 135.133 129.482 134.738 129.734C134.343 129.984 134.031 130.354 133.801 130.842C133.573 131.328 133.46 131.926 133.46 132.636C133.46 133.347 133.573 133.946 133.801 134.435C134.031 134.92 134.343 135.29 134.738 135.543C135.133 135.793 135.582 135.918 136.085 135.918C136.585 135.918 137.032 135.793 137.427 135.543C137.825 135.29 138.137 134.92 138.365 134.435C138.595 133.946 138.71 133.347 138.71 132.636ZM147.508 128.273H148.829V134.013C148.829 134.624 148.685 135.165 148.398 135.636C148.111 136.105 147.708 136.474 147.188 136.744C146.668 137.011 146.059 137.145 145.36 137.145C144.664 137.145 144.056 137.011 143.536 136.744C143.016 136.474 142.613 136.105 142.326 135.636C142.039 135.165 141.895 134.624 141.895 134.013V128.273H143.212V133.906C143.212 134.301 143.299 134.652 143.472 134.959C143.648 135.266 143.897 135.507 144.218 135.683C144.539 135.857 144.92 135.943 145.36 135.943C145.803 135.943 146.185 135.857 146.506 135.683C146.83 135.507 147.077 135.266 147.248 134.959C147.421 134.652 147.508 134.301 147.508 133.906V128.273ZM150.983 137V128.273H154.094C154.77 128.273 155.331 128.389 155.777 128.622C156.226 128.855 156.561 129.178 156.783 129.589C157.004 129.999 157.115 130.472 157.115 131.009C157.115 131.543 157.003 132.013 156.778 132.419C156.557 132.822 156.222 133.136 155.773 133.361C155.327 133.585 154.766 133.697 154.09 133.697H151.733V132.564H153.97C154.396 132.564 154.743 132.503 155.01 132.381C155.28 132.259 155.477 132.081 155.602 131.848C155.727 131.615 155.79 131.335 155.79 131.009C155.79 130.679 155.726 130.393 155.598 130.152C155.473 129.911 155.276 129.726 155.006 129.598C154.739 129.467 154.388 129.402 153.953 129.402H152.3V137H150.983ZM155.291 133.062L157.448 137H155.948L153.834 133.062H155.291Z" fill="#19191B"/>
<path d="M211.333 133C211.333 130.054 208.946 127.667 206 127.667C203.054 127.667 200.667 130.054 200.667 133C200.667 135.946 203.054 138.333 206 138.333C208.946 138.333 211.333 135.946 211.333 133ZM166 132C165.448 132 165 132.448 165 133C165 133.552 165.448 134 166 134L166 132ZM206 132L166 132L166 134L206 134L206 132Z" fill="#DADADA"/>
<rect x="65" y="209" width="141" height="56" rx="28" fill="#19191B" fill-opacity="0.03"/>
<path d="M90.177 241V232.273H91.4938V236.44H91.6003L95.2608 232.273H96.9185L93.3986 236.202L96.9313 241H95.346L92.525 237.101L91.4938 238.286V241H90.177ZM99.7025 232.273V241H98.3858V232.273H99.7025ZM109.109 235.111H107.779C107.728 234.827 107.633 234.577 107.494 234.361C107.354 234.145 107.184 233.962 106.982 233.811C106.781 233.661 106.555 233.547 106.305 233.47C106.058 233.393 105.795 233.355 105.516 233.355C105.014 233.355 104.563 233.482 104.166 233.734C103.771 233.987 103.458 234.358 103.228 234.847C103.001 235.335 102.887 235.932 102.887 236.636C102.887 237.347 103.001 237.946 103.228 238.435C103.458 238.923 103.772 239.293 104.17 239.543C104.568 239.793 105.015 239.918 105.512 239.918C105.788 239.918 106.049 239.881 106.296 239.807C106.546 239.73 106.772 239.618 106.974 239.47C107.175 239.322 107.346 239.142 107.485 238.929C107.627 238.713 107.725 238.466 107.779 238.188L109.109 238.192C109.038 238.621 108.9 239.016 108.695 239.376C108.494 239.734 108.234 240.044 107.916 240.305C107.6 240.564 107.239 240.764 106.833 240.906C106.427 241.048 105.984 241.119 105.504 241.119C104.748 241.119 104.075 240.94 103.484 240.582C102.893 240.222 102.427 239.706 102.086 239.036C101.748 238.365 101.579 237.565 101.579 236.636C101.579 235.705 101.749 234.905 102.09 234.237C102.431 233.567 102.897 233.053 103.488 232.695C104.079 232.334 104.751 232.153 105.504 232.153C105.967 232.153 106.398 232.22 106.799 232.354C107.202 232.484 107.565 232.678 107.886 232.933C108.207 233.186 108.472 233.496 108.683 233.862C108.893 234.226 109.035 234.642 109.109 235.111ZM110.924 241V232.273H112.241V236.44H112.348L116.008 232.273H117.666L114.146 236.202L117.679 241H116.093L113.272 237.101L112.241 238.286V241H110.924ZM121.844 236.082V237.19H117.975V236.082H121.844ZM131.466 236.636C131.466 237.568 131.295 238.369 130.954 239.04C130.614 239.707 130.146 240.222 129.552 240.582C128.962 240.94 128.29 241.119 127.537 241.119C126.781 241.119 126.106 240.94 125.513 240.582C124.922 240.222 124.456 239.706 124.115 239.036C123.774 238.365 123.604 237.565 123.604 236.636C123.604 235.705 123.774 234.905 124.115 234.237C124.456 233.567 124.922 233.053 125.513 232.695C126.106 232.334 126.781 232.153 127.537 232.153C128.29 232.153 128.962 232.334 129.552 232.695C130.146 233.053 130.614 233.567 130.954 234.237C131.295 234.905 131.466 235.705 131.466 236.636ZM130.162 236.636C130.162 235.926 130.047 235.328 129.817 234.842C129.589 234.354 129.277 233.984 128.879 233.734C128.484 233.482 128.037 233.355 127.537 233.355C127.034 233.355 126.585 233.482 126.19 233.734C125.795 233.984 125.483 234.354 125.253 234.842C125.025 235.328 124.912 235.926 124.912 236.636C124.912 237.347 125.025 237.946 125.253 238.435C125.483 238.92 125.795 239.29 126.19 239.543C126.585 239.793 127.034 239.918 127.537 239.918C128.037 239.918 128.484 239.793 128.879 239.543C129.277 239.29 129.589 238.92 129.817 238.435C130.047 237.946 130.162 237.347 130.162 236.636ZM133.347 241V232.273H138.759V233.406H134.664V236.065H138.372V237.195H134.664V241H133.347ZM140.619 241V232.273H146.031V233.406H141.935V236.065H145.643V237.195H141.935V241H140.619ZM158.554 235.111H157.225C157.174 234.827 157.078 234.577 156.939 234.361C156.8 234.145 156.63 233.962 156.428 233.811C156.226 233.661 156 233.547 155.75 233.47C155.503 233.393 155.24 233.355 154.962 233.355C154.459 233.355 154.009 233.482 153.611 233.734C153.216 233.987 152.904 234.358 152.674 234.847C152.446 235.335 152.333 235.932 152.333 236.636C152.333 237.347 152.446 237.946 152.674 238.435C152.904 238.923 153.218 239.293 153.615 239.543C154.013 239.793 154.461 239.918 154.958 239.918C155.233 239.918 155.495 239.881 155.742 239.807C155.992 239.73 156.218 239.618 156.419 239.47C156.621 239.322 156.792 239.142 156.931 238.929C157.073 238.713 157.171 238.466 157.225 238.188L158.554 238.192C158.483 238.621 158.346 239.016 158.141 239.376C157.939 239.734 157.679 240.044 157.361 240.305C157.046 240.564 156.685 240.764 156.279 240.906C155.873 241.048 155.429 241.119 154.949 241.119C154.194 241.119 153.52 240.94 152.929 240.582C152.338 240.222 151.873 239.706 151.532 239.036C151.194 238.365 151.025 237.565 151.025 236.636C151.025 235.705 151.195 234.905 151.536 234.237C151.877 233.567 152.343 233.053 152.934 232.695C153.525 232.334 154.196 232.153 154.949 232.153C155.412 232.153 155.844 232.22 156.245 232.354C156.648 232.484 157.01 232.678 157.331 232.933C157.652 233.186 157.918 233.496 158.128 233.862C158.338 234.226 158.48 234.642 158.554 235.111ZM161.049 241H159.651L162.792 232.273H164.313L167.453 241H166.056L163.588 233.858H163.52L161.049 241ZM161.283 237.582H165.817V238.69H161.283V237.582ZM168.954 241V232.273H170.27V239.866H174.225V241H168.954ZM175.967 241V232.273H177.284V239.866H181.238V241H175.967Z" fill="#19191B"/>
<path d="M206 1L206 265" stroke="url(#paint1_linear_380_13661)" stroke-linecap="round"/>
<path d="M654 1L654 265" stroke="url(#paint2_linear_380_13661)" stroke-linecap="round"/>
<path d="M222 1L222 265" stroke="url(#paint3_linear_380_13661)" stroke-linecap="round"/>
<rect x="222" y="1" width="114" height="56" rx="28" fill="#19191B"/>
<path d="M247.226 33V24.2727H250.337C251.013 24.2727 251.574 24.3892 252.02 24.6222C252.469 24.8551 252.804 25.1776 253.026 25.5895C253.248 25.9986 253.358 26.4716 253.358 27.0085C253.358 27.5426 253.246 28.0128 253.022 28.419C252.8 28.8224 252.465 29.1364 252.016 29.3608C251.57 29.5852 251.009 29.6974 250.333 29.6974H247.976V28.5639H250.213C250.64 28.5639 250.986 28.5028 251.253 28.3807C251.523 28.2585 251.721 28.081 251.846 27.848C251.971 27.6151 252.033 27.3352 252.033 27.0085C252.033 26.679 251.969 26.3935 251.841 26.152C251.716 25.9105 251.519 25.7259 251.249 25.598C250.982 25.4673 250.631 25.402 250.196 25.402H248.543V33H247.226ZM251.534 29.0625L253.691 33H252.191L250.077 29.0625H251.534ZM255.201 33V24.2727H260.672V25.4062H256.517V28.0653H260.387V29.1946H256.517V31.8665H260.723V33H255.201ZM267.431 26.5653C267.386 26.1619 267.198 25.8494 266.869 25.6278C266.539 25.4034 266.124 25.2912 265.624 25.2912C265.266 25.2912 264.957 25.348 264.695 25.4616C264.434 25.5724 264.231 25.7259 264.086 25.9219C263.944 26.1151 263.873 26.3352 263.873 26.5824C263.873 26.7898 263.921 26.9687 264.018 27.1193C264.117 27.2699 264.246 27.3963 264.405 27.4986C264.567 27.598 264.741 27.6818 264.925 27.75C265.11 27.8153 265.288 27.8693 265.458 27.9119L266.31 28.1335C266.589 28.2017 266.874 28.294 267.167 28.4105C267.459 28.527 267.731 28.6804 267.981 28.8707C268.231 29.0611 268.432 29.2969 268.586 29.5781C268.742 29.8594 268.82 30.196 268.82 30.5881C268.82 31.0824 268.692 31.5213 268.437 31.9048C268.184 32.2884 267.816 32.5909 267.333 32.8125C266.853 33.0341 266.272 33.1449 265.59 33.1449C264.937 33.1449 264.371 33.0412 263.894 32.8338C263.417 32.6264 263.043 32.3324 262.773 31.9517C262.503 31.5682 262.354 31.1136 262.326 30.5881H263.647C263.672 30.9034 263.775 31.1662 263.954 31.3764C264.136 31.5838 264.367 31.7386 264.648 31.8409C264.932 31.9403 265.244 31.9901 265.582 31.9901C265.954 31.9901 266.285 31.9318 266.574 31.8153C266.867 31.696 267.097 31.5312 267.265 31.321C267.432 31.108 267.516 30.8594 267.516 30.5753C267.516 30.3168 267.442 30.1051 267.295 29.9403C267.15 29.7756 266.952 29.6392 266.702 29.5312C266.455 29.4233 266.175 29.3281 265.863 29.2457L264.832 28.9645C264.133 28.7741 263.579 28.4943 263.17 28.125C262.763 27.7557 262.56 27.267 262.56 26.6591C262.56 26.1562 262.697 25.7173 262.969 25.3423C263.242 24.9673 263.611 24.6761 264.077 24.4688C264.543 24.2585 265.069 24.1534 265.654 24.1534C266.245 24.1534 266.766 24.2571 267.218 24.4645C267.672 24.6719 268.03 24.9574 268.292 25.321C268.553 25.6818 268.69 26.0966 268.701 26.5653H267.431ZM270.634 33V24.2727H276.105V25.4062H271.95V28.0653H275.82V29.1946H271.95V31.8665H276.156V33H270.634ZM278.841 33H277.444L280.584 24.2727H282.106L285.246 33H283.849L281.381 25.858H281.313L278.841 33ZM279.076 29.5824H283.61V30.6903H279.076V29.5824ZM286.747 33V24.2727H289.857C290.533 24.2727 291.095 24.3892 291.541 24.6222C291.989 24.8551 292.325 25.1776 292.546 25.5895C292.768 25.9986 292.879 26.4716 292.879 27.0085C292.879 27.5426 292.766 28.0128 292.542 28.419C292.32 28.8224 291.985 29.1364 291.536 29.3608C291.09 29.5852 290.529 29.6974 289.853 29.6974H287.497V28.5639H289.734C290.16 28.5639 290.506 28.5028 290.774 28.3807C291.043 28.2585 291.241 28.081 291.366 27.848C291.491 27.6151 291.553 27.3352 291.553 27.0085C291.553 26.679 291.489 26.3935 291.362 26.152C291.237 25.9105 291.039 25.7259 290.769 25.598C290.502 25.4673 290.151 25.402 289.717 25.402H288.063V33H286.747ZM291.055 29.0625L293.211 33H291.711L289.597 29.0625H291.055ZM301.969 27.1108H300.64C300.589 26.8267 300.494 26.5767 300.354 26.3608C300.215 26.1449 300.045 25.9616 299.843 25.8111C299.641 25.6605 299.416 25.5469 299.166 25.4702C298.918 25.3935 298.656 25.3551 298.377 25.3551C297.874 25.3551 297.424 25.4815 297.026 25.7344C296.631 25.9872 296.319 26.358 296.089 26.8466C295.862 27.3352 295.748 27.9318 295.748 28.6364C295.748 29.3466 295.862 29.946 296.089 30.4347C296.319 30.9233 296.633 31.2926 297.031 31.5426C297.428 31.7926 297.876 31.9176 298.373 31.9176C298.648 31.9176 298.91 31.8807 299.157 31.8068C299.407 31.7301 299.633 31.6179 299.835 31.4702C300.036 31.3224 300.207 31.142 300.346 30.929C300.488 30.7131 300.586 30.4659 300.64 30.1875L301.969 30.1918C301.898 30.6207 301.761 31.0156 301.556 31.3764C301.354 31.7344 301.094 32.044 300.776 32.3054C300.461 32.5639 300.1 32.7642 299.694 32.9062C299.288 33.0483 298.844 33.1193 298.364 33.1193C297.609 33.1193 296.935 32.9403 296.344 32.5824C295.754 32.2216 295.288 31.706 294.947 31.0355C294.609 30.3651 294.44 29.5653 294.44 28.6364C294.44 27.7045 294.61 26.9048 294.951 26.2372C295.292 25.5668 295.758 25.0526 296.349 24.6946C296.94 24.3338 297.612 24.1534 298.364 24.1534C298.827 24.1534 299.259 24.2202 299.66 24.3537C300.063 24.4844 300.425 24.6776 300.746 24.9332C301.068 25.1861 301.333 25.4957 301.543 25.8622C301.754 26.2259 301.896 26.642 301.969 27.1108ZM303.785 33V24.2727H305.102V28.0653H309.453V24.2727H310.774V33H309.453V29.1946H305.102V33H303.785Z" fill="white"/>
<rect x="352" y="1" width="302" height="56" rx="28" fill="#19191B"/>
<path d="M483.784 33H480.958V24.2727H483.873C484.728 24.2727 485.463 24.4474 486.076 24.7969C486.69 25.1435 487.16 25.642 487.487 26.2926C487.816 26.9403 487.981 27.7173 487.981 28.6236C487.981 29.5327 487.815 30.3139 487.483 30.9673C487.153 31.6207 486.676 32.1236 486.051 32.4759C485.426 32.8253 484.67 33 483.784 33ZM482.275 31.8494H483.711C484.376 31.8494 484.929 31.7244 485.369 31.4744C485.809 31.2216 486.139 30.8565 486.358 30.3793C486.576 29.8991 486.686 29.3139 486.686 28.6236C486.686 27.9389 486.576 27.358 486.358 26.8807C486.142 26.4034 485.819 26.0412 485.39 25.794C484.961 25.5469 484.429 25.4233 483.792 25.4233H482.275V31.8494ZM489.859 33V24.2727H495.33V25.4062H491.175V28.0653H495.045V29.1946H491.175V31.8665H495.381V33H489.859ZM502.089 26.5653C502.044 26.1619 501.856 25.8494 501.526 25.6278C501.197 25.4034 500.782 25.2912 500.282 25.2912C499.924 25.2912 499.615 25.348 499.353 25.4616C499.092 25.5724 498.889 25.7259 498.744 25.9219C498.602 26.1151 498.531 26.3352 498.531 26.5824C498.531 26.7898 498.579 26.9687 498.676 27.1193C498.775 27.2699 498.904 27.3963 499.063 27.4986C499.225 27.598 499.399 27.6818 499.583 27.75C499.768 27.8153 499.946 27.8693 500.116 27.9119L500.968 28.1335C501.247 28.2017 501.532 28.294 501.825 28.4105C502.117 28.527 502.389 28.6804 502.639 28.8707C502.889 29.0611 503.09 29.2969 503.244 29.5781C503.4 29.8594 503.478 30.196 503.478 30.5881C503.478 31.0824 503.35 31.5213 503.095 31.9048C502.842 32.2884 502.474 32.5909 501.991 32.8125C501.511 33.0341 500.93 33.1449 500.248 33.1449C499.595 33.1449 499.029 33.0412 498.552 32.8338C498.075 32.6264 497.701 32.3324 497.431 31.9517C497.161 31.5682 497.012 31.1136 496.984 30.5881H498.305C498.33 30.9034 498.433 31.1662 498.612 31.3764C498.794 31.5838 499.025 31.7386 499.306 31.8409C499.59 31.9403 499.901 31.9901 500.24 31.9901C500.612 31.9901 500.943 31.9318 501.232 31.8153C501.525 31.696 501.755 31.5312 501.923 31.321C502.09 31.108 502.174 30.8594 502.174 30.5753C502.174 30.3168 502.1 30.1051 501.953 29.9403C501.808 29.7756 501.61 29.6392 501.36 29.5312C501.113 29.4233 500.833 29.3281 500.521 29.2457L499.49 28.9645C498.791 28.7741 498.237 28.4943 497.828 28.125C497.421 27.7557 497.218 27.267 497.218 26.6591C497.218 26.1562 497.355 25.7173 497.627 25.3423C497.9 24.9673 498.269 24.6761 498.735 24.4688C499.201 24.2585 499.727 24.1534 500.312 24.1534C500.903 24.1534 501.424 24.2571 501.876 24.4645C502.33 24.6719 502.688 24.9574 502.95 25.321C503.211 25.6818 503.348 26.0966 503.359 26.5653H502.089ZM506.608 24.2727V33H505.292V24.2727H506.608ZM514.672 27.0298C514.59 26.7713 514.479 26.5398 514.34 26.3352C514.204 26.1278 514.04 25.9517 513.85 25.8068C513.66 25.6591 513.442 25.5469 513.198 25.4702C512.956 25.3935 512.691 25.3551 512.401 25.3551C511.91 25.3551 511.466 25.4815 511.071 25.7344C510.677 25.9872 510.364 26.358 510.134 26.8466C509.907 27.3324 509.793 27.9276 509.793 28.6321C509.793 29.3395 509.908 29.9375 510.138 30.4261C510.368 30.9148 510.684 31.2855 511.084 31.5384C511.485 31.7912 511.941 31.9176 512.452 31.9176C512.927 31.9176 513.34 31.821 513.692 31.6278C514.047 31.4347 514.321 31.1619 514.515 30.8097C514.711 30.4545 514.809 30.0369 514.809 29.5568L515.15 29.6207H512.652V28.5341H516.083V29.527C516.083 30.2599 515.927 30.8963 515.614 31.4361C515.304 31.973 514.875 32.3878 514.327 32.6804C513.782 32.973 513.157 33.1193 512.452 33.1193C511.662 33.1193 510.969 32.9375 510.373 32.5739C509.779 32.2102 509.316 31.6946 508.983 31.027C508.651 30.3565 508.485 29.5611 508.485 28.6406C508.485 27.9446 508.581 27.3196 508.775 26.7656C508.968 26.2116 509.239 25.7415 509.589 25.3551C509.941 24.9659 510.354 24.669 510.829 24.4645C511.306 24.2571 511.827 24.1534 512.392 24.1534C512.864 24.1534 513.303 24.223 513.709 24.3622C514.118 24.5014 514.482 24.6989 514.8 24.9545C515.121 25.2102 515.387 25.5142 515.597 25.8665C515.807 26.2159 515.949 26.6037 516.023 27.0298H514.672ZM525.038 24.2727V33H523.828L519.392 26.5994H519.311V33H517.994V24.2727H519.213L523.653 30.6818H523.734V24.2727H525.038Z" fill="white"/>
<path d="M216.667 133C216.667 135.946 219.054 138.333 222 138.333C224.946 138.333 227.333 135.946 227.333 133C227.333 130.054 224.946 127.667 222 127.667C219.054 127.667 216.667 130.054 216.667 133ZM408 134C408.552 134 409 133.552 409 133C409 132.448 408.552 132 408 132V134ZM222 134H408V132H222V134Z" fill="url(#paint4_linear_380_13661)"/>
<path opacity="0.5" d="M419.878 137.119C419.293 137.119 418.77 137.018 418.31 136.817C417.852 136.615 417.49 136.335 417.223 135.977C416.959 135.616 416.817 135.199 416.797 134.724H418.135C418.152 134.983 418.239 135.207 418.395 135.398C418.554 135.585 418.761 135.73 419.017 135.832C419.273 135.935 419.557 135.986 419.869 135.986C420.213 135.986 420.517 135.926 420.781 135.807C421.048 135.687 421.257 135.521 421.408 135.308C421.558 135.092 421.634 134.844 421.634 134.562C421.634 134.27 421.558 134.013 421.408 133.791C421.26 133.567 421.043 133.391 420.756 133.263C420.472 133.135 420.128 133.071 419.724 133.071H418.987V131.997H419.724C420.048 131.997 420.332 131.939 420.577 131.822C420.824 131.706 421.017 131.544 421.156 131.337C421.295 131.126 421.365 130.881 421.365 130.599C421.365 130.33 421.304 130.095 421.182 129.896C421.063 129.695 420.892 129.537 420.67 129.423C420.452 129.31 420.193 129.253 419.895 129.253C419.611 129.253 419.345 129.305 419.098 129.411C418.854 129.513 418.655 129.661 418.501 129.854C418.348 130.044 418.266 130.273 418.254 130.54H416.98C416.994 130.068 417.134 129.653 417.398 129.295C417.665 128.937 418.017 128.658 418.455 128.456C418.892 128.254 419.378 128.153 419.912 128.153C420.472 128.153 420.955 128.263 421.361 128.482C421.77 128.697 422.085 128.986 422.307 129.347C422.531 129.707 422.642 130.102 422.639 130.531C422.642 131.02 422.506 131.435 422.23 131.776C421.957 132.116 421.594 132.345 421.139 132.462V132.53C421.719 132.618 422.168 132.848 422.486 133.22C422.807 133.592 422.966 134.054 422.963 134.605C422.966 135.085 422.832 135.516 422.562 135.896C422.295 136.277 421.93 136.577 421.467 136.795C421.004 137.011 420.474 137.119 419.878 137.119ZM431.174 137H428.349V128.273H431.264C432.119 128.273 432.853 128.447 433.467 128.797C434.08 129.143 434.551 129.642 434.877 130.293C435.207 130.94 435.372 131.717 435.372 132.624C435.372 133.533 435.205 134.314 434.873 134.967C434.544 135.621 434.066 136.124 433.441 136.476C432.816 136.825 432.061 137 431.174 137ZM429.666 135.849H431.102C431.767 135.849 432.319 135.724 432.759 135.474C433.2 135.222 433.529 134.857 433.748 134.379C433.967 133.899 434.076 133.314 434.076 132.624C434.076 131.939 433.967 131.358 433.748 130.881C433.532 130.403 433.21 130.041 432.781 129.794C432.352 129.547 431.819 129.423 431.183 129.423H429.666V135.849ZM437.553 137H436.155L439.296 128.273H440.817L443.958 137H442.56L440.093 129.858H440.024L437.553 137ZM437.787 133.582H442.321V134.69H437.787V133.582ZM443.894 128.273H445.39L447.67 132.24H447.763L450.043 128.273H451.539L448.373 133.574V137H447.06V133.574L443.894 128.273ZM457.782 130.565C457.737 130.162 457.549 129.849 457.22 129.628C456.89 129.403 456.475 129.291 455.975 129.291C455.617 129.291 455.308 129.348 455.046 129.462C454.785 129.572 454.582 129.726 454.437 129.922C454.295 130.115 454.224 130.335 454.224 130.582C454.224 130.79 454.272 130.969 454.369 131.119C454.468 131.27 454.597 131.396 454.756 131.499C454.918 131.598 455.092 131.682 455.276 131.75C455.461 131.815 455.639 131.869 455.809 131.912L456.661 132.134C456.94 132.202 457.225 132.294 457.518 132.411C457.81 132.527 458.082 132.68 458.332 132.871C458.582 133.061 458.783 133.297 458.937 133.578C459.093 133.859 459.171 134.196 459.171 134.588C459.171 135.082 459.043 135.521 458.788 135.905C458.535 136.288 458.167 136.591 457.684 136.812C457.204 137.034 456.623 137.145 455.941 137.145C455.288 137.145 454.722 137.041 454.245 136.834C453.768 136.626 453.394 136.332 453.124 135.952C452.854 135.568 452.705 135.114 452.677 134.588H453.998C454.024 134.903 454.126 135.166 454.305 135.376C454.487 135.584 454.718 135.739 454.999 135.841C455.283 135.94 455.595 135.99 455.933 135.99C456.305 135.99 456.636 135.932 456.925 135.815C457.218 135.696 457.448 135.531 457.616 135.321C457.783 135.108 457.867 134.859 457.867 134.575C457.867 134.317 457.793 134.105 457.646 133.94C457.501 133.776 457.303 133.639 457.053 133.531C456.806 133.423 456.526 133.328 456.214 133.246L455.183 132.964C454.484 132.774 453.93 132.494 453.521 132.125C453.114 131.756 452.911 131.267 452.911 130.659C452.911 130.156 453.048 129.717 453.32 129.342C453.593 128.967 453.962 128.676 454.428 128.469C454.894 128.259 455.42 128.153 456.005 128.153C456.596 128.153 457.117 128.257 457.569 128.464C458.024 128.672 458.381 128.957 458.643 129.321C458.904 129.682 459.041 130.097 459.052 130.565H457.782Z" fill="#19191B"/>
<path d="M659.333 133C659.333 130.054 656.946 127.667 654 127.667C651.054 127.667 648.667 130.054 648.667 133C648.667 135.946 651.054 138.333 654 138.333C656.946 138.333 659.333 135.946 659.333 133ZM468 132C467.448 132 467 132.448 467 133C467 133.552 467.448 134 468 134L468 132ZM654 132L468 132L468 134L654 134L654 132Z" fill="url(#paint5_linear_380_13661)"/>
<rect x="222" y="209" width="432" height="56" rx="28" fill="#19191B" fill-opacity="0.03"/>
<path d="M428.472 235.111H427.142C427.091 234.827 426.996 234.577 426.856 234.361C426.717 234.145 426.547 233.962 426.345 233.811C426.143 233.661 425.918 233.547 425.668 233.47C425.42 233.393 425.158 233.355 424.879 233.355C424.376 233.355 423.926 233.482 423.528 233.734C423.133 233.987 422.821 234.358 422.591 234.847C422.364 235.335 422.25 235.932 422.25 236.636C422.25 237.347 422.364 237.946 422.591 238.435C422.821 238.923 423.135 239.293 423.533 239.543C423.93 239.793 424.378 239.918 424.875 239.918C425.151 239.918 425.412 239.881 425.659 239.807C425.909 239.73 426.135 239.618 426.337 239.47C426.538 239.322 426.709 239.142 426.848 238.929C426.99 238.713 427.088 238.466 427.142 238.188L428.472 238.192C428.401 238.621 428.263 239.016 428.058 239.376C427.856 239.734 427.597 240.044 427.278 240.305C426.963 240.564 426.602 240.764 426.196 240.906C425.79 241.048 425.347 241.119 424.866 241.119C424.111 241.119 423.437 240.94 422.847 240.582C422.256 240.222 421.79 239.706 421.449 239.036C421.111 238.365 420.942 237.565 420.942 236.636C420.942 235.705 421.112 234.905 421.453 234.237C421.794 233.567 422.26 233.053 422.851 232.695C423.442 232.334 424.114 232.153 424.866 232.153C425.329 232.153 425.761 232.22 426.162 232.354C426.565 232.484 426.927 232.678 427.249 232.933C427.57 233.186 427.835 233.496 428.045 233.862C428.256 234.226 428.398 234.642 428.472 235.111ZM430.287 241V232.273H431.604V236.065H435.955V232.273H437.276V241H435.955V237.195H431.604V241H430.287ZM440.75 232.273V241H439.433V232.273H440.75ZM442.908 241V232.273H444.225V239.866H448.179V241H442.908ZM449.921 241V232.273H451.238V239.866H455.193V241H449.921Z" fill="#19191B"/>
<path d="M811 1L811 265" stroke="url(#paint6_linear_380_13661)" stroke-linecap="round"/>
<path d="M670 1L670 265" stroke="url(#paint7_linear_380_13661)" stroke-linecap="round"/>
<rect x="670" y="1" width="141" height="56" rx="28" fill="#19191B"/>
<path d="M695.162 33V24.2727H698.273C698.952 24.2727 699.515 24.3963 699.961 24.6435C700.407 24.8906 700.74 25.2287 700.962 25.6577C701.184 26.0838 701.294 26.5639 701.294 27.098C701.294 27.6349 701.182 28.1179 700.958 28.5469C700.736 28.973 700.401 29.3111 699.952 29.5611C699.506 29.8082 698.945 29.9318 698.269 29.9318H696.13V28.8153H698.149C698.578 28.8153 698.926 28.7415 699.193 28.5938C699.461 28.4432 699.657 28.2386 699.782 27.9801C699.907 27.7216 699.969 27.4276 699.969 27.098C699.969 26.7685 699.907 26.4759 699.782 26.2202C699.657 25.9645 699.459 25.7642 699.189 25.6193C698.922 25.4744 698.57 25.402 698.132 25.402H696.479V33H695.162ZM703.078 33V24.2727H706.189C706.865 24.2727 707.426 24.3892 707.872 24.6222C708.321 24.8551 708.656 25.1776 708.878 25.5895C709.099 25.9986 709.21 26.4716 709.21 27.0085C709.21 27.5426 709.098 28.0128 708.873 28.419C708.652 28.8224 708.317 29.1364 707.868 29.3608C707.422 29.5852 706.861 29.6974 706.185 29.6974H703.828V28.5639H706.065C706.491 28.5639 706.838 28.5028 707.105 28.3807C707.375 28.2585 707.572 28.081 707.697 27.848C707.822 27.6151 707.885 27.3352 707.885 27.0085C707.885 26.679 707.821 26.3935 707.693 26.152C707.568 25.9105 707.371 25.7259 707.101 25.598C706.834 25.4673 706.483 25.402 706.048 25.402H704.395V33H703.078ZM707.386 29.0625L709.543 33H708.043L705.929 29.0625H707.386ZM711.052 33V24.2727H716.524V25.4062H712.369V28.0653H716.238V29.1946H712.369V31.8665H716.575V33H711.052ZM723.283 26.5653C723.237 26.1619 723.05 25.8494 722.72 25.6278C722.391 25.4034 721.976 25.2912 721.476 25.2912C721.118 25.2912 720.808 25.348 720.547 25.4616C720.286 25.5724 720.083 25.7259 719.938 25.9219C719.796 26.1151 719.725 26.3352 719.725 26.5824C719.725 26.7898 719.773 26.9687 719.869 27.1193C719.969 27.2699 720.098 27.3963 720.257 27.4986C720.419 27.598 720.592 27.6818 720.777 27.75C720.962 27.8153 721.139 27.8693 721.31 27.9119L722.162 28.1335C722.44 28.2017 722.726 28.294 723.019 28.4105C723.311 28.527 723.583 28.6804 723.833 28.8707C724.083 29.0611 724.284 29.2969 724.438 29.5781C724.594 29.8594 724.672 30.196 724.672 30.5881C724.672 31.0824 724.544 31.5213 724.288 31.9048C724.036 32.2884 723.668 32.5909 723.185 32.8125C722.705 33.0341 722.124 33.1449 721.442 33.1449C720.788 33.1449 720.223 33.0412 719.746 32.8338C719.269 32.6264 718.895 32.3324 718.625 31.9517C718.355 31.5682 718.206 31.1136 718.178 30.5881H719.499C719.524 30.9034 719.627 31.1662 719.806 31.3764C719.987 31.5838 720.219 31.7386 720.5 31.8409C720.784 31.9403 721.095 31.9901 721.433 31.9901C721.806 31.9901 722.137 31.9318 722.426 31.8153C722.719 31.696 722.949 31.5312 723.117 31.321C723.284 31.108 723.368 30.8594 723.368 30.5753C723.368 30.3168 723.294 30.1051 723.146 29.9403C723.002 29.7756 722.804 29.6392 722.554 29.5312C722.307 29.4233 722.027 29.3281 721.715 29.2457L720.683 28.9645C719.985 28.7741 719.431 28.4943 719.021 28.125C718.615 27.7557 718.412 27.267 718.412 26.6591C718.412 26.1562 718.548 25.7173 718.821 25.3423C719.094 24.9673 719.463 24.6761 719.929 24.4688C720.395 24.2585 720.921 24.1534 721.506 24.1534C722.097 24.1534 722.618 24.2571 723.07 24.4645C723.524 24.6719 723.882 24.9574 724.144 25.321C724.405 25.6818 724.541 26.0966 724.553 26.5653H723.283ZM726.486 33V24.2727H731.957V25.4062H727.802V28.0653H731.672V29.1946H727.802V31.8665H732.008V33H726.486ZM741 24.2727V33H739.79L735.354 26.5994H735.273V33H733.956V24.2727H735.175L739.615 30.6818H739.696V24.2727H741ZM742.73 25.4062V24.2727H749.485V25.4062H746.762V33H745.449V25.4062H742.73ZM750.923 33H749.525L752.666 24.2727H754.187L757.328 33H755.93L753.463 25.858H753.395L750.923 33ZM751.158 29.5824H755.692V30.6903H751.158V29.5824ZM757.367 25.4062V24.2727H764.121V25.4062H761.398V33H760.085V25.4062H757.367ZM767.17 24.2727V33H765.853V24.2727H767.17ZM776.909 28.6364C776.909 29.5682 776.738 30.3693 776.397 31.0398C776.057 31.7074 775.589 32.2216 774.995 32.5824C774.405 32.9403 773.733 33.1193 772.98 33.1193C772.224 33.1193 771.549 32.9403 770.956 32.5824C770.365 32.2216 769.899 31.706 769.558 31.0355C769.217 30.3651 769.047 29.5653 769.047 28.6364C769.047 27.7045 769.217 26.9048 769.558 26.2372C769.899 25.5668 770.365 25.0526 770.956 24.6946C771.549 24.3338 772.224 24.1534 772.98 24.1534C773.733 24.1534 774.405 24.3338 774.995 24.6946C775.589 25.0526 776.057 25.5668 776.397 26.2372C776.738 26.9048 776.909 27.7045 776.909 28.6364ZM775.605 28.6364C775.605 27.9261 775.49 27.3281 775.26 26.8423C775.032 26.3537 774.72 25.9844 774.322 25.7344C773.927 25.4815 773.48 25.3551 772.98 25.3551C772.477 25.3551 772.028 25.4815 771.633 25.7344C771.238 25.9844 770.926 26.3537 770.696 26.8423C770.468 27.3281 770.355 27.9261 770.355 28.6364C770.355 29.3466 770.468 29.946 770.696 30.4347C770.926 30.9205 771.238 31.2898 771.633 31.5426C772.028 31.7926 772.477 31.9176 772.98 31.9176C773.48 31.9176 773.927 31.7926 774.322 31.5426C774.72 31.2898 775.032 30.9205 775.26 30.4347C775.49 29.946 775.605 29.3466 775.605 28.6364ZM785.835 24.2727V33H784.624L780.188 26.5994H780.107V33H778.791V24.2727H780.009L784.45 30.6818H784.531V24.2727H785.835Z" fill="white"/>
<path d="M664.667 133C664.667 135.946 667.054 138.333 670 138.333C672.946 138.333 675.333 135.946 675.333 133C675.333 130.054 672.946 127.667 670 127.667C667.054 127.667 664.667 130.054 664.667 133ZM710 134C710.552 134 711 133.552 711 133C711 132.448 710.552 132 710 132V134ZM670 134H710V132H670V134Z" fill="#E33230"/>
<path opacity="0.5" d="M722.151 128.273V137H720.83V129.594H720.778L718.69 130.957V129.696L720.868 128.273H722.151ZM728.286 137V128.273H729.603V132.065H733.954V128.273H735.275V137H733.954V133.195H729.603V137H728.286ZM745.014 132.636C745.014 133.568 744.843 134.369 744.502 135.04C744.161 135.707 743.694 136.222 743.1 136.582C742.509 136.94 741.838 137.119 741.085 137.119C740.329 137.119 739.654 136.94 739.061 136.582C738.47 136.222 738.004 135.706 737.663 135.036C737.322 134.365 737.151 133.565 737.151 132.636C737.151 131.705 737.322 130.905 737.663 130.237C738.004 129.567 738.47 129.053 739.061 128.695C739.654 128.334 740.329 128.153 741.085 128.153C741.838 128.153 742.509 128.334 743.1 128.695C743.694 129.053 744.161 129.567 744.502 130.237C744.843 130.905 745.014 131.705 745.014 132.636ZM743.71 132.636C743.71 131.926 743.595 131.328 743.365 130.842C743.137 130.354 742.825 129.984 742.427 129.734C742.032 129.482 741.585 129.355 741.085 129.355C740.582 129.355 740.133 129.482 739.738 129.734C739.343 129.984 739.031 130.354 738.801 130.842C738.573 131.328 738.46 131.926 738.46 132.636C738.46 133.347 738.573 133.946 738.801 134.435C739.031 134.92 739.343 135.29 739.738 135.543C740.133 135.793 740.582 135.918 741.085 135.918C741.585 135.918 742.032 135.793 742.427 135.543C742.825 135.29 743.137 134.92 743.365 134.435C743.595 133.946 743.71 133.347 743.71 132.636ZM752.508 128.273H753.829V134.013C753.829 134.624 753.685 135.165 753.398 135.636C753.111 136.105 752.708 136.474 752.188 136.744C751.668 137.011 751.059 137.145 750.36 137.145C749.664 137.145 749.056 137.011 748.536 136.744C748.016 136.474 747.613 136.105 747.326 135.636C747.039 135.165 746.895 134.624 746.895 134.013V128.273H748.212V133.906C748.212 134.301 748.299 134.652 748.472 134.959C748.648 135.266 748.897 135.507 749.218 135.683C749.539 135.857 749.92 135.943 750.36 135.943C750.803 135.943 751.185 135.857 751.506 135.683C751.83 135.507 752.077 135.266 752.248 134.959C752.421 134.652 752.508 134.301 752.508 133.906V128.273ZM755.983 137V128.273H759.094C759.77 128.273 760.331 128.389 760.777 128.622C761.226 128.855 761.561 129.178 761.783 129.589C762.004 129.999 762.115 130.472 762.115 131.009C762.115 131.543 762.003 132.013 761.778 132.419C761.557 132.822 761.222 133.136 760.773 133.361C760.327 133.585 759.766 133.697 759.09 133.697H756.733V132.564H758.97C759.396 132.564 759.743 132.503 760.01 132.381C760.28 132.259 760.477 132.081 760.602 131.848C760.727 131.615 760.79 131.335 760.79 131.009C760.79 130.679 760.726 130.393 760.598 130.152C760.473 129.911 760.276 129.726 760.006 129.598C759.739 129.467 759.388 129.402 758.953 129.402H757.3V137H755.983ZM760.291 133.062L762.448 137H760.948L758.834 133.062H760.291Z" fill="#19191B"/>
<path d="M816.333 133C816.333 130.054 813.946 127.667 811 127.667C808.054 127.667 805.667 130.054 805.667 133C805.667 135.946 808.054 138.333 811 138.333C813.946 138.333 816.333 135.946 816.333 133ZM771 132C770.448 132 770 132.448 770 133C770 133.552 770.448 134 771 134L771 132ZM811 132L771 132L771 134L811 134L811 132Z" fill="#E33230"/>
<rect x="670" y="209" width="141" height="56" rx="28" fill="#19191B" fill-opacity="0.03"/>
<path d="M705.984 234.565C705.938 234.162 705.751 233.849 705.421 233.628C705.092 233.403 704.677 233.291 704.177 233.291C703.819 233.291 703.509 233.348 703.248 233.462C702.986 233.572 702.783 233.726 702.638 233.922C702.496 234.115 702.425 234.335 702.425 234.582C702.425 234.79 702.474 234.969 702.57 235.119C702.67 235.27 702.799 235.396 702.958 235.499C703.12 235.598 703.293 235.682 703.478 235.75C703.663 235.815 703.84 235.869 704.011 235.912L704.863 236.134C705.141 236.202 705.427 236.294 705.719 236.411C706.012 236.527 706.283 236.68 706.533 236.871C706.783 237.061 706.985 237.297 707.138 237.578C707.295 237.859 707.373 238.196 707.373 238.588C707.373 239.082 707.245 239.521 706.989 239.905C706.736 240.288 706.369 240.591 705.886 240.812C705.405 241.034 704.825 241.145 704.143 241.145C703.489 241.145 702.924 241.041 702.447 240.834C701.969 240.626 701.596 240.332 701.326 239.952C701.056 239.568 700.907 239.114 700.878 238.588H702.2C702.225 238.903 702.327 239.166 702.506 239.376C702.688 239.584 702.92 239.739 703.201 239.841C703.485 239.94 703.796 239.99 704.134 239.99C704.506 239.99 704.837 239.932 705.127 239.815C705.42 239.696 705.65 239.531 705.817 239.321C705.985 239.108 706.069 238.859 706.069 238.575C706.069 238.317 705.995 238.105 705.847 237.94C705.702 237.776 705.505 237.639 705.255 237.531C705.008 237.423 704.728 237.328 704.415 237.246L703.384 236.964C702.685 236.774 702.131 236.494 701.722 236.125C701.316 235.756 701.113 235.267 701.113 234.659C701.113 234.156 701.249 233.717 701.522 233.342C701.795 232.967 702.164 232.676 702.63 232.469C703.096 232.259 703.621 232.153 704.207 232.153C704.798 232.153 705.319 232.257 705.771 232.464C706.225 232.672 706.583 232.957 706.844 233.321C707.106 233.682 707.242 234.097 707.253 234.565H705.984ZM709.186 241V232.273H714.658V233.406H710.503V236.065H714.372V237.195H710.503V239.866H714.709V241H709.186ZM716.657 241V232.273H722.128V233.406H717.974V236.065H721.843V237.195H717.974V239.866H722.18V241H716.657ZM727.543 241V232.273H730.654C731.33 232.273 731.891 232.389 732.337 232.622C732.786 232.855 733.121 233.178 733.343 233.589C733.564 233.999 733.675 234.472 733.675 235.009C733.675 235.543 733.563 236.013 733.338 236.419C733.117 236.822 732.782 237.136 732.333 237.361C731.887 237.585 731.326 237.697 730.65 237.697H728.293V236.564H730.53C730.956 236.564 731.303 236.503 731.57 236.381C731.84 236.259 732.037 236.081 732.162 235.848C732.287 235.615 732.35 235.335 732.35 235.009C732.35 234.679 732.286 234.393 732.158 234.152C732.033 233.911 731.836 233.726 731.566 233.598C731.299 233.467 730.948 233.402 730.513 233.402H728.86V241H727.543ZM731.851 237.062L734.008 241H732.508L730.394 237.062H731.851ZM735.517 241V232.273H740.989V233.406H736.834V236.065H740.703V237.195H736.834V239.866H741.04V241H735.517ZM747.748 234.565C747.702 234.162 747.515 233.849 747.185 233.628C746.856 233.403 746.441 233.291 745.941 233.291C745.583 233.291 745.273 233.348 745.012 233.462C744.751 233.572 744.548 233.726 744.403 233.922C744.261 234.115 744.19 234.335 744.19 234.582C744.19 234.79 744.238 234.969 744.334 235.119C744.434 235.27 744.563 235.396 744.722 235.499C744.884 235.598 745.057 235.682 745.242 235.75C745.427 235.815 745.604 235.869 745.775 235.912L746.627 236.134C746.905 236.202 747.191 236.294 747.484 236.411C747.776 236.527 748.048 236.68 748.298 236.871C748.548 237.061 748.749 237.297 748.903 237.578C749.059 237.859 749.137 238.196 749.137 238.588C749.137 239.082 749.009 239.521 748.753 239.905C748.501 240.288 748.133 240.591 747.65 240.812C747.17 241.034 746.589 241.145 745.907 241.145C745.253 241.145 744.688 241.041 744.211 240.834C743.734 240.626 743.36 240.332 743.09 239.952C742.82 239.568 742.671 239.114 742.643 238.588H743.964C743.989 238.903 744.092 239.166 744.271 239.376C744.452 239.584 744.684 239.739 744.965 239.841C745.249 239.94 745.56 239.99 745.898 239.99C746.271 239.99 746.602 239.932 746.891 239.815C747.184 239.696 747.414 239.531 747.582 239.321C747.749 239.108 747.833 238.859 747.833 238.575C747.833 238.317 747.759 238.105 747.611 237.94C747.467 237.776 747.269 237.639 747.019 237.531C746.772 237.423 746.492 237.328 746.18 237.246L745.148 236.964C744.45 236.774 743.896 236.494 743.486 236.125C743.08 235.756 742.877 235.267 742.877 234.659C742.877 234.156 743.013 233.717 743.286 233.342C743.559 232.967 743.928 232.676 744.394 232.469C744.86 232.259 745.386 232.153 745.971 232.153C746.562 232.153 747.083 232.257 747.535 232.464C747.989 232.672 748.347 232.957 748.609 233.321C748.87 233.682 749.006 234.097 749.018 234.565H747.748ZM756.563 232.273H757.884V238.013C757.884 238.624 757.74 239.165 757.453 239.636C757.166 240.105 756.763 240.474 756.243 240.744C755.723 241.011 755.114 241.145 754.415 241.145C753.719 241.145 753.111 241.011 752.591 240.744C752.071 240.474 751.668 240.105 751.381 239.636C751.094 239.165 750.951 238.624 750.951 238.013V232.273H752.267V237.906C752.267 238.301 752.354 238.652 752.527 238.959C752.703 239.266 752.952 239.507 753.273 239.683C753.594 239.857 753.975 239.943 754.415 239.943C754.858 239.943 755.24 239.857 755.561 239.683C755.885 239.507 756.132 239.266 756.303 238.959C756.476 238.652 756.563 238.301 756.563 237.906V232.273ZM760.038 241V232.273H761.355V239.866H765.309V241H760.038ZM765.485 233.406V232.273H772.239V233.406H769.516V241H768.203V233.406H765.485ZM778.731 234.565C778.686 234.162 778.498 233.849 778.169 233.628C777.839 233.403 777.424 233.291 776.924 233.291C776.566 233.291 776.257 233.348 775.995 233.462C775.734 233.572 775.531 233.726 775.386 233.922C775.244 234.115 775.173 234.335 775.173 234.582C775.173 234.79 775.221 234.969 775.318 235.119C775.417 235.27 775.547 235.396 775.706 235.499C775.868 235.598 776.041 235.682 776.226 235.75C776.41 235.815 776.588 235.869 776.758 235.912L777.611 236.134C777.889 236.202 778.174 236.294 778.467 236.411C778.76 236.527 779.031 236.68 779.281 236.871C779.531 237.061 779.733 237.297 779.886 237.578C780.042 237.859 780.12 238.196 780.12 238.588C780.12 239.082 779.993 239.521 779.737 239.905C779.484 240.288 779.116 240.591 778.633 240.812C778.153 241.034 777.572 241.145 776.89 241.145C776.237 241.145 775.672 241.041 775.194 240.834C774.717 240.626 774.343 240.332 774.074 239.952C773.804 239.568 773.655 239.114 773.626 238.588H774.947C774.973 238.903 775.075 239.166 775.254 239.376C775.436 239.584 775.667 239.739 775.949 239.841C776.233 239.94 776.544 239.99 776.882 239.99C777.254 239.99 777.585 239.932 777.875 239.815C778.167 239.696 778.397 239.531 778.565 239.321C778.733 239.108 778.816 238.859 778.816 238.575C778.816 238.317 778.743 238.105 778.595 237.94C778.45 237.776 778.253 237.639 778.003 237.531C777.755 237.423 777.476 237.328 777.163 237.246L776.132 236.964C775.433 236.774 774.879 236.494 774.47 236.125C774.064 235.756 773.861 235.267 773.861 234.659C773.861 234.156 773.997 233.717 774.27 233.342C774.542 232.967 774.912 232.676 775.378 232.469C775.843 232.259 776.369 232.153 776.954 232.153C777.545 232.153 778.066 232.257 778.518 232.464C778.973 232.672 779.331 232.957 779.592 233.321C779.853 233.682 779.99 234.097 780.001 234.565H778.731Z" fill="#19191B"/>
<rect x="827" y="1" width="133" height="264" rx="32" fill="#E33230"/>
<path d="M852.173 137V128.273H855.284C855.963 128.273 856.525 128.396 856.971 128.643C857.417 128.891 857.751 129.229 857.973 129.658C858.194 130.084 858.305 130.564 858.305 131.098C858.305 131.635 858.193 132.118 857.968 132.547C857.747 132.973 857.412 133.311 856.963 133.561C856.517 133.808 855.956 133.932 855.279 133.932H853.14V132.815H855.16C855.589 132.815 855.937 132.741 856.204 132.594C856.471 132.443 856.667 132.239 856.792 131.98C856.917 131.722 856.98 131.428 856.98 131.098C856.98 130.768 856.917 130.476 856.792 130.22C856.667 129.964 856.47 129.764 856.2 129.619C855.933 129.474 855.581 129.402 855.143 129.402H853.49V137H852.173ZM859.9 137H858.502L861.643 128.273H863.164L866.305 137H864.907L862.44 129.858H862.372L859.9 137ZM860.134 133.582H864.669V134.69H860.134V133.582ZM867.805 137V128.273H870.916C871.592 128.273 872.153 128.389 872.599 128.622C873.048 128.855 873.383 129.178 873.605 129.589C873.827 129.999 873.937 130.472 873.937 131.009C873.937 131.543 873.825 132.013 873.601 132.419C873.379 132.822 873.044 133.136 872.595 133.361C872.149 133.585 871.588 133.697 870.912 133.697H868.555V132.564H870.792C871.219 132.564 871.565 132.503 871.832 132.381C872.102 132.259 872.3 132.081 872.425 131.848C872.55 131.615 872.612 131.335 872.612 131.009C872.612 130.679 872.548 130.393 872.42 130.152C872.295 129.911 872.098 129.726 871.828 129.598C871.561 129.467 871.21 129.402 870.775 129.402H869.122V137H867.805ZM872.113 133.062L874.27 137H872.77L870.656 133.062H872.113ZM875.349 129.406V128.273H882.103V129.406H879.38V137H878.068V129.406H875.349ZM890.88 128.273V137H889.67L885.234 130.599H885.153V137H883.836V128.273H885.055L889.495 134.682H889.576V128.273H890.88ZM893.041 137V128.273H898.512V129.406H894.358V132.065H898.227V133.195H894.358V135.866H898.564V137H893.041ZM900.511 137V128.273H903.622C904.298 128.273 904.859 128.389 905.305 128.622C905.754 128.855 906.089 129.178 906.311 129.589C906.533 129.999 906.643 130.472 906.643 131.009C906.643 131.543 906.531 132.013 906.307 132.419C906.085 132.822 905.75 133.136 905.301 133.361C904.855 133.585 904.294 133.697 903.618 133.697H901.261V132.564H903.499C903.925 132.564 904.271 132.503 904.538 132.381C904.808 132.259 905.006 132.081 905.131 131.848C905.256 131.615 905.318 131.335 905.318 131.009C905.318 130.679 905.254 130.393 905.126 130.152C905.001 129.911 904.804 129.726 904.534 129.598C904.267 129.467 903.916 129.402 903.481 129.402H901.828V137H900.511ZM904.82 133.062L906.976 137H905.476L903.362 133.062H904.82ZM913.246 130.565C913.2 130.162 913.013 129.849 912.683 129.628C912.354 129.403 911.939 129.291 911.439 129.291C911.081 129.291 910.771 129.348 910.51 129.462C910.248 129.572 910.045 129.726 909.9 129.922C909.758 130.115 909.687 130.335 909.687 130.582C909.687 130.79 909.736 130.969 909.832 131.119C909.932 131.27 910.061 131.396 910.22 131.499C910.382 131.598 910.555 131.682 910.74 131.75C910.925 131.815 911.102 131.869 911.273 131.912L912.125 132.134C912.403 132.202 912.689 132.294 912.981 132.411C913.274 132.527 913.545 132.68 913.795 132.871C914.045 133.061 914.247 133.297 914.4 133.578C914.557 133.859 914.635 134.196 914.635 134.588C914.635 135.082 914.507 135.521 914.251 135.905C913.998 136.288 913.631 136.591 913.148 136.812C912.667 137.034 912.087 137.145 911.405 137.145C910.751 137.145 910.186 137.041 909.709 136.834C909.231 136.626 908.858 136.332 908.588 135.952C908.318 135.568 908.169 135.114 908.141 134.588H909.462C909.487 134.903 909.589 135.166 909.768 135.376C909.95 135.584 910.182 135.739 910.463 135.841C910.747 135.94 911.058 135.99 911.396 135.99C911.768 135.99 912.099 135.932 912.389 135.815C912.682 135.696 912.912 135.531 913.079 135.321C913.247 135.108 913.331 134.859 913.331 134.575C913.331 134.317 913.257 134.105 913.109 133.94C912.964 133.776 912.767 133.639 912.517 133.531C912.27 133.423 911.99 133.328 911.677 133.246L910.646 132.964C909.947 132.774 909.393 132.494 908.984 132.125C908.578 131.756 908.375 131.267 908.375 130.659C908.375 130.156 908.511 129.717 908.784 129.342C909.057 128.967 909.426 128.676 909.892 128.469C910.358 128.259 910.883 128.153 911.469 128.153C912.06 128.153 912.581 128.257 913.033 128.464C913.487 128.672 913.845 128.957 914.106 129.321C914.368 129.682 914.504 130.097 914.516 130.565H913.246ZM916.448 137V128.273H917.765V132.065H922.116V128.273H923.437V137H922.116V133.195H917.765V137H916.448ZM926.911 128.273V137H925.595V128.273H926.911ZM929.069 137V128.273H932.18C932.859 128.273 933.421 128.396 933.867 128.643C934.313 128.891 934.647 129.229 934.869 129.658C935.09 130.084 935.201 130.564 935.201 131.098C935.201 131.635 935.089 132.118 934.864 132.547C934.643 132.973 934.308 133.311 933.859 133.561C933.413 133.808 932.852 133.932 932.175 133.932H930.036V132.815H932.056C932.485 132.815 932.833 132.741 933.1 132.594C933.367 132.443 933.563 132.239 933.688 131.98C933.813 131.722 933.876 131.428 933.876 131.098C933.876 130.768 933.813 130.476 933.688 130.22C933.563 129.964 933.366 129.764 933.096 129.619C932.829 129.474 932.477 129.402 932.039 129.402H930.386V137H929.069Z" fill="white"/>
<defs>
<linearGradient id="paint0_linear_380_13661" x1="64.5" y1="1" x2="64.5" y2="265" gradientUnits="userSpaceOnUse">
<stop stop-color="white" stop-opacity="0"/>
<stop offset="0.5" stop-color="#DADADA" stop-opacity="0.7"/>
<stop offset="1" stop-color="white" stop-opacity="0"/>
</linearGradient>
<linearGradient id="paint1_linear_380_13661" x1="205.5" y1="1" x2="205.5" y2="265" gradientUnits="userSpaceOnUse">
<stop stop-color="white" stop-opacity="0"/>
<stop offset="0.5" stop-color="#DADADA" stop-opacity="0.7"/>
<stop offset="1" stop-color="white" stop-opacity="0"/>
</linearGradient>
<linearGradient id="paint2_linear_380_13661" x1="653.5" y1="1" x2="653.5" y2="265" gradientUnits="userSpaceOnUse">
<stop stop-color="white" stop-opacity="0"/>
<stop offset="0.5" stop-color="#DADADA" stop-opacity="0.7"/>
<stop offset="1" stop-color="white" stop-opacity="0"/>
</linearGradient>
<linearGradient id="paint3_linear_380_13661" x1="221.5" y1="1" x2="221.5" y2="265" gradientUnits="userSpaceOnUse">
<stop stop-color="white" stop-opacity="0"/>
<stop offset="0.5" stop-color="#DADADA" stop-opacity="0.7"/>
<stop offset="1" stop-color="white" stop-opacity="0"/>
</linearGradient>
<linearGradient id="paint4_linear_380_13661" x1="222" y1="133.5" x2="408" y2="133.5" gradientUnits="userSpaceOnUse">
<stop stop-color="#DADADA"/>
<stop offset="1" stop-color="#DF7E7D"/>
</linearGradient>
<linearGradient id="paint5_linear_380_13661" x1="239.907" y1="133" x2="654" y2="132.741" gradientUnits="userSpaceOnUse">
<stop stop-color="#DADADA"/>
<stop offset="1" stop-color="#E33230"/>
</linearGradient>
<linearGradient id="paint6_linear_380_13661" x1="810.5" y1="1" x2="810.5" y2="265" gradientUnits="userSpaceOnUse">
<stop stop-color="white" stop-opacity="0"/>
<stop offset="0.5" stop-color="#DADADA" stop-opacity="0.7"/>
<stop offset="1" stop-color="white" stop-opacity="0"/>
</linearGradient>
<linearGradient id="paint7_linear_380_13661" x1="669.5" y1="1" x2="669.5" y2="265" gradientUnits="userSpaceOnUse">
<stop stop-color="white" stop-opacity="0"/>
<stop offset="0.5" stop-color="#DADADA" stop-opacity="0.7"/>
<stop offset="1" stop-color="white" stop-opacity="0"/>
</linearGradient>
</defs>
</svg>
