<svg width="346" height="563" viewBox="0 0 346 563" fill="none" xmlns="http://www.w3.org/2000/svg">
<mask id="mask0_9728_21844" style="mask-type:alpha" maskUnits="userSpaceOnUse" x="2" y="0" width="80" height="80">
<circle cx="42" cy="40" r="40" fill="#E33230"/>
</mask>
<g mask="url(#mask0_9728_21844)">
<circle cx="42" cy="40" r="39.4496" fill="#E33230" stroke="#E33230" stroke-width="1.10077"/>
<path fill-rule="evenodd" clip-rule="evenodd" d="M42.7653 41.6257C40.3199 41.6257 38.4269 39.7489 38.4269 37.3633H32.9062C32.9062 42.6818 37.2836 46.9056 42.7653 46.9056V41.6257Z" fill="#19191B"/>
<path fill-rule="evenodd" clip-rule="evenodd" d="M42.7617 33.0994C45.2067 33.0994 47.0993 34.9766 47.0993 37.3622H52.6204C52.6204 32.0437 48.243 27.8203 42.7617 27.8203V33.0994Z" fill="#19191B"/>
<path fill-rule="evenodd" clip-rule="evenodd" d="M42.7617 46.9056C48.243 46.9056 52.6204 42.6818 52.6204 37.3633H47.0993C47.0993 39.7489 45.2067 41.6257 42.7617 41.6257V46.9056Z" fill="#19191B"/>
<path fill-rule="evenodd" clip-rule="evenodd" d="M44.5 31.8097H50.3763L54.3591 25.3184H48.4833L44.5 31.8097Z" fill="#19191B"/>
<path fill-rule="evenodd" clip-rule="evenodd" d="M30.6191 55.1957H36.495L43.0807 44.324H37.2053L30.6191 55.1957Z" fill="#19191B"/>
<path fill-rule="evenodd" clip-rule="evenodd" d="M33.1816 55.1975H52.9388V50.0352H33.9702L33.1816 55.1975Z" fill="#19191B"/>
<path fill-rule="evenodd" clip-rule="evenodd" d="M42.7653 27.8203C37.2836 27.8203 32.9062 32.0437 32.9062 37.3622H38.4269C38.4269 34.9766 40.3199 33.0994 42.7653 33.0994V27.8203Z" fill="#19191B"/>
</g>
<path d="M42 120.333C40.5272 120.333 39.3333 121.527 39.3333 123C39.3333 124.473 40.5272 125.667 42 125.667C43.4728 125.667 44.6667 124.473 44.6667 123C44.6667 121.527 43.4728 120.333 42 120.333ZM41.5 123L41.5 211L42.5 211L42.5 123L41.5 123Z" fill="#DADADA"/>
<path d="M175 352.333C173.527 352.333 172.333 353.527 172.333 355C172.333 356.473 173.527 357.667 175 357.667C176.473 357.667 177.667 356.473 177.667 355C177.667 353.527 176.473 352.333 175 352.333ZM174.5 355L174.5 563L175.5 563L175.5 355L174.5 355Z" fill="#DADADA"/>
<path d="M218 176.333C216.527 176.333 215.333 177.527 215.333 179C215.333 180.473 216.527 181.667 218 181.667C219.473 181.667 220.667 180.473 220.667 179C220.667 177.527 219.473 176.333 218 176.333ZM217.5 179L217.5 299L218.5 299L218.5 179L217.5 179Z" fill="#DADADA"/>
<path d="M306 264.333C304.527 264.333 303.333 265.527 303.333 267C303.333 268.473 304.527 269.667 306 269.667C307.473 269.667 308.667 268.473 308.667 267C308.667 265.527 307.473 264.333 306 264.333ZM305.5 267L305.5 387L306.5 387L306.5 267L305.5 267Z" fill="#DADADA"/>
<path d="M42 264.333C40.5272 264.333 39.3333 265.527 39.3333 267C39.3333 268.473 40.5272 269.667 42 269.667C43.4728 269.667 44.6667 268.473 44.6667 267C44.6667 265.527 43.4728 264.333 42 264.333ZM41.5 267L41.5 475L42.5 475L42.5 267L41.5 267Z" fill="#DADADA"/>
<rect x="0.5" y="155.5" width="169" height="47" rx="9.5" fill="#19191B" stroke="#19191B"/>
<path d="M55.036 183H52.2108V174.273H55.1255C55.9806 174.273 56.715 174.447 57.3287 174.797C57.9423 175.143 58.4125 175.642 58.7392 176.293C59.0687 176.94 59.2335 177.717 59.2335 178.624C59.2335 179.533 59.0673 180.314 58.7349 180.967C58.4054 181.621 57.9281 182.124 57.3031 182.476C56.6781 182.825 55.9224 183 55.036 183ZM53.5275 181.849H54.9636C55.6284 181.849 56.1809 181.724 56.6213 181.474C57.0616 181.222 57.3912 180.857 57.6099 180.379C57.8287 179.899 57.938 179.314 57.938 178.624C57.938 177.939 57.8287 177.358 57.6099 176.881C57.394 176.403 57.0716 176.041 56.6426 175.794C56.2136 175.547 55.6809 175.423 55.0446 175.423H53.5275V181.849ZM62.1877 174.273V183H60.8709V174.273H62.1877ZM68.8652 176.565C68.8198 176.162 68.6323 175.849 68.3027 175.628C67.9732 175.403 67.5584 175.291 67.0584 175.291C66.7005 175.291 66.3908 175.348 66.1294 175.462C65.8681 175.572 65.665 175.726 65.5201 175.922C65.378 176.115 65.307 176.335 65.307 176.582C65.307 176.79 65.3553 176.969 65.4519 177.119C65.5513 177.27 65.6806 177.396 65.8397 177.499C66.0016 177.598 66.1749 177.682 66.3596 177.75C66.5442 177.815 66.7218 177.869 66.8922 177.912L67.7445 178.134C68.0229 178.202 68.3084 178.294 68.601 178.411C68.8936 178.527 69.165 178.68 69.415 178.871C69.665 179.061 69.8667 179.297 70.0201 179.578C70.1763 179.859 70.2544 180.196 70.2544 180.588C70.2544 181.082 70.1266 181.521 69.8709 181.905C69.6181 182.288 69.2502 182.591 68.7672 182.812C68.2871 183.034 67.7061 183.145 67.0243 183.145C66.3709 183.145 65.8056 183.041 65.3283 182.834C64.851 182.626 64.4775 182.332 64.2076 181.952C63.9377 181.568 63.7885 181.114 63.7601 180.588H65.0811C65.1067 180.903 65.209 181.166 65.388 181.376C65.5698 181.584 65.8013 181.739 66.0826 181.841C66.3667 181.94 66.6777 181.99 67.0158 181.99C67.388 181.99 67.7189 181.932 68.0087 181.815C68.3013 181.696 68.5314 181.531 68.699 181.321C68.8667 181.108 68.9505 180.859 68.9505 180.575C68.9505 180.317 68.8766 180.105 68.7289 179.94C68.584 179.776 68.3865 179.639 68.1365 179.531C67.8894 179.423 67.6096 179.328 67.2971 179.246L66.2658 178.964C65.5669 178.774 65.013 178.494 64.6039 178.125C64.1976 177.756 63.9945 177.267 63.9945 176.659C63.9945 176.156 64.1309 175.717 64.4036 175.342C64.6763 174.967 65.0456 174.676 65.5115 174.469C65.9775 174.259 66.503 174.153 67.0882 174.153C67.6792 174.153 68.2005 174.257 68.6522 174.464C69.1067 174.672 69.4647 174.957 69.726 175.321C69.9874 175.682 70.1238 176.097 70.1351 176.565H68.8652ZM79.0765 177.111H77.747C77.6958 176.827 77.6007 176.577 77.4615 176.361C77.3223 176.145 77.1518 175.962 76.9501 175.811C76.7484 175.661 76.5225 175.547 76.2725 175.47C76.0254 175.393 75.7626 175.355 75.4842 175.355C74.9814 175.355 74.5311 175.482 74.1333 175.734C73.7385 175.987 73.426 176.358 73.1958 176.847C72.9686 177.335 72.8549 177.932 72.8549 178.636C72.8549 179.347 72.9686 179.946 73.1958 180.435C73.426 180.923 73.7399 181.293 74.1376 181.543C74.5353 181.793 74.9828 181.918 75.4799 181.918C75.7555 181.918 76.0169 181.881 76.264 181.807C76.514 181.73 76.7399 181.618 76.9416 181.47C77.1433 181.322 77.3137 181.142 77.4529 180.929C77.595 180.713 77.693 180.466 77.747 180.188L79.0765 180.192C79.0055 180.621 78.8677 181.016 78.6632 181.376C78.4615 181.734 78.2015 182.044 77.8833 182.305C77.568 182.564 77.2072 182.764 76.801 182.906C76.3947 183.048 75.9515 183.119 75.4714 183.119C74.7157 183.119 74.0424 182.94 73.4515 182.582C72.8606 182.222 72.3947 181.706 72.0538 181.036C71.7157 180.365 71.5467 179.565 71.5467 178.636C71.5467 177.705 71.7172 176.905 72.0581 176.237C72.399 175.567 72.8649 175.053 73.4558 174.695C74.0467 174.334 74.7186 174.153 75.4714 174.153C75.9345 174.153 76.3663 174.22 76.7669 174.354C77.1703 174.484 77.5325 174.678 77.8535 174.933C78.1745 175.186 78.4402 175.496 78.6504 175.862C78.8606 176.226 79.0027 176.642 79.0765 177.111ZM88.2331 178.636C88.2331 179.568 88.0627 180.369 87.7218 181.04C87.3809 181.707 86.9135 182.222 86.3198 182.582C85.7289 182.94 85.057 183.119 84.3042 183.119C83.5485 183.119 82.8738 182.94 82.28 182.582C81.6891 182.222 81.2232 181.706 80.8823 181.036C80.5414 180.365 80.3709 179.565 80.3709 178.636C80.3709 177.705 80.5414 176.905 80.8823 176.237C81.2232 175.567 81.6891 175.053 82.28 174.695C82.8738 174.334 83.5485 174.153 84.3042 174.153C85.057 174.153 85.7289 174.334 86.3198 174.695C86.9135 175.053 87.3809 175.567 87.7218 176.237C88.0627 176.905 88.2331 177.705 88.2331 178.636ZM86.9292 178.636C86.9292 177.926 86.8141 177.328 86.584 176.842C86.3567 176.354 86.0442 175.984 85.6465 175.734C85.2516 175.482 84.8042 175.355 84.3042 175.355C83.8013 175.355 83.3525 175.482 82.9576 175.734C82.5627 175.984 82.2502 176.354 82.0201 176.842C81.7928 177.328 81.6792 177.926 81.6792 178.636C81.6792 179.347 81.7928 179.946 82.0201 180.435C82.2502 180.92 82.5627 181.29 82.9576 181.543C83.3525 181.793 83.8013 181.918 84.3042 181.918C84.8042 181.918 85.2516 181.793 85.6465 181.543C86.0442 181.29 86.3567 180.92 86.584 180.435C86.8141 179.946 86.9292 179.347 86.9292 178.636ZM90.204 174.273L92.633 181.381H92.731L95.16 174.273H96.5833L93.4426 183H91.9213L88.7807 174.273H90.204ZM97.8436 183V174.273H103.315V175.406H99.1603V178.065H103.03V179.195H99.1603V181.866H103.366V183H97.8436ZM105.074 183V174.273H108.185C108.861 174.273 109.422 174.389 109.868 174.622C110.317 174.855 110.652 175.178 110.874 175.589C111.095 175.999 111.206 176.472 111.206 177.009C111.206 177.543 111.094 178.013 110.869 178.419C110.648 178.822 110.313 179.136 109.864 179.361C109.418 179.585 108.857 179.697 108.181 179.697H105.824V178.564H108.061C108.487 178.564 108.834 178.503 109.101 178.381C109.371 178.259 109.568 178.081 109.693 177.848C109.818 177.615 109.881 177.335 109.881 177.009C109.881 176.679 109.817 176.393 109.689 176.152C109.564 175.911 109.367 175.726 109.097 175.598C108.83 175.467 108.479 175.402 108.044 175.402H106.391V183H105.074ZM109.382 179.062L111.539 183H110.039L107.925 179.062H109.382ZM111.819 174.273H113.314L115.594 178.24H115.688L117.968 174.273H119.464L116.297 179.574V183H114.985V179.574L111.819 174.273Z" fill="#F0F6FF"/>
<rect x="89.5" y="507.5" width="169" height="47" rx="9.5" fill="#19191B" stroke="#19191B"/>
<path d="M113.4 535V526.273H116.511C117.187 526.273 117.748 526.389 118.194 526.622C118.643 526.855 118.978 527.178 119.2 527.589C119.422 527.999 119.532 528.472 119.532 529.009C119.532 529.543 119.42 530.013 119.196 530.419C118.974 530.822 118.639 531.136 118.19 531.361C117.744 531.585 117.183 531.697 116.507 531.697H114.15V530.564H116.387C116.814 530.564 117.16 530.503 117.427 530.381C117.697 530.259 117.895 530.081 118.02 529.848C118.145 529.615 118.207 529.335 118.207 529.009C118.207 528.679 118.143 528.393 118.015 528.152C117.89 527.911 117.693 527.726 117.423 527.598C117.156 527.467 116.805 527.402 116.37 527.402H114.717V535H113.4ZM117.708 531.062L119.865 535H118.365L116.251 531.062H117.708ZM121.135 535V526.273H126.606V527.406H122.451V530.065H126.321V531.195H122.451V533.866H126.657V535H121.135ZM128.365 535V526.273H129.682V533.866H133.636V535H128.365ZM135.138 535V526.273H140.61V527.406H136.455V530.065H140.325V531.195H136.455V533.866H140.661V535H135.138ZM143.106 535H141.708L144.849 526.273H146.37L149.511 535H148.113L145.646 527.858H145.578L143.106 535ZM143.341 531.582H147.875V532.69H143.341V531.582ZM155.461 528.565C155.415 528.162 155.228 527.849 154.898 527.628C154.569 527.403 154.154 527.291 153.654 527.291C153.296 527.291 152.987 527.348 152.725 527.462C152.464 527.572 152.261 527.726 152.116 527.922C151.974 528.115 151.903 528.335 151.903 528.582C151.903 528.79 151.951 528.969 152.048 529.119C152.147 529.27 152.276 529.396 152.435 529.499C152.597 529.598 152.771 529.682 152.955 529.75C153.14 529.815 153.317 529.869 153.488 529.912L154.34 530.134C154.619 530.202 154.904 530.294 155.197 530.411C155.489 530.527 155.761 530.68 156.011 530.871C156.261 531.061 156.462 531.297 156.616 531.578C156.772 531.859 156.85 532.196 156.85 532.588C156.85 533.082 156.722 533.521 156.467 533.905C156.214 534.288 155.846 534.591 155.363 534.812C154.883 535.034 154.302 535.145 153.62 535.145C152.967 535.145 152.401 535.041 151.924 534.834C151.447 534.626 151.073 534.332 150.803 533.952C150.533 533.568 150.384 533.114 150.356 532.588H151.677C151.702 532.903 151.805 533.166 151.984 533.376C152.165 533.584 152.397 533.739 152.678 533.841C152.962 533.94 153.273 533.99 153.612 533.99C153.984 533.99 154.315 533.932 154.604 533.815C154.897 533.696 155.127 533.531 155.295 533.321C155.462 533.108 155.546 532.859 155.546 532.575C155.546 532.317 155.472 532.105 155.325 531.94C155.18 531.776 154.982 531.639 154.732 531.531C154.485 531.423 154.205 531.328 153.893 531.246L152.862 530.964C152.163 530.774 151.609 530.494 151.2 530.125C150.793 529.756 150.59 529.267 150.59 528.659C150.59 528.156 150.727 527.717 150.999 527.342C151.272 526.967 151.641 526.676 152.107 526.469C152.573 526.259 153.099 526.153 153.684 526.153C154.275 526.153 154.796 526.257 155.248 526.464C155.702 526.672 156.06 526.957 156.322 527.321C156.583 527.682 156.719 528.097 156.731 528.565H155.461ZM158.424 535V526.273H163.895V527.406H159.74V530.065H163.61V531.195H159.74V533.866H163.946V535H158.424ZM171.267 535.124C170.682 535.124 170.178 535.017 169.755 534.804C169.334 534.591 169.01 534.301 168.783 533.935C168.556 533.565 168.442 533.148 168.442 532.682C168.442 532.327 168.516 532.011 168.664 531.736C168.811 531.457 169.017 531.2 169.282 530.964C169.546 530.729 169.851 530.491 170.198 530.253L171.604 529.26C171.843 529.104 172.029 528.939 172.162 528.766C172.296 528.589 172.363 528.372 172.363 528.114C172.363 527.909 172.275 527.713 172.098 527.526C171.922 527.338 171.686 527.244 171.391 527.244C171.186 527.244 171.006 527.294 170.85 527.393C170.696 527.493 170.576 527.621 170.488 527.777C170.402 527.93 170.36 528.092 170.36 528.263C170.36 528.462 170.414 528.662 170.522 528.864C170.632 529.065 170.775 529.274 170.948 529.49C171.121 529.703 171.303 529.925 171.493 530.155L175.546 535H174.105L170.752 531.058C170.471 530.726 170.209 530.413 169.968 530.121C169.726 529.825 169.53 529.527 169.38 529.226C169.232 528.922 169.158 528.594 169.158 528.241C169.158 527.841 169.249 527.486 169.431 527.176C169.615 526.864 169.873 526.619 170.202 526.443C170.532 526.267 170.918 526.179 171.361 526.179C171.81 526.179 172.195 526.267 172.516 526.443C172.84 526.616 173.088 526.848 173.262 527.138C173.438 527.425 173.526 527.739 173.526 528.08C173.526 528.494 173.422 528.861 173.215 529.179C173.01 529.494 172.728 529.784 172.367 530.048L170.615 531.339C170.275 531.589 170.037 531.837 169.904 532.081C169.773 532.322 169.708 532.511 169.708 532.648C169.708 532.898 169.772 533.129 169.9 533.342C170.03 533.555 170.212 533.726 170.445 533.854C170.681 533.982 170.956 534.045 171.272 534.045C171.596 534.045 171.911 533.976 172.218 533.837C172.527 533.695 172.807 533.491 173.057 533.227C173.31 532.963 173.51 532.646 173.658 532.277C173.806 531.908 173.88 531.494 173.88 531.037H175.03C175.03 531.599 174.966 532.075 174.838 532.464C174.711 532.851 174.556 533.166 174.374 533.411C174.195 533.652 174.026 533.841 173.867 533.977C173.816 534.023 173.767 534.068 173.722 534.114C173.676 534.159 173.628 534.205 173.577 534.25C173.282 534.548 172.924 534.768 172.503 534.911C172.086 535.053 171.674 535.124 171.267 535.124ZM184.582 528.565C184.537 528.162 184.349 527.849 184.02 527.628C183.69 527.403 183.275 527.291 182.775 527.291C182.417 527.291 182.108 527.348 181.846 527.462C181.585 527.572 181.382 527.726 181.237 527.922C181.095 528.115 181.024 528.335 181.024 528.582C181.024 528.79 181.072 528.969 181.169 529.119C181.268 529.27 181.397 529.396 181.556 529.499C181.718 529.598 181.892 529.682 182.076 529.75C182.261 529.815 182.439 529.869 182.609 529.912L183.461 530.134C183.74 530.202 184.025 530.294 184.318 530.411C184.61 530.527 184.882 530.68 185.132 530.871C185.382 531.061 185.583 531.297 185.737 531.578C185.893 531.859 185.971 532.196 185.971 532.588C185.971 533.082 185.843 533.521 185.588 533.905C185.335 534.288 184.967 534.591 184.484 534.812C184.004 535.034 183.423 535.145 182.741 535.145C182.088 535.145 181.522 535.041 181.045 534.834C180.568 534.626 180.194 534.332 179.924 533.952C179.654 533.568 179.505 533.114 179.477 532.588H180.798C180.824 532.903 180.926 533.166 181.105 533.376C181.287 533.584 181.518 533.739 181.799 533.841C182.083 533.94 182.395 533.99 182.733 533.99C183.105 533.99 183.436 533.932 183.725 533.815C184.018 533.696 184.248 533.531 184.416 533.321C184.583 533.108 184.667 532.859 184.667 532.575C184.667 532.317 184.593 532.105 184.446 531.94C184.301 531.776 184.103 531.639 183.853 531.531C183.606 531.423 183.326 531.328 183.014 531.246L181.983 530.964C181.284 530.774 180.73 530.494 180.321 530.125C179.914 529.756 179.711 529.267 179.711 528.659C179.711 528.156 179.848 527.717 180.12 527.342C180.393 526.967 180.762 526.676 181.228 526.469C181.694 526.259 182.22 526.153 182.805 526.153C183.396 526.153 183.917 526.257 184.369 526.464C184.824 526.672 185.181 526.957 185.443 527.321C185.704 527.682 185.841 528.097 185.852 528.565H184.582ZM193.157 526.273H194.478V532.013C194.478 532.624 194.335 533.165 194.048 533.636C193.761 534.105 193.357 534.474 192.837 534.744C192.317 535.011 191.708 535.145 191.009 535.145C190.313 535.145 189.705 535.011 189.185 534.744C188.665 534.474 188.262 534.105 187.975 533.636C187.688 533.165 187.545 532.624 187.545 532.013V526.273H188.862V531.906C188.862 532.301 188.948 532.652 189.121 532.959C189.298 533.266 189.546 533.507 189.867 533.683C190.188 533.857 190.569 533.943 191.009 533.943C191.452 533.943 191.835 533.857 192.156 533.683C192.479 533.507 192.727 533.266 192.897 532.959C193.07 532.652 193.157 532.301 193.157 531.906V526.273ZM196.392 535V526.273H199.503C200.182 526.273 200.745 526.396 201.191 526.643C201.637 526.891 201.971 527.229 202.192 527.658C202.414 528.084 202.525 528.564 202.525 529.098C202.525 529.635 202.412 530.118 202.188 530.547C201.966 530.973 201.631 531.311 201.182 531.561C200.736 531.808 200.175 531.932 199.499 531.932H197.36V530.815H199.38C199.809 530.815 200.157 530.741 200.424 530.594C200.691 530.443 200.887 530.239 201.012 529.98C201.137 529.722 201.199 529.428 201.199 529.098C201.199 528.768 201.137 528.476 201.012 528.22C200.887 527.964 200.689 527.764 200.419 527.619C200.152 527.474 199.8 527.402 199.363 527.402H197.709V535H196.392ZM204.068 535V526.273H207.179C207.858 526.273 208.42 526.396 208.866 526.643C209.313 526.891 209.646 527.229 209.868 527.658C210.089 528.084 210.2 528.564 210.2 529.098C210.2 529.635 210.088 530.118 209.864 530.547C209.642 530.973 209.307 531.311 208.858 531.561C208.412 531.808 207.851 531.932 207.175 531.932H205.036V530.815H207.055C207.484 530.815 207.832 530.741 208.099 530.594C208.366 530.443 208.562 530.239 208.688 529.98C208.812 529.722 208.875 529.428 208.875 529.098C208.875 528.768 208.812 528.476 208.688 528.22C208.562 527.964 208.365 527.764 208.095 527.619C207.828 527.474 207.476 527.402 207.038 527.402H205.385V535H204.068ZM219.325 530.636C219.325 531.568 219.154 532.369 218.814 533.04C218.473 533.707 218.005 534.222 217.412 534.582C216.821 534.94 216.149 535.119 215.396 535.119C214.64 535.119 213.966 534.94 213.372 534.582C212.781 534.222 212.315 533.706 211.974 533.036C211.633 532.365 211.463 531.565 211.463 530.636C211.463 529.705 211.633 528.905 211.974 528.237C212.315 527.567 212.781 527.053 213.372 526.695C213.966 526.334 214.64 526.153 215.396 526.153C216.149 526.153 216.821 526.334 217.412 526.695C218.005 527.053 218.473 527.567 218.814 528.237C219.154 528.905 219.325 529.705 219.325 530.636ZM218.021 530.636C218.021 529.926 217.906 529.328 217.676 528.842C217.449 528.354 217.136 527.984 216.738 527.734C216.343 527.482 215.896 527.355 215.396 527.355C214.893 527.355 214.444 527.482 214.049 527.734C213.654 527.984 213.342 528.354 213.112 528.842C212.885 529.328 212.771 529.926 212.771 530.636C212.771 531.347 212.885 531.946 213.112 532.435C213.342 532.92 213.654 533.29 214.049 533.543C214.444 533.793 214.893 533.918 215.396 533.918C215.896 533.918 216.343 533.793 216.738 533.543C217.136 533.29 217.449 532.92 217.676 532.435C217.906 531.946 218.021 531.347 218.021 530.636ZM220.967 535V526.273H224.077C224.754 526.273 225.315 526.389 225.761 526.622C226.21 526.855 226.545 527.178 226.766 527.589C226.988 527.999 227.099 528.472 227.099 529.009C227.099 529.543 226.987 530.013 226.762 530.419C226.54 530.822 226.205 531.136 225.756 531.361C225.31 531.585 224.749 531.697 224.073 531.697H221.717V530.564H223.954C224.38 530.564 224.727 530.503 224.994 530.381C225.263 530.259 225.461 530.081 225.586 529.848C225.711 529.615 225.773 529.335 225.773 529.009C225.773 528.679 225.71 528.393 225.582 528.152C225.457 527.911 225.259 527.726 224.989 527.598C224.722 527.467 224.371 527.402 223.937 527.402H222.283V535H220.967ZM225.275 531.062L227.431 535H225.931L223.817 531.062H225.275ZM228.271 527.406V526.273H235.025V527.406H232.302V535H230.989V527.406H228.271Z" fill="#F0F6FF"/>
<rect x="88.5" y="243.5" width="169" height="47" rx="9.5" fill="#19191B" stroke="#19191B"/>
<path d="M147.918 264.565C147.873 264.162 147.685 263.849 147.355 263.628C147.026 263.403 146.611 263.291 146.111 263.291C145.753 263.291 145.444 263.348 145.182 263.462C144.921 263.572 144.718 263.726 144.573 263.922C144.431 264.115 144.36 264.335 144.36 264.582C144.36 264.79 144.408 264.969 144.505 265.119C144.604 265.27 144.733 265.396 144.892 265.499C145.054 265.598 145.228 265.682 145.412 265.75C145.597 265.815 145.775 265.869 145.945 265.912L146.797 266.134C147.076 266.202 147.361 266.294 147.654 266.411C147.946 266.527 148.218 266.68 148.468 266.871C148.718 267.061 148.919 267.297 149.073 267.578C149.229 267.859 149.307 268.196 149.307 268.588C149.307 269.082 149.179 269.521 148.924 269.905C148.671 270.288 148.303 270.591 147.82 270.812C147.34 271.034 146.759 271.145 146.077 271.145C145.424 271.145 144.858 271.041 144.381 270.834C143.904 270.626 143.53 270.332 143.26 269.952C142.99 269.568 142.841 269.114 142.813 268.588H144.134C144.159 268.903 144.262 269.166 144.441 269.376C144.623 269.584 144.854 269.739 145.135 269.841C145.419 269.94 145.73 269.99 146.069 269.99C146.441 269.99 146.772 269.932 147.061 269.815C147.354 269.696 147.584 269.531 147.752 269.321C147.919 269.108 148.003 268.859 148.003 268.575C148.003 268.317 147.929 268.105 147.782 267.94C147.637 267.776 147.439 267.639 147.189 267.531C146.942 267.423 146.662 267.328 146.35 267.246L145.319 266.964C144.62 266.774 144.066 266.494 143.657 266.125C143.25 265.756 143.047 265.267 143.047 264.659C143.047 264.156 143.184 263.717 143.456 263.342C143.729 262.967 144.098 262.676 144.564 262.469C145.03 262.259 145.556 262.153 146.141 262.153C146.732 262.153 147.253 262.257 147.705 262.464C148.159 262.672 148.517 262.957 148.779 263.321C149.04 263.682 149.176 264.097 149.188 264.565H147.918ZM150.45 263.406V262.273H157.205V263.406H154.482V271H153.169V263.406H150.45ZM158.697 271V262.273H161.808C162.484 262.273 163.045 262.389 163.491 262.622C163.94 262.855 164.275 263.178 164.497 263.589C164.718 263.999 164.829 264.472 164.829 265.009C164.829 265.543 164.717 266.013 164.493 266.419C164.271 266.822 163.936 267.136 163.487 267.361C163.041 267.585 162.48 267.697 161.804 267.697H159.447V266.564H161.684C162.11 266.564 162.457 266.503 162.724 266.381C162.994 266.259 163.191 266.081 163.316 265.848C163.441 265.615 163.504 265.335 163.504 265.009C163.504 264.679 163.44 264.393 163.312 264.152C163.187 263.911 162.99 263.726 162.72 263.598C162.453 263.467 162.102 263.402 161.667 263.402H160.014V271H158.697ZM163.005 267.062L165.162 271H163.662L161.548 267.062H163.005ZM167.169 271H165.771L168.912 262.273H170.433L173.574 271H172.176L169.708 263.858H169.64L167.169 271ZM167.403 267.582H171.937V268.69H167.403V267.582ZM173.372 263.406V262.273H180.126V263.406H177.403V271H176.091V263.406H173.372ZM181.619 271V262.273H187.091V263.406H182.936V266.065H186.805V267.195H182.936V269.866H187.142V271H181.619ZM194.756 265.03C194.673 264.771 194.563 264.54 194.423 264.335C194.287 264.128 194.124 263.952 193.933 263.807C193.743 263.659 193.526 263.547 193.281 263.47C193.04 263.393 192.774 263.355 192.484 263.355C191.993 263.355 191.55 263.482 191.155 263.734C190.76 263.987 190.447 264.358 190.217 264.847C189.99 265.332 189.876 265.928 189.876 266.632C189.876 267.339 189.991 267.937 190.222 268.426C190.452 268.915 190.767 269.286 191.168 269.538C191.568 269.791 192.024 269.918 192.536 269.918C193.01 269.918 193.423 269.821 193.776 269.628C194.131 269.435 194.405 269.162 194.598 268.81C194.794 268.455 194.892 268.037 194.892 267.557L195.233 267.621H192.736V266.534H196.166V267.527C196.166 268.26 196.01 268.896 195.697 269.436C195.388 269.973 194.959 270.388 194.411 270.68C193.865 270.973 193.24 271.119 192.536 271.119C191.746 271.119 191.053 270.938 190.456 270.574C189.862 270.21 189.399 269.695 189.067 269.027C188.734 268.357 188.568 267.561 188.568 266.641C188.568 265.945 188.665 265.32 188.858 264.766C189.051 264.212 189.322 263.741 189.672 263.355C190.024 262.966 190.438 262.669 190.912 262.464C191.389 262.257 191.911 262.153 192.476 262.153C192.947 262.153 193.386 262.223 193.793 262.362C194.202 262.501 194.565 262.699 194.884 262.955C195.205 263.21 195.47 263.514 195.68 263.866C195.891 264.216 196.033 264.604 196.107 265.03H194.756ZM196.871 262.273H198.367L200.647 266.24H200.741L203.021 262.273H204.516L201.35 267.574V271H200.038V267.574L196.871 262.273Z" fill="#F0F6FF"/>
<rect x="218.5" y="331.5" width="127" height="47" rx="9.5" fill="#19191B" stroke="#19191B"/>
<path d="M238.042 350.273L240.471 357.381H240.569L242.998 350.273H244.421L241.281 359H239.759L236.619 350.273H238.042ZM246.998 350.273V359H245.681V350.273H246.998ZM253.676 352.565C253.63 352.162 253.443 351.849 253.113 351.628C252.784 351.403 252.369 351.291 251.869 351.291C251.511 351.291 251.201 351.348 250.94 351.462C250.679 351.572 250.475 351.726 250.331 351.922C250.189 352.115 250.118 352.335 250.118 352.582C250.118 352.79 250.166 352.969 250.262 353.119C250.362 353.27 250.491 353.396 250.65 353.499C250.812 353.598 250.985 353.682 251.17 353.75C251.355 353.815 251.532 353.869 251.703 353.912L252.555 354.134C252.833 354.202 253.119 354.294 253.412 354.411C253.704 354.527 253.975 354.68 254.225 354.871C254.475 355.061 254.677 355.297 254.831 355.578C254.987 355.859 255.065 356.196 255.065 356.588C255.065 357.082 254.937 357.521 254.681 357.905C254.429 358.288 254.061 358.591 253.578 358.812C253.098 359.034 252.517 359.145 251.835 359.145C251.181 359.145 250.616 359.041 250.139 358.834C249.662 358.626 249.288 358.332 249.018 357.952C248.748 357.568 248.599 357.114 248.571 356.588H249.892C249.917 356.903 250.02 357.166 250.199 357.376C250.38 357.584 250.612 357.739 250.893 357.841C251.177 357.94 251.488 357.99 251.826 357.99C252.199 357.99 252.529 357.932 252.819 357.815C253.112 357.696 253.342 357.531 253.51 357.321C253.677 357.108 253.761 356.859 253.761 356.575C253.761 356.317 253.687 356.105 253.539 355.94C253.395 355.776 253.197 355.639 252.947 355.531C252.7 355.423 252.42 355.328 252.108 355.246L251.076 354.964C250.377 354.774 249.824 354.494 249.414 354.125C249.008 353.756 248.805 353.267 248.805 352.659C248.805 352.156 248.941 351.717 249.214 351.342C249.487 350.967 249.856 350.676 250.322 350.469C250.788 350.259 251.314 350.153 251.899 350.153C252.49 350.153 253.011 350.257 253.463 350.464C253.917 350.672 254.275 350.957 254.537 351.321C254.798 351.682 254.934 352.097 254.946 352.565H253.676ZM262.251 350.273H263.572V356.013C263.572 356.624 263.428 357.165 263.141 357.636C262.854 358.105 262.451 358.474 261.931 358.744C261.411 359.011 260.802 359.145 260.103 359.145C259.407 359.145 258.799 359.011 258.279 358.744C257.759 358.474 257.356 358.105 257.069 357.636C256.782 357.165 256.638 356.624 256.638 356.013V350.273H257.955V355.906C257.955 356.301 258.042 356.652 258.215 356.959C258.391 357.266 258.64 357.507 258.961 357.683C259.282 357.857 259.663 357.943 260.103 357.943C260.546 357.943 260.928 357.857 261.249 357.683C261.573 357.507 261.82 357.266 261.991 356.959C262.164 356.652 262.251 356.301 262.251 355.906V350.273ZM266.223 359H264.826L267.966 350.273H269.488L272.628 359H271.23L268.763 351.858H268.695L266.223 359ZM266.458 355.582H270.992V356.69H266.458V355.582ZM273.888 359V350.273H275.205V357.866H279.16V359H273.888ZM286.663 359H283.838V350.273H286.752C287.608 350.273 288.342 350.447 288.956 350.797C289.569 351.143 290.039 351.642 290.366 352.293C290.696 352.94 290.86 353.717 290.86 354.624C290.86 355.533 290.694 356.314 290.362 356.967C290.032 357.621 289.555 358.124 288.93 358.476C288.305 358.825 287.549 359 286.663 359ZM285.154 357.849H286.591C287.255 357.849 287.808 357.724 288.248 357.474C288.689 357.222 289.018 356.857 289.237 356.379C289.456 355.899 289.565 355.314 289.565 354.624C289.565 353.939 289.456 353.358 289.237 352.881C289.021 352.403 288.699 352.041 288.27 351.794C287.841 351.547 287.308 351.423 286.672 351.423H285.154V357.849ZM292.498 359V350.273H297.969V351.406H293.815V354.065H297.684V355.195H293.815V357.866H298.021V359H292.498ZM304.488 352.565C304.443 352.162 304.255 351.849 303.926 351.628C303.596 351.403 303.181 351.291 302.681 351.291C302.324 351.291 302.014 351.348 301.752 351.462C301.491 351.572 301.288 351.726 301.143 351.922C301.001 352.115 300.93 352.335 300.93 352.582C300.93 352.79 300.978 352.969 301.075 353.119C301.174 353.27 301.304 353.396 301.463 353.499C301.625 353.598 301.798 353.682 301.983 353.75C302.167 353.815 302.345 353.869 302.515 353.912L303.368 354.134C303.646 354.202 303.931 354.294 304.224 354.411C304.517 354.527 304.788 354.68 305.038 354.871C305.288 355.061 305.49 355.297 305.643 355.578C305.799 355.859 305.877 356.196 305.877 356.588C305.877 357.082 305.75 357.521 305.494 357.905C305.241 358.288 304.873 358.591 304.39 358.812C303.91 359.034 303.329 359.145 302.647 359.145C301.994 359.145 301.429 359.041 300.951 358.834C300.474 358.626 300.1 358.332 299.831 357.952C299.561 357.568 299.412 357.114 299.383 356.588H300.704C300.73 356.903 300.832 357.166 301.011 357.376C301.193 357.584 301.424 357.739 301.706 357.841C301.99 357.94 302.301 357.99 302.639 357.99C303.011 357.99 303.342 357.932 303.632 357.815C303.924 357.696 304.154 357.531 304.322 357.321C304.49 357.108 304.574 356.859 304.574 356.575C304.574 356.317 304.5 356.105 304.352 355.94C304.207 355.776 304.01 355.639 303.76 355.531C303.512 355.423 303.233 355.328 302.92 355.246L301.889 354.964C301.19 354.774 300.636 354.494 300.227 354.125C299.821 353.756 299.618 353.267 299.618 352.659C299.618 352.156 299.754 351.717 300.027 351.342C300.299 350.967 300.669 350.676 301.135 350.469C301.6 350.259 302.126 350.153 302.711 350.153C303.302 350.153 303.824 350.257 304.275 350.464C304.73 350.672 305.088 350.957 305.349 351.321C305.61 351.682 305.747 352.097 305.758 352.565H304.488ZM308.768 350.273V359H307.451V350.273H308.768ZM316.592 353.03C316.509 352.771 316.398 352.54 316.259 352.335C316.123 352.128 315.96 351.952 315.769 351.807C315.579 351.659 315.362 351.547 315.117 351.47C314.876 351.393 314.61 351.355 314.32 351.355C313.829 351.355 313.386 351.482 312.991 351.734C312.596 351.987 312.283 352.358 312.053 352.847C311.826 353.332 311.712 353.928 311.712 354.632C311.712 355.339 311.827 355.937 312.058 356.426C312.288 356.915 312.603 357.286 313.004 357.538C313.404 357.791 313.86 357.918 314.371 357.918C314.846 357.918 315.259 357.821 315.612 357.628C315.967 357.435 316.241 357.162 316.434 356.81C316.63 356.455 316.728 356.037 316.728 355.557L317.069 355.621H314.572V354.534H318.002V355.527C318.002 356.26 317.846 356.896 317.533 357.436C317.224 357.973 316.795 358.388 316.246 358.68C315.701 358.973 315.076 359.119 314.371 359.119C313.582 359.119 312.888 358.938 312.292 358.574C311.698 358.21 311.235 357.695 310.903 357.027C310.57 356.357 310.404 355.561 310.404 354.641C310.404 353.945 310.501 353.32 310.694 352.766C310.887 352.212 311.158 351.741 311.508 351.355C311.86 350.966 312.273 350.669 312.748 350.464C313.225 350.257 313.746 350.153 314.312 350.153C314.783 350.153 315.222 350.223 315.629 350.362C316.038 350.501 316.401 350.699 316.719 350.955C317.04 351.21 317.306 351.514 317.516 351.866C317.727 352.216 317.869 352.604 317.942 353.03H316.592ZM326.718 350.273V359H325.507L321.071 352.599H320.99V359H319.674V350.273H320.892L325.333 356.682H325.414V350.273H326.718Z" fill="#F0F6FF"/>
<rect x="2.5" y="419.5" width="127" height="47" rx="9.5" fill="#19191B" stroke="#19191B"/>
<path d="M29.7575 447L27.337 438.273H28.7219L30.4222 445.031H30.5032L32.2717 438.273H33.6438L35.4123 445.036H35.4933L37.1893 438.273H38.5785L36.1538 447H34.8285L32.9918 440.463H32.9237L31.087 447H29.7575ZM41.0959 438.273V447H39.7791V438.273H41.0959ZM43.0135 447V438.273H46.1243C46.8004 438.273 47.3615 438.389 47.8075 438.622C48.2564 438.855 48.5916 439.178 48.8132 439.589C49.0348 439.999 49.1456 440.472 49.1456 441.009C49.1456 441.543 49.0334 442.013 48.8089 442.419C48.5874 442.822 48.2521 443.136 47.8033 443.361C47.3572 443.585 46.7962 443.697 46.12 443.697H43.7635V442.564H46.0007C46.4268 442.564 46.7734 442.503 47.0405 442.381C47.3104 442.259 47.5078 442.081 47.6328 441.848C47.7578 441.615 47.8203 441.335 47.8203 441.009C47.8203 440.679 47.7564 440.393 47.6286 440.152C47.5036 439.911 47.3061 439.726 47.0362 439.598C46.7692 439.467 46.4183 439.402 45.9837 439.402H44.3303V447H43.0135ZM47.3217 443.062L49.478 447H47.978L45.8643 443.062H47.3217ZM50.7479 447V438.273H56.2195V439.406H52.0646V442.065H55.9339V443.195H52.0646V445.866H56.2706V447H50.7479ZM57.9783 447V438.273H63.3903V439.406H59.2951V442.065H63.0025V443.195H59.2951V447H57.9783ZM65.0096 447V438.273H68.1204C68.7965 438.273 69.3576 438.389 69.8036 438.622C70.2525 438.855 70.5877 439.178 70.8093 439.589C71.0309 439.999 71.1417 440.472 71.1417 441.009C71.1417 441.543 71.0295 442.013 70.805 442.419C70.5835 442.822 70.2482 443.136 69.7994 443.361C69.3533 443.585 68.7923 443.697 68.1161 443.697H65.7596V442.564H67.9968C68.4229 442.564 68.7695 442.503 69.0366 442.381C69.3065 442.259 69.5039 442.081 69.6289 441.848C69.7539 441.615 69.8164 441.335 69.8164 441.009C69.8164 440.679 69.7525 440.393 69.6246 440.152C69.4996 439.911 69.3022 439.726 69.0323 439.598C68.7653 439.467 68.4144 439.402 67.9798 439.402H66.3263V447H65.0096ZM69.3178 443.062L71.4741 447H69.9741L67.8604 443.062H69.3178ZM73.4812 447H72.0835L75.2241 438.273H76.7454L79.886 447H78.4883L76.021 439.858H75.9528L73.4812 447ZM73.7156 443.582H78.2496V444.69H73.7156V443.582ZM81.1463 438.273H82.7443L85.5227 445.057H85.625L88.4034 438.273H90.0014V447H88.7486V440.685H88.6676L86.0938 446.987H85.054L82.4801 440.68H82.3991V447H81.1463V438.273ZM91.9158 447V438.273H97.3874V439.406H93.2326V442.065H97.1019V443.195H93.2326V445.866H97.4386V447H91.9158ZM103.906 440.565C103.861 440.162 103.673 439.849 103.344 439.628C103.014 439.403 102.599 439.291 102.099 439.291C101.741 439.291 101.432 439.348 101.17 439.462C100.909 439.572 100.706 439.726 100.561 439.922C100.419 440.115 100.348 440.335 100.348 440.582C100.348 440.79 100.396 440.969 100.493 441.119C100.592 441.27 100.722 441.396 100.881 441.499C101.043 441.598 101.216 441.682 101.401 441.75C101.585 441.815 101.763 441.869 101.933 441.912L102.786 442.134C103.064 442.202 103.349 442.294 103.642 442.411C103.935 442.527 104.206 442.68 104.456 442.871C104.706 443.061 104.908 443.297 105.061 443.578C105.217 443.859 105.295 444.196 105.295 444.588C105.295 445.082 105.168 445.521 104.912 445.905C104.659 446.288 104.291 446.591 103.808 446.812C103.328 447.034 102.747 447.145 102.065 447.145C101.412 447.145 100.847 447.041 100.369 446.834C99.892 446.626 99.5185 446.332 99.2486 445.952C98.9787 445.568 98.8295 445.114 98.8011 444.588H100.122C100.148 444.903 100.25 445.166 100.429 445.376C100.611 445.584 100.842 445.739 101.124 445.841C101.408 445.94 101.719 445.99 102.057 445.99C102.429 445.99 102.76 445.932 103.05 445.815C103.342 445.696 103.572 445.531 103.74 445.321C103.908 445.108 103.991 444.859 103.991 444.575C103.991 444.317 103.918 444.105 103.77 443.94C103.625 443.776 103.428 443.639 103.178 443.531C102.93 443.423 102.651 443.328 102.338 443.246L101.307 442.964C100.608 442.774 100.054 442.494 99.6449 442.125C99.2386 441.756 99.0355 441.267 99.0355 440.659C99.0355 440.156 99.1719 439.717 99.4446 439.342C99.7173 438.967 100.087 438.676 100.553 438.469C101.018 438.259 101.544 438.153 102.129 438.153C102.72 438.153 103.241 438.257 103.693 438.464C104.148 438.672 104.506 438.957 104.767 439.321C105.028 439.682 105.165 440.097 105.176 440.565H103.906Z" fill="#F0F6FF"/>
</svg>
