<svg width="960" height="192" viewBox="0 0 960 192" fill="none" xmlns="http://www.w3.org/2000/svg">
<path d="M125.333 40C125.333 41.4728 126.527 42.6667 128 42.6667C129.473 42.6667 130.667 41.4728 130.667 40C130.667 38.5272 129.473 37.3333 128 37.3333C126.527 37.3333 125.333 38.5272 125.333 40ZM128 40.5L362 40.5L362 39.5L128 39.5L128 40.5Z" fill="#DADADA"/>
<path d="M149.333 104C149.333 105.473 150.527 106.667 152 106.667C153.473 106.667 154.667 105.473 154.667 104C154.667 102.527 153.473 101.333 152 101.333C150.527 101.333 149.333 102.527 149.333 104ZM152 104.5L460 104.5L460 103.5L152 103.5L152 104.5Z" fill="#DADADA"/>
<path d="M302.333 168C302.333 169.473 303.527 170.667 305 170.667C306.473 170.667 307.667 169.473 307.667 168C307.667 166.527 306.473 165.333 305 165.333C303.527 165.333 302.333 166.527 302.333 168ZM305 168.5L572 168.5L572 167.5L305 167.5L305 168.5Z" fill="#DADADA"/>
<rect x="256.5" y="80.5" width="199" height="47" rx="9.5" fill="#19191B" stroke="#19191B"/>
<path d="M330.918 101.565C330.873 101.162 330.685 100.849 330.355 100.628C330.026 100.403 329.611 100.291 329.111 100.291C328.753 100.291 328.444 100.348 328.182 100.462C327.921 100.572 327.718 100.726 327.573 100.922C327.431 101.115 327.36 101.335 327.36 101.582C327.36 101.79 327.408 101.969 327.505 102.119C327.604 102.27 327.733 102.396 327.892 102.499C328.054 102.598 328.228 102.682 328.412 102.75C328.597 102.815 328.775 102.869 328.945 102.912L329.797 103.134C330.076 103.202 330.361 103.294 330.654 103.411C330.946 103.527 331.218 103.68 331.468 103.871C331.718 104.061 331.919 104.297 332.073 104.578C332.229 104.859 332.307 105.196 332.307 105.588C332.307 106.082 332.179 106.521 331.924 106.905C331.671 107.288 331.303 107.591 330.82 107.812C330.34 108.034 329.759 108.145 329.077 108.145C328.424 108.145 327.858 108.041 327.381 107.834C326.904 107.626 326.53 107.332 326.26 106.952C325.99 106.568 325.841 106.114 325.813 105.588H327.134C327.159 105.903 327.262 106.166 327.441 106.376C327.623 106.584 327.854 106.739 328.135 106.841C328.419 106.94 328.73 106.99 329.069 106.99C329.441 106.99 329.772 106.932 330.061 106.815C330.354 106.696 330.584 106.531 330.752 106.321C330.919 106.108 331.003 105.859 331.003 105.575C331.003 105.317 330.929 105.105 330.782 104.94C330.637 104.776 330.439 104.639 330.189 104.531C329.942 104.423 329.662 104.328 329.35 104.246L328.319 103.964C327.62 103.774 327.066 103.494 326.657 103.125C326.25 102.756 326.047 102.267 326.047 101.659C326.047 101.156 326.184 100.717 326.456 100.342C326.729 99.9673 327.098 99.6761 327.564 99.4688C328.03 99.2585 328.556 99.1534 329.141 99.1534C329.732 99.1534 330.253 99.2571 330.705 99.4645C331.159 99.6719 331.517 99.9574 331.779 100.321C332.04 100.682 332.176 101.097 332.188 101.565H330.918ZM333.45 100.406V99.2727H340.205V100.406H337.482V108H336.169V100.406H333.45ZM341.697 108V99.2727H344.808C345.484 99.2727 346.045 99.3892 346.491 99.6222C346.94 99.8551 347.275 100.178 347.497 100.589C347.718 100.999 347.829 101.472 347.829 102.009C347.829 102.543 347.717 103.013 347.493 103.419C347.271 103.822 346.936 104.136 346.487 104.361C346.041 104.585 345.48 104.697 344.804 104.697H342.447V103.564H344.684C345.11 103.564 345.457 103.503 345.724 103.381C345.994 103.259 346.191 103.081 346.316 102.848C346.441 102.615 346.504 102.335 346.504 102.009C346.504 101.679 346.44 101.393 346.312 101.152C346.187 100.911 345.99 100.726 345.72 100.598C345.453 100.467 345.102 100.402 344.667 100.402H343.014V108H341.697ZM346.005 104.062L348.162 108H346.662L344.548 104.062H346.005ZM350.169 108H348.771L351.912 99.2727H353.433L356.574 108H355.176L352.708 100.858H352.64L350.169 108ZM350.403 104.582H354.937V105.69H350.403V104.582ZM356.372 100.406V99.2727H363.126V100.406H360.403V108H359.091V100.406H356.372ZM364.619 108V99.2727H370.091V100.406H365.936V103.065H369.805V104.195H365.936V106.866H370.142V108H364.619ZM377.756 102.03C377.673 101.771 377.563 101.54 377.423 101.335C377.287 101.128 377.124 100.952 376.933 100.807C376.743 100.659 376.526 100.547 376.281 100.47C376.04 100.393 375.774 100.355 375.484 100.355C374.993 100.355 374.55 100.482 374.155 100.734C373.76 100.987 373.447 101.358 373.217 101.847C372.99 102.332 372.876 102.928 372.876 103.632C372.876 104.339 372.991 104.937 373.222 105.426C373.452 105.915 373.767 106.286 374.168 106.538C374.568 106.791 375.024 106.918 375.536 106.918C376.01 106.918 376.423 106.821 376.776 106.628C377.131 106.435 377.405 106.162 377.598 105.81C377.794 105.455 377.892 105.037 377.892 104.557L378.233 104.621H375.736V103.534H379.166V104.527C379.166 105.26 379.01 105.896 378.697 106.436C378.388 106.973 377.959 107.388 377.411 107.68C376.865 107.973 376.24 108.119 375.536 108.119C374.746 108.119 374.053 107.938 373.456 107.574C372.862 107.21 372.399 106.695 372.067 106.027C371.734 105.357 371.568 104.561 371.568 103.641C371.568 102.945 371.665 102.32 371.858 101.766C372.051 101.212 372.322 100.741 372.672 100.355C373.024 99.9659 373.438 99.669 373.912 99.4645C374.389 99.2571 374.911 99.1534 375.476 99.1534C375.947 99.1534 376.386 99.223 376.793 99.3622C377.202 99.5014 377.565 99.6989 377.884 99.9545C378.205 100.21 378.47 100.514 378.68 100.866C378.891 101.216 379.033 101.604 379.107 102.03H377.756ZM379.871 99.2727H381.367L383.647 103.24H383.741L386.021 99.2727H387.516L384.35 104.574V108H383.038V104.574L379.871 99.2727Z" fill="#F0F6FF"/>
<rect x="152.5" y="16.5" width="199" height="47" rx="9.5" fill="#19191B" stroke="#19191B"/>
<path d="M222.036 44H219.211V35.2727H222.126C222.981 35.2727 223.715 35.4474 224.329 35.7969C224.942 36.1435 225.412 36.642 225.739 37.2926C226.069 37.9403 226.233 38.7173 226.233 39.6236C226.233 40.5327 226.067 41.3139 225.735 41.9673C225.405 42.6207 224.928 43.1236 224.303 43.4759C223.678 43.8253 222.922 44 222.036 44ZM220.528 42.8494H221.964C222.628 42.8494 223.181 42.7244 223.621 42.4744C224.062 42.2216 224.391 41.8565 224.61 41.3793C224.829 40.8991 224.938 40.3139 224.938 39.6236C224.938 38.9389 224.829 38.358 224.61 37.8807C224.394 37.4034 224.072 37.0412 223.643 36.794C223.214 36.5469 222.681 36.4233 222.045 36.4233H220.528V42.8494ZM229.188 35.2727V44H227.871V35.2727H229.188ZM235.865 37.5653C235.82 37.1619 235.632 36.8494 235.303 36.6278C234.973 36.4034 234.558 36.2912 234.058 36.2912C233.7 36.2912 233.391 36.348 233.129 36.4616C232.868 36.5724 232.665 36.7259 232.52 36.9219C232.378 37.1151 232.307 37.3352 232.307 37.5824C232.307 37.7898 232.355 37.9687 232.452 38.1193C232.551 38.2699 232.681 38.3963 232.84 38.4986C233.002 38.598 233.175 38.6818 233.36 38.75C233.544 38.8153 233.722 38.8693 233.892 38.9119L234.744 39.1335C235.023 39.2017 235.308 39.294 235.601 39.4105C235.894 39.527 236.165 39.6804 236.415 39.8707C236.665 40.0611 236.867 40.2969 237.02 40.5781C237.176 40.8594 237.254 41.196 237.254 41.5881C237.254 42.0824 237.127 42.5213 236.871 42.9048C236.618 43.2884 236.25 43.5909 235.767 43.8125C235.287 44.0341 234.706 44.1449 234.024 44.1449C233.371 44.1449 232.806 44.0412 232.328 43.8338C231.851 43.6264 231.477 43.3324 231.208 42.9517C230.938 42.5682 230.789 42.1136 230.76 41.5881H232.081C232.107 41.9034 232.209 42.1662 232.388 42.3764C232.57 42.5838 232.801 42.7386 233.083 42.8409C233.367 42.9403 233.678 42.9901 234.016 42.9901C234.388 42.9901 234.719 42.9318 235.009 42.8153C235.301 42.696 235.531 42.5312 235.699 42.321C235.867 42.108 235.95 41.8594 235.95 41.5753C235.95 41.3168 235.877 41.1051 235.729 40.9403C235.584 40.7756 235.387 40.6392 235.137 40.5312C234.889 40.4233 234.61 40.3281 234.297 40.2457L233.266 39.9645C232.567 39.7741 232.013 39.4943 231.604 39.125C231.198 38.7557 230.994 38.267 230.994 37.6591C230.994 37.1562 231.131 36.7173 231.404 36.3423C231.676 35.9673 232.046 35.6761 232.512 35.4688C232.977 35.2585 233.503 35.1534 234.088 35.1534C234.679 35.1534 235.2 35.2571 235.652 35.4645C236.107 35.6719 236.465 35.9574 236.726 36.321C236.987 36.6818 237.124 37.0966 237.135 37.5653H235.865ZM246.077 38.1108H244.747C244.696 37.8267 244.601 37.5767 244.461 37.3608C244.322 37.1449 244.152 36.9616 243.95 36.8111C243.748 36.6605 243.523 36.5469 243.273 36.4702C243.025 36.3935 242.763 36.3551 242.484 36.3551C241.981 36.3551 241.531 36.4815 241.133 36.7344C240.738 36.9872 240.426 37.358 240.196 37.8466C239.969 38.3352 239.855 38.9318 239.855 39.6364C239.855 40.3466 239.969 40.946 240.196 41.4347C240.426 41.9233 240.74 42.2926 241.138 42.5426C241.535 42.7926 241.983 42.9176 242.48 42.9176C242.756 42.9176 243.017 42.8807 243.264 42.8068C243.514 42.7301 243.74 42.6179 243.942 42.4702C244.143 42.3224 244.314 42.142 244.453 41.929C244.595 41.7131 244.693 41.4659 244.747 41.1875L246.077 41.1918C246.006 41.6207 245.868 42.0156 245.663 42.3764C245.461 42.7344 245.202 43.044 244.883 43.3054C244.568 43.5639 244.207 43.7642 243.801 43.9062C243.395 44.0483 242.952 44.1193 242.471 44.1193C241.716 44.1193 241.042 43.9403 240.452 43.5824C239.861 43.2216 239.395 42.706 239.054 42.0355C238.716 41.3651 238.547 40.5653 238.547 39.6364C238.547 38.7045 238.717 37.9048 239.058 37.2372C239.399 36.5668 239.865 36.0526 240.456 35.6946C241.047 35.3338 241.719 35.1534 242.471 35.1534C242.934 35.1534 243.366 35.2202 243.767 35.3537C244.17 35.4844 244.532 35.6776 244.854 35.9332C245.175 36.1861 245.44 36.4957 245.65 36.8622C245.861 37.2259 246.003 37.642 246.077 38.1108ZM255.233 39.6364C255.233 40.5682 255.063 41.3693 254.722 42.0398C254.381 42.7074 253.914 43.2216 253.32 43.5824C252.729 43.9403 252.057 44.1193 251.304 44.1193C250.548 44.1193 249.874 43.9403 249.28 43.5824C248.689 43.2216 248.223 42.706 247.882 42.0355C247.541 41.3651 247.371 40.5653 247.371 39.6364C247.371 38.7045 247.541 37.9048 247.882 37.2372C248.223 36.5668 248.689 36.0526 249.28 35.6946C249.874 35.3338 250.548 35.1534 251.304 35.1534C252.057 35.1534 252.729 35.3338 253.32 35.6946C253.914 36.0526 254.381 36.5668 254.722 37.2372C255.063 37.9048 255.233 38.7045 255.233 39.6364ZM253.929 39.6364C253.929 38.9261 253.814 38.3281 253.584 37.8423C253.357 37.3537 253.044 36.9844 252.646 36.7344C252.252 36.4815 251.804 36.3551 251.304 36.3551C250.801 36.3551 250.352 36.4815 249.958 36.7344C249.563 36.9844 249.25 37.3537 249.02 37.8423C248.793 38.3281 248.679 38.9261 248.679 39.6364C248.679 40.3466 248.793 40.946 249.02 41.4347C249.25 41.9205 249.563 42.2898 249.958 42.5426C250.352 42.7926 250.801 42.9176 251.304 42.9176C251.804 42.9176 252.252 42.7926 252.646 42.5426C253.044 42.2898 253.357 41.9205 253.584 41.4347C253.814 40.946 253.929 40.3466 253.929 39.6364ZM257.204 35.2727L259.633 42.3807H259.731L262.16 35.2727H263.583L260.443 44H258.921L255.781 35.2727H257.204ZM264.844 44V35.2727H270.315V36.4062H266.16V39.0653H270.03V40.1946H266.16V42.8665H270.366V44H264.844ZM272.074 44V35.2727H275.185C275.861 35.2727 276.422 35.3892 276.868 35.6222C277.317 35.8551 277.652 36.1776 277.874 36.5895C278.095 36.9986 278.206 37.4716 278.206 38.0085C278.206 38.5426 278.094 39.0128 277.869 39.419C277.648 39.8224 277.313 40.1364 276.864 40.3608C276.418 40.5852 275.857 40.6974 275.181 40.6974H272.824V39.5639H275.061C275.487 39.5639 275.834 39.5028 276.101 39.3807C276.371 39.2585 276.568 39.081 276.693 38.848C276.818 38.6151 276.881 38.3352 276.881 38.0085C276.881 37.679 276.817 37.3935 276.689 37.152C276.564 36.9105 276.367 36.7259 276.097 36.598C275.83 36.4673 275.479 36.402 275.044 36.402H273.391V44H272.074ZM276.382 40.0625L278.539 44H277.039L274.925 40.0625H276.382ZM278.819 35.2727H280.314L282.594 39.2401H282.688L284.968 35.2727H286.464L283.297 40.5739V44H281.985V40.5739L278.819 35.2727Z" fill="#F0F6FF"/>
<path d="M509.333 40C509.333 41.4728 510.527 42.6667 512 42.6667C513.473 42.6667 514.667 41.4728 514.667 40C514.667 38.5272 513.473 37.3333 512 37.3333C510.527 37.3333 509.333 38.5272 509.333 40ZM512 40.5L776 40.5L776 39.5L512 39.5L512 40.5Z" fill="#DADADA"/>
<rect x="640" y="16" width="128" height="48" rx="10" fill="#19191B"/>
<path d="M660.042 35.2727L662.471 42.3807H662.569L664.998 35.2727H666.421L663.281 44H661.759L658.619 35.2727H660.042ZM668.998 35.2727V44H667.681V35.2727H668.998ZM675.676 37.5653C675.63 37.1619 675.443 36.8494 675.113 36.6278C674.784 36.4034 674.369 36.2912 673.869 36.2912C673.511 36.2912 673.201 36.348 672.94 36.4616C672.679 36.5724 672.475 36.7259 672.331 36.9219C672.189 37.1151 672.118 37.3352 672.118 37.5824C672.118 37.7898 672.166 37.9687 672.262 38.1193C672.362 38.2699 672.491 38.3963 672.65 38.4986C672.812 38.598 672.985 38.6818 673.17 38.75C673.355 38.8153 673.532 38.8693 673.703 38.9119L674.555 39.1335C674.833 39.2017 675.119 39.294 675.412 39.4105C675.704 39.527 675.975 39.6804 676.225 39.8707C676.475 40.0611 676.677 40.2969 676.831 40.5781C676.987 40.8594 677.065 41.196 677.065 41.5881C677.065 42.0824 676.937 42.5213 676.681 42.9048C676.429 43.2884 676.061 43.5909 675.578 43.8125C675.098 44.0341 674.517 44.1449 673.835 44.1449C673.181 44.1449 672.616 44.0412 672.139 43.8338C671.662 43.6264 671.288 43.3324 671.018 42.9517C670.748 42.5682 670.599 42.1136 670.571 41.5881H671.892C671.917 41.9034 672.02 42.1662 672.199 42.3764C672.38 42.5838 672.612 42.7386 672.893 42.8409C673.177 42.9403 673.488 42.9901 673.826 42.9901C674.199 42.9901 674.529 42.9318 674.819 42.8153C675.112 42.696 675.342 42.5312 675.51 42.321C675.677 42.108 675.761 41.8594 675.761 41.5753C675.761 41.3168 675.687 41.1051 675.539 40.9403C675.395 40.7756 675.197 40.6392 674.947 40.5312C674.7 40.4233 674.42 40.3281 674.108 40.2457L673.076 39.9645C672.377 39.7741 671.824 39.4943 671.414 39.125C671.008 38.7557 670.805 38.267 670.805 37.6591C670.805 37.1562 670.941 36.7173 671.214 36.3423C671.487 35.9673 671.856 35.6761 672.322 35.4688C672.788 35.2585 673.314 35.1534 673.899 35.1534C674.49 35.1534 675.011 35.2571 675.463 35.4645C675.917 35.6719 676.275 35.9574 676.537 36.321C676.798 36.6818 676.934 37.0966 676.946 37.5653H675.676ZM684.251 35.2727H685.572V41.0128C685.572 41.6236 685.428 42.1648 685.141 42.6364C684.854 43.1051 684.451 43.4744 683.931 43.7443C683.411 44.0114 682.802 44.1449 682.103 44.1449C681.407 44.1449 680.799 44.0114 680.279 43.7443C679.759 43.4744 679.356 43.1051 679.069 42.6364C678.782 42.1648 678.638 41.6236 678.638 41.0128V35.2727H679.955V40.9062C679.955 41.3011 680.042 41.652 680.215 41.9588C680.391 42.2656 680.64 42.5071 680.961 42.6832C681.282 42.8565 681.663 42.9432 682.103 42.9432C682.546 42.9432 682.928 42.8565 683.249 42.6832C683.573 42.5071 683.82 42.2656 683.991 41.9588C684.164 41.652 684.251 41.3011 684.251 40.9062V35.2727ZM688.223 44H686.826L689.966 35.2727H691.488L694.628 44H693.23L690.763 36.858H690.695L688.223 44ZM688.458 40.5824H692.992V41.6903H688.458V40.5824ZM695.888 44V35.2727H697.205V42.8665H701.16V44H695.888ZM708.663 44H705.838V35.2727H708.752C709.608 35.2727 710.342 35.4474 710.956 35.7969C711.569 36.1435 712.039 36.642 712.366 37.2926C712.696 37.9403 712.86 38.7173 712.86 39.6236C712.86 40.5327 712.694 41.3139 712.362 41.9673C712.032 42.6207 711.555 43.1236 710.93 43.4759C710.305 43.8253 709.549 44 708.663 44ZM707.154 42.8494H708.591C709.255 42.8494 709.808 42.7244 710.248 42.4744C710.689 42.2216 711.018 41.8565 711.237 41.3793C711.456 40.8991 711.565 40.3139 711.565 39.6236C711.565 38.9389 711.456 38.358 711.237 37.8807C711.021 37.4034 710.699 37.0412 710.27 36.794C709.841 36.5469 709.308 36.4233 708.672 36.4233H707.154V42.8494ZM714.498 44V35.2727H719.969V36.4062H715.815V39.0653H719.684V40.1946H715.815V42.8665H720.021V44H714.498ZM726.488 37.5653C726.443 37.1619 726.255 36.8494 725.926 36.6278C725.596 36.4034 725.181 36.2912 724.681 36.2912C724.324 36.2912 724.014 36.348 723.752 36.4616C723.491 36.5724 723.288 36.7259 723.143 36.9219C723.001 37.1151 722.93 37.3352 722.93 37.5824C722.93 37.7898 722.978 37.9687 723.075 38.1193C723.174 38.2699 723.304 38.3963 723.463 38.4986C723.625 38.598 723.798 38.6818 723.983 38.75C724.167 38.8153 724.345 38.8693 724.515 38.9119L725.368 39.1335C725.646 39.2017 725.931 39.294 726.224 39.4105C726.517 39.527 726.788 39.6804 727.038 39.8707C727.288 40.0611 727.49 40.2969 727.643 40.5781C727.799 40.8594 727.877 41.196 727.877 41.5881C727.877 42.0824 727.75 42.5213 727.494 42.9048C727.241 43.2884 726.873 43.5909 726.39 43.8125C725.91 44.0341 725.329 44.1449 724.647 44.1449C723.994 44.1449 723.429 44.0412 722.951 43.8338C722.474 43.6264 722.1 43.3324 721.831 42.9517C721.561 42.5682 721.412 42.1136 721.383 41.5881H722.704C722.73 41.9034 722.832 42.1662 723.011 42.3764C723.193 42.5838 723.424 42.7386 723.706 42.8409C723.99 42.9403 724.301 42.9901 724.639 42.9901C725.011 42.9901 725.342 42.9318 725.632 42.8153C725.924 42.696 726.154 42.5312 726.322 42.321C726.49 42.108 726.574 41.8594 726.574 41.5753C726.574 41.3168 726.5 41.1051 726.352 40.9403C726.207 40.7756 726.01 40.6392 725.76 40.5312C725.512 40.4233 725.233 40.3281 724.92 40.2457L723.889 39.9645C723.19 39.7741 722.636 39.4943 722.227 39.125C721.821 38.7557 721.618 38.267 721.618 37.6591C721.618 37.1562 721.754 36.7173 722.027 36.3423C722.299 35.9673 722.669 35.6761 723.135 35.4688C723.6 35.2585 724.126 35.1534 724.711 35.1534C725.302 35.1534 725.824 35.2571 726.275 35.4645C726.73 35.6719 727.088 35.9574 727.349 36.321C727.61 36.6818 727.747 37.0966 727.758 37.5653H726.488ZM730.768 35.2727V44H729.451V35.2727H730.768ZM738.592 38.0298C738.509 37.7713 738.398 37.5398 738.259 37.3352C738.123 37.1278 737.96 36.9517 737.769 36.8068C737.579 36.6591 737.362 36.5469 737.117 36.4702C736.876 36.3935 736.61 36.3551 736.32 36.3551C735.829 36.3551 735.386 36.4815 734.991 36.7344C734.596 36.9872 734.283 37.358 734.053 37.8466C733.826 38.3324 733.712 38.9276 733.712 39.6321C733.712 40.3395 733.827 40.9375 734.058 41.4261C734.288 41.9148 734.603 42.2855 735.004 42.5384C735.404 42.7912 735.86 42.9176 736.371 42.9176C736.846 42.9176 737.259 42.821 737.612 42.6278C737.967 42.4347 738.241 42.1619 738.434 41.8097C738.63 41.4545 738.728 41.0369 738.728 40.5568L739.069 40.6207H736.572V39.5341H740.002V40.527C740.002 41.2599 739.846 41.8963 739.533 42.4361C739.224 42.973 738.795 43.3878 738.246 43.6804C737.701 43.973 737.076 44.1193 736.371 44.1193C735.582 44.1193 734.888 43.9375 734.292 43.5739C733.698 43.2102 733.235 42.6946 732.903 42.027C732.57 41.3565 732.404 40.5611 732.404 39.6406C732.404 38.9446 732.501 38.3196 732.694 37.7656C732.887 37.2116 733.158 36.7415 733.508 36.3551C733.86 35.9659 734.273 35.669 734.748 35.4645C735.225 35.2571 735.746 35.1534 736.312 35.1534C736.783 35.1534 737.222 35.223 737.629 35.3622C738.038 35.5014 738.401 35.6989 738.719 35.9545C739.04 36.2102 739.306 36.5142 739.516 36.8665C739.727 37.2159 739.869 37.6037 739.942 38.0298H738.592ZM748.718 35.2727V44H747.507L743.071 37.5994H742.99V44H741.674V35.2727H742.892L747.333 41.6818H747.414V35.2727H748.718Z" fill="#F0F6FF"/>
<path d="M605.333 168C605.333 169.473 606.527 170.667 608 170.667C609.473 170.667 610.667 169.473 610.667 168C610.667 166.527 609.473 165.333 608 165.333C606.527 165.333 605.333 166.527 605.333 168ZM608 168.5L960 168.5L960 167.5L608 167.5L608 168.5Z" fill="#DADADA"/>
<rect x="736.5" y="144.5" width="223" height="47" rx="9.5" fill="#19191B" stroke="#19191B"/>
<path d="M786.4 172V163.273H789.511C790.187 163.273 790.748 163.389 791.194 163.622C791.643 163.855 791.978 164.178 792.2 164.589C792.422 164.999 792.532 165.472 792.532 166.009C792.532 166.543 792.42 167.013 792.196 167.419C791.974 167.822 791.639 168.136 791.19 168.361C790.744 168.585 790.183 168.697 789.507 168.697H787.15V167.564H789.387C789.814 167.564 790.16 167.503 790.427 167.381C790.697 167.259 790.895 167.081 791.02 166.848C791.145 166.615 791.207 166.335 791.207 166.009C791.207 165.679 791.143 165.393 791.015 165.152C790.89 164.911 790.693 164.726 790.423 164.598C790.156 164.467 789.805 164.402 789.37 164.402H787.717V172H786.4ZM790.708 168.062L792.865 172H791.365L789.251 168.062H790.708ZM794.135 172V163.273H799.606V164.406H795.451V167.065H799.321V168.195H795.451V170.866H799.657V172H794.135ZM801.365 172V163.273H802.682V170.866H806.636V172H801.365ZM808.138 172V163.273H813.61V164.406H809.455V167.065H813.325V168.195H809.455V170.866H813.661V172H808.138ZM816.106 172H814.708L817.849 163.273H819.37L822.511 172H821.113L818.646 164.858H818.578L816.106 172ZM816.341 168.582H820.875V169.69H816.341V168.582ZM828.461 165.565C828.415 165.162 828.228 164.849 827.898 164.628C827.569 164.403 827.154 164.291 826.654 164.291C826.296 164.291 825.987 164.348 825.725 164.462C825.464 164.572 825.261 164.726 825.116 164.922C824.974 165.115 824.903 165.335 824.903 165.582C824.903 165.79 824.951 165.969 825.048 166.119C825.147 166.27 825.276 166.396 825.435 166.499C825.597 166.598 825.771 166.682 825.955 166.75C826.14 166.815 826.317 166.869 826.488 166.912L827.34 167.134C827.619 167.202 827.904 167.294 828.197 167.411C828.489 167.527 828.761 167.68 829.011 167.871C829.261 168.061 829.462 168.297 829.616 168.578C829.772 168.859 829.85 169.196 829.85 169.588C829.85 170.082 829.722 170.521 829.467 170.905C829.214 171.288 828.846 171.591 828.363 171.812C827.883 172.034 827.302 172.145 826.62 172.145C825.967 172.145 825.401 172.041 824.924 171.834C824.447 171.626 824.073 171.332 823.803 170.952C823.533 170.568 823.384 170.114 823.356 169.588H824.677C824.702 169.903 824.805 170.166 824.984 170.376C825.165 170.584 825.397 170.739 825.678 170.841C825.962 170.94 826.273 170.99 826.612 170.99C826.984 170.99 827.315 170.932 827.604 170.815C827.897 170.696 828.127 170.531 828.295 170.321C828.462 170.108 828.546 169.859 828.546 169.575C828.546 169.317 828.472 169.105 828.325 168.94C828.18 168.776 827.982 168.639 827.732 168.531C827.485 168.423 827.205 168.328 826.893 168.246L825.862 167.964C825.163 167.774 824.609 167.494 824.2 167.125C823.793 166.756 823.59 166.267 823.59 165.659C823.59 165.156 823.727 164.717 823.999 164.342C824.272 163.967 824.641 163.676 825.107 163.469C825.573 163.259 826.099 163.153 826.684 163.153C827.275 163.153 827.796 163.257 828.248 163.464C828.702 163.672 829.06 163.957 829.322 164.321C829.583 164.682 829.719 165.097 829.731 165.565H828.461ZM831.424 172V163.273H836.895V164.406H832.74V167.065H836.61V168.195H832.74V170.866H836.946V172H831.424ZM844.267 172.124C843.682 172.124 843.178 172.017 842.755 171.804C842.334 171.591 842.01 171.301 841.783 170.935C841.556 170.565 841.442 170.148 841.442 169.682C841.442 169.327 841.516 169.011 841.664 168.736C841.811 168.457 842.017 168.2 842.282 167.964C842.546 167.729 842.851 167.491 843.198 167.253L844.604 166.26C844.843 166.104 845.029 165.939 845.162 165.766C845.296 165.589 845.363 165.372 845.363 165.114C845.363 164.909 845.275 164.713 845.098 164.526C844.922 164.338 844.686 164.244 844.391 164.244C844.186 164.244 844.006 164.294 843.85 164.393C843.696 164.493 843.576 164.621 843.488 164.777C843.402 164.93 843.36 165.092 843.36 165.263C843.36 165.462 843.414 165.662 843.522 165.864C843.632 166.065 843.775 166.274 843.948 166.49C844.121 166.703 844.303 166.925 844.493 167.155L848.546 172H847.105L843.752 168.058C843.471 167.726 843.209 167.413 842.968 167.121C842.726 166.825 842.53 166.527 842.38 166.226C842.232 165.922 842.158 165.594 842.158 165.241C842.158 164.841 842.249 164.486 842.431 164.176C842.615 163.864 842.873 163.619 843.202 163.443C843.532 163.267 843.918 163.179 844.361 163.179C844.81 163.179 845.195 163.267 845.516 163.443C845.84 163.616 846.088 163.848 846.262 164.138C846.438 164.425 846.526 164.739 846.526 165.08C846.526 165.494 846.422 165.861 846.215 166.179C846.01 166.494 845.728 166.784 845.367 167.048L843.615 168.339C843.275 168.589 843.037 168.837 842.904 169.081C842.773 169.322 842.708 169.511 842.708 169.648C842.708 169.898 842.772 170.129 842.9 170.342C843.03 170.555 843.212 170.726 843.445 170.854C843.681 170.982 843.956 171.045 844.272 171.045C844.596 171.045 844.911 170.976 845.218 170.837C845.527 170.695 845.807 170.491 846.057 170.227C846.31 169.963 846.51 169.646 846.658 169.277C846.806 168.908 846.88 168.494 846.88 168.037H848.03C848.03 168.599 847.966 169.075 847.838 169.464C847.711 169.851 847.556 170.166 847.374 170.411C847.195 170.652 847.026 170.841 846.867 170.977C846.816 171.023 846.767 171.068 846.722 171.114C846.676 171.159 846.628 171.205 846.577 171.25C846.282 171.548 845.924 171.768 845.503 171.911C845.086 172.053 844.674 172.124 844.267 172.124ZM857.582 165.565C857.537 165.162 857.349 164.849 857.02 164.628C856.69 164.403 856.275 164.291 855.775 164.291C855.417 164.291 855.108 164.348 854.846 164.462C854.585 164.572 854.382 164.726 854.237 164.922C854.095 165.115 854.024 165.335 854.024 165.582C854.024 165.79 854.072 165.969 854.169 166.119C854.268 166.27 854.397 166.396 854.556 166.499C854.718 166.598 854.892 166.682 855.076 166.75C855.261 166.815 855.439 166.869 855.609 166.912L856.461 167.134C856.74 167.202 857.025 167.294 857.318 167.411C857.61 167.527 857.882 167.68 858.132 167.871C858.382 168.061 858.583 168.297 858.737 168.578C858.893 168.859 858.971 169.196 858.971 169.588C858.971 170.082 858.843 170.521 858.588 170.905C858.335 171.288 857.967 171.591 857.484 171.812C857.004 172.034 856.423 172.145 855.741 172.145C855.088 172.145 854.522 172.041 854.045 171.834C853.568 171.626 853.194 171.332 852.924 170.952C852.654 170.568 852.505 170.114 852.477 169.588H853.798C853.824 169.903 853.926 170.166 854.105 170.376C854.287 170.584 854.518 170.739 854.799 170.841C855.083 170.94 855.395 170.99 855.733 170.99C856.105 170.99 856.436 170.932 856.725 170.815C857.018 170.696 857.248 170.531 857.416 170.321C857.583 170.108 857.667 169.859 857.667 169.575C857.667 169.317 857.593 169.105 857.446 168.94C857.301 168.776 857.103 168.639 856.853 168.531C856.606 168.423 856.326 168.328 856.014 168.246L854.983 167.964C854.284 167.774 853.73 167.494 853.321 167.125C852.914 166.756 852.711 166.267 852.711 165.659C852.711 165.156 852.848 164.717 853.12 164.342C853.393 163.967 853.762 163.676 854.228 163.469C854.694 163.259 855.22 163.153 855.805 163.153C856.396 163.153 856.917 163.257 857.369 163.464C857.824 163.672 858.181 163.957 858.443 164.321C858.704 164.682 858.841 165.097 858.852 165.565H857.582ZM866.157 163.273H867.478V169.013C867.478 169.624 867.335 170.165 867.048 170.636C866.761 171.105 866.357 171.474 865.837 171.744C865.317 172.011 864.708 172.145 864.009 172.145C863.313 172.145 862.705 172.011 862.185 171.744C861.665 171.474 861.262 171.105 860.975 170.636C860.688 170.165 860.545 169.624 860.545 169.013V163.273H861.862V168.906C861.862 169.301 861.948 169.652 862.121 169.959C862.298 170.266 862.546 170.507 862.867 170.683C863.188 170.857 863.569 170.943 864.009 170.943C864.452 170.943 864.835 170.857 865.156 170.683C865.479 170.507 865.727 170.266 865.897 169.959C866.07 169.652 866.157 169.301 866.157 168.906V163.273ZM869.392 172V163.273H872.503C873.182 163.273 873.745 163.396 874.191 163.643C874.637 163.891 874.971 164.229 875.192 164.658C875.414 165.084 875.525 165.564 875.525 166.098C875.525 166.635 875.412 167.118 875.188 167.547C874.966 167.973 874.631 168.311 874.182 168.561C873.736 168.808 873.175 168.932 872.499 168.932H870.36V167.815H872.38C872.809 167.815 873.157 167.741 873.424 167.594C873.691 167.443 873.887 167.239 874.012 166.98C874.137 166.722 874.199 166.428 874.199 166.098C874.199 165.768 874.137 165.476 874.012 165.22C873.887 164.964 873.689 164.764 873.419 164.619C873.152 164.474 872.8 164.402 872.363 164.402H870.709V172H869.392ZM877.068 172V163.273H880.179C880.858 163.273 881.42 163.396 881.866 163.643C882.313 163.891 882.646 164.229 882.868 164.658C883.089 165.084 883.2 165.564 883.2 166.098C883.2 166.635 883.088 167.118 882.864 167.547C882.642 167.973 882.307 168.311 881.858 168.561C881.412 168.808 880.851 168.932 880.175 168.932H878.036V167.815H880.055C880.484 167.815 880.832 167.741 881.099 167.594C881.366 167.443 881.562 167.239 881.688 166.98C881.812 166.722 881.875 166.428 881.875 166.098C881.875 165.768 881.812 165.476 881.688 165.22C881.562 164.964 881.365 164.764 881.095 164.619C880.828 164.474 880.476 164.402 880.038 164.402H878.385V172H877.068ZM892.325 167.636C892.325 168.568 892.154 169.369 891.814 170.04C891.473 170.707 891.005 171.222 890.412 171.582C889.821 171.94 889.149 172.119 888.396 172.119C887.64 172.119 886.966 171.94 886.372 171.582C885.781 171.222 885.315 170.706 884.974 170.036C884.633 169.365 884.463 168.565 884.463 167.636C884.463 166.705 884.633 165.905 884.974 165.237C885.315 164.567 885.781 164.053 886.372 163.695C886.966 163.334 887.64 163.153 888.396 163.153C889.149 163.153 889.821 163.334 890.412 163.695C891.005 164.053 891.473 164.567 891.814 165.237C892.154 165.905 892.325 166.705 892.325 167.636ZM891.021 167.636C891.021 166.926 890.906 166.328 890.676 165.842C890.449 165.354 890.136 164.984 889.738 164.734C889.343 164.482 888.896 164.355 888.396 164.355C887.893 164.355 887.444 164.482 887.049 164.734C886.654 164.984 886.342 165.354 886.112 165.842C885.885 166.328 885.771 166.926 885.771 167.636C885.771 168.347 885.885 168.946 886.112 169.435C886.342 169.92 886.654 170.29 887.049 170.543C887.444 170.793 887.893 170.918 888.396 170.918C888.896 170.918 889.343 170.793 889.738 170.543C890.136 170.29 890.449 169.92 890.676 169.435C890.906 168.946 891.021 168.347 891.021 167.636ZM893.967 172V163.273H897.077C897.754 163.273 898.315 163.389 898.761 163.622C899.21 163.855 899.545 164.178 899.766 164.589C899.988 164.999 900.099 165.472 900.099 166.009C900.099 166.543 899.987 167.013 899.762 167.419C899.54 167.822 899.205 168.136 898.756 168.361C898.31 168.585 897.749 168.697 897.073 168.697H894.717V167.564H896.954C897.38 167.564 897.727 167.503 897.994 167.381C898.263 167.259 898.461 167.081 898.586 166.848C898.711 166.615 898.773 166.335 898.773 166.009C898.773 165.679 898.71 165.393 898.582 165.152C898.457 164.911 898.259 164.726 897.989 164.598C897.722 164.467 897.371 164.402 896.937 164.402H895.283V172H893.967ZM898.275 168.062L900.431 172H898.931L896.817 168.062H898.275ZM901.271 164.406V163.273H908.025V164.406H905.302V172H903.989V164.406H901.271Z" fill="#F0F6FF"/>
<rect x="436" y="144" width="128" height="48" rx="10" fill="#19191B"/>
<path d="M463.757 172L461.337 163.273H462.722L464.422 170.031H464.503L466.272 163.273H467.644L469.412 170.036H469.493L471.189 163.273H472.578L470.154 172H468.828L466.992 165.463H466.924L465.087 172H463.757ZM475.096 163.273V172H473.779V163.273H475.096ZM477.013 172V163.273H480.124C480.8 163.273 481.362 163.389 481.808 163.622C482.256 163.855 482.592 164.178 482.813 164.589C483.035 164.999 483.146 165.472 483.146 166.009C483.146 166.543 483.033 167.013 482.809 167.419C482.587 167.822 482.252 168.136 481.803 168.361C481.357 168.585 480.796 168.697 480.12 168.697H477.763V167.564H480.001C480.427 167.564 480.773 167.503 481.04 167.381C481.31 167.259 481.508 167.081 481.633 166.848C481.758 166.615 481.82 166.335 481.82 166.009C481.82 165.679 481.756 165.393 481.629 165.152C481.504 164.911 481.306 164.726 481.036 164.598C480.769 164.467 480.418 164.402 479.984 164.402H478.33V172H477.013ZM481.322 168.062L483.478 172H481.978L479.864 168.062H481.322ZM484.748 172V163.273H490.219V164.406H486.065V167.065H489.934V168.195H486.065V170.866H490.271V172H484.748ZM491.978 172V163.273H497.39V164.406H493.295V167.065H497.002V168.195H493.295V172H491.978ZM499.01 172V163.273H502.12C502.797 163.273 503.358 163.389 503.804 163.622C504.252 163.855 504.588 164.178 504.809 164.589C505.031 164.999 505.142 165.472 505.142 166.009C505.142 166.543 505.029 167.013 504.805 167.419C504.583 167.822 504.248 168.136 503.799 168.361C503.353 168.585 502.792 168.697 502.116 168.697H499.76V167.564H501.997C502.423 167.564 502.77 167.503 503.037 167.381C503.306 167.259 503.504 167.081 503.629 166.848C503.754 166.615 503.816 166.335 503.816 166.009C503.816 165.679 503.752 165.393 503.625 165.152C503.5 164.911 503.302 164.726 503.032 164.598C502.765 164.467 502.414 164.402 501.98 164.402H500.326V172H499.01ZM503.318 168.062L505.474 172H503.974L501.86 168.062H503.318ZM507.481 172H506.083L509.224 163.273H510.745L513.886 172H512.488L510.021 164.858H509.953L507.481 172ZM507.716 168.582H512.25V169.69H507.716V168.582ZM515.146 163.273H516.744L519.523 170.057H519.625L522.403 163.273H524.001V172H522.749V165.685H522.668L520.094 171.987H519.054L516.48 165.68H516.399V172H515.146V163.273ZM525.916 172V163.273H531.387V164.406H527.233V167.065H531.102V168.195H527.233V170.866H531.439V172H525.916ZM537.906 165.565C537.861 165.162 537.673 164.849 537.344 164.628C537.014 164.403 536.599 164.291 536.099 164.291C535.741 164.291 535.432 164.348 535.17 164.462C534.909 164.572 534.706 164.726 534.561 164.922C534.419 165.115 534.348 165.335 534.348 165.582C534.348 165.79 534.396 165.969 534.493 166.119C534.592 166.27 534.722 166.396 534.881 166.499C535.043 166.598 535.216 166.682 535.401 166.75C535.585 166.815 535.763 166.869 535.933 166.912L536.786 167.134C537.064 167.202 537.349 167.294 537.642 167.411C537.935 167.527 538.206 167.68 538.456 167.871C538.706 168.061 538.908 168.297 539.061 168.578C539.217 168.859 539.295 169.196 539.295 169.588C539.295 170.082 539.168 170.521 538.912 170.905C538.659 171.288 538.291 171.591 537.808 171.812C537.328 172.034 536.747 172.145 536.065 172.145C535.412 172.145 534.847 172.041 534.369 171.834C533.892 171.626 533.518 171.332 533.249 170.952C532.979 170.568 532.83 170.114 532.801 169.588H534.122C534.148 169.903 534.25 170.166 534.429 170.376C534.611 170.584 534.842 170.739 535.124 170.841C535.408 170.94 535.719 170.99 536.057 170.99C536.429 170.99 536.76 170.932 537.05 170.815C537.342 170.696 537.572 170.531 537.74 170.321C537.908 170.108 537.991 169.859 537.991 169.575C537.991 169.317 537.918 169.105 537.77 168.94C537.625 168.776 537.428 168.639 537.178 168.531C536.93 168.423 536.651 168.328 536.338 168.246L535.307 167.964C534.608 167.774 534.054 167.494 533.645 167.125C533.239 166.756 533.036 166.267 533.036 165.659C533.036 165.156 533.172 164.717 533.445 164.342C533.717 163.967 534.087 163.676 534.553 163.469C535.018 163.259 535.544 163.153 536.129 163.153C536.72 163.153 537.241 163.257 537.693 163.464C538.148 163.672 538.506 163.957 538.767 164.321C539.028 164.682 539.165 165.097 539.176 165.565H537.906Z" fill="#F0F6FF"/>
<mask id="mask0_9728_20519" style="mask-type:alpha" maskUnits="userSpaceOnUse" x="0" y="0" width="80" height="80">
<circle cx="40" cy="40" r="40" fill="#E33230"/>
</mask>
<g mask="url(#mask0_9728_20519)">
<circle cx="40" cy="40" r="39.4496" fill="#E33230" stroke="#E33230" stroke-width="1.10077"/>
<path fill-rule="evenodd" clip-rule="evenodd" d="M40.7653 41.6257C38.3199 41.6257 36.4269 39.7489 36.4269 37.3633H30.9062C30.9062 42.6818 35.2836 46.9056 40.7653 46.9056V41.6257Z" fill="#19191B"/>
<path fill-rule="evenodd" clip-rule="evenodd" d="M40.7578 33.0994C43.2028 33.0994 45.0954 34.9766 45.0954 37.3622H50.6165C50.6165 32.0437 46.2391 27.8203 40.7578 27.8203V33.0994Z" fill="#19191B"/>
<path fill-rule="evenodd" clip-rule="evenodd" d="M40.7578 46.9056C46.2391 46.9056 50.6165 42.6818 50.6165 37.3633H45.0954C45.0954 39.7489 43.2028 41.6257 40.7578 41.6257V46.9056Z" fill="#19191B"/>
<path fill-rule="evenodd" clip-rule="evenodd" d="M42.5 31.8097H48.3763L52.3591 25.3184H46.4833L42.5 31.8097Z" fill="#19191B"/>
<path fill-rule="evenodd" clip-rule="evenodd" d="M28.6172 55.1957H34.493L41.0787 44.324H35.2033L28.6172 55.1957Z" fill="#19191B"/>
<path fill-rule="evenodd" clip-rule="evenodd" d="M31.1797 55.1975H50.9368V50.0352H31.9683L31.1797 55.1975Z" fill="#19191B"/>
<path fill-rule="evenodd" clip-rule="evenodd" d="M40.7653 27.8203C35.2836 27.8203 30.9062 32.0437 30.9062 37.3622H36.4269C36.4269 34.9766 38.3199 33.0994 40.7653 33.0994V27.8203Z" fill="#19191B"/>
</g>
</svg>
