<svg width="1320" height="188" viewBox="0 0 1320 188" fill="none" xmlns="http://www.w3.org/2000/svg">
<path d="M109.263 36C109.263 37.4728 110.457 38.6667 111.93 38.6667C113.402 38.6667 114.596 37.4728 114.596 36C114.596 34.5272 113.402 33.3333 111.93 33.3333C110.457 33.3333 109.263 34.5272 109.263 36ZM111.93 36.5H536.335V35.5H111.93V36.5Z" fill="#DADADA"/>
<path d="M278.333 100C278.333 101.473 279.527 102.667 281 102.667C282.473 102.667 283.667 101.473 283.667 100C283.667 98.5272 282.473 97.3333 281 97.3333C279.527 97.3333 278.333 98.5272 278.333 100ZM281 100.5H704.904V99.5H281V100.5Z" fill="#DADADA"/>
<path d="M360.279 164C360.279 165.473 361.473 166.667 362.945 166.667C364.418 166.667 365.612 165.473 365.612 164C365.612 162.527 364.418 161.333 362.945 161.333C361.473 161.333 360.279 162.527 360.279 164ZM362.945 164.5H889.5V163.5H362.945V164.5Z" fill="#DADADA"/>
<rect x="377" y="76" width="320" height="48" rx="10" fill="#19191B"/>
<path d="M511.002 98.9931C510.957 98.5897 510.769 98.2772 510.439 98.0556C510.11 97.8311 509.695 97.7189 509.195 97.7189C508.837 97.7189 508.528 97.7757 508.266 97.8894C508.005 98.0002 507.802 98.1536 507.657 98.3496C507.515 98.5428 507.444 98.763 507.444 99.0101C507.444 99.2175 507.492 99.3965 507.589 99.5471C507.688 99.6976 507.817 99.824 507.976 99.9263C508.138 100.026 508.312 100.11 508.496 100.178C508.681 100.243 508.859 100.297 509.029 100.34L509.881 100.561C510.16 100.629 510.445 100.722 510.738 100.838C511.03 100.955 511.302 101.108 511.552 101.298C511.802 101.489 512.003 101.725 512.157 102.006C512.313 102.287 512.391 102.624 512.391 103.016C512.391 103.51 512.263 103.949 512.008 104.333C511.755 104.716 511.387 105.019 510.904 105.24C510.424 105.462 509.843 105.573 509.161 105.573C508.508 105.573 507.942 105.469 507.465 105.262C506.988 105.054 506.614 104.76 506.344 104.379C506.074 103.996 505.925 103.541 505.897 103.016H507.218C507.243 103.331 507.346 103.594 507.525 103.804C507.707 104.012 507.938 104.166 508.219 104.269C508.503 104.368 508.814 104.418 509.153 104.418C509.525 104.418 509.856 104.36 510.145 104.243C510.438 104.124 510.668 103.959 510.836 103.749C511.003 103.536 511.087 103.287 511.087 103.003C511.087 102.744 511.013 102.533 510.866 102.368C510.721 102.203 510.523 102.067 510.273 101.959C510.026 101.851 509.746 101.756 509.434 101.673L508.403 101.392C507.704 101.202 507.15 100.922 506.741 100.553C506.334 100.183 506.131 99.6948 506.131 99.0868C506.131 98.584 506.268 98.1451 506.54 97.7701C506.813 97.3951 507.182 97.1039 507.648 96.8965C508.114 96.6863 508.64 96.5811 509.225 96.5811C509.816 96.5811 510.337 96.6848 510.789 96.8922C511.243 97.0996 511.601 97.3851 511.863 97.7488C512.124 98.1096 512.261 98.5243 512.272 98.9931H511.002ZM513.534 97.834V96.7005H520.289V97.834H517.566V105.428H516.253V97.834H513.534ZM521.781 105.428V96.7005H524.892C525.568 96.7005 526.129 96.8169 526.575 97.0499C527.024 97.2828 527.359 97.6053 527.581 98.0172C527.802 98.4263 527.913 98.8993 527.913 99.4363C527.913 99.9703 527.801 100.441 527.577 100.847C527.355 101.25 527.02 101.564 526.571 101.789C526.125 102.013 525.564 102.125 524.888 102.125H522.531V100.992H524.768C525.194 100.992 525.541 100.931 525.808 100.808C526.078 100.686 526.275 100.509 526.4 100.276C526.525 100.043 526.588 99.763 526.588 99.4363C526.588 99.1067 526.524 98.8212 526.396 98.5797C526.271 98.3382 526.074 98.1536 525.804 98.0257C525.537 97.8951 525.186 97.8297 524.751 97.8297H523.098V105.428H521.781ZM526.089 101.49L528.246 105.428H526.746L524.632 101.49H526.089ZM530.253 105.428H528.855L531.996 96.7005H533.517L536.658 105.428H535.26L532.792 98.2857H532.724L530.253 105.428ZM530.487 102.01H535.021V103.118H530.487V102.01ZM536.456 97.834V96.7005H543.21V97.834H540.487V105.428H539.175V97.834H536.456ZM544.703 105.428V96.7005H550.175V97.834H546.02V100.493H549.889V101.622H546.02V104.294H550.226V105.428H544.703ZM557.84 99.4576C557.757 99.199 557.647 98.9675 557.507 98.763C557.371 98.5556 557.208 98.3794 557.017 98.2346C556.827 98.0868 556.61 97.9746 556.365 97.8979C556.124 97.8212 555.858 97.7828 555.568 97.7828C555.077 97.7828 554.634 97.9093 554.239 98.1621C553.844 98.415 553.531 98.7857 553.301 99.2743C553.074 99.7601 552.96 100.355 552.96 101.06C552.96 101.767 553.076 102.365 553.306 102.854C553.536 103.343 553.851 103.713 554.252 103.966C554.652 104.219 555.108 104.345 555.62 104.345C556.094 104.345 556.507 104.249 556.86 104.056C557.215 103.862 557.489 103.59 557.682 103.237C557.878 102.882 557.976 102.465 557.976 101.985L558.317 102.048H555.82V100.962H559.25V101.955C559.25 102.688 559.094 103.324 558.781 103.864C558.472 104.401 558.043 104.816 557.495 105.108C556.949 105.401 556.324 105.547 555.62 105.547C554.83 105.547 554.137 105.365 553.54 105.002C552.946 104.638 552.483 104.122 552.151 103.455C551.818 102.784 551.652 101.989 551.652 101.068C551.652 100.372 551.749 99.7473 551.942 99.1934C552.135 98.6394 552.406 98.1692 552.756 97.7828C553.108 97.3936 553.522 97.0968 553.996 96.8922C554.473 96.6848 554.995 96.5811 555.56 96.5811C556.031 96.5811 556.47 96.6507 556.877 96.7899C557.286 96.9292 557.649 97.1266 557.968 97.3823C558.289 97.638 558.554 97.9419 558.764 98.2942C558.975 98.6436 559.117 99.0314 559.191 99.4576H557.84ZM559.955 96.7005H561.451L563.731 100.668H563.825L566.105 96.7005H567.6L564.434 102.002V105.428H563.122V102.002L559.955 96.7005Z" fill="#F0F6FF"/>
<rect x="208.086" y="12.5" width="319" height="47" rx="9.5" fill="#19191B" stroke="#19191B"/>
<path d="M337.124 41.4297H334.299V32.7024H337.214C338.069 32.7024 338.803 32.8771 339.417 33.2266C340.031 33.5732 340.501 34.0717 340.827 34.7223C341.157 35.37 341.322 36.147 341.322 37.0533C341.322 37.9624 341.156 38.7436 340.823 39.397C340.494 40.0504 340.016 40.5533 339.391 40.9055C338.766 41.255 338.011 41.4297 337.124 41.4297ZM335.616 40.2791H337.052C337.717 40.2791 338.269 40.1541 338.71 39.9041C339.15 39.6513 339.479 39.2862 339.698 38.8089C339.917 38.3288 340.026 37.7436 340.026 37.0533C340.026 36.3686 339.917 35.7876 339.698 35.3104C339.482 34.8331 339.16 34.4709 338.731 34.2237C338.302 33.9766 337.769 33.853 337.133 33.853H335.616V40.2791ZM344.276 32.7024V41.4297H342.959V32.7024H344.276ZM350.954 34.995C350.908 34.5916 350.721 34.2791 350.391 34.0575C350.062 33.8331 349.647 33.7209 349.147 33.7209C348.789 33.7209 348.479 33.7777 348.218 33.8913C347.956 34.0021 347.753 34.1555 347.608 34.3516C347.466 34.5447 347.395 34.7649 347.395 35.0121C347.395 35.2195 347.444 35.3984 347.54 35.549C347.64 35.6996 347.769 35.826 347.928 35.9283C348.09 36.0277 348.263 36.1115 348.448 36.1797C348.633 36.245 348.81 36.299 348.981 36.3416L349.833 36.5632C350.111 36.6314 350.397 36.7237 350.689 36.8402C350.982 36.9567 351.253 37.1101 351.503 37.3004C351.753 37.4908 351.955 37.7266 352.108 38.0078C352.265 38.2891 352.343 38.6257 352.343 39.0178C352.343 39.5121 352.215 39.951 351.959 40.3345C351.706 40.718 351.339 41.0206 350.856 41.2422C350.375 41.4638 349.794 41.5746 349.113 41.5746C348.459 41.5746 347.894 41.4709 347.417 41.2635C346.939 41.0561 346.566 40.7621 346.296 40.3814C346.026 39.9979 345.877 39.5433 345.848 39.0178H347.169C347.195 39.3331 347.297 39.5959 347.476 39.8061C347.658 40.0135 347.89 40.1683 348.171 40.2706C348.455 40.37 348.766 40.4197 349.104 40.4197C349.476 40.4197 349.807 40.3615 350.097 40.245C350.39 40.1257 350.62 39.9609 350.787 39.7507C350.955 39.5376 351.039 39.2891 351.039 39.005C351.039 38.7464 350.965 38.5348 350.817 38.37C350.672 38.2053 350.475 38.0689 350.225 37.9609C349.978 37.853 349.698 37.7578 349.385 37.6754L348.354 37.3942C347.655 37.2038 347.101 36.924 346.692 36.5547C346.286 36.1854 346.083 35.6967 346.083 35.0888C346.083 34.5859 346.219 34.147 346.492 33.772C346.765 33.397 347.134 33.1058 347.6 32.8984C348.066 32.6882 348.591 32.5831 349.177 32.5831C349.767 32.5831 350.289 32.6868 350.74 32.8942C351.195 33.1016 351.553 33.3871 351.814 33.7507C352.076 34.1115 352.212 34.5263 352.223 34.995H350.954ZM361.165 35.5405H359.835C359.784 35.2564 359.689 35.0064 359.55 34.7905C359.411 34.5746 359.24 34.3913 359.038 34.2408C358.837 34.0902 358.611 33.9766 358.361 33.8999C358.114 33.8232 357.851 33.7848 357.573 33.7848C357.07 33.7848 356.619 33.9112 356.222 34.1641C355.827 34.4169 355.514 34.7876 355.284 35.2763C355.057 35.7649 354.943 36.3615 354.943 37.0661C354.943 37.7763 355.057 38.3757 355.284 38.8643C355.514 39.353 355.828 39.7223 356.226 39.9723C356.624 40.2223 357.071 40.3473 357.568 40.3473C357.844 40.3473 358.105 40.3104 358.352 40.2365C358.602 40.1598 358.828 40.0476 359.03 39.8999C359.232 39.7521 359.402 39.5717 359.541 39.3587C359.683 39.1428 359.781 38.8956 359.835 38.6172L361.165 38.6214C361.094 39.0504 360.956 39.4453 360.752 39.8061C360.55 40.1641 360.29 40.4737 359.972 40.7351C359.656 40.9936 359.296 41.1939 358.889 41.3359C358.483 41.478 358.04 41.549 357.56 41.549C356.804 41.549 356.131 41.37 355.54 41.0121C354.949 40.6513 354.483 40.1357 354.142 39.4652C353.804 38.7947 353.635 37.995 353.635 37.0661C353.635 36.1342 353.805 35.3345 354.146 34.6669C354.487 33.9964 354.953 33.4822 355.544 33.1243C356.135 32.7635 356.807 32.5831 357.56 32.5831C358.023 32.5831 358.455 32.6499 358.855 32.7834C359.259 32.9141 359.621 33.1072 359.942 33.3629C360.263 33.6158 360.528 33.9254 360.739 34.2919C360.949 34.6555 361.091 35.0717 361.165 35.5405ZM370.321 37.0661C370.321 37.9979 370.151 38.799 369.81 39.4695C369.469 40.1371 369.002 40.6513 368.408 41.0121C367.817 41.37 367.145 41.549 366.392 41.549C365.637 41.549 364.962 41.37 364.368 41.0121C363.777 40.6513 363.312 40.1357 362.971 39.4652C362.63 38.7947 362.459 37.995 362.459 37.0661C362.459 36.1342 362.63 35.3345 362.971 34.6669C363.312 33.9964 363.777 33.4822 364.368 33.1243C364.962 32.7635 365.637 32.5831 366.392 32.5831C367.145 32.5831 367.817 32.7635 368.408 33.1243C369.002 33.4822 369.469 33.9964 369.81 34.6669C370.151 35.3345 370.321 36.1342 370.321 37.0661ZM369.017 37.0661C369.017 36.3558 368.902 35.7578 368.672 35.272C368.445 34.7834 368.133 34.4141 367.735 34.1641C367.34 33.9112 366.892 33.7848 366.392 33.7848C365.89 33.7848 365.441 33.9112 365.046 34.1641C364.651 34.4141 364.339 34.7834 364.108 35.272C363.881 35.7578 363.767 36.3558 363.767 37.0661C363.767 37.7763 363.881 38.3757 364.108 38.8643C364.339 39.3501 364.651 39.7195 365.046 39.9723C365.441 40.2223 365.89 40.3473 366.392 40.3473C366.892 40.3473 367.34 40.2223 367.735 39.9723C368.133 39.7195 368.445 39.3501 368.672 38.8643C368.902 38.3757 369.017 37.7763 369.017 37.0661ZM372.292 32.7024L374.721 39.8104H374.819L377.248 32.7024H378.672L375.531 41.4297H374.01L370.869 32.7024H372.292ZM379.932 41.4297V32.7024H385.403V33.8359H381.249V36.495H385.118V37.6243H381.249V40.2962H385.455V41.4297H379.932ZM387.162 41.4297V32.7024H390.273C390.949 32.7024 391.51 32.8189 391.956 33.0518C392.405 33.2848 392.74 33.6072 392.962 34.0192C393.184 34.4283 393.294 34.9013 393.294 35.4382C393.294 35.9723 393.182 36.4425 392.958 36.8487C392.736 37.2521 392.401 37.5661 391.952 37.7905C391.506 38.0149 390.945 38.1271 390.269 38.1271H387.912V36.9936H390.15C390.576 36.9936 390.922 36.9325 391.189 36.8104C391.459 36.6882 391.657 36.5107 391.782 36.2777C391.907 36.0447 391.969 35.7649 391.969 35.4382C391.969 35.1087 391.905 34.8232 391.777 34.5817C391.652 34.3402 391.455 34.1555 391.185 34.0277C390.918 33.897 390.567 33.8317 390.133 33.8317H388.479V41.4297H387.162ZM391.471 37.4922L393.627 41.4297H392.127L390.013 37.4922H391.471ZM393.907 32.7024H395.403L397.683 36.6697H397.776L400.056 32.7024H401.552L398.386 38.0036V41.4297H397.073V38.0036L393.907 32.7024Z" fill="#F0F6FF"/>
<path d="M789.333 36C789.333 37.4728 790.527 38.6667 792 38.6667C793.473 38.6667 794.667 37.4728 794.667 36C794.667 34.5272 793.473 33.3333 792 33.3333C790.527 33.3333 789.333 34.5272 789.333 36ZM792 36.5H1073.5V35.5H792V36.5Z" fill="#DADADA"/>
<rect x="888" y="12" width="176" height="48" rx="10" fill="#19191B"/>
<path d="M932.499 32.2727L934.928 39.3807H935.026L937.455 32.2727H938.879L935.738 41H934.217L931.076 32.2727H932.499ZM941.456 32.2727V41H940.139V32.2727H941.456ZM948.133 34.5653C948.088 34.1619 947.9 33.8494 947.571 33.6278C947.241 33.4034 946.826 33.2912 946.326 33.2912C945.968 33.2912 945.659 33.348 945.397 33.4616C945.136 33.5724 944.933 33.7259 944.788 33.9219C944.646 34.1151 944.575 34.3352 944.575 34.5824C944.575 34.7898 944.623 34.9687 944.72 35.1193C944.819 35.2699 944.949 35.3963 945.108 35.4986C945.27 35.598 945.443 35.6818 945.627 35.75C945.812 35.8153 945.99 35.8693 946.16 35.9119L947.012 36.1335C947.291 36.2017 947.576 36.294 947.869 36.4105C948.162 36.527 948.433 36.6804 948.683 36.8707C948.933 37.0611 949.135 37.2969 949.288 37.5781C949.444 37.8594 949.522 38.196 949.522 38.5881C949.522 39.0824 949.395 39.5213 949.139 39.9048C948.886 40.2884 948.518 40.5909 948.035 40.8125C947.555 41.0341 946.974 41.1449 946.292 41.1449C945.639 41.1449 945.074 41.0412 944.596 40.8338C944.119 40.6264 943.745 40.3324 943.476 39.9517C943.206 39.5682 943.056 39.1136 943.028 38.5881H944.349C944.375 38.9034 944.477 39.1662 944.656 39.3764C944.838 39.5838 945.069 39.7386 945.351 39.8409C945.635 39.9403 945.946 39.9901 946.284 39.9901C946.656 39.9901 946.987 39.9318 947.277 39.8153C947.569 39.696 947.799 39.5312 947.967 39.321C948.135 39.108 948.218 38.8594 948.218 38.5753C948.218 38.3168 948.145 38.1051 947.997 37.9403C947.852 37.7756 947.654 37.6392 947.404 37.5312C947.157 37.4233 946.877 37.3281 946.565 37.2457L945.534 36.9645C944.835 36.7741 944.281 36.4943 943.872 36.125C943.466 35.7557 943.262 35.267 943.262 34.6591C943.262 34.1562 943.399 33.7173 943.672 33.3423C943.944 32.9673 944.314 32.6761 944.779 32.4688C945.245 32.2585 945.771 32.1534 946.356 32.1534C946.947 32.1534 947.468 32.2571 947.92 32.4645C948.375 32.6719 948.733 32.9574 948.994 33.321C949.255 33.6818 949.392 34.0966 949.403 34.5653H948.133ZM956.708 32.2727H958.029V38.0128C958.029 38.6236 957.886 39.1648 957.599 39.6364C957.312 40.1051 956.908 40.4744 956.389 40.7443C955.869 41.0114 955.259 41.1449 954.56 41.1449C953.864 41.1449 953.256 41.0114 952.737 40.7443C952.217 40.4744 951.813 40.1051 951.526 39.6364C951.239 39.1648 951.096 38.6236 951.096 38.0128V32.2727H952.413V37.9062C952.413 38.3011 952.499 38.652 952.673 38.9588C952.849 39.2656 953.097 39.5071 953.418 39.6832C953.739 39.8565 954.12 39.9432 954.56 39.9432C955.004 39.9432 955.386 39.8565 955.707 39.6832C956.031 39.5071 956.278 39.2656 956.448 38.9588C956.621 38.652 956.708 38.3011 956.708 37.9062V32.2727ZM960.681 41H959.283L962.424 32.2727H963.945L967.086 41H965.688L963.221 33.858H963.152L960.681 41ZM960.915 37.5824H965.449V38.6903H960.915V37.5824ZM968.346 41V32.2727H969.663V39.8665H973.617V41H968.346ZM981.12 41H978.295V32.2727H981.21C982.065 32.2727 982.799 32.4474 983.413 32.7969C984.027 33.1435 984.497 33.642 984.824 34.2926C985.153 34.9403 985.318 35.7173 985.318 36.6236C985.318 37.5327 985.152 38.3139 984.819 38.9673C984.49 39.6207 984.012 40.1236 983.387 40.4759C982.762 40.8253 982.007 41 981.12 41ZM979.612 39.8494H981.048C981.713 39.8494 982.265 39.7244 982.706 39.4744C983.146 39.2216 983.476 38.8565 983.694 38.3793C983.913 37.8991 984.022 37.3139 984.022 36.6236C984.022 35.9389 983.913 35.358 983.694 34.8807C983.478 34.4034 983.156 34.0412 982.727 33.794C982.298 33.5469 981.765 33.4233 981.129 33.4233H979.612V39.8494ZM986.955 41V32.2727H992.427V33.4062H988.272V36.0653H992.141V37.1946H988.272V39.8665H992.478V41H986.955ZM998.946 34.5653C998.9 34.1619 998.713 33.8494 998.383 33.6278C998.054 33.4034 997.639 33.2912 997.139 33.2912C996.781 33.2912 996.471 33.348 996.21 33.4616C995.949 33.5724 995.745 33.7259 995.601 33.9219C995.458 34.1151 995.387 34.3352 995.387 34.5824C995.387 34.7898 995.436 34.9687 995.532 35.1193C995.632 35.2699 995.761 35.3963 995.92 35.4986C996.082 35.598 996.255 35.6818 996.44 35.75C996.625 35.8153 996.802 35.8693 996.973 35.9119L997.825 36.1335C998.103 36.2017 998.389 36.294 998.681 36.4105C998.974 36.527 999.245 36.6804 999.495 36.8707C999.745 37.0611 999.947 37.2969 1000.1 37.5781C1000.26 37.8594 1000.33 38.196 1000.33 38.5881C1000.33 39.0824 1000.21 39.5213 999.951 39.9048C999.699 40.2884 999.331 40.5909 998.848 40.8125C998.368 41.0341 997.787 41.1449 997.105 41.1449C996.451 41.1449 995.886 41.0412 995.409 40.8338C994.931 40.6264 994.558 40.3324 994.288 39.9517C994.018 39.5682 993.869 39.1136 993.841 38.5881H995.162C995.187 38.9034 995.289 39.1662 995.468 39.3764C995.65 39.5838 995.882 39.7386 996.163 39.8409C996.447 39.9403 996.758 39.9901 997.096 39.9901C997.468 39.9901 997.799 39.9318 998.089 39.8153C998.382 39.696 998.612 39.5312 998.779 39.321C998.947 39.108 999.031 38.8594 999.031 38.5753C999.031 38.3168 998.957 38.1051 998.809 37.9403C998.664 37.7756 998.467 37.6392 998.217 37.5312C997.97 37.4233 997.69 37.3281 997.377 37.2457L996.346 36.9645C995.647 36.7741 995.093 36.4943 994.684 36.125C994.278 35.7557 994.075 35.267 994.075 34.6591C994.075 34.1562 994.211 33.7173 994.484 33.3423C994.757 32.9673 995.126 32.6761 995.592 32.4688C996.058 32.2585 996.583 32.1534 997.169 32.1534C997.76 32.1534 998.281 32.2571 998.733 32.4645C999.187 32.6719 999.545 32.9574 999.806 33.321C1000.07 33.6818 1000.2 34.0966 1000.22 34.5653H998.946ZM1003.23 32.2727V41H1001.91V32.2727H1003.23ZM1011.05 35.0298C1010.97 34.7713 1010.86 34.5398 1010.72 34.3352C1010.58 34.1278 1010.42 33.9517 1010.23 33.8068C1010.04 33.6591 1009.82 33.5469 1009.57 33.4702C1009.33 33.3935 1009.07 33.3551 1008.78 33.3551C1008.29 33.3551 1007.84 33.4815 1007.45 33.7344C1007.05 33.9872 1006.74 34.358 1006.51 34.8466C1006.28 35.3324 1006.17 35.9276 1006.17 36.6321C1006.17 37.3395 1006.28 37.9375 1006.51 38.4261C1006.75 38.9148 1007.06 39.2855 1007.46 39.5384C1007.86 39.7912 1008.32 39.9176 1008.83 39.9176C1009.3 39.9176 1009.72 39.821 1010.07 39.6278C1010.42 39.4347 1010.7 39.1619 1010.89 38.8097C1011.09 38.4545 1011.19 38.0369 1011.19 37.5568L1011.53 37.6207H1009.03V36.5341H1012.46V37.527C1012.46 38.2599 1012.3 38.8963 1011.99 39.4361C1011.68 39.973 1011.25 40.3878 1010.7 40.6804C1010.16 40.973 1009.53 41.1193 1008.83 41.1193C1008.04 41.1193 1007.35 40.9375 1006.75 40.5739C1006.16 40.2102 1005.69 39.6946 1005.36 39.027C1005.03 38.3565 1004.86 37.5611 1004.86 36.6406C1004.86 35.9446 1004.96 35.3196 1005.15 34.7656C1005.34 34.2116 1005.62 33.7415 1005.97 33.3551C1006.32 32.9659 1006.73 32.669 1007.21 32.4645C1007.68 32.2571 1008.2 32.1534 1008.77 32.1534C1009.24 32.1534 1009.68 32.223 1010.09 32.3622C1010.5 32.5014 1010.86 32.6989 1011.18 32.9545C1011.5 33.2102 1011.76 33.5142 1011.97 33.8665C1012.18 34.2159 1012.33 34.6037 1012.4 35.0298H1011.05ZM1021.18 32.2727V41H1019.96L1015.53 34.5994H1015.45V41H1014.13V32.2727H1015.35L1019.79 38.6818H1019.87V32.2727H1021.18Z" fill="#F0F6FF"/>
<path d="M981.333 164C981.333 165.473 982.527 166.667 984 166.667C985.473 166.667 986.667 165.473 986.667 164C986.667 162.527 985.473 161.333 984 161.333C982.527 161.333 981.333 162.527 981.333 164ZM984 164.5H1320V163.5H984V164.5Z" fill="#DADADA"/>
<rect x="1074" y="140" width="239" height="48" rx="10" fill="#19191B"/>
<path d="M1132.86 169V160.273H1135.97C1136.64 160.273 1137.21 160.389 1137.65 160.622C1138.1 160.855 1138.44 161.178 1138.66 161.589C1138.88 161.999 1138.99 162.472 1138.99 163.009C1138.99 163.543 1138.88 164.013 1138.65 164.419C1138.43 164.822 1138.1 165.136 1137.65 165.361C1137.2 165.585 1136.64 165.697 1135.96 165.697H1133.61V164.564H1135.84C1136.27 164.564 1136.62 164.503 1136.88 164.381C1137.15 164.259 1137.35 164.081 1137.48 163.848C1137.6 163.615 1137.66 163.335 1137.66 163.009C1137.66 162.679 1137.6 162.393 1137.47 162.152C1137.35 161.911 1137.15 161.726 1136.88 161.598C1136.61 161.467 1136.26 161.402 1135.83 161.402H1134.17V169H1132.86ZM1137.17 165.062L1139.32 169H1137.82L1135.71 165.062H1137.17ZM1140.59 169V160.273H1146.06V161.406H1141.91V164.065H1145.78V165.195H1141.91V167.866H1146.11V169H1140.59ZM1147.82 169V160.273H1149.14V167.866H1153.09V169H1147.82ZM1154.6 169V160.273H1160.07V161.406H1155.91V164.065H1159.78V165.195H1155.91V167.866H1160.12V169H1154.6ZM1162.56 169H1161.17L1164.31 160.273H1165.83L1168.97 169H1167.57L1165.1 161.858H1165.04L1162.56 169ZM1162.8 165.582H1167.33V166.69H1162.8V165.582ZM1174.92 162.565C1174.87 162.162 1174.69 161.849 1174.36 161.628C1174.03 161.403 1173.61 161.291 1173.11 161.291C1172.75 161.291 1172.44 161.348 1172.18 161.462C1171.92 161.572 1171.72 161.726 1171.57 161.922C1171.43 162.115 1171.36 162.335 1171.36 162.582C1171.36 162.79 1171.41 162.969 1171.5 163.119C1171.6 163.27 1171.73 163.396 1171.89 163.499C1172.05 163.598 1172.23 163.682 1172.41 163.75C1172.6 163.815 1172.77 163.869 1172.95 163.912L1173.8 164.134C1174.08 164.202 1174.36 164.294 1174.65 164.411C1174.95 164.527 1175.22 164.68 1175.47 164.871C1175.72 165.061 1175.92 165.297 1176.07 165.578C1176.23 165.859 1176.31 166.196 1176.31 166.588C1176.31 167.082 1176.18 167.521 1175.92 167.905C1175.67 168.288 1175.3 168.591 1174.82 168.812C1174.34 169.034 1173.76 169.145 1173.08 169.145C1172.42 169.145 1171.86 169.041 1171.38 168.834C1170.9 168.626 1170.53 168.332 1170.26 167.952C1169.99 167.568 1169.84 167.114 1169.81 166.588H1171.13C1171.16 166.903 1171.26 167.166 1171.44 167.376C1171.62 167.584 1171.85 167.739 1172.14 167.841C1172.42 167.94 1172.73 167.99 1173.07 167.99C1173.44 167.99 1173.77 167.932 1174.06 167.815C1174.35 167.696 1174.58 167.531 1174.75 167.321C1174.92 167.108 1175 166.859 1175 166.575C1175 166.317 1174.93 166.105 1174.78 165.94C1174.64 165.776 1174.44 165.639 1174.19 165.531C1173.94 165.423 1173.66 165.328 1173.35 165.246L1172.32 164.964C1171.62 164.774 1171.07 164.494 1170.66 164.125C1170.25 163.756 1170.05 163.267 1170.05 162.659C1170.05 162.156 1170.18 161.717 1170.46 161.342C1170.73 160.967 1171.1 160.676 1171.56 160.469C1172.03 160.259 1172.56 160.153 1173.14 160.153C1173.73 160.153 1174.25 160.257 1174.71 160.464C1175.16 160.672 1175.52 160.957 1175.78 161.321C1176.04 161.682 1176.18 162.097 1176.19 162.565H1174.92ZM1177.88 169V160.273H1183.35V161.406H1179.2V164.065H1183.07V165.195H1179.2V167.866H1183.4V169H1177.88ZM1190.72 169.124C1190.14 169.124 1189.64 169.017 1189.21 168.804C1188.79 168.591 1188.47 168.301 1188.24 167.935C1188.01 167.565 1187.9 167.148 1187.9 166.682C1187.9 166.327 1187.97 166.011 1188.12 165.736C1188.27 165.457 1188.47 165.2 1188.74 164.964C1189 164.729 1189.31 164.491 1189.66 164.253L1191.06 163.26C1191.3 163.104 1191.49 162.939 1191.62 162.766C1191.75 162.589 1191.82 162.372 1191.82 162.114C1191.82 161.909 1191.73 161.713 1191.56 161.526C1191.38 161.338 1191.14 161.244 1190.85 161.244C1190.64 161.244 1190.46 161.294 1190.31 161.393C1190.15 161.493 1190.03 161.621 1189.94 161.777C1189.86 161.93 1189.82 162.092 1189.82 162.263C1189.82 162.462 1189.87 162.662 1189.98 162.864C1190.09 163.065 1190.23 163.274 1190.41 163.49C1190.58 163.703 1190.76 163.925 1190.95 164.155L1195 169H1193.56L1190.21 165.058C1189.93 164.726 1189.67 164.413 1189.43 164.121C1189.18 163.825 1188.99 163.527 1188.84 163.226C1188.69 162.922 1188.62 162.594 1188.62 162.241C1188.62 161.841 1188.71 161.486 1188.89 161.176C1189.07 160.864 1189.33 160.619 1189.66 160.443C1189.99 160.267 1190.38 160.179 1190.82 160.179C1191.27 160.179 1191.65 160.267 1191.97 160.443C1192.3 160.616 1192.55 160.848 1192.72 161.138C1192.9 161.425 1192.98 161.739 1192.98 162.08C1192.98 162.494 1192.88 162.861 1192.67 163.179C1192.47 163.494 1192.19 163.784 1191.82 164.048L1190.07 165.339C1189.73 165.589 1189.49 165.837 1189.36 166.081C1189.23 166.322 1189.17 166.511 1189.17 166.648C1189.17 166.898 1189.23 167.129 1189.36 167.342C1189.49 167.555 1189.67 167.726 1189.9 167.854C1190.14 167.982 1190.41 168.045 1190.73 168.045C1191.05 168.045 1191.37 167.976 1191.68 167.837C1191.98 167.695 1192.26 167.491 1192.51 167.227C1192.77 166.963 1192.97 166.646 1193.12 166.277C1193.26 165.908 1193.34 165.494 1193.34 165.037H1194.49C1194.49 165.599 1194.42 166.075 1194.3 166.464C1194.17 166.851 1194.01 167.166 1193.83 167.411C1193.65 167.652 1193.48 167.841 1193.32 167.977C1193.27 168.023 1193.22 168.068 1193.18 168.114C1193.13 168.159 1193.09 168.205 1193.03 168.25C1192.74 168.548 1192.38 168.768 1191.96 168.911C1191.54 169.053 1191.13 169.124 1190.72 169.124ZM1204.04 162.565C1203.99 162.162 1203.81 161.849 1203.48 161.628C1203.15 161.403 1202.73 161.291 1202.23 161.291C1201.87 161.291 1201.56 161.348 1201.3 161.462C1201.04 161.572 1200.84 161.726 1200.69 161.922C1200.55 162.115 1200.48 162.335 1200.48 162.582C1200.48 162.79 1200.53 162.969 1200.63 163.119C1200.73 163.27 1200.85 163.396 1201.01 163.499C1201.18 163.598 1201.35 163.682 1201.53 163.75C1201.72 163.815 1201.9 163.869 1202.07 163.912L1202.92 164.134C1203.2 164.202 1203.48 164.294 1203.78 164.411C1204.07 164.527 1204.34 164.68 1204.59 164.871C1204.84 165.061 1205.04 165.297 1205.19 165.578C1205.35 165.859 1205.43 166.196 1205.43 166.588C1205.43 167.082 1205.3 167.521 1205.05 167.905C1204.79 168.288 1204.42 168.591 1203.94 168.812C1203.46 169.034 1202.88 169.145 1202.2 169.145C1201.55 169.145 1200.98 169.041 1200.5 168.834C1200.03 168.626 1199.65 168.332 1199.38 167.952C1199.11 167.568 1198.96 167.114 1198.93 166.588H1200.26C1200.28 166.903 1200.38 167.166 1200.56 167.376C1200.74 167.584 1200.98 167.739 1201.26 167.841C1201.54 167.94 1201.85 167.99 1202.19 167.99C1202.56 167.99 1202.89 167.932 1203.18 167.815C1203.48 167.696 1203.71 167.531 1203.87 167.321C1204.04 167.108 1204.12 166.859 1204.12 166.575C1204.12 166.317 1204.05 166.105 1203.9 165.94C1203.76 165.776 1203.56 165.639 1203.31 165.531C1203.06 165.423 1202.78 165.328 1202.47 165.246L1201.44 164.964C1200.74 164.774 1200.19 164.494 1199.78 164.125C1199.37 163.756 1199.17 163.267 1199.17 162.659C1199.17 162.156 1199.31 161.717 1199.58 161.342C1199.85 160.967 1200.22 160.676 1200.69 160.469C1201.15 160.259 1201.68 160.153 1202.26 160.153C1202.85 160.153 1203.37 160.257 1203.83 160.464C1204.28 160.672 1204.64 160.957 1204.9 161.321C1205.16 161.682 1205.3 162.097 1205.31 162.565H1204.04ZM1212.61 160.273H1213.94V166.013C1213.94 166.624 1213.79 167.165 1213.5 167.636C1213.22 168.105 1212.81 168.474 1212.29 168.744C1211.77 169.011 1211.17 169.145 1210.47 169.145C1209.77 169.145 1209.16 169.011 1208.64 168.744C1208.12 168.474 1207.72 168.105 1207.43 167.636C1207.15 167.165 1207 166.624 1207 166.013V160.273H1208.32V165.906C1208.32 166.301 1208.41 166.652 1208.58 166.959C1208.75 167.266 1209 167.507 1209.32 167.683C1209.65 167.857 1210.03 167.943 1210.47 167.943C1210.91 167.943 1211.29 167.857 1211.61 167.683C1211.94 167.507 1212.18 167.266 1212.35 166.959C1212.53 166.652 1212.61 166.301 1212.61 165.906V160.273ZM1215.85 169V160.273H1218.96C1219.64 160.273 1220.2 160.396 1220.65 160.643C1221.09 160.891 1221.43 161.229 1221.65 161.658C1221.87 162.084 1221.98 162.564 1221.98 163.098C1221.98 163.635 1221.87 164.118 1221.65 164.547C1221.42 164.973 1221.09 165.311 1220.64 165.561C1220.19 165.808 1219.63 165.932 1218.96 165.932H1216.82V164.815H1218.84C1219.27 164.815 1219.61 164.741 1219.88 164.594C1220.15 164.443 1220.34 164.239 1220.47 163.98C1220.59 163.722 1220.66 163.428 1220.66 163.098C1220.66 162.768 1220.59 162.476 1220.47 162.22C1220.34 161.964 1220.15 161.764 1219.88 161.619C1219.61 161.474 1219.26 161.402 1218.82 161.402H1217.17V169H1215.85ZM1223.53 169V160.273H1226.64C1227.32 160.273 1227.88 160.396 1228.32 160.643C1228.77 160.891 1229.1 161.229 1229.33 161.658C1229.55 162.084 1229.66 162.564 1229.66 163.098C1229.66 163.635 1229.55 164.118 1229.32 164.547C1229.1 164.973 1228.76 165.311 1228.32 165.561C1227.87 165.808 1227.31 165.932 1226.63 165.932H1224.49V164.815H1226.51C1226.94 164.815 1227.29 164.741 1227.56 164.594C1227.82 164.443 1228.02 164.239 1228.14 163.98C1228.27 163.722 1228.33 163.428 1228.33 163.098C1228.33 162.768 1228.27 162.476 1228.14 162.22C1228.02 161.964 1227.82 161.764 1227.55 161.619C1227.29 161.474 1226.93 161.402 1226.5 161.402H1224.84V169H1223.53ZM1238.78 164.636C1238.78 165.568 1238.61 166.369 1238.27 167.04C1237.93 167.707 1237.46 168.222 1236.87 168.582C1236.28 168.94 1235.61 169.119 1234.85 169.119C1234.1 169.119 1233.42 168.94 1232.83 168.582C1232.24 168.222 1231.77 167.706 1231.43 167.036C1231.09 166.365 1230.92 165.565 1230.92 164.636C1230.92 163.705 1231.09 162.905 1231.43 162.237C1231.77 161.567 1232.24 161.053 1232.83 160.695C1233.42 160.334 1234.1 160.153 1234.85 160.153C1235.61 160.153 1236.28 160.334 1236.87 160.695C1237.46 161.053 1237.93 161.567 1238.27 162.237C1238.61 162.905 1238.78 163.705 1238.78 164.636ZM1237.48 164.636C1237.48 163.926 1237.36 163.328 1237.13 162.842C1236.91 162.354 1236.59 161.984 1236.2 161.734C1235.8 161.482 1235.35 161.355 1234.85 161.355C1234.35 161.355 1233.9 161.482 1233.51 161.734C1233.11 161.984 1232.8 162.354 1232.57 162.842C1232.34 163.328 1232.23 163.926 1232.23 164.636C1232.23 165.347 1232.34 165.946 1232.57 166.435C1232.8 166.92 1233.11 167.29 1233.51 167.543C1233.9 167.793 1234.35 167.918 1234.85 167.918C1235.35 167.918 1235.8 167.793 1236.2 167.543C1236.59 167.29 1236.91 166.92 1237.13 166.435C1237.36 165.946 1237.48 165.347 1237.48 164.636ZM1240.42 169V160.273H1243.53C1244.21 160.273 1244.77 160.389 1245.22 160.622C1245.67 160.855 1246 161.178 1246.22 161.589C1246.45 161.999 1246.56 162.472 1246.56 163.009C1246.56 163.543 1246.44 164.013 1246.22 164.419C1246 164.822 1245.66 165.136 1245.21 165.361C1244.77 165.585 1244.21 165.697 1243.53 165.697H1241.17V164.564H1243.41C1243.84 164.564 1244.18 164.503 1244.45 164.381C1244.72 164.259 1244.92 164.081 1245.04 163.848C1245.17 163.615 1245.23 163.335 1245.23 163.009C1245.23 162.679 1245.17 162.393 1245.04 162.152C1244.91 161.911 1244.72 161.726 1244.45 161.598C1244.18 161.467 1243.83 161.402 1243.39 161.402H1241.74V169H1240.42ZM1244.73 165.062L1246.89 169H1245.39L1243.27 165.062H1244.73ZM1247.73 161.406V160.273H1254.48V161.406H1251.76V169H1250.45V161.406H1247.73Z" fill="#F0F6FF"/>
<rect x="705" y="140" width="176" height="48" rx="10" fill="#19191B"/>
<path d="M756.257 168L753.837 159.273H755.222L756.922 166.031H757.003L758.772 159.273H760.144L761.912 166.036H761.993L763.689 159.273H765.078L762.654 168H761.328L759.492 161.463H759.424L757.587 168H756.257ZM767.596 159.273V168H766.279V159.273H767.596ZM769.513 168V159.273H772.624C773.3 159.273 773.862 159.389 774.308 159.622C774.756 159.855 775.092 160.178 775.313 160.589C775.535 160.999 775.646 161.472 775.646 162.009C775.646 162.543 775.533 163.013 775.309 163.419C775.087 163.822 774.752 164.136 774.303 164.361C773.857 164.585 773.296 164.697 772.62 164.697H770.263V163.564H772.501C772.927 163.564 773.273 163.503 773.54 163.381C773.81 163.259 774.008 163.081 774.133 162.848C774.258 162.615 774.32 162.335 774.32 162.009C774.32 161.679 774.256 161.393 774.129 161.152C774.004 160.911 773.806 160.726 773.536 160.598C773.269 160.467 772.918 160.402 772.484 160.402H770.83V168H769.513ZM773.822 164.062L775.978 168H774.478L772.364 164.062H773.822ZM777.248 168V159.273H782.719V160.406H778.565V163.065H782.434V164.195H778.565V166.866H782.771V168H777.248ZM784.478 168V159.273H789.89V160.406H785.795V163.065H789.502V164.195H785.795V168H784.478ZM791.51 168V159.273H794.62C795.297 159.273 795.858 159.389 796.304 159.622C796.752 159.855 797.088 160.178 797.309 160.589C797.531 160.999 797.642 161.472 797.642 162.009C797.642 162.543 797.529 163.013 797.305 163.419C797.083 163.822 796.748 164.136 796.299 164.361C795.853 164.585 795.292 164.697 794.616 164.697H792.26V163.564H794.497C794.923 163.564 795.27 163.503 795.537 163.381C795.806 163.259 796.004 163.081 796.129 162.848C796.254 162.615 796.316 162.335 796.316 162.009C796.316 161.679 796.252 161.393 796.125 161.152C796 160.911 795.802 160.726 795.532 160.598C795.265 160.467 794.914 160.402 794.48 160.402H792.826V168H791.51ZM795.818 164.062L797.974 168H796.474L794.36 164.062H795.818ZM799.981 168H798.583L801.724 159.273H803.245L806.386 168H804.988L802.521 160.858H802.453L799.981 168ZM800.216 164.582H804.75V165.69H800.216V164.582ZM807.646 159.273H809.244L812.023 166.057H812.125L814.903 159.273H816.501V168H815.249V161.685H815.168L812.594 167.987H811.554L808.98 161.68H808.899V168H807.646V159.273ZM818.416 168V159.273H823.887V160.406H819.733V163.065H823.602V164.195H819.733V166.866H823.939V168H818.416ZM830.406 161.565C830.361 161.162 830.173 160.849 829.844 160.628C829.514 160.403 829.099 160.291 828.599 160.291C828.241 160.291 827.932 160.348 827.67 160.462C827.409 160.572 827.206 160.726 827.061 160.922C826.919 161.115 826.848 161.335 826.848 161.582C826.848 161.79 826.896 161.969 826.993 162.119C827.092 162.27 827.222 162.396 827.381 162.499C827.543 162.598 827.716 162.682 827.901 162.75C828.085 162.815 828.263 162.869 828.433 162.912L829.286 163.134C829.564 163.202 829.849 163.294 830.142 163.411C830.435 163.527 830.706 163.68 830.956 163.871C831.206 164.061 831.408 164.297 831.561 164.578C831.717 164.859 831.795 165.196 831.795 165.588C831.795 166.082 831.668 166.521 831.412 166.905C831.159 167.288 830.791 167.591 830.308 167.812C829.828 168.034 829.247 168.145 828.565 168.145C827.912 168.145 827.347 168.041 826.869 167.834C826.392 167.626 826.018 167.332 825.749 166.952C825.479 166.568 825.33 166.114 825.301 165.588H826.622C826.648 165.903 826.75 166.166 826.929 166.376C827.111 166.584 827.342 166.739 827.624 166.841C827.908 166.94 828.219 166.99 828.557 166.99C828.929 166.99 829.26 166.932 829.55 166.815C829.842 166.696 830.072 166.531 830.24 166.321C830.408 166.108 830.491 165.859 830.491 165.575C830.491 165.317 830.418 165.105 830.27 164.94C830.125 164.776 829.928 164.639 829.678 164.531C829.43 164.423 829.151 164.328 828.838 164.246L827.807 163.964C827.108 163.774 826.554 163.494 826.145 163.125C825.739 162.756 825.536 162.267 825.536 161.659C825.536 161.156 825.672 160.717 825.945 160.342C826.217 159.967 826.587 159.676 827.053 159.469C827.518 159.259 828.044 159.153 828.629 159.153C829.22 159.153 829.741 159.257 830.193 159.464C830.648 159.672 831.006 159.957 831.267 160.321C831.528 160.682 831.665 161.097 831.676 161.565H830.406Z" fill="#F0F6FF"/>
<mask id="mask0_9728_19120" style="mask-type:alpha" maskUnits="userSpaceOnUse" x="0" y="0" width="73" height="73">
<circle cx="36.3382" cy="36.3382" r="36.3382" fill="#E33230"/>
</mask>
<g mask="url(#mask0_9728_19120)">
<circle cx="36.3382" cy="36.3382" r="35.8382" fill="#E33230" stroke="#E33230"/>
<path fill-rule="evenodd" clip-rule="evenodd" d="M37.0347 37.8136C34.8131 37.8136 33.0934 36.1086 33.0934 33.9414H28.0781C28.0781 38.773 32.0547 42.6101 37.0347 42.6101V37.8136Z" fill="#19191B"/>
<path fill-rule="evenodd" clip-rule="evenodd" d="M37.0312 30.0692C39.2524 30.0692 40.9717 31.7746 40.9717 33.9418H45.9874C45.9874 29.1101 42.0108 25.2734 37.0312 25.2734V30.0692Z" fill="#19191B"/>
<path fill-rule="evenodd" clip-rule="evenodd" d="M37.0312 42.6101C42.0108 42.6101 45.9874 38.773 45.9874 33.9414H40.9717C40.9717 36.1086 39.2524 37.8136 37.0312 37.8136V42.6101Z" fill="#19191B"/>
<path fill-rule="evenodd" clip-rule="evenodd" d="M38.6094 28.8971H43.9477L47.5659 23H42.228L38.6094 28.8971Z" fill="#19191B"/>
<path fill-rule="evenodd" clip-rule="evenodd" d="M26 50.1421H31.3379L37.3207 40.2656H31.9832L26 50.1421Z" fill="#19191B"/>
<path fill-rule="evenodd" clip-rule="evenodd" d="M28.3281 50.1429H46.2766V45.4531H29.0445L28.3281 50.1429Z" fill="#19191B"/>
<path fill-rule="evenodd" clip-rule="evenodd" d="M37.0347 25.2734C32.0547 25.2734 28.0781 29.1101 28.0781 33.9418H33.0934C33.0934 31.7746 34.8131 30.0692 37.0347 30.0692V25.2734Z" fill="#19191B"/>
</g>
</svg>
