<svg xmlns="http://www.w3.org/2000/svg" width="311" height="686" viewBox="0 0 311 686" fill="none">
<mask id="mask0_10840_15213" style="mask-type:alpha" maskUnits="userSpaceOnUse" x="13" y="0" width="80" height="80">
<circle cx="53" cy="40" r="40" fill="#E33230"/>
</mask>
<g mask="url(#mask0_10840_15213)">
<circle cx="53" cy="40" r="39.4496" fill="#E33230" stroke="#E33230" stroke-width="1.10077"/>
<path fill-rule="evenodd" clip-rule="evenodd" d="M53.6798 41.3073C51.1277 41.3073 49.1521 39.4305 49.1521 37.0449L43.3906 37.0449C43.3906 42.3635 47.9589 46.5872 53.6798 46.5872L53.6798 41.3073Z" fill="#19191B"/>
<path fill-rule="evenodd" clip-rule="evenodd" d="M53.6719 32.781C56.2235 32.781 58.1987 34.6582 58.1987 37.0438L63.9606 37.0438C63.9606 31.7253 59.3923 27.502 53.6719 27.502L53.6719 32.781Z" fill="#19191B"/>
<path fill-rule="evenodd" clip-rule="evenodd" d="M53.6719 46.5872C59.3923 46.5872 63.9606 42.3635 63.9606 37.0449L58.1987 37.0449C58.1987 39.4305 56.2235 41.3073 53.6719 41.3073L53.6719 46.5872Z" fill="#19191B"/>
<path fill-rule="evenodd" clip-rule="evenodd" d="M55.4883 31.4914L61.6209 31.4914L65.7775 25L59.6453 25L55.4883 31.4914Z" fill="#19191B"/>
<path fill-rule="evenodd" clip-rule="evenodd" d="M41 54.8776L47.1322 54.8776L54.0052 44.0059L47.8734 44.0059L41 54.8776Z" fill="#19191B"/>
<path fill-rule="evenodd" clip-rule="evenodd" d="M43.6758 54.8792L64.2948 54.8792L64.2948 49.7168L44.4988 49.7168L43.6758 54.8792Z" fill="#19191B"/>
<path fill-rule="evenodd" clip-rule="evenodd" d="M53.6798 27.502C47.9589 27.502 43.3906 31.7253 43.3906 37.0438L49.1521 37.0438C49.1521 34.6582 51.1277 32.781 53.6798 32.781L53.6798 27.502Z" fill="#19191B"/>
</g>
<path d="M46 109.333C44.5272 109.333 43.3333 110.527 43.3333 112C43.3333 113.473 44.5272 114.667 46 114.667C47.4728 114.667 48.6667 113.473 48.6667 112C48.6667 110.527 47.4728 109.333 46 109.333ZM45.5 112L45.5 154L46.5 154L46.5 112L45.5 112Z" fill="#19191B" fill-opacity="0.15"/>
<rect x="6.44849" y="154.448" width="149.103" height="39.103" rx="7.55151" fill="#19191B"/>
<rect x="6.44849" y="154.448" width="149.103" height="39.103" rx="7.55151" stroke="#19191B" stroke-width="0.896971"/>
<path d="M46.7639 169.273V178H45.4472V169.273H46.7639ZM55.9656 169.273V178H54.7553L50.3193 171.599H50.2383V178H48.9215V169.273H50.1403L54.5806 175.682H54.6616V169.273H55.9656ZM57.696 170.406V169.273H64.4502V170.406H61.7272V178H60.4147V170.406H57.696ZM66.1828 178V169.273H69.2936C69.9697 169.273 70.5308 169.389 70.9768 169.622C71.4257 169.855 71.7609 170.178 71.9825 170.589C72.2041 170.999 72.3149 171.472 72.3149 172.009C72.3149 172.543 72.2027 173.013 71.9782 173.419C71.7567 173.822 71.4214 174.136 70.9726 174.361C70.5265 174.585 69.9655 174.697 69.2893 174.697H66.9328V173.564H69.17C69.5961 173.564 69.9427 173.503 70.2098 173.381C70.4797 173.259 70.6771 173.081 70.8021 172.848C70.9271 172.615 70.9896 172.335 70.9896 172.009C70.9896 171.679 70.9257 171.393 70.7978 171.152C70.6728 170.911 70.4754 170.726 70.2055 170.598C69.9385 170.467 69.5876 170.402 69.153 170.402H67.4996V178H66.1828ZM70.491 174.062L72.6473 178H71.1473L69.0336 174.062H70.491ZM81.7381 173.636C81.7381 174.568 81.5677 175.369 81.2268 176.04C80.8859 176.707 80.4185 177.222 79.8248 177.582C79.2339 177.94 78.562 178.119 77.8092 178.119C77.0535 178.119 76.3788 177.94 75.785 177.582C75.1941 177.222 74.7282 176.706 74.3873 176.036C74.0464 175.365 73.8759 174.565 73.8759 173.636C73.8759 172.705 74.0464 171.905 74.3873 171.237C74.7282 170.567 75.1941 170.053 75.785 169.695C76.3788 169.334 77.0535 169.153 77.8092 169.153C78.562 169.153 79.2339 169.334 79.8248 169.695C80.4185 170.053 80.8859 170.567 81.2268 171.237C81.5677 171.905 81.7381 172.705 81.7381 173.636ZM80.4342 173.636C80.4342 172.926 80.3191 172.328 80.089 171.842C79.8617 171.354 79.5492 170.984 79.1515 170.734C78.7566 170.482 78.3092 170.355 77.8092 170.355C77.3063 170.355 76.8574 170.482 76.4626 170.734C76.0677 170.984 75.7552 171.354 75.5251 171.842C75.2978 172.328 75.1842 172.926 75.1842 173.636C75.1842 174.347 75.2978 174.946 75.5251 175.435C75.7552 175.92 76.0677 176.29 76.4626 176.543C76.8574 176.793 77.3063 176.918 77.8092 176.918C78.3092 176.918 78.7566 176.793 79.1515 176.543C79.5492 176.29 79.8617 175.92 80.089 175.435C80.3191 174.946 80.4342 174.347 80.4342 173.636ZM94.2842 172.111H92.9546C92.9035 171.827 92.8083 171.577 92.6691 171.361C92.5299 171.145 92.3595 170.962 92.1578 170.811C91.9561 170.661 91.7302 170.547 91.4802 170.47C91.233 170.393 90.9703 170.355 90.6919 170.355C90.189 170.355 89.7387 170.482 89.341 170.734C88.9461 170.987 88.6336 171.358 88.4035 171.847C88.1762 172.335 88.0626 172.932 88.0626 173.636C88.0626 174.347 88.1762 174.946 88.4035 175.435C88.6336 175.923 88.9475 176.293 89.3453 176.543C89.743 176.793 90.1904 176.918 90.6876 176.918C90.9632 176.918 91.2245 176.881 91.4717 176.807C91.7217 176.73 91.9475 176.618 92.1492 176.47C92.3509 176.322 92.5214 176.142 92.6606 175.929C92.8026 175.713 92.9007 175.466 92.9546 175.188L94.2842 175.192C94.2132 175.621 94.0754 176.016 93.8708 176.376C93.6691 176.734 93.4092 177.044 93.091 177.305C92.7757 177.564 92.4149 177.764 92.0086 177.906C91.6024 178.048 91.1592 178.119 90.6791 178.119C89.9234 178.119 89.2501 177.94 88.6592 177.582C88.0683 177.222 87.6024 176.706 87.2615 176.036C86.9234 175.365 86.7544 174.565 86.7544 173.636C86.7544 172.705 86.9248 171.905 87.2657 171.237C87.6066 170.567 88.0725 170.053 88.6634 169.695C89.2544 169.334 89.9262 169.153 90.6791 169.153C91.1421 169.153 91.574 169.22 91.9745 169.354C92.3779 169.484 92.7401 169.678 93.0612 169.933C93.3822 170.186 93.6478 170.496 93.858 170.862C94.0683 171.226 94.2103 171.642 94.2842 172.111ZM96.7784 178H95.3807L98.5213 169.273H100.043L103.183 178H101.786L99.3182 170.858H99.25L96.7784 178ZM97.0128 174.582H101.547V175.69H97.0128V174.582ZM104.684 178V169.273H106V176.866H109.955V178H104.684ZM111.697 178V169.273H113.014V176.866H116.968V178H111.697Z" fill="#F0F6FF"/>
<path d="M46 293.333C44.5272 293.333 43.3333 294.527 43.3333 296C43.3333 297.473 44.5272 298.667 46 298.667C47.4728 298.667 48.6667 297.473 48.6667 296C48.6667 294.527 47.4728 293.333 46 293.333ZM45.5 296L45.5 400L46.5 400L46.5 296L45.5 296Z" fill="#19191B" fill-opacity="0.15"/>
<rect x="6.44849" y="400.448" width="149.103" height="39.103" rx="7.55151" fill="#19191B"/>
<rect x="6.44849" y="400.448" width="149.103" height="39.103" rx="7.55151" stroke="#19191B" stroke-width="0.896971"/>
<path d="M54.578 417.565C54.5325 417.162 54.345 416.849 54.0155 416.628C53.6859 416.403 53.2712 416.291 52.7712 416.291C52.4132 416.291 52.1035 416.348 51.8422 416.462C51.5808 416.572 51.3777 416.726 51.2328 416.922C51.0908 417.115 51.0197 417.335 51.0197 417.582C51.0197 417.79 51.068 417.969 51.1646 418.119C51.264 418.27 51.3933 418.396 51.5524 418.499C51.7143 418.598 51.8876 418.682 52.0723 418.75C52.2569 418.815 52.4345 418.869 52.605 418.912L53.4572 419.134C53.7356 419.202 54.0212 419.294 54.3138 419.411C54.6064 419.527 54.8777 419.68 55.1277 419.871C55.3777 420.061 55.5794 420.297 55.7328 420.578C55.889 420.859 55.9672 421.196 55.9672 421.588C55.9672 422.082 55.8393 422.521 55.5837 422.905C55.3308 423.288 54.9629 423.591 54.48 423.812C53.9998 424.034 53.4189 424.145 52.7371 424.145C52.0837 424.145 51.5183 424.041 51.041 423.834C50.5638 423.626 50.1902 423.332 49.9203 422.952C49.6504 422.568 49.5013 422.114 49.4729 421.588H50.7939C50.8194 421.903 50.9217 422.166 51.1007 422.376C51.2825 422.584 51.514 422.739 51.7953 422.841C52.0794 422.94 52.3905 422.99 52.7285 422.99C53.1007 422.99 53.4317 422.932 53.7214 422.815C54.014 422.696 54.2442 422.531 54.4118 422.321C54.5794 422.108 54.6632 421.859 54.6632 421.575C54.6632 421.317 54.5893 421.105 54.4416 420.94C54.2967 420.776 54.0993 420.639 53.8493 420.531C53.6021 420.423 53.3223 420.328 53.0098 420.246L51.9785 419.964C51.2797 419.774 50.7257 419.494 50.3166 419.125C49.9104 418.756 49.7072 418.267 49.7072 417.659C49.7072 417.156 49.8436 416.717 50.1163 416.342C50.389 415.967 50.7584 415.676 51.2243 415.469C51.6902 415.259 52.2158 415.153 52.801 415.153C53.3919 415.153 53.9132 415.257 54.3649 415.464C54.8194 415.672 55.1774 415.957 55.4388 416.321C55.7001 416.682 55.8365 417.097 55.8479 417.565H54.578ZM57.3503 416.406V415.273H64.1045V416.406H61.3815V424H60.069V416.406H57.3503ZM65.8371 424V415.273H68.9479C69.624 415.273 70.1851 415.389 70.6311 415.622C71.08 415.855 71.4152 416.178 71.6368 416.589C71.8584 416.999 71.9692 417.472 71.9692 418.009C71.9692 418.543 71.857 419.013 71.6325 419.419C71.411 419.822 71.0757 420.136 70.6269 420.361C70.1808 420.585 69.6198 420.697 68.9436 420.697H66.5871V419.564H68.8243C69.2504 419.564 69.597 419.503 69.8641 419.381C70.134 419.259 70.3314 419.081 70.4564 418.848C70.5814 418.615 70.6439 418.335 70.6439 418.009C70.6439 417.679 70.58 417.393 70.4521 417.152C70.3271 416.911 70.1297 416.726 69.8598 416.598C69.5928 416.467 69.2419 416.402 68.8073 416.402H67.1538V424H65.8371ZM70.1453 420.062L72.3016 424H70.8016L68.6879 420.062H70.1453ZM74.5487 424H73.151L76.2916 415.273H77.8129L80.9535 424H79.5558L77.0885 416.858H77.0203L74.5487 424ZM74.7831 420.582H79.3171V421.69H74.7831V420.582ZM80.9922 416.406V415.273H87.7464V416.406H85.0234V424H83.7109V416.406H80.9922ZM89.479 424V415.273H94.9506V416.406H90.7957V419.065H94.665V420.195H90.7957V422.866H95.0017V424H89.479ZM102.856 418.03C102.773 417.771 102.662 417.54 102.523 417.335C102.387 417.128 102.224 416.952 102.033 416.807C101.843 416.659 101.626 416.547 101.381 416.47C101.14 416.393 100.874 416.355 100.584 416.355C100.093 416.355 99.6497 416.482 99.2548 416.734C98.8599 416.987 98.5474 417.358 98.3173 417.847C98.0901 418.332 97.9764 418.928 97.9764 419.632C97.9764 420.339 98.0915 420.937 98.3216 421.426C98.5517 421.915 98.867 422.286 99.2676 422.538C99.6682 422.791 100.124 422.918 100.636 422.918C101.11 422.918 101.523 422.821 101.876 422.628C102.231 422.435 102.505 422.162 102.698 421.81C102.894 421.455 102.992 421.037 102.992 420.557L103.333 420.621H100.836V419.534H104.266V420.527C104.266 421.26 104.11 421.896 103.797 422.436C103.488 422.973 103.059 423.388 102.511 423.68C101.965 423.973 101.34 424.119 100.636 424.119C99.8457 424.119 99.1526 423.938 98.556 423.574C97.9622 423.21 97.4991 422.695 97.1668 422.027C96.8344 421.357 96.6682 420.561 96.6682 419.641C96.6682 418.945 96.7648 418.32 96.958 417.766C97.1511 417.212 97.4224 416.741 97.7719 416.355C98.1241 415.966 98.5375 415.669 99.0119 415.464C99.4892 415.257 100.011 415.153 100.576 415.153C101.047 415.153 101.486 415.223 101.893 415.362C102.302 415.501 102.665 415.699 102.984 415.955C103.305 416.21 103.57 416.514 103.78 416.866C103.991 417.216 104.133 417.604 104.207 418.03H102.856ZM105.211 415.273H106.707L108.987 419.24H109.081L111.361 415.273H112.856L109.69 420.574V424H108.378V420.574L105.211 415.273Z" fill="#F0F6FF"/>
<path d="M46 539.333C44.5272 539.333 43.3333 540.527 43.3333 542C43.3333 543.473 44.5272 544.667 46 544.667C47.4728 544.667 48.6667 543.473 48.6667 542C48.6667 540.527 47.4728 539.333 46 539.333ZM45.5 542L45.5 646L46.5 646L46.5 542L45.5 542Z" fill="#19191B" fill-opacity="0.15"/>
<rect x="6.44849" y="646.448" width="149.103" height="39.103" rx="7.55151" fill="#19191B"/>
<rect x="6.44849" y="646.448" width="149.103" height="39.103" rx="7.55151" stroke="#19191B" stroke-width="0.896971"/>
<path d="M18.4802 670V661.273H21.591C22.2671 661.273 22.8282 661.389 23.2742 661.622C23.7231 661.855 24.0583 662.178 24.2799 662.589C24.5015 662.999 24.6123 663.472 24.6123 664.009C24.6123 664.543 24.5001 665.013 24.2757 665.419C24.0541 665.822 23.7189 666.136 23.27 666.361C22.824 666.585 22.2629 666.697 21.5867 666.697H19.2302V665.564H21.4674C21.8936 665.564 22.2402 665.503 22.5072 665.381C22.7771 665.259 22.9745 665.081 23.0995 664.848C23.2245 664.615 23.287 664.335 23.287 664.009C23.287 663.679 23.2231 663.393 23.0953 663.152C22.9703 662.911 22.7728 662.726 22.5029 662.598C22.2359 662.467 21.885 662.402 21.4504 662.402H19.797V670H18.4802ZM22.7885 666.062L24.9447 670H23.4447L21.3311 666.062H22.7885ZM26.4546 670V661.273H31.9262V662.406H27.7714V665.065H31.6407V666.195H27.7714V668.866H31.9773V670H26.4546ZM33.9251 670V661.273H35.2418V668.866H39.1964V670H33.9251ZM40.9385 670V661.273H46.4101V662.406H42.2553V665.065H46.1246V666.195H42.2553V668.866H46.4612V670H40.9385ZM49.1462 670H47.7485L50.8891 661.273H52.4104L55.551 670H54.1533L51.686 662.858H51.6178L49.1462 670ZM49.3806 666.582H53.9146V667.69H49.3806V666.582ZM61.7409 663.565C61.6955 663.162 61.508 662.849 61.1784 662.628C60.8489 662.403 60.4341 662.291 59.9341 662.291C59.5762 662.291 59.2665 662.348 59.0051 662.462C58.7438 662.572 58.5407 662.726 58.3958 662.922C58.2537 663.115 58.1827 663.335 58.1827 663.582C58.1827 663.79 58.231 663.969 58.3276 664.119C58.427 664.27 58.5563 664.396 58.7154 664.499C58.8773 664.598 59.0506 664.682 59.2353 664.75C59.4199 664.815 59.5975 664.869 59.7679 664.912L60.6202 665.134C60.8986 665.202 61.1841 665.294 61.4767 665.411C61.7693 665.527 62.0407 665.68 62.2907 665.871C62.5407 666.061 62.7424 666.297 62.8958 666.578C63.052 666.859 63.1301 667.196 63.1301 667.588C63.1301 668.082 63.0023 668.521 62.7466 668.905C62.4938 669.288 62.1259 669.591 61.6429 669.812C61.1628 670.034 60.5818 670.145 59.9 670.145C59.2466 670.145 58.6813 670.041 58.204 669.834C57.7267 669.626 57.3532 669.332 57.0833 668.952C56.8134 668.568 56.6642 668.114 56.6358 667.588H57.9568C57.9824 667.903 58.0847 668.166 58.2637 668.376C58.4455 668.584 58.677 668.739 58.9583 668.841C59.2424 668.94 59.5534 668.99 59.8915 668.99C60.2637 668.99 60.5946 668.932 60.8844 668.815C61.177 668.696 61.4071 668.531 61.5747 668.321C61.7424 668.108 61.8262 667.859 61.8262 667.575C61.8262 667.317 61.7523 667.105 61.6046 666.94C61.4597 666.776 61.2622 666.639 61.0122 666.531C60.7651 666.423 60.4853 666.328 60.1728 666.246L59.1415 665.964C58.4426 665.774 57.8887 665.494 57.4796 665.125C57.0733 664.756 56.8702 664.267 56.8702 663.659C56.8702 663.156 57.0066 662.717 57.2793 662.342C57.552 661.967 57.9213 661.676 58.3872 661.469C58.8532 661.259 59.3787 661.153 59.964 661.153C60.5549 661.153 61.0762 661.257 61.5279 661.464C61.9824 661.672 62.3404 661.957 62.6017 662.321C62.8631 662.682 62.9995 663.097 63.0108 663.565H61.7409ZM64.9437 670V661.273H70.4152V662.406H66.2604V665.065H70.1297V666.195H66.2604V668.866H70.4664V670H64.9437ZM78.2674 670.124C77.6822 670.124 77.1779 670.017 76.7546 669.804C76.3342 669.591 76.0103 669.301 75.783 668.935C75.5558 668.565 75.4421 668.148 75.4421 667.682C75.4421 667.327 75.516 667.011 75.6637 666.736C75.8114 666.457 76.0174 666.2 76.2816 665.964C76.5458 665.729 76.8512 665.491 77.1978 665.253L78.604 664.26C78.8427 664.104 79.0288 663.939 79.1623 663.766C79.2958 663.589 79.3626 663.372 79.3626 663.114C79.3626 662.909 79.2745 662.713 79.0984 662.526C78.9222 662.338 78.6864 662.244 78.391 662.244C78.1864 662.244 78.006 662.294 77.8498 662.393C77.6964 662.493 77.5756 662.621 77.4876 662.777C77.4023 662.93 77.3597 663.092 77.3597 663.263C77.3597 663.462 77.4137 663.662 77.5217 663.864C77.6325 664.065 77.7745 664.274 77.9478 664.49C78.1211 664.703 78.3029 664.925 78.4933 665.155L82.5458 670H81.1055L77.7518 666.058C77.4705 665.726 77.2092 665.413 76.9677 665.121C76.7262 664.825 76.5302 664.527 76.3796 664.226C76.2319 663.922 76.158 663.594 76.158 663.241C76.158 662.841 76.2489 662.486 76.4308 662.176C76.6154 661.864 76.8725 661.619 77.2021 661.443C77.5316 661.267 77.918 661.179 78.3612 661.179C78.81 661.179 79.195 661.267 79.516 661.443C79.8398 661.616 80.0884 661.848 80.2617 662.138C80.4379 662.425 80.5259 662.739 80.5259 663.08C80.5259 663.494 80.4222 663.861 80.2148 664.179C80.0103 664.494 79.7276 664.784 79.3668 665.048L77.6154 666.339C77.2745 666.589 77.0373 666.837 76.9038 667.081C76.7731 667.322 76.7077 667.511 76.7077 667.648C76.7077 667.898 76.7717 668.129 76.8995 668.342C77.0302 668.555 77.212 668.726 77.445 668.854C77.6808 668.982 77.9563 669.045 78.2717 669.045C78.5955 669.045 78.9109 668.976 79.2177 668.837C79.5273 668.695 79.8072 668.491 80.0572 668.227C80.31 667.963 80.5103 667.646 80.658 667.277C80.8058 666.908 80.8796 666.494 80.8796 666.037H82.0302C82.0302 666.599 81.9663 667.075 81.8384 667.464C81.7106 667.851 81.5558 668.166 81.3739 668.411C81.195 668.652 81.0259 668.841 80.8668 668.977C80.8157 669.023 80.7674 669.068 80.7219 669.114C80.6765 669.159 80.6282 669.205 80.5771 669.25C80.2816 669.548 79.9237 669.768 79.5032 669.911C79.0856 670.053 78.6737 670.124 78.2674 670.124ZM92.062 663.565C92.0166 663.162 91.8291 662.849 91.4995 662.628C91.17 662.403 90.7552 662.291 90.2552 662.291C89.8973 662.291 89.5876 662.348 89.3262 662.462C89.0649 662.572 88.8618 662.726 88.7169 662.922C88.5748 663.115 88.5038 663.335 88.5038 663.582C88.5038 663.79 88.5521 663.969 88.6487 664.119C88.7481 664.27 88.8774 664.396 89.0365 664.499C89.1984 664.598 89.3717 664.682 89.5564 664.75C89.741 664.815 89.9186 664.869 90.089 664.912L90.9413 665.134C91.2197 665.202 91.5052 665.294 91.7978 665.411C92.0904 665.527 92.3618 665.68 92.6118 665.871C92.8618 666.061 93.0635 666.297 93.2169 666.578C93.3731 666.859 93.4512 667.196 93.4512 667.588C93.4512 668.082 93.3234 668.521 93.0677 668.905C92.8149 669.288 92.447 669.591 91.964 669.812C91.4839 670.034 90.9029 670.145 90.2211 670.145C89.5677 670.145 89.0024 670.041 88.5251 669.834C88.0478 669.626 87.6743 669.332 87.4044 668.952C87.1345 668.568 86.9853 668.114 86.9569 667.588H88.2779C88.3035 667.903 88.4058 668.166 88.5848 668.376C88.7666 668.584 88.9981 668.739 89.2794 668.841C89.5635 668.94 89.8745 668.99 90.2126 668.99C90.5848 668.99 90.9157 668.932 91.2055 668.815C91.4981 668.696 91.7282 668.531 91.8958 668.321C92.0635 668.108 92.1473 667.859 92.1473 667.575C92.1473 667.317 92.0734 667.105 91.9257 666.94C91.7808 666.776 91.5833 666.639 91.3333 666.531C91.0862 666.423 90.8064 666.328 90.4939 666.246L89.4626 665.964C88.7637 665.774 88.2098 665.494 87.8007 665.125C87.3944 664.756 87.1913 664.267 87.1913 663.659C87.1913 663.156 87.3277 662.717 87.6004 662.342C87.8731 661.967 88.2424 661.676 88.7083 661.469C89.1743 661.259 89.6998 661.153 90.285 661.153C90.876 661.153 91.3973 661.257 91.849 661.464C92.3035 661.672 92.6615 661.957 92.9228 662.321C93.1842 662.682 93.3206 663.097 93.3319 663.565H92.062ZM100.877 661.273H102.198V667.013C102.198 667.624 102.055 668.165 101.768 668.636C101.481 669.105 101.077 669.474 100.557 669.744C100.037 670.011 99.4281 670.145 98.7292 670.145C98.0332 670.145 97.4253 670.011 96.9054 669.744C96.3855 669.474 95.9821 669.105 95.6951 668.636C95.4082 668.165 95.2647 667.624 95.2647 667.013V661.273H96.5815V666.906C96.5815 667.301 96.6682 667.652 96.8415 667.959C97.0176 668.266 97.2662 668.507 97.5872 668.683C97.9082 668.857 98.2889 668.943 98.7292 668.943C99.1724 668.943 99.5545 668.857 99.8755 668.683C100.199 668.507 100.447 668.266 100.617 667.959C100.79 667.652 100.877 667.301 100.877 666.906V661.273ZM104.352 670V661.273H107.463C108.142 661.273 108.705 661.396 109.151 661.643C109.597 661.891 109.931 662.229 110.152 662.658C110.374 663.084 110.485 663.564 110.485 664.098C110.485 664.635 110.372 665.118 110.148 665.547C109.926 665.973 109.591 666.311 109.142 666.561C108.696 666.808 108.135 666.932 107.459 666.932H105.32V665.815H107.34C107.769 665.815 108.117 665.741 108.384 665.594C108.651 665.443 108.847 665.239 108.972 664.98C109.097 664.722 109.159 664.428 109.159 664.098C109.159 663.768 109.097 663.476 108.972 663.22C108.847 662.964 108.649 662.764 108.379 662.619C108.112 662.474 107.76 662.402 107.323 662.402H105.669V670H104.352ZM112.268 670V661.273H115.379C116.058 661.273 116.62 661.396 117.066 661.643C117.513 661.891 117.846 662.229 118.068 662.658C118.289 663.084 118.4 663.564 118.4 664.098C118.4 664.635 118.288 665.118 118.064 665.547C117.842 665.973 117.507 666.311 117.058 666.561C116.612 666.808 116.051 666.932 115.375 666.932H113.236V665.815H115.255C115.684 665.815 116.032 665.741 116.299 665.594C116.566 665.443 116.763 665.239 116.888 664.98C117.013 664.722 117.075 664.428 117.075 664.098C117.075 663.768 117.013 663.476 116.888 663.22C116.763 662.964 116.565 662.764 116.295 662.619C116.028 662.474 115.676 662.402 115.238 662.402H113.585V670H112.268ZM127.765 665.636C127.765 666.568 127.594 667.369 127.254 668.04C126.913 668.707 126.445 669.222 125.852 669.582C125.261 669.94 124.589 670.119 123.836 670.119C123.08 670.119 122.406 669.94 121.812 669.582C121.221 669.222 120.755 668.706 120.414 668.036C120.073 667.365 119.903 666.565 119.903 665.636C119.903 664.705 120.073 663.905 120.414 663.237C120.755 662.567 121.221 662.053 121.812 661.695C122.406 661.334 123.08 661.153 123.836 661.153C124.589 661.153 125.261 661.334 125.852 661.695C126.445 662.053 126.913 662.567 127.254 663.237C127.594 663.905 127.765 664.705 127.765 665.636ZM126.461 665.636C126.461 664.926 126.346 664.328 126.116 663.842C125.889 663.354 125.576 662.984 125.178 662.734C124.783 662.482 124.336 662.355 123.836 662.355C123.333 662.355 122.884 662.482 122.489 662.734C122.094 662.984 121.782 663.354 121.552 663.842C121.325 664.328 121.211 664.926 121.211 665.636C121.211 666.347 121.325 666.946 121.552 667.435C121.782 667.92 122.094 668.29 122.489 668.543C122.884 668.793 123.333 668.918 123.836 668.918C124.336 668.918 124.783 668.793 125.178 668.543C125.576 668.29 125.889 667.92 126.116 667.435C126.346 666.946 126.461 666.347 126.461 665.636ZM129.647 670V661.273H132.757C133.434 661.273 133.995 661.389 134.441 661.622C134.89 661.855 135.225 662.178 135.446 662.589C135.668 662.999 135.779 663.472 135.779 664.009C135.779 664.543 135.667 665.013 135.442 665.419C135.22 665.822 134.885 666.136 134.436 666.361C133.99 666.585 133.429 666.697 132.753 666.697H130.397V665.564H132.634C133.06 665.564 133.407 665.503 133.674 665.381C133.943 665.259 134.141 665.081 134.266 664.848C134.391 664.615 134.453 664.335 134.453 664.009C134.453 663.679 134.39 663.393 134.262 663.152C134.137 662.911 133.939 662.726 133.669 662.598C133.402 662.467 133.051 662.402 132.617 662.402H130.963V670H129.647ZM133.955 666.062L136.111 670H134.611L132.497 666.062H133.955ZM137.191 662.406V661.273H143.945V662.406H141.222V670H139.909V662.406H137.191Z" fill="#F0F6FF"/>
<path d="M264 457.333C262.527 457.333 261.333 458.527 261.333 460C261.333 461.473 262.527 462.667 264 462.667C265.473 462.667 266.667 461.473 266.667 460C266.667 458.527 265.473 457.333 264 457.333ZM263.5 460L263.5 564L264.5 564L264.5 460L263.5 460Z" fill="#19191B" fill-opacity="0.15"/>
<rect x="154.448" y="564.448" width="149.103" height="39.103" rx="7.55151" fill="#19191B"/>
<rect x="154.448" y="564.448" width="149.103" height="39.103" rx="7.55151" stroke="#19191B" stroke-width="0.896971"/>
<path d="M183.602 579.273L186.031 586.381H186.129L188.558 579.273H189.981L186.841 588H185.319L182.179 579.273H183.602ZM192.798 579.273V588H191.481V579.273H192.798ZM199.716 581.565C199.67 581.162 199.483 580.849 199.153 580.628C198.824 580.403 198.409 580.291 197.909 580.291C197.551 580.291 197.241 580.348 196.98 580.462C196.719 580.572 196.515 580.726 196.371 580.922C196.229 581.115 196.158 581.335 196.158 581.582C196.158 581.79 196.206 581.969 196.302 582.119C196.402 582.27 196.531 582.396 196.69 582.499C196.852 582.598 197.025 582.682 197.21 582.75C197.395 582.815 197.572 582.869 197.743 582.912L198.595 583.134C198.873 583.202 199.159 583.294 199.452 583.411C199.744 583.527 200.015 583.68 200.265 583.871C200.515 584.061 200.717 584.297 200.871 584.578C201.027 584.859 201.105 585.196 201.105 585.588C201.105 586.082 200.977 586.521 200.721 586.905C200.469 587.288 200.101 587.591 199.618 587.812C199.138 588.034 198.557 588.145 197.875 588.145C197.221 588.145 196.656 588.041 196.179 587.834C195.702 587.626 195.328 587.332 195.058 586.952C194.788 586.568 194.639 586.114 194.611 585.588H195.932C195.957 585.903 196.06 586.166 196.239 586.376C196.42 586.584 196.652 586.739 196.933 586.841C197.217 586.94 197.528 586.99 197.866 586.99C198.239 586.99 198.569 586.932 198.859 586.815C199.152 586.696 199.382 586.531 199.55 586.321C199.717 586.108 199.801 585.859 199.801 585.575C199.801 585.317 199.727 585.105 199.579 584.94C199.435 584.776 199.237 584.639 198.987 584.531C198.74 584.423 198.46 584.328 198.148 584.246L197.116 583.964C196.417 583.774 195.864 583.494 195.454 583.125C195.048 582.756 194.845 582.267 194.845 581.659C194.845 581.156 194.981 580.717 195.254 580.342C195.527 579.967 195.896 579.676 196.362 579.469C196.828 579.259 197.354 579.153 197.939 579.153C198.53 579.153 199.051 579.257 199.503 579.464C199.957 579.672 200.315 579.957 200.577 580.321C200.838 580.682 200.974 581.097 200.986 581.565H199.716ZM208.531 579.273H209.852V585.013C209.852 585.624 209.708 586.165 209.421 586.636C209.134 587.105 208.731 587.474 208.211 587.744C207.691 588.011 207.082 588.145 206.383 588.145C205.687 588.145 205.079 588.011 204.559 587.744C204.039 587.474 203.636 587.105 203.349 586.636C203.062 586.165 202.918 585.624 202.918 585.013V579.273H204.235V584.906C204.235 585.301 204.322 585.652 204.495 585.959C204.671 586.266 204.92 586.507 205.241 586.683C205.562 586.857 205.943 586.943 206.383 586.943C206.826 586.943 207.208 586.857 207.529 586.683C207.853 586.507 208.1 586.266 208.271 585.959C208.444 585.652 208.531 585.301 208.531 584.906V579.273ZM212.743 588H211.346L214.486 579.273H216.008L219.148 588H217.75L215.283 580.858H215.215L212.743 588ZM212.978 584.582H217.512V585.69H212.978V584.582ZM220.648 588V579.273H221.965V586.866H225.92V588H220.648ZM233.903 588H231.078V579.273H233.992C234.848 579.273 235.582 579.447 236.196 579.797C236.809 580.143 237.279 580.642 237.606 581.293C237.936 581.94 238.1 582.717 238.1 583.624C238.1 584.533 237.934 585.314 237.602 585.967C237.272 586.621 236.795 587.124 236.17 587.476C235.545 587.825 234.789 588 233.903 588ZM232.394 586.849H233.831C234.495 586.849 235.048 586.724 235.488 586.474C235.929 586.222 236.258 585.857 236.477 585.379C236.696 584.899 236.805 584.314 236.805 583.624C236.805 582.939 236.696 582.358 236.477 581.881C236.261 581.403 235.939 581.041 235.51 580.794C235.081 580.547 234.548 580.423 233.912 580.423H232.394V586.849ZM239.978 588V579.273H245.449V580.406H241.295V583.065H245.164V584.195H241.295V586.866H245.501V588H239.978ZM252.208 581.565C252.163 581.162 251.975 580.849 251.646 580.628C251.316 580.403 250.901 580.291 250.401 580.291C250.044 580.291 249.734 580.348 249.472 580.462C249.211 580.572 249.008 580.726 248.863 580.922C248.721 581.115 248.65 581.335 248.65 581.582C248.65 581.79 248.698 581.969 248.795 582.119C248.894 582.27 249.024 582.396 249.183 582.499C249.345 582.598 249.518 582.682 249.703 582.75C249.887 582.815 250.065 582.869 250.235 582.912L251.088 583.134C251.366 583.202 251.651 583.294 251.944 583.411C252.237 583.527 252.508 583.68 252.758 583.871C253.008 584.061 253.21 584.297 253.363 584.578C253.519 584.859 253.597 585.196 253.597 585.588C253.597 586.082 253.47 586.521 253.214 586.905C252.961 587.288 252.593 587.591 252.11 587.812C251.63 588.034 251.049 588.145 250.367 588.145C249.714 588.145 249.149 588.041 248.671 587.834C248.194 587.626 247.82 587.332 247.551 586.952C247.281 586.568 247.132 586.114 247.103 585.588H248.424C248.45 585.903 248.552 586.166 248.731 586.376C248.913 586.584 249.144 586.739 249.426 586.841C249.71 586.94 250.021 586.99 250.359 586.99C250.731 586.99 251.062 586.932 251.352 586.815C251.644 586.696 251.874 586.531 252.042 586.321C252.21 586.108 252.294 585.859 252.294 585.575C252.294 585.317 252.22 585.105 252.072 584.94C251.927 584.776 251.73 584.639 251.48 584.531C251.232 584.423 250.953 584.328 250.64 584.246L249.609 583.964C248.91 583.774 248.356 583.494 247.947 583.125C247.541 582.756 247.338 582.267 247.338 581.659C247.338 581.156 247.474 580.717 247.747 580.342C248.019 579.967 248.389 579.676 248.855 579.469C249.32 579.259 249.846 579.153 250.431 579.153C251.022 579.153 251.544 579.257 251.995 579.464C252.45 579.672 252.808 579.957 253.069 580.321C253.33 580.682 253.467 581.097 253.478 581.565H252.208ZM256.728 579.273V588H255.411V579.273H256.728ZM264.792 582.03C264.709 581.771 264.598 581.54 264.459 581.335C264.323 581.128 264.16 580.952 263.969 580.807C263.779 580.659 263.562 580.547 263.317 580.47C263.076 580.393 262.81 580.355 262.52 580.355C262.029 580.355 261.586 580.482 261.191 580.734C260.796 580.987 260.483 581.358 260.253 581.847C260.026 582.332 259.912 582.928 259.912 583.632C259.912 584.339 260.027 584.937 260.258 585.426C260.488 585.915 260.803 586.286 261.204 586.538C261.604 586.791 262.06 586.918 262.571 586.918C263.046 586.918 263.459 586.821 263.812 586.628C264.167 586.435 264.441 586.162 264.634 585.81C264.83 585.455 264.928 585.037 264.928 584.557L265.269 584.621H262.772V583.534H266.202V584.527C266.202 585.26 266.046 585.896 265.733 586.436C265.424 586.973 264.995 587.388 264.446 587.68C263.901 587.973 263.276 588.119 262.571 588.119C261.782 588.119 261.088 587.938 260.492 587.574C259.898 587.21 259.435 586.695 259.103 586.027C258.77 585.357 258.604 584.561 258.604 583.641C258.604 582.945 258.701 582.32 258.894 581.766C259.087 581.212 259.358 580.741 259.708 580.355C260.06 579.966 260.473 579.669 260.948 579.464C261.425 579.257 261.946 579.153 262.512 579.153C262.983 579.153 263.422 579.223 263.829 579.362C264.238 579.501 264.601 579.699 264.919 579.955C265.24 580.21 265.506 580.514 265.716 580.866C265.927 581.216 266.069 581.604 266.142 582.03H264.792ZM275.158 579.273V588H273.947L269.511 581.599H269.43V588H268.114V579.273H269.332L273.773 585.682H273.854V579.273H275.158Z" fill="#F0F6FF"/>
<path d="M190 191.333C188.527 191.333 187.333 192.527 187.333 194C187.333 195.473 188.527 196.667 190 196.667C191.473 196.667 192.667 195.473 192.667 194C192.667 192.527 191.473 191.333 190 191.333ZM189.5 194L189.5 236L190.5 236L190.5 194L189.5 194Z" fill="#19191B" fill-opacity="0.15"/>
<rect x="80" y="236" width="150" height="40" rx="8" fill="#E33230"/>
<path d="M100.895 260.119C100.31 260.119 99.7874 260.018 99.3272 259.817C98.8698 259.615 98.5076 259.335 98.2405 258.977C97.9763 258.616 97.8343 258.199 97.8144 257.724H99.1524C99.1695 257.983 99.2561 258.207 99.4124 258.398C99.5715 258.585 99.7789 258.73 100.035 258.832C100.29 258.935 100.574 258.986 100.887 258.986C101.231 258.986 101.535 258.926 101.799 258.807C102.066 258.687 102.275 258.521 102.425 258.308C102.576 258.092 102.651 257.844 102.651 257.562C102.651 257.27 102.576 257.013 102.425 256.791C102.277 256.567 102.06 256.391 101.773 256.263C101.489 256.135 101.145 256.071 100.742 256.071H100.005V254.997H100.742C101.066 254.997 101.35 254.939 101.594 254.822C101.841 254.706 102.035 254.544 102.174 254.337C102.313 254.126 102.383 253.881 102.383 253.599C102.383 253.33 102.321 253.095 102.199 252.896C102.08 252.695 101.91 252.537 101.688 252.423C101.469 252.31 101.211 252.253 100.912 252.253C100.628 252.253 100.363 252.305 100.116 252.411C99.8712 252.513 99.6723 252.661 99.5189 252.854C99.3655 253.044 99.2831 253.273 99.2718 253.54H97.9976C98.0118 253.068 98.151 252.653 98.4152 252.295C98.6823 251.937 99.0345 251.658 99.472 251.456C99.9095 251.254 100.395 251.153 100.929 251.153C101.489 251.153 101.972 251.263 102.378 251.482C102.787 251.697 103.103 251.986 103.324 252.347C103.549 252.707 103.66 253.102 103.657 253.531C103.66 254.02 103.523 254.435 103.248 254.776C102.975 255.116 102.611 255.345 102.157 255.462V255.53C102.736 255.618 103.185 255.848 103.503 256.22C103.824 256.592 103.983 257.054 103.981 257.605C103.983 258.085 103.85 258.516 103.58 258.896C103.313 259.277 102.948 259.577 102.485 259.795C102.022 260.011 101.492 260.119 100.895 260.119ZM109.366 260V251.273H114.778V252.406H110.683V255.065H114.391V256.195H110.683V260H109.366ZM116.638 260V251.273H119.749C120.425 251.273 120.986 251.389 121.432 251.622C121.881 251.855 122.216 252.178 122.437 252.589C122.659 252.999 122.77 253.472 122.77 254.009C122.77 254.543 122.658 255.013 122.433 255.419C122.212 255.822 121.876 256.136 121.427 256.361C120.981 256.585 120.42 256.697 119.744 256.697H117.388V255.564H119.625C120.051 255.564 120.398 255.503 120.665 255.381C120.935 255.259 121.132 255.081 121.257 254.848C121.382 254.615 121.445 254.335 121.445 254.009C121.445 253.679 121.381 253.393 121.253 253.152C121.128 252.911 120.93 252.726 120.66 252.598C120.393 252.467 120.043 252.402 119.608 252.402H117.954V260H116.638ZM120.946 256.062L123.102 260H121.602L119.489 256.062H120.946ZM124.612 260V251.273H130.084V252.406H125.929V255.065H129.798V256.195H125.929V258.866H130.135V260H124.612ZM132.083 260V251.273H137.554V252.406H133.399V255.065H137.269V256.195H133.399V258.866H137.605V260H132.083ZM142.538 252.406V251.273H149.293V252.406H146.57V260H145.257V252.406H142.538ZM151.025 260V251.273H154.136C154.812 251.273 155.373 251.389 155.819 251.622C156.268 251.855 156.603 252.178 156.825 252.589C157.047 252.999 157.157 253.472 157.157 254.009C157.157 254.543 157.045 255.013 156.821 255.419C156.599 255.822 156.264 256.136 155.815 256.361C155.369 256.585 154.808 256.697 154.132 256.697H151.775V255.564H154.012C154.439 255.564 154.785 255.503 155.052 255.381C155.322 255.259 155.52 255.081 155.645 254.848C155.77 254.615 155.832 254.335 155.832 254.009C155.832 253.679 155.768 253.393 155.64 253.152C155.515 252.911 155.318 252.726 155.048 252.598C154.781 252.467 154.43 252.402 153.995 252.402H152.342V260H151.025ZM155.333 256.062L157.49 260H155.99L153.876 256.062H155.333ZM160.316 251.273V260H159V251.273H160.316ZM163.211 260H161.813L164.954 251.273H166.475L169.616 260H168.218L165.751 252.858H165.683L163.211 260ZM163.446 256.582H167.98V257.69H163.446V256.582ZM171.116 260V251.273H172.433V258.866H176.388V260H171.116ZM184.371 260H181.546V251.273H184.46C185.315 251.273 186.05 251.447 186.663 251.797C187.277 252.143 187.747 252.642 188.074 253.293C188.403 253.94 188.568 254.717 188.568 255.624C188.568 256.533 188.402 257.314 188.07 257.967C187.74 258.621 187.263 259.124 186.638 259.476C186.013 259.825 185.257 260 184.371 260ZM182.862 258.849H184.298C184.963 258.849 185.516 258.724 185.956 258.474C186.396 258.222 186.726 257.857 186.945 257.379C187.163 256.899 187.273 256.314 187.273 255.624C187.273 254.939 187.163 254.358 186.945 253.881C186.729 253.403 186.406 253.041 185.977 252.794C185.548 252.547 185.016 252.423 184.379 252.423H182.862V258.849ZM190.749 260H189.352L192.492 251.273H194.014L197.154 260H195.756L193.289 252.858H193.221L190.749 260ZM190.984 256.582H195.518V257.69H190.984V256.582ZM197.091 251.273H198.586L200.866 255.24H200.96L203.24 251.273H204.735L201.569 256.574V260H200.257V256.574L197.091 251.273ZM210.979 253.565C210.933 253.162 210.746 252.849 210.416 252.628C210.087 252.403 209.672 252.291 209.172 252.291C208.814 252.291 208.504 252.348 208.243 252.462C207.981 252.572 207.778 252.726 207.633 252.922C207.491 253.115 207.42 253.335 207.42 253.582C207.42 253.79 207.469 253.969 207.565 254.119C207.665 254.27 207.794 254.396 207.953 254.499C208.115 254.598 208.288 254.682 208.473 254.75C208.658 254.815 208.835 254.869 209.006 254.912L209.858 255.134C210.136 255.202 210.422 255.294 210.714 255.411C211.007 255.527 211.278 255.68 211.528 255.871C211.778 256.061 211.98 256.297 212.133 256.578C212.29 256.859 212.368 257.196 212.368 257.588C212.368 258.082 212.24 258.521 211.984 258.905C211.731 259.288 211.364 259.591 210.881 259.812C210.4 260.034 209.82 260.145 209.138 260.145C208.484 260.145 207.919 260.041 207.442 259.834C206.964 259.626 206.591 259.332 206.321 258.952C206.051 258.568 205.902 258.114 205.873 257.588H207.195C207.22 257.903 207.322 258.166 207.501 258.376C207.683 258.584 207.915 258.739 208.196 258.841C208.48 258.94 208.791 258.99 209.129 258.99C209.501 258.99 209.832 258.932 210.122 258.815C210.415 258.696 210.645 258.531 210.812 258.321C210.98 258.108 211.064 257.859 211.064 257.575C211.064 257.317 210.99 257.105 210.842 256.94C210.697 256.776 210.5 256.639 210.25 256.531C210.003 256.423 209.723 256.328 209.41 256.246L208.379 255.964C207.68 255.774 207.126 255.494 206.717 255.125C206.311 254.756 206.108 254.267 206.108 253.659C206.108 253.156 206.244 252.717 206.517 252.342C206.79 251.967 207.159 251.676 207.625 251.469C208.091 251.259 208.616 251.153 209.202 251.153C209.793 251.153 210.314 251.257 210.766 251.464C211.22 251.672 211.578 251.957 211.839 252.321C212.101 252.682 212.237 253.097 212.248 253.565H210.979Z" fill="#F0F6FF"/>
<path d="M264 273.333C262.527 273.333 261.333 274.527 261.333 276C261.333 277.473 262.527 278.667 264 278.667C265.473 278.667 266.667 277.473 266.667 276C266.667 274.527 265.473 273.333 264 273.333ZM263.5 276L263.5 318L264.5 318L264.5 276L263.5 276Z" fill="#19191B" fill-opacity="0.15"/>
<rect x="154.448" y="318.448" width="149.103" height="39.103" rx="7.55151" fill="#19191B"/>
<rect x="154.448" y="318.448" width="149.103" height="39.103" rx="7.55151" stroke="#19191B" stroke-width="0.896971"/>
<path d="M197.576 342H194.751V333.273H197.666C198.521 333.273 199.255 333.447 199.869 333.797C200.482 334.143 200.952 334.642 201.279 335.293C201.609 335.94 201.773 336.717 201.773 337.624C201.773 338.533 201.607 339.314 201.275 339.967C200.945 340.621 200.468 341.124 199.843 341.476C199.218 341.825 198.462 342 197.576 342ZM196.068 340.849H197.504C198.168 340.849 198.721 340.724 199.161 340.474C199.602 340.222 199.931 339.857 200.15 339.379C200.369 338.899 200.478 338.314 200.478 337.624C200.478 336.939 200.369 336.358 200.15 335.881C199.934 335.403 199.612 335.041 199.183 334.794C198.754 334.547 198.221 334.423 197.585 334.423H196.068V340.849ZM204.968 333.273V342H203.651V333.273H204.968ZM211.885 335.565C211.84 335.162 211.652 334.849 211.323 334.628C210.993 334.403 210.578 334.291 210.078 334.291C209.72 334.291 209.411 334.348 209.149 334.462C208.888 334.572 208.685 334.726 208.54 334.922C208.398 335.115 208.327 335.335 208.327 335.582C208.327 335.79 208.375 335.969 208.472 336.119C208.571 336.27 208.701 336.396 208.86 336.499C209.022 336.598 209.195 336.682 209.38 336.75C209.564 336.815 209.742 336.869 209.912 336.912L210.764 337.134C211.043 337.202 211.328 337.294 211.621 337.411C211.914 337.527 212.185 337.68 212.435 337.871C212.685 338.061 212.887 338.297 213.04 338.578C213.196 338.859 213.274 339.196 213.274 339.588C213.274 340.082 213.147 340.521 212.891 340.905C212.638 341.288 212.27 341.591 211.787 341.812C211.307 342.034 210.726 342.145 210.044 342.145C209.391 342.145 208.826 342.041 208.348 341.834C207.871 341.626 207.497 341.332 207.228 340.952C206.958 340.568 206.809 340.114 206.78 339.588H208.101C208.127 339.903 208.229 340.166 208.408 340.376C208.59 340.584 208.821 340.739 209.103 340.841C209.387 340.94 209.698 340.99 210.036 340.99C210.408 340.99 210.739 340.932 211.029 340.815C211.321 340.696 211.551 340.531 211.719 340.321C211.887 340.108 211.97 339.859 211.97 339.575C211.97 339.317 211.897 339.105 211.749 338.94C211.604 338.776 211.407 338.639 211.157 338.531C210.909 338.423 210.63 338.328 210.317 338.246L209.286 337.964C208.587 337.774 208.033 337.494 207.624 337.125C207.218 336.756 207.014 336.267 207.014 335.659C207.014 335.156 207.151 334.717 207.424 334.342C207.696 333.967 208.066 333.676 208.532 333.469C208.997 333.259 209.523 333.153 210.108 333.153C210.699 333.153 211.22 333.257 211.672 333.464C212.127 333.672 212.485 333.957 212.746 334.321C213.007 334.682 213.144 335.097 213.155 335.565H211.885ZM222.337 336.111H221.007C220.956 335.827 220.861 335.577 220.721 335.361C220.582 335.145 220.412 334.962 220.21 334.811C220.008 334.661 219.783 334.547 219.533 334.47C219.285 334.393 219.023 334.355 218.744 334.355C218.241 334.355 217.791 334.482 217.393 334.734C216.998 334.987 216.686 335.358 216.456 335.847C216.229 336.335 216.115 336.932 216.115 337.636C216.115 338.347 216.229 338.946 216.456 339.435C216.686 339.923 217 340.293 217.398 340.543C217.795 340.793 218.243 340.918 218.74 340.918C219.016 340.918 219.277 340.881 219.524 340.807C219.774 340.73 220 340.618 220.202 340.47C220.403 340.322 220.574 340.142 220.713 339.929C220.855 339.713 220.953 339.466 221.007 339.188L222.337 339.192C222.266 339.621 222.128 340.016 221.923 340.376C221.721 340.734 221.462 341.044 221.143 341.305C220.828 341.564 220.467 341.764 220.061 341.906C219.655 342.048 219.212 342.119 218.731 342.119C217.976 342.119 217.302 341.94 216.712 341.582C216.121 341.222 215.655 340.706 215.314 340.036C214.976 339.365 214.807 338.565 214.807 337.636C214.807 336.705 214.977 335.905 215.318 335.237C215.659 334.567 216.125 334.053 216.716 333.695C217.307 333.334 217.979 333.153 218.731 333.153C219.194 333.153 219.626 333.22 220.027 333.354C220.43 333.484 220.792 333.678 221.114 333.933C221.435 334.186 221.7 334.496 221.91 334.862C222.121 335.226 222.263 335.642 222.337 336.111ZM231.733 337.636C231.733 338.568 231.563 339.369 231.222 340.04C230.881 340.707 230.414 341.222 229.82 341.582C229.229 341.94 228.557 342.119 227.804 342.119C227.048 342.119 226.374 341.94 225.78 341.582C225.189 341.222 224.723 340.706 224.382 340.036C224.041 339.365 223.871 338.565 223.871 337.636C223.871 336.705 224.041 335.905 224.382 335.237C224.723 334.567 225.189 334.053 225.78 333.695C226.374 333.334 227.048 333.153 227.804 333.153C228.557 333.153 229.229 333.334 229.82 333.695C230.414 334.053 230.881 334.567 231.222 335.237C231.563 335.905 231.733 336.705 231.733 337.636ZM230.429 337.636C230.429 336.926 230.314 336.328 230.084 335.842C229.857 335.354 229.544 334.984 229.146 334.734C228.752 334.482 228.304 334.355 227.804 334.355C227.301 334.355 226.852 334.482 226.458 334.734C226.063 334.984 225.75 335.354 225.52 335.842C225.293 336.328 225.179 336.926 225.179 337.636C225.179 338.347 225.293 338.946 225.52 339.435C225.75 339.92 226.063 340.29 226.458 340.543C226.852 340.793 227.301 340.918 227.804 340.918C228.304 340.918 228.752 340.793 229.146 340.543C229.544 340.29 229.857 339.92 230.084 339.435C230.314 338.946 230.429 338.347 230.429 337.636ZM233.944 333.273L236.373 340.381H236.471L238.9 333.273H240.323L237.183 342H235.661L232.521 333.273H233.944ZM241.824 342V333.273H247.295V334.406H243.14V337.065H247.01V338.195H243.14V340.866H247.346V342H241.824ZM249.294 342V333.273H252.405C253.081 333.273 253.642 333.389 254.088 333.622C254.537 333.855 254.872 334.178 255.094 334.589C255.315 334.999 255.426 335.472 255.426 336.009C255.426 336.543 255.314 337.013 255.089 337.419C254.868 337.822 254.533 338.136 254.084 338.361C253.638 338.585 253.077 338.697 252.401 338.697H250.044V337.564H252.281C252.707 337.564 253.054 337.503 253.321 337.381C253.591 337.259 253.788 337.081 253.913 336.848C254.038 336.615 254.101 336.335 254.101 336.009C254.101 335.679 254.037 335.393 253.909 335.152C253.784 334.911 253.587 334.726 253.317 334.598C253.05 334.467 252.699 334.402 252.264 334.402H250.611V342H249.294ZM253.602 338.062L255.759 342H254.259L252.145 338.062H253.602ZM256.279 333.273H257.774L260.054 337.24H260.148L262.428 333.273H263.924L260.757 338.574V342H259.445V338.574L256.279 333.273Z" fill="#F0F6FF"/>
<path d="M189 437.333C187.527 437.333 186.333 438.527 186.333 440C186.333 441.473 187.527 442.667 189 442.667C190.473 442.667 191.667 441.473 191.667 440C191.667 438.527 190.473 437.333 189 437.333ZM188.5 440L188.5 482L189.5 482L189.5 440L188.5 440Z" fill="#19191B" fill-opacity="0.15"/>
<rect x="79.4485" y="482.448" width="149.103" height="39.103" rx="7.55151" fill="#19191B"/>
<rect x="79.4485" y="482.448" width="149.103" height="39.103" rx="7.55151" stroke="#19191B" stroke-width="0.896971"/>
<path d="M116.177 506L113.757 497.273H115.142L116.842 504.031H116.923L118.692 497.273H120.064L121.832 504.036H121.913L123.609 497.273H124.998L122.574 506H121.248L119.412 499.463H119.344L117.507 506H116.177ZM127.756 497.273V506H126.439V497.273H127.756ZM129.913 506V497.273H133.024C133.7 497.273 134.262 497.389 134.708 497.622C135.156 497.855 135.492 498.178 135.713 498.589C135.935 498.999 136.046 499.472 136.046 500.009C136.046 500.543 135.933 501.013 135.709 501.419C135.487 501.822 135.152 502.136 134.703 502.361C134.257 502.585 133.696 502.697 133.02 502.697H130.663V501.564H132.901C133.327 501.564 133.673 501.503 133.94 501.381C134.21 501.259 134.408 501.081 134.533 500.848C134.658 500.615 134.72 500.335 134.72 500.009C134.72 499.679 134.656 499.393 134.529 499.152C134.404 498.911 134.206 498.726 133.936 498.598C133.669 498.467 133.318 498.402 132.884 498.402H131.23V506H129.913ZM134.222 502.062L136.378 506H134.878L132.764 502.062H134.222ZM137.888 506V497.273H143.359V498.406H139.205V501.065H143.074V502.195H139.205V504.866H143.411V506H137.888ZM145.358 506V497.273H150.77V498.406H146.675V501.065H150.382V502.195H146.675V506H145.358ZM152.63 506V497.273H155.74C156.417 497.273 156.978 497.389 157.424 497.622C157.872 497.855 158.208 498.178 158.429 498.589C158.651 498.999 158.762 499.472 158.762 500.009C158.762 500.543 158.649 501.013 158.425 501.419C158.203 501.822 157.868 502.136 157.419 502.361C156.973 502.585 156.412 502.697 155.736 502.697H153.38V501.564H155.617C156.043 501.564 156.39 501.503 156.657 501.381C156.926 501.259 157.124 501.081 157.249 500.848C157.374 500.615 157.436 500.335 157.436 500.009C157.436 499.679 157.372 499.393 157.245 499.152C157.12 498.911 156.922 498.726 156.652 498.598C156.385 498.467 156.034 498.402 155.6 498.402H153.946V506H152.63ZM156.938 502.062L159.094 506H157.594L155.48 502.062H156.938ZM161.341 506H159.943L163.084 497.273H164.605L167.746 506H166.348L163.881 498.858H163.813L161.341 506ZM161.576 502.582H166.11V503.69H161.576V502.582ZM169.246 497.273H170.844L173.623 504.057H173.725L176.503 497.273H178.101V506H176.849V499.685H176.768L174.194 505.987H173.154L170.58 499.68H170.499V506H169.246V497.273ZM180.256 506V497.273H185.727V498.406H181.573V501.065H185.442V502.195H181.573V504.866H185.779V506H180.256ZM192.486 499.565C192.441 499.162 192.253 498.849 191.924 498.628C191.594 498.403 191.179 498.291 190.679 498.291C190.321 498.291 190.012 498.348 189.75 498.462C189.489 498.572 189.286 498.726 189.141 498.922C188.999 499.115 188.928 499.335 188.928 499.582C188.928 499.79 188.976 499.969 189.073 500.119C189.172 500.27 189.302 500.396 189.461 500.499C189.623 500.598 189.796 500.682 189.981 500.75C190.165 500.815 190.343 500.869 190.513 500.912L191.366 501.134C191.644 501.202 191.929 501.294 192.222 501.411C192.515 501.527 192.786 501.68 193.036 501.871C193.286 502.061 193.488 502.297 193.641 502.578C193.797 502.859 193.875 503.196 193.875 503.588C193.875 504.082 193.748 504.521 193.492 504.905C193.239 505.288 192.871 505.591 192.388 505.812C191.908 506.034 191.327 506.145 190.645 506.145C189.992 506.145 189.427 506.041 188.949 505.834C188.472 505.626 188.098 505.332 187.829 504.952C187.559 504.568 187.41 504.114 187.381 503.588H188.702C188.728 503.903 188.83 504.166 189.009 504.376C189.191 504.584 189.422 504.739 189.704 504.841C189.988 504.94 190.299 504.99 190.637 504.99C191.009 504.99 191.34 504.932 191.63 504.815C191.922 504.696 192.152 504.531 192.32 504.321C192.488 504.108 192.571 503.859 192.571 503.575C192.571 503.317 192.498 503.105 192.35 502.94C192.205 502.776 192.008 502.639 191.758 502.531C191.51 502.423 191.231 502.328 190.918 502.246L189.887 501.964C189.188 501.774 188.634 501.494 188.225 501.125C187.819 500.756 187.616 500.267 187.616 499.659C187.616 499.156 187.752 498.717 188.025 498.342C188.297 497.967 188.667 497.676 189.133 497.469C189.598 497.259 190.124 497.153 190.709 497.153C191.3 497.153 191.821 497.257 192.273 497.464C192.728 497.672 193.086 497.957 193.347 498.321C193.608 498.682 193.745 499.097 193.756 499.565H192.486Z" fill="#F0F6FF"/>
</svg>