<svg xmlns="http://www.w3.org/2000/svg" width="1184" height="226" viewBox="0 0 1184 226" fill="none">
<rect width="64" height="64" rx="32" fill="#E33230"/>
<path fill-rule="evenodd" clip-rule="evenodd" d="M32.722 33.0987C30.765 33.0987 29.2501 31.5911 29.2501 29.6748H24.832C24.832 33.947 28.3351 37.3399 32.722 37.3399V33.0987Z" fill="#19191B"/>
<path fill-rule="evenodd" clip-rule="evenodd" d="M32.7188 26.2503C34.6754 26.2503 36.19 27.7582 36.19 29.6745H40.6084C40.6084 25.4023 37.1053 22.0098 32.7188 22.0098V26.2503Z" fill="#19191B"/>
<path fill-rule="evenodd" clip-rule="evenodd" d="M32.7188 37.3399C37.1053 37.3399 40.6084 33.947 40.6084 29.6748H36.19C36.19 31.5911 34.6754 33.0987 32.7188 33.0987V37.3399Z" fill="#19191B"/>
<path fill-rule="evenodd" clip-rule="evenodd" d="M34.1094 25.2143H38.812L41.9994 20H37.2971L34.1094 25.2143Z" fill="#19191B"/>
<path fill-rule="evenodd" clip-rule="evenodd" d="M23 43.9986H27.7023L32.9727 35.2656H28.2707L23 43.9986Z" fill="#19191B"/>
<path fill-rule="evenodd" clip-rule="evenodd" d="M25.0469 44.0003H40.858V39.8535H25.678L25.0469 44.0003Z" fill="#19191B"/>
<path fill-rule="evenodd" clip-rule="evenodd" d="M32.722 22.0098C28.3351 22.0098 24.832 25.4023 24.832 29.6745H29.2501C29.2501 27.7582 30.765 26.2503 32.722 26.2503V22.0098Z" fill="#19191B"/>
<path d="M105.333 31C105.333 32.4728 106.527 33.6667 108 33.6667C109.473 33.6667 110.667 32.4728 110.667 31C110.667 29.5272 109.473 28.3333 108 28.3333C106.527 28.3333 105.333 29.5272 105.333 31ZM108 31.5H178V30.5H108V31.5Z" fill="#19191B" fill-opacity="0.15"/>
<rect x="178.448" y="11.4485" width="159.103" height="39.103" rx="7.55151" fill="#19191B"/>
<rect x="178.448" y="11.4485" width="159.103" height="39.103" rx="7.55151" stroke="#19191B" stroke-width="0.896971"/>
<path d="M223.764 26.2727V35H222.447V26.2727H223.764ZM232.966 26.2727V35H231.755L227.319 28.5994H227.238V35H225.922V26.2727H227.14L231.581 32.6818H231.662V26.2727H232.966ZM234.696 27.4062V26.2727H241.45V27.4062H238.727V35H237.415V27.4062H234.696ZM243.183 35V26.2727H246.294C246.97 26.2727 247.531 26.3892 247.977 26.6222C248.426 26.8551 248.761 27.1776 248.983 27.5895C249.204 27.9986 249.315 28.4716 249.315 29.0085C249.315 29.5426 249.203 30.0128 248.978 30.419C248.757 30.8224 248.421 31.1364 247.973 31.3608C247.527 31.5852 246.965 31.6974 246.289 31.6974H243.933V30.5639H246.17C246.596 30.5639 246.943 30.5028 247.21 30.3807C247.48 30.2585 247.677 30.081 247.802 29.848C247.927 29.6151 247.99 29.3352 247.99 29.0085C247.99 28.679 247.926 28.3935 247.798 28.152C247.673 27.9105 247.475 27.7259 247.206 27.598C246.938 27.4673 246.588 27.402 246.153 27.402H244.5V35H243.183ZM247.491 31.0625L249.647 35H248.147L246.034 31.0625H247.491ZM258.738 30.6364C258.738 31.5682 258.568 32.3693 258.227 33.0398C257.886 33.7074 257.419 34.2216 256.825 34.5824C256.234 34.9403 255.562 35.1193 254.809 35.1193C254.053 35.1193 253.379 34.9403 252.785 34.5824C252.194 34.2216 251.728 33.706 251.387 33.0355C251.046 32.3651 250.876 31.5653 250.876 30.6364C250.876 29.7045 251.046 28.9048 251.387 28.2372C251.728 27.5668 252.194 27.0526 252.785 26.6946C253.379 26.3338 254.053 26.1534 254.809 26.1534C255.562 26.1534 256.234 26.3338 256.825 26.6946C257.419 27.0526 257.886 27.5668 258.227 28.2372C258.568 28.9048 258.738 29.7045 258.738 30.6364ZM257.434 30.6364C257.434 29.9261 257.319 29.3281 257.089 28.8423C256.862 28.3537 256.549 27.9844 256.151 27.7344C255.757 27.4815 255.309 27.3551 254.809 27.3551C254.306 27.3551 253.857 27.4815 253.463 27.7344C253.068 27.9844 252.755 28.3537 252.525 28.8423C252.298 29.3281 252.184 29.9261 252.184 30.6364C252.184 31.3466 252.298 31.946 252.525 32.4347C252.755 32.9205 253.068 33.2898 253.463 33.5426C253.857 33.7926 254.306 33.9176 254.809 33.9176C255.309 33.9176 255.757 33.7926 256.151 33.5426C256.549 33.2898 256.862 32.9205 257.089 32.4347C257.319 31.946 257.434 31.3466 257.434 30.6364ZM271.284 29.1108H269.955C269.903 28.8267 269.808 28.5767 269.669 28.3608C269.53 28.1449 269.359 27.9616 269.158 27.8111C268.956 27.6605 268.73 27.5469 268.48 27.4702C268.233 27.3935 267.97 27.3551 267.692 27.3551C267.189 27.3551 266.739 27.4815 266.341 27.7344C265.946 27.9872 265.634 28.358 265.403 28.8466C265.176 29.3352 265.063 29.9318 265.063 30.6364C265.063 31.3466 265.176 31.946 265.403 32.4347C265.634 32.9233 265.948 33.2926 266.345 33.5426C266.743 33.7926 267.19 33.9176 267.688 33.9176C267.963 33.9176 268.225 33.8807 268.472 33.8068C268.722 33.7301 268.948 33.6179 269.149 33.4702C269.351 33.3224 269.521 33.142 269.661 32.929C269.803 32.7131 269.901 32.4659 269.955 32.1875L271.284 32.1918C271.213 32.6207 271.075 33.0156 270.871 33.3764C270.669 33.7344 270.409 34.044 270.091 34.3054C269.776 34.5639 269.415 34.7642 269.009 34.9062C268.602 35.0483 268.159 35.1193 267.679 35.1193C266.923 35.1193 266.25 34.9403 265.659 34.5824C265.068 34.2216 264.602 33.706 264.261 33.0355C263.923 32.3651 263.754 31.5653 263.754 30.6364C263.754 29.7045 263.925 28.9048 264.266 28.2372C264.607 27.5668 265.073 27.0526 265.663 26.6946C266.254 26.3338 266.926 26.1534 267.679 26.1534C268.142 26.1534 268.574 26.2202 268.975 26.3537C269.378 26.4844 269.74 26.6776 270.061 26.9332C270.382 27.1861 270.648 27.4957 270.858 27.8622C271.068 28.2259 271.21 28.642 271.284 29.1108ZM273.778 35H272.381L275.521 26.2727H277.043L280.183 35H278.786L276.318 27.858H276.25L273.778 35ZM274.013 31.5824H278.547V32.6903H274.013V31.5824ZM281.684 35V26.2727H283V33.8665H286.955V35H281.684ZM288.697 35V26.2727H290.014V33.8665H293.968V35H288.697Z" fill="#F0F6FF"/>
<path d="M460.333 146C460.333 147.473 461.527 148.667 463 148.667C464.473 148.667 465.667 147.473 465.667 146C465.667 144.527 464.473 143.333 463 143.333C461.527 143.333 460.333 144.527 460.333 146ZM463 146.5H579V145.5H463V146.5Z" fill="#19191B" fill-opacity="0.15"/>
<rect x="579.448" y="126.448" width="159.103" height="39.103" rx="7.55151" fill="#19191B"/>
<rect x="579.448" y="126.448" width="159.103" height="39.103" rx="7.55151" stroke="#19191B" stroke-width="0.896971"/>
<path d="M632.578 143.565C632.533 143.162 632.345 142.849 632.015 142.628C631.686 142.403 631.271 142.291 630.771 142.291C630.413 142.291 630.104 142.348 629.842 142.462C629.581 142.572 629.378 142.726 629.233 142.922C629.091 143.115 629.02 143.335 629.02 143.582C629.02 143.79 629.068 143.969 629.165 144.119C629.264 144.27 629.393 144.396 629.552 144.499C629.714 144.598 629.888 144.682 630.072 144.75C630.257 144.815 630.435 144.869 630.605 144.912L631.457 145.134C631.736 145.202 632.021 145.294 632.314 145.411C632.606 145.527 632.878 145.68 633.128 145.871C633.378 146.061 633.579 146.297 633.733 146.578C633.889 146.859 633.967 147.196 633.967 147.588C633.967 148.082 633.839 148.521 633.584 148.905C633.331 149.288 632.963 149.591 632.48 149.812C632 150.034 631.419 150.145 630.737 150.145C630.084 150.145 629.518 150.041 629.041 149.834C628.564 149.626 628.19 149.332 627.92 148.952C627.65 148.568 627.501 148.114 627.473 147.588H628.794C628.819 147.903 628.922 148.166 629.101 148.376C629.283 148.584 629.514 148.739 629.795 148.841C630.079 148.94 630.39 148.99 630.729 148.99C631.101 148.99 631.432 148.932 631.721 148.815C632.014 148.696 632.244 148.531 632.412 148.321C632.579 148.108 632.663 147.859 632.663 147.575C632.663 147.317 632.589 147.105 632.442 146.94C632.297 146.776 632.099 146.639 631.849 146.531C631.602 146.423 631.322 146.328 631.01 146.246L629.979 145.964C629.28 145.774 628.726 145.494 628.317 145.125C627.91 144.756 627.707 144.267 627.707 143.659C627.707 143.156 627.844 142.717 628.116 142.342C628.389 141.967 628.758 141.676 629.224 141.469C629.69 141.259 630.216 141.153 630.801 141.153C631.392 141.153 631.913 141.257 632.365 141.464C632.819 141.672 633.177 141.957 633.439 142.321C633.7 142.682 633.836 143.097 633.848 143.565H632.578ZM635.35 142.406V141.273H642.105V142.406H639.382V150H638.069V142.406H635.35ZM643.837 150V141.273H646.948C647.624 141.273 648.185 141.389 648.631 141.622C649.08 141.855 649.415 142.178 649.637 142.589C649.858 142.999 649.969 143.472 649.969 144.009C649.969 144.543 649.857 145.013 649.633 145.419C649.411 145.822 649.076 146.136 648.627 146.361C648.181 146.585 647.62 146.697 646.944 146.697H644.587V145.564H646.824C647.25 145.564 647.597 145.503 647.864 145.381C648.134 145.259 648.331 145.081 648.456 144.848C648.581 144.615 648.644 144.335 648.644 144.009C648.644 143.679 648.58 143.393 648.452 143.152C648.327 142.911 648.13 142.726 647.86 142.598C647.593 142.467 647.242 142.402 646.807 142.402H645.154V150H643.837ZM648.145 146.062L650.302 150H648.802L646.688 146.062H648.145ZM652.549 150H651.151L654.292 141.273H655.813L658.954 150H657.556L655.088 142.858H655.02L652.549 150ZM652.783 146.582H657.317V147.69H652.783V146.582ZM658.992 142.406V141.273H665.746V142.406H663.023V150H661.711V142.406H658.992ZM667.479 150V141.273H672.951V142.406H668.796V145.065H672.665V146.195H668.796V148.866H673.002V150H667.479ZM680.856 144.03C680.773 143.771 680.662 143.54 680.523 143.335C680.387 143.128 680.224 142.952 680.033 142.807C679.843 142.659 679.626 142.547 679.381 142.47C679.14 142.393 678.874 142.355 678.584 142.355C678.093 142.355 677.65 142.482 677.255 142.734C676.86 142.987 676.547 143.358 676.317 143.847C676.09 144.332 675.976 144.928 675.976 145.632C675.976 146.339 676.091 146.937 676.322 147.426C676.552 147.915 676.867 148.286 677.268 148.538C677.668 148.791 678.124 148.918 678.636 148.918C679.11 148.918 679.523 148.821 679.876 148.628C680.231 148.435 680.505 148.162 680.698 147.81C680.894 147.455 680.992 147.037 680.992 146.557L681.333 146.621H678.836V145.534H682.266V146.527C682.266 147.26 682.11 147.896 681.797 148.436C681.488 148.973 681.059 149.388 680.511 149.68C679.965 149.973 679.34 150.119 678.636 150.119C677.846 150.119 677.153 149.938 676.556 149.574C675.962 149.21 675.499 148.695 675.167 148.027C674.834 147.357 674.668 146.561 674.668 145.641C674.668 144.945 674.765 144.32 674.958 143.766C675.151 143.212 675.422 142.741 675.772 142.355C676.124 141.966 676.537 141.669 677.012 141.464C677.489 141.257 678.011 141.153 678.576 141.153C679.047 141.153 679.486 141.223 679.893 141.362C680.302 141.501 680.665 141.699 680.984 141.955C681.305 142.21 681.57 142.514 681.78 142.866C681.991 143.216 682.133 143.604 682.207 144.03H680.856ZM683.211 141.273H684.707L686.987 145.24H687.081L689.361 141.273H690.856L687.69 146.574V150H686.378V146.574L683.211 141.273Z" fill="#F0F6FF"/>
<path d="M574.333 203C574.333 204.473 575.527 205.667 577 205.667C578.473 205.667 579.667 204.473 579.667 203C579.667 201.527 578.473 200.333 577 200.333C575.527 200.333 574.333 201.527 574.333 203ZM577 203.5H739V202.5H577V203.5Z" fill="#19191B" fill-opacity="0.15"/>
<rect x="739.448" y="183.448" width="159.103" height="39.103" rx="7.55151" fill="#19191B"/>
<rect x="739.448" y="183.448" width="159.103" height="39.103" rx="7.55151" stroke="#19191B" stroke-width="0.896971"/>
<path d="M781.177 207L778.757 198.273H780.142L781.842 205.031H781.923L783.692 198.273H785.064L786.832 205.036H786.913L788.609 198.273H789.998L787.574 207H786.248L784.412 200.463H784.344L782.507 207H781.177ZM792.756 198.273V207H791.439V198.273H792.756ZM794.913 207V198.273H798.024C798.7 198.273 799.262 198.389 799.708 198.622C800.156 198.855 800.492 199.178 800.713 199.589C800.935 199.999 801.046 200.472 801.046 201.009C801.046 201.543 800.933 202.013 800.709 202.419C800.487 202.822 800.152 203.136 799.703 203.361C799.257 203.585 798.696 203.697 798.02 203.697H795.663V202.564H797.901C798.327 202.564 798.673 202.503 798.94 202.381C799.21 202.259 799.408 202.081 799.533 201.848C799.658 201.615 799.72 201.335 799.72 201.009C799.72 200.679 799.656 200.393 799.529 200.152C799.404 199.911 799.206 199.726 798.936 199.598C798.669 199.467 798.318 199.402 797.884 199.402H796.23V207H794.913ZM799.222 203.062L801.378 207H799.878L797.764 203.062H799.222ZM802.888 207V198.273H808.359V199.406H804.205V202.065H808.074V203.195H804.205V205.866H808.411V207H802.888ZM810.358 207V198.273H815.77V199.406H811.675V202.065H815.382V203.195H811.675V207H810.358ZM817.63 207V198.273H820.74C821.417 198.273 821.978 198.389 822.424 198.622C822.872 198.855 823.208 199.178 823.429 199.589C823.651 199.999 823.762 200.472 823.762 201.009C823.762 201.543 823.649 202.013 823.425 202.419C823.203 202.822 822.868 203.136 822.419 203.361C821.973 203.585 821.412 203.697 820.736 203.697H818.38V202.564H820.617C821.043 202.564 821.39 202.503 821.657 202.381C821.926 202.259 822.124 202.081 822.249 201.848C822.374 201.615 822.436 201.335 822.436 201.009C822.436 200.679 822.372 200.393 822.245 200.152C822.12 199.911 821.922 199.726 821.652 199.598C821.385 199.467 821.034 199.402 820.6 199.402H818.946V207H817.63ZM821.938 203.062L824.094 207H822.594L820.48 203.062H821.938ZM826.341 207H824.943L828.084 198.273H829.605L832.746 207H831.348L828.881 199.858H828.813L826.341 207ZM826.576 203.582H831.11V204.69H826.576V203.582ZM834.246 198.273H835.844L838.623 205.057H838.725L841.503 198.273H843.101V207H841.849V200.685H841.768L839.194 206.987H838.154L835.58 200.68H835.499V207H834.246V198.273ZM845.256 207V198.273H850.727V199.406H846.573V202.065H850.442V203.195H846.573V205.866H850.779V207H845.256ZM857.486 200.565C857.441 200.162 857.253 199.849 856.924 199.628C856.594 199.403 856.179 199.291 855.679 199.291C855.321 199.291 855.012 199.348 854.75 199.462C854.489 199.572 854.286 199.726 854.141 199.922C853.999 200.115 853.928 200.335 853.928 200.582C853.928 200.79 853.976 200.969 854.073 201.119C854.172 201.27 854.302 201.396 854.461 201.499C854.623 201.598 854.796 201.682 854.981 201.75C855.165 201.815 855.343 201.869 855.513 201.912L856.366 202.134C856.644 202.202 856.929 202.294 857.222 202.411C857.515 202.527 857.786 202.68 858.036 202.871C858.286 203.061 858.488 203.297 858.641 203.578C858.797 203.859 858.875 204.196 858.875 204.588C858.875 205.082 858.748 205.521 858.492 205.905C858.239 206.288 857.871 206.591 857.388 206.812C856.908 207.034 856.327 207.145 855.645 207.145C854.992 207.145 854.427 207.041 853.949 206.834C853.472 206.626 853.098 206.332 852.829 205.952C852.559 205.568 852.41 205.114 852.381 204.588H853.702C853.728 204.903 853.83 205.166 854.009 205.376C854.191 205.584 854.422 205.739 854.704 205.841C854.988 205.94 855.299 205.99 855.637 205.99C856.009 205.99 856.34 205.932 856.63 205.815C856.922 205.696 857.152 205.531 857.32 205.321C857.488 205.108 857.571 204.859 857.571 204.575C857.571 204.317 857.498 204.105 857.35 203.94C857.205 203.776 857.008 203.639 856.758 203.531C856.51 203.423 856.231 203.328 855.918 203.246L854.887 202.964C854.188 202.774 853.634 202.494 853.225 202.125C852.819 201.756 852.616 201.267 852.616 200.659C852.616 200.156 852.752 199.717 853.025 199.342C853.297 198.967 853.667 198.676 854.133 198.469C854.598 198.259 855.124 198.153 855.709 198.153C856.3 198.153 856.821 198.257 857.273 198.464C857.728 198.672 858.086 198.957 858.347 199.321C858.608 199.682 858.745 200.097 858.756 200.565H857.486Z" fill="#F0F6FF"/>
<path d="M953.501 202.982C953.501 204.455 954.695 205.649 956.168 205.649C957.641 205.649 958.835 204.455 958.835 202.982C958.835 201.51 957.641 200.316 956.168 200.316C954.695 200.316 953.501 201.51 953.501 202.982ZM956.168 203.482H1024V202.482H956.168V203.482Z" fill="#19191B" fill-opacity="0.15"/>
<rect x="1024.45" y="183.431" width="159.103" height="39.103" rx="7.55151" fill="#19191B"/>
<rect x="1024.45" y="183.431" width="159.103" height="39.103" rx="7.55151" stroke="#19191B" stroke-width="0.896971"/>
<path d="M1041.48 206.982V198.255H1044.59C1045.27 198.255 1045.83 198.372 1046.27 198.605C1046.72 198.838 1047.06 199.16 1047.28 199.572C1047.5 199.981 1047.61 200.454 1047.61 200.991C1047.61 201.525 1047.5 201.995 1047.28 202.401C1047.05 202.805 1046.72 203.119 1046.27 203.343C1045.82 203.568 1045.26 203.68 1044.59 203.68H1042.23V202.546H1044.47C1044.89 202.546 1045.24 202.485 1045.51 202.363C1045.78 202.241 1045.97 202.063 1046.1 201.83C1046.22 201.597 1046.29 201.318 1046.29 200.991C1046.29 200.661 1046.22 200.376 1046.1 200.134C1045.97 199.893 1045.77 199.708 1045.5 199.58C1045.24 199.45 1044.89 199.384 1044.45 199.384H1042.8V206.982H1041.48ZM1045.79 203.045L1047.94 206.982H1046.44L1044.33 203.045H1045.79ZM1049.45 206.982V198.255H1054.93V199.389H1050.77V202.048H1054.64V203.177H1050.77V205.849H1054.98V206.982H1049.45ZM1056.93 206.982V198.255H1058.24V205.849H1062.2V206.982H1056.93ZM1063.94 206.982V198.255H1069.41V199.389H1065.26V202.048H1069.12V203.177H1065.26V205.849H1069.46V206.982H1063.94ZM1072.15 206.982H1070.75L1073.89 198.255H1075.41L1078.55 206.982H1077.15L1074.69 199.84H1074.62L1072.15 206.982ZM1072.38 203.565H1076.91V204.673H1072.38V203.565ZM1084.74 200.548C1084.7 200.144 1084.51 199.832 1084.18 199.61C1083.85 199.386 1083.43 199.274 1082.93 199.274C1082.58 199.274 1082.27 199.33 1082.01 199.444C1081.74 199.555 1081.54 199.708 1081.4 199.904C1081.25 200.097 1081.18 200.318 1081.18 200.565C1081.18 200.772 1081.23 200.951 1081.33 201.102C1081.43 201.252 1081.56 201.379 1081.72 201.481C1081.88 201.58 1082.05 201.664 1082.24 201.732C1082.42 201.798 1082.6 201.852 1082.77 201.894L1083.62 202.116C1083.9 202.184 1084.18 202.276 1084.48 202.393C1084.77 202.509 1085.04 202.663 1085.29 202.853C1085.54 203.044 1085.74 203.279 1085.9 203.561C1086.05 203.842 1086.13 204.178 1086.13 204.57C1086.13 205.065 1086 205.504 1085.75 205.887C1085.49 206.271 1085.13 206.573 1084.64 206.795C1084.16 207.017 1083.58 207.127 1082.9 207.127C1082.25 207.127 1081.68 207.024 1081.2 206.816C1080.73 206.609 1080.35 206.315 1080.08 205.934C1079.81 205.551 1079.66 205.096 1079.64 204.57H1080.96C1080.98 204.886 1081.08 205.149 1081.26 205.359C1081.45 205.566 1081.68 205.721 1081.96 205.823C1082.24 205.923 1082.55 205.972 1082.89 205.972C1083.26 205.972 1083.59 205.914 1083.88 205.798C1084.18 205.678 1084.41 205.514 1084.57 205.303C1084.74 205.09 1084.83 204.842 1084.83 204.558C1084.83 204.299 1084.75 204.088 1084.6 203.923C1084.46 203.758 1084.26 203.622 1084.01 203.514C1083.77 203.406 1083.49 203.311 1083.17 203.228L1082.14 202.947C1081.44 202.757 1080.89 202.477 1080.48 202.107C1080.07 201.738 1079.87 201.249 1079.87 200.642C1079.87 200.139 1080.01 199.7 1080.28 199.325C1080.55 198.95 1080.92 198.659 1081.39 198.451C1081.85 198.241 1082.38 198.136 1082.96 198.136C1083.55 198.136 1084.08 198.24 1084.53 198.447C1084.98 198.654 1085.34 198.94 1085.6 199.303C1085.86 199.664 1086 200.079 1086.01 200.548H1084.74ZM1087.94 206.982V198.255H1093.42V199.389H1089.26V202.048H1093.13V203.177H1089.26V205.849H1093.47V206.982H1087.94ZM1101.27 207.106C1100.68 207.106 1100.18 206.999 1099.75 206.786C1099.33 206.573 1099.01 206.284 1098.78 205.917C1098.56 205.548 1098.44 205.13 1098.44 204.664C1098.44 204.309 1098.52 203.994 1098.66 203.718C1098.81 203.44 1099.02 203.183 1099.28 202.947C1099.55 202.711 1099.85 202.474 1100.2 202.235L1101.6 201.242C1101.84 201.086 1102.03 200.921 1102.16 200.748C1102.3 200.572 1102.36 200.355 1102.36 200.096C1102.36 199.892 1102.27 199.695 1102.1 199.508C1101.92 199.32 1101.69 199.227 1101.39 199.227C1101.19 199.227 1101.01 199.276 1100.85 199.376C1100.7 199.475 1100.58 199.603 1100.49 199.759C1100.4 199.913 1100.36 200.075 1100.36 200.245C1100.36 200.444 1100.41 200.644 1100.52 200.846C1100.63 201.048 1100.77 201.257 1100.95 201.472C1101.12 201.686 1101.3 201.907 1101.49 202.137L1105.55 206.982H1104.11L1100.75 203.041C1100.47 202.708 1100.21 202.396 1099.97 202.103C1099.73 201.808 1099.53 201.509 1099.38 201.208C1099.23 200.904 1099.16 200.576 1099.16 200.224C1099.16 199.823 1099.25 199.468 1099.43 199.159C1099.62 198.846 1099.87 198.602 1100.2 198.426C1100.53 198.249 1100.92 198.161 1101.36 198.161C1101.81 198.161 1102.19 198.249 1102.52 198.426C1102.84 198.599 1103.09 198.83 1103.26 199.12C1103.44 199.407 1103.53 199.721 1103.53 200.062C1103.53 200.477 1103.42 200.843 1103.21 201.161C1103.01 201.477 1102.73 201.767 1102.37 202.031L1100.62 203.322C1100.27 203.572 1100.04 203.819 1099.9 204.063C1099.77 204.305 1099.71 204.494 1099.71 204.63C1099.71 204.88 1099.77 205.112 1099.9 205.325C1100.03 205.538 1100.21 205.708 1100.44 205.836C1100.68 205.964 1100.96 206.028 1101.27 206.028C1101.6 206.028 1101.91 205.958 1102.22 205.819C1102.53 205.677 1102.81 205.474 1103.06 205.21C1103.31 204.945 1103.51 204.629 1103.66 204.259C1103.81 203.89 1103.88 203.477 1103.88 203.019H1105.03C1105.03 203.582 1104.97 204.058 1104.84 204.447C1104.71 204.833 1104.56 205.149 1104.37 205.393C1104.19 205.634 1104.03 205.823 1103.87 205.96C1103.82 206.005 1103.77 206.051 1103.72 206.096C1103.68 206.142 1103.63 206.187 1103.58 206.232C1103.28 206.531 1102.92 206.751 1102.5 206.893C1102.09 207.035 1101.67 207.106 1101.27 207.106ZM1115.06 200.548C1115.02 200.144 1114.83 199.832 1114.5 199.61C1114.17 199.386 1113.76 199.274 1113.26 199.274C1112.9 199.274 1112.59 199.33 1112.33 199.444C1112.06 199.555 1111.86 199.708 1111.72 199.904C1111.57 200.097 1111.5 200.318 1111.5 200.565C1111.5 200.772 1111.55 200.951 1111.65 201.102C1111.75 201.252 1111.88 201.379 1112.04 201.481C1112.2 201.58 1112.37 201.664 1112.56 201.732C1112.74 201.798 1112.92 201.852 1113.09 201.894L1113.94 202.116C1114.22 202.184 1114.51 202.276 1114.8 202.393C1115.09 202.509 1115.36 202.663 1115.61 202.853C1115.86 203.044 1116.06 203.279 1116.22 203.561C1116.37 203.842 1116.45 204.178 1116.45 204.57C1116.45 205.065 1116.32 205.504 1116.07 205.887C1115.81 206.271 1115.45 206.573 1114.96 206.795C1114.48 207.017 1113.9 207.127 1113.22 207.127C1112.57 207.127 1112 207.024 1111.53 206.816C1111.05 206.609 1110.67 206.315 1110.4 205.934C1110.13 205.551 1109.99 205.096 1109.96 204.57H1111.28C1111.3 204.886 1111.41 205.149 1111.58 205.359C1111.77 205.566 1112 205.721 1112.28 205.823C1112.56 205.923 1112.87 205.972 1113.21 205.972C1113.58 205.972 1113.92 205.914 1114.21 205.798C1114.5 205.678 1114.73 205.514 1114.9 205.303C1115.06 205.09 1115.15 204.842 1115.15 204.558C1115.15 204.299 1115.07 204.088 1114.93 203.923C1114.78 203.758 1114.58 203.622 1114.33 203.514C1114.09 203.406 1113.81 203.311 1113.49 203.228L1112.46 202.947C1111.76 202.757 1111.21 202.477 1110.8 202.107C1110.39 201.738 1110.19 201.249 1110.19 200.642C1110.19 200.139 1110.33 199.7 1110.6 199.325C1110.87 198.95 1111.24 198.659 1111.71 198.451C1112.17 198.241 1112.7 198.136 1113.29 198.136C1113.88 198.136 1114.4 198.24 1114.85 198.447C1115.3 198.654 1115.66 198.94 1115.92 199.303C1116.18 199.664 1116.32 200.079 1116.33 200.548H1115.06ZM1123.88 198.255H1125.2V203.995C1125.2 204.606 1125.05 205.147 1124.77 205.619C1124.48 206.088 1124.08 206.457 1123.56 206.727C1123.04 206.994 1122.43 207.127 1121.73 207.127C1121.03 207.127 1120.43 206.994 1119.91 206.727C1119.39 206.457 1118.98 206.088 1118.7 205.619C1118.41 205.147 1118.26 204.606 1118.26 203.995V198.255H1119.58V203.889C1119.58 204.284 1119.67 204.634 1119.84 204.941C1120.02 205.248 1120.27 205.49 1120.59 205.666C1120.91 205.839 1121.29 205.926 1121.73 205.926C1122.17 205.926 1122.55 205.839 1122.88 205.666C1123.2 205.49 1123.45 205.248 1123.62 204.941C1123.79 204.634 1123.88 204.284 1123.88 203.889V198.255ZM1127.35 206.982V198.255H1130.46C1131.14 198.255 1131.7 198.379 1132.15 198.626C1132.6 198.873 1132.93 199.211 1133.15 199.64C1133.37 200.066 1133.48 200.546 1133.48 201.08C1133.48 201.617 1133.37 202.1 1133.15 202.529C1132.93 202.955 1132.59 203.294 1132.14 203.544C1131.7 203.791 1131.14 203.914 1130.46 203.914H1128.32V202.798H1130.34C1130.77 202.798 1131.12 202.724 1131.38 202.576C1131.65 202.426 1131.85 202.221 1131.97 201.963C1132.1 201.704 1132.16 201.41 1132.16 201.08C1132.16 200.751 1132.1 200.458 1131.97 200.203C1131.85 199.947 1131.65 199.747 1131.38 199.602C1131.11 199.457 1130.76 199.384 1130.32 199.384H1128.67V206.982H1127.35ZM1135.27 206.982V198.255H1138.38C1139.06 198.255 1139.62 198.379 1140.07 198.626C1140.51 198.873 1140.85 199.211 1141.07 199.64C1141.29 200.066 1141.4 200.546 1141.4 201.08C1141.4 201.617 1141.29 202.1 1141.06 202.529C1140.84 202.955 1140.51 203.294 1140.06 203.544C1139.61 203.791 1139.05 203.914 1138.37 203.914H1136.24V202.798H1138.26C1138.68 202.798 1139.03 202.724 1139.3 202.576C1139.57 202.426 1139.76 202.221 1139.89 201.963C1140.01 201.704 1140.08 201.41 1140.08 201.08C1140.08 200.751 1140.01 200.458 1139.89 200.203C1139.76 199.947 1139.57 199.747 1139.3 199.602C1139.03 199.457 1138.68 199.384 1138.24 199.384H1136.58V206.982H1135.27ZM1150.76 202.619C1150.76 203.551 1150.59 204.352 1150.25 205.022C1149.91 205.69 1149.45 206.204 1148.85 206.565C1148.26 206.923 1147.59 207.102 1146.84 207.102C1146.08 207.102 1145.41 206.923 1144.81 206.565C1144.22 206.204 1143.75 205.688 1143.41 205.018C1143.07 204.347 1142.9 203.548 1142.9 202.619C1142.9 201.687 1143.07 200.887 1143.41 200.22C1143.75 199.549 1144.22 199.035 1144.81 198.677C1145.41 198.316 1146.08 198.136 1146.84 198.136C1147.59 198.136 1148.26 198.316 1148.85 198.677C1149.45 199.035 1149.91 199.549 1150.25 200.22C1150.59 200.887 1150.76 201.687 1150.76 202.619ZM1149.46 202.619C1149.46 201.909 1149.35 201.311 1149.12 200.825C1148.89 200.336 1148.58 199.967 1148.18 199.717C1147.78 199.464 1147.34 199.338 1146.84 199.338C1146.33 199.338 1145.88 199.464 1145.49 199.717C1145.09 199.967 1144.78 200.336 1144.55 200.825C1144.32 201.311 1144.21 201.909 1144.21 202.619C1144.21 203.329 1144.32 203.928 1144.55 204.417C1144.78 204.903 1145.09 205.272 1145.49 205.525C1145.88 205.775 1146.33 205.9 1146.84 205.9C1147.34 205.9 1147.78 205.775 1148.18 205.525C1148.58 205.272 1148.89 204.903 1149.12 204.417C1149.35 203.928 1149.46 203.329 1149.46 202.619ZM1152.65 206.982V198.255H1155.76C1156.43 198.255 1156.99 198.372 1157.44 198.605C1157.89 198.838 1158.22 199.16 1158.45 199.572C1158.67 199.981 1158.78 200.454 1158.78 200.991C1158.78 201.525 1158.67 201.995 1158.44 202.401C1158.22 202.805 1157.89 203.119 1157.44 203.343C1156.99 203.568 1156.43 203.68 1155.75 203.68H1153.4V202.546H1155.63C1156.06 202.546 1156.41 202.485 1156.67 202.363C1156.94 202.241 1157.14 202.063 1157.27 201.83C1157.39 201.597 1157.45 201.318 1157.45 200.991C1157.45 200.661 1157.39 200.376 1157.26 200.134C1157.14 199.893 1156.94 199.708 1156.67 199.58C1156.4 199.45 1156.05 199.384 1155.62 199.384H1153.96V206.982H1152.65ZM1156.95 203.045L1159.11 206.982H1157.61L1155.5 203.045H1156.95ZM1160.19 199.389V198.255H1166.94V199.389H1164.22V206.982H1162.91V199.389H1160.19Z" fill="#F0F6FF"/>
<path d="M735.333 88C735.333 89.4728 736.527 90.6667 738 90.6667C739.473 90.6667 740.667 89.4728 740.667 88C740.667 86.5272 739.473 85.3333 738 85.3333C736.527 85.3333 735.333 86.5272 735.333 88ZM738 88.5H864V87.5H738V88.5Z" fill="#19191B" fill-opacity="0.15"/>
<rect x="864.448" y="68.4485" width="159.103" height="39.103" rx="7.55151" fill="#19191B"/>
<rect x="864.448" y="68.4485" width="159.103" height="39.103" rx="7.55151" stroke="#19191B" stroke-width="0.896971"/>
<path d="M898.602 83.2727L901.031 90.3807H901.129L903.558 83.2727H904.981L901.841 92H900.319L897.179 83.2727H898.602ZM907.798 83.2727V92H906.481V83.2727H907.798ZM914.716 85.5653C914.67 85.1619 914.483 84.8494 914.153 84.6278C913.824 84.4034 913.409 84.2912 912.909 84.2912C912.551 84.2912 912.241 84.348 911.98 84.4616C911.719 84.5724 911.515 84.7259 911.371 84.9219C911.229 85.1151 911.158 85.3352 911.158 85.5824C911.158 85.7898 911.206 85.9687 911.302 86.1193C911.402 86.2699 911.531 86.3963 911.69 86.4986C911.852 86.598 912.025 86.6818 912.21 86.75C912.395 86.8153 912.572 86.8693 912.743 86.9119L913.595 87.1335C913.873 87.2017 914.159 87.294 914.452 87.4105C914.744 87.527 915.015 87.6804 915.265 87.8707C915.515 88.0611 915.717 88.2969 915.871 88.5781C916.027 88.8594 916.105 89.196 916.105 89.5881C916.105 90.0824 915.977 90.5213 915.721 90.9048C915.469 91.2884 915.101 91.5909 914.618 91.8125C914.138 92.0341 913.557 92.1449 912.875 92.1449C912.221 92.1449 911.656 92.0412 911.179 91.8338C910.702 91.6264 910.328 91.3324 910.058 90.9517C909.788 90.5682 909.639 90.1136 909.611 89.5881H910.932C910.957 89.9034 911.06 90.1662 911.239 90.3764C911.42 90.5838 911.652 90.7386 911.933 90.8409C912.217 90.9403 912.528 90.9901 912.866 90.9901C913.239 90.9901 913.569 90.9318 913.859 90.8153C914.152 90.696 914.382 90.5312 914.55 90.321C914.717 90.108 914.801 89.8594 914.801 89.5753C914.801 89.3168 914.727 89.1051 914.579 88.9403C914.435 88.7756 914.237 88.6392 913.987 88.5312C913.74 88.4233 913.46 88.3281 913.148 88.2457L912.116 87.9645C911.417 87.7741 910.864 87.4943 910.454 87.125C910.048 86.7557 909.845 86.267 909.845 85.6591C909.845 85.1562 909.981 84.7173 910.254 84.3423C910.527 83.9673 910.896 83.6761 911.362 83.4688C911.828 83.2585 912.354 83.1534 912.939 83.1534C913.53 83.1534 914.051 83.2571 914.503 83.4645C914.957 83.6719 915.315 83.9574 915.577 84.321C915.838 84.6818 915.974 85.0966 915.986 85.5653H914.716ZM923.531 83.2727H924.852V89.0128C924.852 89.6236 924.708 90.1648 924.421 90.6364C924.134 91.1051 923.731 91.4744 923.211 91.7443C922.691 92.0114 922.082 92.1449 921.383 92.1449C920.687 92.1449 920.079 92.0114 919.559 91.7443C919.039 91.4744 918.636 91.1051 918.349 90.6364C918.062 90.1648 917.918 89.6236 917.918 89.0128V83.2727H919.235V88.9062C919.235 89.3011 919.322 89.652 919.495 89.9588C919.671 90.2656 919.92 90.5071 920.241 90.6832C920.562 90.8565 920.943 90.9432 921.383 90.9432C921.826 90.9432 922.208 90.8565 922.529 90.6832C922.853 90.5071 923.1 90.2656 923.271 89.9588C923.444 89.652 923.531 89.3011 923.531 88.9062V83.2727ZM927.743 92H926.346L929.486 83.2727H931.008L934.148 92H932.75L930.283 84.858H930.215L927.743 92ZM927.978 88.5824H932.512V89.6903H927.978V88.5824ZM935.648 92V83.2727H936.965V90.8665H940.92V92H935.648ZM948.903 92H946.078V83.2727H948.992C949.848 83.2727 950.582 83.4474 951.196 83.7969C951.809 84.1435 952.279 84.642 952.606 85.2926C952.936 85.9403 953.1 86.7173 953.1 87.6236C953.1 88.5327 952.934 89.3139 952.602 89.9673C952.272 90.6207 951.795 91.1236 951.17 91.4759C950.545 91.8253 949.789 92 948.903 92ZM947.394 90.8494H948.831C949.495 90.8494 950.048 90.7244 950.488 90.4744C950.929 90.2216 951.258 89.8565 951.477 89.3793C951.696 88.8991 951.805 88.3139 951.805 87.6236C951.805 86.9389 951.696 86.358 951.477 85.8807C951.261 85.4034 950.939 85.0412 950.51 84.794C950.081 84.5469 949.548 84.4233 948.912 84.4233H947.394V90.8494ZM954.978 92V83.2727H960.449V84.4062H956.295V87.0653H960.164V88.1946H956.295V90.8665H960.501V92H954.978ZM967.208 85.5653C967.163 85.1619 966.975 84.8494 966.646 84.6278C966.316 84.4034 965.901 84.2912 965.401 84.2912C965.044 84.2912 964.734 84.348 964.472 84.4616C964.211 84.5724 964.008 84.7259 963.863 84.9219C963.721 85.1151 963.65 85.3352 963.65 85.5824C963.65 85.7898 963.698 85.9687 963.795 86.1193C963.894 86.2699 964.024 86.3963 964.183 86.4986C964.345 86.598 964.518 86.6818 964.703 86.75C964.887 86.8153 965.065 86.8693 965.235 86.9119L966.088 87.1335C966.366 87.2017 966.651 87.294 966.944 87.4105C967.237 87.527 967.508 87.6804 967.758 87.8707C968.008 88.0611 968.21 88.2969 968.363 88.5781C968.519 88.8594 968.597 89.196 968.597 89.5881C968.597 90.0824 968.47 90.5213 968.214 90.9048C967.961 91.2884 967.593 91.5909 967.11 91.8125C966.63 92.0341 966.049 92.1449 965.367 92.1449C964.714 92.1449 964.149 92.0412 963.671 91.8338C963.194 91.6264 962.82 91.3324 962.551 90.9517C962.281 90.5682 962.132 90.1136 962.103 89.5881H963.424C963.45 89.9034 963.552 90.1662 963.731 90.3764C963.913 90.5838 964.144 90.7386 964.426 90.8409C964.71 90.9403 965.021 90.9901 965.359 90.9901C965.731 90.9901 966.062 90.9318 966.352 90.8153C966.644 90.696 966.874 90.5312 967.042 90.321C967.21 90.108 967.294 89.8594 967.294 89.5753C967.294 89.3168 967.22 89.1051 967.072 88.9403C966.927 88.7756 966.73 88.6392 966.48 88.5312C966.232 88.4233 965.953 88.3281 965.64 88.2457L964.609 87.9645C963.91 87.7741 963.356 87.4943 962.947 87.125C962.541 86.7557 962.338 86.267 962.338 85.6591C962.338 85.1562 962.474 84.7173 962.747 84.3423C963.019 83.9673 963.389 83.6761 963.855 83.4688C964.32 83.2585 964.846 83.1534 965.431 83.1534C966.022 83.1534 966.544 83.2571 966.995 83.4645C967.45 83.6719 967.808 83.9574 968.069 84.321C968.33 84.6818 968.467 85.0966 968.478 85.5653H967.208ZM971.728 83.2727V92H970.411V83.2727H971.728ZM979.792 86.0298C979.709 85.7713 979.598 85.5398 979.459 85.3352C979.323 85.1278 979.16 84.9517 978.969 84.8068C978.779 84.6591 978.562 84.5469 978.317 84.4702C978.076 84.3935 977.81 84.3551 977.52 84.3551C977.029 84.3551 976.586 84.4815 976.191 84.7344C975.796 84.9872 975.483 85.358 975.253 85.8466C975.026 86.3324 974.912 86.9276 974.912 87.6321C974.912 88.3395 975.027 88.9375 975.258 89.4261C975.488 89.9148 975.803 90.2855 976.204 90.5384C976.604 90.7912 977.06 90.9176 977.571 90.9176C978.046 90.9176 978.459 90.821 978.812 90.6278C979.167 90.4347 979.441 90.1619 979.634 89.8097C979.83 89.4545 979.928 89.0369 979.928 88.5568L980.269 88.6207H977.772V87.5341H981.202V88.527C981.202 89.2599 981.046 89.8963 980.733 90.4361C980.424 90.973 979.995 91.3878 979.446 91.6804C978.901 91.973 978.276 92.1193 977.571 92.1193C976.782 92.1193 976.088 91.9375 975.492 91.5739C974.898 91.2102 974.435 90.6946 974.103 90.027C973.77 89.3565 973.604 88.5611 973.604 87.6406C973.604 86.9446 973.701 86.3196 973.894 85.7656C974.087 85.2116 974.358 84.7415 974.708 84.3551C975.06 83.9659 975.473 83.669 975.948 83.4645C976.425 83.2571 976.946 83.1534 977.512 83.1534C977.983 83.1534 978.422 83.223 978.829 83.3622C979.238 83.5014 979.601 83.6989 979.919 83.9545C980.24 84.2102 980.506 84.5142 980.716 84.8665C980.927 85.2159 981.069 85.6037 981.142 86.0298H979.792ZM990.158 83.2727V92H988.947L984.511 85.5994H984.43V92H983.114V83.2727H984.332L988.773 89.6818H988.854V83.2727H990.158Z" fill="#F0F6FF"/>
<path d="M184.333 88C184.333 89.4728 185.527 90.6667 187 90.6667C188.473 90.6667 189.667 89.4728 189.667 88C189.667 86.5272 188.473 85.3333 187 85.3333C185.527 85.3333 184.333 86.5272 184.333 88ZM187 88.5H284.473V87.5H187V88.5Z" fill="#19191B" fill-opacity="0.15"/>
<rect x="284.473" y="68" width="160" height="40" rx="8" fill="#E33230"/>
<path d="M310.368 92.1193C309.783 92.1193 309.26 92.0185 308.8 91.8168C308.342 91.6151 307.98 91.3352 307.713 90.9773C307.449 90.6165 307.307 90.1989 307.287 89.7244H308.625C308.642 89.983 308.729 90.2074 308.885 90.3977C309.044 90.5852 309.252 90.7301 309.507 90.8324C309.763 90.9347 310.047 90.9858 310.359 90.9858C310.703 90.9858 311.007 90.9261 311.271 90.8068C311.538 90.6875 311.747 90.5213 311.898 90.3082C312.048 90.0923 312.124 89.8438 312.124 89.5625C312.124 89.2699 312.048 89.0128 311.898 88.7912C311.75 88.5668 311.533 88.3906 311.246 88.2628C310.962 88.1349 310.618 88.071 310.215 88.071H309.477V86.9972H310.215C310.538 86.9972 310.823 86.9389 311.067 86.8224C311.314 86.706 311.507 86.544 311.646 86.3366C311.786 86.1264 311.855 85.8807 311.855 85.5994C311.855 85.3295 311.794 85.0952 311.672 84.8963C311.553 84.6946 311.382 84.5369 311.161 84.4233C310.942 84.3097 310.683 84.2528 310.385 84.2528C310.101 84.2528 309.835 84.3054 309.588 84.4105C309.344 84.5128 309.145 84.6605 308.992 84.8537C308.838 85.044 308.756 85.2727 308.744 85.5398H307.47C307.484 85.0682 307.624 84.6534 307.888 84.2955C308.155 83.9375 308.507 83.6577 308.945 83.456C309.382 83.2543 309.868 83.1534 310.402 83.1534C310.962 83.1534 311.445 83.2628 311.851 83.4815C312.26 83.6974 312.575 83.9858 312.797 84.3466C313.021 84.7074 313.132 85.1023 313.129 85.5312C313.132 86.0199 312.996 86.4347 312.72 86.7756C312.448 87.1165 312.084 87.3452 311.629 87.4616V87.5298C312.209 87.6179 312.658 87.848 312.976 88.2202C313.297 88.5923 313.456 89.054 313.453 89.6051C313.456 90.0852 313.323 90.5156 313.053 90.8963C312.786 91.277 312.421 91.5767 311.957 91.7955C311.494 92.0114 310.965 92.1193 310.368 92.1193ZM318.839 92V83.2727H324.251V84.4062H320.156V87.0653H323.863V88.1946H320.156V92H318.839ZM326.11 92V83.2727H329.221C329.897 83.2727 330.458 83.3892 330.904 83.6222C331.353 83.8551 331.688 84.1776 331.91 84.5895C332.132 84.9986 332.242 85.4716 332.242 86.0085C332.242 86.5426 332.13 87.0128 331.906 87.419C331.684 87.8224 331.349 88.1364 330.9 88.3608C330.454 88.5852 329.893 88.6974 329.217 88.6974H326.86V87.5639H329.098C329.524 87.5639 329.87 87.5028 330.137 87.3807C330.407 87.2585 330.605 87.081 330.73 86.848C330.855 86.6151 330.917 86.3352 330.917 86.0085C330.917 85.679 330.853 85.3935 330.725 85.152C330.6 84.9105 330.403 84.7259 330.133 84.598C329.866 84.4673 329.515 84.402 329.081 84.402H327.427V92H326.11ZM330.419 88.0625L332.575 92H331.075L328.961 88.0625H330.419ZM334.085 92V83.2727H339.556V84.4062H335.402V87.0653H339.271V88.1946H335.402V90.8665H339.607V92H334.085ZM341.555 92V83.2727H347.027V84.4062H342.872V87.0653H346.741V88.1946H342.872V90.8665H347.078V92H341.555ZM352.011 84.4062V83.2727H358.765V84.4062H356.042V92H354.73V84.4062H352.011ZM360.498 92V83.2727H363.609C364.285 83.2727 364.846 83.3892 365.292 83.6222C365.741 83.8551 366.076 84.1776 366.298 84.5895C366.519 84.9986 366.63 85.4716 366.63 86.0085C366.63 86.5426 366.518 87.0128 366.293 87.419C366.072 87.8224 365.737 88.1364 365.288 88.3608C364.842 88.5852 364.281 88.6974 363.604 88.6974H361.248V87.5639H363.485C363.911 87.5639 364.258 87.5028 364.525 87.3807C364.795 87.2585 364.992 87.081 365.117 86.848C365.242 86.6151 365.305 86.3352 365.305 86.0085C365.305 85.679 365.241 85.3935 365.113 85.152C364.988 84.9105 364.79 84.7259 364.521 84.598C364.254 84.4673 363.903 84.402 363.468 84.402H361.815V92H360.498ZM364.806 88.0625L366.962 92H365.462L363.349 88.0625H364.806ZM369.789 83.2727V92H368.472V83.2727H369.789ZM372.684 92H371.286L374.427 83.2727H375.948L379.089 92H377.691L375.224 84.858H375.155L372.684 92ZM372.918 88.5824H377.452V89.6903H372.918V88.5824ZM380.589 92V83.2727H381.906V90.8665H385.86V92H380.589ZM393.843 92H391.018V83.2727H393.933C394.788 83.2727 395.522 83.4474 396.136 83.7969C396.75 84.1435 397.22 84.642 397.547 85.2926C397.876 85.9403 398.041 86.7173 398.041 87.6236C398.041 88.5327 397.875 89.3139 397.542 89.9673C397.213 90.6207 396.736 91.1236 396.111 91.4759C395.486 91.8253 394.73 92 393.843 92ZM392.335 90.8494H393.771C394.436 90.8494 394.988 90.7244 395.429 90.4744C395.869 90.2216 396.199 89.8565 396.417 89.3793C396.636 88.8991 396.745 88.3139 396.745 87.6236C396.745 86.9389 396.636 86.358 396.417 85.8807C396.201 85.4034 395.879 85.0412 395.45 84.794C395.021 84.5469 394.488 84.4233 393.852 84.4233H392.335V90.8494ZM400.222 92H398.824L401.965 83.2727H403.486L406.627 92H405.229L402.762 84.858H402.694L400.222 92ZM400.456 88.5824H404.99V89.6903H400.456V88.5824ZM406.563 83.2727H408.059L410.339 87.2401H410.432L412.712 83.2727H414.208L411.042 88.5739V92H409.729V88.5739L406.563 83.2727ZM420.451 85.5653C420.406 85.1619 420.218 84.8494 419.889 84.6278C419.559 84.4034 419.144 84.2912 418.644 84.2912C418.286 84.2912 417.977 84.348 417.715 84.4616C417.454 84.5724 417.251 84.7259 417.106 84.9219C416.964 85.1151 416.893 85.3352 416.893 85.5824C416.893 85.7898 416.941 85.9687 417.038 86.1193C417.137 86.2699 417.267 86.3963 417.426 86.4986C417.588 86.598 417.761 86.6818 417.946 86.75C418.13 86.8153 418.308 86.8693 418.478 86.9119L419.331 87.1335C419.609 87.2017 419.894 87.294 420.187 87.4105C420.48 87.527 420.751 87.6804 421.001 87.8707C421.251 88.0611 421.453 88.2969 421.606 88.5781C421.762 88.8594 421.84 89.196 421.84 89.5881C421.84 90.0824 421.713 90.5213 421.457 90.9048C421.204 91.2884 420.836 91.5909 420.353 91.8125C419.873 92.0341 419.292 92.1449 418.61 92.1449C417.957 92.1449 417.392 92.0412 416.914 91.8338C416.437 91.6264 416.063 91.3324 415.794 90.9517C415.524 90.5682 415.375 90.1136 415.346 89.5881H416.667C416.693 89.9034 416.795 90.1662 416.974 90.3764C417.156 90.5838 417.387 90.7386 417.669 90.8409C417.953 90.9403 418.264 90.9901 418.602 90.9901C418.974 90.9901 419.305 90.9318 419.595 90.8153C419.887 90.696 420.117 90.5312 420.285 90.321C420.453 90.108 420.536 89.8594 420.536 89.5753C420.536 89.3168 420.463 89.1051 420.315 88.9403C420.17 88.7756 419.973 88.6392 419.723 88.5312C419.475 88.4233 419.196 88.3281 418.883 88.2457L417.852 87.9645C417.153 87.7741 416.599 87.4943 416.19 87.125C415.784 86.7557 415.581 86.267 415.581 85.6591C415.581 85.1562 415.717 84.7173 415.99 84.3423C416.262 83.9673 416.632 83.6761 417.098 83.4688C417.563 83.2585 418.089 83.1534 418.674 83.1534C419.265 83.1534 419.786 83.2571 420.238 83.4645C420.693 83.6719 421.051 83.9574 421.312 84.321C421.573 84.6818 421.71 85.0966 421.721 85.5653H420.451Z" fill="#F0F6FF"/>
<path d="M444.473 88H466" stroke="#19191B" stroke-opacity="0.15"/>
<rect x="466.448" y="68.4485" width="159.103" height="39.103" rx="7.55151" fill="#19191B"/>
<rect x="466.448" y="68.4485" width="159.103" height="39.103" rx="7.55151" stroke="#19191B" stroke-width="0.896971"/>
<path d="M514.576 92H511.751V83.2727H514.666C515.521 83.2727 516.255 83.4474 516.869 83.7969C517.482 84.1435 517.952 84.642 518.279 85.2926C518.609 85.9403 518.773 86.7173 518.773 87.6236C518.773 88.5327 518.607 89.3139 518.275 89.9673C517.945 90.6207 517.468 91.1236 516.843 91.4759C516.218 91.8253 515.462 92 514.576 92ZM513.068 90.8494H514.504C515.168 90.8494 515.721 90.7244 516.161 90.4744C516.602 90.2216 516.931 89.8565 517.15 89.3793C517.369 88.8991 517.478 88.3139 517.478 87.6236C517.478 86.9389 517.369 86.358 517.15 85.8807C516.934 85.4034 516.612 85.0412 516.183 84.794C515.754 84.5469 515.221 84.4233 514.585 84.4233H513.068V90.8494ZM521.968 83.2727V92H520.651V83.2727H521.968ZM528.885 85.5653C528.84 85.1619 528.652 84.8494 528.323 84.6278C527.993 84.4034 527.578 84.2912 527.078 84.2912C526.72 84.2912 526.411 84.348 526.149 84.4616C525.888 84.5724 525.685 84.7259 525.54 84.9219C525.398 85.1151 525.327 85.3352 525.327 85.5824C525.327 85.7898 525.375 85.9687 525.472 86.1193C525.571 86.2699 525.701 86.3963 525.86 86.4986C526.022 86.598 526.195 86.6818 526.38 86.75C526.564 86.8153 526.742 86.8693 526.912 86.9119L527.764 87.1335C528.043 87.2017 528.328 87.294 528.621 87.4105C528.914 87.527 529.185 87.6804 529.435 87.8707C529.685 88.0611 529.887 88.2969 530.04 88.5781C530.196 88.8594 530.274 89.196 530.274 89.5881C530.274 90.0824 530.147 90.5213 529.891 90.9048C529.638 91.2884 529.27 91.5909 528.787 91.8125C528.307 92.0341 527.726 92.1449 527.044 92.1449C526.391 92.1449 525.826 92.0412 525.348 91.8338C524.871 91.6264 524.497 91.3324 524.228 90.9517C523.958 90.5682 523.809 90.1136 523.78 89.5881H525.101C525.127 89.9034 525.229 90.1662 525.408 90.3764C525.59 90.5838 525.821 90.7386 526.103 90.8409C526.387 90.9403 526.698 90.9901 527.036 90.9901C527.408 90.9901 527.739 90.9318 528.029 90.8153C528.321 90.696 528.551 90.5312 528.719 90.321C528.887 90.108 528.97 89.8594 528.97 89.5753C528.97 89.3168 528.897 89.1051 528.749 88.9403C528.604 88.7756 528.407 88.6392 528.157 88.5312C527.909 88.4233 527.63 88.3281 527.317 88.2457L526.286 87.9645C525.587 87.7741 525.033 87.4943 524.624 87.125C524.218 86.7557 524.014 86.267 524.014 85.6591C524.014 85.1562 524.151 84.7173 524.424 84.3423C524.696 83.9673 525.066 83.6761 525.532 83.4688C525.997 83.2585 526.523 83.1534 527.108 83.1534C527.699 83.1534 528.22 83.2571 528.672 83.4645C529.127 83.6719 529.485 83.9574 529.746 84.321C530.007 84.6818 530.144 85.0966 530.155 85.5653H528.885ZM539.337 86.1108H538.007C537.956 85.8267 537.861 85.5767 537.721 85.3608C537.582 85.1449 537.412 84.9616 537.21 84.8111C537.008 84.6605 536.783 84.5469 536.533 84.4702C536.285 84.3935 536.023 84.3551 535.744 84.3551C535.241 84.3551 534.791 84.4815 534.393 84.7344C533.998 84.9872 533.686 85.358 533.456 85.8466C533.229 86.3352 533.115 86.9318 533.115 87.6364C533.115 88.3466 533.229 88.946 533.456 89.4347C533.686 89.9233 534 90.2926 534.398 90.5426C534.795 90.7926 535.243 90.9176 535.74 90.9176C536.016 90.9176 536.277 90.8807 536.524 90.8068C536.774 90.7301 537 90.6179 537.202 90.4702C537.403 90.3224 537.574 90.142 537.713 89.929C537.855 89.7131 537.953 89.4659 538.007 89.1875L539.337 89.1918C539.266 89.6207 539.128 90.0156 538.923 90.3764C538.721 90.7344 538.462 91.044 538.143 91.3054C537.828 91.5639 537.467 91.7642 537.061 91.9062C536.655 92.0483 536.212 92.1193 535.731 92.1193C534.976 92.1193 534.302 91.9403 533.712 91.5824C533.121 91.2216 532.655 90.706 532.314 90.0355C531.976 89.3651 531.807 88.5653 531.807 87.6364C531.807 86.7045 531.977 85.9048 532.318 85.2372C532.659 84.5668 533.125 84.0526 533.716 83.6946C534.307 83.3338 534.979 83.1534 535.731 83.1534C536.194 83.1534 536.626 83.2202 537.027 83.3537C537.43 83.4844 537.792 83.6776 538.114 83.9332C538.435 84.1861 538.7 84.4957 538.91 84.8622C539.121 85.2259 539.263 85.642 539.337 86.1108ZM548.733 87.6364C548.733 88.5682 548.563 89.3693 548.222 90.0398C547.881 90.7074 547.414 91.2216 546.82 91.5824C546.229 91.9403 545.557 92.1193 544.804 92.1193C544.048 92.1193 543.374 91.9403 542.78 91.5824C542.189 91.2216 541.723 90.706 541.382 90.0355C541.041 89.3651 540.871 88.5653 540.871 87.6364C540.871 86.7045 541.041 85.9048 541.382 85.2372C541.723 84.5668 542.189 84.0526 542.78 83.6946C543.374 83.3338 544.048 83.1534 544.804 83.1534C545.557 83.1534 546.229 83.3338 546.82 83.6946C547.414 84.0526 547.881 84.5668 548.222 85.2372C548.563 85.9048 548.733 86.7045 548.733 87.6364ZM547.429 87.6364C547.429 86.9261 547.314 86.3281 547.084 85.8423C546.857 85.3537 546.544 84.9844 546.146 84.7344C545.752 84.4815 545.304 84.3551 544.804 84.3551C544.301 84.3551 543.852 84.4815 543.458 84.7344C543.063 84.9844 542.75 85.3537 542.52 85.8423C542.293 86.3281 542.179 86.9261 542.179 87.6364C542.179 88.3466 542.293 88.946 542.52 89.4347C542.75 89.9205 543.063 90.2898 543.458 90.5426C543.852 90.7926 544.301 90.9176 544.804 90.9176C545.304 90.9176 545.752 90.7926 546.146 90.5426C546.544 90.2898 546.857 89.9205 547.084 89.4347C547.314 88.946 547.429 88.3466 547.429 87.6364ZM550.944 83.2727L553.373 90.3807H553.471L555.9 83.2727H557.323L554.183 92H552.661L549.521 83.2727H550.944ZM558.824 92V83.2727H564.295V84.4062H560.14V87.0653H564.01V88.1946H560.14V90.8665H564.346V92H558.824ZM566.294 92V83.2727H569.405C570.081 83.2727 570.642 83.3892 571.088 83.6222C571.537 83.8551 571.872 84.1776 572.094 84.5895C572.315 84.9986 572.426 85.4716 572.426 86.0085C572.426 86.5426 572.314 87.0128 572.089 87.419C571.868 87.8224 571.533 88.1364 571.084 88.3608C570.638 88.5852 570.077 88.6974 569.401 88.6974H567.044V87.5639H569.281C569.707 87.5639 570.054 87.5028 570.321 87.3807C570.591 87.2585 570.788 87.081 570.913 86.848C571.038 86.6151 571.101 86.3352 571.101 86.0085C571.101 85.679 571.037 85.3935 570.909 85.152C570.784 84.9105 570.587 84.7259 570.317 84.598C570.05 84.4673 569.699 84.402 569.264 84.402H567.611V92H566.294ZM570.602 88.0625L572.759 92H571.259L569.145 88.0625H570.602ZM573.279 83.2727H574.774L577.054 87.2401H577.148L579.428 83.2727H580.924L577.757 88.5739V92H576.445V88.5739L573.279 83.2727Z" fill="#F0F6FF"/>
</svg>