<svg xmlns="http://www.w3.org/2000/svg" width="896" height="226" viewBox="0 0 896 226" fill="none">
<rect width="64" height="64" rx="32" fill="#E33230"/>
<path fill-rule="evenodd" clip-rule="evenodd" d="M32.722 33.0987C30.765 33.0987 29.2501 31.5911 29.2501 29.6748H24.832C24.832 33.947 28.3351 37.3399 32.722 37.3399V33.0987Z" fill="#19191B"/>
<path fill-rule="evenodd" clip-rule="evenodd" d="M32.7188 26.2503C34.6754 26.2503 36.19 27.7582 36.19 29.6745H40.6084C40.6084 25.4023 37.1053 22.0098 32.7188 22.0098V26.2503Z" fill="#19191B"/>
<path fill-rule="evenodd" clip-rule="evenodd" d="M32.7188 37.3399C37.1053 37.3399 40.6084 33.947 40.6084 29.6748H36.19C36.19 31.5911 34.6754 33.0987 32.7188 33.0987V37.3399Z" fill="#19191B"/>
<path fill-rule="evenodd" clip-rule="evenodd" d="M34.1094 25.2143H38.812L41.9994 20H37.2971L34.1094 25.2143Z" fill="#19191B"/>
<path fill-rule="evenodd" clip-rule="evenodd" d="M23 43.9986H27.7023L32.9727 35.2656H28.2707L23 43.9986Z" fill="#19191B"/>
<path fill-rule="evenodd" clip-rule="evenodd" d="M25.0469 44.0003H40.858V39.8535H25.678L25.0469 44.0003Z" fill="#19191B"/>
<path fill-rule="evenodd" clip-rule="evenodd" d="M32.722 22.0098C28.3351 22.0098 24.832 25.4023 24.832 29.6745H29.2501C29.2501 27.7582 30.765 26.2503 32.722 26.2503V22.0098Z" fill="#19191B"/>
<path d="M105.333 31C105.333 32.4728 106.527 33.6667 108 33.6667C109.473 33.6667 110.667 32.4728 110.667 31C110.667 29.5272 109.473 28.3333 108 28.3333C106.527 28.3333 105.333 29.5272 105.333 31ZM108 31.5H175V30.5H108V31.5Z" fill="#19191B" fill-opacity="0.15"/>
<rect x="175.448" y="11.4485" width="149.103" height="39.103" rx="7.55151" fill="#19191B"/>
<rect x="175.448" y="11.4485" width="149.103" height="39.103" rx="7.55151" stroke="#19191B" stroke-width="0.896971"/>
<path d="M215.764 26.2727V35H214.447V26.2727H215.764ZM224.966 26.2727V35H223.755L219.319 28.5994H219.238V35H217.922V26.2727H219.14L223.581 32.6818H223.662V26.2727H224.966ZM226.696 27.4062V26.2727H233.45V27.4062H230.727V35H229.415V27.4062H226.696ZM235.183 35V26.2727H238.294C238.97 26.2727 239.531 26.3892 239.977 26.6222C240.426 26.8551 240.761 27.1776 240.983 27.5895C241.204 27.9986 241.315 28.4716 241.315 29.0085C241.315 29.5426 241.203 30.0128 240.978 30.419C240.757 30.8224 240.421 31.1364 239.973 31.3608C239.527 31.5852 238.965 31.6974 238.289 31.6974H235.933V30.5639H238.17C238.596 30.5639 238.943 30.5028 239.21 30.3807C239.48 30.2585 239.677 30.081 239.802 29.848C239.927 29.6151 239.99 29.3352 239.99 29.0085C239.99 28.679 239.926 28.3935 239.798 28.152C239.673 27.9105 239.475 27.7259 239.206 27.598C238.938 27.4673 238.588 27.402 238.153 27.402H236.5V35H235.183ZM239.491 31.0625L241.647 35H240.147L238.034 31.0625H239.491ZM250.738 30.6364C250.738 31.5682 250.568 32.3693 250.227 33.0398C249.886 33.7074 249.419 34.2216 248.825 34.5824C248.234 34.9403 247.562 35.1193 246.809 35.1193C246.053 35.1193 245.379 34.9403 244.785 34.5824C244.194 34.2216 243.728 33.706 243.387 33.0355C243.046 32.3651 242.876 31.5653 242.876 30.6364C242.876 29.7045 243.046 28.9048 243.387 28.2372C243.728 27.5668 244.194 27.0526 244.785 26.6946C245.379 26.3338 246.053 26.1534 246.809 26.1534C247.562 26.1534 248.234 26.3338 248.825 26.6946C249.419 27.0526 249.886 27.5668 250.227 28.2372C250.568 28.9048 250.738 29.7045 250.738 30.6364ZM249.434 30.6364C249.434 29.9261 249.319 29.3281 249.089 28.8423C248.862 28.3537 248.549 27.9844 248.151 27.7344C247.757 27.4815 247.309 27.3551 246.809 27.3551C246.306 27.3551 245.857 27.4815 245.463 27.7344C245.068 27.9844 244.755 28.3537 244.525 28.8423C244.298 29.3281 244.184 29.9261 244.184 30.6364C244.184 31.3466 244.298 31.946 244.525 32.4347C244.755 32.9205 245.068 33.2898 245.463 33.5426C245.857 33.7926 246.306 33.9176 246.809 33.9176C247.309 33.9176 247.757 33.7926 248.151 33.5426C248.549 33.2898 248.862 32.9205 249.089 32.4347C249.319 31.946 249.434 31.3466 249.434 30.6364ZM263.284 29.1108H261.955C261.903 28.8267 261.808 28.5767 261.669 28.3608C261.53 28.1449 261.359 27.9616 261.158 27.8111C260.956 27.6605 260.73 27.5469 260.48 27.4702C260.233 27.3935 259.97 27.3551 259.692 27.3551C259.189 27.3551 258.739 27.4815 258.341 27.7344C257.946 27.9872 257.634 28.358 257.403 28.8466C257.176 29.3352 257.063 29.9318 257.063 30.6364C257.063 31.3466 257.176 31.946 257.403 32.4347C257.634 32.9233 257.948 33.2926 258.345 33.5426C258.743 33.7926 259.19 33.9176 259.688 33.9176C259.963 33.9176 260.225 33.8807 260.472 33.8068C260.722 33.7301 260.948 33.6179 261.149 33.4702C261.351 33.3224 261.521 33.142 261.661 32.929C261.803 32.7131 261.901 32.4659 261.955 32.1875L263.284 32.1918C263.213 32.6207 263.075 33.0156 262.871 33.3764C262.669 33.7344 262.409 34.044 262.091 34.3054C261.776 34.5639 261.415 34.7642 261.009 34.9062C260.602 35.0483 260.159 35.1193 259.679 35.1193C258.923 35.1193 258.25 34.9403 257.659 34.5824C257.068 34.2216 256.602 33.706 256.261 33.0355C255.923 32.3651 255.754 31.5653 255.754 30.6364C255.754 29.7045 255.925 28.9048 256.266 28.2372C256.607 27.5668 257.073 27.0526 257.663 26.6946C258.254 26.3338 258.926 26.1534 259.679 26.1534C260.142 26.1534 260.574 26.2202 260.975 26.3537C261.378 26.4844 261.74 26.6776 262.061 26.9332C262.382 27.1861 262.648 27.4957 262.858 27.8622C263.068 28.2259 263.21 28.642 263.284 29.1108ZM265.778 35H264.381L267.521 26.2727H269.043L272.183 35H270.786L268.318 27.858H268.25L265.778 35ZM266.013 31.5824H270.547V32.6903H266.013V31.5824ZM273.684 35V26.2727H275V33.8665H278.955V35H273.684ZM280.697 35V26.2727H282.014V33.8665H285.968V35H280.697Z" fill="#F0F6FF"/>
<path d="M361.333 146C361.333 147.473 362.527 148.667 364 148.667C365.473 148.667 366.667 147.473 366.667 146C366.667 144.527 365.473 143.333 364 143.333C362.527 143.333 361.333 144.527 361.333 146ZM364 146.5H432V145.5H364V146.5Z" fill="#19191B" fill-opacity="0.15"/>
<rect x="432.448" y="126.448" width="149.103" height="39.103" rx="7.55151" fill="#19191B"/>
<rect x="432.448" y="126.448" width="149.103" height="39.103" rx="7.55151" stroke="#19191B" stroke-width="0.896971"/>
<path d="M480.578 143.565C480.533 143.162 480.345 142.849 480.015 142.628C479.686 142.403 479.271 142.291 478.771 142.291C478.413 142.291 478.104 142.348 477.842 142.462C477.581 142.572 477.378 142.726 477.233 142.922C477.091 143.115 477.02 143.335 477.02 143.582C477.02 143.79 477.068 143.969 477.165 144.119C477.264 144.27 477.393 144.396 477.552 144.499C477.714 144.598 477.888 144.682 478.072 144.75C478.257 144.815 478.435 144.869 478.605 144.912L479.457 145.134C479.736 145.202 480.021 145.294 480.314 145.411C480.606 145.527 480.878 145.68 481.128 145.871C481.378 146.061 481.579 146.297 481.733 146.578C481.889 146.859 481.967 147.196 481.967 147.588C481.967 148.082 481.839 148.521 481.584 148.905C481.331 149.288 480.963 149.591 480.48 149.812C480 150.034 479.419 150.145 478.737 150.145C478.084 150.145 477.518 150.041 477.041 149.834C476.564 149.626 476.19 149.332 475.92 148.952C475.65 148.568 475.501 148.114 475.473 147.588H476.794C476.819 147.903 476.922 148.166 477.101 148.376C477.283 148.584 477.514 148.739 477.795 148.841C478.079 148.94 478.39 148.99 478.729 148.99C479.101 148.99 479.432 148.932 479.721 148.815C480.014 148.696 480.244 148.531 480.412 148.321C480.579 148.108 480.663 147.859 480.663 147.575C480.663 147.317 480.589 147.105 480.442 146.94C480.297 146.776 480.099 146.639 479.849 146.531C479.602 146.423 479.322 146.328 479.01 146.246L477.979 145.964C477.28 145.774 476.726 145.494 476.317 145.125C475.91 144.756 475.707 144.267 475.707 143.659C475.707 143.156 475.844 142.717 476.116 142.342C476.389 141.967 476.758 141.676 477.224 141.469C477.69 141.259 478.216 141.153 478.801 141.153C479.392 141.153 479.913 141.257 480.365 141.464C480.819 141.672 481.177 141.957 481.439 142.321C481.7 142.682 481.836 143.097 481.848 143.565H480.578ZM483.35 142.406V141.273H490.105V142.406H487.382V150H486.069V142.406H483.35ZM491.837 150V141.273H494.948C495.624 141.273 496.185 141.389 496.631 141.622C497.08 141.855 497.415 142.178 497.637 142.589C497.858 142.999 497.969 143.472 497.969 144.009C497.969 144.543 497.857 145.013 497.633 145.419C497.411 145.822 497.076 146.136 496.627 146.361C496.181 146.585 495.62 146.697 494.944 146.697H492.587V145.564H494.824C495.25 145.564 495.597 145.503 495.864 145.381C496.134 145.259 496.331 145.081 496.456 144.848C496.581 144.615 496.644 144.335 496.644 144.009C496.644 143.679 496.58 143.393 496.452 143.152C496.327 142.911 496.13 142.726 495.86 142.598C495.593 142.467 495.242 142.402 494.807 142.402H493.154V150H491.837ZM496.145 146.062L498.302 150H496.802L494.688 146.062H496.145ZM500.549 150H499.151L502.292 141.273H503.813L506.954 150H505.556L503.088 142.858H503.02L500.549 150ZM500.783 146.582H505.317V147.69H500.783V146.582ZM506.992 142.406V141.273H513.746V142.406H511.023V150H509.711V142.406H506.992ZM515.479 150V141.273H520.951V142.406H516.796V145.065H520.665V146.195H516.796V148.866H521.002V150H515.479ZM528.856 144.03C528.773 143.771 528.662 143.54 528.523 143.335C528.387 143.128 528.224 142.952 528.033 142.807C527.843 142.659 527.626 142.547 527.381 142.47C527.14 142.393 526.874 142.355 526.584 142.355C526.093 142.355 525.65 142.482 525.255 142.734C524.86 142.987 524.547 143.358 524.317 143.847C524.09 144.332 523.976 144.928 523.976 145.632C523.976 146.339 524.091 146.937 524.322 147.426C524.552 147.915 524.867 148.286 525.268 148.538C525.668 148.791 526.124 148.918 526.636 148.918C527.11 148.918 527.523 148.821 527.876 148.628C528.231 148.435 528.505 148.162 528.698 147.81C528.894 147.455 528.992 147.037 528.992 146.557L529.333 146.621H526.836V145.534H530.266V146.527C530.266 147.26 530.11 147.896 529.797 148.436C529.488 148.973 529.059 149.388 528.511 149.68C527.965 149.973 527.34 150.119 526.636 150.119C525.846 150.119 525.153 149.938 524.556 149.574C523.962 149.21 523.499 148.695 523.167 148.027C522.834 147.357 522.668 146.561 522.668 145.641C522.668 144.945 522.765 144.32 522.958 143.766C523.151 143.212 523.422 142.741 523.772 142.355C524.124 141.966 524.537 141.669 525.012 141.464C525.489 141.257 526.011 141.153 526.576 141.153C527.047 141.153 527.486 141.223 527.893 141.362C528.302 141.501 528.665 141.699 528.984 141.955C529.305 142.21 529.57 142.514 529.78 142.866C529.991 143.216 530.133 143.604 530.207 144.03H528.856ZM531.211 141.273H532.707L534.987 145.24H535.081L537.361 141.273H538.856L535.69 146.574V150H534.378V146.574L531.211 141.273Z" fill="#F0F6FF"/>
<path d="M429.333 203C429.333 204.473 430.527 205.667 432 205.667C433.473 205.667 434.667 204.473 434.667 203C434.667 201.527 433.473 200.333 432 200.333C430.527 200.333 429.333 201.527 429.333 203ZM432 203.5H500V202.5H432V203.5Z" fill="#19191B" fill-opacity="0.15"/>
<rect x="500.448" y="183.448" width="149.103" height="39.103" rx="7.55151" fill="#19191B"/>
<rect x="500.448" y="183.448" width="149.103" height="39.103" rx="7.55151" stroke="#19191B" stroke-width="0.896971"/>
<path d="M537.177 207L534.757 198.273H536.142L537.842 205.031H537.923L539.692 198.273H541.064L542.832 205.036H542.913L544.609 198.273H545.998L543.574 207H542.248L540.412 200.463H540.344L538.507 207H537.177ZM548.756 198.273V207H547.439V198.273H548.756ZM550.913 207V198.273H554.024C554.7 198.273 555.262 198.389 555.708 198.622C556.156 198.855 556.492 199.178 556.713 199.589C556.935 199.999 557.046 200.472 557.046 201.009C557.046 201.543 556.933 202.013 556.709 202.419C556.487 202.822 556.152 203.136 555.703 203.361C555.257 203.585 554.696 203.697 554.02 203.697H551.663V202.564H553.901C554.327 202.564 554.673 202.503 554.94 202.381C555.21 202.259 555.408 202.081 555.533 201.848C555.658 201.615 555.72 201.335 555.72 201.009C555.72 200.679 555.656 200.393 555.529 200.152C555.404 199.911 555.206 199.726 554.936 199.598C554.669 199.467 554.318 199.402 553.884 199.402H552.23V207H550.913ZM555.222 203.062L557.378 207H555.878L553.764 203.062H555.222ZM558.888 207V198.273H564.359V199.406H560.205V202.065H564.074V203.195H560.205V205.866H564.411V207H558.888ZM566.358 207V198.273H571.77V199.406H567.675V202.065H571.382V203.195H567.675V207H566.358ZM573.63 207V198.273H576.74C577.417 198.273 577.978 198.389 578.424 198.622C578.872 198.855 579.208 199.178 579.429 199.589C579.651 199.999 579.762 200.472 579.762 201.009C579.762 201.543 579.649 202.013 579.425 202.419C579.203 202.822 578.868 203.136 578.419 203.361C577.973 203.585 577.412 203.697 576.736 203.697H574.38V202.564H576.617C577.043 202.564 577.39 202.503 577.657 202.381C577.926 202.259 578.124 202.081 578.249 201.848C578.374 201.615 578.436 201.335 578.436 201.009C578.436 200.679 578.372 200.393 578.245 200.152C578.12 199.911 577.922 199.726 577.652 199.598C577.385 199.467 577.034 199.402 576.6 199.402H574.946V207H573.63ZM577.938 203.062L580.094 207H578.594L576.48 203.062H577.938ZM582.341 207H580.943L584.084 198.273H585.605L588.746 207H587.348L584.881 199.858H584.813L582.341 207ZM582.576 203.582H587.11V204.69H582.576V203.582ZM590.246 198.273H591.844L594.623 205.057H594.725L597.503 198.273H599.101V207H597.849V200.685H597.768L595.194 206.987H594.154L591.58 200.68H591.499V207H590.246V198.273ZM601.256 207V198.273H606.727V199.406H602.573V202.065H606.442V203.195H602.573V205.866H606.779V207H601.256ZM613.486 200.565C613.441 200.162 613.253 199.849 612.924 199.628C612.594 199.403 612.179 199.291 611.679 199.291C611.321 199.291 611.012 199.348 610.75 199.462C610.489 199.572 610.286 199.726 610.141 199.922C609.999 200.115 609.928 200.335 609.928 200.582C609.928 200.79 609.976 200.969 610.073 201.119C610.172 201.27 610.302 201.396 610.461 201.499C610.623 201.598 610.796 201.682 610.981 201.75C611.165 201.815 611.343 201.869 611.513 201.912L612.366 202.134C612.644 202.202 612.929 202.294 613.222 202.411C613.515 202.527 613.786 202.68 614.036 202.871C614.286 203.061 614.488 203.297 614.641 203.578C614.797 203.859 614.875 204.196 614.875 204.588C614.875 205.082 614.748 205.521 614.492 205.905C614.239 206.288 613.871 206.591 613.388 206.812C612.908 207.034 612.327 207.145 611.645 207.145C610.992 207.145 610.427 207.041 609.949 206.834C609.472 206.626 609.098 206.332 608.829 205.952C608.559 205.568 608.41 205.114 608.381 204.588H609.702C609.728 204.903 609.83 205.166 610.009 205.376C610.191 205.584 610.422 205.739 610.704 205.841C610.988 205.94 611.299 205.99 611.637 205.99C612.009 205.99 612.34 205.932 612.63 205.815C612.922 205.696 613.152 205.531 613.32 205.321C613.488 205.108 613.571 204.859 613.571 204.575C613.571 204.317 613.498 204.105 613.35 203.94C613.205 203.776 613.008 203.639 612.758 203.531C612.51 203.423 612.231 203.328 611.918 203.246L610.887 202.964C610.188 202.774 609.634 202.494 609.225 202.125C608.819 201.756 608.616 201.267 608.616 200.659C608.616 200.156 608.752 199.717 609.025 199.342C609.297 198.967 609.667 198.676 610.133 198.469C610.598 198.259 611.124 198.153 611.709 198.153C612.3 198.153 612.821 198.257 613.273 198.464C613.728 198.672 614.086 198.957 614.347 199.321C614.608 199.682 614.745 200.097 614.756 200.565H613.486Z" fill="#F0F6FF"/>
<path d="M686.333 203C686.333 204.473 687.527 205.667 689 205.667C690.473 205.667 691.667 204.473 691.667 203C691.667 201.527 690.473 200.333 689 200.333C687.527 200.333 686.333 201.527 686.333 203ZM689 203.5H746V202.5H689V203.5Z" fill="#19191B" fill-opacity="0.15"/>
<rect x="746.448" y="183.448" width="149.103" height="39.103" rx="7.55151" fill="#19191B"/>
<rect x="746.448" y="183.448" width="149.103" height="39.103" rx="7.55151" stroke="#19191B" stroke-width="0.896971"/>
<path d="M758.48 207V198.273H761.591C762.267 198.273 762.828 198.389 763.274 198.622C763.723 198.855 764.058 199.178 764.28 199.589C764.502 199.999 764.612 200.472 764.612 201.009C764.612 201.543 764.5 202.013 764.276 202.419C764.054 202.822 763.719 203.136 763.27 203.361C762.824 203.585 762.263 203.697 761.587 203.697H759.23V202.564H761.467C761.894 202.564 762.24 202.503 762.507 202.381C762.777 202.259 762.975 202.081 763.1 201.848C763.225 201.615 763.287 201.335 763.287 201.009C763.287 200.679 763.223 200.393 763.095 200.152C762.97 199.911 762.773 199.726 762.503 199.598C762.236 199.467 761.885 199.402 761.45 199.402H759.797V207H758.48ZM762.788 203.062L764.945 207H763.445L761.331 203.062H762.788ZM766.455 207V198.273H771.926V199.406H767.771V202.065H771.641V203.195H767.771V205.866H771.977V207H766.455ZM773.925 207V198.273H775.242V205.866H779.196V207H773.925ZM780.938 207V198.273H786.41V199.406H782.255V202.065H786.125V203.195H782.255V205.866H786.461V207H780.938ZM789.146 207H787.748L790.889 198.273H792.41L795.551 207H794.153L791.686 199.858H791.618L789.146 207ZM789.381 203.582H793.915V204.69H789.381V203.582ZM801.741 200.565C801.695 200.162 801.508 199.849 801.178 199.628C800.849 199.403 800.434 199.291 799.934 199.291C799.576 199.291 799.267 199.348 799.005 199.462C798.744 199.572 798.541 199.726 798.396 199.922C798.254 200.115 798.183 200.335 798.183 200.582C798.183 200.79 798.231 200.969 798.328 201.119C798.427 201.27 798.556 201.396 798.715 201.499C798.877 201.598 799.051 201.682 799.235 201.75C799.42 201.815 799.597 201.869 799.768 201.912L800.62 202.134C800.899 202.202 801.184 202.294 801.477 202.411C801.769 202.527 802.041 202.68 802.291 202.871C802.541 203.061 802.742 203.297 802.896 203.578C803.052 203.859 803.13 204.196 803.13 204.588C803.13 205.082 803.002 205.521 802.747 205.905C802.494 206.288 802.126 206.591 801.643 206.812C801.163 207.034 800.582 207.145 799.9 207.145C799.247 207.145 798.681 207.041 798.204 206.834C797.727 206.626 797.353 206.332 797.083 205.952C796.813 205.568 796.664 205.114 796.636 204.588H797.957C797.982 204.903 798.085 205.166 798.264 205.376C798.445 205.584 798.677 205.739 798.958 205.841C799.242 205.94 799.553 205.99 799.892 205.99C800.264 205.99 800.595 205.932 800.884 205.815C801.177 205.696 801.407 205.531 801.575 205.321C801.742 205.108 801.826 204.859 801.826 204.575C801.826 204.317 801.752 204.105 801.605 203.94C801.46 203.776 801.262 203.639 801.012 203.531C800.765 203.423 800.485 203.328 800.173 203.246L799.142 202.964C798.443 202.774 797.889 202.494 797.48 202.125C797.073 201.756 796.87 201.267 796.87 200.659C796.87 200.156 797.007 199.717 797.279 199.342C797.552 198.967 797.921 198.676 798.387 198.469C798.853 198.259 799.379 198.153 799.964 198.153C800.555 198.153 801.076 198.257 801.528 198.464C801.982 198.672 802.34 198.957 802.602 199.321C802.863 199.682 802.999 200.097 803.011 200.565H801.741ZM804.944 207V198.273H810.415V199.406H806.26V202.065H810.13V203.195H806.26V205.866H810.466V207H804.944ZM818.267 207.124C817.682 207.124 817.178 207.017 816.755 206.804C816.334 206.591 816.01 206.301 815.783 205.935C815.556 205.565 815.442 205.148 815.442 204.682C815.442 204.327 815.516 204.011 815.664 203.736C815.811 203.457 816.017 203.2 816.282 202.964C816.546 202.729 816.851 202.491 817.198 202.253L818.604 201.26C818.843 201.104 819.029 200.939 819.162 200.766C819.296 200.589 819.363 200.372 819.363 200.114C819.363 199.909 819.275 199.713 819.098 199.526C818.922 199.338 818.686 199.244 818.391 199.244C818.186 199.244 818.006 199.294 817.85 199.393C817.696 199.493 817.576 199.621 817.488 199.777C817.402 199.93 817.36 200.092 817.36 200.263C817.36 200.462 817.414 200.662 817.522 200.864C817.632 201.065 817.775 201.274 817.948 201.49C818.121 201.703 818.303 201.925 818.493 202.155L822.546 207H821.105L817.752 203.058C817.471 202.726 817.209 202.413 816.968 202.121C816.726 201.825 816.53 201.527 816.38 201.226C816.232 200.922 816.158 200.594 816.158 200.241C816.158 199.841 816.249 199.486 816.431 199.176C816.615 198.864 816.873 198.619 817.202 198.443C817.532 198.267 817.918 198.179 818.361 198.179C818.81 198.179 819.195 198.267 819.516 198.443C819.84 198.616 820.088 198.848 820.262 199.138C820.438 199.425 820.526 199.739 820.526 200.08C820.526 200.494 820.422 200.861 820.215 201.179C820.01 201.494 819.728 201.784 819.367 202.048L817.615 203.339C817.275 203.589 817.037 203.837 816.904 204.081C816.773 204.322 816.708 204.511 816.708 204.648C816.708 204.898 816.772 205.129 816.9 205.342C817.03 205.555 817.212 205.726 817.445 205.854C817.681 205.982 817.956 206.045 818.272 206.045C818.596 206.045 818.911 205.976 819.218 205.837C819.527 205.695 819.807 205.491 820.057 205.227C820.31 204.963 820.51 204.646 820.658 204.277C820.806 203.908 820.88 203.494 820.88 203.037H822.03C822.03 203.599 821.966 204.075 821.838 204.464C821.711 204.851 821.556 205.166 821.374 205.411C821.195 205.652 821.026 205.841 820.867 205.977C820.816 206.023 820.767 206.068 820.722 206.114C820.676 206.159 820.628 206.205 820.577 206.25C820.282 206.548 819.924 206.768 819.503 206.911C819.086 207.053 818.674 207.124 818.267 207.124ZM832.062 200.565C832.017 200.162 831.829 199.849 831.5 199.628C831.17 199.403 830.755 199.291 830.255 199.291C829.897 199.291 829.588 199.348 829.326 199.462C829.065 199.572 828.862 199.726 828.717 199.922C828.575 200.115 828.504 200.335 828.504 200.582C828.504 200.79 828.552 200.969 828.649 201.119C828.748 201.27 828.877 201.396 829.036 201.499C829.198 201.598 829.372 201.682 829.556 201.75C829.741 201.815 829.919 201.869 830.089 201.912L830.941 202.134C831.22 202.202 831.505 202.294 831.798 202.411C832.09 202.527 832.362 202.68 832.612 202.871C832.862 203.061 833.063 203.297 833.217 203.578C833.373 203.859 833.451 204.196 833.451 204.588C833.451 205.082 833.323 205.521 833.068 205.905C832.815 206.288 832.447 206.591 831.964 206.812C831.484 207.034 830.903 207.145 830.221 207.145C829.568 207.145 829.002 207.041 828.525 206.834C828.048 206.626 827.674 206.332 827.404 205.952C827.134 205.568 826.985 205.114 826.957 204.588H828.278C828.304 204.903 828.406 205.166 828.585 205.376C828.767 205.584 828.998 205.739 829.279 205.841C829.563 205.94 829.875 205.99 830.213 205.99C830.585 205.99 830.916 205.932 831.206 205.815C831.498 205.696 831.728 205.531 831.896 205.321C832.063 205.108 832.147 204.859 832.147 204.575C832.147 204.317 832.073 204.105 831.926 203.94C831.781 203.776 831.583 203.639 831.333 203.531C831.086 203.423 830.806 203.328 830.494 203.246L829.463 202.964C828.764 202.774 828.21 202.494 827.801 202.125C827.394 201.756 827.191 201.267 827.191 200.659C827.191 200.156 827.328 199.717 827.6 199.342C827.873 198.967 828.242 198.676 828.708 198.469C829.174 198.259 829.7 198.153 830.285 198.153C830.876 198.153 831.397 198.257 831.849 198.464C832.304 198.672 832.661 198.957 832.923 199.321C833.184 199.682 833.321 200.097 833.332 200.565H832.062ZM840.877 198.273H842.198V204.013C842.198 204.624 842.055 205.165 841.768 205.636C841.481 206.105 841.077 206.474 840.557 206.744C840.037 207.011 839.428 207.145 838.729 207.145C838.033 207.145 837.425 207.011 836.905 206.744C836.385 206.474 835.982 206.105 835.695 205.636C835.408 205.165 835.265 204.624 835.265 204.013V198.273H836.582V203.906C836.582 204.301 836.668 204.652 836.841 204.959C837.018 205.266 837.266 205.507 837.587 205.683C837.908 205.857 838.289 205.943 838.729 205.943C839.172 205.943 839.555 205.857 839.876 205.683C840.199 205.507 840.447 205.266 840.617 204.959C840.79 204.652 840.877 204.301 840.877 203.906V198.273ZM844.352 207V198.273H847.463C848.142 198.273 848.705 198.396 849.151 198.643C849.597 198.891 849.931 199.229 850.152 199.658C850.374 200.084 850.485 200.564 850.485 201.098C850.485 201.635 850.372 202.118 850.148 202.547C849.926 202.973 849.591 203.311 849.142 203.561C848.696 203.808 848.135 203.932 847.459 203.932H845.32V202.815H847.34C847.769 202.815 848.117 202.741 848.384 202.594C848.651 202.443 848.847 202.239 848.972 201.98C849.097 201.722 849.159 201.428 849.159 201.098C849.159 200.768 849.097 200.476 848.972 200.22C848.847 199.964 848.649 199.764 848.379 199.619C848.112 199.474 847.76 199.402 847.323 199.402H845.669V207H844.352ZM852.268 207V198.273H855.379C856.058 198.273 856.62 198.396 857.066 198.643C857.513 198.891 857.846 199.229 858.068 199.658C858.289 200.084 858.4 200.564 858.4 201.098C858.4 201.635 858.288 202.118 858.064 202.547C857.842 202.973 857.507 203.311 857.058 203.561C856.612 203.808 856.051 203.932 855.375 203.932H853.236V202.815H855.255C855.684 202.815 856.032 202.741 856.299 202.594C856.566 202.443 856.763 202.239 856.888 201.98C857.013 201.722 857.075 201.428 857.075 201.098C857.075 200.768 857.013 200.476 856.888 200.22C856.763 199.964 856.565 199.764 856.295 199.619C856.028 199.474 855.676 199.402 855.238 199.402H853.585V207H852.268ZM867.765 202.636C867.765 203.568 867.594 204.369 867.254 205.04C866.913 205.707 866.445 206.222 865.852 206.582C865.261 206.94 864.589 207.119 863.836 207.119C863.08 207.119 862.406 206.94 861.812 206.582C861.221 206.222 860.755 205.706 860.414 205.036C860.073 204.365 859.903 203.565 859.903 202.636C859.903 201.705 860.073 200.905 860.414 200.237C860.755 199.567 861.221 199.053 861.812 198.695C862.406 198.334 863.08 198.153 863.836 198.153C864.589 198.153 865.261 198.334 865.852 198.695C866.445 199.053 866.913 199.567 867.254 200.237C867.594 200.905 867.765 201.705 867.765 202.636ZM866.461 202.636C866.461 201.926 866.346 201.328 866.116 200.842C865.889 200.354 865.576 199.984 865.178 199.734C864.783 199.482 864.336 199.355 863.836 199.355C863.333 199.355 862.884 199.482 862.489 199.734C862.094 199.984 861.782 200.354 861.552 200.842C861.325 201.328 861.211 201.926 861.211 202.636C861.211 203.347 861.325 203.946 861.552 204.435C861.782 204.92 862.094 205.29 862.489 205.543C862.884 205.793 863.333 205.918 863.836 205.918C864.336 205.918 864.783 205.793 865.178 205.543C865.576 205.29 865.889 204.92 866.116 204.435C866.346 203.946 866.461 203.347 866.461 202.636ZM869.647 207V198.273H872.757C873.434 198.273 873.995 198.389 874.441 198.622C874.89 198.855 875.225 199.178 875.446 199.589C875.668 199.999 875.779 200.472 875.779 201.009C875.779 201.543 875.667 202.013 875.442 202.419C875.22 202.822 874.885 203.136 874.436 203.361C873.99 203.585 873.429 203.697 872.753 203.697H870.397V202.564H872.634C873.06 202.564 873.407 202.503 873.674 202.381C873.943 202.259 874.141 202.081 874.266 201.848C874.391 201.615 874.453 201.335 874.453 201.009C874.453 200.679 874.39 200.393 874.262 200.152C874.137 199.911 873.939 199.726 873.669 199.598C873.402 199.467 873.051 199.402 872.617 199.402H870.963V207H869.647ZM873.955 203.062L876.111 207H874.611L872.497 203.062H873.955ZM877.191 199.406V198.273H883.945V199.406H881.222V207H879.909V199.406H877.191Z" fill="#F0F6FF"/>
<path d="M601.333 88C601.333 89.4728 602.527 90.6667 604 90.6667C605.473 90.6667 606.667 89.4728 606.667 88C606.667 86.5272 605.473 85.3333 604 85.3333C602.527 85.3333 601.333 86.5272 601.333 88ZM604 88.5H672V87.5H604V88.5Z" fill="#19191B" fill-opacity="0.15"/>
<rect x="672.448" y="68.4485" width="149.103" height="39.103" rx="7.55151" fill="#19191B"/>
<rect x="672.448" y="68.4485" width="149.103" height="39.103" rx="7.55151" stroke="#19191B" stroke-width="0.896971"/>
<path d="M701.602 83.2727L704.031 90.3807H704.129L706.558 83.2727H707.981L704.841 92H703.319L700.179 83.2727H701.602ZM710.798 83.2727V92H709.481V83.2727H710.798ZM717.716 85.5653C717.67 85.1619 717.483 84.8494 717.153 84.6278C716.824 84.4034 716.409 84.2912 715.909 84.2912C715.551 84.2912 715.241 84.348 714.98 84.4616C714.719 84.5724 714.515 84.7259 714.371 84.9219C714.229 85.1151 714.158 85.3352 714.158 85.5824C714.158 85.7898 714.206 85.9687 714.302 86.1193C714.402 86.2699 714.531 86.3963 714.69 86.4986C714.852 86.598 715.025 86.6818 715.21 86.75C715.395 86.8153 715.572 86.8693 715.743 86.9119L716.595 87.1335C716.873 87.2017 717.159 87.294 717.452 87.4105C717.744 87.527 718.015 87.6804 718.265 87.8707C718.515 88.0611 718.717 88.2969 718.871 88.5781C719.027 88.8594 719.105 89.196 719.105 89.5881C719.105 90.0824 718.977 90.5213 718.721 90.9048C718.469 91.2884 718.101 91.5909 717.618 91.8125C717.138 92.0341 716.557 92.1449 715.875 92.1449C715.221 92.1449 714.656 92.0412 714.179 91.8338C713.702 91.6264 713.328 91.3324 713.058 90.9517C712.788 90.5682 712.639 90.1136 712.611 89.5881H713.932C713.957 89.9034 714.06 90.1662 714.239 90.3764C714.42 90.5838 714.652 90.7386 714.933 90.8409C715.217 90.9403 715.528 90.9901 715.866 90.9901C716.239 90.9901 716.569 90.9318 716.859 90.8153C717.152 90.696 717.382 90.5312 717.55 90.321C717.717 90.108 717.801 89.8594 717.801 89.5753C717.801 89.3168 717.727 89.1051 717.579 88.9403C717.435 88.7756 717.237 88.6392 716.987 88.5312C716.74 88.4233 716.46 88.3281 716.148 88.2457L715.116 87.9645C714.417 87.7741 713.864 87.4943 713.454 87.125C713.048 86.7557 712.845 86.267 712.845 85.6591C712.845 85.1562 712.981 84.7173 713.254 84.3423C713.527 83.9673 713.896 83.6761 714.362 83.4688C714.828 83.2585 715.354 83.1534 715.939 83.1534C716.53 83.1534 717.051 83.2571 717.503 83.4645C717.957 83.6719 718.315 83.9574 718.577 84.321C718.838 84.6818 718.974 85.0966 718.986 85.5653H717.716ZM726.531 83.2727H727.852V89.0128C727.852 89.6236 727.708 90.1648 727.421 90.6364C727.134 91.1051 726.731 91.4744 726.211 91.7443C725.691 92.0114 725.082 92.1449 724.383 92.1449C723.687 92.1449 723.079 92.0114 722.559 91.7443C722.039 91.4744 721.636 91.1051 721.349 90.6364C721.062 90.1648 720.918 89.6236 720.918 89.0128V83.2727H722.235V88.9062C722.235 89.3011 722.322 89.652 722.495 89.9588C722.671 90.2656 722.92 90.5071 723.241 90.6832C723.562 90.8565 723.943 90.9432 724.383 90.9432C724.826 90.9432 725.208 90.8565 725.529 90.6832C725.853 90.5071 726.1 90.2656 726.271 89.9588C726.444 89.652 726.531 89.3011 726.531 88.9062V83.2727ZM730.743 92H729.346L732.486 83.2727H734.008L737.148 92H735.75L733.283 84.858H733.215L730.743 92ZM730.978 88.5824H735.512V89.6903H730.978V88.5824ZM738.648 92V83.2727H739.965V90.8665H743.92V92H738.648ZM751.903 92H749.078V83.2727H751.992C752.848 83.2727 753.582 83.4474 754.196 83.7969C754.809 84.1435 755.279 84.642 755.606 85.2926C755.936 85.9403 756.1 86.7173 756.1 87.6236C756.1 88.5327 755.934 89.3139 755.602 89.9673C755.272 90.6207 754.795 91.1236 754.17 91.4759C753.545 91.8253 752.789 92 751.903 92ZM750.394 90.8494H751.831C752.495 90.8494 753.048 90.7244 753.488 90.4744C753.929 90.2216 754.258 89.8565 754.477 89.3793C754.696 88.8991 754.805 88.3139 754.805 87.6236C754.805 86.9389 754.696 86.358 754.477 85.8807C754.261 85.4034 753.939 85.0412 753.51 84.794C753.081 84.5469 752.548 84.4233 751.912 84.4233H750.394V90.8494ZM757.978 92V83.2727H763.449V84.4062H759.295V87.0653H763.164V88.1946H759.295V90.8665H763.501V92H757.978ZM770.208 85.5653C770.163 85.1619 769.975 84.8494 769.646 84.6278C769.316 84.4034 768.901 84.2912 768.401 84.2912C768.044 84.2912 767.734 84.348 767.472 84.4616C767.211 84.5724 767.008 84.7259 766.863 84.9219C766.721 85.1151 766.65 85.3352 766.65 85.5824C766.65 85.7898 766.698 85.9687 766.795 86.1193C766.894 86.2699 767.024 86.3963 767.183 86.4986C767.345 86.598 767.518 86.6818 767.703 86.75C767.887 86.8153 768.065 86.8693 768.235 86.9119L769.088 87.1335C769.366 87.2017 769.651 87.294 769.944 87.4105C770.237 87.527 770.508 87.6804 770.758 87.8707C771.008 88.0611 771.21 88.2969 771.363 88.5781C771.519 88.8594 771.597 89.196 771.597 89.5881C771.597 90.0824 771.47 90.5213 771.214 90.9048C770.961 91.2884 770.593 91.5909 770.11 91.8125C769.63 92.0341 769.049 92.1449 768.367 92.1449C767.714 92.1449 767.149 92.0412 766.671 91.8338C766.194 91.6264 765.82 91.3324 765.551 90.9517C765.281 90.5682 765.132 90.1136 765.103 89.5881H766.424C766.45 89.9034 766.552 90.1662 766.731 90.3764C766.913 90.5838 767.144 90.7386 767.426 90.8409C767.71 90.9403 768.021 90.9901 768.359 90.9901C768.731 90.9901 769.062 90.9318 769.352 90.8153C769.644 90.696 769.874 90.5312 770.042 90.321C770.21 90.108 770.294 89.8594 770.294 89.5753C770.294 89.3168 770.22 89.1051 770.072 88.9403C769.927 88.7756 769.73 88.6392 769.48 88.5312C769.232 88.4233 768.953 88.3281 768.64 88.2457L767.609 87.9645C766.91 87.7741 766.356 87.4943 765.947 87.125C765.541 86.7557 765.338 86.267 765.338 85.6591C765.338 85.1562 765.474 84.7173 765.747 84.3423C766.019 83.9673 766.389 83.6761 766.855 83.4688C767.32 83.2585 767.846 83.1534 768.431 83.1534C769.022 83.1534 769.544 83.2571 769.995 83.4645C770.45 83.6719 770.808 83.9574 771.069 84.321C771.33 84.6818 771.467 85.0966 771.478 85.5653H770.208ZM774.728 83.2727V92H773.411V83.2727H774.728ZM782.792 86.0298C782.709 85.7713 782.598 85.5398 782.459 85.3352C782.323 85.1278 782.16 84.9517 781.969 84.8068C781.779 84.6591 781.562 84.5469 781.317 84.4702C781.076 84.3935 780.81 84.3551 780.52 84.3551C780.029 84.3551 779.586 84.4815 779.191 84.7344C778.796 84.9872 778.483 85.358 778.253 85.8466C778.026 86.3324 777.912 86.9276 777.912 87.6321C777.912 88.3395 778.027 88.9375 778.258 89.4261C778.488 89.9148 778.803 90.2855 779.204 90.5384C779.604 90.7912 780.06 90.9176 780.571 90.9176C781.046 90.9176 781.459 90.821 781.812 90.6278C782.167 90.4347 782.441 90.1619 782.634 89.8097C782.83 89.4545 782.928 89.0369 782.928 88.5568L783.269 88.6207H780.772V87.5341H784.202V88.527C784.202 89.2599 784.046 89.8963 783.733 90.4361C783.424 90.973 782.995 91.3878 782.446 91.6804C781.901 91.973 781.276 92.1193 780.571 92.1193C779.782 92.1193 779.088 91.9375 778.492 91.5739C777.898 91.2102 777.435 90.6946 777.103 90.027C776.77 89.3565 776.604 88.5611 776.604 87.6406C776.604 86.9446 776.701 86.3196 776.894 85.7656C777.087 85.2116 777.358 84.7415 777.708 84.3551C778.06 83.9659 778.473 83.669 778.948 83.4645C779.425 83.2571 779.946 83.1534 780.512 83.1534C780.983 83.1534 781.422 83.223 781.829 83.3622C782.238 83.5014 782.601 83.6989 782.919 83.9545C783.24 84.2102 783.506 84.5142 783.716 84.8665C783.927 85.2159 784.069 85.6037 784.142 86.0298H782.792ZM793.158 83.2727V92H791.947L787.511 85.5994H787.43V92H786.114V83.2727H787.332L791.773 89.6818H791.854V83.2727H793.158Z" fill="#F0F6FF"/>
<path d="M155.333 88C155.333 89.4728 156.527 90.6667 158 90.6667C159.473 90.6667 160.667 89.4728 160.667 88C160.667 86.5272 159.473 85.3333 158 85.3333C156.527 85.3333 155.333 86.5272 155.333 88ZM158 88.5H214.473V87.5H158V88.5Z" fill="#19191B" fill-opacity="0.15"/>
<rect x="214.473" y="68" width="150" height="40" rx="8" fill="#E33230"/>
<path d="M235.368 92.1193C234.783 92.1193 234.26 92.0185 233.8 91.8168C233.342 91.6151 232.98 91.3352 232.713 90.9773C232.449 90.6165 232.307 90.1989 232.287 89.7244H233.625C233.642 89.983 233.729 90.2074 233.885 90.3977C234.044 90.5852 234.252 90.7301 234.507 90.8324C234.763 90.9347 235.047 90.9858 235.359 90.9858C235.703 90.9858 236.007 90.9261 236.271 90.8068C236.538 90.6875 236.747 90.5213 236.898 90.3082C237.048 90.0923 237.124 89.8438 237.124 89.5625C237.124 89.2699 237.048 89.0128 236.898 88.7912C236.75 88.5668 236.533 88.3906 236.246 88.2628C235.962 88.1349 235.618 88.071 235.215 88.071H234.477V86.9972H235.215C235.538 86.9972 235.823 86.9389 236.067 86.8224C236.314 86.706 236.507 86.544 236.646 86.3366C236.786 86.1264 236.855 85.8807 236.855 85.5994C236.855 85.3295 236.794 85.0952 236.672 84.8963C236.553 84.6946 236.382 84.5369 236.161 84.4233C235.942 84.3097 235.683 84.2528 235.385 84.2528C235.101 84.2528 234.835 84.3054 234.588 84.4105C234.344 84.5128 234.145 84.6605 233.992 84.8537C233.838 85.044 233.756 85.2727 233.744 85.5398H232.47C232.484 85.0682 232.624 84.6534 232.888 84.2955C233.155 83.9375 233.507 83.6577 233.945 83.456C234.382 83.2543 234.868 83.1534 235.402 83.1534C235.962 83.1534 236.445 83.2628 236.851 83.4815C237.26 83.6974 237.575 83.9858 237.797 84.3466C238.021 84.7074 238.132 85.1023 238.129 85.5312C238.132 86.0199 237.996 86.4347 237.72 86.7756C237.448 87.1165 237.084 87.3452 236.629 87.4616V87.5298C237.209 87.6179 237.658 87.848 237.976 88.2202C238.297 88.5923 238.456 89.054 238.453 89.6051C238.456 90.0852 238.323 90.5156 238.053 90.8963C237.786 91.277 237.421 91.5767 236.957 91.7955C236.494 92.0114 235.965 92.1193 235.368 92.1193ZM243.839 92V83.2727H249.251V84.4062H245.156V87.0653H248.863V88.1946H245.156V92H243.839ZM251.11 92V83.2727H254.221C254.897 83.2727 255.458 83.3892 255.904 83.6222C256.353 83.8551 256.688 84.1776 256.91 84.5895C257.132 84.9986 257.242 85.4716 257.242 86.0085C257.242 86.5426 257.13 87.0128 256.906 87.419C256.684 87.8224 256.349 88.1364 255.9 88.3608C255.454 88.5852 254.893 88.6974 254.217 88.6974H251.86V87.5639H254.098C254.524 87.5639 254.87 87.5028 255.137 87.3807C255.407 87.2585 255.605 87.081 255.73 86.848C255.855 86.6151 255.917 86.3352 255.917 86.0085C255.917 85.679 255.853 85.3935 255.725 85.152C255.6 84.9105 255.403 84.7259 255.133 84.598C254.866 84.4673 254.515 84.402 254.081 84.402H252.427V92H251.11ZM255.419 88.0625L257.575 92H256.075L253.961 88.0625H255.419ZM259.085 92V83.2727H264.556V84.4062H260.402V87.0653H264.271V88.1946H260.402V90.8665H264.607V92H259.085ZM266.555 92V83.2727H272.027V84.4062H267.872V87.0653H271.741V88.1946H267.872V90.8665H272.078V92H266.555ZM277.011 84.4062V83.2727H283.765V84.4062H281.042V92H279.73V84.4062H277.011ZM285.498 92V83.2727H288.609C289.285 83.2727 289.846 83.3892 290.292 83.6222C290.741 83.8551 291.076 84.1776 291.298 84.5895C291.519 84.9986 291.63 85.4716 291.63 86.0085C291.63 86.5426 291.518 87.0128 291.293 87.419C291.072 87.8224 290.737 88.1364 290.288 88.3608C289.842 88.5852 289.281 88.6974 288.604 88.6974H286.248V87.5639H288.485C288.911 87.5639 289.258 87.5028 289.525 87.3807C289.795 87.2585 289.992 87.081 290.117 86.848C290.242 86.6151 290.305 86.3352 290.305 86.0085C290.305 85.679 290.241 85.3935 290.113 85.152C289.988 84.9105 289.79 84.7259 289.521 84.598C289.254 84.4673 288.903 84.402 288.468 84.402H286.815V92H285.498ZM289.806 88.0625L291.962 92H290.462L288.349 88.0625H289.806ZM294.789 83.2727V92H293.472V83.2727H294.789ZM297.684 92H296.286L299.427 83.2727H300.948L304.089 92H302.691L300.224 84.858H300.155L297.684 92ZM297.918 88.5824H302.452V89.6903H297.918V88.5824ZM305.589 92V83.2727H306.906V90.8665H310.86V92H305.589ZM318.843 92H316.018V83.2727H318.933C319.788 83.2727 320.522 83.4474 321.136 83.7969C321.75 84.1435 322.22 84.642 322.547 85.2926C322.876 85.9403 323.041 86.7173 323.041 87.6236C323.041 88.5327 322.875 89.3139 322.542 89.9673C322.213 90.6207 321.736 91.1236 321.111 91.4759C320.486 91.8253 319.73 92 318.843 92ZM317.335 90.8494H318.771C319.436 90.8494 319.988 90.7244 320.429 90.4744C320.869 90.2216 321.199 89.8565 321.417 89.3793C321.636 88.8991 321.745 88.3139 321.745 87.6236C321.745 86.9389 321.636 86.358 321.417 85.8807C321.201 85.4034 320.879 85.0412 320.45 84.794C320.021 84.5469 319.488 84.4233 318.852 84.4233H317.335V90.8494ZM325.222 92H323.824L326.965 83.2727H328.486L331.627 92H330.229L327.762 84.858H327.694L325.222 92ZM325.456 88.5824H329.99V89.6903H325.456V88.5824ZM331.563 83.2727H333.059L335.339 87.2401H335.432L337.712 83.2727H339.208L336.042 88.5739V92H334.729V88.5739L331.563 83.2727ZM345.451 85.5653C345.406 85.1619 345.218 84.8494 344.889 84.6278C344.559 84.4034 344.144 84.2912 343.644 84.2912C343.286 84.2912 342.977 84.348 342.715 84.4616C342.454 84.5724 342.251 84.7259 342.106 84.9219C341.964 85.1151 341.893 85.3352 341.893 85.5824C341.893 85.7898 341.941 85.9687 342.038 86.1193C342.137 86.2699 342.267 86.3963 342.426 86.4986C342.588 86.598 342.761 86.6818 342.946 86.75C343.13 86.8153 343.308 86.8693 343.478 86.9119L344.331 87.1335C344.609 87.2017 344.894 87.294 345.187 87.4105C345.48 87.527 345.751 87.6804 346.001 87.8707C346.251 88.0611 346.453 88.2969 346.606 88.5781C346.762 88.8594 346.84 89.196 346.84 89.5881C346.84 90.0824 346.713 90.5213 346.457 90.9048C346.204 91.2884 345.836 91.5909 345.353 91.8125C344.873 92.0341 344.292 92.1449 343.61 92.1449C342.957 92.1449 342.392 92.0412 341.914 91.8338C341.437 91.6264 341.063 91.3324 340.794 90.9517C340.524 90.5682 340.375 90.1136 340.346 89.5881H341.667C341.693 89.9034 341.795 90.1662 341.974 90.3764C342.156 90.5838 342.387 90.7386 342.669 90.8409C342.953 90.9403 343.264 90.9901 343.602 90.9901C343.974 90.9901 344.305 90.9318 344.595 90.8153C344.887 90.696 345.117 90.5312 345.285 90.321C345.453 90.108 345.536 89.8594 345.536 89.5753C345.536 89.3168 345.463 89.1051 345.315 88.9403C345.17 88.7756 344.973 88.6392 344.723 88.5312C344.475 88.4233 344.196 88.3281 343.883 88.2457L342.852 87.9645C342.153 87.7741 341.599 87.4943 341.19 87.125C340.784 86.7557 340.581 86.267 340.581 85.6591C340.581 85.1562 340.717 84.7173 340.99 84.3423C341.262 83.9673 341.632 83.6761 342.098 83.4688C342.563 83.2585 343.089 83.1534 343.674 83.1534C344.265 83.1534 344.786 83.2571 345.238 83.4645C345.693 83.6719 346.051 83.9574 346.312 84.321C346.573 84.6818 346.71 85.0966 346.721 85.5653H345.451Z" fill="#F0F6FF"/>
<path d="M364.473 88H386" stroke="#19191B" stroke-opacity="0.15"/>
<rect x="386.448" y="68.4485" width="149.103" height="39.103" rx="7.55151" fill="#19191B"/>
<rect x="386.448" y="68.4485" width="149.103" height="39.103" rx="7.55151" stroke="#19191B" stroke-width="0.896971"/>
<path d="M429.576 92H426.751V83.2727H429.666C430.521 83.2727 431.255 83.4474 431.869 83.7969C432.482 84.1435 432.952 84.642 433.279 85.2926C433.609 85.9403 433.773 86.7173 433.773 87.6236C433.773 88.5327 433.607 89.3139 433.275 89.9673C432.945 90.6207 432.468 91.1236 431.843 91.4759C431.218 91.8253 430.462 92 429.576 92ZM428.068 90.8494H429.504C430.168 90.8494 430.721 90.7244 431.161 90.4744C431.602 90.2216 431.931 89.8565 432.15 89.3793C432.369 88.8991 432.478 88.3139 432.478 87.6236C432.478 86.9389 432.369 86.358 432.15 85.8807C431.934 85.4034 431.612 85.0412 431.183 84.794C430.754 84.5469 430.221 84.4233 429.585 84.4233H428.068V90.8494ZM436.968 83.2727V92H435.651V83.2727H436.968ZM443.885 85.5653C443.84 85.1619 443.652 84.8494 443.323 84.6278C442.993 84.4034 442.578 84.2912 442.078 84.2912C441.72 84.2912 441.411 84.348 441.149 84.4616C440.888 84.5724 440.685 84.7259 440.54 84.9219C440.398 85.1151 440.327 85.3352 440.327 85.5824C440.327 85.7898 440.375 85.9687 440.472 86.1193C440.571 86.2699 440.701 86.3963 440.86 86.4986C441.022 86.598 441.195 86.6818 441.38 86.75C441.564 86.8153 441.742 86.8693 441.912 86.9119L442.764 87.1335C443.043 87.2017 443.328 87.294 443.621 87.4105C443.914 87.527 444.185 87.6804 444.435 87.8707C444.685 88.0611 444.887 88.2969 445.04 88.5781C445.196 88.8594 445.274 89.196 445.274 89.5881C445.274 90.0824 445.147 90.5213 444.891 90.9048C444.638 91.2884 444.27 91.5909 443.787 91.8125C443.307 92.0341 442.726 92.1449 442.044 92.1449C441.391 92.1449 440.826 92.0412 440.348 91.8338C439.871 91.6264 439.497 91.3324 439.228 90.9517C438.958 90.5682 438.809 90.1136 438.78 89.5881H440.101C440.127 89.9034 440.229 90.1662 440.408 90.3764C440.59 90.5838 440.821 90.7386 441.103 90.8409C441.387 90.9403 441.698 90.9901 442.036 90.9901C442.408 90.9901 442.739 90.9318 443.029 90.8153C443.321 90.696 443.551 90.5312 443.719 90.321C443.887 90.108 443.97 89.8594 443.97 89.5753C443.97 89.3168 443.897 89.1051 443.749 88.9403C443.604 88.7756 443.407 88.6392 443.157 88.5312C442.909 88.4233 442.63 88.3281 442.317 88.2457L441.286 87.9645C440.587 87.7741 440.033 87.4943 439.624 87.125C439.218 86.7557 439.014 86.267 439.014 85.6591C439.014 85.1562 439.151 84.7173 439.424 84.3423C439.696 83.9673 440.066 83.6761 440.532 83.4688C440.997 83.2585 441.523 83.1534 442.108 83.1534C442.699 83.1534 443.22 83.2571 443.672 83.4645C444.127 83.6719 444.485 83.9574 444.746 84.321C445.007 84.6818 445.144 85.0966 445.155 85.5653H443.885ZM454.337 86.1108H453.007C452.956 85.8267 452.861 85.5767 452.721 85.3608C452.582 85.1449 452.412 84.9616 452.21 84.8111C452.008 84.6605 451.783 84.5469 451.533 84.4702C451.285 84.3935 451.023 84.3551 450.744 84.3551C450.241 84.3551 449.791 84.4815 449.393 84.7344C448.998 84.9872 448.686 85.358 448.456 85.8466C448.229 86.3352 448.115 86.9318 448.115 87.6364C448.115 88.3466 448.229 88.946 448.456 89.4347C448.686 89.9233 449 90.2926 449.398 90.5426C449.795 90.7926 450.243 90.9176 450.74 90.9176C451.016 90.9176 451.277 90.8807 451.524 90.8068C451.774 90.7301 452 90.6179 452.202 90.4702C452.403 90.3224 452.574 90.142 452.713 89.929C452.855 89.7131 452.953 89.4659 453.007 89.1875L454.337 89.1918C454.266 89.6207 454.128 90.0156 453.923 90.3764C453.721 90.7344 453.462 91.044 453.143 91.3054C452.828 91.5639 452.467 91.7642 452.061 91.9062C451.655 92.0483 451.212 92.1193 450.731 92.1193C449.976 92.1193 449.302 91.9403 448.712 91.5824C448.121 91.2216 447.655 90.706 447.314 90.0355C446.976 89.3651 446.807 88.5653 446.807 87.6364C446.807 86.7045 446.977 85.9048 447.318 85.2372C447.659 84.5668 448.125 84.0526 448.716 83.6946C449.307 83.3338 449.979 83.1534 450.731 83.1534C451.194 83.1534 451.626 83.2202 452.027 83.3537C452.43 83.4844 452.792 83.6776 453.114 83.9332C453.435 84.1861 453.7 84.4957 453.91 84.8622C454.121 85.2259 454.263 85.642 454.337 86.1108ZM463.733 87.6364C463.733 88.5682 463.563 89.3693 463.222 90.0398C462.881 90.7074 462.414 91.2216 461.82 91.5824C461.229 91.9403 460.557 92.1193 459.804 92.1193C459.048 92.1193 458.374 91.9403 457.78 91.5824C457.189 91.2216 456.723 90.706 456.382 90.0355C456.041 89.3651 455.871 88.5653 455.871 87.6364C455.871 86.7045 456.041 85.9048 456.382 85.2372C456.723 84.5668 457.189 84.0526 457.78 83.6946C458.374 83.3338 459.048 83.1534 459.804 83.1534C460.557 83.1534 461.229 83.3338 461.82 83.6946C462.414 84.0526 462.881 84.5668 463.222 85.2372C463.563 85.9048 463.733 86.7045 463.733 87.6364ZM462.429 87.6364C462.429 86.9261 462.314 86.3281 462.084 85.8423C461.857 85.3537 461.544 84.9844 461.146 84.7344C460.752 84.4815 460.304 84.3551 459.804 84.3551C459.301 84.3551 458.852 84.4815 458.458 84.7344C458.063 84.9844 457.75 85.3537 457.52 85.8423C457.293 86.3281 457.179 86.9261 457.179 87.6364C457.179 88.3466 457.293 88.946 457.52 89.4347C457.75 89.9205 458.063 90.2898 458.458 90.5426C458.852 90.7926 459.301 90.9176 459.804 90.9176C460.304 90.9176 460.752 90.7926 461.146 90.5426C461.544 90.2898 461.857 89.9205 462.084 89.4347C462.314 88.946 462.429 88.3466 462.429 87.6364ZM465.944 83.2727L468.373 90.3807H468.471L470.9 83.2727H472.323L469.183 92H467.661L464.521 83.2727H465.944ZM473.824 92V83.2727H479.295V84.4062H475.14V87.0653H479.01V88.1946H475.14V90.8665H479.346V92H473.824ZM481.294 92V83.2727H484.405C485.081 83.2727 485.642 83.3892 486.088 83.6222C486.537 83.8551 486.872 84.1776 487.094 84.5895C487.315 84.9986 487.426 85.4716 487.426 86.0085C487.426 86.5426 487.314 87.0128 487.089 87.419C486.868 87.8224 486.533 88.1364 486.084 88.3608C485.638 88.5852 485.077 88.6974 484.401 88.6974H482.044V87.5639H484.281C484.707 87.5639 485.054 87.5028 485.321 87.3807C485.591 87.2585 485.788 87.081 485.913 86.848C486.038 86.6151 486.101 86.3352 486.101 86.0085C486.101 85.679 486.037 85.3935 485.909 85.152C485.784 84.9105 485.587 84.7259 485.317 84.598C485.05 84.4673 484.699 84.402 484.264 84.402H482.611V92H481.294ZM485.602 88.0625L487.759 92H486.259L484.145 88.0625H485.602ZM488.279 83.2727H489.774L492.054 87.2401H492.148L494.428 83.2727H495.924L492.757 88.5739V92H491.445V88.5739L488.279 83.2727Z" fill="#F0F6FF"/>
</svg>