<svg width="291" height="80" viewBox="0 0 291 80" fill="none" xmlns="http://www.w3.org/2000/svg">
<path d="M60.1675 10H0V70.0002H60.1675V10Z" fill="#D5FF00"/>
<path d="M51.8049 55.8357H8.35938V61.6646H51.8049V55.8357ZM30.0822 52.4912L34.2254 48.3845L46.7997 35.8445L42.6075 31.6645L33.0036 41.2423V17.5H27.1608V41.2423L17.5546 31.6645L13.3624 35.8423L25.9367 48.3845L30.0822 52.4912Z" fill="#191823"/>
<path fill-rule="evenodd" clip-rule="evenodd" d="M198.94 31.5456C198.94 34.4678 201.469 35.3234 206.829 36.4856H206.834C214.267 38.0967 220.337 39.8634 220.337 47.6301C220.337 54.9457 214.421 59.0301 206.278 59.0301C196.47 59.0301 190.905 54.6946 190.654 47.079H197.836C198.341 51.4146 200.822 53.1323 205.979 53.1323C209.724 53.1323 213.012 51.8212 213.012 48.4923C213.012 45.0382 209.723 44.2867 204.417 43.0741L204.059 42.9923C197.583 41.5301 191.667 39.819 191.667 32.3034C191.667 25.1923 197.534 21.5078 205.521 21.5078C213.51 21.5078 218.722 25.3456 219.439 32.3523H212.381C211.815 28.9923 209.069 27.3078 205.465 27.3078C201.518 27.3078 198.94 28.9745 198.94 31.5456ZM78.4922 22.1589H93.7101C103.37 22.1589 109.588 29.9278 109.588 40.5701C109.588 46.4212 107.613 51.5635 103.821 54.7435C101.137 56.9635 97.6512 58.2235 93.0992 58.2235H78.4922V22.1589ZM110.679 45.3123C110.679 37.599 116.195 31.6456 124.23 31.6456C132.268 31.6456 137.782 37.5923 137.782 45.3123C137.782 53.0323 132.268 58.9813 124.23 58.9813C116.195 58.9813 110.679 53.0323 110.679 45.3145V45.3123ZM152.151 31.6456C144.26 31.6456 139.202 37.599 139.202 45.3123L139.197 45.3079C139.197 53.0257 144.305 58.9746 152.496 58.9746C159.425 58.9746 163.724 54.5879 164.179 49.0901H157.554C157.103 52.0123 155.131 53.4746 152.349 53.4746C148.153 53.4746 146.18 50.2946 146.18 45.3079C146.18 40.3168 148.308 37.1367 152.454 37.1367C154.982 37.1367 156.752 38.8545 157.21 41.1234H163.933C163.026 35.5256 158.874 31.6456 152.151 31.6456ZM182.372 58.2124V55.1924H182.216C180.446 57.5612 178.422 58.9257 174.783 58.9257C169.016 58.9257 165.785 55.2412 165.785 49.5923V32.3456H172.612V48.4323C172.612 51.459 173.976 53.119 176.911 53.119C180.15 53.119 182.119 50.6968 182.119 47.2679V32.339H188.997V58.2124H182.372ZM229.381 22.3189H222.503V28.7345H229.381V22.3189ZM222.503 32.3523H229.381V58.2257H222.503V32.3523ZM244.272 61.8479C241.091 61.8479 239.622 60.5879 239.067 58.9768V58.9746H232.227C232.935 64.019 237.283 67.0457 244.365 67.0457C248.209 67.0457 251.546 66.1346 253.723 64.1168C255.642 62.3524 256.806 59.879 256.806 56.2501V32.3456H250.182V35.0701H250.084C248.518 32.899 246.143 31.639 242.904 31.639C236.328 31.639 231.676 36.479 231.676 44.299C231.676 52.1168 237.339 56.6568 243.108 56.6568C246.394 56.6568 248.369 55.3457 249.886 53.6301H250.042V56.4524C250.042 59.9835 248.164 61.8479 244.272 61.8479ZM266.493 35.8767H266.646C268.417 33.1034 270.791 31.639 274.333 31.639C279.693 31.639 283.283 35.6745 283.283 41.3212V58.219H276.405V42.3301C276.405 39.5545 274.788 37.5879 271.902 37.5879C268.867 37.5879 266.641 40.0101 266.641 43.5345V58.2124H259.763V32.339H266.486V35.8723L266.493 35.8767ZM286.072 37.1256C284.561 37.1256 283.339 35.9012 283.339 34.4012C283.339 33.6763 283.627 32.981 284.139 32.4684C284.652 31.9558 285.347 31.6678 286.072 31.6678C286.796 31.6678 287.491 31.9558 288.004 32.4684C288.516 32.981 288.804 33.6763 288.804 34.4012C288.802 35.1246 288.513 35.8175 288.001 36.3282C287.488 36.8389 286.795 37.1256 286.072 37.1256ZM92.5951 51.913C99.4732 51.913 102.157 47.7285 102.157 40.5618C102.157 33.3952 99.0244 28.4062 92.7995 28.4062H85.8281V51.9108H92.6018L92.5951 51.913ZM130.808 45.311C130.808 40.2665 128.433 36.8398 124.232 36.8398C120.033 36.8398 117.656 40.2665 117.656 45.311C117.656 50.3554 119.982 53.7332 124.232 53.7332C128.484 53.7332 130.808 50.3554 130.808 45.311ZM250.392 44.1469C250.391 47.9787 248.62 51.1545 244.271 51.1545C240.732 51.1545 238.406 48.5368 238.406 44.199C238.406 39.8634 240.732 37.1367 244.222 37.1367C248.367 37.1367 250.391 40.366 250.392 44.1469Z" fill="white"/>
<path d="M285.141 33H286.036C286.405 33 286.658 33 286.905 33.2C287.006 33.2833 287.086 33.3888 287.14 33.5083C287.193 33.6278 287.218 33.758 287.213 33.8889C287.213 34.4267 286.818 34.6111 286.665 34.66L287.287 35.7933H286.689L286.134 34.7578H285.665V35.7911H285.147V33.0044L285.141 33ZM285.658 33.4489V34.3222H285.843C286.023 34.3222 286.091 34.3222 286.189 34.3156C286.307 34.3156 286.682 34.2911 286.682 33.8844C286.682 33.8222 286.682 33.62 286.46 33.5089C286.349 33.4533 286.214 33.4489 285.905 33.4489H285.658Z" fill="#191823"/>
</svg>
