<svg width="308" height="266" viewBox="0 0 308 266" fill="none" xmlns="http://www.w3.org/2000/svg">
<rect x="5.2" y="5.2" width="297.6" height="392" rx="24.8" fill="white"/>
<rect x="5.2" y="5.2" width="297.6" height="392" rx="24.8" stroke="#6160F6" stroke-width="9.6"/>
<path opacity="0.5" d="M39.4629 220.812C36.2085 220.812 33.5703 223.451 33.5703 226.705V270.163L39.5918 264.27L45.6133 270.163L51.6348 264.27L57.6562 270.163L63.6777 264.27L69.6992 270.163L75.7207 264.27L81.7422 270.163L87.7637 264.27L93.7851 270.163L99.8066 264.27L105.828 270.163L111.85 264.27L117.871 270.163L123.893 264.27L129.914 270.163L135.936 264.27L141.957 270.163L147.978 264.27L154 270.163L160.021 264.27L166.043 270.163L172.064 264.27L178.086 270.163L184.107 264.27L190.129 270.163L196.15 264.27L202.172 270.163L208.193 264.27L214.215 270.163L220.236 264.27L226.258 270.163L232.279 264.27L238.301 270.163L244.322 264.27L250.344 270.163L256.365 264.27L262.387 270.163L268.408 264.27L274.43 270.163V226.705C274.43 223.451 271.791 220.812 268.537 220.812H39.4629Z" fill="#F2F3F5" stroke="#E4E6EB" stroke-width="0.736573" stroke-linecap="round" stroke-linejoin="round"/>
<path d="M215.602 246.328V245.477C214.403 245.366 213.411 244.636 213.371 243.468V243.463L214.247 243.458V243.468C214.338 244.092 214.726 244.591 215.602 244.686V242.264L215.486 242.234C214.232 241.932 213.557 241.373 213.557 240.386V240.376C213.557 239.299 214.408 238.564 215.602 238.453V237.602H216.206V238.453C217.369 238.558 218.27 239.314 218.311 240.422V240.427L217.435 240.432V240.422C217.369 239.747 216.886 239.329 216.206 239.243V241.554L216.362 241.59C217.656 241.902 218.381 242.436 218.381 243.488V243.498C218.381 244.706 217.394 245.386 216.206 245.482V246.328H215.602ZM214.434 240.326C214.434 240.814 214.736 241.197 215.602 241.408V239.243C214.836 239.349 214.434 239.832 214.434 240.316V240.326ZM216.236 242.415L216.206 242.41V244.696C217.143 244.621 217.505 244.148 217.505 243.568V243.558C217.505 243.01 217.233 242.657 216.236 242.415ZM222.339 245.769C220.984 245.769 220.018 244.898 219.912 243.735L219.907 243.679H220.778L220.783 243.72C220.869 244.414 221.498 244.968 222.349 244.968C223.316 244.968 223.98 244.278 223.98 243.297V243.287C223.98 242.32 223.306 241.63 222.364 241.63C221.881 241.63 221.468 241.776 221.156 242.073C221.03 242.194 220.914 242.335 220.823 242.506H220.038L220.42 238.332H224.464V239.143H221.135L220.889 241.6H220.969C221.291 241.111 221.86 240.844 222.52 240.844C223.885 240.844 224.866 241.867 224.866 243.271V243.281C224.866 244.747 223.814 245.769 222.339 245.769ZM225.758 247.446L226.196 244.581H227.198L226.407 247.446H225.758ZM231.065 245.769C229.459 245.769 228.502 244.304 228.502 241.967V241.957C228.502 239.621 229.459 238.161 231.065 238.161C232.671 238.161 233.638 239.621 233.638 241.957V241.967C233.638 244.304 232.671 245.769 231.065 245.769ZM231.065 244.978C232.107 244.978 232.726 243.82 232.726 241.967V241.957C232.726 240.104 232.107 238.956 231.065 238.956C230.022 238.956 229.413 240.104 229.413 241.957V241.967C229.413 243.82 230.022 244.978 231.065 244.978ZM237.56 245.769C235.954 245.769 234.997 244.304 234.997 241.967V241.957C234.997 239.621 235.954 238.161 237.56 238.161C239.166 238.161 240.133 239.621 240.133 241.957V241.967C240.133 244.304 239.166 245.769 237.56 245.769ZM237.56 244.978C238.602 244.978 239.222 243.82 239.222 241.967V241.957C239.222 240.104 238.602 238.956 237.56 238.956C236.518 238.956 235.909 240.104 235.909 241.957V241.967C235.909 243.82 236.518 244.978 237.56 244.978ZM244.055 245.769C242.449 245.769 241.493 244.304 241.493 241.967V241.957C241.493 239.621 242.449 238.161 244.055 238.161C245.662 238.161 246.628 239.621 246.628 241.957V241.967C246.628 244.304 245.662 245.769 244.055 245.769ZM244.055 244.978C245.098 244.978 245.717 243.82 245.717 241.967V241.957C245.717 240.104 245.098 238.956 244.055 238.956C243.013 238.956 242.404 240.104 242.404 241.957V241.967C242.404 243.82 243.013 244.978 244.055 244.978ZM248.436 245.648C248.079 245.648 247.782 245.351 247.782 244.993C247.782 244.631 248.079 244.339 248.436 244.339C248.799 244.339 249.091 244.631 249.091 244.993C249.091 245.351 248.799 245.648 248.436 245.648ZM252.807 245.769C251.2 245.769 250.244 244.304 250.244 241.967V241.957C250.244 239.621 251.2 238.161 252.807 238.161C254.413 238.161 255.38 239.621 255.38 241.957V241.967C255.38 244.304 254.413 245.769 252.807 245.769ZM252.807 244.978C253.849 244.978 254.468 243.82 254.468 241.967V241.957C254.468 240.104 253.849 238.956 252.807 238.956C251.764 238.956 251.155 240.104 251.155 241.957V241.967C251.155 243.82 251.764 244.978 252.807 244.978ZM259.302 245.769C257.696 245.769 256.739 244.304 256.739 241.967V241.957C256.739 239.621 257.696 238.161 259.302 238.161C260.908 238.161 261.875 239.621 261.875 241.957V241.967C261.875 244.304 260.908 245.769 259.302 245.769ZM259.302 244.978C260.344 244.978 260.964 243.82 260.964 241.967V241.957C260.964 240.104 260.344 238.956 259.302 238.956C258.26 238.956 257.65 240.104 257.65 241.957V241.967C257.65 243.82 258.26 244.978 259.302 244.978Z" fill="#5B5F66"/>
<path d="M46.278 245.598V238.332H47.3304L49.8178 244.394H49.8983L52.3857 238.332H53.438V245.598H52.5921V240.049H52.5367L50.2407 245.598H49.4754L47.1793 240.049H47.1239V245.598H46.278ZM55.6434 239.122C55.3111 239.122 55.0392 238.851 55.0392 238.518C55.0392 238.186 55.3111 237.914 55.6434 237.914C55.9758 237.914 56.2477 238.186 56.2477 238.518C56.2477 238.851 55.9758 239.122 55.6434 239.122ZM55.2003 245.598V240.17H56.0765V245.598H55.2003ZM57.7784 245.598V238.015H58.6545V245.598H57.7784ZM62.5517 245.693C61.0009 245.693 60.0643 244.606 60.0643 242.904V242.899C60.0643 241.222 61.021 240.074 62.4963 240.074C63.9716 240.074 64.8679 241.172 64.8679 242.793V243.135H60.9606C60.9858 244.258 61.6051 244.913 62.5718 244.913C63.307 244.913 63.7601 244.565 63.9062 244.238L63.9263 244.193H64.8024L64.7923 244.233C64.606 244.968 63.8306 245.693 62.5517 245.693ZM62.4913 240.855C61.6856 240.855 61.0714 241.403 60.9757 242.436H63.9766C63.886 241.363 63.2919 240.855 62.4913 240.855ZM68.0904 245.693C66.8819 245.693 66.0511 245.109 65.9504 244.213H66.8467C66.9927 244.666 67.4257 244.963 68.1206 244.963C68.8507 244.963 69.3693 244.616 69.3693 244.122V244.112C69.3693 243.745 69.0924 243.488 68.4227 243.327L67.5818 243.125C66.5647 242.884 66.1065 242.441 66.1065 241.66V241.655C66.1065 240.754 66.9726 240.074 68.1256 240.074C69.2636 240.074 70.0541 240.643 70.1749 241.529H69.3139C69.1981 241.101 68.7752 240.804 68.1206 240.804C67.4761 240.804 67.0028 241.136 67.0028 241.615V241.625C67.0028 241.992 67.2747 242.224 67.9141 242.38L68.75 242.582C69.7721 242.828 70.2656 243.271 70.2656 244.047V244.057C70.2656 245.024 69.324 245.693 68.0904 245.693ZM73.5032 245.638C72.3854 245.638 71.9171 245.225 71.9171 244.188V240.895H71.0611V240.17H71.9171V238.765H72.8234V240.17H74.0117V240.895H72.8234V243.966C72.8234 244.606 73.045 244.863 73.6089 244.863C73.765 244.863 73.8506 244.857 74.0117 244.842V245.588C73.8405 245.618 73.6744 245.638 73.5032 245.638ZM77.4709 245.693C75.9251 245.693 74.9684 244.626 74.9684 242.889V242.879C74.9684 241.136 75.9251 240.074 77.4709 240.074C79.0167 240.074 79.9734 241.136 79.9734 242.879V242.889C79.9734 244.626 79.0167 245.693 77.4709 245.693ZM77.4709 244.918C78.4981 244.918 79.0771 244.168 79.0771 242.889V242.879C79.0771 241.595 78.4981 240.849 77.4709 240.849C76.4437 240.849 75.8647 241.595 75.8647 242.879V242.889C75.8647 244.168 76.4437 244.918 77.4709 244.918ZM81.3329 245.598V240.17H82.209V240.985H82.2895C82.5614 240.411 83.07 240.074 83.8706 240.074C85.0891 240.074 85.7688 240.794 85.7688 242.083V245.598H84.8927V242.295C84.8927 241.318 84.4899 240.849 83.6239 240.849C82.7578 240.849 82.209 241.434 82.209 242.385V245.598H81.3329ZM89.5704 245.693C88.0196 245.693 87.083 244.606 87.083 242.904V242.899C87.083 241.222 88.0397 240.074 89.515 240.074C90.9903 240.074 91.8866 241.172 91.8866 242.793V243.135H87.9793C88.0045 244.258 88.6238 244.913 89.5905 244.913C90.3257 244.913 90.7788 244.565 90.9249 244.238L90.945 244.193H91.8211L91.811 244.233C91.6247 244.968 90.8493 245.693 89.5704 245.693ZM89.51 240.855C88.7043 240.855 88.0901 241.403 87.9944 242.436H90.9953C90.9047 241.363 90.3106 240.855 89.51 240.855ZM96.9671 245.598H96.2521L96.6649 243.568H95.4817L95.6227 242.843H96.816L97.1886 241.011H95.9399L96.0859 240.291H97.3346L97.7374 238.332H98.4524L98.0496 240.291H99.7062L100.109 238.332H100.829L100.426 240.291H101.68L101.539 241.011H100.28L99.9026 242.843H101.212L101.071 243.568H99.7565L99.3386 245.598H98.6186L99.0365 243.568H97.3799L96.9671 245.598ZM97.531 242.843H99.1876L99.5602 241.011H97.9036L97.531 242.843ZM105.013 238.161C106.343 238.161 107.747 239.097 107.747 241.831V241.841C107.747 244.319 106.715 245.769 104.953 245.769C103.734 245.769 102.828 245.054 102.581 243.981L102.566 243.916H103.478L103.498 243.971C103.719 244.581 104.228 244.958 104.963 244.958C106.282 244.958 106.821 243.669 106.876 242.154C106.881 242.098 106.881 242.038 106.881 241.982H106.786C106.519 242.577 105.834 243.105 104.852 243.105C103.488 243.105 102.47 242.068 102.47 240.673V240.663C102.47 239.213 103.548 238.161 105.013 238.161ZM105.008 242.315C105.95 242.315 106.665 241.625 106.665 240.678V240.673C106.665 239.717 105.945 238.961 105.023 238.961C104.112 238.961 103.382 239.701 103.382 240.643V240.653C103.382 241.62 104.067 242.315 105.008 242.315Z" fill="#5B5F66"/>
<path d="M114.594 245.121H206.665" stroke="#ABB1BA" stroke-width="0.736573" stroke-linejoin="round" stroke-dasharray="2.95 2.95"/>
<path d="M37.168 180.27L40.2851 171.814H41.3281L44.4453 180.27H43.3379L42.4883 177.85H39.125L38.2754 180.27H37.168ZM40.7598 173.18L39.4355 176.953H42.1777L40.8535 173.18H40.7598ZM49.1738 182.379V173.953H50.1933V174.961H50.2871C50.6738 174.258 51.3769 173.842 52.2558 173.842C53.8555 173.842 54.9043 175.137 54.9043 177.105V177.117C54.9043 179.098 53.8613 180.381 52.2558 180.381C51.3887 180.381 50.6328 179.947 50.2871 179.273H50.1933V182.379H49.1738ZM52.0215 179.479C53.1758 179.479 53.8613 178.588 53.8613 177.117V177.105C53.8613 175.635 53.1758 174.744 52.0215 174.744C50.873 174.744 50.1699 175.646 50.1699 177.105V177.117C50.1699 178.576 50.873 179.479 52.0215 179.479ZM58.2324 180.381C57.0312 180.381 56.123 179.654 56.123 178.506V178.494C56.123 177.369 56.9551 176.719 58.4258 176.631L60.2363 176.52V175.945C60.2363 175.166 59.7617 174.744 58.8183 174.744C58.0625 174.744 57.5644 175.025 57.4004 175.518L57.3945 175.535H56.375L56.3808 175.5C56.5449 174.51 57.5058 173.842 58.8535 173.842C60.3945 173.842 61.2558 174.633 61.2558 175.945V180.27H60.2363V179.338H60.1426C59.7441 180.012 59.082 180.381 58.2324 180.381ZM57.166 178.482C57.166 179.121 57.7109 179.496 58.4433 179.496C59.4805 179.496 60.2363 178.816 60.2363 177.914V177.34L58.5488 177.445C57.5879 177.504 57.166 177.844 57.166 178.471V178.482ZM63.4238 182.484C63.289 182.484 63.1133 182.473 62.9726 182.449V181.611C63.0957 181.635 63.2539 181.641 63.3945 181.641C63.9746 181.641 64.3262 181.377 64.5547 180.65L64.6719 180.275L62.334 173.953H63.4238L65.1582 179.15H65.2519L66.9805 173.953H68.0527L65.5859 180.656C65.0644 182.074 64.543 182.484 63.4238 182.484ZM69.4004 180.27V173.953H70.4199V174.914H70.5137C70.7949 174.234 71.3926 173.842 72.2187 173.842C73.0742 173.842 73.6719 174.293 73.9648 174.949H74.0586C74.3984 174.281 75.1191 173.842 75.9922 173.842C77.2812 173.842 78.0019 174.58 78.0019 175.904V180.27H76.9824V176.139C76.9824 175.207 76.5547 174.744 75.664 174.744C74.7851 174.744 74.2051 175.406 74.2051 176.209V180.27H73.1855V175.98C73.1855 175.23 72.6699 174.744 71.873 174.744C71.0469 174.744 70.4199 175.465 70.4199 176.355V180.27H69.4004ZM82.4199 180.381C80.6152 180.381 79.5254 179.115 79.5254 177.135V177.129C79.5254 175.178 80.6387 173.842 82.3555 173.842C84.0723 173.842 85.1152 175.119 85.1152 177.006V177.404H80.5683C80.5976 178.711 81.3183 179.473 82.4433 179.473C83.2988 179.473 83.8262 179.068 83.9961 178.688L84.0195 178.635H85.039L85.0273 178.682C84.8105 179.537 83.9082 180.381 82.4199 180.381ZM82.3496 174.75C81.4121 174.75 80.6973 175.389 80.5859 176.59H84.0781C83.9726 175.342 83.2812 174.75 82.3496 174.75ZM86.6973 180.27V173.953H87.7168V174.902H87.8105C88.1269 174.234 88.7187 173.842 89.6504 173.842C91.0683 173.842 91.8594 174.68 91.8594 176.18V180.27H90.8398V176.426C90.8398 175.289 90.3711 174.744 89.3633 174.744C88.3555 174.744 87.7168 175.424 87.7168 176.531V180.27H86.6973ZM95.9492 180.316C94.6484 180.316 94.1035 179.836 94.1035 178.629V174.797H93.1074V173.953H94.1035V172.318H95.1582V173.953H96.541V174.797H95.1582V178.371C95.1582 179.115 95.416 179.414 96.0723 179.414C96.2539 179.414 96.3535 179.408 96.541 179.391V180.258C96.3418 180.293 96.1484 180.316 95.9492 180.316ZM102.658 180.27L100.889 173.953H101.908L103.15 179.004H103.244L104.656 173.953H105.623L107.035 179.004H107.129L108.371 173.953H109.385L107.615 180.27H106.59L105.178 175.383H105.084L103.678 180.27H102.658ZM111.271 172.734C110.885 172.734 110.568 172.418 110.568 172.031C110.568 171.645 110.885 171.328 111.271 171.328C111.658 171.328 111.975 171.645 111.975 172.031C111.975 172.418 111.658 172.734 111.271 172.734ZM110.756 180.27V173.953H111.775V180.27H110.756ZM113.756 180.27V171.445H114.775V180.27H113.756ZM116.791 180.27V171.445H117.811V180.27H116.791ZM124.877 180.381C123.676 180.381 122.768 179.654 122.768 178.506V178.494C122.768 177.369 123.6 176.719 125.07 176.631L126.881 176.52V175.945C126.881 175.166 126.406 174.744 125.463 174.744C124.707 174.744 124.209 175.025 124.045 175.518L124.039 175.535H123.02L123.025 175.5C123.189 174.51 124.15 173.842 125.498 173.842C127.039 173.842 127.9 174.633 127.9 175.945V180.27H126.881V179.338H126.787C126.389 180.012 125.727 180.381 124.877 180.381ZM123.811 178.482C123.811 179.121 124.355 179.496 125.088 179.496C126.125 179.496 126.881 178.816 126.881 177.914V177.34L125.193 177.445C124.232 177.504 123.811 177.844 123.811 178.471V178.482ZM129.764 182.379V173.953H130.783V174.961H130.877C131.264 174.258 131.967 173.842 132.846 173.842C134.445 173.842 135.494 175.137 135.494 177.105V177.117C135.494 179.098 134.451 180.381 132.846 180.381C131.979 180.381 131.223 179.947 130.877 179.273H130.783V182.379H129.764ZM132.611 179.479C133.766 179.479 134.451 178.588 134.451 177.117V177.105C134.451 175.635 133.766 174.744 132.611 174.744C131.463 174.744 130.76 175.646 130.76 177.105V177.117C130.76 178.576 131.463 179.479 132.611 179.479ZM137.088 182.379V173.953H138.107V174.961H138.201C138.588 174.258 139.291 173.842 140.17 173.842C141.77 173.842 142.818 175.137 142.818 177.105V177.117C142.818 179.098 141.775 180.381 140.17 180.381C139.303 180.381 138.547 179.947 138.201 179.273H138.107V182.379H137.088ZM139.936 179.479C141.09 179.479 141.775 178.588 141.775 177.117V177.105C141.775 175.635 141.09 174.744 139.936 174.744C138.787 174.744 138.084 175.646 138.084 177.105V177.117C138.084 178.576 138.787 179.479 139.936 179.479ZM146.99 180.381C145.186 180.381 144.096 179.115 144.096 177.135V177.129C144.096 175.178 145.209 173.842 146.926 173.842C148.643 173.842 149.686 175.119 149.686 177.006V177.404H145.139C145.168 178.711 145.889 179.473 147.014 179.473C147.869 179.473 148.396 179.068 148.566 178.688L148.59 178.635H149.609L149.598 178.682C149.381 179.537 148.479 180.381 146.99 180.381ZM146.92 174.75C145.982 174.75 145.268 175.389 145.156 176.59H148.648C148.543 175.342 147.852 174.75 146.92 174.75ZM153.002 180.381C151.801 180.381 150.893 179.654 150.893 178.506V178.494C150.893 177.369 151.725 176.719 153.195 176.631L155.006 176.52V175.945C155.006 175.166 154.531 174.744 153.588 174.744C152.832 174.744 152.334 175.025 152.17 175.518L152.164 175.535H151.145L151.15 175.5C151.314 174.51 152.275 173.842 153.623 173.842C155.164 173.842 156.025 174.633 156.025 175.945V180.27H155.006V179.338H154.912C154.514 180.012 153.852 180.381 153.002 180.381ZM151.936 178.482C151.936 179.121 152.48 179.496 153.213 179.496C154.25 179.496 155.006 178.816 155.006 177.914V177.34L153.318 177.445C152.357 177.504 151.936 177.844 151.936 178.471V178.482ZM157.889 180.27V173.953H158.908V174.891H159.002C159.242 174.229 159.834 173.842 160.689 173.842C160.883 173.842 161.1 173.865 161.199 173.883V174.873C160.988 174.838 160.795 174.814 160.572 174.814C159.6 174.814 158.908 175.43 158.908 176.355V180.27H157.889ZM168.43 180.381C166.631 180.381 165.518 179.139 165.518 177.117V177.105C165.518 175.078 166.631 173.842 168.43 173.842C170.229 173.842 171.342 175.078 171.342 177.105V177.117C171.342 179.139 170.229 180.381 168.43 180.381ZM168.43 179.479C169.625 179.479 170.299 178.605 170.299 177.117V177.105C170.299 175.611 169.625 174.744 168.43 174.744C167.234 174.744 166.561 175.611 166.561 177.105V177.117C166.561 178.605 167.234 179.479 168.43 179.479ZM172.924 180.27V173.953H173.943V174.902H174.037C174.354 174.234 174.945 173.842 175.877 173.842C177.295 173.842 178.086 174.68 178.086 176.18V180.27H177.066V176.426C177.066 175.289 176.598 174.744 175.59 174.744C174.582 174.744 173.943 175.424 173.943 176.531V180.27H172.924ZM183.846 182.484C183.711 182.484 183.535 182.473 183.395 182.449V181.611C183.518 181.635 183.676 181.641 183.816 181.641C184.396 181.641 184.748 181.377 184.977 180.65L185.094 180.275L182.756 173.953H183.846L185.58 179.15H185.674L187.402 173.953H188.475L186.008 180.656C185.486 182.074 184.965 182.484 183.846 182.484ZM192.184 180.381C190.385 180.381 189.271 179.139 189.271 177.117V177.105C189.271 175.078 190.385 173.842 192.184 173.842C193.982 173.842 195.096 175.078 195.096 177.105V177.117C195.096 179.139 193.982 180.381 192.184 180.381ZM192.184 179.479C193.379 179.479 194.053 178.605 194.053 177.117V177.105C194.053 175.611 193.379 174.744 192.184 174.744C190.988 174.744 190.314 175.611 190.314 177.105V177.117C190.314 178.605 190.988 179.479 192.184 179.479ZM198.793 180.381C197.357 180.381 196.619 179.537 196.619 178.043V173.953H197.639V177.797C197.639 178.934 198.049 179.479 199.057 179.479C200.17 179.479 200.762 178.799 200.762 177.691V173.953H201.781V180.27H200.762V179.326H200.668C200.357 180 199.719 180.381 198.793 180.381ZM203.686 180.27V173.953H204.705V174.891H204.799C205.039 174.229 205.631 173.842 206.486 173.842C206.68 173.842 206.896 173.865 206.996 173.883V174.873C206.785 174.838 206.592 174.814 206.369 174.814C205.396 174.814 204.705 175.43 204.705 176.355V180.27H203.686ZM213.799 180.381C212.393 180.381 211.426 179.701 211.309 178.658H212.352C212.521 179.186 213.025 179.531 213.834 179.531C214.684 179.531 215.287 179.127 215.287 178.553V178.541C215.287 178.113 214.965 177.814 214.186 177.627L213.207 177.393C212.023 177.111 211.49 176.596 211.49 175.688V175.682C211.49 174.633 212.498 173.842 213.84 173.842C215.164 173.842 216.084 174.504 216.225 175.535H215.223C215.088 175.037 214.596 174.691 213.834 174.691C213.084 174.691 212.533 175.078 212.533 175.635V175.646C212.533 176.074 212.85 176.344 213.594 176.525L214.566 176.76C215.756 177.047 216.33 177.562 216.33 178.465V178.477C216.33 179.602 215.234 180.381 213.799 180.381ZM220.098 180.316C218.797 180.316 218.252 179.836 218.252 178.629V174.797H217.256V173.953H218.252V172.318H219.307V173.953H220.689V174.797H219.307V178.371C219.307 179.115 219.564 179.414 220.221 179.414C220.402 179.414 220.502 179.408 220.689 179.391V180.258C220.49 180.293 220.297 180.316 220.098 180.316ZM223.947 180.381C222.746 180.381 221.838 179.654 221.838 178.506V178.494C221.838 177.369 222.67 176.719 224.141 176.631L225.951 176.52V175.945C225.951 175.166 225.477 174.744 224.533 174.744C223.777 174.744 223.279 175.025 223.115 175.518L223.109 175.535H222.09L222.096 175.5C222.26 174.51 223.221 173.842 224.568 173.842C226.109 173.842 226.971 174.633 226.971 175.945V180.27H225.951V179.338H225.857C225.459 180.012 224.797 180.381 223.947 180.381ZM222.881 178.482C222.881 179.121 223.426 179.496 224.158 179.496C225.195 179.496 225.951 178.816 225.951 177.914V177.34L224.264 177.445C223.303 177.504 222.881 177.844 222.881 178.471V178.482ZM231.078 180.316C229.777 180.316 229.232 179.836 229.232 178.629V174.797H228.236V173.953H229.232V172.318H230.287V173.953H231.67V174.797H230.287V178.371C230.287 179.115 230.545 179.414 231.201 179.414C231.383 179.414 231.482 179.408 231.67 179.391V180.258C231.471 180.293 231.277 180.316 231.078 180.316ZM235.678 180.381C233.873 180.381 232.783 179.115 232.783 177.135V177.129C232.783 175.178 233.896 173.842 235.613 173.842C237.33 173.842 238.373 175.119 238.373 177.006V177.404H233.826C233.855 178.711 234.576 179.473 235.701 179.473C236.557 179.473 237.084 179.068 237.254 178.688L237.277 178.635H238.297L238.285 178.682C238.068 179.537 237.166 180.381 235.678 180.381ZM235.607 174.75C234.67 174.75 233.955 175.389 233.844 176.59H237.336C237.23 175.342 236.539 174.75 235.607 174.75ZM239.955 180.27V173.953H240.975V174.914H241.068C241.35 174.234 241.947 173.842 242.773 173.842C243.629 173.842 244.227 174.293 244.52 174.949H244.613C244.953 174.281 245.674 173.842 246.547 173.842C247.836 173.842 248.557 174.58 248.557 175.904V180.27H247.537V176.139C247.537 175.207 247.109 174.744 246.219 174.744C245.34 174.744 244.76 175.406 244.76 176.209V180.27H243.74V175.98C243.74 175.23 243.225 174.744 242.428 174.744C241.602 174.744 240.975 175.465 240.975 176.355V180.27H239.955ZM252.975 180.381C251.17 180.381 250.08 179.115 250.08 177.135V177.129C250.08 175.178 251.193 173.842 252.91 173.842C254.627 173.842 255.67 175.119 255.67 177.006V177.404H251.123C251.152 178.711 251.873 179.473 252.998 179.473C253.854 179.473 254.381 179.068 254.551 178.688L254.574 178.635H255.594L255.582 178.682C255.365 179.537 254.463 180.381 252.975 180.381ZM252.904 174.75C251.967 174.75 251.252 175.389 251.141 176.59H254.633C254.527 175.342 253.836 174.75 252.904 174.75ZM257.252 180.27V173.953H258.271V174.902H258.365C258.682 174.234 259.273 173.842 260.205 173.842C261.623 173.842 262.414 174.68 262.414 176.18V180.27H261.395V176.426C261.395 175.289 260.926 174.744 259.918 174.744C258.91 174.744 258.271 175.424 258.271 176.531V180.27H257.252ZM266.504 180.316C265.203 180.316 264.658 179.836 264.658 178.629V174.797H263.662V173.953H264.658V172.318H265.713V173.953H267.096V174.797H265.713V178.371C265.713 179.115 265.971 179.414 266.627 179.414C266.809 179.414 266.908 179.408 267.096 179.391V180.258C266.896 180.293 266.703 180.316 266.504 180.316ZM269.451 180.328C269.035 180.328 268.689 179.982 268.689 179.566C268.689 179.145 269.035 178.805 269.451 178.805C269.873 178.805 270.213 179.145 270.213 179.566C270.213 179.982 269.873 180.328 269.451 180.328Z" fill="#202226"/>
<path d="M72.7719 153.809V141.487H77.9692C78.4406 141.487 78.9238 141.581 79.4187 141.77C79.9137 141.959 80.3616 142.23 80.7623 142.583C81.1747 142.937 81.5047 143.379 81.7522 143.909C81.9997 144.439 82.1234 145.023 82.1234 145.659C82.1234 146.107 82.0409 146.573 81.876 147.056C81.7227 147.527 81.4399 147.993 81.0274 148.452C80.6149 148.912 80.1259 149.26 79.5602 149.495C78.9945 149.719 78.4641 149.831 77.9692 149.831H75.4943V153.809H72.7719ZM75.4943 147.356H77.8101C78.0576 147.356 78.305 147.291 78.5525 147.162C78.8 147.032 79.0004 146.849 79.1536 146.614C79.3186 146.366 79.4011 146.048 79.4011 145.659C79.4011 145.341 79.3363 145.052 79.2066 144.793C79.077 144.522 78.8707 144.316 78.5879 144.174C78.3168 144.033 78.0576 143.962 77.8101 143.962H75.4943V147.356ZM82.5955 149.354C82.5955 148.729 82.7075 148.134 82.9314 147.568C83.1553 147.003 83.4676 146.508 83.8683 146.083C84.269 145.659 84.7404 145.329 85.2825 145.093C85.8246 144.858 86.4021 144.74 87.0149 144.74C87.3331 144.74 87.6808 144.781 88.0579 144.864C88.435 144.946 88.7709 145.099 89.0656 145.323C89.372 145.535 89.5723 145.783 89.6666 146.066V144.899H92.3006V153.809H89.6666V152.642C89.537 153.019 89.2247 153.337 88.7297 153.596C88.2465 153.844 87.6749 153.968 87.0149 153.968C86.4021 153.968 85.8246 153.85 85.2825 153.614C84.7404 153.378 84.269 153.048 83.8683 152.624C83.4676 152.2 83.1553 151.705 82.9314 151.139C82.7075 150.574 82.5955 149.978 82.5955 149.354ZM85.2295 149.354C85.2295 149.978 85.4475 150.509 85.8836 150.945C86.3196 151.369 86.8558 151.581 87.4922 151.581C87.7869 151.581 88.1168 151.51 88.4822 151.369C88.8475 151.216 89.1598 150.957 89.4191 150.591C89.6902 150.214 89.8257 149.802 89.8257 149.354C89.8257 148.906 89.6902 148.499 89.4191 148.134C89.1598 147.757 88.8475 147.498 88.4822 147.356C88.1168 147.203 87.7869 147.126 87.4922 147.126C86.8558 147.126 86.3196 147.344 85.8836 147.78C85.4475 148.205 85.2295 148.729 85.2295 149.354ZM96.9848 153.968L93.2548 144.899H95.9948L98.3636 150.839L100.768 144.899H103.508L98.2576 157.238H95.5529L96.9848 153.968ZM104.546 153.809V144.899H107.18V146.013C107.345 145.624 107.64 145.311 108.064 145.076C108.489 144.828 108.966 144.705 109.496 144.705C110.085 144.705 110.586 144.828 110.999 145.076C111.411 145.311 111.718 145.659 111.918 146.119C112.413 145.176 113.403 144.705 114.888 144.705C115.89 144.705 116.667 145.035 117.221 145.695C117.775 146.343 118.052 147.244 118.052 148.399V153.809H115.418V148.717C115.418 148.34 115.353 148.016 115.224 147.745C115.094 147.474 114.923 147.291 114.711 147.197C114.499 147.091 114.293 147.038 114.092 147.038C113.668 147.038 113.315 147.209 113.032 147.551C112.749 147.881 112.607 148.299 112.607 148.806V153.809H109.973V148.717C109.973 148.34 109.909 148.016 109.779 147.745C109.649 147.474 109.479 147.291 109.266 147.197C109.054 147.091 108.848 147.038 108.648 147.038C108.447 147.038 108.229 147.097 107.994 147.215C107.77 147.321 107.575 147.521 107.41 147.816C107.257 148.099 107.18 148.429 107.18 148.806V153.809H104.546ZM119.349 149.407V149.336C119.349 148.653 119.467 148.022 119.703 147.445C119.95 146.855 120.292 146.354 120.728 145.942C121.164 145.53 121.677 145.217 122.266 145.005C122.855 144.781 123.492 144.669 124.175 144.669C124.835 144.669 125.448 144.787 126.014 145.023C126.591 145.247 127.08 145.571 127.481 145.995C127.894 146.408 128.206 146.891 128.418 147.445C128.642 147.999 128.754 148.582 128.754 149.195L128.719 150.043H121.983C122.007 150.432 122.142 150.768 122.39 151.051C122.637 151.334 122.944 151.528 123.309 151.634C123.686 151.74 124.034 151.793 124.352 151.793C124.682 151.793 125.03 151.74 125.395 151.634C125.76 151.528 126.138 151.292 126.526 150.927L128.064 152.394C127.016 153.479 125.737 154.021 124.228 154.021C123.521 154.021 122.861 153.915 122.248 153.703C121.647 153.479 121.129 153.166 120.693 152.766C120.269 152.353 119.939 151.864 119.703 151.298C119.467 150.721 119.349 150.09 119.349 149.407ZM122.019 148.328H126.102C126.102 148.14 126.037 147.934 125.908 147.71C125.778 147.474 125.548 147.274 125.218 147.109C124.9 146.932 124.552 146.844 124.175 146.844C123.61 146.844 123.115 146.991 122.69 147.286C122.278 147.568 122.054 147.916 122.019 148.328ZM130.062 153.809V144.899H132.696V146.013C132.884 145.624 133.214 145.311 133.686 145.076C134.157 144.828 134.693 144.705 135.294 144.705C136.379 144.705 137.215 145.035 137.805 145.695C138.406 146.343 138.706 147.244 138.706 148.399V153.809H136.072V148.717C136.072 148.34 135.99 148.016 135.825 147.745C135.672 147.474 135.465 147.291 135.206 147.197C134.947 147.091 134.693 147.038 134.446 147.038C133.951 147.038 133.533 147.209 133.191 147.551C132.861 147.881 132.696 148.299 132.696 148.806V153.809H130.062ZM140.969 153.809V147.286H139.784V144.899H140.969V141.487H143.532V144.899H145.494V147.286H143.532V153.809H140.969ZM152.885 152.465L154.405 150.839C154.641 151.122 154.977 151.357 155.413 151.546C155.861 151.723 156.338 151.811 156.845 151.811C157.293 151.811 157.629 151.746 157.853 151.617C158.077 151.487 158.188 151.31 158.188 151.086C158.188 151.016 158.159 150.939 158.1 150.856C158.053 150.762 157.935 150.68 157.747 150.609C157.57 150.526 157.234 150.426 156.739 150.308C156.256 150.179 155.879 150.067 155.608 149.973C154.24 149.501 153.557 148.676 153.557 147.498C153.557 146.932 153.698 146.443 153.981 146.03C154.264 145.606 154.665 145.27 155.183 145.023C155.714 144.763 156.326 144.634 157.022 144.634C158.271 144.634 159.29 145.017 160.08 145.783L158.825 147.515C158.342 147.079 157.717 146.861 156.951 146.861C156.668 146.861 156.45 146.92 156.297 147.038C156.144 147.144 156.067 147.274 156.067 147.427C156.067 147.604 156.132 147.733 156.262 147.816C156.391 147.898 156.704 148.004 157.199 148.134C157.693 148.264 158.13 148.393 158.507 148.523C159.968 149.018 160.699 149.861 160.699 151.051C160.699 151.475 160.616 151.876 160.451 152.253C160.298 152.618 160.062 152.936 159.744 153.208C159.426 153.479 159.013 153.685 158.507 153.826C158 153.979 157.422 154.056 156.774 154.056C156.326 154.056 155.843 154.003 155.325 153.897C154.818 153.791 154.352 153.608 153.928 153.349C153.504 153.09 153.156 152.795 152.885 152.465ZM161.807 150.22V144.899H164.476V149.99C164.476 150.261 164.53 150.532 164.636 150.803C164.742 151.063 164.924 151.269 165.184 151.422C165.455 151.564 165.761 151.634 166.103 151.634C166.445 151.634 166.745 151.564 167.004 151.422C167.275 151.269 167.464 151.063 167.57 150.803C167.676 150.532 167.729 150.261 167.729 149.99V144.899H170.399V150.22C170.399 150.691 170.322 151.157 170.169 151.617C170.016 152.076 169.756 152.489 169.391 152.854C169.037 153.208 168.584 153.496 168.03 153.72C167.476 153.944 166.834 154.056 166.103 154.056C165.525 154.056 164.977 153.974 164.459 153.809C163.94 153.655 163.481 153.42 163.08 153.101C162.691 152.783 162.379 152.383 162.143 151.899C161.919 151.404 161.807 150.845 161.807 150.22ZM171.692 149.336C171.692 148.676 171.816 148.057 172.063 147.48C172.323 146.891 172.676 146.384 173.124 145.96C173.584 145.535 174.114 145.205 174.715 144.97C175.316 144.734 175.946 144.616 176.606 144.616C178.068 144.616 179.305 145.17 180.319 146.278L178.657 147.922C178.374 147.615 178.068 147.386 177.738 147.232C177.42 147.079 177.043 147.003 176.606 147.003C175.97 147.003 175.428 147.227 174.98 147.674C174.544 148.11 174.326 148.664 174.326 149.336C174.326 149.996 174.544 150.55 174.98 150.998C175.428 151.434 175.97 151.652 176.606 151.652C177.043 151.652 177.42 151.575 177.738 151.422C178.068 151.269 178.374 151.039 178.657 150.733L180.319 152.377C179.305 153.485 178.068 154.038 176.606 154.038C176.111 154.038 175.628 153.968 175.157 153.826C174.685 153.697 174.249 153.508 173.849 153.261C173.46 153.013 173.089 152.689 172.735 152.288C172.381 151.876 172.116 151.404 171.94 150.874C171.775 150.332 171.692 149.819 171.692 149.336ZM180.876 149.336C180.876 148.676 181 148.057 181.247 147.48C181.507 146.891 181.86 146.384 182.308 145.96C182.768 145.535 183.298 145.205 183.899 144.97C184.5 144.734 185.131 144.616 185.791 144.616C187.252 144.616 188.489 145.17 189.503 146.278L187.841 147.922C187.558 147.615 187.252 147.386 186.922 147.232C186.604 147.079 186.227 147.003 185.791 147.003C185.154 147.003 184.612 147.227 184.164 147.674C183.728 148.11 183.51 148.664 183.51 149.336C183.51 149.996 183.728 150.55 184.164 150.998C184.612 151.434 185.154 151.652 185.791 151.652C186.227 151.652 186.604 151.575 186.922 151.422C187.252 151.269 187.558 151.039 187.841 150.733L189.503 152.377C188.489 153.485 187.252 154.038 185.791 154.038C185.296 154.038 184.812 153.968 184.341 153.826C183.87 153.697 183.434 153.508 183.033 153.261C182.644 153.013 182.273 152.689 181.919 152.288C181.566 151.876 181.3 151.404 181.124 150.874C180.959 150.332 180.876 149.819 180.876 149.336ZM190.06 149.407V149.336C190.06 148.653 190.178 148.022 190.414 147.445C190.661 146.855 191.003 146.354 191.439 145.942C191.875 145.53 192.388 145.217 192.977 145.005C193.566 144.781 194.203 144.669 194.886 144.669C195.546 144.669 196.159 144.787 196.725 145.023C197.302 145.247 197.791 145.571 198.192 145.995C198.605 146.408 198.917 146.891 199.129 147.445C199.353 147.999 199.465 148.582 199.465 149.195L199.43 150.043H192.694C192.718 150.432 192.853 150.768 193.101 151.051C193.348 151.334 193.655 151.528 194.02 151.634C194.397 151.74 194.745 151.793 195.063 151.793C195.393 151.793 195.741 151.74 196.106 151.634C196.471 151.528 196.849 151.292 197.238 150.927L198.775 152.394C197.727 153.479 196.448 154.021 194.939 154.021C194.232 154.021 193.572 153.915 192.959 153.703C192.358 153.479 191.84 153.166 191.404 152.766C190.98 152.353 190.65 151.864 190.414 151.298C190.178 150.721 190.06 150.09 190.06 149.407ZM192.73 148.328H196.813C196.813 148.14 196.748 147.934 196.619 147.71C196.489 147.474 196.259 147.274 195.929 147.109C195.611 146.932 195.263 146.844 194.886 146.844C194.321 146.844 193.826 146.991 193.401 147.286C192.989 147.568 192.765 147.916 192.73 148.328ZM200.032 152.465L201.552 150.839C201.788 151.122 202.123 151.357 202.559 151.546C203.007 151.723 203.485 151.811 203.991 151.811C204.439 151.811 204.775 151.746 204.999 151.617C205.223 151.487 205.335 151.31 205.335 151.086C205.335 151.016 205.305 150.939 205.246 150.856C205.199 150.762 205.081 150.68 204.893 150.609C204.716 150.526 204.38 150.426 203.885 150.308C203.402 150.179 203.025 150.067 202.754 149.973C201.387 149.501 200.703 148.676 200.703 147.498C200.703 146.932 200.845 146.443 201.128 146.03C201.41 145.606 201.811 145.27 202.33 145.023C202.86 144.763 203.473 144.634 204.168 144.634C205.417 144.634 206.437 145.017 207.226 145.783L205.971 147.515C205.488 147.079 204.863 146.861 204.097 146.861C203.815 146.861 203.597 146.92 203.443 147.038C203.29 147.144 203.214 147.274 203.214 147.427C203.214 147.604 203.278 147.733 203.408 147.816C203.538 147.898 203.85 148.004 204.345 148.134C204.84 148.264 205.276 148.393 205.653 148.523C207.114 149.018 207.845 149.861 207.845 151.051C207.845 151.475 207.763 151.876 207.598 152.253C207.444 152.618 207.209 152.936 206.891 153.208C206.572 153.479 206.16 153.685 205.653 153.826C205.146 153.979 204.569 154.056 203.921 154.056C203.473 154.056 202.99 154.003 202.471 153.897C201.964 153.791 201.499 153.608 201.075 153.349C200.65 153.09 200.303 152.795 200.032 152.465ZM208.404 152.465L209.925 150.839C210.16 151.122 210.496 151.357 210.932 151.546C211.38 151.723 211.857 151.811 212.364 151.811C212.812 151.811 213.148 151.746 213.372 151.617C213.596 151.487 213.708 151.31 213.708 151.086C213.708 151.016 213.678 150.939 213.619 150.856C213.572 150.762 213.454 150.68 213.266 150.609C213.089 150.526 212.753 150.426 212.258 150.308C211.775 150.179 211.398 150.067 211.127 149.973C209.76 149.501 209.076 148.676 209.076 147.498C209.076 146.932 209.218 146.443 209.5 146.03C209.783 145.606 210.184 145.27 210.702 145.023C211.233 144.763 211.846 144.634 212.541 144.634C213.79 144.634 214.81 145.017 215.599 145.783L214.344 147.515C213.861 147.079 213.236 146.861 212.47 146.861C212.187 146.861 211.969 146.92 211.816 147.038C211.663 147.144 211.586 147.274 211.586 147.427C211.586 147.604 211.651 147.733 211.781 147.816C211.91 147.898 212.223 148.004 212.718 148.134C213.213 148.264 213.649 148.393 214.026 148.523C215.487 149.018 216.218 149.861 216.218 151.051C216.218 151.475 216.135 151.876 215.97 152.253C215.817 152.618 215.581 152.936 215.263 153.208C214.945 153.479 214.533 153.685 214.026 153.826C213.519 153.979 212.942 154.056 212.293 154.056C211.846 154.056 211.362 154.003 210.844 153.897C210.337 153.791 209.872 153.608 209.447 153.349C209.023 153.09 208.675 152.795 208.404 152.465ZM218.353 153.809V147.286H216.886V144.899H218.353V144.652C218.353 143.956 218.436 143.396 218.601 142.972C218.778 142.536 219.043 142.177 219.396 141.894C219.644 141.682 219.95 141.523 220.316 141.416C220.693 141.299 221.205 141.24 221.854 141.24C222.207 141.24 222.561 141.269 222.914 141.328V143.52C222.761 143.461 222.496 143.432 222.119 143.432C221.706 143.432 221.4 143.52 221.199 143.697C220.999 143.862 220.899 144.127 220.899 144.492V144.899H222.684V147.286H220.899V153.809H218.353ZM223.904 150.22V144.899H226.573V149.99C226.573 150.261 226.626 150.532 226.732 150.803C226.838 151.063 227.021 151.269 227.28 151.422C227.551 151.564 227.858 151.634 228.199 151.634C228.541 151.634 228.842 151.564 229.101 151.422C229.372 151.269 229.561 151.063 229.667 150.803C229.773 150.532 229.826 150.261 229.826 149.99V144.899H232.495V150.22C232.495 150.691 232.418 151.157 232.265 151.617C232.112 152.076 231.853 152.489 231.487 152.854C231.134 153.208 230.68 153.496 230.126 153.72C229.572 153.944 228.93 154.056 228.199 154.056C227.622 154.056 227.074 153.974 226.555 153.809C226.037 153.655 225.577 153.42 225.176 153.101C224.788 152.783 224.475 152.383 224.24 151.899C224.016 151.404 223.904 150.845 223.904 150.22ZM234.178 153.809V141.487H236.811V153.809H234.178Z" fill="black"/>
<path d="M182.359 84.2676C182.359 99.7259 169.827 112.257 154.369 112.257C138.911 112.257 126.379 99.7259 126.379 84.2676C126.379 68.8093 138.911 56.2778 154.369 56.2778C169.827 56.2778 182.359 68.8093 182.359 84.2676Z" stroke="#18AB41" stroke-width="2.94629"/>
<path d="M144.062 84.2681L151.428 91.6338L166.16 76.9023" stroke="#18AB41" stroke-width="2.94629" stroke-linecap="round" stroke-linejoin="round"/>
</svg>
