<svg width="200" height="56" viewBox="0 0 200 56" fill="none" xmlns="http://www.w3.org/2000/svg">
<path d="M41.4267 7H0V49H41.4267V7Z" fill="#D5FF00"/>
<path d="M35.6711 39.0849H5.75781V43.1651H35.6711V39.0849ZM20.7144 36.7438L23.5672 33.8691L32.2248 25.0911L29.3384 22.1651L22.7259 28.8696V12.25H18.703V28.8696L12.0889 22.1651L9.20252 25.0896L17.8602 33.8691L20.7144 36.7438Z" fill="#191823"/>
<path fill-rule="evenodd" clip-rule="evenodd" d="M136.978 22.0811C136.978 24.1267 138.719 24.7256 142.41 25.5391H142.413C147.531 26.6669 151.71 27.9036 151.71 33.3402C151.71 38.4611 147.637 41.3202 142.031 41.3202C135.277 41.3202 131.446 38.2854 131.273 32.9545H136.218C136.565 35.9894 138.274 37.1918 141.824 37.1918C144.403 37.1918 146.667 36.274 146.667 33.9438C146.667 31.5259 144.403 30.9998 140.749 30.151L140.502 30.0938C136.044 29.0702 131.97 27.8725 131.97 22.6116C131.97 17.6338 136.01 15.0547 141.509 15.0547C147.01 15.0547 150.598 17.7411 151.092 22.6458H146.232C145.842 20.2938 143.952 19.1147 141.471 19.1147C138.753 19.1147 136.978 20.2814 136.978 22.0811ZM54.0469 15.5105H64.5248C71.1756 15.5105 75.457 20.9487 75.457 28.3982C75.457 32.494 74.0971 36.0936 71.4861 38.3196C69.6383 39.8736 67.2383 40.7556 64.1041 40.7556H54.0469V15.5105ZM76.208 31.7178C76.208 26.3185 80.0061 22.1511 85.5387 22.1511C91.0728 22.1511 94.8694 26.3138 94.8694 31.7178C94.8694 37.1218 91.0728 41.286 85.5387 41.286C80.0061 41.286 76.208 37.1218 76.208 31.7194V31.7178ZM104.763 22.1511C99.3297 22.1511 95.8468 26.3185 95.8468 31.7178L95.8437 31.7147C95.8437 37.1171 99.3603 41.2814 105 41.2814C109.771 41.2814 112.731 38.2107 113.044 34.3622H108.483C108.172 36.4078 106.814 37.4314 104.899 37.4314C102.01 37.4314 100.651 35.2054 100.651 31.7147C100.651 28.2209 102.117 25.9949 104.971 25.9949C106.712 25.9949 107.931 27.1974 108.246 28.7856H112.875C112.25 24.8671 109.392 22.1511 104.763 22.1511ZM125.57 40.7478V38.6338H125.463C124.244 40.292 122.851 41.2471 120.345 41.2471C116.374 41.2471 114.15 38.668 114.15 34.7138V22.6411H118.851V33.9018C118.851 36.0205 119.79 37.1825 121.811 37.1825C124.041 37.1825 125.396 35.4869 125.396 33.0867V22.6365H130.132V40.7478H125.57ZM157.937 15.6225H153.201V20.1134H157.937V15.6225ZM153.201 22.6458H157.937V40.7571H153.201V22.6458ZM168.19 43.2927C166 43.2927 164.989 42.4107 164.606 41.2829V41.2814H159.897C160.385 44.8125 163.378 46.9311 168.254 46.9311C170.901 46.9311 173.198 46.2934 174.697 44.8809C176.019 43.6458 176.82 41.9145 176.82 39.3742V22.6411H172.259V24.5482H172.192C171.113 23.0285 169.478 22.1465 167.248 22.1465C162.72 22.1465 159.517 25.5345 159.517 31.0085C159.517 36.4809 163.416 39.6589 167.389 39.6589C169.651 39.6589 171.011 38.7411 172.056 37.5402H172.163V39.5158C172.163 41.9876 170.87 43.2927 168.19 43.2927ZM183.489 25.1129H183.595C184.814 23.1716 186.449 22.1465 188.887 22.1465C192.578 22.1465 195.05 24.9714 195.05 28.924V40.7525H190.315V29.6302C190.315 27.6874 189.201 26.3107 187.214 26.3107C185.125 26.3107 183.592 28.0062 183.592 30.4734V40.7478H178.856V22.6365H183.485V25.1098L183.489 25.1129ZM196.97 25.9871C195.93 25.9871 195.089 25.13 195.089 24.08C195.089 23.5726 195.287 23.0859 195.64 22.7271C195.992 22.3683 196.471 22.1667 196.97 22.1667C197.469 22.1667 197.947 22.3683 198.3 22.7271C198.653 23.0859 198.851 23.5726 198.851 24.08C198.85 24.5864 198.651 25.0715 198.298 25.4289C197.946 25.7864 197.468 25.9871 196.97 25.9871ZM63.753 36.3375C68.4887 36.3375 70.3365 33.4084 70.3365 28.3917C70.3365 23.375 68.1797 19.8828 63.8937 19.8828H59.0938V36.3359H63.7576L63.753 36.3375ZM90.0632 31.7149C90.0632 28.1838 88.428 25.7852 85.5355 25.7852C82.6445 25.7852 81.0078 28.1838 81.0078 31.7149C81.0078 35.246 82.6093 37.6105 85.5355 37.6105C88.4632 37.6105 90.0632 35.246 90.0632 31.7149ZM172.401 30.9012C172.4 33.5835 171.181 35.8066 168.187 35.8066C165.75 35.8066 164.148 33.9741 164.148 30.9377C164.148 27.9028 165.75 25.9941 168.153 25.9941C171.006 25.9941 172.4 28.2546 172.401 30.9012Z" fill="white"/>
<path d="M196.328 23.0996H196.945C197.198 23.0996 197.373 23.0996 197.543 23.2396C197.612 23.2979 197.668 23.3718 197.704 23.4554C197.741 23.5391 197.759 23.6302 197.755 23.7218C197.755 24.0983 197.483 24.2274 197.377 24.2616L197.806 25.0549H197.394L197.012 24.3301H196.689V25.0534H196.333V23.1027L196.328 23.0996ZM196.685 23.4138V24.0252H196.811C196.935 24.0252 196.983 24.0252 197.05 24.0205C197.131 24.0205 197.39 24.0034 197.39 23.7187C197.39 23.6752 197.39 23.5336 197.237 23.4558C197.16 23.4169 197.067 23.4138 196.854 23.4138H196.685Z" fill="#191823"/>
</svg>
