<svg width="195" height="315" viewBox="0 0 195 315" fill="none" xmlns="http://www.w3.org/2000/svg">
<rect x="5.2" y="5.2" width="298.6" height="304.6" rx="24.8" fill="white"/>
<rect x="5.2" y="5.2" width="298.6" height="304.6" rx="24.8" stroke="#6160F6" stroke-width="9.6"/>
<rect x="27.6797" y="245.703" width="252.644" height="41.2481" rx="5.89258" fill="#202226"/>
<path d="M148.771 270.703L148.012 268.499H144.847L144.081 270.703H142.758L145.756 262.399H147.143L150.141 270.703H148.771ZM146.383 263.907L145.175 267.417H147.684L146.481 263.907H146.383ZM153.392 270.807C151.798 270.807 150.791 269.552 150.791 267.567C150.791 265.587 151.809 264.333 153.392 264.333C154.249 264.333 154.974 264.741 155.314 265.432H155.406V261.991H156.643V270.703H155.458V269.713H155.36C154.986 270.398 154.255 270.807 153.392 270.807ZM153.743 265.444C152.701 265.444 152.068 266.249 152.068 267.567C152.068 268.896 152.696 269.696 153.743 269.696C154.785 269.696 155.429 268.885 155.429 267.573C155.429 266.266 154.779 265.444 153.743 265.444ZM160.792 270.807C159.198 270.807 158.191 269.552 158.191 267.567C158.191 265.587 159.21 264.333 160.792 264.333C161.65 264.333 162.375 264.741 162.714 265.432H162.806V261.991H164.043V270.703H162.858V269.713H162.76C162.386 270.398 161.655 270.807 160.792 270.807ZM161.143 265.444C160.102 265.444 159.469 266.249 159.469 267.567C159.469 268.896 160.096 269.696 161.143 269.696C162.185 269.696 162.829 268.885 162.829 267.573C162.829 266.266 162.179 265.444 161.143 265.444Z" fill="white"/>
<path d="M27.6797 192.67C27.6797 189.416 30.3179 186.777 33.5723 186.777H274.432C277.686 186.777 280.324 189.416 280.324 192.67V222.133C280.324 225.387 277.686 228.025 274.432 228.025H33.5723C30.3179 228.025 27.6797 225.387 27.6797 222.133V192.67Z" fill="white"/>
<path d="M27.6797 192.67C27.6797 189.416 30.3179 186.777 33.5723 186.777H274.432C277.686 186.777 280.324 189.416 280.324 192.67V222.133C280.324 225.387 277.686 228.025 274.432 228.025H33.5723C30.3179 228.025 27.6797 225.387 27.6797 222.133V192.67Z" stroke="#D8DCE6" stroke-width="0.736573"/>
<path d="M45.5685 216.525V217.457H40.5276V209.153H41.5634V216.525H45.5685ZM49.2859 212.019C48.2961 212.019 47.6056 212.744 47.5308 213.843H50.9489C50.9259 212.744 50.2699 212.019 49.2859 212.019ZM50.9202 215.852H51.9099C51.6107 216.916 50.6554 217.566 49.2974 217.566C47.5768 217.566 46.5007 216.323 46.5007 214.361C46.5007 212.41 47.5941 211.144 49.2974 211.144C50.9719 211.144 51.9905 212.336 51.9905 214.263V214.643H47.5308V214.689C47.5826 215.915 48.2673 216.692 49.3204 216.692C50.1203 216.692 50.6612 216.398 50.9202 215.852ZM53.4003 212.951C53.4003 211.921 54.3959 211.144 55.7136 211.144C57.0141 211.144 57.9176 211.789 58.0499 212.807H57.0717C56.9393 212.313 56.456 211.985 55.7079 211.985C54.9713 211.985 54.3959 212.359 54.3959 212.911C54.3959 213.337 54.7411 213.602 55.4719 213.78L56.4272 214.01C57.5953 214.292 58.1593 214.798 58.1593 215.69C58.1593 216.801 57.0832 217.566 55.6734 217.566C54.2923 217.566 53.3428 216.905 53.2335 215.875H54.252C54.4189 216.398 54.9138 216.732 55.7079 216.732C56.5423 216.732 57.1407 216.335 57.1407 215.765C57.1407 215.339 56.8185 215.052 56.1567 214.891L55.0921 214.632C53.9297 214.35 53.4003 213.849 53.4003 212.951ZM59.7705 217.457V208.791H60.7603V217.457H59.7705ZM62.7053 217.457V211.254H63.6951V217.457H62.7053ZM63.2002 209.993C62.8204 209.993 62.5097 209.683 62.5097 209.303C62.5097 208.923 62.8204 208.612 63.2002 208.612C63.58 208.612 63.8907 208.923 63.8907 209.303C63.8907 209.683 63.58 209.993 63.2002 209.993ZM68.057 212.019C67.0672 212.019 66.3767 212.744 66.3019 213.843H69.72C69.697 212.744 69.041 212.019 68.057 212.019ZM69.6913 215.852H70.681C70.3818 216.916 69.4265 217.566 68.0685 217.566C66.3479 217.566 65.2718 216.323 65.2718 214.361C65.2718 212.41 66.3652 211.144 68.0685 211.144C69.743 211.144 70.7616 212.336 70.7616 214.263V214.643H66.3019V214.689C66.3537 215.915 67.0384 216.692 68.0915 216.692C68.8914 216.692 69.4323 216.398 69.6913 215.852ZM81.1657 217.457L80.3313 215.08H77.0282L76.1938 217.457H75.1062L78.1676 209.153H79.1919L82.2533 217.457H81.1657ZM78.6337 210.494L77.3332 214.2H80.0263L78.7258 210.494H78.6337ZM83.6401 217.457V208.791H84.6299V217.457H83.6401ZM89.0263 212.019C88.0365 212.019 87.346 212.744 87.2712 213.843H90.6893C90.6663 212.744 90.0103 212.019 89.0263 212.019ZM90.6606 215.852H91.6503C91.3511 216.916 90.3959 217.566 89.0378 217.566C87.3172 217.566 86.2411 216.323 86.2411 214.361C86.2411 212.41 87.3345 211.144 89.0378 211.144C90.7124 211.144 91.7309 212.336 91.7309 214.263V214.643H87.2712V214.689C87.323 215.915 88.0077 216.692 89.0608 216.692C89.8607 216.692 90.4016 216.398 90.6606 215.852ZM95.2526 215.115H95.1606L93.6874 217.457H92.5653L94.6887 214.355L92.5423 211.254H93.7219L95.1951 213.561H95.2872L96.743 211.254H97.8652L95.759 214.315L97.8939 217.457H96.72L95.2526 215.115ZM101.157 216.697C102.175 216.697 102.929 216.03 102.929 215.144V214.574L101.26 214.683C100.317 214.747 99.9022 215.075 99.9022 215.696C99.9022 216.329 100.437 216.697 101.157 216.697ZM100.973 217.566C99.7699 217.566 98.8779 216.853 98.8779 215.719C98.8779 214.609 99.6951 213.97 101.139 213.884L102.929 213.774V213.21C102.929 212.445 102.451 212.025 101.525 212.025C100.783 212.025 100.265 212.307 100.127 212.796H99.1254C99.2577 211.8 100.236 211.144 101.56 211.144C103.073 211.144 103.919 211.921 103.919 213.21V217.457H102.975V216.542H102.883C102.48 217.204 101.801 217.566 100.973 217.566ZM105.749 217.457V211.254H106.693V212.232H106.785C107.095 211.547 107.7 211.144 108.649 211.144C110.042 211.144 110.818 211.967 110.818 213.44V217.457H109.829V213.682C109.829 212.566 109.357 212.036 108.367 212.036C107.377 212.036 106.739 212.698 106.739 213.786V217.457H105.749ZM114.927 217.566C113.339 217.566 112.32 216.306 112.32 214.355C112.32 212.41 113.35 211.144 114.927 211.144C115.79 211.144 116.521 211.553 116.872 212.232H116.959V208.791H117.948V217.457H117.005V216.467H116.912C116.521 217.158 115.785 217.566 114.927 217.566ZM115.157 212.036C114.029 212.036 113.345 212.911 113.345 214.355C113.345 215.805 114.024 216.674 115.157 216.674C116.285 216.674 116.982 215.788 116.982 214.355C116.982 212.934 116.279 212.036 115.157 212.036ZM122.345 212.019C121.355 212.019 120.664 212.744 120.59 213.843H124.008C123.985 212.744 123.329 212.019 122.345 212.019ZM123.979 215.852H124.969C124.67 216.916 123.714 217.566 122.356 217.566C120.636 217.566 119.56 216.323 119.56 214.361C119.56 212.41 120.653 211.144 122.356 211.144C124.031 211.144 125.049 212.336 125.049 214.263V214.643H120.59V214.689C120.641 215.915 121.326 216.692 122.379 216.692C123.179 216.692 123.72 216.398 123.979 215.852ZM126.603 217.457V211.254H127.547V212.174H127.639C127.823 211.57 128.537 211.144 129.359 211.144C129.521 211.144 129.728 211.156 129.854 211.173V212.163C129.774 212.14 129.417 212.105 129.221 212.105C128.278 212.105 127.593 212.738 127.593 213.613V217.457H126.603Z" fill="#202226"/>
<path d="M41.1908 202.145H40.2499V195.917H41.1217L44.3198 200.341H44.3888V195.917H45.3297V202.145H44.4579L41.2598 197.721H41.1908V202.145ZM48.3249 201.441C49.0241 201.441 49.542 200.997 49.542 200.414V200.021L48.3939 200.094C47.7466 200.138 47.4531 200.358 47.4531 200.772C47.4531 201.195 47.8199 201.441 48.3249 201.441ZM48.0875 202.222C47.1812 202.222 46.5209 201.674 46.5209 200.815C46.5209 199.969 47.151 199.482 48.2688 199.413L49.542 199.339V198.934C49.542 198.437 49.214 198.157 48.5795 198.157C48.0616 198.157 47.7034 198.347 47.5998 198.679H46.7021C46.7971 197.872 47.5567 197.354 48.6227 197.354C49.8009 197.354 50.4656 197.941 50.4656 198.934V202.145H49.5722V201.484H49.4988C49.2183 201.955 48.7047 202.222 48.0875 202.222ZM51.7862 202.145V197.445H52.6796V198.2H52.7486C52.9558 197.669 53.4305 197.354 54.0563 197.354C54.6994 197.354 55.1439 197.686 55.3511 198.2H55.4245C55.6618 197.686 56.2013 197.354 56.853 197.354C57.8025 197.354 58.3549 197.928 58.3549 198.908V202.145H57.427V199.149C57.427 198.515 57.1249 198.204 56.5164 198.204C55.9165 198.204 55.5237 198.636 55.5237 199.188V202.145H54.6131V199.059C54.6131 198.528 54.2592 198.204 53.7068 198.204C53.1414 198.204 52.7141 198.666 52.7141 199.27V202.145H51.7862ZM61.5875 198.144C60.9013 198.144 60.4222 198.627 60.3704 199.361H62.7442C62.7226 198.623 62.2737 198.144 61.5875 198.144ZM62.7398 200.876H63.6332C63.4218 201.717 62.6708 202.235 61.5961 202.235C60.2496 202.235 59.4253 201.312 59.4253 199.81C59.4253 198.308 60.2669 197.354 61.5918 197.354C62.8995 197.354 63.6893 198.247 63.6893 199.723V200.047H60.3704V200.099C60.4007 200.923 60.8797 201.445 61.622 201.445C62.1831 201.445 62.5672 201.243 62.7398 200.876ZM69.205 202.235C67.8282 202.235 66.9866 201.316 66.9866 199.792C66.9866 198.278 67.8326 197.354 69.205 197.354C70.5731 197.354 71.419 198.278 71.419 199.792C71.419 201.316 70.5774 202.235 69.205 202.235ZM69.205 201.411C70.0077 201.411 70.4652 200.815 70.4652 199.792C70.4652 198.774 70.0077 198.178 69.205 198.178C68.3979 198.178 67.9448 198.774 67.9448 199.792C67.9448 200.82 68.3979 201.411 69.205 201.411ZM72.5368 202.145V197.445H73.4302V198.191H73.4993C73.728 197.669 74.1941 197.354 74.9019 197.354C75.9507 197.354 76.529 197.984 76.529 199.102V202.145H75.6011V199.335C75.6011 198.58 75.2731 198.204 74.5869 198.204C73.9007 198.204 73.4648 198.662 73.4648 199.395V202.145H72.5368ZM84.2328 198.981H83.3308C83.2229 198.524 82.8431 198.183 82.2216 198.183C81.4448 198.183 80.97 198.778 80.97 199.779C80.97 200.798 81.4491 201.407 82.2216 201.407C82.8086 201.407 83.21 201.139 83.3308 200.634H84.2328C84.112 201.579 83.3869 202.235 82.2259 202.235C80.8578 202.235 80.0205 201.312 80.0205 199.779C80.0205 198.273 80.8535 197.354 82.2216 197.354C83.3999 197.354 84.112 198.04 84.2328 198.981ZM86.831 201.441C87.5301 201.441 88.048 200.997 88.048 200.414V200.021L86.9 200.094C86.2526 200.138 85.9592 200.358 85.9592 200.772C85.9592 201.195 86.326 201.441 86.831 201.441ZM86.5936 202.222C85.6873 202.222 85.0269 201.674 85.0269 200.815C85.0269 199.969 85.657 199.482 86.7749 199.413L88.048 199.339V198.934C88.048 198.437 87.72 198.157 87.0856 198.157C86.5677 198.157 86.2095 198.347 86.1059 198.679H85.2082C85.3031 197.872 86.0627 197.354 87.1288 197.354C88.307 197.354 88.9716 197.941 88.9716 198.934V202.145H88.0782V201.484H88.0049C87.7243 201.955 87.2108 202.222 86.5936 202.222ZM90.2923 202.145V197.445H91.1857V198.165H91.2547C91.3885 197.704 91.9107 197.367 92.5236 197.367C92.6617 197.367 92.8386 197.38 92.9379 197.406V198.321C92.8602 198.295 92.584 198.265 92.42 198.265C91.7165 198.265 91.2202 198.709 91.2202 199.369V202.145H90.2923ZM95.4281 202.222C94.2327 202.222 93.4774 201.281 93.4774 199.792C93.4774 198.308 94.2413 197.367 95.4281 197.367C96.0712 197.367 96.615 197.673 96.8696 198.191H96.9387V195.61H97.8666V202.145H96.9775V201.402H96.9042C96.6236 201.916 96.0755 202.222 95.4281 202.222ZM95.6914 198.2C94.9102 198.2 94.4355 198.804 94.4355 199.792C94.4355 200.789 94.9059 201.389 95.6914 201.389C96.4726 201.389 96.956 200.781 96.956 199.797C96.956 198.817 96.4683 198.2 95.6914 198.2Z" fill="#7F838C"/>
<path d="M163.211 133.744C163.211 130.49 165.849 127.852 169.104 127.852H275.17C278.424 127.852 281.063 130.49 281.063 133.744V163.207C281.063 166.461 278.424 169.1 275.17 169.1H169.104C165.849 169.1 163.211 166.461 163.211 163.207V133.744Z" fill="white"/>
<path d="M163.211 133.744C163.211 130.49 165.849 127.852 169.104 127.852H275.17C278.424 127.852 281.063 130.49 281.063 133.744V163.207C281.063 166.461 278.424 169.1 275.17 169.1H169.104C165.849 169.1 163.211 166.461 163.211 163.207V133.744Z" stroke="#D8DCE6" stroke-width="0.736573"/>
<path d="M179.673 153.841L178.269 152.932L178.361 154.595H177.578L177.67 152.926L176.266 153.841L175.88 153.174L177.377 152.42L175.88 151.66L176.266 150.981L177.67 151.919L177.578 150.228H178.361L178.269 151.919L179.673 150.981L180.058 151.66L178.568 152.42L180.058 153.174L179.673 153.841ZM185.611 153.841L184.207 152.932L184.299 154.595H183.517L183.609 152.926L182.205 153.841L181.819 153.174L183.315 152.42L181.819 151.66L182.205 150.981L183.609 151.919L183.517 150.228H184.299L184.207 151.919L185.611 150.981L185.997 151.66L184.506 152.42L185.997 153.174L185.611 153.841ZM191.55 153.841L190.146 152.932L190.238 154.595H189.455L189.547 152.926L188.143 153.841L187.758 153.174L189.254 152.42L187.758 151.66L188.143 150.981L189.547 151.919L189.455 150.228H190.238L190.146 151.919L191.55 150.981L191.935 151.66L190.445 152.42L191.935 153.174L191.55 153.841Z" fill="#202226"/>
<path d="M178.336 143.37C176.605 143.37 175.527 142.123 175.527 140.107C175.527 138.087 176.601 136.84 178.332 136.84C179.704 136.84 180.766 137.729 180.921 138.998H179.959C179.778 138.234 179.152 137.742 178.332 137.742C177.214 137.742 176.515 138.653 176.515 140.107C176.515 141.557 177.214 142.468 178.336 142.468C179.16 142.468 179.786 142.023 179.959 141.32H180.921C180.749 142.55 179.726 143.37 178.336 143.37ZM185.004 143.219H183.942L181.715 136.991H182.769L184.447 142.01H184.521L186.191 136.991H187.218L185.004 143.219ZM191.115 143.219H190.054L187.827 136.991H188.88L190.559 142.01H190.632L192.302 136.991H193.329L191.115 143.219Z" fill="#7F838C"/>
<path d="M27.6797 133.744C27.6797 130.49 30.3179 127.852 33.5723 127.852H139.639C142.893 127.852 145.531 130.49 145.531 133.744V163.207C145.531 166.461 142.893 169.1 139.639 169.1H33.5723C30.3179 169.1 27.6797 166.461 27.6797 163.207V133.744Z" fill="white"/>
<path d="M27.6797 133.744C27.6797 130.49 30.3179 127.852 33.5723 127.852H139.639C142.893 127.852 145.531 130.49 145.531 133.744V163.207C145.531 166.461 142.893 169.1 139.639 169.1H33.5723C30.3179 169.1 27.6797 166.461 27.6797 163.207V133.744Z" stroke="#D8DCE6" stroke-width="0.736573"/>
<path d="M43.1861 158.727C41.3159 158.727 40.2398 157.139 40.2398 154.377C40.2398 151.637 41.3274 150.032 43.1861 150.032C45.0333 150.032 46.1209 151.643 46.1209 154.394C46.1209 157.15 45.0506 158.727 43.1861 158.727ZM43.1861 157.823C44.4118 157.823 45.0794 156.604 45.0794 154.377C45.0794 152.173 44.4003 150.941 43.1861 150.941C41.9719 150.941 41.2814 152.184 41.2814 154.377C41.2814 156.598 41.9604 157.823 43.1861 157.823ZM50.4713 158.721C49.0615 158.721 48.0141 157.887 47.7494 156.552H48.814C49.0384 157.329 49.6657 157.8 50.4828 157.8C51.8351 157.8 52.6005 156.604 52.658 154.394H52.612H52.589H52.5659C52.1574 155.199 51.346 155.671 50.3562 155.671C48.7737 155.671 47.6286 154.503 47.6286 152.892C47.6286 151.223 48.837 150.032 50.5404 150.032C51.7833 150.032 52.7443 150.694 53.2622 151.919C53.5327 152.552 53.665 153.318 53.665 154.233C53.665 157.087 52.5026 158.721 50.4713 158.721ZM50.5404 154.774C51.6395 154.774 52.4278 153.991 52.4278 152.892C52.4278 151.781 51.6164 150.941 50.5519 150.941C49.4873 150.941 48.6759 151.77 48.6759 152.857C48.6759 153.991 49.4413 154.774 50.5404 154.774ZM55.282 160.298H54.4074L57.4572 149.865H58.3319L55.282 160.298ZM59.2066 152.564C59.2066 151.091 60.323 150.032 61.8652 150.032C63.3556 150.032 64.495 151.045 64.495 152.362C64.495 153.226 64.1037 153.899 62.7398 155.361L60.743 157.507V157.599H64.6331V158.531H59.2584V157.818L62.1299 154.682C63.2002 153.519 63.4592 153.07 63.4592 152.403C63.4592 151.574 62.7514 150.935 61.8364 150.935C60.8639 150.935 60.2079 151.586 60.2079 152.564V152.57H59.2066V152.564ZM70.002 158.531V156.811H65.9566V155.867C66.6989 154.549 68.0167 152.466 69.5129 150.228H71.0148V155.884H72.1944V156.811H71.0148V158.531H70.002ZM67.0154 155.821V155.89H70.0077V151.189H69.9387C69.087 152.426 68.0052 154.141 67.0154 155.821Z" fill="#202226"/>
<path d="M44.2032 142.338V143.219H40.2499V136.991H44.2032V137.871H41.2167V139.632H44.0436V140.47H41.2167V142.338H44.2032ZM47.2502 141.553H47.1812L46.154 143.219H45.1355L46.6935 140.88L45.1225 138.519H46.2058L47.2157 140.176H47.2891L48.2904 138.519H49.3218L47.7725 140.841L49.3391 143.219H48.2731L47.2502 141.553ZM52.7573 138.441C53.9528 138.441 54.708 139.373 54.708 140.867C54.708 142.36 53.9528 143.296 52.7659 143.296C52.0969 143.296 51.5661 143.003 51.3201 142.507H51.2467V144.781H50.3188V138.519H51.2122V139.296H51.2812C51.5661 138.76 52.1185 138.441 52.7573 138.441ZM52.494 142.463C53.2838 142.463 53.7542 141.864 53.7542 140.867C53.7542 139.874 53.2838 139.274 52.4983 139.274C51.7172 139.274 51.2295 139.887 51.2295 140.871C51.2295 141.851 51.7172 142.463 52.494 142.463ZM55.8431 143.219V138.519H56.7667V143.219H55.8431ZM56.3049 137.694C55.9596 137.694 55.705 137.448 55.705 137.129C55.705 136.805 55.9596 136.559 56.3049 136.559C56.6502 136.559 56.9048 136.805 56.9048 137.129C56.9048 137.448 56.6502 137.694 56.3049 137.694ZM58.1305 143.219V138.519H59.0239V139.24H59.0929C59.2267 138.778 59.749 138.441 60.3618 138.441C60.4999 138.441 60.6769 138.454 60.7761 138.48V139.395C60.6984 139.369 60.4222 139.339 60.2582 139.339C59.5547 139.339 59.0584 139.783 59.0584 140.444V143.219H58.1305ZM62.1615 144.924C62.0838 144.924 61.8637 144.915 61.7774 144.902V144.104C61.8508 144.116 61.9932 144.121 62.0795 144.121C62.5197 144.121 62.7701 143.939 62.9297 143.465L62.9988 143.236L61.2984 138.519H62.3083L63.4865 142.252H63.5599L64.7338 138.519H65.7178L63.9656 143.413C63.5642 144.557 63.1196 144.924 62.1615 144.924ZM69.4251 140.616C69.4251 139.045 69.8308 137.755 70.6724 136.685H71.4924C70.8709 137.479 70.3832 139.136 70.3832 140.612C70.3832 142.097 70.8666 143.754 71.4924 144.548H70.6724C69.8308 143.478 69.4251 142.187 69.4251 140.616ZM79.0236 143.219H78.1259V138.722H78.0655L76.2398 143.037H75.5062L73.6805 138.722H73.6201V143.219H72.7224V136.991H73.8532L75.8342 141.721H75.9075L77.8928 136.991H79.0236V143.219ZM86.8871 143.219H85.9894V138.722H85.9289L84.1033 143.037H83.3696L81.544 138.722H81.4836V143.219H80.5859V136.991H81.7167L83.6976 141.721H83.771L85.7563 136.991H86.8871V143.219ZM88.5098 144.548H87.6682L89.9427 136.685H90.7843L88.5098 144.548ZM94.2672 143.219H93.3004V140.707L91.108 136.991H92.1826L93.7493 139.688H93.8226L95.3893 136.991H96.4639L94.2672 140.707V143.219ZM100.24 143.219H99.2736V140.707L97.0811 136.991H98.1558L99.7224 139.688H99.7958L101.362 136.991H102.437L100.24 140.707V143.219ZM105.255 140.616C105.255 142.187 104.85 143.478 104.012 144.548H103.192C103.814 143.754 104.302 142.097 104.302 140.612C104.302 139.136 103.814 137.479 103.192 136.685H104.012C104.85 137.755 105.255 139.045 105.255 140.616Z" fill="#7F838C"/>
<path d="M27.6797 74.8184C27.6797 71.564 30.3179 68.9258 33.5723 68.9258H274.432C277.686 68.9258 280.324 71.564 280.324 74.8184V104.281C280.324 107.536 277.686 110.174 274.432 110.174H33.5723C30.3179 110.174 27.6797 107.536 27.6797 104.281V74.8184Z" fill="white"/>
<path d="M27.6797 74.8184C27.6797 71.564 30.3179 68.9258 33.5723 68.9258H274.432C277.686 68.9258 280.324 71.564 280.324 74.8184V104.281C280.324 107.536 277.686 110.174 274.432 110.174H33.5723C30.3179 110.174 27.6797 107.536 27.6797 104.281V74.8184Z" stroke="#D8DCE6" stroke-width="0.736573"/>
<path d="M43.33 99.7954C42.0813 99.7954 41.126 99.1278 40.6081 97.9079C40.3377 97.2749 40.2053 96.5096 40.2053 95.5946C40.2053 92.7404 41.3677 91.1061 43.3991 91.1061C44.8089 91.1061 45.8562 91.9405 46.1209 93.2755H45.0563C44.8319 92.4987 44.2047 92.0268 43.3875 92.0268C42.0352 92.0268 41.2699 93.2238 41.2124 95.4335H41.3044C41.713 94.6278 42.5244 94.156 43.5141 94.156C45.0966 94.156 46.2418 95.3241 46.2418 96.9354C46.2418 98.6042 45.0333 99.7954 43.33 99.7954ZM43.3185 98.8862C44.3831 98.8862 45.1945 98.0575 45.1945 96.9699C45.1945 95.8363 44.4291 95.0537 43.33 95.0537C42.2309 95.0537 41.4425 95.8363 41.4425 96.9354C41.4425 98.046 42.2539 98.8862 43.3185 98.8862ZM51.7028 99.6055V97.8849H47.6574V96.9411C48.3997 95.6234 49.7175 93.5403 51.2136 91.3018H52.7156V96.9584H53.8952V97.8849H52.7156V99.6055H51.7028ZM48.7162 96.8951V96.9642H51.7085V92.2628H51.6395C50.7878 93.5 49.706 95.2148 48.7162 96.8951ZM55.8402 99.6055L59.5691 92.3088V92.2282H55.1267V91.3018H60.6222V92.2628L56.9278 99.6055H55.8402ZM64.8805 99.8011C63.1196 99.8011 61.8882 98.8056 61.8882 97.3842C61.8882 96.3024 62.573 95.4622 63.6145 95.2666V95.1745C62.7686 94.9443 62.2277 94.225 62.2277 93.3216C62.2277 92.0268 63.3268 91.1061 64.8805 91.1061C66.4342 91.1061 67.5333 92.0268 67.5333 93.3216C67.5333 94.2308 67.0039 94.9386 66.1465 95.1745V95.2666C67.1881 95.4622 67.8728 96.3024 67.8728 97.3842C67.8728 98.8056 66.6414 99.8011 64.8805 99.8011ZM64.8805 98.9149C66.0314 98.9149 66.8255 98.2589 66.8255 97.3094C66.8255 96.3599 66.0314 95.7039 64.8805 95.7039C63.7296 95.7039 62.9355 96.3599 62.9355 97.3094C62.9355 98.2589 63.7296 98.9149 64.8805 98.9149ZM64.8805 94.8293C65.8588 94.8293 66.5148 94.2653 66.5148 93.4194C66.5148 92.562 65.8645 91.9923 64.8805 91.9923C63.8965 91.9923 63.2462 92.562 63.2462 93.4194C63.2462 94.2653 63.9023 94.8293 64.8805 94.8293ZM73.2418 99.6055L76.9707 92.3088V92.2282H72.5282V91.3018H78.0237V92.2628L74.3294 99.6055H73.2418ZM82.2418 99.8011C80.6708 99.8011 79.5429 98.8286 79.4508 97.3958H80.4694C80.5615 98.2934 81.275 98.8919 82.2533 98.8919C83.3639 98.8919 84.1062 98.1323 84.1062 96.9929C84.1062 95.8536 83.3581 95.0767 82.2705 95.0767C81.5167 95.0767 80.8952 95.4162 80.5557 96.0089H79.5832L80.0378 91.3018H84.6701V92.2282H80.8492L80.6132 94.8926H80.7053C81.1081 94.4207 81.6951 94.1848 82.4604 94.1848C84.0372 94.1848 85.142 95.3299 85.142 96.9642C85.142 98.6502 83.9623 99.8011 82.2418 99.8011ZM89.5902 99.8011C87.72 99.8011 86.6439 98.2129 86.6439 95.4507C86.6439 92.7116 87.7315 91.1061 89.5902 91.1061C91.4374 91.1061 92.525 92.7174 92.525 95.468C92.525 98.2244 91.4547 99.8011 89.5902 99.8011ZM89.5902 98.8977C90.8159 98.8977 91.4835 97.6777 91.4835 95.4507C91.4835 93.2468 90.8044 92.0153 89.5902 92.0153C88.376 92.0153 87.6855 93.2583 87.6855 95.4507C87.6855 97.672 88.3645 98.8977 89.5902 98.8977ZM97.0135 99.8011C95.1433 99.8011 94.0672 98.2129 94.0672 95.4507C94.0672 92.7116 95.1548 91.1061 97.0135 91.1061C98.8607 91.1061 99.9483 92.7174 99.9483 95.468C99.9483 98.2244 98.8779 99.8011 97.0135 99.8011ZM97.0135 98.8977C98.2392 98.8977 98.9067 97.6777 98.9067 95.4507C98.9067 93.2468 98.2277 92.0153 97.0135 92.0153C95.7993 92.0153 95.1088 93.2583 95.1088 95.4507C95.1088 97.672 95.7878 98.8977 97.0135 98.8977ZM108.764 99.6055V97.8849H104.719V96.9411C105.461 95.6234 106.779 93.5403 108.275 91.3018H109.777V96.9584H110.957V97.8849H109.777V99.6055H108.764ZM105.778 96.8951V96.9642H108.77V92.2628H108.701C107.849 93.5 106.767 95.2148 105.778 96.8951ZM112.902 99.6055L116.631 92.3088V92.2282H112.188V91.3018H117.684V92.2628L113.989 99.6055H112.902ZM122.379 99.6055V97.8849H118.334V96.9411C119.076 95.6234 120.394 93.5403 121.89 91.3018H123.392V96.9584H124.572V97.8849H123.392V99.6055H122.379ZM119.393 96.8951V96.9642H122.385V92.2628H122.316C121.464 93.5 120.382 95.2148 119.393 96.8951ZM126.12 93.6381C126.12 92.1649 127.236 91.1061 128.778 91.1061C130.269 91.1061 131.408 92.1189 131.408 93.4367C131.408 94.2998 131.017 94.9731 129.653 96.4348L127.656 98.5812V98.6732H131.546V99.6055H126.171V98.8919L129.043 95.7557C130.113 94.5933 130.372 94.1445 130.372 93.477C130.372 92.6483 129.664 92.0096 128.749 92.0096C127.777 92.0096 127.121 92.6598 127.121 93.6381V93.6438H126.12V93.6381ZM139.274 99.7954C137.865 99.7954 136.817 98.961 136.553 97.6259H137.617C137.842 98.4028 138.469 98.8747 139.286 98.8747C140.638 98.8747 141.404 97.6777 141.461 95.468H141.415H141.392H141.369C140.96 96.2736 140.149 96.7455 139.159 96.7455C137.577 96.7455 136.432 95.5773 136.432 93.9661C136.432 92.2973 137.64 91.1061 139.343 91.1061C140.586 91.1061 141.547 91.7679 142.065 92.9936C142.336 93.6266 142.468 94.3919 142.468 95.3069C142.468 98.1611 141.306 99.7954 139.274 99.7954ZM139.343 95.8478C140.443 95.8478 141.231 95.0652 141.231 93.9661C141.231 92.8555 140.42 92.0153 139.355 92.0153C138.29 92.0153 137.479 92.844 137.479 93.9316C137.479 95.0652 138.244 95.8478 139.343 95.8478ZM146.79 99.7954C145.38 99.7954 144.333 98.961 144.068 97.6259H145.132C145.357 98.4028 145.984 98.8747 146.801 98.8747C148.154 98.8747 148.919 97.6777 148.976 95.468H148.93H148.907H148.884C148.476 96.2736 147.664 96.7455 146.675 96.7455C145.092 96.7455 143.947 95.5773 143.947 93.9661C143.947 92.2973 145.155 91.1061 146.859 91.1061C148.102 91.1061 149.063 91.7679 149.581 92.9936C149.851 93.6266 149.983 94.3919 149.983 95.3069C149.983 98.1611 148.821 99.7954 146.79 99.7954ZM146.859 95.8478C147.958 95.8478 148.746 95.0652 148.746 93.9661C148.746 92.8555 147.935 92.0153 146.87 92.0153C145.806 92.0153 144.994 92.844 144.994 93.9316C144.994 95.0652 145.76 95.8478 146.859 95.8478ZM154.587 99.7954C153.338 99.7954 152.383 99.1278 151.865 97.9079C151.595 97.2749 151.462 96.5096 151.462 95.5946C151.462 92.7404 152.625 91.1061 154.656 91.1061C156.066 91.1061 157.113 91.9405 157.378 93.2755H156.313C156.089 92.4987 155.462 92.0268 154.645 92.0268C153.292 92.0268 152.527 93.2238 152.469 95.4335H152.561C152.97 94.6278 153.781 94.156 154.771 94.156C156.354 94.156 157.499 95.3241 157.499 96.9354C157.499 98.6042 156.29 99.7954 154.587 99.7954ZM154.576 98.8862C155.64 98.8862 156.451 98.0575 156.451 96.9699C156.451 95.8363 155.686 95.0537 154.587 95.0537C153.488 95.0537 152.7 95.8363 152.7 96.9354C152.7 98.046 153.511 98.8862 154.576 98.8862ZM159.513 99.6055L163.242 92.3088V92.2282H158.799V91.3018H164.295V92.2628L160.6 99.6055H159.513Z" fill="#202226"/>
<path d="M42.8049 84.444C41.0742 84.444 39.9953 83.1967 39.9953 81.1812C39.9953 79.1614 41.0699 77.9141 42.8006 77.9141C44.173 77.9141 45.2347 78.8032 45.3901 80.0721H44.4277C44.2464 79.3082 43.6206 78.8161 42.8006 78.8161C41.6828 78.8161 40.9836 79.7268 40.9836 81.1812C40.9836 82.6314 41.6828 83.542 42.8049 83.542C43.6292 83.542 44.255 83.0975 44.4277 82.394H45.3901C45.2175 83.624 44.1946 84.444 42.8049 84.444ZM48.0918 83.5895C48.791 83.5895 49.3089 83.145 49.3089 82.5623V82.1696L48.1609 82.2429C47.5135 82.2861 47.22 82.5062 47.22 82.9205C47.22 83.3435 47.5869 83.5895 48.0918 83.5895ZM47.8545 84.3707C46.9481 84.3707 46.2878 83.8225 46.2878 82.9637C46.2878 82.1178 46.9179 81.6301 48.0357 81.561L49.3089 81.4877V81.082C49.3089 80.5856 48.9809 80.3051 48.3465 80.3051C47.8286 80.3051 47.4703 80.495 47.3668 80.8273H46.4691C46.564 80.0203 47.3236 79.5024 48.3896 79.5024C49.5679 79.5024 50.2325 80.0893 50.2325 81.082V84.293H49.3391V83.6326H49.2657C48.9852 84.1031 48.4716 84.3707 47.8545 84.3707ZM51.5531 84.293V79.593H52.4465V80.3137H52.5156C52.6494 79.852 53.1716 79.5153 53.7844 79.5153C53.9226 79.5153 54.0995 79.5283 54.1988 79.5542V80.4691C54.1211 80.4432 53.8449 80.413 53.6809 80.413C52.9774 80.413 52.4811 80.8575 52.4811 81.5179V84.293H51.5531ZM56.689 84.3707C55.4935 84.3707 54.7383 83.4298 54.7383 81.9408C54.7383 80.4562 55.5022 79.5153 56.689 79.5153C57.3321 79.5153 57.8759 79.8217 58.1305 80.3396H58.1996V77.7588H59.1275V84.293H58.2384V83.5506H58.165C57.8845 84.0642 57.3364 84.3707 56.689 84.3707ZM56.9523 80.3483C56.1711 80.3483 55.6964 80.9525 55.6964 81.9408C55.6964 82.9378 56.1668 83.5377 56.9523 83.5377C57.7335 83.5377 58.2168 82.9292 58.2168 81.9451C58.2168 80.9654 57.7291 80.3483 56.9523 80.3483ZM62.9384 84.293V79.593H63.8318V80.3396H63.9008C64.1296 79.8174 64.5957 79.5024 65.3035 79.5024C66.3522 79.5024 66.9305 80.1325 66.9305 81.2503V84.293H66.0026V81.4833C66.0026 80.7281 65.6746 80.3526 64.9884 80.3526C64.3022 80.3526 63.8663 80.8101 63.8663 81.5438V84.293H62.9384ZM72.2002 79.593V84.293H71.3068V83.5463H71.2335C71.0047 84.0815 70.5257 84.3836 69.8135 84.3836C68.7734 84.3836 68.1951 83.7492 68.1951 82.6443V79.593H69.123V82.4026C69.123 83.1622 69.4294 83.5247 70.1113 83.5247C70.8623 83.5247 71.2723 83.0802 71.2723 82.3422V79.593H72.2002ZM73.5468 84.293V79.593H74.4401V80.3483H74.5092C74.7163 79.8174 75.1911 79.5024 75.8169 79.5024C76.46 79.5024 76.9045 79.8347 77.1116 80.3483H77.185C77.4224 79.8347 77.9619 79.5024 78.6136 79.5024C79.5631 79.5024 80.1155 80.0764 80.1155 81.0561V84.293H79.1876V81.2978C79.1876 80.6633 78.8855 80.3526 78.2769 80.3526C77.677 80.3526 77.2843 80.7842 77.2843 81.3366V84.293H76.3736V81.2071C76.3736 80.6763 76.0197 80.3526 75.4673 80.3526C74.9019 80.3526 74.4747 80.8144 74.4747 81.4186V84.293H73.5468ZM83.9091 84.3707C83.2531 84.3707 82.705 84.0685 82.4245 83.5506H82.3554V84.293H81.462V77.7588H82.3899V80.3396H82.4633C82.7136 79.8261 83.2661 79.5153 83.9091 79.5153C85.1003 79.5153 85.8513 80.4475 85.8513 81.9408C85.8513 83.4298 85.096 84.3707 83.9091 84.3707ZM83.6415 80.3483C82.8647 80.3483 82.377 80.9611 82.3727 81.9451C82.377 82.9292 82.8604 83.5377 83.6415 83.5377C84.427 83.5377 84.8975 82.9378 84.8975 81.9408C84.8975 80.9525 84.427 80.3483 83.6415 80.3483ZM88.8983 80.2922C88.212 80.2922 87.733 80.7755 87.6812 81.5092H90.0549C90.0333 80.7712 89.5845 80.2922 88.8983 80.2922ZM90.0506 83.0241H90.944C90.7325 83.8657 89.9815 84.3836 88.9069 84.3836C87.5603 84.3836 86.736 83.46 86.736 81.9581C86.736 80.4562 87.5776 79.5024 88.9026 79.5024C90.2103 79.5024 91.0001 80.3958 91.0001 81.8718V82.1955H87.6812V82.2473C87.7114 83.0716 88.1905 83.5938 88.9328 83.5938C89.4938 83.5938 89.878 83.391 90.0506 83.0241ZM92.1136 84.293V79.593H93.0069V80.3137H93.076C93.2098 79.852 93.732 79.5153 94.3449 79.5153C94.483 79.5153 94.6599 79.5283 94.7592 79.5542V80.4691C94.6815 80.4432 94.4053 80.413 94.2413 80.413C93.5378 80.413 93.0415 80.8575 93.0415 81.5179V84.293H92.1136Z" fill="#7F838C"/>
<path d="M30.8422 45.6797V36.9593H27.8832V34.7675H36.1652V36.9593H33.2532V45.6797H30.8422ZM38.4154 45.8206L35.112 37.7891H37.5387L39.6366 43.0495L41.7658 37.7891H44.1925L39.5427 48.717H37.1473L38.4154 45.8206ZM45.1123 48.7013V37.7891H47.445V38.8224C47.5598 38.4884 47.8312 38.2118 48.2591 37.9926C48.6975 37.763 49.2089 37.6482 49.7934 37.6482C50.3362 37.6482 50.8476 37.7525 51.3277 37.9613C51.8078 38.17 52.2253 38.4623 52.5802 38.838C52.9351 39.2138 53.2116 39.6521 53.41 40.1531C53.6083 40.6541 53.7074 41.1812 53.7074 41.7344C53.7074 42.2876 53.6083 42.8146 53.41 43.3156C53.2116 43.8166 52.9351 44.255 52.5802 44.6307C52.2253 45.0065 51.8078 45.2987 51.3277 45.5075C50.8476 45.7162 50.3362 45.8206 49.7934 45.8206C49.5116 45.8206 49.2037 45.7841 48.8697 45.711C48.5357 45.6379 48.233 45.5075 47.9617 45.3196C47.7007 45.1213 47.5285 44.8969 47.445 44.6464V48.7013H45.1123ZM47.3041 41.7344C47.3041 42.131 47.4189 42.4963 47.6485 42.8303C47.8886 43.1539 48.1704 43.3835 48.494 43.5192C48.8175 43.6444 49.1098 43.707 49.3707 43.707C49.9343 43.707 50.4092 43.5192 50.7954 43.1434C51.1816 42.7572 51.3747 42.2876 51.3747 41.7344C51.3747 41.1812 51.1816 40.7167 50.7954 40.341C50.4092 39.9548 49.9343 39.7617 49.3707 39.7617C49.1098 39.7617 48.8175 39.8296 48.494 39.9652C48.1704 40.0905 47.8886 40.3201 47.6485 40.6541C47.4189 40.9777 47.3041 41.3378 47.3041 41.7344ZM54.5681 41.7813V41.7187C54.5681 41.1134 54.6725 40.555 54.8812 40.0435C55.1004 39.5217 55.4031 39.0781 55.7893 38.7128C56.1755 38.3475 56.6295 38.0709 57.1514 37.883C57.6732 37.6847 58.2369 37.5855 58.8422 37.5855C59.4267 37.5855 59.9694 37.6899 60.4704 37.8987C60.9819 38.097 61.415 38.384 61.7699 38.7597C62.1352 39.125 62.4118 39.553 62.5997 40.0435C62.798 40.5341 62.8971 41.0507 62.8971 41.5935L62.8658 42.345H56.9009C56.9217 42.6894 57.0418 42.9869 57.261 43.2374C57.4801 43.4878 57.7515 43.6601 58.0751 43.754C58.4091 43.8479 58.717 43.8949 58.9988 43.8949C59.291 43.8949 59.5989 43.8479 59.9225 43.754C60.246 43.6601 60.58 43.4513 60.9245 43.1278L62.2865 44.4272C61.3576 45.3874 60.2252 45.8676 58.8892 45.8676C58.2629 45.8676 57.6785 45.7736 57.1357 45.5858C56.6034 45.3874 56.1442 45.1109 55.758 44.756C55.3822 44.3907 55.09 43.9575 54.8812 43.4565C54.6725 42.9451 54.5681 42.3867 54.5681 41.7813ZM56.9322 40.8263H60.5487C60.5487 40.6593 60.4913 40.4767 60.3765 40.2784C60.2617 40.0696 60.0582 39.8922 59.7659 39.7461C59.4841 39.5895 59.1762 39.5112 58.8422 39.5112C58.3412 39.5112 57.9029 39.6417 57.5271 39.9026C57.1618 40.1531 56.9635 40.461 56.9322 40.8263ZM71.5436 37.1159C71.1888 37.1159 70.8756 36.9854 70.6043 36.7245C70.3433 36.4635 70.2129 36.1556 70.2129 35.8008C70.2129 35.4354 70.3433 35.1223 70.6043 34.8614C70.8756 34.6005 71.1888 34.47 71.5436 34.47C71.9089 34.47 72.2221 34.6005 72.483 34.8614C72.7439 35.1223 72.8744 35.4354 72.8744 35.8008C72.8744 35.9678 72.8274 36.1556 72.7335 36.3644C72.65 36.5731 72.4934 36.7505 72.2638 36.8967C72.0446 37.0428 71.8046 37.1159 71.5436 37.1159ZM70.3851 45.6797V37.7891H72.7178V45.6797H70.3851ZM74.2838 45.6797V37.7891H76.6165V38.7754C76.7835 38.431 77.0758 38.1544 77.4933 37.9456C77.9108 37.7264 78.3857 37.6168 78.918 37.6168C79.8782 37.6168 80.6193 37.9091 81.1411 38.4936C81.6734 39.0676 81.9396 39.8661 81.9396 40.889V45.6797H79.6068V41.1708C79.6068 40.8368 79.5338 40.5497 79.3877 40.3097C79.252 40.0696 79.0693 39.9078 78.8397 39.8243C78.6101 39.7304 78.3857 39.6834 78.1665 39.6834C77.7281 39.6834 77.3576 39.8348 77.0549 40.1375C76.7627 40.4297 76.6165 40.8002 76.6165 41.249V45.6797H74.2838ZM91.7742 45.8206L88.4708 37.7891H90.8975L92.9954 43.0495L95.1246 37.7891H97.5513L92.9015 48.717H90.5061L91.7742 45.8206ZM97.5457 41.7344C97.5457 41.1708 97.6553 40.6332 97.8745 40.1218C98.1041 39.6104 98.4172 39.1616 98.8138 38.7754C99.2209 38.3892 99.6905 38.0917 100.223 37.883C100.766 37.6638 101.334 37.5542 101.929 37.5542C102.514 37.5542 103.072 37.6638 103.605 37.883C104.147 38.0917 104.622 38.3892 105.029 38.7754C105.436 39.1616 105.749 39.6104 105.969 40.1218C106.198 40.6332 106.313 41.1708 106.313 41.7344C106.313 42.298 106.198 42.8355 105.969 43.3469C105.749 43.8584 105.436 44.3072 105.029 44.6934C104.622 45.0795 104.147 45.3822 103.605 45.6014C103.072 45.8102 102.514 45.9145 101.929 45.9145C101.334 45.9145 100.766 45.8102 100.223 45.6014C99.6905 45.3822 99.2209 45.0795 98.8138 44.6934C98.4172 44.3072 98.1041 43.8584 97.8745 43.3469C97.6553 42.8355 97.5457 42.298 97.5457 41.7344ZM99.8784 41.7344C99.8784 42.1519 99.9932 42.5328 100.223 42.8773C100.452 43.2217 100.724 43.4618 101.037 43.5974C101.361 43.7331 101.658 43.801 101.929 43.801C102.19 43.801 102.483 43.7331 102.806 43.5974C103.13 43.4618 103.406 43.2217 103.636 42.8773C103.865 42.5328 103.98 42.1519 103.98 41.7344C103.98 41.4734 103.912 41.1812 103.777 40.8576C103.641 40.5341 103.401 40.2575 103.057 40.0279C102.712 39.7878 102.336 39.6678 101.929 39.6678C101.355 39.6678 100.87 39.8713 100.473 40.2784C100.077 40.675 99.8784 41.1603 99.8784 41.7344ZM107.459 42.5015V37.7891H109.823V42.298C109.823 42.5381 109.87 42.7781 109.964 43.0182C110.058 43.2478 110.22 43.4304 110.45 43.5661C110.69 43.6914 110.961 43.754 111.264 43.754C111.566 43.754 111.832 43.6914 112.062 43.5661C112.302 43.4304 112.469 43.2478 112.563 43.0182C112.657 42.7781 112.704 42.5381 112.704 42.298V37.7891H115.068V42.5015C115.068 42.919 115 43.3313 114.865 43.7383C114.729 44.1454 114.499 44.5107 114.176 44.8343C113.863 45.1474 113.461 45.4031 112.97 45.6014C112.48 45.7997 111.911 45.8989 111.264 45.8989C110.752 45.8989 110.267 45.8258 109.808 45.6797C109.348 45.544 108.941 45.3353 108.586 45.0534C108.242 44.7716 107.965 44.4168 107.757 43.9888C107.558 43.5505 107.459 43.0547 107.459 42.5015ZM116.558 45.6797V37.7891H118.891V38.8693C119.068 38.4727 119.36 38.1648 119.768 37.9456C120.175 37.7264 120.644 37.6168 121.177 37.6168C121.333 37.6168 121.537 37.6325 121.787 37.6638V39.8557C121.547 39.8035 121.286 39.7774 121.004 39.7774C120.347 39.7774 119.83 39.96 119.454 40.3253C119.079 40.6906 118.891 41.1916 118.891 41.8283V45.6797H116.558ZM127.94 41.7187C127.94 41.1342 128.05 40.5863 128.269 40.0748C128.499 39.553 128.812 39.1042 129.208 38.7284C129.616 38.3527 130.085 38.0604 130.618 37.8517C131.15 37.6429 131.708 37.5386 132.293 37.5386C133.587 37.5386 134.683 38.0291 135.58 39.0102L134.109 40.4662C133.858 40.1949 133.587 39.9913 133.295 39.8557C133.013 39.72 132.679 39.6521 132.293 39.6521C131.729 39.6521 131.249 39.8504 130.852 40.2471C130.466 40.6332 130.273 41.1238 130.273 41.7187C130.273 42.3032 130.466 42.7938 130.852 43.1904C131.249 43.5766 131.729 43.7697 132.293 43.7697C132.679 43.7697 133.013 43.7018 133.295 43.5661C133.587 43.4304 133.858 43.2269 134.109 42.9555L135.58 44.4116C134.683 45.3927 133.587 45.8832 132.293 45.8832C131.854 45.8832 131.426 45.8206 131.009 45.6953C130.591 45.5805 130.205 45.4135 129.85 45.1944C129.506 44.9752 129.177 44.6881 128.864 44.3333C128.551 43.968 128.316 43.5505 128.16 43.0808C128.013 42.6007 127.94 42.1467 127.94 41.7187ZM136.074 41.7344C136.074 41.1812 136.173 40.6541 136.372 40.1531C136.57 39.6521 136.846 39.2138 137.201 38.838C137.556 38.4623 137.974 38.17 138.454 37.9613C138.934 37.7525 139.445 37.6482 139.988 37.6482C140.27 37.6482 140.578 37.6847 140.912 37.7578C141.246 37.8308 141.543 37.9665 141.804 38.1648C142.076 38.3527 142.253 38.5719 142.337 38.8224V37.7891H144.669V45.6797H142.337V44.6464C142.222 44.9804 141.945 45.2622 141.507 45.4918C141.079 45.711 140.573 45.8206 139.988 45.8206C139.445 45.8206 138.934 45.7162 138.454 45.5075C137.974 45.2987 137.556 45.0065 137.201 44.6307C136.846 44.255 136.57 43.8166 136.372 43.3156C136.173 42.8146 136.074 42.2876 136.074 41.7344ZM138.407 41.7344C138.407 42.2876 138.6 42.7572 138.986 43.1434C139.372 43.5192 139.847 43.707 140.411 43.707C140.672 43.707 140.964 43.6444 141.288 43.5192C141.611 43.3835 141.888 43.1539 142.117 42.8303C142.357 42.4963 142.477 42.131 142.477 41.7344C142.477 41.3378 142.357 40.9777 142.117 40.6541C141.888 40.3201 141.611 40.0905 141.288 39.9652C140.964 39.8296 140.672 39.7617 140.411 39.7617C139.847 39.7617 139.372 39.9548 138.986 40.341C138.6 40.7167 138.407 41.1812 138.407 41.7344ZM146.219 45.6797V37.7891H148.552V38.8693C148.729 38.4727 149.021 38.1648 149.428 37.9456C149.835 37.7264 150.305 37.6168 150.837 37.6168C150.994 37.6168 151.197 37.6325 151.448 37.6638V39.8557C151.208 39.8035 150.947 39.7774 150.665 39.7774C150.008 39.7774 149.491 39.96 149.115 40.3253C148.739 40.6906 148.552 41.1916 148.552 41.8283V45.6797H146.219ZM151.883 41.7344C151.883 41.1812 151.982 40.6541 152.18 40.1531C152.379 39.6521 152.655 39.2138 153.01 38.838C153.365 38.4623 153.783 38.17 154.263 37.9613C154.743 37.7525 155.254 37.6482 155.797 37.6482C156.079 37.6482 156.387 37.6847 156.721 37.7578C157.055 37.8308 157.352 37.9665 157.613 38.1648C157.884 38.3527 158.062 38.5719 158.145 38.8224V34.7675H160.478V45.6797H158.145V44.6464C158.031 44.9804 157.754 45.2622 157.316 45.4918C156.888 45.711 156.381 45.8206 155.797 45.8206C155.254 45.8206 154.743 45.7162 154.263 45.5075C153.783 45.2987 153.365 45.0065 153.01 44.6307C152.655 44.255 152.379 43.8166 152.18 43.3156C151.982 42.8146 151.883 42.2876 151.883 41.7344ZM154.216 41.7344C154.216 42.2876 154.409 42.7572 154.795 43.1434C155.181 43.5192 155.656 43.707 156.22 43.707C156.481 43.707 156.773 43.6444 157.096 43.5192C157.42 43.3835 157.697 43.1539 157.926 42.8303C158.166 42.4963 158.286 42.131 158.286 41.7344C158.286 41.3378 158.166 40.9777 157.926 40.6541C157.697 40.3201 157.42 40.0905 157.096 39.9652C156.773 39.8296 156.481 39.7617 156.22 39.7617C155.656 39.7617 155.181 39.9548 154.795 40.341C154.409 40.7167 154.216 41.1812 154.216 41.7344ZM167.86 41.7344C167.86 41.1812 167.959 40.6541 168.158 40.1531C168.356 39.6521 168.632 39.2138 168.987 38.838C169.342 38.4623 169.76 38.17 170.24 37.9613C170.72 37.7525 171.231 37.6482 171.774 37.6482C172.056 37.6482 172.364 37.6847 172.698 37.7578C173.032 37.8308 173.329 37.9665 173.59 38.1648C173.862 38.3527 174.039 38.5719 174.122 38.8224V34.7675H176.455V45.6797H174.122V44.6464C174.008 44.9804 173.731 45.2622 173.293 45.4918C172.865 45.711 172.359 45.8206 171.774 45.8206C171.231 45.8206 170.72 45.7162 170.24 45.5075C169.76 45.2987 169.342 45.0065 168.987 44.6307C168.632 44.255 168.356 43.8166 168.158 43.3156C167.959 42.8146 167.86 42.2876 167.86 41.7344ZM170.193 41.7344C170.193 42.2876 170.386 42.7572 170.772 43.1434C171.158 43.5192 171.633 43.707 172.197 43.707C172.458 43.707 172.75 43.6444 173.074 43.5192C173.397 43.3835 173.674 43.1539 173.903 42.8303C174.143 42.4963 174.263 42.131 174.263 41.7344C174.263 41.3378 174.143 40.9777 173.903 40.6541C173.674 40.3201 173.397 40.0905 173.074 39.9652C172.75 39.8296 172.458 39.7617 172.197 39.7617C171.633 39.7617 171.158 39.9548 170.772 40.341C170.386 40.7167 170.193 41.1812 170.193 41.7344ZM177.66 41.7813V41.7187C177.66 41.1134 177.765 40.555 177.973 40.0435C178.193 39.5217 178.495 39.0781 178.882 38.7128C179.268 38.3475 179.722 38.0709 180.244 37.883C180.765 37.6847 181.329 37.5855 181.934 37.5855C182.519 37.5855 183.062 37.6899 183.563 37.8987C184.074 38.097 184.507 38.384 184.862 38.7597C185.227 39.125 185.504 39.553 185.692 40.0435C185.89 40.5341 185.989 41.0507 185.989 41.5935L185.958 42.345H179.993C180.014 42.6894 180.134 42.9869 180.353 43.2374C180.572 43.4878 180.844 43.6601 181.167 43.754C181.501 43.8479 181.809 43.8949 182.091 43.8949C182.383 43.8949 182.691 43.8479 183.015 43.754C183.338 43.6601 183.672 43.4513 184.017 43.1278L185.379 44.4272C184.45 45.3874 183.317 45.8676 181.981 45.8676C181.355 45.8676 180.771 45.7736 180.228 45.5858C179.696 45.3874 179.236 45.1109 178.85 44.756C178.474 44.3907 178.182 43.9575 177.973 43.4565C177.765 42.9451 177.66 42.3867 177.66 41.7813ZM180.024 40.8263H183.641C183.641 40.6593 183.584 40.4767 183.469 40.2784C183.354 40.0696 183.15 39.8922 182.858 39.7461C182.576 39.5895 182.268 39.5112 181.934 39.5112C181.433 39.5112 180.995 39.6417 180.619 39.9026C180.254 40.1531 180.056 40.461 180.024 40.8263ZM187.664 45.6797V39.9026H186.615V37.7891H187.664V34.7675H189.934V37.7891H191.672V39.9026H189.934V45.6797H187.664ZM192.093 41.7344C192.093 41.1812 192.192 40.6541 192.391 40.1531C192.589 39.6521 192.866 39.2138 193.22 38.838C193.575 38.4623 193.993 38.17 194.473 37.9613C194.953 37.7525 195.464 37.6482 196.007 37.6482C196.289 37.6482 196.597 37.6847 196.931 37.7578C197.265 37.8308 197.562 37.9665 197.823 38.1648C198.095 38.3527 198.272 38.5719 198.356 38.8224V37.7891H200.688V45.6797H198.356V44.6464C198.241 44.9804 197.964 45.2622 197.526 45.4918C197.098 45.711 196.592 45.8206 196.007 45.8206C195.464 45.8206 194.953 45.7162 194.473 45.5075C193.993 45.2987 193.575 45.0065 193.22 44.6307C192.866 44.255 192.589 43.8166 192.391 43.3156C192.192 42.8146 192.093 42.2876 192.093 41.7344ZM194.426 41.7344C194.426 42.2876 194.619 42.7572 195.005 43.1434C195.391 43.5192 195.866 43.707 196.43 43.707C196.691 43.707 196.983 43.6444 197.307 43.5192C197.63 43.3835 197.907 43.1539 198.136 42.8303C198.376 42.4963 198.497 42.131 198.497 41.7344C198.497 41.3378 198.376 40.9777 198.136 40.6541C197.907 40.3201 197.63 40.0905 197.307 39.9652C196.983 39.8296 196.691 39.7617 196.43 39.7617C195.866 39.7617 195.391 39.9548 195.005 40.341C194.619 40.7167 194.426 41.1812 194.426 41.7344ZM203.396 37.1159C203.042 37.1159 202.728 36.9854 202.457 36.7245C202.196 36.4635 202.066 36.1556 202.066 35.8008C202.066 35.4354 202.196 35.1223 202.457 34.8614C202.728 34.6005 203.042 34.47 203.396 34.47C203.762 34.47 204.075 34.6005 204.336 34.8614C204.597 35.1223 204.727 35.4354 204.727 35.8008C204.727 35.9678 204.68 36.1556 204.586 36.3644C204.503 36.5731 204.346 36.7505 204.117 36.8967C203.897 37.0428 203.657 37.1159 203.396 37.1159ZM202.238 45.6797V37.7891H204.571V45.6797H202.238ZM206.137 45.6797V34.7675H208.469V45.6797H206.137ZM209.425 44.4898L210.771 43.0495C210.98 43.3 211.277 43.5087 211.664 43.6757C212.06 43.8323 212.483 43.9106 212.932 43.9106C213.328 43.9106 213.626 43.8532 213.824 43.7383C214.022 43.6235 214.122 43.467 214.122 43.2687C214.122 43.206 214.095 43.1382 214.043 43.0651C214.002 42.9816 213.897 42.9086 213.73 42.846C213.574 42.7729 213.276 42.6842 212.838 42.5798C212.41 42.465 212.076 42.3658 211.836 42.2823C210.625 41.8648 210.02 41.1342 210.02 40.0905C210.02 39.5895 210.145 39.1564 210.395 38.791C210.646 38.4153 211.001 38.1178 211.46 37.8987C211.93 37.669 212.472 37.5542 213.088 37.5542C214.195 37.5542 215.097 37.8934 215.797 38.5719L214.685 40.1062C214.257 39.72 213.704 39.5269 213.026 39.5269C212.775 39.5269 212.582 39.5791 212.446 39.6834C212.311 39.7774 212.243 39.8922 212.243 40.0279C212.243 40.1844 212.3 40.2992 212.415 40.3723C212.53 40.4454 212.806 40.5393 213.245 40.6541C213.683 40.7689 214.069 40.8837 214.403 40.9985C215.698 41.4369 216.345 42.1832 216.345 43.2374C216.345 43.6131 216.272 43.968 216.126 44.302C215.99 44.6255 215.781 44.9073 215.499 45.1474C215.217 45.3874 214.852 45.5701 214.403 45.6953C213.955 45.831 213.443 45.8989 212.869 45.8989C212.472 45.8989 212.045 45.8519 211.585 45.758C211.137 45.664 210.724 45.5023 210.348 45.2726C209.973 45.043 209.665 44.7821 209.425 44.4898Z" fill="#202226"/>
</svg>
