<svg width="176" height="88" viewBox="0 0 176 88" fill="none" xmlns="http://www.w3.org/2000/svg">
<path fill-rule="evenodd" clip-rule="evenodd" d="M174.033 49.22H150.513C151.068 54.8814 155.182 56.7 159.851 56.7C164.637 56.7 168.488 55.6147 171.669 53.9134V63.652C167.633 65.9867 163.014 67.1066 158.363 66.8787C146.661 66.8787 138.432 59.5454 138.432 44.9374C138.432 32.6467 145.407 22.8787 156.816 22.8787C168.255 22.8787 174.208 32.5 174.208 44.8787C174.208 46.052 174.091 48.5747 174.033 49.22ZM156.758 32.7347C153.752 32.7347 150.426 34.876 150.426 40.3027H162.827C162.827 34.876 159.705 32.7347 156.758 32.7347ZM119.494 66.8787C115.292 66.8787 112.724 65.1187 111.032 63.828L110.974 77.4093L98.9512 79.9613V23.6707H109.923L110.157 26.6627C112.701 24.2362 116.074 22.8821 119.582 22.8787C128.044 22.8787 135.981 30.5054 135.981 44.5854C135.981 59.9267 128.103 66.8787 119.494 66.8787ZM116.722 33.5854C113.95 33.5854 112.228 34.5827 110.974 35.9614L111.032 53.9134C112.199 55.204 113.892 56.2014 116.722 56.2014C121.158 56.2014 124.134 51.3614 124.134 44.8494C124.134 38.5427 121.099 33.5854 116.722 33.5854ZM82.4059 23.6707H94.4574V66.028H82.4059V23.6707ZM82.4059 9.88403L94.4574 7.33203V17.188L82.4059 19.7694V9.91336V9.88403ZM69.7999 37.3107V66.028H57.7775V23.6707H68.5743L68.9244 27.2494C71.8425 22.0574 77.8829 23.1134 79.4878 23.6707V34.788C77.9704 34.2894 72.8055 33.5267 69.7999 37.3107ZM44.8505 51.156C44.8505 58.284 52.4374 56.084 53.9548 55.4387V65.2947C52.3499 66.1747 49.461 66.8787 45.5216 66.8787C43.8798 66.9268 42.2453 66.6387 40.7177 66.0319C39.1901 65.425 37.8013 64.5121 36.6357 63.3487C35.4702 62.1852 34.5523 60.7956 33.9378 59.2643C33.3234 57.733 33.0252 56.0921 33.0616 54.4414L33.0907 15.8094L44.8213 13.2867V23.6707H53.984V34.0254H44.8505V51.1854V51.156ZM30.5228 53.2094C30.5228 61.9214 23.7821 66.8787 13.8024 66.8787C9.32411 66.8753 4.8943 65.9467 0.787875 64.1507V52.6227C4.81479 54.8227 9.83384 56.4654 13.8024 56.4654C16.487 56.4654 18.267 55.7614 18.267 53.532C18.267 47.724 0 49.8947 0 36.5187C0 27.9827 6.65316 22.8787 16.3995 22.8787C20.368 22.8787 24.3366 23.4654 28.3343 25.0787V36.46C24.6399 34.5055 20.5441 33.441 16.3703 33.3507C13.8608 33.3507 12.1683 34.084 12.1683 35.9907C12.1683 41.4174 30.5228 38.836 30.5228 53.2387V53.2094Z" fill="white"/>
</svg>
