<svg width="113" height="56" viewBox="0 0 113 56" fill="none" xmlns="http://www.w3.org/2000/svg">
<path fill-rule="evenodd" clip-rule="evenodd" d="M112.322 31.322H97.1423C97.5001 34.9247 100.156 36.082 103.169 36.082C106.258 36.082 108.744 35.3913 110.796 34.3087V40.506C108.191 41.9917 105.21 42.7044 102.208 42.5593C94.6563 42.5593 89.3453 37.8927 89.3453 28.5967C89.3453 20.7753 93.8465 14.5593 101.21 14.5593C108.593 14.5593 112.435 20.682 112.435 28.5593C112.435 29.306 112.36 30.9113 112.322 31.322ZM101.173 20.8313C99.2328 20.8313 97.0858 22.194 97.0858 25.6473H105.09C105.09 22.194 103.075 20.8313 101.173 20.8313ZM77.1225 42.5593C74.4105 42.5593 72.7531 41.4393 71.6608 40.618L71.6231 49.2607L63.8638 50.8847V15.0633H70.9451L71.0958 16.9673C72.7383 15.4232 74.9152 14.5615 77.179 14.5593C82.6406 14.5593 87.7633 19.4127 87.7633 28.3727C87.7633 38.1353 82.6783 42.5593 77.1225 42.5593ZM75.3333 21.3727C73.5442 21.3727 72.433 22.0073 71.6231 22.8847L71.6608 34.3087C72.4141 35.13 73.5065 35.7647 75.3333 35.7647C78.196 35.7647 80.117 32.6847 80.117 28.5407C80.117 24.5273 78.1583 21.3727 75.3333 21.3727ZM53.1853 15.0633H60.9635V42.018H53.1853V15.0633ZM53.1853 6.29002L60.9635 4.66602V10.938L53.1853 12.5807V6.30868V6.29002ZM45.0493 23.7433V42.018H37.29V15.0633H44.2583L44.4843 17.3407C46.3677 14.0367 50.2662 14.7087 51.302 15.0633V22.138C50.3227 21.8207 46.9892 21.3353 45.0493 23.7433ZM28.9468 32.554C28.9468 37.09 33.8435 35.69 34.8228 35.2793V41.5513C33.787 42.1113 31.9225 42.5593 29.38 42.5593C28.3203 42.59 27.2654 42.4066 26.2795 42.0205C25.2936 41.6343 24.3972 41.0533 23.645 40.313C22.8927 39.5726 22.3003 38.6883 21.9037 37.7138C21.5071 36.7394 21.3147 35.6952 21.3382 34.6447L21.357 10.0607L28.928 8.45535V15.0633H34.8417V21.6527H28.9468V32.5727V32.554ZM19.6997 33.8607C19.6997 39.4047 15.3492 42.5593 8.90816 42.5593C6.01785 42.5572 3.15882 41.9663 0.5085 40.8233V33.4873C3.1075 34.8873 6.34683 35.9327 8.90816 35.9327C10.6408 35.9327 11.7897 35.4847 11.7897 34.066C11.7897 30.37 0 31.7513 0 23.2393C0 17.8073 4.294 14.5593 10.5843 14.5593C13.1457 14.5593 15.707 14.9327 18.2872 15.9593V23.202C15.9028 21.9582 13.2593 21.2808 10.5655 21.2233C8.94583 21.2233 7.8535 21.69 7.8535 22.9033C7.8535 26.3567 19.6997 24.714 19.6997 33.8793V33.8607Z" fill="white"/>
</svg>
