<svg width="1312" height="600" viewBox="0 0 1312 600" fill="none" xmlns="http://www.w3.org/2000/svg">
<rect width="640" height="600" rx="40" fill="white"/>
<rect x="68" y="48" width="504" height="82.2857" rx="11.7551" fill="#202226"/>
<path d="M301.598 94.6352V97H291.267V80.4349H293.838V94.6352H301.598ZM308.658 95.1288C310.518 95.1288 311.895 93.9464 311.895 92.3967V91.352L308.842 91.5472C307.12 91.662 306.339 92.2474 306.339 93.3495C306.339 94.4745 307.315 95.1288 308.658 95.1288ZM308.027 97.2066C305.616 97.2066 303.86 95.7487 303.86 93.4643C303.86 91.2143 305.536 89.9171 308.509 89.7334L311.895 89.5383V88.4592C311.895 87.139 311.023 86.3929 309.335 86.3929C307.958 86.3929 307.005 86.898 306.73 87.7819H304.342C304.594 85.6352 306.615 84.2577 309.45 84.2577C312.584 84.2577 314.352 85.8189 314.352 88.4592V97H311.976V95.2436H311.781C311.034 96.4949 309.668 97.2066 308.027 97.2066ZM324.489 97.2066C322.744 97.2066 321.286 96.4031 320.54 95.0255H320.356V97H317.98V79.6199H320.448V86.4847H320.643C321.309 85.1186 322.778 84.2921 324.489 84.2921C327.657 84.2921 329.654 86.7717 329.654 90.7436C329.654 94.7041 327.645 97.2066 324.489 97.2066ZM323.777 86.5077C321.71 86.5077 320.413 88.1378 320.402 90.7551C320.413 93.3724 321.699 94.9911 323.777 94.9911C325.866 94.9911 327.117 93.3954 327.117 90.7436C327.117 88.1148 325.866 86.5077 323.777 86.5077ZM337.759 86.3584C335.934 86.3584 334.659 87.6441 334.522 89.5957H340.835C340.778 87.6327 339.584 86.3584 337.759 86.3584ZM340.824 93.625H343.2C342.638 95.8635 340.64 97.2411 337.782 97.2411C334.2 97.2411 332.008 94.7844 332.008 90.7895C332.008 86.7946 334.246 84.2577 337.77 84.2577C341.249 84.2577 343.349 86.6339 343.349 90.5599V91.4209H334.522V91.5587C334.602 93.7513 335.876 95.1403 337.851 95.1403C339.343 95.1403 340.365 94.6008 340.824 93.625ZM346.426 97V79.6199H348.894V97H346.426Z" fill="white"/>
<rect x="68" y="153.285" width="504" height="82.2857" rx="11.7551" fill="#202226"/>
<path d="M281.652 192.816V184H284.591V192.816H293.407V195.755H284.591V204.571H281.652V195.755H272.836V192.816H281.652Z" fill="white"/>
<path d="M325.114 199.92V202.285H314.782V185.72H317.354V199.92H325.114ZM332.174 200.414C334.033 200.414 335.411 199.232 335.411 197.682V196.637L332.357 196.832C330.636 196.947 329.855 197.533 329.855 198.635C329.855 199.76 330.831 200.414 332.174 200.414ZM331.542 202.492C329.132 202.492 327.375 201.034 327.375 198.749C327.375 196.499 329.051 195.202 332.025 195.019L335.411 194.823V193.744C335.411 192.424 334.539 191.678 332.851 191.678C331.474 191.678 330.521 192.183 330.245 193.067H327.857C328.11 190.92 330.13 189.543 332.966 189.543C336.1 189.543 337.868 191.104 337.868 193.744V202.285H335.491V200.529H335.296C334.55 201.78 333.184 202.492 331.542 202.492ZM348.004 202.492C346.259 202.492 344.801 201.688 344.055 200.311H343.871V202.285H341.495V184.905H343.963V191.77H344.158C344.824 190.404 346.294 189.577 348.004 189.577C351.173 189.577 353.17 192.057 353.17 196.029C353.17 199.989 351.161 202.492 348.004 202.492ZM347.292 191.793C345.226 191.793 343.929 193.423 343.917 196.04C343.929 198.658 345.215 200.276 347.292 200.276C349.382 200.276 350.633 198.681 350.633 196.029C350.633 193.4 349.382 191.793 347.292 191.793ZM361.275 191.644C359.449 191.644 358.175 192.929 358.037 194.881H364.351C364.294 192.918 363.1 191.644 361.275 191.644ZM364.34 198.91H366.716C366.153 201.149 364.156 202.526 361.298 202.526C357.716 202.526 355.523 200.07 355.523 196.075C355.523 192.08 357.762 189.543 361.286 189.543C364.764 189.543 366.865 191.919 366.865 195.845V196.706H358.037V196.844C358.118 199.036 359.392 200.425 361.366 200.425C362.859 200.425 363.88 199.886 364.34 198.91ZM369.942 202.285V184.905H372.41V202.285H369.942Z" fill="white"/>
<path fill-rule="evenodd" clip-rule="evenodd" d="M534.137 194.285L526.359 186.508L528.437 184.43L538.293 194.285L528.437 204.14L526.359 202.062L534.137 194.285Z" fill="white"/>
<rect x="68" y="258.57" width="504" height="82.2857" rx="11.7551" fill="#F2F3F5"/>
<path d="M301.598 305.206V307.57H291.267V291.005H293.838V305.206H301.598ZM308.658 305.699C310.518 305.699 311.895 304.517 311.895 302.967V301.922L308.842 302.118C307.12 302.232 306.339 302.818 306.339 303.92C306.339 305.045 307.315 305.699 308.658 305.699ZM308.027 307.777C305.616 307.777 303.86 306.319 303.86 304.035C303.86 301.785 305.536 300.487 308.509 300.304L311.895 300.109V299.029C311.895 297.709 311.023 296.963 309.335 296.963C307.958 296.963 307.005 297.468 306.73 298.352H304.342C304.594 296.206 306.615 294.828 309.45 294.828C312.584 294.828 314.352 296.389 314.352 299.029V307.57H311.976V305.814H311.781C311.034 307.065 309.668 307.777 308.027 307.777ZM324.489 307.777C322.744 307.777 321.286 306.973 320.54 305.596H320.356V307.57H317.98V290.19H320.448V297.055H320.643C321.309 295.689 322.778 294.862 324.489 294.862C327.657 294.862 329.654 297.342 329.654 301.314C329.654 305.274 327.645 307.777 324.489 307.777ZM323.777 297.078C321.71 297.078 320.413 298.708 320.402 301.325C320.413 303.943 321.699 305.561 323.777 305.561C325.866 305.561 327.117 303.966 327.117 301.314C327.117 298.685 325.866 297.078 323.777 297.078ZM337.759 296.929C335.934 296.929 334.659 298.214 334.522 300.166H340.835C340.778 298.203 339.584 296.929 337.759 296.929ZM340.824 304.195H343.2C342.638 306.434 340.64 307.811 337.782 307.811C334.2 307.811 332.008 305.355 332.008 301.36C332.008 297.365 334.246 294.828 337.77 294.828C341.249 294.828 343.349 297.204 343.349 301.13V301.991H334.522V302.129C334.602 304.322 335.876 305.711 337.851 305.711C339.343 305.711 340.365 305.171 340.824 304.195ZM346.426 307.57V290.19H348.894V307.57H346.426Z" fill="#ABB1BA"/>
<rect x="68.7347" y="364.59" width="502.531" height="80.8163" rx="11.0204" stroke="#202226" stroke-width="1.46939"/>
<path d="M301.598 410.491V412.855H291.267V396.29H293.838V410.491H301.598ZM308.658 410.984C310.518 410.984 311.895 409.802 311.895 408.252V407.208L308.842 407.403C307.12 407.517 306.339 408.103 306.339 409.205C306.339 410.33 307.315 410.984 308.658 410.984ZM308.027 413.062C305.616 413.062 303.86 411.604 303.86 409.32C303.86 407.07 305.536 405.773 308.509 405.589L311.895 405.394V404.315C311.895 402.994 311.023 402.248 309.335 402.248C307.958 402.248 307.005 402.753 306.73 403.637H304.342C304.594 401.491 306.615 400.113 309.45 400.113C312.584 400.113 314.352 401.674 314.352 404.315V412.855H311.976V411.099H311.781C311.034 412.35 309.668 413.062 308.027 413.062ZM324.489 413.062C322.744 413.062 321.286 412.259 320.54 410.881H320.356V412.855H317.98V395.475H320.448V402.34H320.643C321.309 400.974 322.778 400.148 324.489 400.148C327.657 400.148 329.654 402.627 329.654 406.599C329.654 410.56 327.645 413.062 324.489 413.062ZM323.777 402.363C321.71 402.363 320.413 403.993 320.402 406.611C320.413 409.228 321.699 410.847 323.777 410.847C325.866 410.847 327.117 409.251 327.117 406.599C327.117 403.97 325.866 402.363 323.777 402.363ZM337.759 402.214C335.934 402.214 334.659 403.5 334.522 405.451H340.835C340.778 403.488 339.584 402.214 337.759 402.214ZM340.824 409.48H343.2C342.638 411.719 340.64 413.097 337.782 413.097C334.2 413.097 332.008 410.64 332.008 406.645C332.008 402.65 334.246 400.113 337.77 400.113C341.249 400.113 343.349 402.489 343.349 406.415V407.276H334.522V407.414C334.602 409.607 335.876 410.996 337.851 410.996C339.343 410.996 340.365 410.456 340.824 409.48ZM346.426 412.855V395.475H348.894V412.855H346.426Z" fill="#202226"/>
<rect x="68.7347" y="469.879" width="502.531" height="80.8163" rx="11.0204" stroke="#D8DCE6" stroke-width="1.46939"/>
<path d="M301.598 515.78V518.145H291.267V501.579H293.838V515.78H301.598ZM308.658 516.273C310.518 516.273 311.895 515.091 311.895 513.541V512.497L308.842 512.692C307.12 512.807 306.339 513.392 306.339 514.494C306.339 515.619 307.315 516.273 308.658 516.273ZM308.027 518.351C305.616 518.351 303.86 516.893 303.86 514.609C303.86 512.359 305.536 511.062 308.509 510.878L311.895 510.683V509.604C311.895 508.284 311.023 507.537 309.335 507.537C307.958 507.537 307.005 508.042 306.73 508.926H304.342C304.594 506.78 306.615 505.402 309.45 505.402C312.584 505.402 314.352 506.963 314.352 509.604V518.145H311.976V516.388H311.781C311.034 517.639 309.668 518.351 308.027 518.351ZM324.489 518.351C322.744 518.351 321.286 517.548 320.54 516.17H320.356V518.145H317.98V500.764H320.448V507.629H320.643C321.309 506.263 322.778 505.437 324.489 505.437C327.657 505.437 329.654 507.916 329.654 511.888C329.654 515.849 327.645 518.351 324.489 518.351ZM323.777 507.652C321.71 507.652 320.413 509.282 320.402 511.9C320.413 514.517 321.699 516.136 323.777 516.136C325.866 516.136 327.117 514.54 327.117 511.888C327.117 509.259 325.866 507.652 323.777 507.652ZM337.759 507.503C335.934 507.503 334.659 508.789 334.522 510.74H340.835C340.778 508.777 339.584 507.503 337.759 507.503ZM340.824 514.77H343.2C342.638 517.008 340.64 518.386 337.782 518.386C334.2 518.386 332.008 515.929 332.008 511.934C332.008 507.939 334.246 505.402 337.77 505.402C341.249 505.402 343.349 507.778 343.349 511.704V512.565H334.522V512.703C334.602 514.896 335.876 516.285 337.851 516.285C339.343 516.285 340.365 515.745 340.824 514.77ZM346.426 518.145V500.764H348.894V518.145H346.426Z" fill="#ABB1BA"/>
<rect x="672" width="640" height="600" rx="40" fill="white"/>
<path d="M740 59.7551C740 53.263 745.263 48 751.755 48H1232.24C1238.74 48 1244 53.2629 1244 59.7551V118.531C1244 125.023 1238.74 130.286 1232.24 130.286H751.755C745.263 130.286 740 125.023 740 118.531V59.7551Z" fill="white"/>
<path d="M740 59.7551C740 53.263 745.263 48 751.755 48H1232.24C1238.74 48 1244 53.2629 1244 59.7551V118.531C1244 125.023 1238.74 130.286 1232.24 130.286H751.755C745.263 130.286 740 125.023 740 118.531V59.7551Z" stroke="#D8DCE6" stroke-width="1.46939"/>
<path d="M775.676 95.652V97.5117H765.62V80.9467H767.686V95.652H775.676ZM782.541 95.9964C784.573 95.9964 786.077 94.6648 786.077 92.8969V91.7604L782.748 91.9786C780.865 92.1048 780.038 92.7592 780.038 93.999C780.038 95.2617 781.106 95.9964 782.541 95.9964ZM782.174 97.7298C779.774 97.7298 777.995 96.3064 777.995 94.0449C777.995 91.8293 779.625 90.5551 782.507 90.3829L786.077 90.1648V89.0398C786.077 87.513 785.124 86.675 783.276 86.675C781.795 86.675 780.762 87.2375 780.486 88.2133H778.489C778.753 86.2273 780.704 84.9186 783.345 84.9186C786.364 84.9186 788.051 86.4684 788.051 89.0398V97.5117H786.169V95.6865H785.985C785.181 97.0066 783.827 97.7298 782.174 97.7298ZM797.855 97.7298C796.133 97.7298 794.663 96.9148 793.883 95.5372H793.699V97.5117H791.816V80.2235H793.791V87.0883H793.975C794.652 85.7566 796.156 84.9186 797.855 84.9186C801 84.9186 803.044 87.4326 803.044 91.3242C803.044 95.1928 800.989 97.7298 797.855 97.7298ZM797.396 86.6979C795.146 86.6979 793.745 88.4658 793.745 91.3242C793.745 94.1826 795.146 95.9505 797.396 95.9505C799.657 95.9505 801 94.2171 801 91.3242C801 88.4314 799.657 86.6979 797.396 86.6979ZM811.079 86.6635C809.105 86.6635 807.727 88.1099 807.578 90.3025H814.397C814.351 88.1099 813.042 86.6635 811.079 86.6635ZM814.339 94.3089H816.314C815.717 96.4326 813.811 97.7298 811.102 97.7298C807.67 97.7298 805.523 95.2502 805.523 91.3357C805.523 87.4441 807.704 84.9186 811.102 84.9186C814.443 84.9186 816.475 87.2949 816.475 91.1405V91.8982H807.578V91.99C807.681 94.4352 809.047 95.9849 811.148 95.9849C812.744 95.9849 813.823 95.3995 814.339 94.3089ZM819.689 97.5117V80.2235H821.663V97.5117H819.689Z" fill="#7F838C"/>
<path d="M740 184.04C740 177.548 745.263 172.285 751.755 172.285H1232.24C1238.74 172.285 1244 177.548 1244 184.04V242.816C1244 249.308 1238.74 254.571 1232.24 254.571H751.755C745.263 254.571 740 249.308 740 242.816V184.04Z" fill="white"/>
<path d="M740 184.04C740 177.548 745.263 172.285 751.755 172.285H1232.24C1238.74 172.285 1244 177.548 1244 184.04V242.816C1244 249.308 1238.74 254.571 1232.24 254.571H751.755C745.263 254.571 740 249.308 740 242.816V184.04Z" stroke="#202226" stroke-width="1.46939"/>
<path d="M1202.86 228.122C1194.74 228.122 1188.16 221.544 1188.16 213.428C1188.16 205.313 1194.74 198.734 1202.86 198.734C1210.97 198.734 1217.55 205.313 1217.55 213.428C1217.55 221.544 1210.97 228.122 1202.86 228.122ZM1202.86 211.351L1198.7 207.194L1196.62 209.273L1200.78 213.428L1196.62 217.584L1198.7 219.663L1202.86 215.506L1207.01 219.663L1209.09 217.584L1204.94 213.428L1209.09 209.273L1207.01 207.194L1202.86 211.351Z" fill="#202226"/>
<path d="M772.29 233.941C767.79 233.941 764.977 230.612 764.977 225.274C764.977 219.925 767.778 216.595 772.278 216.595C775.768 216.595 778.489 218.788 778.982 221.979H776.882C776.331 219.844 774.563 218.501 772.278 218.501C769.098 218.501 767.101 221.118 767.101 225.274C767.101 229.43 769.098 232.035 772.29 232.035C774.597 232.035 776.353 230.853 776.882 228.936H778.982C778.431 231.978 775.814 233.941 772.29 233.941ZM787.282 233.769C783.758 233.769 781.577 231.335 781.577 227.363C781.577 223.38 783.758 220.958 787.282 220.958C790.806 220.958 792.987 223.38 792.987 227.363C792.987 231.335 790.806 233.769 787.282 233.769ZM787.282 231.99C789.624 231.99 790.944 230.291 790.944 227.363C790.944 224.425 789.624 222.737 787.282 222.737C784.94 222.737 783.62 224.425 783.62 227.363C783.62 230.291 784.94 231.99 787.282 231.99ZM796.087 233.551V221.176H797.97V223.127H798.153C798.773 221.761 799.978 220.958 801.873 220.958C804.651 220.958 806.2 222.599 806.2 225.538V233.551H804.226V226.02C804.226 223.793 803.285 222.737 801.31 222.737C799.336 222.737 798.061 224.057 798.061 226.227V233.551H796.087ZM810.643 217.973H812.618V221.176H815.373V222.829H812.618V229.831C812.618 231.289 813.169 231.909 814.454 231.909C814.81 231.909 815.005 231.898 815.373 231.863V233.528C814.982 233.597 814.603 233.643 814.213 233.643C811.665 233.643 810.643 232.701 810.643 230.336V222.829H808.646V221.176H810.643V217.973ZM823.11 222.703C821.135 222.703 819.758 224.149 819.609 226.342H826.427C826.382 224.149 825.073 222.703 823.11 222.703ZM826.37 230.348H828.345C827.748 232.472 825.842 233.769 823.133 233.769C819.7 233.769 817.554 231.289 817.554 227.375C817.554 223.483 819.735 220.958 823.133 220.958C826.473 220.958 828.505 223.334 828.505 227.18V227.937H819.609V228.029C819.712 230.474 821.078 232.024 823.179 232.024C824.774 232.024 825.853 231.439 826.37 230.348ZM831.605 233.551V221.176H833.487V223.127H833.671C834.291 221.761 835.496 220.958 837.39 220.958C840.169 220.958 841.718 222.599 841.718 225.538V233.551H839.744V226.02C839.744 223.793 838.802 222.737 836.828 222.737C834.853 222.737 833.579 224.057 833.579 226.227V233.551H831.605ZM846.161 217.973H848.135V221.176H850.89V222.829H848.135V229.831C848.135 231.289 848.686 231.909 849.972 231.909C850.328 231.909 850.523 231.898 850.89 231.863V233.528C850.5 233.597 850.121 233.643 849.731 233.643C847.183 233.643 846.161 232.701 846.161 230.336V222.829H844.163V221.176H846.161V217.973Z" fill="#202226"/>
<path d="M772.815 200.207V201.98H765.066V189.557H766.995V200.207H772.815ZM778.11 200.577C779.505 200.577 780.538 199.69 780.538 198.528V197.744L778.248 197.891C776.956 197.977 776.371 198.416 776.371 199.243C776.371 200.086 777.103 200.577 778.11 200.577ZM777.636 202.135C775.828 202.135 774.511 201.042 774.511 199.329C774.511 197.641 775.768 196.668 777.998 196.531L780.538 196.384V195.575C780.538 194.585 779.883 194.025 778.618 194.025C777.585 194.025 776.87 194.404 776.663 195.067H774.873C775.062 193.457 776.577 192.424 778.704 192.424C781.054 192.424 782.38 193.595 782.38 195.575V201.98H780.598V200.663H780.452C779.892 201.602 778.868 202.135 777.636 202.135ZM789.983 202.135C788.674 202.135 787.581 201.533 787.021 200.5H786.883V201.98H785.101V188.945H786.952V194.094H787.098C787.598 193.069 788.7 192.45 789.983 192.45C792.359 192.45 793.857 194.309 793.857 197.288C793.857 200.259 792.35 202.135 789.983 202.135ZM789.449 194.111C787.899 194.111 786.926 195.334 786.918 197.297C786.926 199.26 787.89 200.474 789.449 200.474C791.016 200.474 791.954 199.277 791.954 197.288C791.954 195.317 791.016 194.111 789.449 194.111ZM799.935 193.999C798.566 193.999 797.611 194.964 797.507 196.427H802.243C802.2 194.955 801.304 193.999 799.935 193.999ZM802.234 199.449H804.016C803.595 201.128 802.096 202.161 799.953 202.161C797.266 202.161 795.622 200.319 795.622 197.323C795.622 194.326 797.301 192.424 799.944 192.424C802.553 192.424 804.128 194.206 804.128 197.15V197.796H797.507V197.899C797.568 199.544 798.523 200.586 800.004 200.586C801.124 200.586 801.89 200.181 802.234 199.449ZM806.436 201.98V188.945H808.287V201.98H806.436Z" fill="#7F838C"/>
<path d="M740 308.325C740 301.833 745.263 296.57 751.755 296.57H1232.24C1238.74 296.57 1244 301.833 1244 308.325V367.101C1244 373.593 1238.74 378.856 1232.24 378.856H751.755C745.263 378.856 740 373.593 740 367.101V308.325Z" fill="#F2F3F5"/>
<path d="M772.29 358.226C767.79 358.226 764.977 354.897 764.977 349.559C764.977 344.21 767.778 340.881 772.278 340.881C775.768 340.881 778.489 343.073 778.982 346.265H776.882C776.331 344.129 774.563 342.786 772.278 342.786C769.098 342.786 767.101 345.404 767.101 349.559C767.101 353.715 769.098 356.321 772.29 356.321C774.597 356.321 776.353 355.138 776.882 353.221H778.982C778.431 356.263 775.814 358.226 772.29 358.226ZM787.282 358.054C783.758 358.054 781.577 355.62 781.577 351.648C781.577 347.665 783.758 345.243 787.282 345.243C790.806 345.243 792.987 347.665 792.987 351.648C792.987 355.62 790.806 358.054 787.282 358.054ZM787.282 356.275C789.624 356.275 790.944 354.576 790.944 351.648C790.944 348.71 789.624 347.022 787.282 347.022C784.94 347.022 783.62 348.71 783.62 351.648C783.62 354.576 784.94 356.275 787.282 356.275ZM796.087 357.836V345.461H797.97V347.412H798.153C798.773 346.046 799.978 345.243 801.873 345.243C804.651 345.243 806.2 346.884 806.2 349.823V357.836H804.226V350.305C804.226 348.078 803.285 347.022 801.31 347.022C799.336 347.022 798.061 348.342 798.061 350.512V357.836H796.087ZM810.643 342.258H812.618V345.461H815.373V347.114H812.618V354.117C812.618 355.574 813.169 356.194 814.454 356.194C814.81 356.194 815.005 356.183 815.373 356.148V357.813C814.982 357.882 814.603 357.928 814.213 357.928C811.665 357.928 810.643 356.986 810.643 354.622V347.114H808.646V345.461H810.643V342.258ZM823.11 346.988C821.135 346.988 819.758 348.434 819.609 350.627H826.427C826.382 348.434 825.073 346.988 823.11 346.988ZM826.37 354.633H828.345C827.748 356.757 825.842 358.054 823.133 358.054C819.7 358.054 817.554 355.574 817.554 351.66C817.554 347.768 819.735 345.243 823.133 345.243C826.473 345.243 828.505 347.619 828.505 351.465V352.222H819.609V352.314C819.712 354.759 821.078 356.309 823.179 356.309C824.774 356.309 825.853 355.724 826.37 354.633ZM831.605 357.836V345.461H833.487V347.412H833.671C834.291 346.046 835.496 345.243 837.39 345.243C840.169 345.243 841.718 346.884 841.718 349.823V357.836H839.744V350.305C839.744 348.078 838.802 347.022 836.828 347.022C834.853 347.022 833.579 348.342 833.579 350.512V357.836H831.605ZM846.161 342.258H848.135V345.461H850.89V347.114H848.135V354.117C848.135 355.574 848.686 356.194 849.972 356.194C850.328 356.194 850.523 356.183 850.89 356.148V357.813C850.5 357.882 850.121 357.928 849.731 357.928C847.183 357.928 846.161 356.986 846.161 354.622V347.114H844.163V345.461H846.161V342.258Z" fill="#7F838C"/>
<path d="M772.815 324.492V326.266H765.066V313.842H766.995V324.492H772.815ZM778.11 324.862C779.505 324.862 780.538 323.975 780.538 322.813V322.03L778.248 322.176C776.956 322.262 776.371 322.701 776.371 323.528C776.371 324.371 777.103 324.862 778.11 324.862ZM777.636 326.421C775.828 326.421 774.511 325.327 774.511 323.614C774.511 321.926 775.768 320.953 777.998 320.816L780.538 320.669V319.86C780.538 318.87 779.883 318.31 778.618 318.31C777.585 318.31 776.87 318.689 776.663 319.352H774.873C775.062 317.742 776.577 316.709 778.704 316.709C781.054 316.709 782.38 317.88 782.38 319.86V326.266H780.598V324.948H780.452C779.892 325.887 778.868 326.421 777.636 326.421ZM789.983 326.421C788.674 326.421 787.581 325.818 787.021 324.785H786.883V326.266H785.101V313.231H786.952V318.379H787.098C787.598 317.355 788.7 316.735 789.983 316.735C792.359 316.735 793.857 318.594 793.857 321.573C793.857 324.544 792.35 326.421 789.983 326.421ZM789.449 318.396C787.899 318.396 786.926 319.619 786.918 321.582C786.926 323.545 787.89 324.759 789.449 324.759C791.016 324.759 791.954 323.562 791.954 321.573C791.954 319.602 791.016 318.396 789.449 318.396ZM799.935 318.284C798.566 318.284 797.611 319.249 797.507 320.712H802.243C802.2 319.24 801.304 318.284 799.935 318.284ZM802.234 323.734H804.016C803.595 325.413 802.096 326.446 799.953 326.446C797.266 326.446 795.622 324.604 795.622 321.608C795.622 318.612 797.301 316.709 799.944 316.709C802.553 316.709 804.128 318.491 804.128 321.436V322.081H797.507V322.185C797.568 323.829 798.523 324.871 800.004 324.871C801.124 324.871 801.89 324.466 802.234 323.734ZM806.436 326.266V313.231H808.287V326.266H806.436Z" fill="#ABB1BA"/>
<path d="M740 432.611C740 426.118 745.263 420.855 751.755 420.855H1232.24C1238.74 420.855 1244 426.118 1244 432.611V491.386C1244 497.878 1238.74 503.141 1232.24 503.141H751.755C745.263 503.141 740 497.878 740 491.386V432.611Z" fill="white"/>
<path d="M740 432.611C740 426.118 745.263 420.855 751.755 420.855H1232.24C1238.74 420.855 1244 426.118 1244 432.611V491.386C1244 497.878 1238.74 503.141 1232.24 503.141H751.755C745.263 503.141 740 497.878 740 491.386V432.611Z" stroke="#C50D0D" stroke-width="1.46939"/>
<rect x="740" y="514.609" width="176.898" height="35.2653" rx="11.7551" fill="#FFE0E0"/>
<circle cx="757.63" cy="532.243" r="11.7551" fill="#C50D0D"/>
<path fill-rule="evenodd" clip-rule="evenodd" d="M759.095 524.898H756.156V533.715H759.095V524.898ZM759.095 536.654H756.156V539.592H759.095V536.654Z" fill="white"/>
<path d="M790.585 536.486V538.242H782.699V525.818H790.585V527.575H784.628V531.088H790.267V532.758H784.628V536.486H790.585ZM793.16 538.242V528.866H794.942V530.304H795.08C795.347 529.383 796.388 528.711 797.611 528.711C797.886 528.711 798.239 528.737 798.437 528.789V530.614C798.283 530.562 797.732 530.502 797.404 530.502C796.001 530.502 795.011 531.389 795.011 532.706V538.242H793.16ZM800.357 538.242V528.866H802.14V530.304H802.277C802.544 529.383 803.586 528.711 804.809 528.711C805.084 528.711 805.437 528.737 805.635 528.789V530.614C805.48 530.562 804.929 530.502 804.602 530.502C803.199 530.502 802.209 531.389 802.209 532.706V538.242H800.357ZM811.137 538.423C808.39 538.423 806.711 536.589 806.711 533.55C806.711 530.528 808.399 528.685 811.137 528.685C813.866 528.685 815.554 530.528 815.554 533.55C815.554 536.589 813.875 538.423 811.137 538.423ZM811.137 536.779C812.738 536.779 813.651 535.59 813.651 533.55C813.651 531.518 812.738 530.33 811.137 530.33C809.527 530.33 808.623 531.518 808.623 533.55C808.623 535.599 809.527 536.779 811.137 536.779ZM817.783 538.242V528.866H819.566V530.304H819.703C819.97 529.383 821.012 528.711 822.235 528.711C822.51 528.711 822.863 528.737 823.061 528.789V530.614C822.906 530.562 822.355 530.502 822.028 530.502C820.625 530.502 819.635 531.389 819.635 532.706V538.242H817.783ZM829.665 538.242V528.866H831.447V530.373H831.585C831.998 529.314 832.945 528.685 834.194 528.685C835.476 528.685 836.363 529.348 836.776 530.373H836.923C837.396 529.348 838.473 528.685 839.773 528.685C841.667 528.685 842.769 529.831 842.769 531.785V538.242H840.918V532.267C840.918 531.001 840.315 530.382 839.101 530.382C837.904 530.382 837.121 531.243 837.121 532.345V538.242H835.304V532.086C835.304 531.027 834.598 530.382 833.496 530.382C832.368 530.382 831.516 531.303 831.516 532.508V538.242H829.665ZM849.217 530.261C847.849 530.261 846.893 531.225 846.79 532.689H851.525C851.482 531.217 850.586 530.261 849.217 530.261ZM851.516 535.711H853.298C852.877 537.39 851.379 538.423 849.235 538.423C846.548 538.423 844.904 536.581 844.904 533.584C844.904 530.588 846.583 528.685 849.226 528.685C851.835 528.685 853.41 530.468 853.41 533.412V534.058H846.79V534.161C846.85 535.806 847.805 536.847 849.286 536.847C850.406 536.847 851.172 536.443 851.516 535.711ZM855.416 531.518C855.416 529.856 856.94 528.685 859.058 528.685C861.168 528.685 862.545 529.667 862.726 531.32H860.952C860.78 530.631 860.109 530.192 859.058 530.192C858.025 530.192 857.242 530.683 857.242 531.415C857.242 531.974 857.715 532.327 858.731 532.56L860.29 532.921C862.072 533.335 862.907 534.101 862.907 535.478C862.907 537.243 861.262 538.423 859.024 538.423C856.794 538.423 855.339 537.416 855.175 535.754H857.026C857.259 536.477 857.948 536.925 859.067 536.925C860.221 536.925 861.039 536.408 861.039 535.659C861.039 535.1 860.599 534.738 859.661 534.514L858.025 534.135C856.243 533.713 855.416 532.913 855.416 531.518ZM864.749 531.518C864.749 529.856 866.273 528.685 868.391 528.685C870.501 528.685 871.878 529.667 872.059 531.32H870.285C870.113 530.631 869.442 530.192 868.391 530.192C867.358 530.192 866.575 530.683 866.575 531.415C866.575 531.974 867.048 532.327 868.064 532.56L869.622 532.921C871.405 533.335 872.24 534.101 872.24 535.478C872.24 537.243 870.595 538.423 868.357 538.423C866.127 538.423 864.672 537.416 864.508 535.754H866.359C866.592 536.477 867.281 536.925 868.4 536.925C869.554 536.925 870.371 536.408 870.371 535.659C870.371 535.1 869.932 534.738 868.994 534.514L867.358 534.135C865.576 533.713 864.749 532.913 864.749 531.518ZM877.535 536.839C878.93 536.839 879.963 535.952 879.963 534.79V534.006L877.673 534.153C876.381 534.239 875.796 534.678 875.796 535.504C875.796 536.348 876.527 536.839 877.535 536.839ZM877.061 538.397C875.253 538.397 873.936 537.304 873.936 535.59C873.936 533.903 875.193 532.93 877.423 532.792L879.963 532.646V531.837C879.963 530.846 879.308 530.287 878.043 530.287C877.01 530.287 876.295 530.666 876.088 531.329H874.298C874.487 529.719 876.002 528.685 878.129 528.685C880.479 528.685 881.805 529.856 881.805 531.837V538.242H880.023V536.925H879.877C879.317 537.863 878.292 538.397 877.061 538.397ZM888.366 536.503C889.95 536.503 890.906 535.315 890.906 533.438C890.906 531.57 889.941 530.373 888.366 530.373C886.773 530.373 885.878 531.57 885.878 533.438C885.878 535.306 886.773 536.503 888.366 536.503ZM888.392 541.824C886.05 541.824 884.534 540.773 884.336 539.181H886.231C886.386 539.861 887.169 540.3 888.417 540.3C889.959 540.3 890.871 539.568 890.871 538.328V536.529H890.733C890.165 537.545 889.132 538.104 887.841 538.104C885.447 538.104 883.966 536.253 883.966 533.447C883.966 530.588 885.464 528.711 887.858 528.711C889.149 528.711 890.277 529.348 890.802 530.364H890.949V528.866H892.722V538.32C892.722 540.463 891.043 541.824 888.392 541.824ZM899.257 530.261C897.888 530.261 896.932 531.225 896.829 532.689H901.564C901.521 531.217 900.626 530.261 899.257 530.261ZM901.556 535.711H903.338C902.916 537.39 901.418 538.423 899.274 538.423C896.588 538.423 894.944 536.581 894.944 533.584C894.944 530.588 896.622 528.685 899.266 528.685C901.874 528.685 903.45 530.468 903.45 533.412V534.058H896.829V534.161C896.889 535.806 897.845 536.847 899.326 536.847C900.445 536.847 901.211 536.443 901.556 535.711Z" fill="#C50D0D"/>
<path d="M772.29 482.511C767.79 482.511 764.977 479.182 764.977 473.844C764.977 468.495 767.778 465.166 772.278 465.166C775.768 465.166 778.489 467.358 778.982 470.55H776.882C776.331 468.414 774.563 467.071 772.278 467.071C769.098 467.071 767.101 469.689 767.101 473.844C767.101 478 769.098 480.606 772.29 480.606C774.597 480.606 776.353 479.423 776.882 477.506H778.982C778.431 480.548 775.814 482.511 772.29 482.511ZM787.282 482.339C783.758 482.339 781.577 479.906 781.577 475.934C781.577 471.95 783.758 469.528 787.282 469.528C790.806 469.528 792.987 471.95 792.987 475.934C792.987 479.906 790.806 482.339 787.282 482.339ZM787.282 480.56C789.624 480.56 790.944 478.861 790.944 475.934C790.944 472.995 789.624 471.307 787.282 471.307C784.94 471.307 783.62 472.995 783.62 475.934C783.62 478.861 784.94 480.56 787.282 480.56ZM796.087 482.121V469.746H797.97V471.698H798.153C798.773 470.332 799.978 469.528 801.873 469.528C804.651 469.528 806.2 471.17 806.2 474.108V482.121H804.226V474.59C804.226 472.363 803.285 471.307 801.31 471.307C799.336 471.307 798.061 472.627 798.061 474.797V482.121H796.087ZM810.643 466.543H812.618V469.746H815.373V471.399H812.618V478.402C812.618 479.86 813.169 480.48 814.454 480.48C814.81 480.48 815.005 480.468 815.373 480.434V482.098C814.982 482.167 814.603 482.213 814.213 482.213C811.665 482.213 810.643 481.272 810.643 478.907V471.399H808.646V469.746H810.643V466.543ZM823.11 471.273C821.135 471.273 819.758 472.719 819.609 474.912H826.427C826.382 472.719 825.073 471.273 823.11 471.273ZM826.37 478.918H828.345C827.748 481.042 825.842 482.339 823.133 482.339C819.7 482.339 817.554 479.86 817.554 475.945C817.554 472.053 819.735 469.528 823.133 469.528C826.473 469.528 828.505 471.904 828.505 475.75V476.508H819.609V476.599C819.712 479.045 821.078 480.594 823.179 480.594C824.774 480.594 825.853 480.009 826.37 478.918ZM831.605 482.121V469.746H833.487V471.698H833.671C834.291 470.332 835.496 469.528 837.39 469.528C840.169 469.528 841.718 471.17 841.718 474.108V482.121H839.744V474.59C839.744 472.363 838.802 471.307 836.828 471.307C834.853 471.307 833.579 472.627 833.579 474.797V482.121H831.605ZM846.161 466.543H848.135V469.746H850.89V471.399H848.135V478.402C848.135 479.86 848.686 480.48 849.972 480.48C850.328 480.48 850.523 480.468 850.89 480.434V482.098C850.5 482.167 850.121 482.213 849.731 482.213C847.183 482.213 846.161 481.272 846.161 478.907V471.399H844.163V469.746H846.161V466.543Z" fill="#202226"/>
<path d="M772.815 448.777V450.551H765.066V438.127H766.995V448.777H772.815ZM778.11 449.147C779.505 449.147 780.538 448.261 780.538 447.098V446.315L778.248 446.461C776.956 446.547 776.371 446.986 776.371 447.813C776.371 448.657 777.103 449.147 778.11 449.147ZM777.636 450.706C775.828 450.706 774.511 449.612 774.511 447.899C774.511 446.211 775.768 445.239 777.998 445.101L780.538 444.954V444.145C780.538 443.155 779.883 442.595 778.618 442.595C777.585 442.595 776.87 442.974 776.663 443.637H774.873C775.062 442.027 776.577 440.994 778.704 440.994C781.054 440.994 782.38 442.165 782.38 444.145V450.551H780.598V449.233H780.452C779.892 450.172 778.868 450.706 777.636 450.706ZM789.983 450.706C788.674 450.706 787.581 450.103 787.021 449.07H786.883V450.551H785.101V437.516H786.952V442.664H787.098C787.598 441.64 788.7 441.02 789.983 441.02C792.359 441.02 793.857 442.88 793.857 445.858C793.857 448.829 792.35 450.706 789.983 450.706ZM789.449 442.682C787.899 442.682 786.926 443.904 786.918 445.867C786.926 447.83 787.89 449.044 789.449 449.044C791.016 449.044 791.954 447.847 791.954 445.858C791.954 443.887 791.016 442.682 789.449 442.682ZM799.935 442.57C798.566 442.57 797.611 443.534 797.507 444.998H802.243C802.2 443.525 801.304 442.57 799.935 442.57ZM802.234 448.02H804.016C803.595 449.698 802.096 450.732 799.953 450.732C797.266 450.732 795.622 448.889 795.622 445.893C795.622 442.897 797.301 440.994 799.944 440.994C802.553 440.994 804.128 442.776 804.128 445.721V446.366H797.507V446.47C797.568 448.114 798.523 449.156 800.004 449.156C801.124 449.156 801.89 448.751 802.234 448.02ZM806.436 450.551V437.516H808.287V450.551H806.436Z" fill="#C50D0D"/>
</svg>
