<svg width="1440" height="468" viewBox="0 0 1440 468" fill="none" xmlns="http://www.w3.org/2000/svg">
<path d="M1338.9 341.206L1363.51 356.281L1364.26 327.423L1338.9 341.206ZM736.068 180.952C825.96 178.473 1066.74 210.88 1308.54 360.629L1311.17 356.378C1068.49 206.085 826.74 173.449 735.93 175.954L736.068 180.952ZM1308.54 360.629C1367.33 397.04 1413.85 414.974 1447.19 421.122C1463.85 424.195 1477.34 424.346 1487.46 422.303C1497.53 420.27 1504.68 415.968 1507.91 409.765C1511.2 403.447 1510.02 395.991 1505.25 388.692C1500.5 381.409 1492.02 373.968 1479.93 367.146C1455.73 353.484 1416.5 341.969 1361.49 339.29L1361.25 344.284C1415.75 346.938 1454.16 358.335 1477.48 371.5C1489.15 378.092 1496.9 385.044 1501.07 391.426C1505.22 397.791 1505.66 403.271 1503.48 407.454C1501.24 411.751 1495.83 415.513 1486.47 417.402C1477.18 419.278 1464.37 419.207 1448.1 416.205C1415.57 410.206 1369.64 392.586 1311.17 356.378L1308.54 360.629Z" fill="#E7EFFB"/>
<path d="M1350.73 90.1208L1378.8 83.3721L1358.92 62.4392L1350.73 90.1208ZM811.148 403.067C872.958 337.751 1066.13 190.413 1343 125.32L1341.85 120.452C1063.98 185.782 869.957 333.648 807.516 399.631L811.148 403.067ZM1343 125.32C1410.32 109.493 1455.89 89.2796 1483.81 70.0535C1497.77 60.4454 1507.41 51.0164 1513.13 42.4115C1518.81 33.8551 1520.82 25.7585 1518.72 19.0863C1516.58 12.2917 1510.47 7.85578 1501.94 6.06489C1493.43 4.27793 1482.17 5.01362 1468.8 8.73438C1442.03 16.1854 1406.14 35.7834 1365.35 72.7886L1368.71 76.4919C1409.13 39.8286 1444.34 20.7314 1470.14 13.5513C1483.06 9.95651 1493.45 9.39257 1500.91 10.9583C1508.35 12.52 1512.53 16.089 1513.95 20.588C1515.41 25.2093 1514.24 31.6948 1508.96 39.6454C1503.71 47.5475 1494.61 56.5504 1480.98 65.9353C1453.73 84.6954 1408.8 104.713 1341.85 120.452L1343 125.32Z" fill="#E7EFFB"/>
<path d="M90.2325 183.173L89.05 180.97L90.2325 183.173ZM90.9117 233.019L65.648 246.986L90.3757 261.881L90.9117 233.019ZM89.05 180.97C-1.70708 229.695 -59.0448 276.282 -91.1642 314.414C-107.217 333.472 -117.053 350.515 -121.553 364.744C-126.036 378.921 -125.331 390.721 -119.575 398.755C-113.766 406.862 -103.399 410.344 -90.3952 409.143C-77.3872 407.941 -61.3474 402.054 -43.3555 390.907C-7.34363 368.595 37.0175 324.883 81.446 253.577L77.2023 250.933C33.0432 321.807 -10.8192 364.866 -45.9889 386.657C-63.5877 397.56 -78.8782 403.057 -90.8552 404.164C-102.837 405.271 -111.109 401.986 -115.51 395.843C-119.963 389.628 -121.038 379.697 -116.786 366.251C-112.55 352.858 -103.136 336.388 -87.34 317.635C-55.7605 280.144 0.998853 233.918 91.415 185.376L89.05 180.97ZM282.548 60.9612C223.452 102.878 158.941 143.448 89.05 180.97L91.415 185.376C161.499 147.749 226.186 107.068 285.441 65.0395L282.548 60.9612Z" fill="#E7EFFB"/>
</svg>
