<svg width="558" height="558" viewBox="0 0 558 558" fill="none" xmlns="http://www.w3.org/2000/svg">
<rect width="558" height="558" fill="white"/>
<g filter="url(#filter0_d)">
<path d="M446.248 211.341C484.58 173.875 463.104 92.3251 410.049 84.8929C375.169 80.006 324.449 95.7866 288.757 117.37C224.481 156.211 157.514 252.982 140.557 265.25C123.599 277.518 74.3516 317.173 62.5727 347.869C50.7939 378.565 39.7766 470.092 112.227 473.045C184.677 475.997 228.898 472.23 292.21 435.731C355.521 399.232 370.701 301.902 402.585 256.443C413.603 240.714 446.248 211.341 446.248 211.341Z" fill="#F3F7FF"/>
<path d="M490.522 360.291H88.6704V367.163H490.522V360.291Z" fill="#3E337A"/>
<path d="M490.571 367.417H88.6691C88.5168 367.417 88.4152 367.315 88.4152 367.162V360.29C88.4152 360.137 88.5168 360.036 88.6691 360.036H490.571C490.724 360.036 490.825 360.137 490.825 360.29V367.162C490.825 367.315 490.673 367.417 490.571 367.417ZM88.9229 366.908H490.267V360.545H88.9229V366.908Z" fill="#3B3375"/>
<path d="M113.853 442.808V367.162H132.486V430.845" fill="white"/>
<path d="M113.851 443.061C113.699 443.061 113.598 442.96 113.598 442.807V367.162C113.598 367.009 113.699 366.907 113.851 366.907H132.484C132.637 366.907 132.738 367.009 132.738 367.162V430.844C132.738 430.997 132.637 431.099 132.484 431.099C132.332 431.099 132.23 430.997 132.23 430.844V367.416H114.105V442.807C114.105 442.909 113.953 443.061 113.851 443.061Z" fill="#3B3375"/>
<path d="M443.304 431.15V367.162H462.191V445.76" fill="white"/>
<path d="M462.19 446.014C462.038 446.014 461.936 445.912 461.936 445.759V367.416H443.557V431.15C443.557 431.302 443.456 431.404 443.303 431.404C443.151 431.404 443.05 431.302 443.05 431.15V367.162C443.05 367.009 443.151 366.907 443.303 366.907H462.19C462.342 366.907 462.444 367.009 462.444 367.162V445.759C462.444 445.861 462.342 446.014 462.19 446.014Z" fill="#3B3375"/>
<path d="M443.102 367.162H132.486V406.461H443.102V367.162Z" fill="white"/>
<path d="M443.101 406.715H132.484C132.332 406.715 132.231 406.613 132.231 406.461V367.162C132.231 367.009 132.332 366.907 132.484 366.907H443.101C443.253 366.907 443.355 367.009 443.355 367.162V406.461C443.355 406.562 443.202 406.715 443.101 406.715ZM132.738 406.206H442.847V367.416H132.738V406.206Z" fill="#3B3375"/>
<path d="M322.824 401.371H233.619C231.284 401.371 229.405 399.487 229.405 397.146V375.918C229.405 373.576 231.284 371.693 233.619 371.693H322.824C325.159 371.693 327.038 373.576 327.038 375.918V397.146C327.038 399.436 325.159 401.371 322.824 401.371ZM233.619 372.202C231.588 372.202 229.913 373.882 229.913 375.918V397.146C229.913 399.182 231.588 400.862 233.619 400.862H322.824C324.854 400.862 326.53 399.182 326.53 397.146V375.918C326.53 373.882 324.854 372.202 322.824 372.202H233.619ZM288.756 390.426H285.304C285.152 390.426 285.05 390.324 285.05 390.172V388.39H270.834V390.121C270.834 390.273 270.733 390.375 270.58 390.375H268.143C267.991 390.375 267.889 390.273 267.889 390.121V383.299C267.889 383.147 267.991 383.045 268.143 383.045H288.756C288.909 383.045 289.01 383.147 289.01 383.299V390.172C289.01 390.223 288.959 390.324 288.959 390.375C288.959 390.426 288.807 390.426 288.756 390.426ZM285.558 389.917H288.502V383.554H268.397V389.866H270.327V388.135C270.327 387.983 270.428 387.881 270.58 387.881H285.304C285.456 387.881 285.558 387.983 285.558 388.135V389.917Z" fill="#3B3375"/>
<path d="M288.757 390.426H285.305C285.152 390.426 285.051 390.324 285.051 390.172V388.39H270.835V390.121C270.835 390.273 270.733 390.375 270.581 390.375H268.144C267.992 390.375 267.89 390.273 267.89 390.121V383.299C267.89 383.147 267.992 383.045 268.144 383.045H288.757C288.909 383.045 289.011 383.147 289.011 383.299V390.172C289.011 390.273 288.909 390.426 288.757 390.426ZM285.558 389.917H288.503V383.554H268.398V389.866H270.327V388.135C270.327 387.983 270.429 387.881 270.581 387.881H285.305C285.457 387.881 285.558 387.983 285.558 388.135V389.917Z" fill="#3B3375"/>
<path d="M286.168 388.237H269.819C269.667 388.237 269.566 388.135 269.566 387.983C269.566 387.83 269.667 387.728 269.819 387.728H286.168C286.32 387.728 286.421 387.83 286.421 387.983C286.421 388.135 286.269 388.237 286.168 388.237Z" fill="#3B3375"/>
<path d="M288.757 383.757H268.144C267.992 383.757 267.89 383.655 267.89 383.503C267.89 383.35 267.992 383.248 268.144 383.248H288.757C288.909 383.248 289.011 383.35 289.011 383.503C289.011 383.655 288.909 383.757 288.757 383.757Z" fill="#3B3375"/>
<path d="M386.645 142.162H175.692C169.6 142.162 164.675 147.1 164.624 153.209V291.162H397.662V153.209C397.662 147.1 392.738 142.162 386.645 142.162ZM386.747 281.541H175.54V151.682H386.747V281.541Z" fill="#3E337A"/>
<path d="M397.661 291.415H164.622C164.47 291.415 164.368 291.314 164.368 291.161V153.208C164.368 146.998 169.445 141.907 175.639 141.907H386.593C392.787 141.907 397.864 146.998 397.864 153.208V291.161C397.915 291.263 397.813 291.415 397.661 291.415ZM164.876 290.906H397.407V153.208C397.407 147.252 392.584 142.416 386.643 142.416H175.69C169.75 142.416 164.927 147.252 164.927 153.208V290.906H164.876ZM386.745 281.794H175.538C175.386 281.794 175.284 281.693 175.284 281.54V151.681C175.284 151.528 175.386 151.426 175.538 151.426H386.745C386.897 151.426 386.999 151.528 386.999 151.681V281.54C386.999 281.693 386.897 281.794 386.745 281.794ZM175.792 281.285H386.491V151.935H175.792V281.285Z" fill="#3B3375"/>
<path d="M386.999 281.794H175.284V151.426H386.999V281.794ZM175.792 281.285H386.491V151.935H175.792V281.285Z" fill="#3B3375"/>
<path d="M397.661 291.162V307.4C397.661 313.509 392.737 318.447 386.644 318.447H175.691C169.599 318.447 164.674 313.509 164.623 307.4V291.162H397.661Z" fill="white"/>
<path d="M175.689 318.701C172.694 318.701 169.851 317.53 167.718 315.392C165.586 313.254 164.418 310.403 164.418 307.4V290.907H397.964V307.4C397.964 313.661 392.887 318.701 386.693 318.701H175.689ZM164.875 291.416V307.4C164.875 310.302 165.992 313 168.023 315.036C170.054 317.072 172.745 318.192 175.639 318.192H386.592C392.532 318.192 397.355 313.356 397.355 307.4V291.416H164.875Z" fill="#3B3375"/>
<path d="M386.746 151.681H175.539V281.54H386.746V151.681Z" fill="white"/>
<path d="M386.999 281.794H175.284V151.426H386.999V281.794ZM175.792 281.285H386.491V151.935H175.792V281.285Z" fill="#3B3375"/>
<path d="M320.592 360.291H240.932C240.932 357.237 243.42 354.742 246.517 354.691H315.058C318.104 354.742 320.541 357.237 320.592 360.291Z" fill="white"/>
<path d="M320.844 360.545H240.677V360.29C240.677 357.083 243.317 354.487 246.465 354.487H315.005C318.204 354.487 320.793 357.134 320.793 360.29L320.844 360.545ZM241.184 360.036H320.336C320.184 357.236 317.848 354.996 315.056 354.945H246.515C243.672 354.996 241.337 357.236 241.184 360.036Z" fill="#3B3375"/>
<path d="M309.88 354.741H252.458L257.941 318.446H304.6L309.88 354.741Z" fill="white"/>
<path d="M310.132 354.995H252.151L257.736 318.191H304.801L310.132 354.995ZM252.761 354.486H309.573L304.394 318.7H258.193L252.761 354.486Z" fill="#3B3375"/>
<path d="M200.117 307.758H226.721C226.721 307.758 229.564 323.743 222.304 329.139H195.192C197.731 326.593 199.406 323.335 200.117 319.772C201.133 314.172 200.117 307.758 200.117 307.758Z" fill="#F3F2FC"/>
<path d="M222.4 329.39H194.577L194.983 328.932C197.471 326.387 199.147 323.231 199.807 319.718C200.771 314.17 199.807 307.857 199.807 307.756L199.756 307.45H226.868L226.918 307.654C226.918 307.705 227.629 311.726 227.426 316.358C227.172 322.569 225.446 326.998 222.4 329.288V329.39ZM195.796 328.881H222.247C228.746 323.943 226.817 309.894 226.512 308.01H200.416C200.568 309.334 201.228 314.882 200.365 319.82C199.705 323.231 198.131 326.336 195.796 328.881Z" fill="#3B3375"/>
<path d="M194.429 310.199C194.531 311.675 198.085 322.366 189.301 330.969H162.951C162.951 330.969 169.552 327.761 169.805 320.584C170.059 313.406 167.013 310.199 167.013 310.199H194.429Z" fill="#F7FAFF"/>
<path d="M189.347 331.274H161.778L162.794 330.765C162.845 330.714 169.242 327.558 169.496 320.584C169.749 313.61 166.805 310.403 166.754 310.403L166.348 309.995H194.627V310.25C194.627 310.403 194.678 310.708 194.779 311.064C195.389 314.119 197.318 323.536 189.398 331.223L189.347 331.274ZM163.809 330.765H189.144C196.76 323.231 194.932 314.119 194.323 311.115C194.272 310.861 194.221 310.657 194.221 310.454H167.516C168.328 311.574 170.257 314.781 170.054 320.584C169.8 326.336 165.637 329.594 163.809 330.765Z" fill="#3B3375"/>
<path d="M343.592 336.009C343.592 338.096 345.521 339.776 347.958 339.776H402.587V342.779H347.958C343.541 342.779 339.936 339.725 339.936 335.958C339.936 332.191 343.541 329.136 347.958 329.136H402.587V332.242L398.424 332.191H347.958V332.242C345.572 332.242 343.592 333.922 343.592 336.009Z" fill="#F09956"/>
<path d="M402.585 343.033H347.956C343.387 343.033 339.68 339.877 339.68 335.957C339.68 332.038 343.387 328.882 347.956 328.882H402.585C402.738 328.882 402.839 328.983 402.839 329.136V332.241C402.839 332.292 402.789 332.394 402.789 332.445C402.738 332.496 402.687 332.496 402.585 332.496L398.422 332.445H348.058C348.007 332.445 347.956 332.496 347.956 332.496C345.722 332.496 343.844 334.074 343.844 336.008C343.844 337.943 345.671 339.521 347.956 339.521H402.585C402.738 339.521 402.839 339.623 402.839 339.775V342.779C402.839 342.881 402.738 343.033 402.585 343.033ZM347.956 329.391C343.691 329.391 340.188 332.343 340.188 335.957C340.188 339.572 343.691 342.524 347.956 342.524H402.332V340.03H347.956C345.417 340.03 343.336 338.248 343.336 336.008C343.336 333.819 345.316 332.038 347.804 331.987C347.854 331.936 347.905 331.936 347.905 331.936H398.372L402.281 331.987V329.391H347.956Z" fill="#3B3375"/>
<path d="M398.425 332.193V339.778H347.958C345.521 339.778 343.592 338.098 343.592 336.011C343.592 333.924 345.521 332.244 347.958 332.244V332.193H398.425Z" fill="white"/>
<path d="M398.422 340.029H347.956C345.417 340.029 343.336 338.248 343.336 336.008C343.336 333.819 345.367 332.037 347.855 331.986C347.905 331.935 347.956 331.935 347.956 331.935H398.422C398.575 331.935 398.676 332.037 398.676 332.19V339.775C398.676 339.928 398.575 340.029 398.422 340.029ZM348.058 332.444C348.007 332.444 347.956 332.495 347.956 332.495C345.671 332.495 343.844 334.073 343.844 336.008C343.844 337.942 345.671 339.52 347.956 339.52H398.168V332.444H348.058Z" fill="#3B3375"/>
<path d="M412.892 351.585C412.892 354.233 410.963 357.44 407.917 357.44H337.599V360.239H407.308C412.943 360.239 417.563 356.32 417.563 351.484C417.563 346.648 412.994 342.728 407.308 342.728H337.599V345.528H343.184L407.308 346.648V346.699C410.405 346.749 412.892 348.887 412.892 351.585Z" fill="#F3F7FF"/>
<path d="M407.357 360.493H337.344V357.184H407.865C410.657 357.184 412.637 354.232 412.637 351.534C412.637 348.988 410.251 346.952 407.357 346.952H407.103V346.901L343.233 345.781H337.395V342.473H407.357C413.145 342.473 417.866 346.494 417.866 351.483C417.816 356.471 413.145 360.493 407.357 360.493ZM337.852 359.984H407.306C412.789 359.984 417.308 356.166 417.308 351.483C417.308 346.799 412.84 342.982 407.306 342.982H337.852V345.272H343.183L407.56 346.392V346.443C410.657 346.545 413.094 348.785 413.094 351.534C413.094 354.486 410.962 357.693 407.814 357.693H337.852V359.984Z" fill="#3B3375"/>
<path d="M339.782 345.578V357.49H407.917C411.166 357.388 413.755 354.69 413.654 351.381C413.552 348.225 411.065 345.731 407.917 345.629V345.578H339.782Z" fill="white"/>
<path d="M339.782 357.693C339.629 357.693 339.528 357.592 339.528 357.439V345.527C339.528 345.374 339.629 345.273 339.782 345.273H407.916C407.967 345.273 408.068 345.323 408.068 345.323C411.267 345.476 413.806 348.123 413.856 351.33C413.907 352.959 413.298 354.537 412.181 355.759C411.064 356.981 409.541 357.643 407.865 357.693H339.782ZM340.035 357.184H407.916C409.439 357.134 410.81 356.523 411.876 355.403C412.942 354.283 413.45 352.857 413.399 351.33C413.298 348.327 410.912 345.934 407.916 345.833C407.865 345.833 407.815 345.833 407.764 345.782H340.035V357.184Z" fill="#3B3375"/>
<path d="M107.262 315.464L102.575 316.037L104.125 328.719L108.812 328.146L107.262 315.464Z" fill="white"/>
<path d="M104.155 328.983C104.054 328.983 103.901 328.881 103.901 328.779L102.378 316.104C102.378 315.951 102.48 315.849 102.581 315.798L107.303 315.238C107.354 315.238 107.455 315.238 107.506 315.289C107.557 315.34 107.608 315.391 107.608 315.442L109.131 328.117C109.131 328.168 109.131 328.27 109.08 328.321C109.029 328.372 108.978 328.423 108.928 328.423L104.155 328.983ZM102.886 316.256L104.358 328.423L108.572 327.914L107.1 315.747L102.886 316.256Z" fill="#3B3375"/>
<path d="M107.557 310.301L108.166 315.443C108.217 315.697 108.014 315.952 107.76 316.003L107.354 316.054L107.303 315.494L102.581 316.054L102.683 316.614L102.277 316.664C102.023 316.664 101.82 316.461 101.769 316.206L101.16 311.065C101.109 310.81 101.312 310.556 101.566 310.505L107.049 309.843C107.303 309.843 107.506 310.047 107.557 310.301Z" fill="white"/>
<path d="M102.326 316.918C101.92 316.918 101.615 316.613 101.564 316.256L100.955 311.115C100.904 310.708 101.158 310.351 101.564 310.301L107.048 309.639C107.454 309.639 107.809 309.893 107.86 310.301L108.469 315.442C108.52 315.849 108.266 316.206 107.86 316.256L107.454 316.307C107.302 316.307 107.2 316.206 107.149 316.104L107.098 315.798L102.884 316.307L102.935 316.613C102.935 316.664 102.935 316.766 102.884 316.816C102.834 316.867 102.783 316.918 102.732 316.918H102.326ZM107.048 310.097L101.615 310.759C101.514 310.759 101.412 310.911 101.412 311.013L102.021 316.155C102.021 316.256 102.174 316.358 102.275 316.358H102.377L102.326 316.053C102.326 316.002 102.326 315.9 102.377 315.849C102.428 315.798 102.478 315.747 102.529 315.747L107.251 315.187C107.403 315.187 107.505 315.289 107.555 315.391L107.606 315.697H107.758C107.86 315.697 107.962 315.544 107.962 315.442L107.352 310.301C107.302 310.199 107.2 310.097 107.048 310.097Z" fill="#3B3375"/>
<path d="M102.837 307.909L105.172 307.604C105.832 307.502 106.391 308.011 106.492 308.622L106.645 309.844L101.923 310.404L101.771 309.182C101.72 308.571 102.177 308.011 102.837 307.909Z" fill="#F09956"/>
<path d="M101.972 310.709C101.922 310.709 101.871 310.709 101.82 310.658C101.769 310.607 101.719 310.556 101.719 310.505L101.566 309.283C101.465 308.52 102.023 307.756 102.836 307.654L105.171 307.349C105.526 307.298 105.933 307.4 106.237 307.654C106.542 307.909 106.745 308.214 106.796 308.622L106.948 309.843C106.948 309.996 106.846 310.098 106.745 310.149L101.972 310.709ZM105.323 307.858C105.273 307.858 105.222 307.858 105.222 307.858L102.886 308.164C102.632 308.214 102.429 308.316 102.277 308.52C102.125 308.723 102.074 308.978 102.074 309.182L102.176 310.149L106.39 309.64L106.288 308.673C106.237 308.418 106.136 308.214 105.933 308.062C105.729 307.909 105.526 307.858 105.323 307.858Z" fill="#3B3375"/>
<path d="M117.254 310.403L116.137 322.264C115.02 321.45 113.497 321.297 112.228 321.908L113.345 309.996C113.446 308.927 114.36 308.163 115.426 308.265H115.528C116.594 308.367 117.356 309.334 117.254 310.403C117.254 310.352 117.254 310.403 117.254 310.403Z" fill="#F09956"/>
<path d="M116.136 322.467C116.085 322.467 116.034 322.467 115.983 322.416C114.917 321.653 113.496 321.5 112.328 322.06C112.226 322.111 112.125 322.111 112.074 322.06C112.023 322.009 111.973 321.907 111.973 321.806L113.089 309.945C113.191 308.774 114.257 307.908 115.425 308.01H115.526C116.745 308.112 117.608 309.181 117.507 310.352L116.39 322.213C116.39 322.315 116.339 322.365 116.237 322.416C116.237 322.467 116.186 322.467 116.136 322.467ZM113.851 321.246C114.562 321.246 115.273 321.449 115.933 321.806L116.999 310.352C117.1 309.436 116.44 308.621 115.526 308.57H115.425C114.511 308.468 113.699 309.13 113.597 310.046L112.531 321.5C112.937 321.347 113.394 321.246 113.851 321.246Z" fill="#3B3375"/>
<path d="M116.137 322.213L115.579 327.864L111.669 327.507L112.177 321.857C113.497 321.246 114.97 321.399 116.137 322.213Z" fill="white"/>
<path d="M115.628 328.169C115.577 328.169 115.577 328.169 115.628 328.169L111.718 327.813C111.566 327.813 111.465 327.66 111.465 327.558L111.972 321.908C111.972 321.806 112.023 321.755 112.125 321.704C113.495 321.093 115.069 321.246 116.288 322.111C116.339 322.162 116.389 322.264 116.389 322.366L115.831 328.016C115.831 328.067 115.78 328.169 115.729 328.169C115.729 328.118 115.679 328.169 115.628 328.169ZM111.972 327.304L115.374 327.609L115.882 322.366C114.866 321.704 113.597 321.551 112.48 322.061L111.972 327.304Z" fill="#3B3375"/>
<path d="M118.268 323.129C118.116 323.129 118.014 322.976 118.014 322.874L118.826 312.948L117.049 312.795C116.897 312.795 116.796 312.642 116.796 312.541C116.796 312.388 116.948 312.286 117.049 312.286L119.08 312.49C119.233 312.49 119.334 312.642 119.334 312.744L118.522 322.925C118.522 323.027 118.42 323.129 118.268 323.129Z" fill="#3B3375"/>
<path d="M123.652 327.966L119.387 327.406L121.012 314.527L121.519 314.374C122.687 313.967 124.007 314.171 125.023 314.883L125.327 315.087L123.652 327.966Z" fill="#3E337A"/>
<path d="M123.65 328.22L119.334 327.66C119.182 327.66 119.081 327.507 119.131 327.355L120.756 314.476C120.756 314.374 120.858 314.272 120.908 314.272L121.416 314.119C122.685 313.712 124.056 313.916 125.122 314.679L125.427 314.883C125.528 314.934 125.528 315.036 125.528 315.137L123.904 328.016C123.904 328.067 123.853 328.169 123.802 328.169C123.751 328.22 123.701 328.22 123.65 328.22ZM119.639 327.202L123.447 327.711L125.021 315.239L124.868 315.137C123.904 314.476 122.685 314.272 121.619 314.679L121.264 314.781L119.639 327.202Z" fill="#3B3375"/>
<path d="M102.532 327.253H125.125V354.487C125.125 357.694 122.535 360.291 119.337 360.291H108.37C105.172 360.291 102.582 357.694 102.582 354.487L102.532 327.253Z" fill="white"/>
<path d="M119.336 360.544H108.369C105.019 360.544 102.328 357.796 102.328 354.487V327.252C102.328 327.1 102.429 326.998 102.582 326.998H125.175C125.327 326.998 125.428 327.1 125.428 327.252V354.487C125.378 357.846 122.636 360.544 119.336 360.544ZM102.785 327.507V354.487C102.785 357.541 105.272 360.035 108.319 360.035H119.285C122.331 360.035 124.819 357.541 124.819 354.487V327.507H102.785Z" fill="#3B3375"/>
<path d="M192.953 340.081H150.255V350.771H192.953V340.081Z" fill="white"/>
<path d="M192.952 351.076H150.254C150.102 351.076 150 350.975 150 350.822V340.132C150 339.979 150.102 339.877 150.254 339.877H192.952C193.104 339.877 193.206 339.979 193.206 340.132V350.822C193.206 350.924 193.104 351.076 192.952 351.076ZM150.508 350.567H192.698V340.386H150.508V350.567Z" fill="#3B3375"/>
<path d="M190.313 350.822H152.895V360.341H190.313V350.822Z" fill="white"/>
<path d="M190.312 360.544H152.894C152.742 360.544 152.64 360.442 152.64 360.289V350.77C152.64 350.618 152.742 350.516 152.894 350.516H190.312C190.465 350.516 190.566 350.618 190.566 350.77V360.289C190.566 360.442 190.465 360.544 190.312 360.544ZM153.148 360.035H190.058V351.025H153.148V360.035Z" fill="#3B3375"/>
<path d="M477.779 340.846C475.647 342.169 473.362 343.34 471.026 344.307C465.645 346.496 459.958 347.769 454.17 347.972C451.937 348.074 449.652 348.023 447.418 347.87C441.782 347.412 436.248 346.292 430.917 344.409C428.582 343.645 426.348 342.678 424.165 341.609C420.154 327.101 419.443 318.04 419.849 312.491H481.688C483.364 329.29 477.779 340.846 477.779 340.846Z" fill="white"/>
<path d="M451.58 348.277C450.158 348.277 448.787 348.226 447.417 348.124C441.781 347.666 436.196 346.546 430.865 344.662C428.53 343.899 426.296 342.932 424.113 341.863C424.062 341.812 424.011 341.761 423.96 341.71C420.61 329.544 419.137 319.719 419.594 312.49C419.594 312.338 419.696 312.236 419.848 312.236H481.687C481.839 312.236 481.941 312.338 481.941 312.49C483.566 329.085 478.032 340.794 477.981 340.946C477.981 340.997 477.93 341.048 477.879 341.048C475.696 342.372 473.411 343.543 471.076 344.51C465.643 346.75 459.957 347.971 454.118 348.226C453.306 348.277 452.443 348.277 451.58 348.277ZM424.417 341.455C426.55 342.524 428.784 343.441 431.018 344.204C436.298 346.037 441.832 347.208 447.417 347.615C449.651 347.768 451.884 347.819 454.118 347.717C459.906 347.462 465.542 346.24 470.873 344.052C473.158 343.084 475.391 341.964 477.524 340.641C477.981 339.674 482.906 328.475 481.433 312.745H420.102C419.645 319.923 421.117 329.544 424.417 341.455Z" fill="#3B3375"/>
<path d="M481.739 312.541H419.85C420.256 306.636 421.83 304.804 421.83 304.804H480.47C481.079 307.349 481.485 309.945 481.739 312.541Z" fill="#3E337A"/>
<path d="M481.738 312.795H419.848C419.797 312.795 419.696 312.744 419.645 312.693C419.594 312.643 419.594 312.592 419.594 312.49C420 306.534 421.574 304.65 421.676 304.599C421.727 304.549 421.777 304.498 421.879 304.498H480.519C480.621 304.498 480.722 304.599 480.773 304.701C481.331 307.247 481.788 309.894 482.042 312.49C482.042 312.541 482.042 312.643 481.991 312.693C481.89 312.795 481.788 312.795 481.738 312.795ZM420.102 312.286H481.433C481.179 309.843 480.773 307.45 480.265 305.058H421.98C421.676 305.465 420.457 307.45 420.102 312.286Z" fill="#3B3375"/>
<path d="M481.741 312.799C481.587 312.799 481.484 312.696 481.484 312.543C481.484 312.389 481.587 312.286 481.741 312.286C481.894 312.286 481.997 312.389 481.997 312.543C481.997 312.696 481.894 312.799 481.741 312.799Z" fill="#3B3375"/>
<path d="M419.85 312.799C419.697 312.799 419.594 312.696 419.594 312.543C419.594 312.389 419.697 312.286 419.85 312.286C420.004 312.286 420.107 312.389 420.107 312.543C420.107 312.696 420.004 312.799 419.85 312.799Z" fill="#3B3375"/>
<path d="M430.917 344.46V359.782H424.165V341.66C426.348 342.729 428.633 343.696 430.917 344.46Z" fill="#F09956"/>
<path d="M430.916 360.035H424.163C424.011 360.035 423.909 359.933 423.909 359.781V341.659C423.909 341.557 423.96 341.506 424.011 341.455C424.062 341.404 424.163 341.404 424.265 341.455C426.448 342.524 428.682 343.491 430.967 344.255C431.068 344.306 431.119 344.407 431.119 344.509V359.832C431.17 359.933 431.068 360.035 430.916 360.035ZM424.417 359.526H430.662V344.662C428.53 343.949 426.448 343.084 424.417 342.066V359.526Z" fill="#3B3375"/>
<path d="M454.17 347.971V359.73H447.417V347.87C449.651 348.073 451.936 348.073 454.17 347.971Z" fill="#F09956"/>
<path d="M454.168 360.035H447.416C447.263 360.035 447.162 359.933 447.162 359.781V347.92C447.162 347.869 447.213 347.767 447.263 347.716C447.314 347.665 447.365 347.665 447.466 347.665C449.7 347.818 451.934 347.869 454.168 347.767C454.219 347.767 454.321 347.767 454.371 347.818C454.422 347.869 454.473 347.92 454.473 348.022V359.832C454.422 359.933 454.321 360.035 454.168 360.035ZM447.67 359.526H453.914V348.276C451.833 348.378 449.751 348.327 447.67 348.174V359.526Z" fill="#3B3375"/>
<path d="M477.779 340.845V359.935H471.026V344.256C473.361 343.339 475.595 342.169 477.779 340.845Z" fill="#F09956"/>
<path d="M477.777 360.188H471.025C470.873 360.188 470.771 360.086 470.771 359.933V344.255C470.771 344.153 470.822 344.051 470.923 344C473.259 343.033 475.493 341.862 477.625 340.589C477.727 340.539 477.778 340.539 477.879 340.589C477.981 340.64 478.031 340.742 478.031 340.793V359.882C478.031 360.086 477.93 360.188 477.777 360.188ZM471.279 359.679H477.524V341.251C475.544 342.473 473.411 343.542 471.279 344.407V359.679Z" fill="#3B3375"/>
<path d="M441.274 211.088C441.426 213.633 438.126 225.799 441.731 239.035C442.289 241.071 442.086 243.26 441.121 245.143C440.004 247.434 439.141 254.866 441.528 260.873C443.914 267.033 447.62 272.581 452.393 277.163C452.393 277.163 460.617 264.691 451.225 245.652C450.971 244.838 450.819 244.023 450.768 243.209C446.757 216.687 441.274 211.088 441.274 211.088Z" fill="#3E337A"/>
<path d="M452.392 277.416C452.341 277.416 452.239 277.416 452.239 277.365C447.467 272.784 443.71 267.134 441.324 260.974C438.937 254.815 439.8 247.331 440.917 245.041C441.831 243.208 442.034 241.07 441.476 239.136C438.734 228.955 440.003 219.435 440.714 214.345C440.917 212.818 441.07 211.698 441.019 211.138C441.019 211.036 441.07 210.934 441.171 210.883C441.273 210.832 441.374 210.883 441.476 210.934C441.679 211.189 447.061 216.89 451.072 243.208C451.122 244.023 451.275 244.837 451.528 245.601C456.352 255.425 456.453 263.57 455.641 268.61C454.778 274.108 452.747 277.213 452.645 277.315C452.544 277.365 452.493 277.416 452.392 277.416ZM441.527 211.8C441.476 212.411 441.374 213.276 441.222 214.345C440.562 219.435 439.242 228.853 441.984 238.932C442.542 241.019 442.339 243.259 441.374 245.244C440.257 247.484 439.445 254.764 441.78 260.77C444.116 266.777 447.771 272.275 452.341 276.755C453.407 274.871 459.449 262.908 451.021 245.753C450.767 244.888 450.615 244.074 450.513 243.208C448.431 229.616 445.994 221.624 444.268 217.348C443.05 214.243 442.034 212.563 441.527 211.8Z" fill="#3B3375"/>
<path d="M503.672 231.857C495.802 234.708 472.752 240.969 470.924 257.819C470.569 260.822 461.836 268.661 462.852 274.77C463.41 278.384 464.222 281.948 465.289 285.46C465.289 285.46 469.35 282.66 471.178 281.54C473.006 280.42 476.814 276.755 476.814 271.97C476.814 267.185 477.22 264.793 479.149 261.84C481.078 258.888 481.586 257.309 486.257 254.713C490.928 252.117 495.345 247.078 496.31 244.99C497.274 242.903 503.672 231.857 503.672 231.857Z" fill="#3E337A"/>
<path d="M465.287 285.765C465.237 285.765 465.237 285.765 465.186 285.765C465.084 285.714 465.033 285.663 465.033 285.612C463.967 282.1 463.155 278.485 462.596 274.871C461.936 270.901 465.237 266.319 467.826 262.654C469.298 260.618 470.567 258.836 470.669 257.818C472.344 242.292 491.79 235.674 501.182 232.467C502.096 232.162 502.908 231.856 503.619 231.602C503.721 231.551 503.822 231.602 503.924 231.653C504.025 231.704 504.025 231.856 503.924 231.958C503.873 232.06 497.578 243.055 496.613 245.092C495.699 247.077 491.333 252.218 486.459 254.916C482.549 257.105 481.635 258.531 480.265 260.72C480.011 261.127 479.757 261.534 479.452 261.941C477.472 264.945 477.168 267.337 477.168 271.919C477.168 276.5 473.614 280.369 471.38 281.743C469.603 282.812 465.541 285.663 465.49 285.663C465.389 285.714 465.338 285.765 465.287 285.765ZM503.112 232.314C502.553 232.518 501.995 232.722 501.335 232.925C492.094 236.081 472.852 242.648 471.177 257.818C471.024 258.989 469.806 260.72 468.232 262.908C465.643 266.472 462.444 270.951 463.053 274.718C463.612 278.18 464.373 281.642 465.389 285.052C466.353 284.39 469.45 282.252 471.024 281.285C472.446 280.42 476.558 276.806 476.558 271.919C476.558 267.235 476.914 264.741 478.945 261.687C479.249 261.229 479.503 260.821 479.757 260.465C481.179 258.225 482.143 256.749 486.154 254.509C490.927 251.862 495.242 246.772 496.105 244.888C496.968 243.106 501.741 234.656 503.112 232.314Z" fill="#3B3375"/>
<path d="M399.032 245.042V259.906C399.032 259.906 404.312 261.993 410.811 270.087C417.309 278.181 434.115 284.849 435.841 288.515C437.567 292.18 438.329 269.018 423.453 261.586C410.202 254.968 411.166 252.881 406.901 249.063C402.637 245.245 399.032 245.042 399.032 245.042Z" fill="#3E337A"/>
<path d="M436.196 289.226C435.891 289.226 435.688 288.819 435.637 288.666C434.926 287.088 431.169 284.848 426.803 282.303C421.218 278.994 414.313 274.871 410.658 270.29C404.261 262.298 399.031 260.159 398.981 260.159C398.879 260.109 398.828 260.007 398.828 259.905V245.041C398.828 244.99 398.879 244.888 398.93 244.837C398.981 244.786 399.031 244.786 399.133 244.786C399.285 244.786 402.839 245.092 407.155 248.909C408.323 249.928 409.135 250.844 409.896 251.76C411.927 254.153 414.06 256.596 423.655 261.432C435.891 267.592 437.617 284.187 436.957 288.106C436.856 288.819 436.653 289.175 436.348 289.226C436.246 289.226 436.196 289.226 436.196 289.226ZM399.285 259.752C400.25 260.159 405.073 262.603 411.013 269.984C414.618 274.464 421.523 278.587 427.057 281.896C431.677 284.645 435.282 286.783 436.094 288.514C436.145 288.615 436.196 288.666 436.196 288.717C436.45 288.31 436.653 286.427 436.348 283.423C435.942 279.707 433.809 267.133 423.351 261.89C413.603 257.003 411.47 254.509 409.389 252.116C408.627 251.251 407.866 250.335 406.698 249.317C403.195 246.211 400.148 245.499 399.285 245.346V259.752Z" fill="#3B3375"/>
<path d="M440.004 305.058C439.801 305.007 439.75 304.905 439.75 304.753C440.461 300.833 436.856 291.212 435.587 288.667C435.536 288.565 435.587 288.412 435.688 288.31C435.79 288.259 435.942 288.31 436.044 288.412C437.11 290.55 441.07 300.528 440.258 304.804C440.258 304.956 440.156 305.058 440.004 305.058Z" fill="#3B3375"/>
<path d="M452.393 305.058C452.24 305.058 452.138 304.956 452.138 304.803V277.162C452.138 277.009 452.24 276.907 452.393 276.907C452.545 276.907 452.647 277.009 452.647 277.162V304.803C452.647 304.956 452.545 305.058 452.393 305.058Z" fill="#3B3375"/>
<path d="M462.242 305.058C462.089 305.058 461.988 304.906 461.988 304.804C461.988 304.702 462.851 292.892 465.034 285.46C465.085 285.307 465.237 285.256 465.339 285.307C465.491 285.358 465.542 285.511 465.491 285.612C463.308 292.994 462.445 304.753 462.445 304.855C462.495 304.956 462.343 305.058 462.242 305.058Z" fill="#3B3375"/>
<path d="M466.15 280.929C465.998 280.929 465.896 280.827 465.896 280.674C466.658 257.563 493.719 238.576 493.972 238.423C494.074 238.372 494.226 238.372 494.328 238.525C494.379 238.627 494.379 238.779 494.226 238.881C493.16 239.543 486.357 244.532 479.604 252.32C473.766 259.04 466.759 269.424 466.353 280.776C466.404 280.827 466.252 280.929 466.15 280.929Z" fill="white"/>
<path d="M479.555 252.218C479.453 252.218 479.352 252.167 479.301 252.066C479.25 251.913 479.352 251.811 479.453 251.76L485.19 249.877C485.343 249.826 485.444 249.927 485.495 250.029C485.546 250.131 485.444 250.284 485.343 250.335L479.605 252.218C479.605 252.218 479.605 252.218 479.555 252.218Z" fill="white"/>
<path d="M484.733 246.721C484.581 246.721 484.479 246.569 484.479 246.416L484.988 242.14C484.988 241.987 485.141 241.885 485.293 241.936C485.446 241.936 485.548 242.089 485.497 242.242L484.988 246.518C484.988 246.619 484.886 246.721 484.733 246.721Z" fill="white"/>
<path d="M472.447 261.839C472.294 261.839 472.192 261.687 472.192 261.585L472.497 256.443C472.497 256.291 472.65 256.189 472.752 256.189C472.905 256.189 473.006 256.342 473.006 256.443L472.701 261.585C472.701 261.738 472.599 261.839 472.447 261.839Z" fill="white"/>
<path d="M467.928 271.359C467.826 271.359 467.776 271.308 467.725 271.257C467.674 271.155 467.674 271.002 467.826 270.9L474.376 266.828C474.477 266.777 474.63 266.777 474.731 266.93C474.782 267.032 474.782 267.184 474.63 267.286L468.08 271.359C468.029 271.308 467.979 271.359 467.928 271.359Z" fill="white"/>
<path d="M451.681 274.26C451.529 274.26 451.427 274.158 451.427 274.005C451.427 269.78 445.03 233.688 442.847 223.507C442.796 223.354 442.898 223.253 443.05 223.202C443.203 223.151 443.304 223.253 443.355 223.405C445.589 233.892 451.935 269.627 451.935 274.005C451.935 274.158 451.783 274.26 451.681 274.26Z" fill="white"/>
<path d="M445.03 233.841H444.979C444.827 233.79 444.776 233.689 444.776 233.536L445.996 229.107C446.047 228.954 446.148 228.903 446.301 228.903C446.453 228.954 446.504 229.056 446.504 229.209L445.284 233.638C445.284 233.79 445.183 233.841 445.03 233.841Z" fill="white"/>
<path d="M447.162 245.295C447.111 245.295 447.06 245.295 447.01 245.244C445.791 244.073 444.522 243.004 443.202 241.986C443.1 241.884 443.049 241.732 443.151 241.63C443.252 241.528 443.405 241.477 443.506 241.579C444.877 242.597 446.146 243.666 447.365 244.837C447.467 244.939 447.467 245.092 447.365 245.193C447.263 245.244 447.213 245.295 447.162 245.295Z" fill="white"/>
<path d="M449.346 257.971H449.295C449.143 257.92 449.092 257.818 449.092 257.666L450.565 250.946C450.616 250.793 450.718 250.743 450.87 250.743C451.023 250.793 451.074 250.895 451.074 251.048L449.6 257.767C449.549 257.869 449.447 257.971 449.346 257.971Z" fill="white"/>
<path d="M451.122 269.272C451.071 269.272 450.97 269.221 450.919 269.17L445.487 263.367C445.385 263.265 445.385 263.112 445.487 263.01C445.588 262.909 445.74 262.909 445.842 263.01L451.274 268.814C451.376 268.915 451.376 269.068 451.274 269.17C451.224 269.272 451.173 269.272 451.122 269.272Z" fill="white"/>
<path d="M432.388 280.929C432.286 280.929 432.235 280.878 432.185 280.827C421.472 262.908 401.418 253.491 398.981 252.778C398.828 252.727 398.778 252.575 398.828 252.473C398.879 252.32 398.981 252.269 399.133 252.32C401.621 253.033 421.878 262.552 432.642 280.623C432.692 280.725 432.692 280.878 432.54 280.98C432.489 280.929 432.439 280.929 432.388 280.929Z" fill="white"/>
<path d="M411.978 259.905C411.876 259.905 411.775 259.854 411.724 259.752L409.794 254.458C409.744 254.306 409.794 254.204 409.947 254.153C410.099 254.102 410.201 254.153 410.251 254.306L412.181 259.6C412.231 259.752 412.181 259.854 412.028 259.905C412.028 259.905 412.028 259.905 411.978 259.905Z" fill="white"/>
<path d="M413.501 265.454C413.349 265.454 413.247 265.352 413.247 265.199C413.247 265.046 413.349 264.944 413.501 264.944L418.629 264.486C418.782 264.486 418.883 264.588 418.883 264.741C418.883 264.894 418.782 264.995 418.629 264.995L413.501 265.454Z" fill="white"/>
<path d="M426.703 273.039C426.601 273.039 426.5 272.937 426.449 272.835L425.382 267.032C425.382 266.879 425.432 266.777 425.585 266.726C425.737 266.726 425.839 266.777 425.89 266.93L426.957 272.733C426.957 272.886 426.906 272.988 426.703 273.039Z" fill="white"/>
<path d="M429.697 276.805H429.646L426.143 275.787C425.991 275.736 425.94 275.584 425.991 275.482C426.042 275.329 426.194 275.278 426.295 275.329L429.798 276.347C429.951 276.398 430.002 276.551 429.951 276.653C429.9 276.755 429.798 276.805 429.697 276.805Z" fill="white"/>
<path d="M359.785 152.444H201.279V280.776H359.785V152.444Z" fill="#F7FAFF"/>
<path d="M364.304 156.211H196.76V175.148H364.304V156.211Z" fill="#EEF1F9"/>
<path d="M219.759 162.574H200.923V181.46H219.759V162.574Z" fill="#F09956"/>
<path d="M270.327 186.499H221.384C221.232 186.499 221.13 186.398 221.13 186.245C221.13 186.092 221.232 185.99 221.384 185.99H270.327C270.48 185.99 270.581 186.092 270.581 186.245C270.581 186.398 270.48 186.499 270.327 186.499Z" fill="#3B3375"/>
<path d="M270.327 199.023H221.384C221.232 199.023 221.13 198.921 221.13 198.768C221.13 198.616 221.232 198.514 221.384 198.514H270.327C270.48 198.514 270.581 198.616 270.581 198.768C270.581 198.921 270.48 199.023 270.327 199.023Z" fill="#3B3375"/>
<path d="M270.327 211.596H221.384C221.232 211.596 221.13 211.494 221.13 211.341C221.13 211.189 221.232 211.087 221.384 211.087H270.327C270.48 211.087 270.581 211.189 270.581 211.341C270.581 211.494 270.48 211.596 270.327 211.596Z" fill="#3B3375"/>
<path d="M270.327 222.897H221.384C221.232 222.897 221.13 222.795 221.13 222.642C221.13 222.49 221.232 222.388 221.384 222.388H270.327C270.48 222.388 270.581 222.49 270.581 222.642C270.581 222.795 270.48 222.897 270.327 222.897Z" fill="#3B3375"/>
<path d="M270.327 235.42H221.384C221.232 235.42 221.13 235.318 221.13 235.166C221.13 235.013 221.232 234.911 221.384 234.911H270.327C270.48 234.911 270.581 235.013 270.581 235.166C270.581 235.318 270.48 235.42 270.327 235.42Z" fill="#3B3375"/>
<path d="M270.327 247.993H221.384C221.232 247.993 221.13 247.891 221.13 247.739C221.13 247.586 221.232 247.484 221.384 247.484H270.327C270.48 247.484 270.581 247.586 270.581 247.739C270.581 247.891 270.48 247.993 270.327 247.993Z" fill="#3B3375"/>
<path d="M270.327 259.192H221.384C221.232 259.192 221.13 259.09 221.13 258.938C221.13 258.785 221.232 258.683 221.384 258.683H270.327C270.48 258.683 270.581 258.785 270.581 258.938C270.581 259.09 270.48 259.192 270.327 259.192Z" fill="#3B3375"/>
<path d="M270.327 271.715H221.384C221.232 271.715 221.13 271.613 221.13 271.46C221.13 271.308 221.232 271.206 221.384 271.206H270.327C270.48 271.206 270.581 271.308 270.581 271.46C270.581 271.613 270.48 271.715 270.327 271.715Z" fill="#3B3375"/>
<path d="M297.997 192.812H280.532C280.38 192.812 280.278 192.71 280.278 192.557C280.278 192.405 280.38 192.303 280.532 192.303H297.997C298.15 192.303 298.251 192.405 298.251 192.557C298.251 192.71 298.15 192.812 297.997 192.812Z" fill="#F09956"/>
<path d="M297.997 205.385H280.532C280.38 205.385 280.278 205.284 280.278 205.131C280.278 204.978 280.38 204.876 280.532 204.876H297.997C298.15 204.876 298.251 204.978 298.251 205.131C298.251 205.284 298.15 205.385 297.997 205.385Z" fill="#F09956"/>
<path d="M297.997 217.909H280.532C280.38 217.909 280.278 217.807 280.278 217.654C280.278 217.502 280.38 217.4 280.532 217.4H297.997C298.15 217.4 298.251 217.502 298.251 217.654C298.251 217.807 298.15 217.909 297.997 217.909Z" fill="#F09956"/>
<path d="M297.997 229.21H280.532C280.38 229.21 280.278 229.108 280.278 228.955C280.278 228.802 280.38 228.701 280.532 228.701H297.997C298.15 228.701 298.251 228.802 298.251 228.955C298.251 229.108 298.15 229.21 297.997 229.21Z" fill="#F09956"/>
<path d="M297.997 241.783H280.532C280.38 241.783 280.278 241.681 280.278 241.528C280.278 241.375 280.38 241.274 280.532 241.274H297.997C298.15 241.274 298.251 241.375 298.251 241.528C298.251 241.681 298.15 241.783 297.997 241.783Z" fill="#F09956"/>
<path d="M297.997 254.305H280.532C280.38 254.305 280.278 254.203 280.278 254.051C280.278 253.898 280.38 253.796 280.532 253.796H297.997C298.15 253.796 298.251 253.898 298.251 254.051C298.251 254.203 298.15 254.305 297.997 254.305Z" fill="#F09956"/>
<path d="M297.997 265.504H280.532C280.38 265.504 280.278 265.403 280.278 265.25C280.278 265.097 280.38 264.995 280.532 264.995H297.997C298.15 264.995 298.251 265.097 298.251 265.25C298.251 265.403 298.15 265.504 297.997 265.504Z" fill="#F09956"/>
<path d="M342.98 191.234H324.195C324.042 191.234 323.941 191.132 323.941 190.979V184.667C323.941 184.514 324.042 184.412 324.195 184.412H342.98C343.132 184.412 343.234 184.514 343.234 184.667V190.979C343.234 191.132 343.132 191.234 342.98 191.234ZM324.398 190.725H342.675V184.921H324.398V190.725Z" fill="#3B3375"/>
<path d="M342.98 208.644H324.195C324.042 208.644 323.941 208.542 323.941 208.39V202.077C323.941 201.925 324.042 201.823 324.195 201.823H342.98C343.132 201.823 343.234 201.925 343.234 202.077V208.39C343.234 208.542 343.132 208.644 342.98 208.644ZM324.398 208.135H342.675V202.332H324.398V208.135Z" fill="#3B3375"/>
<path d="M342.98 226.053H324.195C324.042 226.053 323.941 225.951 323.941 225.798V219.486C323.941 219.333 324.042 219.232 324.195 219.232H342.98C343.132 219.232 343.234 219.333 343.234 219.486V225.798C343.234 225.951 343.132 226.053 342.98 226.053ZM324.398 225.544H342.675V219.741H324.398V225.544Z" fill="#3B3375"/>
<path d="M342.98 243.462H324.195C324.042 243.462 323.941 243.361 323.941 243.208V236.896C323.941 236.743 324.042 236.641 324.195 236.641H342.98C343.132 236.641 343.234 236.743 343.234 236.896V243.208C343.234 243.361 343.132 243.462 342.98 243.462ZM324.398 242.953H342.675V237.15H324.398V242.953Z" fill="#3B3375"/>
<path d="M342.98 260.872H324.195C324.042 260.872 323.941 260.77 323.941 260.618V254.305C323.941 254.153 324.042 254.051 324.195 254.051H342.98C343.132 254.051 343.234 254.153 343.234 254.305V260.618C343.234 260.77 343.132 260.872 342.98 260.872ZM324.398 260.363H342.675V254.509H324.398V260.363Z" fill="#3B3375"/>
</g>
<defs>
<filter id="filter0_d" x="9" y="42.3818" width="540" height="479.841" filterUnits="userSpaceOnUse" color-interpolation-filters="sRGB">
<feFlood flood-opacity="0" result="BackgroundImageFix"/>
<feColorMatrix in="SourceAlpha" type="matrix" values="0 0 0 0 0 0 0 0 0 0 0 0 0 0 0 0 0 0 127 0"/>
<feOffset dy="3.38178"/>
<feGaussianBlur stdDeviation="22.5"/>
<feColorMatrix type="matrix" values="0 0 0 0 0.375913 0 0 0 0 0.368333 0 0 0 0 0.425 0 0 0 0.06 0"/>
<feBlend mode="normal" in2="BackgroundImageFix" result="effect1_dropShadow"/>
<feBlend mode="normal" in="SourceGraphic" in2="effect1_dropShadow" result="shape"/>
</filter>
</defs>
</svg>
