<svg width="2560" height="818" viewBox="0 0 2560 818" fill="none" xmlns="http://www.w3.org/2000/svg" preserveAspectRatio="none">
  <path visibility='hidden' d="M673 817L718.09 766.127C725.682 757.562 736.579 752.659 748.024 752.659H815.228C826.785 752.659 837.778 747.66 845.374 738.95L904.453 671.209C912.05 662.499 923.042 657.5 934.599 657.5H979" stroke="#201F27"/>
  <path visibility='hidden' d="M1888 817L1842.91 766.127C1835.32 757.562 1824.42 752.659 1812.98 752.659H1745.77C1734.21 752.659 1723.22 747.66 1715.63 738.95L1656.55 671.209C1648.95 662.499 1637.96 657.5 1626.4 657.5H1582" stroke="#201F27"/>
  <path visibility='hidden' d="M1888 817L1842.91 766.127C1835.32 757.562 1824.42 752.659 1812.98 752.659H1745.77C1734.21 752.659 1723.22 747.66 1715.63 738.95L1656.55 671.209C1648.95 662.499 1637.96 657.5 1626.4 657.5H1582" stroke="#201F27"/>
  <g filter="url(#filter2_d_5978_13271)">
    <line x1="4.37114e-08" y1="657.5" x2="2560" y2="657.5" stroke="#201F27"/>
  </g>
  <path visibility='hidden' d="M1806 657.5H1829.58C1840.46 657.5 1850.87 653.07 1858.41 645.231L1989.2 509.269C1996.74 501.43 2007.15 497 2018.02 497H2071.53C2080.88 497 2089.94 493.723 2097.12 487.739L2191.09 409.494C2200.22 401.895 2205.5 390.632 2205.5 378.755V345.131C2205.5 333.32 2210.72 322.112 2219.76 314.512L2240 297.5L2560 31.3227" stroke="#201F27"/>
  <path visibility='hidden' d="M754 657.5H730.42C719.543 657.5 709.134 653.07 701.593 645.231L570.803 509.269C563.261 501.43 552.853 497 541.975 497H488.473C479.121 497 470.065 493.723 462.878 487.739L368.905 409.494C359.778 401.895 354.5 390.632 354.5 378.755V345.131C354.5 333.32 349.28 322.112 340.238 314.512L320 297.5L0 31.3227" stroke="#201F27"/>
  <path visibility='hidden' d="M1424 657.5H1458.68C1468.13 657.5 1477.29 654.148 1484.51 648.04L1574.45 571.96C1581.67 565.852 1590.82 562.5 1600.28 562.5H1697.62C1707.04 562.5 1716.16 559.173 1723.37 553.107L1866.13 432.988C1875.16 425.387 1880.37 414.185 1880.37 402.381V348.119C1880.37 336.315 1885.59 325.113 1894.62 317.512L1989.84 237.393C1997.05 231.327 2006.17 228 2015.59 228H2114.52C2123.88 228 2132.94 224.719 2140.13 218.729L2240 135.5L2403.21 0" stroke="#201F27"/>
  <path visibility='hidden' d="M1136 657.5H1101.32C1091.87 657.5 1082.71 654.148 1075.49 648.039L985.55 571.96C978.329 565.851 969.176 562.5 959.718 562.5H862.384C852.962 562.5 843.841 559.173 836.631 553.106L693.874 432.987C684.841 425.387 679.627 414.185 679.627 402.38V348.119C679.627 336.314 674.413 325.112 665.38 317.512L570.161 237.393C562.951 231.326 553.831 228 544.408 228H445.527C436.141 228 427.053 224.699 419.855 218.674L319.998 135.103L156.5 -0.5" stroke="#201F27"/>
  <path visibility='hidden' d="M1136 657.5H1101.32C1091.87 657.5 1082.71 654.148 1075.49 648.039L985.55 571.96C978.329 565.851 969.176 562.5 959.718 562.5H862.384C852.962 562.5 843.841 559.173 836.631 553.106L693.874 432.987C684.841 425.387 679.627 414.185 679.627 402.38V348.119C679.627 336.314 674.413 325.112 665.38 317.512L570.161 237.393C562.951 231.326 553.831 228 544.408 228H445.527C436.141 228 427.053 224.699 419.855 218.674L319.998 135.103L156.5 -0.5" stroke="#201F27"/>
  <path visibility='hidden' d="M2240 658H2289.63C2300.49 658 2310.89 653.578 2318.43 645.752L2560 395" stroke="#201F27"/>
  <path visibility='hidden' d="M320 658H270.375C259.507 658 249.108 653.578 241.568 645.752L0 395" stroke="#201F27"/>
  <defs>
    <filter id="filter0_d_5978_13271" x="1482" y="86.6562" width="236.359" height="168.844" filterUnits="userSpaceOnUse" color-interpolation-filters="sRGB">
      <feFlood flood-opacity="0" result="BackgroundImageFix"/>
      <feColorMatrix in="SourceAlpha" type="matrix" values="0 0 0 0 0 0 0 0 0 0 0 0 0 0 0 0 0 0 127 0" result="hardAlpha"/>
      <feOffset dx="1" dy="-1"/>
      <feComposite in2="hardAlpha" operator="out"/>
      <feColorMatrix type="matrix" values="0 0 0 0 0 0 0 0 0 0 0 0 0 0 0 0 0 0 1 0"/>
      <feBlend mode="normal" in2="BackgroundImageFix" result="effect1_dropShadow_5978_13271"/>
      <feBlend mode="normal" in="SourceGraphic" in2="effect1_dropShadow_5978_13271" result="shape"/>
    </filter>
    <filter id="filter1_d_5978_13271" x="842.641" y="86.6562" width="236.359" height="168.844" filterUnits="userSpaceOnUse" color-interpolation-filters="sRGB">
      <feFlood flood-opacity="0" result="BackgroundImageFix"/>
      <feColorMatrix in="SourceAlpha" type="matrix" values="0 0 0 0 0 0 0 0 0 0 0 0 0 0 0 0 0 0 127 0" result="hardAlpha"/>
      <feOffset dx="1" dy="-1"/>
      <feComposite in2="hardAlpha" operator="out"/>
      <feColorMatrix type="matrix" values="0 0 0 0 0 0 0 0 0 0 0 0 0 0 0 0 0 0 1 0"/>
      <feBlend mode="normal" in2="BackgroundImageFix" result="effect1_dropShadow_5978_13271"/>
      <feBlend mode="normal" in="SourceGraphic" in2="effect1_dropShadow_5978_13271" result="shape"/>
    </filter>
    <filter id="filter2_d_5978_13271" x="0" y="656" width="2561" height="2" filterUnits="userSpaceOnUse" color-interpolation-filters="sRGB">
      <feFlood flood-opacity="0" result="BackgroundImageFix"/>
      <feColorMatrix in="SourceAlpha" type="matrix" values="0 0 0 0 0 0 0 0 0 0 0 0 0 0 0 0 0 0 127 0" result="hardAlpha"/>
      <feOffset dx="1" dy="-1"/>
      <feComposite in2="hardAlpha" operator="out"/>
      <feColorMatrix type="matrix" values="0 0 0 0 0 0 0 0 0 0 0 0 0 0 0 0 0 0 1 0"/>
      <feBlend mode="normal" in2="BackgroundImageFix" result="effect1_dropShadow_5978_13271"/>
      <feBlend mode="normal" in="SourceGraphic" in2="effect1_dropShadow_5978_13271" result="shape"/>
    </filter>
  </defs>
</svg>
