<svg width="160" height="35" viewBox="0 0 160 35" fill="none" xmlns="http://www.w3.org/2000/svg">
<path d="M45.3819 22.1791C47.453 22.1791 48.8152 21.2088 49.4683 19.2682L52.1551 19.968C51.7819 21.442 50.9611 22.6269 49.6923 23.5225C48.4421 24.4182 47.0053 24.866 45.3819 24.866C43.348 24.866 41.6127 24.1849 40.1762 22.8228C38.7579 21.442 38.0488 19.6787 38.0488 17.5329C38.0488 15.4058 38.7579 13.6519 40.1762 12.2711C41.6127 10.8903 43.348 10.2 45.3819 10.2C46.9679 10.2 48.3861 10.6478 49.6363 11.5434C50.8863 12.4204 51.7259 13.5959 52.1551 15.07L49.3563 15.8816C49.0952 14.8927 48.6101 14.1463 47.901 13.6425C47.1919 13.1387 46.3522 12.8868 45.3819 12.8868C44.0946 12.8868 43.0216 13.3253 42.1634 14.2023C41.3237 15.0606 40.9039 16.1708 40.9039 17.5329C40.9039 18.9324 41.3237 20.0613 42.1634 20.9196C43.0031 21.7592 44.0757 22.1791 45.3819 22.1791Z" fill="#9CA2AA"/>
<path d="M63.1311 10.1999C64.7919 10.1999 66.1352 10.7503 67.1615 11.8512C68.1877 12.9334 68.701 14.3422 68.701 16.0775V24.4741H65.7621V16.6652C65.7621 15.5271 65.4542 14.6128 64.8386 13.9224C64.2414 13.232 63.4485 12.8868 62.4594 12.8868C61.172 12.8868 60.1551 13.3253 59.4088 14.2023C58.6811 15.0792 58.3173 16.3667 58.3173 18.0647V24.4741H55.4062V4.32227H58.3173V12.299C59.4927 10.8996 61.0975 10.1999 63.1311 10.1999Z" fill="#9CA2AA"/>
<path fill-rule="evenodd" clip-rule="evenodd" d="M86.3632 24.4741V10.5918H83.4525V12.1871C82.1837 10.8624 80.5043 10.2 78.4144 10.2C76.5485 10.2 74.9344 10.8903 73.5725 12.2711C72.2103 13.6519 71.5293 15.4058 71.5293 17.5329C71.5293 19.6787 72.201 21.442 73.5443 22.8228C74.9066 24.1849 76.5299 24.866 78.4144 24.866C80.5043 24.866 82.1837 24.2036 83.4525 22.8788V24.4741H86.3632ZM82.081 20.9756C81.1667 21.8525 80.1031 22.291 78.8903 22.291C77.584 22.291 76.5021 21.8619 75.6435 21.0035C74.7853 20.1266 74.3562 18.9697 74.3562 17.5329C74.3562 16.0962 74.7853 14.9487 75.6435 14.0904C76.5021 13.2134 77.584 12.7749 78.8903 12.7749C80.1031 12.7749 81.1667 13.2227 82.081 14.1184C82.9952 14.9953 83.4525 16.1335 83.4525 17.5329C83.4525 18.9324 82.9952 20.0799 82.081 20.9756Z" fill="#9CA2AA"/>
<path d="M99.1142 21.3674L100.01 23.8024C98.8156 24.5114 97.6681 24.8659 96.5673 24.8659C95.0185 24.8659 93.7964 24.4368 92.9007 23.5785C92.0051 22.7015 91.5574 21.4234 91.5574 19.744V12.9988H88.5625V10.5918H91.5574V6.28149H94.4681V10.5918H99.2262V12.9988H94.4681V19.5481C94.4681 20.3878 94.6732 21.0315 95.0838 21.4793C95.4943 21.9085 96.054 22.1231 96.7631 22.1231C97.5654 22.1231 98.3491 21.8712 99.1142 21.3674Z" fill="#9CA2AA"/>
<path d="M110.509 12.9986H105.891V24.474H102.98V12.9986H100.713V10.5916H102.98V8.9403C102.98 7.39159 103.446 6.16942 104.379 5.27377C105.312 4.3595 106.553 3.90234 108.102 3.90234C108.923 3.90234 109.716 4.07028 110.481 4.40612L109.781 6.78516C109.296 6.59857 108.802 6.50529 108.298 6.50529C107.57 6.50529 106.982 6.71985 106.535 7.149C106.105 7.57818 105.891 8.17527 105.891 8.9403V10.5916H110.509V12.9986Z" fill="#9CA2AA"/>
<path fill-rule="evenodd" clip-rule="evenodd" d="M118.719 10.2839C116.629 10.2839 114.857 10.965 113.401 12.3271C111.964 13.6706 111.246 15.4058 111.246 17.533C111.246 19.6601 111.964 21.4047 113.401 22.7668C114.857 24.129 116.629 24.81 118.719 24.81C120.79 24.81 122.544 24.129 123.981 22.7668C125.418 21.4047 126.136 19.6601 126.136 17.533C126.136 15.4058 125.418 13.6706 123.981 12.3271C122.563 10.965 120.809 10.2839 118.719 10.2839ZM121.938 20.9756C121.024 21.8525 119.951 22.291 118.719 22.291C117.45 22.291 116.359 21.8525 115.444 20.9756C114.549 20.0799 114.101 18.9324 114.101 17.533C114.101 16.1335 114.549 14.9953 115.444 14.1184C116.359 13.2227 117.45 12.7749 118.719 12.7749C119.951 12.7749 121.024 13.2227 121.938 14.1184C122.852 14.9953 123.309 16.1335 123.309 17.533C123.309 18.9324 122.852 20.0799 121.938 20.9756Z" fill="#9CA2AA"/>
<path fill-rule="evenodd" clip-rule="evenodd" d="M135.664 10.2839C133.575 10.2839 131.802 10.965 130.347 12.3271C128.91 13.6706 128.191 15.4058 128.191 17.533C128.191 19.6601 128.91 21.4047 130.347 22.7668C131.802 24.129 133.575 24.81 135.664 24.81C137.736 24.81 139.49 24.129 140.926 22.7668C142.363 21.4047 143.081 19.6601 143.081 17.533C143.081 15.4058 142.363 13.6706 140.926 12.3271C139.508 10.965 137.754 10.2839 135.664 10.2839ZM138.883 20.9756C137.969 21.8525 136.896 22.291 135.664 22.291C134.396 22.291 133.304 21.8525 132.39 20.9756C131.494 20.0799 131.046 18.9324 131.046 17.533C131.046 16.1335 131.494 14.9953 132.39 14.1184C133.304 13.2227 134.396 12.7749 135.664 12.7749C136.896 12.7749 137.969 13.2227 138.883 14.1184C139.797 14.9953 140.254 16.1335 140.254 17.533C140.254 18.9324 139.797 20.0799 138.883 20.9756Z" fill="#9CA2AA"/>
<path fill-rule="evenodd" clip-rule="evenodd" d="M160.001 24.4741V4.32227H157.062V12.1871C155.775 10.8623 154.095 10.1999 152.024 10.1999C150.158 10.1999 148.544 10.8903 147.182 12.271C145.82 13.6518 145.139 15.4058 145.139 17.5329C145.139 19.66 145.82 21.414 147.182 22.7948C148.544 24.1755 150.158 24.8659 152.024 24.8659C154.077 24.8659 155.756 24.2129 157.062 22.9067V24.4741H160.001ZM155.69 20.9755C154.776 21.8525 153.713 22.291 152.5 22.291C151.212 22.291 150.139 21.8618 149.281 21.0035C148.423 20.1265 147.994 18.9697 147.994 17.5329C147.994 16.1148 148.423 14.9673 149.281 14.0903C150.139 13.2133 151.212 12.7748 152.5 12.7748C153.713 12.7748 154.776 13.2226 155.69 14.1183C156.605 14.9953 157.062 16.1335 157.062 17.5329C157.062 18.951 156.605 20.0985 155.69 20.9755Z" fill="#9CA2AA"/>
<path d="M12.0937 34.4451V27.0337C12.0937 27.0337 0 25.2898 0 13.5186C0 6.05434 5.99629 0.161156 13.3894 0.00339759C20.45 -0.147265 26.1495 4.7271 27.2108 11.7747C27.6983 15.0124 26.4529 18.8983 24.6193 21.3661C19.4363 28.3416 12.0937 34.4451 12.0937 34.4451Z" fill="#9CA2AA"/>
<circle cx="13.6594" cy="13.6242" r="6.82928" fill="white"/>
</svg>
