<svg width="181" height="35" viewBox="0 0 181 35" fill="none" xmlns="http://www.w3.org/2000/svg">
<path fill-rule="evenodd" clip-rule="evenodd" d="M172.448 7.19995H169.601V24.7813H172.448V19.0837H172.496L177.028 24.7813H180.801L175.604 18.6883L180.492 13.6186H176.838L172.448 18.2465V7.19995ZM56.8923 10.8744C57.4301 11.0759 57.8572 11.4015 58.1736 11.8511L60.3566 9.5953C59.6922 8.99065 58.9408 8.55654 58.1024 8.29297C57.2798 8.02941 56.4256 7.89763 55.5397 7.89763C54.7646 7.89763 54.0053 7.9984 53.2618 8.19995C52.5183 8.4015 51.8539 8.71158 51.2686 9.13018C50.6991 9.53328 50.2324 10.0449 49.8686 10.6651C49.5206 11.2852 49.3465 12.0217 49.3465 12.8744C49.3465 13.8511 49.5443 14.6341 49.9398 15.2232C50.3352 15.7969 50.8256 16.262 51.4109 16.6186C51.9962 16.9596 52.6369 17.231 53.333 17.4325C54.029 17.6341 54.6697 17.8511 55.255 18.0837C55.8403 18.3007 56.3307 18.572 56.7262 18.8976C57.1216 19.2232 57.3194 19.6883 57.3194 20.293C57.3194 20.6651 57.2324 20.9984 57.0584 21.293C56.8844 21.572 56.655 21.8046 56.3702 21.9906C56.0855 22.1767 55.7691 22.3162 55.4211 22.4093C55.0731 22.5023 54.725 22.5488 54.377 22.5488C53.7126 22.5488 53.0799 22.4015 52.4787 22.1069C51.8934 21.7969 51.4188 21.3705 51.055 20.8279L48.8008 22.9674C49.4968 23.7736 50.3273 24.3472 51.2923 24.6883C52.2573 25.0294 53.2618 25.2 54.3058 25.2C55.1284 25.2 55.9115 25.0914 56.655 24.8744C57.3985 24.6573 58.0471 24.3317 58.6007 23.8976C59.1702 23.4635 59.6211 22.9209 59.9533 22.2697C60.2855 21.6031 60.4516 20.8279 60.4516 19.9441C60.4516 18.9674 60.2538 18.1844 59.8583 17.5953C59.4629 17.0062 58.9725 16.5333 58.3872 16.1767C57.8019 15.8201 57.1612 15.541 56.4651 15.3395C55.7691 15.1379 55.1284 14.9286 54.5431 14.7116C53.9578 14.4945 53.4674 14.2387 53.0719 13.9441C52.6765 13.6496 52.4787 13.2232 52.4787 12.6651C52.4787 12.293 52.5578 11.9751 52.716 11.7116C52.8742 11.4325 53.0799 11.2077 53.333 11.0372C53.6019 10.8666 53.8945 10.7426 54.2109 10.6651C54.5431 10.5875 54.8832 10.5488 55.2313 10.5488C55.8166 10.5488 56.3702 10.6573 56.8923 10.8744ZM63.4465 16.8046C63.1301 17.5178 62.9719 18.3162 62.9719 19.2C62.9719 20.0837 63.1301 20.8899 63.4465 21.6186C63.7787 22.3317 64.2217 22.9441 64.7753 23.4558C65.329 23.9674 65.9855 24.3627 66.7448 24.6418C67.5041 24.9209 68.3109 25.0604 69.1651 25.0604C70.0194 25.0604 70.8261 24.9209 71.5855 24.6418C72.3448 24.3627 73.0013 23.9674 73.5549 23.4558C74.1086 22.9441 74.5436 22.3317 74.86 21.6186C75.1922 20.8899 75.3583 20.0837 75.3583 19.2C75.3583 18.3162 75.1922 17.5178 74.86 16.8046C74.5436 16.0759 74.1086 15.4558 73.5549 14.9441C73.0013 14.4325 72.3448 14.0372 71.5855 13.7581C70.8261 13.479 70.0194 13.3395 69.1651 13.3395C68.3109 13.3395 67.5041 13.479 66.7448 13.7581C65.9855 14.0372 65.329 14.4325 64.7753 14.9441C64.2217 15.4558 63.7787 16.0759 63.4465 16.8046ZM65.8194 19.2C65.8194 19.6341 65.8906 20.0527 66.0329 20.4558C66.1911 20.8589 66.4126 21.2155 66.6973 21.5255C66.9979 21.8356 67.3538 22.0837 67.7651 22.2697C68.1764 22.4558 68.6431 22.5488 69.1651 22.5488C69.6872 22.5488 70.1538 22.4558 70.5651 22.2697C70.9764 22.0837 71.3244 21.8356 71.6092 21.5255C71.9097 21.2155 72.1312 20.8589 72.2736 20.4558C72.4318 20.0527 72.5109 19.6341 72.5109 19.2C72.5109 18.7658 72.4318 18.3472 72.2736 17.9441C72.1312 17.541 71.9097 17.1844 71.6092 16.8744C71.3244 16.5643 70.9764 16.3162 70.5651 16.1302C70.1538 15.9441 69.6872 15.8511 69.1651 15.8511C68.6431 15.8511 68.1764 15.9441 67.7651 16.1302C67.3538 16.3162 66.9979 16.5643 66.6973 16.8744C66.4126 17.1844 66.1911 17.541 66.0329 17.9441C65.8906 18.3472 65.8194 18.7658 65.8194 19.2ZM85.9497 24.7813H88.6548V13.6186H85.8074V19.7116C85.8074 20.0837 85.7599 20.4403 85.665 20.7813C85.5701 21.1224 85.4119 21.4248 85.1904 21.6883C84.9848 21.9519 84.7158 22.1612 84.3836 22.3162C84.0673 22.4713 83.6718 22.5488 83.1972 22.5488C82.691 22.5488 82.2955 22.4403 82.0108 22.2232C81.7419 21.9906 81.5362 21.7116 81.3938 21.386C81.2673 21.0449 81.1882 20.6883 81.1565 20.3162C81.1249 19.9286 81.1091 19.5798 81.1091 19.2697V13.6186H78.2616V20.6651C78.2616 21.2387 78.3328 21.7891 78.4752 22.3162C78.6176 22.8434 78.8549 23.3162 79.1871 23.7348C79.5193 24.1379 79.9464 24.4635 80.4684 24.7116C81.0063 24.9441 81.6549 25.0604 82.4142 25.0604C83.3633 25.0604 84.1147 24.8589 84.6684 24.4558C85.2221 24.0372 85.6334 23.5488 85.9023 22.9906H85.9497V24.7813ZM92.1243 13.6186H94.9718V15.386H95.0192C95.3356 14.7348 95.7865 14.231 96.3718 13.8744C96.9571 13.5178 97.6294 13.3395 98.3887 13.3395C98.5627 13.3395 98.7288 13.355 98.887 13.386C99.061 13.417 99.235 13.4558 99.409 13.5023V16.2C99.1718 16.1379 98.9345 16.0914 98.6972 16.0604C98.4757 16.0139 98.2542 15.9906 98.0328 15.9906C97.3684 15.9906 96.8305 16.1147 96.4192 16.3627C96.0238 16.5953 95.7153 16.8666 95.4938 17.1767C95.2882 17.4868 95.1458 17.7969 95.0667 18.1069C95.0034 18.417 94.9718 18.6496 94.9718 18.8046V24.7813H92.1243V13.6186ZM107.906 16.1534C108.27 16.355 108.618 16.6263 108.95 16.9674L110.92 15.0372C110.366 14.448 109.718 14.0217 108.974 13.7581C108.246 13.479 107.519 13.3395 106.791 13.3395C105.937 13.3395 105.13 13.479 104.371 13.7581C103.611 14.0372 102.955 14.4325 102.401 14.9441C101.847 15.4558 101.404 16.0759 101.072 16.8046C100.756 17.5178 100.598 18.3162 100.598 19.2C100.598 20.0837 100.756 20.8899 101.072 21.6186C101.404 22.3317 101.847 22.9441 102.401 23.4558C102.955 23.9674 103.611 24.3627 104.371 24.6418C105.13 24.9209 105.937 25.0604 106.791 25.0604C107.044 25.0604 107.345 25.0294 107.693 24.9674C108.041 24.9209 108.405 24.8356 108.784 24.7116C109.164 24.5875 109.536 24.4248 109.899 24.2232C110.279 24.0217 110.611 23.7813 110.896 23.5023L108.998 21.5023C108.729 21.8434 108.405 22.1069 108.025 22.293C107.645 22.4635 107.234 22.5488 106.791 22.5488C106.269 22.5488 105.802 22.4558 105.391 22.2697C104.98 22.0837 104.624 21.8356 104.323 21.5255C104.038 21.2155 103.817 20.8589 103.659 20.4558C103.516 20.0527 103.445 19.6341 103.445 19.2C103.445 18.7658 103.516 18.3472 103.659 17.9441C103.817 17.541 104.038 17.1844 104.323 16.8744C104.624 16.5643 104.98 16.3162 105.391 16.1302C105.802 15.9441 106.269 15.8511 106.791 15.8511C107.171 15.8511 107.542 15.9519 107.906 16.1534ZM116.126 22.1302C116.695 22.5953 117.383 22.8279 118.19 22.8279C118.902 22.8279 119.495 22.6883 119.97 22.4093C120.46 22.1147 120.887 21.7503 121.251 21.3162L123.292 22.8279C122.627 23.6341 121.884 24.2077 121.061 24.5488C120.239 24.8899 119.376 25.0604 118.475 25.0604C117.621 25.0604 116.814 24.9209 116.054 24.6418C115.295 24.3627 114.639 23.9674 114.085 23.4558C113.531 22.9441 113.088 22.3317 112.756 21.6186C112.44 20.8899 112.282 20.0837 112.282 19.2C112.282 18.3162 112.44 17.5178 112.756 16.8046C113.088 16.0759 113.531 15.4558 114.085 14.9441C114.639 14.4325 115.295 14.0372 116.054 13.7581C116.814 13.479 117.621 13.3395 118.475 13.3395C119.266 13.3395 119.985 13.479 120.634 13.7581C121.298 14.0217 121.86 14.4093 122.319 14.9209C122.793 15.4325 123.157 16.0682 123.41 16.8279C123.679 17.572 123.814 18.4325 123.814 19.4093V20.1767H115.129C115.224 21.0139 115.556 21.6651 116.126 22.1302ZM120.183 16.1534C120.689 16.6186 120.95 17.262 120.966 18.0837H115.129C115.24 17.2775 115.54 16.6341 116.031 16.1534C116.537 15.6728 117.217 15.4325 118.071 15.4325C118.973 15.4325 119.677 15.6728 120.183 16.1534ZM126.975 8.31623H133.595C134.703 8.31623 135.77 8.48677 136.799 8.82786C137.827 9.15344 138.736 9.65732 139.527 10.3395C140.318 11.0217 140.951 11.8821 141.426 12.9209C141.9 13.9441 142.138 15.1534 142.138 16.5488C142.138 17.9596 141.861 19.1844 141.307 20.2232C140.769 21.2465 140.065 22.0992 139.195 22.7813C138.341 23.448 137.384 23.9519 136.324 24.293C135.28 24.6186 134.252 24.7813 133.239 24.7813H126.975V8.31623ZM134.829 21.8279C134.007 22.0294 133.129 22.1302 132.195 22.1302H129.965V10.9674H132.694C133.611 10.9674 134.449 11.0759 135.209 11.293C135.984 11.4945 136.648 11.8201 137.202 12.2697C137.771 12.7038 138.214 13.2775 138.531 13.9906C138.847 14.7038 139.005 15.5565 139.005 16.5488C139.005 17.5565 138.823 18.417 138.46 19.1302C138.112 19.8279 137.629 20.4015 137.012 20.8511C136.395 21.2852 135.668 21.6108 134.829 21.8279ZM148.232 22.1302C148.801 22.5953 149.489 22.8279 150.296 22.8279C151.008 22.8279 151.601 22.6883 152.076 22.4093C152.566 22.1147 152.993 21.7503 153.357 21.3162L155.398 22.8279C154.734 23.6341 153.99 24.2077 153.167 24.5488C152.345 24.8899 151.483 25.0604 150.581 25.0604C149.727 25.0604 148.92 24.9209 148.161 24.6418C147.401 24.3627 146.745 23.9674 146.191 23.4558C145.638 22.9441 145.195 22.3317 144.862 21.6186C144.546 20.8899 144.388 20.0837 144.388 19.2C144.388 18.3162 144.546 17.5178 144.862 16.8046C145.195 16.0759 145.638 15.4558 146.191 14.9441C146.745 14.4325 147.401 14.0372 148.161 13.7581C148.92 13.479 149.727 13.3395 150.581 13.3395C151.372 13.3395 152.092 13.479 152.74 13.7581C153.405 14.0217 153.966 14.4093 154.425 14.9209C154.9 15.4325 155.263 16.0682 155.517 16.8279C155.785 17.572 155.92 18.4325 155.92 19.4093V20.1767H147.235C147.33 21.0139 147.662 21.6651 148.232 22.1302ZM152.289 16.1534C152.796 16.6186 153.057 17.262 153.073 18.0837H147.235C147.346 17.2775 147.647 16.6341 148.137 16.1534C148.643 15.6728 149.323 15.4325 150.178 15.4325C151.079 15.4325 151.783 15.6728 152.289 16.1534ZM164.895 16.7116C164.341 15.9519 163.597 15.572 162.664 15.572C162.285 15.572 161.913 15.6651 161.549 15.8511C161.185 16.0372 161.003 16.3395 161.003 16.7581C161.003 17.0992 161.153 17.3472 161.454 17.5023C161.755 17.6573 162.134 17.7891 162.593 17.8976C163.052 18.0062 163.542 18.1224 164.064 18.2465C164.602 18.355 165.1 18.5333 165.559 18.7813C166.018 19.0139 166.397 19.3395 166.698 19.7581C166.999 20.1767 167.149 20.7503 167.149 21.479C167.149 22.1457 166.999 22.7116 166.698 23.1767C166.413 23.6263 166.034 23.9907 165.559 24.2697C165.1 24.5488 164.578 24.7503 163.993 24.8744C163.408 24.9984 162.822 25.0604 162.237 25.0604C161.351 25.0604 160.536 24.9364 159.793 24.6883C159.049 24.4403 158.385 23.9906 157.8 23.3395L159.698 21.5953C160.062 21.9984 160.449 22.3317 160.861 22.5953C161.288 22.8434 161.802 22.9674 162.403 22.9674C162.609 22.9674 162.822 22.9441 163.044 22.8976C163.265 22.8511 163.471 22.7736 163.661 22.6651C163.851 22.5565 164.001 22.4248 164.112 22.2697C164.238 22.0992 164.301 21.9054 164.301 21.6883C164.301 21.3007 164.151 21.0139 163.851 20.8279C163.55 20.6418 163.17 20.4945 162.712 20.386C162.253 20.262 161.755 20.1534 161.217 20.0604C160.695 19.9519 160.204 19.7891 159.746 19.572C159.287 19.3395 158.907 19.0217 158.607 18.6186C158.306 18.2155 158.156 17.6573 158.156 16.9441C158.156 16.324 158.282 15.7891 158.535 15.3395C158.804 14.8744 159.152 14.4945 159.579 14.2C160.007 13.9054 160.497 13.6883 161.051 13.5488C161.604 13.4093 162.166 13.3395 162.735 13.3395C163.495 13.3395 164.246 13.4713 164.99 13.7348C165.733 13.9829 166.334 14.417 166.793 15.0372L164.895 16.7116Z" fill="#9CA2AA"/>
<rect width="34.2" height="34.2" rx="10.26" fill="#9CA2AA"/>
<path d="M18.0556 7.71314C19.2062 6.54907 21.0717 6.54907 22.2223 7.71314C23.3728 8.87721 23.3728 10.7645 22.2223 11.9286L14.3056 19.9379L11.8055 17.4087C10.8851 16.4774 10.8851 14.9675 11.8055 14.0363L18.0556 7.71314Z" fill="white"/>
<path d="M16.1448 26.487C14.9943 27.6511 13.1287 27.6511 11.9782 26.487C10.8276 25.3229 10.8276 23.4356 11.9782 22.2715L19.8949 14.2622L22.3949 16.7915C23.3153 17.7227 23.3153 19.2326 22.3949 20.1638L16.1448 26.487Z" fill="#CBCFD6"/>
</svg>
