<svg width="154" height="33" viewBox="0 0 154 33" fill="none" xmlns="http://www.w3.org/2000/svg">
<path fill-rule="evenodd" clip-rule="evenodd" d="M110.945 8.934C110.18 8.21654 109.362 7.74784 108.076 7.74784C106.325 7.74784 105.367 8.87636 105.367 10.7836V11.3243H111.41V14.0824H105.367V22.8615H102.198V10.78C102.198 7.36206 104.603 4.74097 108.018 4.74097C109.877 4.74097 111.327 5.45843 112.639 6.69868L110.945 8.934ZM116.93 4.76968H113.761V22.8614H116.93V4.76968ZM42.8926 6.879H46.2764V19.6708H53.3657V22.8616H46.2764H42.8926V19.6708V6.879ZM61.5483 9.56857C57.5856 9.56857 54.552 12.6042 54.552 16.4908C54.552 20.4892 57.3962 23.4131 61.9879 23.4131C64.0103 23.4131 66.09 22.5839 67.455 21.4554L66.0328 19.0543C65.2396 19.7176 63.653 20.4062 62.0701 20.4062C59.9189 20.4062 58.4003 19.3715 57.9001 17.7311H68.2732V16.4908C68.2732 12.6006 65.486 9.56857 61.5483 9.56857ZM61.5483 12.4637C63.385 12.4637 64.5856 13.5164 65.0109 15.11H57.9144C58.3789 13.502 59.6903 12.4637 61.5483 12.4637ZM77.9783 9.62269C75.1911 9.62269 72.0467 10.8376 70.571 12.3808V22.8327H73.7404V13.7977C74.7624 13.0802 76.0166 12.6836 77.3208 12.6836C79.0717 12.6836 80.0258 13.621 80.0258 15.4128V22.8327H83.1988V14.5872C83.1988 11.4145 81.2872 9.62269 77.9783 9.62269ZM126.607 9.67663C122.615 9.67663 119.528 12.7124 119.528 16.5989C119.528 20.4891 122.615 23.5212 126.607 23.5212C130.598 23.5212 133.685 20.4855 133.685 16.5989C133.689 12.7124 130.598 9.67663 126.607 9.67663ZM126.607 20.4602C124.448 20.4602 122.779 18.7765 122.779 16.5989C122.779 14.4212 124.448 12.7375 126.607 12.7375C128.765 12.7375 130.434 14.4212 130.434 16.5989C130.434 18.7801 128.769 20.4602 126.607 20.4602ZM148.093 17.558L150.69 9.95436H153.999L149.35 22.9733H147.139L144.033 14.6377L140.932 22.9733H138.716L134.072 9.95436H137.38L139.978 17.558L142.736 9.95436H145.334L148.093 17.558ZM96.0732 10.6608C95.0436 10.0371 93.7324 9.59365 91.9997 9.59365C88.2262 9.59365 85.4391 12.6005 85.4391 16.4907C85.4391 20.3809 88.2544 23.3877 92.0278 23.3877C95.0621 23.3877 97.7707 22.2016 99.2465 20.6585V4.76968H96.0767V10.6608H96.0732ZM88.6944 16.4907C88.6944 14.3131 90.3347 12.6294 92.6324 12.6294C94.0967 12.6294 95.1976 13.08 96.0767 13.8336V19.274C95.1509 19.9663 94.0545 20.3556 92.6324 20.3556C90.3347 20.3521 88.6944 18.6684 88.6944 16.4907Z" fill="#9CA2AA"/>
<path fill-rule="evenodd" clip-rule="evenodd" d="M15.6223 0H16.5192C17.2196 0 17.7841 0.569646 17.7841 1.27269V31.2837C17.7841 31.9904 17.216 32.56 16.5192 32.56H15.6223C14.922 32.56 14.3574 31.9868 14.3574 31.2837V1.2763C14.3574 0.569646 14.9255 0 15.6223 0Z" fill="#9CA2AA"/>
<path fill-rule="evenodd" clip-rule="evenodd" d="M23.5368 6.87915H22.6399C21.9431 6.87915 21.375 7.4488 21.375 8.15545V24.329C21.375 25.0322 21.9395 25.6054 22.6399 25.6054H23.5368C24.2336 25.6054 24.8017 25.0358 24.8017 24.329V8.15184C24.7981 7.44879 24.2336 6.87915 23.5368 6.87915Z" fill="#9CA2AA"/>
<path fill-rule="evenodd" clip-rule="evenodd" d="M8.62627 6.87915H9.52316C10.2199 6.87915 10.7881 7.44879 10.7881 8.15184V24.329C10.7881 25.0358 10.2199 25.6054 9.52316 25.6054H8.62627C7.92591 25.6054 7.36133 25.0322 7.36133 24.329V8.15545C7.36133 7.4488 7.92948 6.87915 8.62627 6.87915Z" fill="#9CA2AA"/>
<path fill-rule="evenodd" clip-rule="evenodd" d="M29.8297 18.6432C31.1164 18.6432 32.1595 17.5908 32.1595 16.2926C32.1595 14.9943 31.1164 13.9419 29.8297 13.9419C28.5431 13.9419 27.5 14.9943 27.5 16.2926C27.5 17.5908 28.5431 18.6432 29.8297 18.6432Z" fill="#9CA2AA"/>
<path fill-rule="evenodd" clip-rule="evenodd" d="M4.65952 16.2926C4.65952 17.5908 3.61645 18.6432 2.32976 18.6432C1.04307 18.6432 0 17.5908 0 16.2926C0 14.9943 1.04307 13.9419 2.32976 13.9419C3.61645 13.9419 4.65952 14.9943 4.65952 16.2926Z" fill="#9CA2AA"/>
</svg>
