<svg width="197" height="42" viewBox="0 0 197 42" fill="none" xmlns="http://www.w3.org/2000/svg">
<path fill-rule="evenodd" clip-rule="evenodd" d="M24.0102 5.75028C21.9262 4.37312 19.4261 3.56914 16.7388 3.56914V3.56831C9.49913 3.56831 3.60813 9.39525 3.60813 16.5569C3.609 17.3522 3.68397 18.1456 3.83207 18.9272L1.225 22.7637C0.437021 20.845 0 18.7513 0 16.5569C0 7.42739 7.50873 5.92311e-06 16.7388 5.92311e-06C21.5961 -0.00406837 26.2162 2.09395 29.4015 5.75028H24.0102ZM5.63447 31.2667C8.67021 33.4552 12.407 34.7499 16.4513 34.7499V34.7508C20.0937 34.7572 23.6562 33.6859 26.6874 31.6724C22.024 37.5043 16.4822 41.4816 16.3302 41.59V41.6L16.3244 41.595C16.3227 41.595 16.3176 41.6 16.3176 41.6V41.59C16.1614 41.4783 10.3631 37.3219 5.63447 31.2667Z" fill="#9CA2AA"/>
<path d="M9.30273 13.4302H13.544L15.0888 11.0609H32.2533V10.4793C31.8408 9.43831 31.3223 8.44227 30.706 7.50684H10.6996L12.014 9.19591L9.30273 13.4302Z" fill="#9CA2AA"/>
<path d="M8.32248 14.9601L2.18945 24.5337C2.81625 25.6398 3.56855 26.6703 4.43152 27.6049L9.90232 19.0981L7.90318 18.5117H11.5529V18.5142H23.7707L25.3797 14.9592H8.32248V14.9601Z" fill="#9CA2AA"/>
<path fill-rule="evenodd" clip-rule="evenodd" d="M26.4713 25.3354C23.972 28.0628 20.4198 29.6174 16.6948 29.6142C13.3401 29.6179 10.1107 28.3563 7.66653 26.0876L5.63086 29.0564C8.69309 31.7027 12.6253 33.1595 16.6948 33.155C22.5007 33.1587 27.8972 30.2019 30.9662 25.3354H26.4713Z" fill="#9CA2AA"/>
<path fill-rule="evenodd" clip-rule="evenodd" d="M48.0676 26.5149H44.8008V13.9451H54.8735V16.4585H48.0688V19.4236H53.4216V21.936H48.0676V26.5149ZM61.2275 24.0027H67.8524V26.5149H57.9582V13.9451H61.2263V24.0039L61.2275 24.0027ZM100.523 26.5149H103.788H103.791V16.4585H107.6V13.9451H96.7107V16.4585H100.523V26.5149ZM74.2042 21.3972H79.5592V18.8848H70.936V26.5149H81.0087V24.0027H74.2042V21.3984V21.3972ZM70.936 16.4585V13.9451H81.0087V16.4585H70.936ZM87.5438 21.3972H92.8988V18.8848H84.278V26.5149H94.3519V24.0027H87.5438V21.3984V21.3972ZM84.278 16.4585V13.9451H94.3519V16.4585H84.278Z" fill="#9CA2AA"/>
<path d="M118.14 26.2249C116.954 26.2249 116.083 25.9538 115.529 25.4054C114.972 24.8631 114.691 24.0077 114.691 22.849V17.1553C114.691 15.9128 114.979 15.0098 115.554 14.4459C116.129 13.8843 117.051 13.6001 118.321 13.6001H124.856V16.1135H119.047C118.322 16.1135 117.957 16.4732 117.957 17.1888V22.9086C117.957 23.1798 118.039 23.3984 118.204 23.5585C118.367 23.7186 118.587 23.801 118.866 23.801H121.598C121.93 23.801 122.252 23.7508 122.568 23.6481H124.856V25.9944C124.061 26.1462 123.252 26.2235 122.442 26.2249H118.14Z" fill="#9CA2AA"/>
<path d="M139.196 26.1699H135.927V21.0522H131.389V26.1699H128.125V13.6001H131.389V18.5399H135.927V13.6001H139.196V26.1711V26.1699Z" fill="#9CA2AA"/>
<path d="M160.612 17.5508C160.612 18.2687 160.974 18.6295 161.7 18.6295H164.969C166.152 18.6295 167.023 18.8995 167.58 19.4418C168.139 19.9842 168.416 20.8289 168.416 21.984V22.8668C168.416 24.0244 168.139 24.8691 167.58 25.4114C167.023 25.9538 166.154 26.2237 164.969 26.2237H160.139C159.255 26.2237 158.38 26.1473 157.508 25.992V23.6923H164.242C164.521 23.6923 164.74 23.6159 164.904 23.4654C165.071 23.3039 165.16 23.0792 165.15 22.8478V21.3234H160.974C159.704 21.3234 158.781 21.039 158.206 20.4691C157.631 19.9017 157.344 18.9867 157.344 17.7335V17.1912C157.344 15.9368 157.631 15.023 158.206 14.4519C158.781 13.8879 159.704 13.6001 160.974 13.6001H167.344V16.1125H161.7C160.974 16.1125 160.612 16.4732 160.612 17.1912V17.5508Z" fill="#9CA2AA"/>
<path d="M185.205 13.6001H192.829C194.1 13.6001 195.02 13.8867 195.596 14.4519C196.171 15.023 196.459 15.938 196.459 17.1912V18.8076C196.459 19.8026 196.291 20.5755 195.958 21.1227C195.626 21.6746 195.098 22.0413 194.371 22.223L196.64 26.1711H193.1L191.015 22.4021H188.473V26.1711H185.205V13.6001Z" fill="#9CA2AA"/>
<path d="M193.19 17.1912C193.19 16.4744 192.829 16.1135 192.1 16.1135H188.473V19.8863H192.101C192.829 19.8863 193.192 19.5243 193.192 18.8076V17.1912H193.19Z" fill="white"/>
<path d="M175.131 21.0523H180.486V18.54H171.865V26.17H181.938V23.6578H175.131V21.0535V21.0523Z" fill="#9CA2AA"/>
<path d="M171.865 13.6001V16.1135H181.938V13.6001H171.865Z" fill="#9CA2AA"/>
<path d="M150.357 13.6001H146.726L141.914 26.1711H145.456L145.927 24.8737L147.283 21.0247L148.541 17.3739L149.797 21.0224L151.148 24.8547L151.627 26.1711H155.166L150.357 13.6013V13.6001Z" fill="#9CA2AA"/>
</svg>
