<svg width="72" height="40" viewBox="0 0 72 40" fill="none" xmlns="http://www.w3.org/2000/svg">
<path d="M20.5256 0H9.63086L17.5256 5.21053H28.4203L20.5256 0Z" fill="#9CA1AA"/>
<path d="M17.5256 14.2105V5.21053L9.63086 0V8.52632L17.5256 14.2105Z" fill="#CBCFD6"/>
<path d="M0 8.52637H9.63158L17.5263 14.2106L8.52632 14.5264L0 8.52637Z" fill="#9CA1AA"/>
<path d="M8.52632 24.7895V14.5264L0 8.52637V18.7895L8.52632 24.7895Z" fill="#CBCFD6"/>
<path d="M34.4203 15.0002H28.894V19.5792H24.6309V25.4213H28.894V36.0002C28.894 37.1055 30.1572 39.316 34.4203 39.316C36.3906 39.316 39.1572 38.0529 39.1572 38.0529L38.2098 33.7897C38.2098 33.7897 36.9035 34.6853 35.9993 34.5792C35.2517 34.4915 34.4203 33.4739 34.4203 33.4739V25.4213H39.1572V19.5792H34.4203V15.0002Z" fill="#9CA1AA"/>
<path d="M67.2621 15.158H61.7358V19.7369H57.4727V25.579H61.7358V36.158C61.7358 37.2632 62.999 39.4737 67.2621 39.4737C69.2324 39.4737 71.999 38.2106 71.999 38.2106L71.0516 33.9474C71.0516 33.9474 69.7453 34.843 68.8411 34.7369C68.0935 34.6492 67.2621 33.6316 67.2621 33.6316V25.579H71.999V19.7369H67.2621V15.158Z" fill="#9CA1AA"/>
<rect x="42" y="20.5264" width="5.68421" height="18" fill="#9CA1AA"/>
<circle cx="44.8421" cy="16.4212" r="2.84211" fill="#9CA1AA"/>
<rect x="49.8945" y="13.5791" width="5.68421" height="24.9474" fill="#9CA1AA"/>
</svg>
