<svg
  width="26"
  height="26"
  viewBox="0 0 26 26"
  fill="none"
  xmlns="http://www.w3.org/2000/svg"
>
  <path
    d="M25.419 22.5702C25.286 23.9582 23.9842 25.2455 22.5808 25.3899C16.1657 26.0256 9.70392 26.0256 3.28889 25.3899C1.88551 25.2455 0.58488 23.9582 0.450707 22.5702C-0.147632 16.1597 -0.147632 9.70699 0.450707 3.29642C0.58488 1.90845 1.88551 0.627254 3.28889 0.47681C9.70392 -0.158937 16.1657 -0.158937 22.5808 0.47681C23.9842 0.622401 25.286 1.90845 25.419 3.29642C26.0185 9.70694 26.0185 16.1597 25.419 22.5702Z"
    fill="#F3F2F4"
  />
  <path
    d="M7.65888 16.5443H10.2601L9.19401 18.915C9.19419 18.9182 9.19419 18.9215 9.19401 18.9247C9.09786 19.1338 8.961 19.3215 8.79149 19.4767C8.48348 19.7581 8.08258 19.915 7.66613 19.9171H7.65646C7.21412 19.9124 6.79121 19.734 6.4783 19.4202C6.16539 19.1063 5.98735 18.682 5.98232 18.238V18.2295C5.98608 17.7851 6.16323 17.3599 6.47576 17.045C6.78828 16.7302 7.21129 16.5509 7.65404 16.5455L7.65888 16.5443ZM15.7044 9.11428C15.7842 8.93472 15.8652 8.75759 15.9462 8.57802C16.0272 8.39846 16.1069 8.22132 16.1879 8.04176C16.2689 7.8622 16.3487 7.68628 16.4297 7.50672L16.6714 6.97167V6.96196C16.7386 6.8124 16.8265 6.67311 16.9325 6.54824C17.0381 6.4245 17.1601 6.31592 17.2952 6.22552C17.4298 6.13716 17.5763 6.06852 17.7303 6.02169C17.8079 6 17.8866 5.98259 17.966 5.96952C18.0462 5.95894 18.1269 5.95327 18.2078 5.95253H18.2174C18.437 5.95227 18.6544 5.996 18.8569 6.08114C19.0601 6.165 19.2448 6.2885 19.4002 6.44448C19.5556 6.60047 19.6787 6.78584 19.7622 6.98987C19.8023 7.09162 19.8346 7.19625 19.8589 7.30289C19.8777 7.41155 19.8886 7.52144 19.8916 7.63168V7.64017C19.892 7.86094 19.8484 8.07957 19.7634 8.2832C19.7195 8.38315 19.6682 8.47967 19.6099 8.57196C19.4882 8.75639 19.3313 8.91474 19.1482 9.03785C19.0561 9.09757 18.9595 9.1499 18.8593 9.19436C18.7578 9.23394 18.6536 9.26597 18.5474 9.29021C18.4393 9.3097 18.3297 9.32065 18.2199 9.32297H15.6101L15.7044 9.11307V9.11428ZM18.2041 4.02588C18.0315 4.02795 17.8591 4.04091 17.688 4.0647C17.5168 4.09118 17.3476 4.12928 17.1815 4.17875C16.5157 4.37842 15.9222 4.76838 15.4735 5.30101C15.2499 5.56371 15.0648 5.85703 14.9236 6.17213C14.9216 6.1776 14.9192 6.18287 14.9163 6.1879C14.8365 6.36625 14.7555 6.5446 14.6745 6.72416L14.4328 7.25921C14.3522 7.43716 14.2716 7.61551 14.191 7.79426L13.9493 8.32931C13.7994 8.66093 13.6503 8.99215 13.502 9.32297H0.0642082C0.0424505 9.96357 0.0259302 10.6046 0.0146484 11.246H12.6426C12.1365 12.3711 11.6309 13.4954 11.1256 14.6188H7.64075C6.69109 14.624 5.78198 15.0058 5.1117 15.6811C4.44143 16.3563 4.06438 17.2702 4.0628 18.2234V18.2501C4.06599 19.2031 4.44465 20.1161 5.11612 20.7898C5.7876 21.4636 6.69735 21.8433 7.64679 21.8462H7.66613C8.35496 21.8418 9.02816 21.6398 9.6064 21.264C10.1846 20.8883 10.6438 20.3544 10.9298 19.7254C10.9317 19.7204 10.9342 19.7155 10.937 19.7109L12.3586 16.5491H25.8073C25.829 15.9069 25.8451 15.2655 25.8556 14.6249H13.2277C13.7337 13.5006 14.2394 12.3763 14.7447 11.252H18.2307C18.7008 11.2489 19.1657 11.1533 19.5991 10.9706C19.8144 10.8766 20.0214 10.7646 20.2179 10.6357C20.8054 10.2391 21.2633 9.6774 21.5343 9.02086C21.714 8.58495 21.8072 8.11801 21.8087 7.64624C21.8081 7.63938 21.8081 7.63248 21.8087 7.62561C21.8077 7.15368 21.7141 6.68657 21.5331 6.25099C21.2604 5.59505 20.8012 5.03435 20.2127 4.63901C19.6243 4.24368 18.9328 4.03125 18.2247 4.0283L18.2041 4.02588Z"
    fill="#19191B"
  />
</svg>