<svg
  width="55"
  height="24"
  viewBox="0 0 55 24"
  fill="none"
  xmlns="http://www.w3.org/2000/svg"
>
  <path
    fill-rule="evenodd"
    clip-rule="evenodd"
    d="M9.39657 19.8483C7.08656 19.8483 4.95219 19.1088 3.21826 17.8587C5.91915 21.3173 9.23095 23.6913 9.3202 23.7551V23.7608C9.3202 23.7608 9.32106 23.76 9.32199 23.7592C9.32276 23.7585 9.32359 23.758 9.32402 23.758L9.32736 23.7608V23.7551C9.41423 23.6932 12.5795 21.4215 15.2432 18.0904C13.5118 19.2405 11.477 19.8524 9.39657 19.8487V19.8483ZM9.56075 2.0386C11.0957 2.0386 12.5237 2.49781 13.714 3.28441H16.7934C14.974 1.19601 12.3352 -0.00232374 9.56075 3.38311e-06C4.28878 3.38311e-06 0 4.24232 0 9.45684C0 10.7103 0.249614 11.9061 0.699683 13.002L2.18878 10.8107C2.10419 10.3643 2.06136 9.91109 2.06087 9.45684C2.06087 5.36631 5.42565 2.03813 9.56075 2.03813V2.0386ZM15.1186 14.471C13.691 16.0289 11.6621 16.9168 9.53445 16.915C7.61837 16.9171 5.77381 16.1965 4.37776 14.9006L3.21504 16.5963C4.9641 18.1079 7.2101 18.9399 9.53445 18.9374C12.8507 18.9395 15.933 17.2507 17.6859 14.471H15.1186ZM7.73367 7.67175H5.31121L6.85981 5.25323L6.10903 4.28848H17.5361C17.8882 4.82278 18.1843 5.39169 18.42 5.98627V6.31844H8.61607L7.73367 7.67175ZM1.24843 14.0137L4.75145 8.54552V8.54505H14.494L13.575 10.5755H6.59656V10.5741H4.51196L5.65381 10.9091L2.52904 15.7679C2.03613 15.2341 1.60644 14.6455 1.24843 14.0137ZM21.625 10.6068H22.9209V8.7905H25.0444V7.794H22.9213V6.61791H25.6203V5.62094H21.625V10.6068ZM30.7684 9.61026H28.1407L28.1402 9.61073V5.62094H26.8439V10.6068H30.7684V9.61026ZM43.727 10.6068H45.0224H45.0233V6.61791H46.5344V5.62094H42.215V6.61791H43.727V10.6068ZM35.4119 8.5768H33.2878V8.57727V9.61026H35.9868V10.6068H31.9915V7.5803H35.4119V8.5768ZM31.9915 6.61791V5.62094H35.9868V6.61791H31.9915ZM40.703 8.5768H38.5789V8.57727V9.61026H41.2794V10.6068H37.2836V7.5803H40.703V8.5768ZM37.2836 6.61791V5.62094H41.2794V6.61791H37.2836ZM21.9572 17.7197C22.1772 17.9372 22.5227 18.0447 22.9931 18.0447H24.6994C25.0208 18.0442 25.3413 18.0135 25.6569 17.9533V17.0226H24.7493C24.6239 17.0634 24.4961 17.0833 24.3644 17.0833H23.281C23.1703 17.0833 23.0829 17.0506 23.0183 16.9871C22.9527 16.9236 22.9204 16.8369 22.9204 16.7293V14.4606C22.9204 14.1767 23.0653 14.0341 23.3528 14.0341H25.6569V13.0371H23.0648C22.5611 13.0371 22.1953 13.1499 21.9672 13.3726C21.7391 13.5963 21.625 13.9545 21.625 14.4473V16.7056C21.625 17.1653 21.7362 17.5046 21.9572 17.7197ZM30.0481 18.0229H31.3443V13.0371H30.0481V14.9965H28.2481V13.0371H26.9532V18.0229H28.2481V15.993H30.0481V18.0229ZM40.2706 15.032C39.9826 15.032 39.8391 14.8889 39.8391 14.6041V14.4615C39.8391 14.1767 39.9826 14.0336 40.2706 14.0336H42.5096V13.0371H39.9826C39.4789 13.0371 39.113 13.1513 38.885 13.375C38.6569 13.6015 38.5428 13.964 38.5428 14.4615V14.6766C38.5428 15.1737 38.6569 15.5367 38.885 15.7617C39.113 15.9878 39.4789 16.1005 39.9826 16.1005H41.6391V16.7052C41.6432 16.797 41.6078 16.8861 41.5417 16.9502C41.4766 17.0099 41.3896 17.0402 41.2789 17.0402H38.6079V17.9523C38.9539 18.0139 39.3007 18.0443 39.6514 18.0443H41.5673C42.0373 18.0443 42.3823 17.9372 42.6032 17.722C42.8247 17.5069 42.9344 17.1719 42.9344 16.7128V16.3626C42.9344 15.9044 42.8247 15.5694 42.6032 15.3542C42.3823 15.1391 42.0368 15.032 41.5673 15.032H40.2706ZM52.6181 13.0371H49.5941V18.0234H50.8903V16.5284H51.8987L52.7255 18.0234H54.1296L53.2296 16.4574C53.5181 16.3853 53.7276 16.2399 53.8593 16.0209C53.9914 15.8039 54.0579 15.4973 54.0579 15.1026V14.4615C54.0579 13.9644 53.9438 13.6015 53.7158 13.375C53.4872 13.1508 53.1223 13.0371 52.6181 13.0371ZM52.3292 14.0341C52.6181 14.0341 52.7616 14.1772 52.7616 14.4615H52.7621V15.1026C52.7621 15.3869 52.6181 15.5305 52.3297 15.5305H50.8903V14.0341H52.3292ZM47.7223 15.993H45.5983V15.9935V17.0264H48.2982V18.0229H44.3029V14.9965H47.7223V15.993ZM44.3029 14.0341V13.0371H48.2982V14.0341H44.3029ZM34.3318 13.0371H35.7721V13.0376L37.6794 18.0234H36.2757L36.0857 17.5012L35.5497 15.9811L35.0517 14.534L34.5527 15.9821L34.0148 17.5088L33.8281 18.0234H32.423L34.3318 13.0371Z"
    fill="#F3F2F4"
  />
</svg>