<svg width="29" height="44" viewBox="0 0 29 44" fill="none" xmlns="http://www.w3.org/2000/svg">
<path d="M4.00698 41.74C4.15948 41.9451 4.23701 42.1952 4.22695 42.4493C4.23554 42.6296 4.19684 42.809 4.11456 42.9702C4.03229 43.1314 3.90924 43.269 3.75729 43.3696C3.34063 43.6108 2.86015 43.7231 2.37803 43.692H0L0 39.1373H2.25319C2.70862 39.11 3.16142 39.2227 3.54921 39.4597C3.6932 39.5544 3.81028 39.6838 3.88935 39.8357C3.96842 39.9875 4.00687 40.1567 4.00104 40.3273C4.00271 40.5335 3.9472 40.7362 3.84052 40.9135C3.73239 41.0883 3.57555 41.2287 3.3887 41.3179C3.63568 41.389 3.85262 41.5371 4.00698 41.74ZM1.03445 39.9345V41.0073H2.09267C2.29968 41.0175 2.50552 40.9709 2.68718 40.8724C2.75303 40.8276 2.80617 40.7669 2.84155 40.6961C2.87692 40.6253 2.89336 40.5468 2.88931 40.468C2.89408 40.3899 2.87791 40.3119 2.84243 40.2419C2.80694 40.172 2.7534 40.1125 2.68718 40.0694C2.5066 39.9682 2.29994 39.9213 2.09267 39.9345H1.03445ZM2.91903 42.76C2.98936 42.7146 3.04621 42.6516 3.08381 42.5774C3.1214 42.5033 3.1384 42.4207 3.13306 42.3379C3.13306 41.9628 2.8477 41.7517 2.28292 41.7517H1.03445V42.8772H2.28292C2.50974 42.9014 2.73881 42.8607 2.94282 42.76H2.91903Z" fill="white"/>
<path d="M10.321 42.8424V43.6924H6.74805V39.1377H10.2438V39.9818H7.80627V40.9725H9.95838V41.7932H7.80627V42.8483L10.321 42.8424Z" fill="white"/>
<path d="M15.9266 42.7135H13.7805L13.3703 43.6866H12.2764L14.3334 39.1377H15.3856L17.4486 43.6866H16.3369L15.9266 42.7135ZM15.5878 41.9163L14.8565 40.1577L14.1193 41.9163H15.5878Z" fill="white"/>
<path d="M23.1325 42.3555C23.1343 42.6094 23.0553 42.8575 22.9066 43.0648C22.7404 43.2947 22.5116 43.4736 22.2467 43.5806C21.9042 43.7131 21.5384 43.7769 21.1706 43.7682C20.8108 43.7672 20.4528 43.7179 20.1065 43.6217C19.8122 43.5487 19.5354 43.4192 19.292 43.2406L19.6546 42.4493C19.8685 42.6003 20.1053 42.717 20.3562 42.7952C20.621 42.8808 20.8979 42.9243 21.1766 42.9241C21.4087 42.9397 21.6409 42.8932 21.8484 42.7893C21.9145 42.7566 21.9702 42.7064 22.009 42.6443C22.0479 42.5821 22.0684 42.5106 22.0683 42.4376C22.0702 42.3856 22.0593 42.3339 22.0365 42.2869C22.0138 42.24 21.9798 42.1991 21.9375 42.1679C21.8437 42.0854 21.7318 42.0252 21.6106 41.9921C21.4738 41.9511 21.2895 41.8983 21.0636 41.8514C20.7716 41.786 20.4838 41.7038 20.2016 41.6052C19.9724 41.5241 19.7678 41.3869 19.6071 41.2066C19.4374 41.0024 19.3506 40.7434 19.3633 40.4797C19.363 40.2233 19.4395 39.9724 19.5833 39.7587C19.7479 39.5311 19.9747 39.3543 20.2373 39.2487C20.4011 39.1799 20.5728 39.1307 20.7485 39.1022C20.804 39.099 20.8595 39.099 20.915 39.1022C21.0476 39.0929 21.1807 39.0929 21.3133 39.1022C21.604 39.1019 21.8936 39.1373 22.1753 39.2077C22.4361 39.2667 22.6851 39.3677 22.9125 39.5066L22.5855 40.3039C22.1976 40.0787 21.7575 39.9555 21.3074 39.9463C21.1487 39.9413 20.9901 39.961 20.8377 40.0049C20.772 40.0217 20.7096 40.0495 20.6534 40.087C20.5873 40.1253 20.5327 40.1802 20.4951 40.2461C20.4575 40.312 20.4383 40.3865 20.4394 40.4621C20.4386 40.5376 20.4616 40.6114 20.5053 40.6734C20.5489 40.7354 20.6111 40.7824 20.6831 40.808C20.9278 40.9094 21.183 40.9841 21.4441 41.0307C21.7361 41.0961 22.0239 41.1783 22.3061 41.2769C22.5335 41.3558 22.7377 41.4887 22.9006 41.6638C23.0578 41.8604 23.1399 42.1053 23.1325 42.3555Z" fill="white"/>
<path d="M26.4559 39.9935H24.9756V39.1377H29.0004V39.9935H27.5201V43.6866H26.4559V39.9935Z" fill="white"/>
<path d="M19.6795 17.3689C19.6922 10.5774 18.7024 0 18.7024 0C18.7024 0 17.7832 10.5785 17.795 17.3689C17.8065 23.94 18.7024 34.1756 18.7024 34.1756C18.7024 34.1756 19.6671 23.9412 19.6795 17.3689Z" fill="white"/>
<path d="M10.8846 17.3689C10.8973 10.5774 9.90744 0 9.90744 0C9.90744 0 8.98827 10.5785 9.00011 17.3689C9.01157 23.94 9.90744 34.1756 9.90744 34.1756C9.90744 34.1756 10.8722 23.9412 10.8846 17.3689Z" fill="white"/>
<path d="M15.282 17.299C15.2948 12.1991 14.3049 4.25635 14.3049 4.25635C14.3049 4.25635 13.3857 12.1999 13.3976 17.299C13.409 22.2333 14.3049 29.9193 14.3049 29.9193C14.3049 29.9193 15.2697 22.2342 15.282 17.299Z" fill="white"/>
</svg>
