<svg width="34" height="34" viewBox="0 0 34 34" fill="none" xmlns="http://www.w3.org/2000/svg">
<path d="M17.4652 0H16.517C15.7803 0 15.1797 0.594839 15.1797 1.33274V32.6673C15.1797 33.4014 15.7766 34 16.517 34H17.4652C18.2019 34 18.8025 33.4052 18.8025 32.6673V1.32898C18.8025 0.59484 18.2057 0 17.4652 0Z" fill="#F3F2F4"/>
<path d="M24.2855 7H23.3373C22.6007 7 22 7.59484 22 8.33274V25.2217C22 25.9558 22.5969 26.5544 23.3373 26.5544H24.2855C25.0222 26.5544 25.6229 25.9596 25.6229 25.2217V8.32898C25.6191 7.59484 25.0222 7 24.2855 7Z" fill="#F3F2F4"/>
<path d="M10.0678 7.18311H9.11955C8.38289 7.18311 7.78223 7.77795 7.78223 8.51585V25.4048C7.78223 26.1389 8.37911 26.7375 9.11955 26.7375H10.0678C10.8044 26.7375 11.4051 26.1427 11.4051 25.4048V8.51208C11.4051 7.77794 10.8044 7.18311 10.0678 7.18311Z" fill="#F3F2F4"/>
<path d="M31.5373 19.4679C32.8976 19.4679 34.0004 18.3689 34.0004 17.0132C34.0004 15.6576 32.8976 14.5586 31.5373 14.5586C30.177 14.5586 29.0742 15.6576 29.0742 17.0132C29.0742 18.3689 30.177 19.4679 31.5373 19.4679Z" fill="#F3F2F4"/>
<path d="M2.46309 19.4679C3.82342 19.4679 4.92618 18.3689 4.92618 17.0132C4.92618 15.6576 3.82342 14.5586 2.46309 14.5586C1.10276 14.5586 0 15.6576 0 17.0132C0 18.3689 1.10276 19.4679 2.46309 19.4679Z" fill="#F3F2F4"/>
</svg>
