<svg width="51" height="11" viewBox="0 0 51 11" fill="none" xmlns="http://www.w3.org/2000/svg">
<path d="M6.22559 0.450195V1.89258H1.89844V4.40137H6.04102V5.84375H1.89844V8.55762H6.32129V10H0.0527344V0.450195H6.22559ZM9.58887 1.91992H9.72559V3.61523H11.9131V4.88672H9.72559V7.83301C9.72559 8.12012 9.81217 8.35254 9.98535 8.53027C10.1585 8.70801 10.3955 8.79688 10.6963 8.79688C11.0882 8.79688 11.5394 8.6556 12.0498 8.37305V9.71973C11.4437 9.98861 10.874 10.123 10.3408 10.123C9.62077 10.123 9.05794 9.92708 8.65234 9.53516C8.2513 9.14323 8.05078 8.6123 8.05078 7.94238V4.88672H7.05273V4.61328L9.58887 1.91992ZM14.6885 0.450195V4.51074H14.7295C15.2718 3.83171 15.9258 3.49219 16.6914 3.49219C17.3704 3.49219 17.9173 3.71549 18.332 4.16211C18.7467 4.60872 18.9541 5.19206 18.9541 5.91211V10H17.2793V6.2334C17.2793 5.80501 17.1768 5.46549 16.9717 5.21484C16.7712 4.95964 16.4954 4.83203 16.1445 4.83203C15.8893 4.83203 15.6478 4.90495 15.4199 5.05078C15.1966 5.19661 14.9528 5.43815 14.6885 5.77539V10H13.0068V0.450195H14.6885ZM23.7461 3.49219C24.4115 3.49219 25.0153 3.63118 25.5576 3.90918C26.0999 4.18717 26.5192 4.57682 26.8154 5.07812C27.1117 5.57943 27.2598 6.14681 27.2598 6.78027C27.2598 7.44108 27.1162 8.01986 26.8291 8.5166C26.5465 9.01335 26.1273 9.40527 25.5713 9.69238C25.0199 9.97949 24.4115 10.123 23.7461 10.123C23.0762 10.123 22.4678 9.97949 21.9209 9.69238C21.374 9.40527 20.957 9.01335 20.6699 8.5166C20.3874 8.01986 20.2461 7.44108 20.2461 6.78027C20.2461 6.1377 20.3965 5.56803 20.6973 5.07129C20.998 4.56999 21.4173 4.18262 21.9551 3.90918C22.4928 3.63118 23.0898 3.49219 23.7461 3.49219ZM22.0098 6.78027C22.0098 7.41829 22.1647 7.92871 22.4746 8.31152C22.7891 8.68978 23.2083 8.87891 23.7324 8.87891C24.2793 8.87891 24.71 8.69661 25.0244 8.33203C25.3389 7.96745 25.4961 7.44564 25.4961 6.7666C25.4961 6.11947 25.3366 5.62044 25.0176 5.26953C24.7031 4.91406 24.2747 4.73633 23.7324 4.73633C23.222 4.73633 22.8073 4.92318 22.4883 5.29688C22.1693 5.67057 22.0098 6.16504 22.0098 6.78027ZM30.6777 3.49219C31.0286 3.49219 31.359 3.5332 31.6689 3.61523C31.9788 3.69271 32.307 3.81803 32.6533 3.99121V5.33789C32.3343 5.13281 31.9925 4.96875 31.6279 4.8457C31.2633 4.7181 30.9375 4.6543 30.6504 4.6543C30.4089 4.6543 30.2197 4.69987 30.083 4.79102C29.9463 4.88216 29.8779 5.01204 29.8779 5.18066C29.8779 5.27637 29.9349 5.37207 30.0488 5.46777C30.1628 5.56348 30.4749 5.73893 30.9854 5.99414C31.7145 6.36328 32.2249 6.70508 32.5166 7.01953C32.8128 7.32943 32.9609 7.70312 32.9609 8.14062C32.9609 8.75586 32.7467 9.24121 32.3184 9.59668C31.89 9.94759 31.3112 10.123 30.582 10.123C30.1263 10.123 29.7002 10.0729 29.3037 9.97266C28.9118 9.8724 28.5859 9.75163 28.3262 9.61035V8.20898C29.1465 8.66471 29.8369 8.89258 30.3975 8.89258C30.6846 8.89258 30.917 8.84245 31.0947 8.74219C31.2725 8.63737 31.3613 8.50065 31.3613 8.33203C31.3613 8.23177 31.3294 8.14062 31.2656 8.05859C31.2018 7.97656 31.1061 7.89225 30.9785 7.80566C30.8509 7.71908 30.4521 7.51172 29.7822 7.18359C29.2673 6.9375 28.8867 6.6709 28.6406 6.38379C28.3945 6.09212 28.2715 5.74805 28.2715 5.35156C28.2715 4.78646 28.4925 4.33529 28.9346 3.99805C29.3766 3.66081 29.9577 3.49219 30.6777 3.49219ZM39.4893 0.327148C40.0316 0.327148 40.5625 0.388672 41.082 0.511719C41.6016 0.634766 42.1621 0.844401 42.7637 1.14062V2.87695C42.1758 2.53971 41.6312 2.2959 41.1299 2.14551C40.6331 1.99512 40.1136 1.91992 39.5713 1.91992C38.8923 1.91992 38.2793 2.0612 37.7324 2.34375C37.1855 2.62174 36.7594 3.01595 36.4541 3.52637C36.1533 4.03678 36.0029 4.60417 36.0029 5.22852C36.0029 5.86654 36.1533 6.43848 36.4541 6.94434C36.7549 7.4502 37.1787 7.84212 37.7256 8.12012C38.2725 8.39355 38.8877 8.53027 39.5713 8.53027C40.0954 8.53027 40.5944 8.45508 41.0684 8.30469C41.5469 8.1543 42.1484 7.88314 42.873 7.49121V9.22754C42.2533 9.55111 41.6836 9.78125 41.1641 9.91797C40.6445 10.0547 40.0384 10.123 39.3457 10.123C38.3385 10.123 37.4385 9.92253 36.6455 9.52148C35.8525 9.12044 35.2282 8.54395 34.7725 7.79199C34.3213 7.03548 34.0957 6.20833 34.0957 5.31055C34.0957 4.34896 34.3281 3.48535 34.793 2.71973C35.2624 1.9541 35.9049 1.36393 36.7207 0.949219C37.541 0.534505 38.4639 0.327148 39.4893 0.327148ZM50.8096 0.450195V1.89258H46.4824V4.40137H50.625V5.84375H46.4824V8.55762H50.9053V10H44.6367V0.450195H50.8096Z" fill="#F3F2F4"/>
</svg>
