<svg width="28" height="18" viewBox="0 0 28 18" fill="none" xmlns="http://www.w3.org/2000/svg">
<path d="M7.36044 5.54545V7.93182H0.462358V5.54545H7.36044ZM2.02841 2.80114H5.20526V13.4801C5.20526 13.7734 5.25 14.0021 5.33949 14.1662C5.42898 14.3253 5.55327 14.4371 5.71236 14.5018C5.87642 14.5664 6.06534 14.5987 6.27912 14.5987C6.42827 14.5987 6.57741 14.5863 6.72656 14.5614C6.87571 14.5316 6.99006 14.5092 7.0696 14.4943L7.56925 16.8583C7.41016 16.908 7.18643 16.9652 6.89808 17.0298C6.60973 17.0994 6.25923 17.1417 5.84659 17.1566C5.08097 17.1864 4.4098 17.0845 3.8331 16.8509C3.26136 16.6172 2.81641 16.2543 2.49822 15.7621C2.18004 15.2699 2.02344 14.6484 2.02841 13.8977V2.80114ZM9.42987 17V5.54545H12.6067V17H9.42987ZM11.0257 4.06889C10.5534 4.06889 10.1483 3.91229 9.81019 3.59908C9.4771 3.28089 9.31055 2.90057 9.31055 2.4581C9.31055 2.0206 9.4771 1.64524 9.81019 1.33203C10.1483 1.01385 10.5534 0.854758 11.0257 0.854758C11.498 0.854758 11.9007 1.01385 12.2338 1.33203C12.5719 1.64524 12.7409 2.0206 12.7409 2.4581C12.7409 2.90057 12.5719 3.28089 12.2338 3.59908C11.9007 3.91229 11.498 4.06889 11.0257 4.06889ZM18.3284 1.72727V17H15.1515V1.72727H18.3284ZM26.9659 5.54545V7.93182H20.0678V5.54545H26.9659ZM21.6339 2.80114H24.8107V13.4801C24.8107 13.7734 24.8555 14.0021 24.945 14.1662C25.0344 14.3253 25.1587 14.4371 25.3178 14.5018C25.4819 14.5664 25.6708 14.5987 25.8846 14.5987C26.0337 14.5987 26.1829 14.5863 26.332 14.5614C26.4812 14.5316 26.5955 14.5092 26.6751 14.4943L27.1747 16.8583C27.0156 16.908 26.7919 16.9652 26.5036 17.0298C26.2152 17.0994 25.8647 17.1417 25.4521 17.1566C24.6864 17.1864 24.0153 17.0845 23.4386 16.8509C22.8668 16.6172 22.4219 16.2543 22.1037 15.7621C21.7855 15.2699 21.6289 14.6484 21.6339 13.8977V2.80114Z" fill="#F3F2F4"/>
</svg>
