<svg width="29" height="17" viewBox="0 0 29 17" fill="none" xmlns="http://www.w3.org/2000/svg">
<path d="M9.61257 5.11967C9.55291 4.51811 9.29688 4.05078 8.84446 3.71768C8.39205 3.38459 7.77805 3.21804 7.00249 3.21804C6.4755 3.21804 6.03054 3.29261 5.66761 3.44176C5.30469 3.58594 5.02628 3.78729 4.83239 4.04581C4.64347 4.30433 4.54901 4.59766 4.54901 4.92578C4.53906 5.19922 4.59624 5.43786 4.72053 5.64169C4.84979 5.84553 5.02628 6.02202 5.25 6.17116C5.47372 6.31534 5.73224 6.44212 6.02557 6.55149C6.31889 6.65589 6.6321 6.74538 6.9652 6.81996L8.33736 7.14808C9.00355 7.29723 9.61506 7.49609 10.1719 7.74467C10.7287 7.99325 11.2109 8.29901 11.6186 8.66193C12.0263 9.02486 12.342 9.45241 12.5657 9.9446C12.7944 10.4368 12.9112 11.0011 12.9162 11.6374C12.9112 12.5721 12.6726 13.3825 12.2003 14.0685C11.733 14.7496 11.0568 15.2791 10.1719 15.657C9.2919 16.0298 8.23047 16.2163 6.98757 16.2163C5.75462 16.2163 4.68075 16.0273 3.76598 15.6495C2.85618 15.2717 2.14524 14.7124 1.63317 13.9716C1.12607 13.2259 0.860085 12.3036 0.835227 11.2049H3.95987C3.99467 11.717 4.14134 12.1445 4.39986 12.4876C4.66335 12.8256 5.01385 13.0817 5.45135 13.2557C5.89382 13.4247 6.39347 13.5092 6.95028 13.5092C7.49716 13.5092 7.97195 13.4297 8.37465 13.2706C8.78232 13.1115 9.09801 12.8903 9.32173 12.6069C9.54546 12.3235 9.65732 11.9979 9.65732 11.63C9.65732 11.2869 9.5554 10.9986 9.35156 10.7649C9.1527 10.5312 8.85938 10.3324 8.47159 10.1683C8.08878 10.0043 7.61896 9.85511 7.06215 9.72088L5.39915 9.30327C4.11151 8.99006 3.09482 8.50035 2.34908 7.83416C1.60334 7.16797 1.23295 6.2706 1.23793 5.14204C1.23295 4.21733 1.47905 3.40945 1.97621 2.7184C2.47834 2.02734 3.1669 1.48793 4.0419 1.10014C4.9169 0.712357 5.91122 0.518465 7.02486 0.518465C8.15838 0.518465 9.14773 0.712357 9.9929 1.10014C10.843 1.48793 11.5043 2.02734 11.9766 2.7184C12.4489 3.40945 12.6925 4.20987 12.7074 5.11967H9.61257ZM28.5637 6.07422H25.2973C25.2377 5.65163 25.1159 5.27628 24.9319 4.94815C24.748 4.61506 24.5118 4.33168 24.2235 4.09801C23.9351 3.86435 23.602 3.68537 23.2242 3.56108C22.8513 3.43679 22.4461 3.37465 22.0086 3.37465C21.2181 3.37465 20.5296 3.57102 19.9429 3.96378C19.3563 4.35156 18.9014 4.91832 18.5782 5.66406C18.2551 6.40483 18.0935 7.30469 18.0935 8.36364C18.0935 9.45241 18.2551 10.3672 18.5782 11.108C18.9063 11.8487 19.3637 12.408 19.9504 12.7859C20.537 13.1637 21.2156 13.3526 21.9862 13.3526C22.4188 13.3526 22.819 13.2955 23.1869 13.1811C23.5597 13.0668 23.8904 12.9002 24.1787 12.6815C24.4671 12.4577 24.7057 12.1868 24.8946 11.8686C25.0885 11.5504 25.2227 11.1875 25.2973 10.7798L28.5637 10.7947C28.4791 11.4957 28.2678 12.1719 27.9298 12.8232C27.5967 13.4695 27.1468 14.0487 26.58 14.5607C26.0182 15.0678 25.347 15.4705 24.5665 15.7688C23.7909 16.0621 22.9134 16.2088 21.934 16.2088C20.5718 16.2088 19.3538 15.9006 18.2799 15.2841C17.211 14.6676 16.3659 13.7752 15.7444 12.6069C15.1279 11.4386 14.8197 10.0241 14.8197 8.36364C14.8197 6.69815 15.1329 5.28125 15.7593 4.11293C16.3857 2.9446 17.2359 2.05469 18.3097 1.44318C19.3836 0.826704 20.5917 0.518465 21.934 0.518465C22.819 0.518465 23.6393 0.642755 24.395 0.891335C25.1556 1.13991 25.8293 1.50284 26.4159 1.98011C27.0026 2.45241 27.4798 3.0316 27.8477 3.71768C28.2206 4.40376 28.4593 5.18928 28.5637 6.07422Z" fill="#F3F2F4"/>
</svg>
