<svg width="114" height="114" viewBox="0 0 114 114" fill="none" xmlns="http://www.w3.org/2000/svg">
<path d="M57.501 80.2895C59.8654 80.2895 62.133 79.3502 63.8049 77.6783C65.4768 76.0064 66.4161 73.7388 66.4161 71.3744V27.0843C66.4511 25.8921 66.2466 24.7049 65.8145 23.5931C65.3825 22.4813 64.7317 21.4675 63.9007 20.6117C63.0698 19.756 62.0756 19.0757 60.977 18.6111C59.8784 18.1466 58.6977 17.9072 57.5049 17.9072C56.3121 17.9072 55.1314 18.1466 54.0328 18.6111C52.9342 19.0757 51.94 19.756 51.109 20.6117C50.2781 21.4675 49.6273 22.4813 49.1952 23.5931C48.7632 24.7049 48.5586 25.8921 48.5937 27.0843V71.3744C48.5937 73.7375 49.5319 76.0039 51.2021 77.6756C52.8724 79.3473 55.138 80.2874 57.501 80.2895Z" fill="#00FF72"/>
<path d="M91.8424 0C89.478 0 87.2104 0.93926 85.5385 2.61115C83.8666 4.28305 82.9273 6.55062 82.9273 8.91504V70.7501C82.9273 77.4939 80.2484 83.9615 75.4798 88.7301C70.7112 93.4987 64.2436 96.1776 57.4998 96.1776C50.756 96.1776 44.2884 93.4987 39.5199 88.7301C34.7513 83.9615 32.0723 77.4939 32.0723 70.7501V47.3337C32.1074 46.1414 31.9028 44.9542 31.4708 43.8424C31.0387 42.7306 30.3879 41.7168 29.557 40.8611C28.7261 40.0053 27.7318 39.3251 26.6332 38.8605C25.5346 38.396 24.3539 38.1566 23.1611 38.1566C21.9683 38.1566 20.7877 38.396 19.6891 38.8605C18.5904 39.3251 17.5962 40.0053 16.7653 40.8611C15.9343 41.7168 15.2835 42.7306 14.8515 43.8424C14.4194 44.9542 14.2149 46.1414 14.2499 47.3337V70.7501C14.4017 82.1217 19.0256 92.9762 27.1207 100.964C35.2159 108.952 46.1311 113.43 57.5037 113.43C68.8763 113.43 79.7915 108.952 87.8866 100.964C95.9818 92.9762 100.606 82.1217 100.757 70.7501V8.91504C100.757 6.55062 99.8182 4.28305 98.1463 2.61115C96.4744 0.93926 94.2068 0 91.8424 0V0Z" fill="#00FF72"/>
</svg>
