<svg width="345" height="170" viewBox="0 0 345 170" fill="none" xmlns="http://www.w3.org/2000/svg">
<path d="M0 74.9337C0 54.5811 16.4991 38.082 36.8517 38.082H38.3622C59.3944 38.082 76.4444 55.132 76.4444 76.1642H0L0 74.9337Z" fill="#EDF4FE"/>
<path d="M16.9813 63.252V56.347H19.4425C19.9797 56.347 20.4248 56.4448 20.7776 56.6403C21.1305 56.8359 21.3946 57.1033 21.57 57.4427C21.7453 57.7799 21.8329 58.1598 21.8329 58.5823C21.8329 59.0071 21.7442 59.3893 21.5666 59.7287C21.3913 60.0658 21.126 60.3333 20.7709 60.5311C20.418 60.7266 19.9741 60.8244 19.4391 60.8244H17.7466V59.9411H19.3447C19.6841 59.9411 19.9595 59.8826 20.1708 59.7658C20.382 59.6466 20.5371 59.4848 20.636 59.2802C20.7349 59.0757 20.7844 58.8431 20.7844 58.5823C20.7844 58.3216 20.7349 58.0901 20.636 57.8878C20.5371 57.6855 20.3809 57.527 20.1674 57.4124C19.9561 57.2978 19.6774 57.2404 19.3312 57.2404H18.0231V63.252H16.9813ZM22.7822 63.252V58.0732H23.7566V58.8959H23.8105C23.9049 58.6172 24.0712 58.398 24.3095 58.2384C24.55 58.0766 24.822 57.9957 25.1254 57.9957C25.1884 57.9957 25.2625 57.9979 25.3479 58.0024C25.4356 58.0069 25.5042 58.0125 25.5536 58.0193V58.9835C25.5131 58.9723 25.4412 58.9599 25.3378 58.9465C25.2344 58.9307 25.131 58.9229 25.0276 58.9229C24.7894 58.9229 24.577 58.9734 24.3904 59.0746C24.2061 59.1735 24.06 59.3117 23.9521 59.4893C23.8442 59.6646 23.7903 59.8646 23.7903 60.0894V63.252H22.7822ZM28.2308 63.3565C27.7453 63.3565 27.3216 63.2452 26.9597 63.0227C26.5978 62.8002 26.3168 62.4889 26.1168 62.0888C25.9167 61.6887 25.8167 61.2211 25.8167 60.6862C25.8167 60.149 25.9167 59.6792 26.1168 59.2769C26.3168 58.8745 26.5978 58.5621 26.9597 58.3396C27.3216 58.1171 27.7453 58.0058 28.2308 58.0058C28.7163 58.0058 29.14 58.1171 29.5018 58.3396C29.8637 58.5621 30.1447 58.8745 30.3447 59.2769C30.5448 59.6792 30.6448 60.149 30.6448 60.6862C30.6448 61.2211 30.5448 61.6887 30.3447 62.0888C30.1447 62.4889 29.8637 62.8002 29.5018 63.0227C29.14 63.2452 28.7163 63.3565 28.2308 63.3565ZM28.2341 62.5102C28.5488 62.5102 28.8095 62.427 29.0163 62.2607C29.2231 62.0944 29.376 61.873 29.4749 61.5965C29.576 61.32 29.6266 61.0155 29.6266 60.6828C29.6266 60.3524 29.576 60.049 29.4749 59.7725C29.376 59.4938 29.2231 59.2701 29.0163 59.1016C28.8095 58.933 28.5488 58.8487 28.2341 58.8487C27.9172 58.8487 27.6542 58.933 27.4452 59.1016C27.2384 59.2701 27.0844 59.4938 26.9833 59.7725C26.8844 60.049 26.8349 60.3524 26.8349 60.6828C26.8349 61.0155 26.8844 61.32 26.9833 61.5965C27.0844 61.873 27.2384 62.0944 27.4452 62.2607C27.6542 62.427 27.9172 62.5102 28.2341 62.5102ZM33.9963 58.0732V58.8824H31.1675V58.0732H33.9963ZM31.9261 56.8325H32.9342V61.7314C32.9342 61.9269 32.9635 62.0742 33.0219 62.1731C33.0803 62.2697 33.1556 62.336 33.2478 62.372C33.3422 62.4057 33.4445 62.4225 33.5546 62.4225C33.6355 62.4225 33.7063 62.4169 33.767 62.4057C33.8277 62.3945 33.8749 62.3855 33.9086 62.3787L34.0907 63.2115C34.0322 63.234 33.9491 63.2564 33.8412 63.2789C33.7333 63.3037 33.5984 63.3171 33.4366 63.3194C33.1714 63.3239 32.9241 63.2767 32.6949 63.1778C32.4656 63.0789 32.2801 62.926 32.1385 62.7192C31.9969 62.5125 31.9261 62.2528 31.9261 61.9404V56.8325ZM37.046 63.3565C36.5605 63.3565 36.1368 63.2452 35.7749 63.0227C35.413 62.8002 35.1321 62.4889 34.932 62.0888C34.732 61.6887 34.6319 61.2211 34.6319 60.6862C34.6319 60.149 34.732 59.6792 34.932 59.2769C35.1321 58.8745 35.413 58.5621 35.7749 58.3396C36.1368 58.1171 36.5605 58.0058 37.046 58.0058C37.5315 58.0058 37.9552 58.1171 38.3171 58.3396C38.679 58.5621 38.9599 58.8745 39.16 59.2769C39.36 59.6792 39.46 60.149 39.46 60.6862C39.46 61.2211 39.36 61.6887 39.16 62.0888C38.9599 62.4889 38.679 62.8002 38.3171 63.0227C37.9552 63.2452 37.5315 63.3565 37.046 63.3565ZM37.0494 62.5102C37.364 62.5102 37.6248 62.427 37.8316 62.2607C38.0384 62.0944 38.1912 61.873 38.2901 61.5965C38.3912 61.32 38.4418 61.0155 38.4418 60.6828C38.4418 60.3524 38.3912 60.049 38.2901 59.7725C38.1912 59.4938 38.0384 59.2701 37.8316 59.1016C37.6248 58.933 37.364 58.8487 37.0494 58.8487C36.7324 58.8487 36.4695 58.933 36.2604 59.1016C36.0536 59.2701 35.8997 59.4938 35.7985 59.7725C35.6996 60.049 35.6502 60.3524 35.6502 60.6828C35.6502 61.0155 35.6996 61.32 35.7985 61.5965C35.8997 61.873 36.0536 62.0944 36.2604 62.2607C36.4695 62.427 36.7324 62.5102 37.0494 62.5102ZM42.8115 58.0732V58.8824H39.9828V58.0732H42.8115ZM40.7414 56.8325H41.7495V61.7314C41.7495 61.9269 41.7787 62.0742 41.8371 62.1731C41.8956 62.2697 41.9709 62.336 42.063 62.372C42.1574 62.4057 42.2597 62.4225 42.3698 62.4225C42.4507 62.4225 42.5216 62.4169 42.5822 62.4057C42.6429 62.3945 42.6901 62.3855 42.7238 62.3787L42.9059 63.2115C42.8475 63.234 42.7643 63.2564 42.6564 63.2789C42.5485 63.3037 42.4137 63.3171 42.2518 63.3194C41.9866 63.3239 41.7393 63.2767 41.5101 63.1778C41.2808 63.0789 41.0954 62.926 40.9538 62.7192C40.8122 62.5125 40.7414 62.2528 40.7414 61.9404V56.8325ZM44.3727 65.194C44.2221 65.194 44.085 65.1816 43.9613 65.1569C43.8377 65.1344 43.7456 65.1097 43.6849 65.0827L43.9276 64.2567C44.1119 64.3061 44.276 64.3275 44.4199 64.3207C44.5637 64.314 44.6907 64.2601 44.8009 64.1589C44.9132 64.0578 45.0121 63.8926 45.0976 63.6633L45.2223 63.3194L43.3275 58.0732H44.4064L45.7179 62.0921H45.7719L47.0834 58.0732H48.1657L46.0315 63.9431C45.9326 64.2129 45.8067 64.441 45.6539 64.6276C45.501 64.8164 45.319 64.958 45.1077 65.0524C44.8964 65.1468 44.6514 65.194 44.3727 65.194ZM48.9219 65.194V58.0732H49.9064V58.9127H49.9907C50.0491 58.8049 50.1334 58.6801 50.2435 58.5385C50.3537 58.3969 50.5065 58.2733 50.7021 58.1676C50.8976 58.0597 51.1561 58.0058 51.4775 58.0058C51.8956 58.0058 52.2687 58.1114 52.5969 58.3227C52.9251 58.534 53.1824 58.8386 53.369 59.2364C53.5578 59.6343 53.6522 60.113 53.6522 60.6727C53.6522 61.2324 53.5589 61.7123 53.3724 62.1124C53.1858 62.5102 52.9296 62.817 52.6036 63.0328C52.2777 63.2463 51.9057 63.3531 51.4877 63.3531C51.173 63.3531 50.9156 63.3003 50.7156 63.1946C50.5178 63.089 50.3627 62.9654 50.2503 62.8238C50.1379 62.6822 50.0514 62.5563 49.9907 62.4461H49.93V65.194H48.9219ZM49.9098 60.6626C49.9098 61.0267 49.9626 61.3459 50.0682 61.6201C50.1739 61.8943 50.3267 62.109 50.5268 62.2641C50.7268 62.4169 50.9718 62.4934 51.2618 62.4934C51.563 62.4934 51.8147 62.4136 52.017 62.254C52.2193 62.0921 52.3721 61.873 52.4755 61.5965C52.5812 61.32 52.634 61.0087 52.634 60.6626C52.634 60.3209 52.5823 60.0141 52.4789 59.7421C52.3778 59.4702 52.2249 59.2555 52.0204 59.0982C51.8181 58.9408 51.5652 58.8622 51.2618 58.8622C50.9696 58.8622 50.7223 58.9375 50.52 59.0881C50.32 59.2387 50.1683 59.4488 50.0649 59.7185C49.9615 59.9883 49.9098 60.303 49.9098 60.6626ZM56.8225 63.3565C56.3122 63.3565 55.8728 63.2475 55.5042 63.0294C55.1378 62.8092 54.8546 62.5001 54.6545 62.1022C54.4567 61.7022 54.3578 61.2335 54.3578 60.6963C54.3578 60.1658 54.4567 59.6983 54.6545 59.2937C54.8546 58.8891 55.1333 58.5733 55.4907 58.3463C55.8503 58.1193 56.2706 58.0058 56.7517 58.0058C57.0439 58.0058 57.3271 58.0541 57.6013 58.1508C57.8755 58.2474 58.1216 58.3991 58.3397 58.6059C58.5577 58.8127 58.7296 59.0813 58.8555 59.4117C58.9814 59.7399 59.0443 60.1389 59.0443 60.6086V60.966H54.9276V60.2108H58.0565C58.0565 59.9456 58.0025 59.7107 57.8946 59.5061C57.7867 59.2994 57.635 59.1364 57.4395 59.0173C57.2462 58.8981 57.0191 58.8386 56.7584 58.8386C56.4752 58.8386 56.2279 58.9082 56.0167 59.0476C55.8076 59.1847 55.6458 59.3645 55.5311 59.5871C55.4188 59.8073 55.3626 60.0467 55.3626 60.3052V60.8952C55.3626 61.2414 55.4233 61.5358 55.5446 61.7786C55.6683 62.0213 55.8402 62.2068 56.0605 62.3349C56.2808 62.4608 56.5381 62.5237 56.8326 62.5237C57.0236 62.5237 57.1978 62.4967 57.3552 62.4428C57.5125 62.3866 57.6485 62.3034 57.7631 62.1933C57.8778 62.0831 57.9654 61.9472 58.0261 61.7853L58.9803 61.9573C58.9038 62.2382 58.7667 62.4844 58.5689 62.6956C58.3734 62.9047 58.1273 63.0676 57.8306 63.1845C57.5361 63.2992 57.2001 63.3565 56.8225 63.3565Z" fill="#272A40"/>
<path d="M344.445 39.3124C344.445 59.665 327.946 76.1641 307.594 76.1641H306.083C285.051 76.1641 268.001 59.1141 268.001 38.0818L344.445 38.0818V39.3124Z" fill="#EDF4FE"/>
<path d="M267.555 0L343.999 0C343.999 21.0322 326.809 38.0822 305.777 38.0822C284.745 38.0822 267.555 21.0322 267.555 0Z" fill="#00FF72"/>
<path d="M284.536 19.6729V12.7679H286.997C287.534 12.7679 287.979 12.8657 288.332 13.0612C288.685 13.2568 288.949 13.5242 289.125 13.8636C289.3 14.2008 289.388 14.5807 289.388 15.0032C289.388 15.428 289.299 15.8102 289.121 16.1496C288.946 16.4867 288.681 16.7542 288.326 16.952C287.973 17.1475 287.529 17.2453 286.994 17.2453H285.301V16.362H286.899C287.239 16.362 287.514 16.3035 287.725 16.1866C287.937 16.0675 288.092 15.9057 288.191 15.7011C288.29 15.4966 288.339 15.264 288.339 15.0032C288.339 14.7425 288.29 14.511 288.191 14.3087C288.092 14.1064 287.936 13.9479 287.722 13.8333C287.511 13.7187 287.232 13.6613 286.886 13.6613H285.578V19.6729H284.536ZM290.337 19.6729V14.4941H291.311V15.3168H291.365C291.46 15.0381 291.626 14.8189 291.864 14.6593C292.105 14.4975 292.377 14.4166 292.68 14.4166C292.743 14.4166 292.817 14.4188 292.903 14.4233C292.99 14.4278 293.059 14.4334 293.108 14.4402V15.4044C293.068 15.3932 292.996 15.3808 292.893 15.3674C292.789 15.3516 292.686 15.3438 292.582 15.3438C292.344 15.3438 292.132 15.3943 291.945 15.4955C291.761 15.5944 291.615 15.7326 291.507 15.9102C291.399 16.0855 291.345 16.2855 291.345 16.5103V19.6729H290.337ZM295.785 19.7774C295.3 19.7774 294.876 19.6661 294.514 19.4436C294.152 19.2211 293.872 18.9098 293.671 18.5097C293.471 18.1096 293.371 17.642 293.371 17.1071C293.371 16.5699 293.471 16.1001 293.671 15.6978C293.872 15.2954 294.152 14.983 294.514 14.7605C294.876 14.538 295.3 14.4267 295.785 14.4267C296.271 14.4267 296.695 14.538 297.057 14.7605C297.418 14.983 297.699 15.2954 297.899 15.6978C298.099 16.1001 298.199 16.5699 298.199 17.1071C298.199 17.642 298.099 18.1096 297.899 18.5097C297.699 18.9098 297.418 19.2211 297.057 19.4436C296.695 19.6661 296.271 19.7774 295.785 19.7774ZM295.789 18.9311C296.104 18.9311 296.364 18.8479 296.571 18.6816C296.778 18.5153 296.931 18.2939 297.03 18.0174C297.131 17.7409 297.181 17.4364 297.181 17.1037C297.181 16.7733 297.131 16.4699 297.03 16.1934C296.931 15.9147 296.778 15.691 296.571 15.5224C296.364 15.3539 296.104 15.2696 295.789 15.2696C295.472 15.2696 295.209 15.3539 295 15.5224C294.793 15.691 294.639 15.9147 294.538 16.1934C294.439 16.4699 294.39 16.7733 294.39 17.1037C294.39 17.4364 294.439 17.7409 294.538 18.0174C294.639 18.2939 294.793 18.5153 295 18.6816C295.209 18.8479 295.472 18.9311 295.789 18.9311ZM301.551 14.4941V15.3033H298.722V14.4941H301.551ZM299.481 13.2534H300.489V18.1523C300.489 18.3478 300.518 18.495 300.577 18.5939C300.635 18.6906 300.71 18.7569 300.802 18.7929C300.897 18.8266 300.999 18.8434 301.109 18.8434C301.19 18.8434 301.261 18.8378 301.322 18.8266C301.382 18.8153 301.43 18.8064 301.463 18.7996L301.645 19.6324C301.587 19.6549 301.504 19.6773 301.396 19.6998C301.288 19.7245 301.153 19.738 300.991 19.7403C300.726 19.7448 300.479 19.6976 300.25 19.5987C300.02 19.4998 299.835 19.3469 299.693 19.1401C299.552 18.9334 299.481 18.6737 299.481 18.3613V13.2534ZM304.601 19.7774C304.115 19.7774 303.691 19.6661 303.33 19.4436C302.968 19.2211 302.687 18.9098 302.487 18.5097C302.287 18.1096 302.187 17.642 302.187 17.1071C302.187 16.5699 302.287 16.1001 302.487 15.6978C302.687 15.2954 302.968 14.983 303.33 14.7605C303.691 14.538 304.115 14.4267 304.601 14.4267C305.086 14.4267 305.51 14.538 305.872 14.7605C306.234 14.983 306.515 15.2954 306.715 15.6978C306.915 16.1001 307.015 16.5699 307.015 17.1071C307.015 17.642 306.915 18.1096 306.715 18.5097C306.515 18.9098 306.234 19.2211 305.872 19.4436C305.51 19.6661 305.086 19.7774 304.601 19.7774ZM304.604 18.9311C304.919 18.9311 305.179 18.8479 305.386 18.6816C305.593 18.5153 305.746 18.2939 305.845 18.0174C305.946 17.7409 305.997 17.4364 305.997 17.1037C305.997 16.7733 305.946 16.4699 305.845 16.1934C305.746 15.9147 305.593 15.691 305.386 15.5224C305.179 15.3539 304.919 15.2696 304.604 15.2696C304.287 15.2696 304.024 15.3539 303.815 15.5224C303.608 15.691 303.454 15.9147 303.353 16.1934C303.254 16.4699 303.205 16.7733 303.205 17.1037C303.205 17.4364 303.254 17.7409 303.353 18.0174C303.454 18.2939 303.608 18.5153 303.815 18.6816C304.024 18.8479 304.287 18.9311 304.604 18.9311ZM310.366 14.4941V15.3033H307.537V14.4941H310.366ZM308.296 13.2534H309.304V18.1523C309.304 18.3478 309.333 18.495 309.392 18.5939C309.45 18.6906 309.526 18.7569 309.618 18.7929C309.712 18.8266 309.814 18.8434 309.925 18.8434C310.005 18.8434 310.076 18.8378 310.137 18.8266C310.198 18.8153 310.245 18.8064 310.279 18.7996L310.461 19.6324C310.402 19.6549 310.319 19.6773 310.211 19.6998C310.103 19.7245 309.968 19.738 309.807 19.7403C309.541 19.7448 309.294 19.6976 309.065 19.5987C308.836 19.4998 308.65 19.3469 308.508 19.1401C308.367 18.9334 308.296 18.6737 308.296 18.3613V13.2534ZM311.927 21.6149C311.777 21.6149 311.64 21.6025 311.516 21.5778C311.392 21.5553 311.3 21.5306 311.24 21.5036L311.482 20.6776C311.667 20.727 311.831 20.7484 311.975 20.7416C312.118 20.7349 312.245 20.681 312.356 20.5798C312.468 20.4787 312.567 20.3134 312.652 20.0842L312.777 19.7403L310.882 14.4941H311.961L313.273 18.513H313.327L314.638 14.4941H315.72L313.586 20.364C313.487 20.6337 313.361 20.8619 313.209 21.0485C313.056 21.2373 312.874 21.3789 312.662 21.4733C312.451 21.5677 312.206 21.6149 311.927 21.6149ZM316.477 21.6149V14.4941H317.461V15.3336H317.545C317.604 15.2258 317.688 15.101 317.798 14.9594C317.908 14.8178 318.061 14.6942 318.257 14.5885C318.452 14.4806 318.711 14.4267 319.032 14.4267C319.45 14.4267 319.823 14.5323 320.152 14.7436C320.48 14.9549 320.737 15.2595 320.924 15.6573C321.112 16.0552 321.207 16.5339 321.207 17.0936C321.207 17.6533 321.114 18.1332 320.927 18.5333C320.74 18.9311 320.484 19.2379 320.158 19.4537C319.832 19.6672 319.46 19.774 319.042 19.774C318.728 19.774 318.47 19.7212 318.27 19.6155C318.072 19.5099 317.917 19.3863 317.805 19.2447C317.693 19.1031 317.606 18.9772 317.545 18.867H317.485V21.6149H316.477ZM317.464 17.0835C317.464 17.4476 317.517 17.7668 317.623 18.041C317.729 18.3152 317.881 18.5299 318.081 18.685C318.281 18.8378 318.526 18.9142 318.816 18.9142C319.118 18.9142 319.369 18.8345 319.572 18.6749C319.774 18.513 319.927 18.2939 320.03 18.0174C320.136 17.7409 320.189 17.4296 320.189 17.0835C320.189 16.7418 320.137 16.435 320.034 16.163C319.932 15.8911 319.78 15.6764 319.575 15.5191C319.373 15.3617 319.12 15.2831 318.816 15.2831C318.524 15.2831 318.277 15.3584 318.075 15.509C317.875 15.6596 317.723 15.8697 317.62 16.1394C317.516 16.4092 317.464 16.7239 317.464 17.0835ZM324.377 19.7774C323.867 19.7774 323.427 19.6684 323.059 19.4503C322.692 19.2301 322.409 18.921 322.209 18.5231C322.011 18.1231 321.913 17.6544 321.913 17.1172C321.913 16.5867 322.011 16.1192 322.209 15.7146C322.409 15.31 322.688 14.9942 323.045 14.7672C323.405 14.5402 323.825 14.4267 324.306 14.4267C324.599 14.4267 324.882 14.475 325.156 14.5717C325.43 14.6683 325.676 14.82 325.894 15.0268C326.112 15.2336 326.284 15.5022 326.41 15.8326C326.536 16.1608 326.599 16.5598 326.599 17.0295V17.3869H322.482V16.6317H325.611C325.611 16.3665 325.557 16.1316 325.449 15.927C325.341 15.7202 325.19 15.5573 324.994 15.4382C324.801 15.319 324.574 15.2595 324.313 15.2595C324.03 15.2595 323.783 15.3291 323.571 15.4685C323.362 15.6056 323.2 15.7854 323.086 16.008C322.973 16.2282 322.917 16.4676 322.917 16.7261V17.3161C322.917 17.6623 322.978 17.9567 323.099 18.1995C323.223 18.4422 323.395 18.6277 323.615 18.7558C323.835 18.8817 324.093 18.9446 324.387 18.9446C324.578 18.9446 324.753 18.9176 324.91 18.8637C325.067 18.8075 325.203 18.7243 325.318 18.6142C325.432 18.504 325.52 18.3681 325.581 18.2062L326.535 18.3782C326.459 18.6591 326.321 18.9053 326.124 19.1165C325.928 19.3256 325.682 19.4885 325.385 19.6054C325.091 19.7201 324.755 19.7774 324.377 19.7774Z" fill="#272A40"/>
<path d="M0 36.8517C0 16.4991 16.4991 0 36.8517 0L38.3622 0C59.3944 0 76.4444 17.05 76.4444 38.0822H0L0 36.8517Z" fill="#272A40"/>
<path d="M23.9216 18.2737H24.9668V22.8152C24.9668 23.2985 24.8533 23.7267 24.6263 24.0998C24.3993 24.4707 24.0801 24.7629 23.6687 24.9764C23.2574 25.1877 22.7753 25.2933 22.2223 25.2933C21.6717 25.2933 21.1906 25.1877 20.7793 24.9764C20.368 24.7629 20.0488 24.4707 19.8218 24.0998C19.5948 23.7267 19.4813 23.2985 19.4813 22.8152V18.2737H20.5231V22.731C20.5231 23.0434 20.5916 23.321 20.7287 23.5637C20.8681 23.8065 21.0648 23.9975 21.3188 24.1369C21.5728 24.274 21.8739 24.3426 22.2223 24.3426C22.573 24.3426 22.8753 24.274 23.1293 24.1369C23.3855 23.9975 23.5811 23.8065 23.716 23.5637C23.8531 23.321 23.9216 23.0434 23.9216 22.731V18.2737ZM27.0152 18.2737L28.6672 20.9744H28.7212L30.3732 18.2737H31.5803L29.4292 21.7262L31.5938 25.1787H30.38L28.7212 22.5152H28.6672L27.0084 25.1787H25.7947L27.9963 21.7262L25.8081 18.2737H27.0152ZM35.3272 25.1787H34.2213L36.7062 18.2737H37.9098L40.3947 25.1787H39.2888L37.3366 19.528H37.2827L35.3272 25.1787ZM35.5126 22.4747H39.1V23.3513H35.5126V22.4747ZM44.4002 23.031V20H45.4117V25.1787H44.4204V24.2819H44.3665C44.2474 24.5583 44.0563 24.7887 43.7933 24.973C43.5326 25.1551 43.2078 25.2461 42.8189 25.2461C42.4863 25.2461 42.1918 25.1731 41.9356 25.027C41.6816 24.8786 41.4816 24.6595 41.3355 24.3695C41.1916 24.0796 41.1197 23.7211 41.1197 23.294V20H42.1278V23.1726C42.1278 23.5255 42.2255 23.8065 42.4211 24.0155C42.6166 24.2246 42.8706 24.3291 43.1831 24.3291C43.3719 24.3291 43.5596 24.2819 43.7461 24.1875C43.9349 24.0931 44.0911 23.9503 44.2148 23.7593C44.3406 23.5682 44.4025 23.3255 44.4002 23.031ZM48.5137 25.2799C48.0956 25.2799 47.7225 25.1731 47.3943 24.9596C47.0684 24.7438 46.8121 24.437 46.6256 24.0391C46.4413 23.639 46.3491 23.1591 46.3491 22.5995C46.3491 22.0398 46.4424 21.561 46.6289 21.1632C46.8178 20.7653 47.0762 20.4608 47.4044 20.2495C47.7326 20.0382 48.1046 19.9325 48.5204 19.9325C48.8418 19.9325 49.1003 19.9865 49.2959 20.0944C49.4937 20.2 49.6465 20.3237 49.7544 20.4653C49.8645 20.6069 49.9499 20.7316 50.0106 20.8395H50.0713V18.2737H51.0794V25.1787H50.0949V24.3729H50.0106C49.9499 24.483 49.8623 24.6089 49.7476 24.7505C49.6353 24.8921 49.4802 25.0158 49.2824 25.1214C49.0846 25.227 48.8283 25.2799 48.5137 25.2799ZM48.7362 24.4201C49.0261 24.4201 49.2711 24.3437 49.4712 24.1908C49.6735 24.0357 49.8263 23.8211 49.9297 23.5469C50.0354 23.2727 50.0882 22.9535 50.0882 22.5893C50.0882 22.2297 50.0365 21.915 49.9331 21.6453C49.8297 21.3756 49.678 21.1654 49.4779 21.0148C49.2779 20.8642 49.0306 20.7889 48.7362 20.7889C48.4327 20.7889 48.1799 20.8676 47.9776 21.0249C47.7753 21.1823 47.6224 21.3969 47.519 21.6689C47.4179 21.9409 47.3673 22.2477 47.3673 22.5893C47.3673 22.9355 47.419 23.2468 47.5224 23.5233C47.6258 23.7997 47.7787 24.0189 47.9809 24.1807C48.1855 24.3403 48.4372 24.4201 48.7362 24.4201ZM52.327 25.1787V20H53.3351V25.1787H52.327ZM52.8361 19.2009C52.6608 19.2009 52.5102 19.1425 52.3843 19.0256C52.2607 18.9065 52.1989 18.7649 52.1989 18.6008C52.1989 18.4344 52.2607 18.2928 52.3843 18.176C52.5102 18.0568 52.6608 17.9973 52.8361 17.9973C53.0115 17.9973 53.1609 18.0568 53.2846 18.176C53.4104 18.2928 53.4734 18.4344 53.4734 18.6008C53.4734 18.7649 53.4104 18.9065 53.2846 19.0256C53.1609 19.1425 53.0115 19.2009 52.8361 19.2009ZM56.9176 20V20.8092H54.0888V20H56.9176ZM54.8474 18.7592H55.8555V23.6581C55.8555 23.8537 55.8847 24.0009 55.9432 24.0998C56.0016 24.1965 56.0769 24.2628 56.1691 24.2987C56.2635 24.3324 56.3657 24.3493 56.4759 24.3493C56.5568 24.3493 56.6276 24.3437 56.6883 24.3324C56.749 24.3212 56.7962 24.3122 56.8299 24.3055L57.012 25.1383C56.9535 25.1607 56.8704 25.1832 56.7625 25.2057C56.6546 25.2304 56.5197 25.2439 56.3579 25.2461C56.0926 25.2506 55.8454 25.2034 55.6161 25.1045C55.3869 25.0056 55.2014 24.8528 55.0598 24.646C54.9182 24.4392 54.8474 24.1796 54.8474 23.8672V18.7592Z" fill="#00FF72"/>
<path d="M76.4453 36.8517C76.4453 16.4991 92.9444 0 113.297 0C135.163 0 152.89 17.7329 152.89 39.5994C152.89 59.7903 136.522 76.1644 116.331 76.1644H114.37C93.4246 76.1644 76.4453 59.1852 76.4453 38.2402V36.8517Z" fill="#272A40"/>
<path d="M90.3669 34.6771H91.4121V39.2186C91.4121 39.7018 91.2986 40.13 91.0716 40.5031C90.8446 40.874 90.5254 41.1662 90.1141 41.3797C89.7027 41.591 89.2206 41.6967 88.6677 41.6967C88.117 41.6967 87.636 41.591 87.2246 41.3797C86.8133 41.1662 86.4941 40.874 86.2671 40.5031C86.0401 40.13 85.9266 39.7018 85.9266 39.2186V34.6771H86.9684V39.1343C86.9684 39.4467 87.0369 39.7243 87.1741 39.967C87.3134 40.2098 87.5101 40.4009 87.7641 40.5402C88.0181 40.6773 88.3193 40.7459 88.6677 40.7459C89.0183 40.7459 89.3206 40.6773 89.5746 40.5402C89.8308 40.4009 90.0264 40.2098 90.1613 39.967C90.2984 39.7243 90.3669 39.4467 90.3669 39.1343V34.6771ZM93.7774 34.6771V41.582H92.7356V34.6771H93.7774ZM97.6523 34.3534L95.4271 42.6205H94.5269L96.7521 34.3534H97.6523ZM102.839 34.6771H103.884V39.2186C103.884 39.7018 103.77 40.13 103.543 40.5031C103.316 40.874 102.997 41.1662 102.586 41.3797C102.175 41.591 101.692 41.6967 101.139 41.6967C100.589 41.6967 100.108 41.591 99.6965 41.3797C99.2851 41.1662 98.9659 40.874 98.7389 40.5031C98.5119 40.13 98.3984 39.7018 98.3984 39.2186V34.6771H99.4402V39.1343C99.4402 39.4467 99.5088 39.7243 99.6459 39.967C99.7852 40.2098 99.9819 40.4009 100.236 40.5402C100.49 40.6773 100.791 40.7459 101.139 40.7459C101.49 40.7459 101.792 40.6773 102.046 40.5402C102.303 40.4009 102.498 40.2098 102.633 39.967C102.77 39.7243 102.839 39.4467 102.839 39.1343V34.6771ZM105.932 34.6771L107.584 37.3777H107.638L109.29 34.6771H110.497L108.346 38.1295L110.511 41.582H109.297L107.638 38.9185H107.584L105.926 41.582H104.712L106.913 38.1295L104.725 34.6771H105.932ZM115.896 41.582H113.661V34.6771H115.967C116.644 34.6771 117.225 34.8153 117.71 35.0918C118.196 35.366 118.568 35.7605 118.826 36.2752C119.087 36.7877 119.217 37.4024 119.217 38.1194C119.217 38.8387 119.086 39.4568 118.823 39.9738C118.562 40.4908 118.185 40.8886 117.69 41.1673C117.196 41.4438 116.598 41.582 115.896 41.582ZM114.703 40.6717H115.839C116.365 40.6717 116.802 40.5728 117.151 40.375C117.499 40.175 117.76 39.8861 117.933 39.5085C118.106 39.1287 118.192 38.6656 118.192 38.1194C118.192 37.5777 118.106 37.1181 117.933 36.7405C117.762 36.3628 117.507 36.0763 117.167 35.8807C116.828 35.6852 116.407 35.5874 115.903 35.5874H114.703V40.6717ZM122.473 41.6865C121.963 41.6865 121.523 41.5775 121.154 41.3595C120.788 41.1392 120.505 40.8302 120.305 40.4323C120.107 40.0322 120.008 39.5636 120.008 39.0264C120.008 38.4959 120.107 38.0284 120.305 37.6238C120.505 37.2192 120.784 36.9034 121.141 36.6764C121.501 36.4494 121.921 36.3359 122.402 36.3359C122.694 36.3359 122.977 36.3842 123.252 36.4808C123.526 36.5775 123.772 36.7292 123.99 36.936C124.208 37.1428 124.38 37.4114 124.506 37.7418C124.632 38.07 124.695 38.4689 124.695 38.9387V39.2961H120.578V38.5409H123.707C123.707 38.2756 123.653 38.0408 123.545 37.8362C123.437 37.6294 123.285 37.4665 123.09 37.3473C122.896 37.2282 122.669 37.1686 122.409 37.1686C122.125 37.1686 121.878 37.2383 121.667 37.3777C121.458 37.5148 121.296 37.6946 121.181 37.9171C121.069 38.1374 121.013 38.3768 121.013 38.6353V39.2253C121.013 39.5715 121.074 39.8659 121.195 40.1087C121.319 40.3514 121.491 40.5368 121.711 40.665C121.931 40.7908 122.188 40.8538 122.483 40.8538C122.674 40.8538 122.848 40.8268 123.005 40.7729C123.163 40.7167 123.299 40.6335 123.413 40.5234C123.528 40.4132 123.616 40.2772 123.676 40.1154L124.631 40.2873C124.554 40.5683 124.417 40.8144 124.219 41.0257C124.024 41.2348 123.778 41.3977 123.481 41.5146C123.186 41.6292 122.85 41.6865 122.473 41.6865ZM129.503 37.6676L128.589 37.8295C128.551 37.7126 128.49 37.6013 128.407 37.4957C128.326 37.39 128.216 37.3035 128.076 37.2361C127.937 37.1686 127.763 37.1349 127.554 37.1349C127.268 37.1349 127.03 37.199 126.839 37.3271C126.648 37.453 126.553 37.6159 126.553 37.816C126.553 37.9891 126.617 38.1284 126.745 38.2341C126.873 38.3397 127.08 38.4262 127.365 38.4937L128.188 38.6825C128.664 38.7926 129.019 38.9623 129.253 39.1916C129.487 39.4209 129.604 39.7187 129.604 40.0851C129.604 40.3952 129.514 40.6717 129.334 40.9145C129.156 41.155 128.908 41.3438 128.589 41.4809C128.272 41.618 127.905 41.6865 127.486 41.6865C126.907 41.6865 126.433 41.5629 126.067 41.3157C125.701 41.0662 125.476 40.7122 125.393 40.2536L126.367 40.1053C126.428 40.3593 126.553 40.5515 126.741 40.6818C126.93 40.8099 127.176 40.874 127.48 40.874C127.81 40.874 128.074 40.8054 128.272 40.6683C128.47 40.529 128.569 40.3593 128.569 40.1592C128.569 39.9974 128.508 39.8614 128.387 39.7513C128.268 39.6411 128.084 39.558 127.837 39.5018L126.96 39.3096C126.477 39.1995 126.12 39.0241 125.888 38.7836C125.659 38.5431 125.544 38.2386 125.544 37.8699C125.544 37.5642 125.63 37.2968 125.801 37.0675C125.971 36.8382 126.207 36.6595 126.509 36.5314C126.81 36.4011 127.155 36.3359 127.544 36.3359C128.103 36.3359 128.544 36.4572 128.865 36.7C129.187 36.9405 129.399 37.2631 129.503 37.6676ZM130.521 41.582V36.4033H131.529V41.582H130.521ZM131.03 35.6042C130.855 35.6042 130.704 35.5458 130.578 35.4289C130.455 35.3098 130.393 35.1682 130.393 35.0041C130.393 34.8378 130.455 34.6962 130.578 34.5793C130.704 34.4602 130.855 34.4006 131.03 34.4006C131.205 34.4006 131.355 34.4602 131.478 34.5793C131.604 34.6962 131.667 34.8378 131.667 35.0041C131.667 35.1682 131.604 35.3098 131.478 35.4289C131.355 35.5458 131.205 35.6042 131.03 35.6042ZM134.865 43.6319C134.454 43.6319 134.1 43.578 133.803 43.4701C133.509 43.3622 133.268 43.2195 133.082 43.0419C132.895 42.8644 132.756 42.6699 132.664 42.4586L133.53 42.1013C133.591 42.2002 133.672 42.3047 133.773 42.4148C133.876 42.5272 134.016 42.6227 134.191 42.7014C134.369 42.7801 134.597 42.8194 134.875 42.8194C135.258 42.8194 135.573 42.7261 135.823 42.5396C136.072 42.3552 136.197 42.0608 136.197 41.6562V40.638H136.133C136.072 40.7481 135.985 40.8706 135.87 41.0055C135.758 41.1404 135.603 41.2572 135.405 41.3561C135.207 41.455 134.95 41.5045 134.633 41.5045C134.224 41.5045 133.855 41.409 133.527 41.2179C133.201 41.0246 132.942 40.7403 132.751 40.3649C132.563 39.9873 132.468 39.5231 132.468 38.9724C132.468 38.4217 132.561 37.9497 132.748 37.5564C132.937 37.163 133.195 36.8618 133.523 36.6528C133.852 36.4415 134.224 36.3359 134.639 36.3359C134.961 36.3359 135.221 36.3898 135.418 36.4977C135.616 36.6033 135.77 36.727 135.88 36.8686C135.993 37.0102 136.079 37.1349 136.14 37.2428H136.214V36.4033H137.202V41.6967C137.202 42.1417 137.098 42.507 136.892 42.7924C136.685 43.0779 136.405 43.2892 136.052 43.4263C135.702 43.5634 135.306 43.6319 134.865 43.6319ZM134.855 40.6683C135.145 40.6683 135.39 40.6009 135.59 40.466C135.793 40.3289 135.945 40.1334 136.049 39.8794C136.154 39.6231 136.207 39.3163 136.207 38.959C136.207 38.6106 136.156 38.3037 136.052 38.0385C135.949 37.7733 135.797 37.5665 135.597 37.4181C135.397 37.2675 135.15 37.1922 134.855 37.1922C134.552 37.1922 134.299 37.2709 134.097 37.4283C133.894 37.5833 133.742 37.7946 133.638 38.0621C133.537 38.3296 133.486 38.6285 133.486 38.959C133.486 39.2984 133.538 39.5962 133.641 39.8524C133.745 40.1087 133.898 40.3087 134.1 40.4526C134.305 40.5964 134.556 40.6683 134.855 40.6683ZM139.371 38.5072V41.582H138.363V36.4033H139.33V37.2462H139.394C139.513 36.972 139.7 36.7517 139.954 36.5854C140.21 36.419 140.533 36.3359 140.922 36.3359C141.275 36.3359 141.584 36.41 141.849 36.5584C142.114 36.7045 142.32 36.9225 142.466 37.2125C142.612 37.5024 142.685 37.8609 142.685 38.288V41.582H141.677V38.4094C141.677 38.034 141.579 37.7407 141.384 37.5294C141.188 37.3159 140.919 37.2091 140.578 37.2091C140.344 37.2091 140.136 37.2597 139.954 37.3608C139.774 37.462 139.631 37.6103 139.526 37.8059C139.422 37.9992 139.371 38.2329 139.371 38.5072Z" fill="#00FF72"/>
<path d="M152.889 0C173.921 0 191.111 17.05 191.111 38.0822C191.111 59.1144 173.921 76.1644 152.889 76.1644V0Z" fill="#00FF72"/>
<path d="M191.111 0C212.144 0 229.334 17.05 229.334 38.0822C229.334 59.1144 212.144 76.1644 191.111 76.1644V0Z" fill="#272A40"/>
<path d="M229.334 0C250.366 0 267.556 17.05 267.556 38.0822C267.556 59.1144 250.366 76.1644 229.334 76.1644V0Z" fill="#EDF4FE"/>
<path d="M0 168.098C0 147.745 16.4991 131.246 36.8517 131.246H38.3622C59.3944 131.246 76.4444 148.296 76.4444 169.328H0L0 168.098Z" fill="#272A40"/>
<path d="M14.0645 156.416H12.9587L15.4435 149.511H16.6472L19.132 156.416H18.0261L16.074 150.765H16.0201L14.0645 156.416ZM14.25 153.712H17.8373V154.589H14.25V153.712ZM19.857 158.358V151.237H20.8415V152.077H20.9258C20.9843 151.969 21.0685 151.844 21.1787 151.703C21.2888 151.561 21.4417 151.437 21.6372 151.332C21.8328 151.224 22.0913 151.17 22.4127 151.17C22.8308 151.17 23.2039 151.275 23.532 151.487C23.8602 151.698 24.1176 152.003 24.3041 152.4C24.4929 152.798 24.5873 153.277 24.5873 153.837C24.5873 154.396 24.4941 154.876 24.3075 155.276C24.1209 155.674 23.8647 155.981 23.5388 156.197C23.2129 156.41 22.8409 156.517 22.4228 156.517C22.1081 156.517 21.8507 156.464 21.6507 156.359C21.4529 156.253 21.2978 156.129 21.1854 155.988C21.073 155.846 20.9865 155.72 20.9258 155.61H20.8651V158.358H19.857ZM20.8449 153.827C20.8449 154.191 20.8977 154.51 21.0034 154.784C21.109 155.058 21.2618 155.273 21.4619 155.428C21.6619 155.581 21.9069 155.657 22.1969 155.657C22.4981 155.657 22.7498 155.578 22.9521 155.418C23.1544 155.256 23.3073 155.037 23.4107 154.761C23.5163 154.484 23.5691 154.173 23.5691 153.827C23.5691 153.485 23.5174 153.178 23.414 152.906C23.3129 152.634 23.16 152.42 22.9555 152.262C22.7532 152.105 22.5003 152.026 22.1969 152.026C21.9047 152.026 21.6574 152.102 21.4552 152.252C21.2551 152.403 21.1034 152.613 21 152.883C20.8966 153.152 20.8449 153.467 20.8449 153.827ZM25.5256 158.358V151.237H26.5101V152.077H26.5944C26.6528 151.969 26.7371 151.844 26.8473 151.703C26.9574 151.561 27.1102 151.437 27.3058 151.332C27.5013 151.224 27.7598 151.17 28.0813 151.17C28.4993 151.17 28.8725 151.275 29.2006 151.487C29.5288 151.698 29.7861 152.003 29.9727 152.4C30.1615 152.798 30.2559 153.277 30.2559 153.837C30.2559 154.396 30.1626 154.876 29.9761 155.276C29.7895 155.674 29.5333 155.981 29.2074 156.197C28.8814 156.41 28.5094 156.517 28.0914 156.517C27.7767 156.517 27.5193 156.464 27.3193 156.359C27.1215 156.253 26.9664 156.129 26.854 155.988C26.7416 155.846 26.6551 155.72 26.5944 155.61H26.5337V158.358H25.5256ZM26.5135 153.827C26.5135 154.191 26.5663 154.51 26.6719 154.784C26.7776 155.058 26.9304 155.273 27.1305 155.428C27.3305 155.581 27.5755 155.657 27.8655 155.657C28.1667 155.657 28.4184 155.578 28.6207 155.418C28.823 155.256 28.9758 155.037 29.0792 154.761C29.1849 154.484 29.2377 154.173 29.2377 153.827C29.2377 153.485 29.186 153.178 29.0826 152.906C28.9815 152.634 28.8286 152.42 28.6241 152.262C28.4218 152.105 28.1689 152.026 27.8655 152.026C27.5733 152.026 27.326 152.102 27.1237 152.252C26.9237 152.403 26.772 152.613 26.6686 152.883C26.5652 153.152 26.5135 153.467 26.5135 153.827ZM35.8319 156.416H33.5966V149.511H35.9027C36.5793 149.511 37.1603 149.649 37.6458 149.926C38.1313 150.2 38.5033 150.594 38.7618 151.109C39.0225 151.622 39.1529 152.236 39.1529 152.953C39.1529 153.673 39.0214 154.291 38.7584 154.808C38.4977 155.325 38.1201 155.723 37.6256 156.001C37.1311 156.278 36.5332 156.416 35.8319 156.416ZM34.6384 155.506H35.7746C36.3006 155.506 36.7377 155.407 37.0861 155.209C37.4345 155.009 37.6953 154.72 37.8683 154.343C38.0414 153.963 38.128 153.5 38.128 152.953C38.128 152.412 38.0414 151.952 37.8683 151.574C37.6975 151.197 37.4424 150.91 37.103 150.715C36.7636 150.519 36.3421 150.421 35.8387 150.421H34.6384V155.506ZM42.4083 156.521C41.8981 156.521 41.4586 156.412 41.09 156.193C40.7236 155.973 40.4404 155.664 40.2404 155.266C40.0426 154.866 39.9437 154.398 39.9437 153.86C39.9437 153.33 40.0426 152.862 40.2404 152.458C40.4404 152.053 40.7191 151.737 41.0765 151.51C41.4362 151.283 41.8565 151.17 42.3375 151.17C42.6297 151.17 42.9129 151.218 43.1871 151.315C43.4613 151.411 43.7075 151.563 43.9255 151.77C44.1435 151.977 44.3155 152.245 44.4413 152.576C44.5672 152.904 44.6302 153.303 44.6302 153.773V154.13H40.5135V153.375H43.6423C43.6423 153.11 43.5883 152.875 43.4805 152.67C43.3726 152.463 43.2208 152.3 43.0253 152.181C42.832 152.062 42.605 152.003 42.3442 152.003C42.061 152.003 41.8138 152.072 41.6025 152.212C41.3935 152.349 41.2316 152.529 41.117 152.751C41.0046 152.971 40.9484 153.211 40.9484 153.469V154.059C40.9484 154.405 41.0091 154.7 41.1305 154.943C41.2541 155.185 41.426 155.371 41.6463 155.499C41.8666 155.625 42.124 155.688 42.4184 155.688C42.6095 155.688 42.7837 155.661 42.941 155.607C43.0983 155.551 43.2343 155.467 43.349 155.357C43.4636 155.247 43.5513 155.111 43.6119 154.949L44.5661 155.121C44.4897 155.402 44.3526 155.648 44.1548 155.86C43.9592 156.069 43.7131 156.232 43.4164 156.349C43.1219 156.463 42.7859 156.521 42.4083 156.521ZM49.4381 152.502L48.5245 152.663C48.4862 152.547 48.4256 152.435 48.3424 152.33C48.2615 152.224 48.1513 152.137 48.012 152.07C47.8726 152.003 47.6984 151.969 47.4894 151.969C47.2039 151.969 46.9657 152.033 46.7746 152.161C46.5835 152.287 46.488 152.45 46.488 152.65C46.488 152.823 46.5521 152.962 46.6802 153.068C46.8083 153.174 47.0151 153.26 47.3006 153.328L48.1232 153.516C48.5997 153.627 48.9549 153.796 49.1886 154.026C49.4224 154.255 49.5393 154.553 49.5393 154.919C49.5393 155.229 49.4494 155.506 49.2696 155.748C49.092 155.989 48.8436 156.178 48.5245 156.315C48.2075 156.452 47.84 156.521 47.4219 156.521C46.842 156.521 46.3689 156.397 46.0025 156.15C45.6361 155.9 45.4114 155.546 45.3282 155.088L46.3026 154.939C46.3633 155.193 46.488 155.385 46.6768 155.516C46.8656 155.644 47.1118 155.708 47.4152 155.708C47.7456 155.708 48.0097 155.639 48.2075 155.502C48.4053 155.363 48.5042 155.193 48.5042 154.993C48.5042 154.831 48.4435 154.695 48.3222 154.585C48.203 154.475 48.0198 154.392 47.7726 154.336L46.896 154.144C46.4127 154.033 46.0553 153.858 45.8238 153.618C45.5946 153.377 45.4799 153.073 45.4799 152.704C45.4799 152.398 45.5653 152.131 45.7362 151.901C45.907 151.672 46.143 151.494 46.4442 151.365C46.7454 151.235 47.0904 151.17 47.4793 151.17C48.0389 151.17 48.4795 151.291 48.8009 151.534C49.1223 151.774 49.3348 152.097 49.4381 152.502ZM50.4565 156.416V151.237H51.4646V156.416H50.4565ZM50.9656 150.438C50.7903 150.438 50.6397 150.38 50.5138 150.263C50.3902 150.144 50.3284 150.002 50.3284 149.838C50.3284 149.672 50.3902 149.53 50.5138 149.413C50.6397 149.294 50.7903 149.235 50.9656 149.235C51.1409 149.235 51.2904 149.294 51.414 149.413C51.5399 149.53 51.6028 149.672 51.6028 149.838C51.6028 150.002 51.5399 150.144 51.414 150.263C51.2904 150.38 51.1409 150.438 50.9656 150.438ZM54.8009 158.466C54.3896 158.466 54.0355 158.412 53.7388 158.304C53.4444 158.196 53.2039 158.053 53.0173 157.876C52.8308 157.698 52.6914 157.504 52.5993 157.293L53.4657 156.935C53.5264 157.034 53.6074 157.139 53.7085 157.249C53.8119 157.361 53.9513 157.457 54.1266 157.535C54.3041 157.614 54.5323 157.653 54.811 157.653C55.1931 157.653 55.5089 157.56 55.7584 157.374C56.0079 157.189 56.1327 156.895 56.1327 156.49V155.472H56.0686C56.0079 155.582 55.9202 155.705 55.8056 155.839C55.6932 155.974 55.5381 156.091 55.3403 156.19C55.1425 156.289 54.8852 156.338 54.5682 156.338C54.1592 156.338 53.7905 156.243 53.4624 156.052C53.1365 155.859 52.878 155.574 52.6869 155.199C52.4981 154.821 52.4037 154.357 52.4037 153.806C52.4037 153.256 52.497 152.784 52.6835 152.39C52.8724 151.997 53.1308 151.696 53.459 151.487C53.7872 151.275 54.1592 151.17 54.575 151.17C54.8964 151.17 55.156 151.224 55.3538 151.332C55.5516 151.437 55.7056 151.561 55.8157 151.703C55.9281 151.844 56.0147 151.969 56.0753 152.077H56.1495V151.237H57.1374V156.531C57.1374 156.976 57.034 157.341 56.8272 157.626C56.6204 157.912 56.3406 158.123 55.9877 158.26C55.637 158.397 55.2414 158.466 54.8009 158.466ZM54.7908 155.502C55.0807 155.502 55.3257 155.435 55.5258 155.3C55.7281 155.163 55.8809 154.967 55.9843 154.713C56.09 154.457 56.1428 154.15 56.1428 153.793C56.1428 153.445 56.0911 153.138 55.9877 152.872C55.8843 152.607 55.7326 152.4 55.5325 152.252C55.3325 152.102 55.0852 152.026 54.7908 152.026C54.4873 152.026 54.2345 152.105 54.0322 152.262C53.8299 152.417 53.677 152.629 53.5736 152.896C53.4725 153.164 53.4219 153.463 53.4219 153.793C53.4219 154.132 53.4736 154.43 53.577 154.686C53.6804 154.943 53.8332 155.143 54.0355 155.287C54.2401 155.43 54.4918 155.502 54.7908 155.502ZM59.3063 153.341V156.416H58.2982V151.237H59.2658V152.08H59.3299C59.449 151.806 59.6356 151.586 59.8896 151.419C60.1458 151.253 60.4683 151.17 60.8572 151.17C61.2101 151.17 61.5192 151.244 61.7844 151.392C62.0496 151.538 62.2553 151.757 62.4014 152.046C62.5475 152.336 62.6205 152.695 62.6205 153.122V156.416H61.6124V153.243C61.6124 152.868 61.5147 152.575 61.3191 152.363C61.1236 152.15 60.855 152.043 60.5133 152.043C60.2795 152.043 60.0716 152.094 59.8896 152.195C59.7097 152.296 59.567 152.444 59.4614 152.64C59.358 152.833 59.3063 153.067 59.3063 153.341Z" fill="#00FF72"/>
<path d="M267.555 168.098C267.555 147.745 284.054 131.246 304.406 131.246H305.917C326.949 131.246 343.999 148.296 343.999 169.328H267.555V168.098Z" fill="#00FF72"/>
<path d="M289.695 150.408V149.511H295.039V150.408H292.885V156.416H291.846V150.408H289.695ZM297.429 156.521C296.919 156.521 296.479 156.412 296.111 156.193C295.744 155.973 295.461 155.664 295.261 155.266C295.063 154.866 294.964 154.398 294.964 153.86C294.964 153.33 295.063 152.862 295.261 152.458C295.461 152.053 295.74 151.737 296.097 151.51C296.457 151.283 296.877 151.17 297.358 151.17C297.65 151.17 297.934 151.218 298.208 151.315C298.482 151.411 298.728 151.563 298.946 151.77C299.164 151.977 299.336 152.245 299.462 152.576C299.588 152.904 299.651 153.303 299.651 153.773V154.13H295.534V153.375H298.663C298.663 153.11 298.609 152.875 298.501 152.67C298.393 152.463 298.242 152.3 298.046 152.181C297.853 152.062 297.626 152.003 297.365 152.003C297.082 152.003 296.835 152.072 296.623 152.212C296.414 152.349 296.252 152.529 296.138 152.751C296.025 152.971 295.969 153.211 295.969 153.469V154.059C295.969 154.405 296.03 154.7 296.151 154.943C296.275 155.185 296.447 155.371 296.667 155.499C296.887 155.625 297.145 155.688 297.439 155.688C297.63 155.688 297.804 155.661 297.962 155.607C298.119 155.551 298.255 155.467 298.37 155.357C298.484 155.247 298.572 155.111 298.633 154.949L299.587 155.121C299.51 155.402 299.373 155.648 299.176 155.86C298.98 156.069 298.734 156.232 298.437 156.349C298.143 156.463 297.807 156.521 297.429 156.521ZM304.459 152.502L303.545 152.663C303.507 152.547 303.446 152.435 303.363 152.33C303.282 152.224 303.172 152.137 303.033 152.07C302.893 152.003 302.719 151.969 302.51 151.969C302.225 151.969 301.986 152.033 301.795 152.161C301.604 152.287 301.509 152.45 301.509 152.65C301.509 152.823 301.573 152.962 301.701 153.068C301.829 153.174 302.036 153.26 302.321 153.328L303.144 153.516C303.621 153.627 303.976 153.796 304.209 154.026C304.443 154.255 304.56 154.553 304.56 154.919C304.56 155.229 304.47 155.506 304.29 155.748C304.113 155.989 303.864 156.178 303.545 156.315C303.228 156.452 302.861 156.521 302.443 156.521C301.863 156.521 301.39 156.397 301.023 156.15C300.657 155.9 300.432 155.546 300.349 155.088L301.323 154.939C301.384 155.193 301.509 155.385 301.698 155.516C301.886 155.644 302.133 155.708 302.436 155.708C302.766 155.708 303.031 155.639 303.228 155.502C303.426 155.363 303.525 155.193 303.525 154.993C303.525 154.831 303.464 154.695 303.343 154.585C303.224 154.475 303.041 154.392 302.793 154.336L301.917 154.144C301.434 154.033 301.076 153.858 300.845 153.618C300.615 153.377 300.501 153.073 300.501 152.704C300.501 152.398 300.586 152.131 300.757 151.901C300.928 151.672 301.164 151.494 301.465 151.365C301.766 151.235 302.111 151.17 302.5 151.17C303.06 151.17 303.5 151.291 303.822 151.534C304.143 151.774 304.356 152.097 304.459 152.502ZM307.895 151.237V152.046H305.066V151.237H307.895ZM305.825 149.997H306.833V154.895C306.833 155.091 306.862 155.238 306.92 155.337C306.979 155.434 307.054 155.5 307.146 155.536C307.241 155.57 307.343 155.587 307.453 155.587C307.534 155.587 307.605 155.581 307.665 155.57C307.726 155.559 307.773 155.55 307.807 155.543L307.989 156.376C307.931 156.398 307.847 156.421 307.74 156.443C307.632 156.468 307.497 156.481 307.335 156.483C307.07 156.488 306.823 156.441 306.593 156.342C306.364 156.243 306.179 156.09 306.037 155.883C305.895 155.677 305.825 155.417 305.825 155.104V149.997ZM308.819 156.416V151.237H309.827V156.416H308.819ZM309.328 150.438C309.152 150.438 309.002 150.38 308.876 150.263C308.752 150.144 308.691 150.002 308.691 149.838C308.691 149.672 308.752 149.53 308.876 149.413C309.002 149.294 309.152 149.235 309.328 149.235C309.503 149.235 309.653 149.294 309.776 149.413C309.902 149.53 309.965 149.672 309.965 149.838C309.965 150.002 309.902 150.144 309.776 150.263C309.653 150.38 309.503 150.438 309.328 150.438ZM312 153.341V156.416H310.992V151.237H311.959V152.08H312.023C312.143 151.806 312.329 151.586 312.583 151.419C312.839 151.253 313.162 151.17 313.551 151.17C313.904 151.17 314.213 151.244 314.478 151.392C314.743 151.538 314.949 151.757 315.095 152.046C315.241 152.336 315.314 152.695 315.314 153.122V156.416H314.306V153.243C314.306 152.868 314.208 152.575 314.013 152.363C313.817 152.15 313.549 152.043 313.207 152.043C312.973 152.043 312.765 152.094 312.583 152.195C312.403 152.296 312.261 152.444 312.155 152.64C312.052 152.833 312 153.067 312 153.341ZM318.646 158.466C318.235 158.466 317.881 158.412 317.584 158.304C317.29 158.196 317.049 158.053 316.863 157.876C316.676 157.698 316.537 157.504 316.445 157.293L317.311 156.935C317.372 157.034 317.453 157.139 317.554 157.249C317.657 157.361 317.797 157.457 317.972 157.535C318.149 157.614 318.378 157.653 318.656 157.653C319.038 157.653 319.354 157.56 319.604 157.374C319.853 157.189 319.978 156.895 319.978 156.49V155.472H319.914C319.853 155.582 319.766 155.705 319.651 155.839C319.539 155.974 319.383 156.091 319.186 156.19C318.988 156.289 318.73 156.338 318.414 156.338C318.004 156.338 317.636 156.243 317.308 156.052C316.982 155.859 316.723 155.574 316.532 155.199C316.343 154.821 316.249 154.357 316.249 153.806C316.249 153.256 316.342 152.784 316.529 152.39C316.718 151.997 316.976 151.696 317.304 151.487C317.632 151.275 318.004 151.17 318.42 151.17C318.742 151.17 319.001 151.224 319.199 151.332C319.397 151.437 319.551 151.561 319.661 151.703C319.773 151.844 319.86 151.969 319.921 152.077H319.995V151.237H320.983V156.531C320.983 156.976 320.879 157.341 320.672 157.626C320.466 157.912 320.186 158.123 319.833 158.26C319.482 158.397 319.087 158.466 318.646 158.466ZM318.636 155.502C318.926 155.502 319.171 155.435 319.371 155.3C319.573 155.163 319.726 154.967 319.83 154.713C319.935 154.457 319.988 154.15 319.988 153.793C319.988 153.445 319.936 153.138 319.833 152.872C319.73 152.607 319.578 152.4 319.378 152.252C319.178 152.102 318.931 152.026 318.636 152.026C318.333 152.026 318.08 152.105 317.877 152.262C317.675 152.417 317.522 152.629 317.419 152.896C317.318 153.164 317.267 153.463 317.267 153.793C317.267 154.132 317.319 154.43 317.422 154.686C317.526 154.943 317.679 155.143 317.881 155.287C318.085 155.43 318.337 155.502 318.636 155.502Z" fill="#272A40"/>
<path d="M0 130.016C0 109.663 16.4991 93.1641 36.8517 93.1641H38.3622C59.3944 93.1641 76.4444 110.214 76.4444 131.246H0L0 130.016Z" fill="#00FF72"/>
<path d="M267.555 130.016C267.555 109.663 284.054 93.1641 304.406 93.1641H305.917C326.949 93.1641 343.999 110.214 343.999 131.246H267.555V130.016Z" fill="#272A40"/>
<path d="M284.888 118.334L282.973 111.429H284.069L285.414 116.776H285.478L286.877 111.429H287.963L289.362 116.78H289.426L290.768 111.429H291.867L289.949 118.334H288.9L287.447 113.162H287.393L285.94 118.334H284.888ZM292.545 118.334V113.155H293.553V118.334H292.545ZM293.054 112.356C292.879 112.356 292.728 112.298 292.602 112.181C292.479 112.062 292.417 111.92 292.417 111.756C292.417 111.59 292.479 111.448 292.602 111.331C292.728 111.212 292.879 111.153 293.054 111.153C293.229 111.153 293.379 111.212 293.502 111.331C293.628 111.448 293.691 111.59 293.691 111.756C293.691 111.92 293.628 112.062 293.502 112.181C293.379 112.298 293.229 112.356 293.054 112.356ZM294.718 118.334V113.155H295.692V113.978H295.746C295.841 113.699 296.007 113.48 296.245 113.32C296.486 113.159 296.758 113.078 297.061 113.078C297.124 113.078 297.198 113.08 297.284 113.084C297.371 113.089 297.44 113.095 297.489 113.101V114.066C297.449 114.054 297.377 114.042 297.274 114.028C297.17 114.013 297.067 114.005 296.963 114.005C296.725 114.005 296.513 114.055 296.326 114.157C296.142 114.256 295.996 114.394 295.888 114.571C295.78 114.747 295.726 114.947 295.726 115.171V118.334H294.718ZM300.217 118.439C299.707 118.439 299.268 118.329 298.899 118.111C298.533 117.891 298.249 117.582 298.049 117.184C297.851 116.784 297.753 116.316 297.753 115.778C297.753 115.248 297.851 114.78 298.049 114.376C298.249 113.971 298.528 113.655 298.885 113.428C299.245 113.201 299.665 113.088 300.146 113.088C300.439 113.088 300.722 113.136 300.996 113.233C301.27 113.329 301.516 113.481 301.734 113.688C301.952 113.895 302.124 114.163 302.25 114.494C302.376 114.822 302.439 115.221 302.439 115.691V116.048H298.322V115.293H301.451C301.451 115.028 301.397 114.793 301.289 114.588C301.181 114.381 301.03 114.218 300.834 114.099C300.641 113.98 300.414 113.921 300.153 113.921C299.87 113.921 299.623 113.99 299.411 114.13C299.202 114.267 299.041 114.447 298.926 114.669C298.813 114.889 298.757 115.129 298.757 115.387V115.977C298.757 116.323 298.818 116.618 298.939 116.861C299.063 117.103 299.235 117.289 299.455 117.417C299.675 117.543 299.933 117.606 300.227 117.606C300.418 117.606 300.593 117.579 300.75 117.525C300.907 117.469 301.043 117.385 301.158 117.275C301.272 117.165 301.36 117.029 301.421 116.867L302.375 117.039C302.299 117.32 302.161 117.566 301.964 117.778C301.768 117.987 301.522 118.15 301.225 118.267C300.931 118.381 300.595 118.439 300.217 118.439ZM305.831 113.155V113.964H302.904V113.155H305.831ZM303.707 118.334V112.555C303.707 112.231 303.778 111.963 303.919 111.749C304.061 111.534 304.249 111.373 304.482 111.267C304.716 111.159 304.97 111.105 305.244 111.105C305.447 111.105 305.62 111.122 305.764 111.156C305.907 111.187 306.014 111.217 306.084 111.244L305.848 112.059C305.801 112.046 305.74 112.03 305.666 112.012C305.592 111.992 305.502 111.982 305.396 111.982C305.151 111.982 304.976 112.043 304.87 112.164C304.767 112.285 304.715 112.461 304.715 112.69V118.334H303.707ZM306.68 118.334V113.155H307.654V113.978H307.708C307.803 113.699 307.969 113.48 308.207 113.32C308.448 113.159 308.72 113.078 309.023 113.078C309.086 113.078 309.16 113.08 309.246 113.084C309.333 113.089 309.402 113.095 309.451 113.101V114.066C309.411 114.054 309.339 114.042 309.236 114.028C309.132 114.013 309.029 114.005 308.925 114.005C308.687 114.005 308.475 114.055 308.288 114.157C308.104 114.256 307.958 114.394 307.85 114.571C307.742 114.747 307.688 114.947 307.688 115.171V118.334H306.68ZM311.593 118.449C311.265 118.449 310.968 118.388 310.703 118.267C310.438 118.143 310.228 117.964 310.073 117.73C309.92 117.497 309.843 117.21 309.843 116.871C309.843 116.579 309.9 116.338 310.012 116.149C310.124 115.96 310.276 115.811 310.467 115.701C310.658 115.591 310.872 115.507 311.108 115.451C311.344 115.395 311.584 115.352 311.829 115.323C312.139 115.287 312.391 115.258 312.584 115.236C312.778 115.211 312.918 115.171 313.006 115.118C313.094 115.064 313.137 114.976 313.137 114.855V114.831C313.137 114.536 313.054 114.308 312.888 114.146C312.724 113.985 312.479 113.904 312.153 113.904C311.814 113.904 311.546 113.979 311.35 114.13C311.157 114.278 311.023 114.443 310.949 114.625L310.002 114.409C310.114 114.095 310.278 113.841 310.494 113.648C310.712 113.452 310.963 113.31 311.246 113.223C311.529 113.133 311.827 113.088 312.139 113.088C312.346 113.088 312.565 113.113 312.797 113.162C313.031 113.209 313.249 113.297 313.451 113.425C313.656 113.553 313.823 113.736 313.953 113.975C314.084 114.211 314.149 114.517 314.149 114.895V118.334H313.164V117.626H313.124C313.059 117.756 312.961 117.884 312.831 118.01C312.7 118.136 312.533 118.241 312.328 118.324C312.124 118.407 311.879 118.449 311.593 118.449ZM311.812 117.639C312.091 117.639 312.329 117.584 312.527 117.474C312.727 117.364 312.879 117.22 312.982 117.043C313.088 116.863 313.141 116.671 313.141 116.466V115.799C313.105 115.835 313.035 115.868 312.932 115.9C312.831 115.929 312.715 115.955 312.584 115.977C312.454 115.997 312.327 116.017 312.204 116.035C312.08 116.05 311.976 116.064 311.893 116.075C311.698 116.1 311.519 116.141 311.357 116.2C311.198 116.258 311.07 116.343 310.973 116.453C310.878 116.561 310.831 116.704 310.831 116.884C310.831 117.134 310.923 117.323 311.108 117.451C311.292 117.577 311.527 117.639 311.812 117.639ZM315.3 118.334V113.155H316.268V113.998H316.332C316.44 113.713 316.616 113.49 316.861 113.331C317.106 113.169 317.4 113.088 317.741 113.088C318.088 113.088 318.378 113.169 318.611 113.331C318.847 113.492 319.022 113.715 319.134 113.998H319.188C319.311 113.722 319.508 113.501 319.778 113.337C320.048 113.171 320.369 113.088 320.742 113.088C321.212 113.088 321.595 113.235 321.892 113.529C322.191 113.824 322.34 114.268 322.34 114.861V118.334H321.332V114.956C321.332 114.605 321.237 114.351 321.046 114.194C320.855 114.036 320.626 113.958 320.361 113.958C320.033 113.958 319.778 114.059 319.596 114.261C319.414 114.461 319.323 114.719 319.323 115.033V118.334H318.318V114.892C318.318 114.611 318.23 114.385 318.055 114.214C317.88 114.043 317.652 113.958 317.371 113.958C317.18 113.958 317.003 114.008 316.841 114.109C316.682 114.208 316.552 114.347 316.453 114.524C316.357 114.702 316.309 114.907 316.309 115.141V118.334H315.3ZM325.732 118.439C325.222 118.439 324.783 118.329 324.414 118.111C324.048 117.891 323.764 117.582 323.564 117.184C323.366 116.784 323.268 116.316 323.268 115.778C323.268 115.248 323.366 114.78 323.564 114.376C323.764 113.971 324.043 113.655 324.4 113.428C324.76 113.201 325.18 113.088 325.661 113.088C325.954 113.088 326.237 113.136 326.511 113.233C326.785 113.329 327.031 113.481 327.249 113.688C327.467 113.895 327.639 114.163 327.765 114.494C327.891 114.822 327.954 115.221 327.954 115.691V116.048H323.837V115.293H326.966C326.966 115.028 326.912 114.793 326.804 114.588C326.696 114.381 326.545 114.218 326.349 114.099C326.156 113.98 325.929 113.921 325.668 113.921C325.385 113.921 325.138 113.99 324.926 114.13C324.717 114.267 324.556 114.447 324.441 114.669C324.328 114.889 324.272 115.129 324.272 115.387V115.977C324.272 116.323 324.333 116.618 324.454 116.861C324.578 117.103 324.75 117.289 324.97 117.417C325.19 117.543 325.448 117.606 325.742 117.606C325.933 117.606 326.108 117.579 326.265 117.525C326.422 117.469 326.558 117.385 326.673 117.275C326.787 117.165 326.875 117.029 326.936 116.867L327.89 117.039C327.814 117.32 327.676 117.566 327.479 117.778C327.283 117.987 327.037 118.15 326.74 118.267C326.446 118.381 326.11 118.439 325.732 118.439Z" fill="#00FF72"/>
<path d="M152.889 131.097C152.889 110.152 170.166 93.1641 191.111 93.1641C212.056 93.1641 229.333 110.152 229.333 131.097C229.333 152.207 212.22 169.328 191.111 169.328C170.001 169.328 152.889 152.207 152.889 131.097Z" fill="#00FF72"/>
<path d="M171.37 134.746V127.841H173.831C174.366 127.841 174.81 127.933 175.163 128.118C175.518 128.302 175.783 128.557 175.959 128.883C176.134 129.207 176.222 129.581 176.222 130.006C176.222 130.428 176.133 130.8 175.955 131.122C175.78 131.441 175.515 131.689 175.16 131.867C174.807 132.044 174.363 132.133 173.828 132.133H171.963V131.236H173.733C174.071 131.236 174.345 131.188 174.556 131.091C174.77 130.995 174.926 130.854 175.025 130.67C175.124 130.486 175.173 130.264 175.173 130.006C175.173 129.745 175.122 129.519 175.021 129.328C174.922 129.137 174.766 128.991 174.553 128.89C174.341 128.786 174.064 128.735 173.72 128.735H172.412V134.746H171.37ZM174.779 131.631L176.485 134.746H175.298L173.626 131.631H174.779ZM179.384 134.851C178.874 134.851 178.435 134.742 178.066 134.524C177.7 134.303 177.416 133.994 177.216 133.596C177.019 133.196 176.92 132.728 176.92 132.19C176.92 131.66 177.019 131.192 177.216 130.788C177.416 130.383 177.695 130.067 178.053 129.84C178.412 129.613 178.832 129.5 179.313 129.5C179.606 129.5 179.889 129.548 180.163 129.645C180.437 129.742 180.683 129.893 180.901 130.1C181.12 130.307 181.291 130.575 181.417 130.906C181.543 131.234 181.606 131.633 181.606 132.103V132.46H177.489V131.705H180.618C180.618 131.44 180.564 131.205 180.456 131C180.349 130.793 180.197 130.631 180.001 130.511C179.808 130.392 179.581 130.333 179.32 130.333C179.037 130.333 178.79 130.402 178.578 130.542C178.369 130.679 178.208 130.859 178.093 131.081C177.981 131.301 177.924 131.541 177.924 131.799V132.389C177.924 132.736 177.985 133.03 178.106 133.273C178.23 133.515 178.402 133.701 178.622 133.829C178.843 133.955 179.1 134.018 179.394 134.018C179.585 134.018 179.76 133.991 179.917 133.937C180.074 133.881 180.21 133.798 180.325 133.687C180.44 133.577 180.527 133.441 180.588 133.279L181.542 133.451C181.466 133.732 181.329 133.978 181.131 134.19C180.935 134.399 180.689 134.562 180.392 134.679C180.098 134.793 179.762 134.851 179.384 134.851ZM186.414 130.832L185.5 130.994C185.462 130.877 185.402 130.765 185.318 130.66C185.237 130.554 185.127 130.468 184.988 130.4C184.849 130.333 184.674 130.299 184.465 130.299C184.18 130.299 183.942 130.363 183.751 130.491C183.56 130.617 183.464 130.78 183.464 130.98C183.464 131.153 183.528 131.292 183.656 131.398C183.784 131.504 183.991 131.59 184.277 131.658L185.099 131.847C185.576 131.957 185.931 132.126 186.165 132.356C186.398 132.585 186.515 132.883 186.515 133.249C186.515 133.559 186.425 133.836 186.246 134.079C186.068 134.319 185.82 134.508 185.5 134.645C185.184 134.782 184.816 134.851 184.398 134.851C183.818 134.851 183.345 134.727 182.979 134.48C182.612 134.23 182.387 133.876 182.304 133.418L183.279 133.269C183.339 133.523 183.464 133.716 183.653 133.846C183.842 133.974 184.088 134.038 184.391 134.038C184.722 134.038 184.986 133.97 185.184 133.832C185.381 133.693 185.48 133.523 185.48 133.323C185.48 133.161 185.42 133.025 185.298 132.915C185.179 132.805 184.996 132.722 184.749 132.666L183.872 132.474C183.389 132.364 183.031 132.188 182.8 131.948C182.571 131.707 182.456 131.403 182.456 131.034C182.456 130.728 182.541 130.461 182.712 130.232C182.883 130.002 183.119 129.824 183.42 129.695C183.721 129.565 184.066 129.5 184.455 129.5C185.015 129.5 185.455 129.621 185.777 129.864C186.098 130.105 186.311 130.427 186.414 130.832ZM189.664 134.851C189.154 134.851 188.715 134.742 188.346 134.524C187.98 134.303 187.697 133.994 187.497 133.596C187.299 133.196 187.2 132.728 187.2 132.19C187.2 131.66 187.299 131.192 187.497 130.788C187.697 130.383 187.975 130.067 188.333 129.84C188.692 129.613 189.113 129.5 189.594 129.5C189.886 129.5 190.169 129.548 190.443 129.645C190.718 129.742 190.964 129.893 191.182 130.1C191.4 130.307 191.572 130.575 191.698 130.906C191.823 131.234 191.886 131.633 191.886 132.103V132.46H187.77V131.705H190.898C190.898 131.44 190.845 131.205 190.737 131C190.629 130.793 190.477 130.631 190.281 130.511C190.088 130.392 189.861 130.333 189.6 130.333C189.317 130.333 189.07 130.402 188.859 130.542C188.65 130.679 188.488 130.859 188.373 131.081C188.261 131.301 188.205 131.541 188.205 131.799V132.389C188.205 132.736 188.265 133.03 188.387 133.273C188.51 133.515 188.682 133.701 188.902 133.829C189.123 133.955 189.38 134.018 189.675 134.018C189.866 134.018 190.04 133.991 190.197 133.937C190.355 133.881 190.49 133.798 190.605 133.687C190.72 133.577 190.807 133.441 190.868 133.279L191.822 133.451C191.746 133.732 191.609 133.978 191.411 134.19C191.215 134.399 190.969 134.562 190.673 134.679C190.378 134.793 190.042 134.851 189.664 134.851ZM194.321 134.861C193.993 134.861 193.696 134.8 193.431 134.679C193.165 134.555 192.955 134.376 192.8 134.143C192.647 133.909 192.571 133.622 192.571 133.283C192.571 132.991 192.627 132.75 192.739 132.561C192.852 132.373 193.004 132.223 193.195 132.113C193.386 132.003 193.599 131.92 193.835 131.863C194.071 131.807 194.312 131.765 194.557 131.735C194.867 131.699 195.119 131.67 195.312 131.648C195.505 131.623 195.646 131.584 195.733 131.53C195.821 131.476 195.865 131.388 195.865 131.267V131.243C195.865 130.949 195.782 130.72 195.615 130.559C195.451 130.397 195.206 130.316 194.88 130.316C194.541 130.316 194.274 130.391 194.078 130.542C193.885 130.69 193.751 130.855 193.677 131.037L192.729 130.822C192.842 130.507 193.006 130.253 193.222 130.06C193.44 129.864 193.69 129.722 193.973 129.635C194.257 129.545 194.554 129.5 194.867 129.5C195.074 129.5 195.293 129.525 195.524 129.574C195.758 129.621 195.976 129.709 196.178 129.837C196.383 129.965 196.55 130.148 196.681 130.387C196.811 130.623 196.876 130.929 196.876 131.307V134.746H195.892V134.038H195.851C195.786 134.168 195.688 134.297 195.558 134.422C195.428 134.548 195.26 134.653 195.056 134.736C194.851 134.819 194.606 134.861 194.321 134.861ZM194.54 134.052C194.819 134.052 195.057 133.996 195.255 133.886C195.455 133.776 195.606 133.632 195.71 133.455C195.815 133.275 195.868 133.083 195.868 132.878V132.211C195.832 132.247 195.763 132.28 195.659 132.312C195.558 132.341 195.442 132.367 195.312 132.389C195.182 132.41 195.055 132.429 194.931 132.447C194.807 132.462 194.704 132.476 194.621 132.487C194.425 132.512 194.247 132.553 194.085 132.612C193.925 132.67 193.797 132.755 193.7 132.865C193.606 132.973 193.559 133.117 193.559 133.296C193.559 133.546 193.651 133.735 193.835 133.863C194.02 133.989 194.254 134.052 194.54 134.052ZM198.028 134.746V129.567H199.002V130.39H199.056C199.151 130.111 199.317 129.892 199.555 129.733C199.796 129.571 200.068 129.49 200.371 129.49C200.434 129.49 200.508 129.492 200.594 129.497C200.681 129.501 200.75 129.507 200.799 129.513V130.478C200.759 130.466 200.687 130.454 200.584 130.441C200.48 130.425 200.377 130.417 200.273 130.417C200.035 130.417 199.823 130.468 199.636 130.569C199.452 130.668 199.306 130.806 199.198 130.983C199.09 131.159 199.036 131.359 199.036 131.584V134.746H198.028ZM203.476 134.851C202.975 134.851 202.544 134.737 202.182 134.51C201.822 134.281 201.546 133.965 201.352 133.563C201.159 133.16 201.062 132.7 201.062 132.18C201.062 131.654 201.161 131.19 201.359 130.788C201.557 130.383 201.836 130.067 202.195 129.84C202.555 129.613 202.979 129.5 203.466 129.5C203.86 129.5 204.21 129.573 204.518 129.719C204.826 129.863 205.075 130.065 205.263 130.326C205.454 130.587 205.568 130.891 205.604 131.24H204.623C204.569 130.997 204.445 130.788 204.252 130.613C204.061 130.437 203.805 130.35 203.483 130.35C203.202 130.35 202.956 130.424 202.745 130.572C202.536 130.718 202.373 130.927 202.256 131.199C202.139 131.469 202.081 131.788 202.081 132.157C202.081 132.534 202.138 132.86 202.253 133.134C202.367 133.409 202.529 133.621 202.738 133.772C202.949 133.922 203.198 133.998 203.483 133.998C203.674 133.998 203.847 133.963 204.002 133.893C204.16 133.821 204.291 133.719 204.397 133.586C204.505 133.454 204.58 133.294 204.623 133.108H205.604C205.568 133.442 205.459 133.741 205.277 134.004C205.095 134.267 204.851 134.474 204.545 134.625C204.242 134.775 203.886 134.851 203.476 134.851ZM207.499 131.671V134.746H206.491V127.841H207.485V130.41H207.549C207.671 130.132 207.856 129.91 208.106 129.746C208.355 129.582 208.681 129.5 209.084 129.5C209.439 129.5 209.749 129.573 210.014 129.719C210.282 129.865 210.488 130.083 210.634 130.373C210.783 130.661 210.857 131.021 210.857 131.452V134.746H209.849V131.573C209.849 131.194 209.751 130.899 209.556 130.69C209.36 130.479 209.088 130.373 208.74 130.373C208.501 130.373 208.288 130.424 208.099 130.525C207.912 130.626 207.765 130.774 207.657 130.97C207.552 131.163 207.499 131.397 207.499 131.671Z" fill="#272A40"/>
<path d="M229.334 93.1641C250.366 93.1641 267.556 110.214 267.556 131.246C267.556 152.279 250.366 169.328 229.334 169.328V93.1641Z" fill="#272A40"/>
<path d="M76.4453 131.246C76.4453 110.214 93.6353 93.1641 114.668 93.1641V169.328C93.6353 169.328 76.4453 152.279 76.4453 131.246Z" fill="#272A40"/>
<path d="M114.666 131.246C114.666 110.214 131.856 93.1641 152.888 93.1641V169.328C131.856 169.328 114.666 152.279 114.666 131.246Z" fill="#EDF4FE"/>
</svg>
