<svg width="344" height="280" viewBox="0 0 344 280" fill="none" xmlns="http://www.w3.org/2000/svg">
<rect width="344" height="280" rx="18" fill="white"/>
<path d="M132.354 103V135H127.525V103H132.354ZM143.682 120.75V135H139.01V111H143.494V114.906H143.791C144.343 113.635 145.208 112.615 146.385 111.844C147.572 111.073 149.067 110.688 150.869 110.688C152.505 110.688 153.937 111.031 155.166 111.719C156.395 112.396 157.348 113.406 158.025 114.75C158.702 116.094 159.041 117.755 159.041 119.734V135H154.369V120.297C154.369 118.557 153.916 117.198 153.01 116.219C152.104 115.229 150.859 114.734 149.275 114.734C148.192 114.734 147.229 114.969 146.385 115.437C145.551 115.906 144.89 116.594 144.4 117.5C143.921 118.396 143.682 119.479 143.682 120.75ZM176.51 111V114.75H163.4V111H176.51ZM166.916 105.25H171.588V127.953C171.588 128.859 171.723 129.542 171.994 130C172.265 130.448 172.614 130.755 173.041 130.922C173.479 131.078 173.952 131.156 174.463 131.156C174.838 131.156 175.166 131.13 175.447 131.078C175.729 131.026 175.947 130.984 176.104 130.953L176.947 134.812C176.676 134.917 176.291 135.021 175.791 135.125C175.291 135.24 174.666 135.302 173.916 135.313C172.687 135.333 171.541 135.115 170.479 134.656C169.416 134.198 168.557 133.49 167.9 132.531C167.244 131.573 166.916 130.37 166.916 128.922V105.25ZM191.764 135.484C189.399 135.484 187.363 134.979 185.654 133.969C183.956 132.948 182.644 131.516 181.717 129.672C180.8 127.818 180.342 125.646 180.342 123.156C180.342 120.698 180.8 118.531 181.717 116.656C182.644 114.781 183.936 113.318 185.592 112.266C187.258 111.214 189.206 110.688 191.436 110.688C192.79 110.688 194.102 110.911 195.373 111.359C196.644 111.807 197.785 112.51 198.795 113.469C199.805 114.427 200.602 115.672 201.186 117.203C201.769 118.724 202.061 120.573 202.061 122.75V124.406H182.982V120.906H197.482C197.482 119.677 197.232 118.589 196.732 117.641C196.232 116.682 195.529 115.927 194.623 115.375C193.727 114.823 192.675 114.547 191.467 114.547C190.154 114.547 189.008 114.87 188.029 115.516C187.061 116.151 186.311 116.984 185.779 118.016C185.258 119.036 184.998 120.146 184.998 121.344V124.078C184.998 125.682 185.279 127.047 185.842 128.172C186.415 129.297 187.212 130.156 188.232 130.75C189.253 131.333 190.446 131.625 191.811 131.625C192.696 131.625 193.503 131.5 194.232 131.25C194.962 130.99 195.592 130.604 196.123 130.094C196.654 129.583 197.061 128.953 197.342 128.203L201.764 129C201.41 130.302 200.774 131.443 199.857 132.422C198.951 133.391 197.811 134.146 196.436 134.687C195.071 135.219 193.514 135.484 191.764 135.484ZM207.244 135V111H211.76V114.812H212.01C212.447 113.521 213.218 112.505 214.322 111.766C215.437 111.016 216.697 110.641 218.104 110.641C218.395 110.641 218.739 110.651 219.135 110.672C219.541 110.693 219.859 110.719 220.088 110.75V115.219C219.9 115.167 219.567 115.109 219.088 115.047C218.609 114.974 218.13 114.937 217.65 114.937C216.546 114.937 215.562 115.172 214.697 115.641C213.843 116.099 213.166 116.74 212.666 117.562C212.166 118.375 211.916 119.302 211.916 120.344V135H207.244Z" fill="#272A40"/>
<path d="M16.9151 25.4062V24.2727H23.6694V25.4062H20.9464V33H19.6339V25.4062H16.9151ZM25.1151 35.4545C24.9247 35.4545 24.7514 35.4389 24.5952 35.4077C24.4389 35.3793 24.3224 35.348 24.2457 35.3139L24.5526 34.2699C24.7855 34.3324 24.9929 34.3594 25.1747 34.3509C25.3565 34.3423 25.517 34.2741 25.6562 34.1463C25.7983 34.0185 25.9233 33.8097 26.0312 33.5199L26.1889 33.0852L23.794 26.4545H25.1577L26.8153 31.5341H26.8835L28.5412 26.4545H29.9091L27.2116 33.8736C27.0866 34.2145 26.9276 34.5028 26.7344 34.7386C26.5412 34.9773 26.3111 35.1563 26.044 35.2756C25.777 35.3949 25.4673 35.4545 25.1151 35.4545ZM31.1065 35.4545V26.4545H32.3509V27.5156H32.4574C32.5313 27.3793 32.6378 27.2216 32.777 27.0426C32.9162 26.8636 33.1094 26.7074 33.3565 26.5739C33.6037 26.4375 33.9304 26.3693 34.3366 26.3693C34.8651 26.3693 35.3366 26.5028 35.7514 26.7699C36.1662 27.0369 36.4915 27.4219 36.7273 27.9247C36.9659 28.4276 37.0852 29.0327 37.0852 29.7401C37.0852 30.4474 36.9673 31.054 36.7315 31.5597C36.4957 32.0625 36.1719 32.4503 35.7599 32.723C35.348 32.9929 34.8778 33.1278 34.3494 33.1278C33.9517 33.1278 33.6264 33.0611 33.3736 32.9276C33.1236 32.794 32.9276 32.6378 32.7855 32.4588C32.6435 32.2798 32.5341 32.1207 32.4574 31.9815H32.3807V35.4545H31.1065ZM32.3551 29.7273C32.3551 30.1875 32.4219 30.5909 32.5554 30.9375C32.6889 31.2841 32.8821 31.5554 33.1349 31.7514C33.3878 31.9446 33.6974 32.0412 34.0639 32.0412C34.4446 32.0412 34.7628 31.9403 35.0185 31.7386C35.2741 31.5341 35.4673 31.2571 35.598 30.9077C35.7315 30.5582 35.7983 30.1648 35.7983 29.7273C35.7983 29.2955 35.733 28.9077 35.6023 28.5639C35.4744 28.2202 35.2813 27.9489 35.0227 27.75C34.767 27.5511 34.4474 27.4517 34.0639 27.4517C33.6946 27.4517 33.3821 27.5469 33.1264 27.7372C32.8736 27.9276 32.6818 28.1932 32.5511 28.5341C32.4205 28.875 32.3551 29.2727 32.3551 29.7273ZM41.3338 33.1321C40.6889 33.1321 40.1335 32.9943 39.6676 32.7188C39.2045 32.4403 38.8466 32.0497 38.5938 31.5469C38.3438 31.0412 38.2188 30.4489 38.2188 29.7699C38.2188 29.0994 38.3438 28.5085 38.5938 27.9972C38.8466 27.4858 39.1989 27.0866 39.6506 26.7997C40.1051 26.5128 40.6364 26.3693 41.2443 26.3693C41.6136 26.3693 41.9716 26.4304 42.3182 26.5526C42.6648 26.6747 42.9759 26.8665 43.2514 27.1278C43.527 27.3892 43.7443 27.7287 43.9034 28.1463C44.0625 28.5611 44.142 29.0653 44.142 29.6591V30.1108H38.9389V29.1562H42.8935C42.8935 28.821 42.8253 28.5241 42.6889 28.2656C42.5526 28.0043 42.3608 27.7983 42.1136 27.6477C41.8693 27.4972 41.5824 27.4219 41.2528 27.4219C40.8949 27.4219 40.5824 27.5099 40.3153 27.6861C40.0511 27.8594 39.8466 28.0866 39.7017 28.3679C39.5597 28.6463 39.4886 28.9489 39.4886 29.2756V30.0213C39.4886 30.4588 39.5653 30.831 39.7188 31.1378C39.875 31.4446 40.0923 31.679 40.3707 31.8409C40.6491 32 40.9744 32.0795 41.3466 32.0795C41.5881 32.0795 41.8082 32.0455 42.0071 31.9773C42.206 31.9062 42.3778 31.8011 42.5227 31.6619C42.6676 31.5227 42.7784 31.3509 42.8551 31.1463L44.0611 31.3636C43.9645 31.7187 43.7912 32.0298 43.5412 32.2969C43.294 32.5611 42.983 32.767 42.608 32.9148C42.2358 33.0597 41.8111 33.1321 41.3338 33.1321ZM48.6708 26.4545V27.4773H44.9719V26.4545H48.6708ZM45.9862 33V25.696C45.9862 25.2869 46.0756 24.9474 46.2546 24.6776C46.4336 24.4048 46.6708 24.2017 46.9663 24.0682C47.2617 23.9318 47.5827 23.8636 47.9293 23.8636C48.185 23.8636 48.4038 23.8849 48.5856 23.9276C48.7674 23.9673 48.9023 24.0043 48.9904 24.0384L48.6921 25.0696C48.6325 25.0526 48.5558 25.0327 48.462 25.0099C48.3683 24.9844 48.2546 24.9716 48.1211 24.9716C47.8114 24.9716 47.5898 25.0483 47.4563 25.2017C47.3256 25.3551 47.2603 25.5767 47.2603 25.8665V33H45.9862ZM51.6911 33.1449C51.2763 33.1449 50.9013 33.0682 50.5661 32.9148C50.2308 32.7585 49.9652 32.5327 49.7692 32.2372C49.576 31.9418 49.4794 31.5795 49.4794 31.1506C49.4794 30.7812 49.5504 30.4773 49.6925 30.2386C49.8345 30 50.0263 29.8111 50.2678 29.6719C50.5092 29.5327 50.7791 29.4276 51.0774 29.3565C51.3757 29.2855 51.6797 29.2315 51.9893 29.1946C52.3814 29.1491 52.6996 29.1122 52.9439 29.0838C53.1882 29.0526 53.3658 29.0028 53.4766 28.9347C53.5874 28.8665 53.6428 28.7557 53.6428 28.6023V28.5724C53.6428 28.2003 53.5376 27.9119 53.3274 27.7074C53.12 27.5028 52.8104 27.4006 52.3984 27.4006C51.9695 27.4006 51.6314 27.4957 51.3842 27.6861C51.1399 27.8736 50.9709 28.0824 50.8771 28.3125L49.6797 28.0398C49.8217 27.642 50.0291 27.321 50.3018 27.0767C50.5774 26.8295 50.8942 26.6506 51.2521 26.5398C51.6101 26.4261 51.9865 26.3693 52.3814 26.3693C52.6428 26.3693 52.9197 26.4006 53.2124 26.4631C53.5078 26.5227 53.7834 26.6335 54.0391 26.7955C54.2976 26.9574 54.5092 27.1889 54.674 27.4901C54.8388 27.7884 54.9212 28.1761 54.9212 28.6534V33H53.6768V32.1051H53.6257C53.5433 32.2699 53.4197 32.4318 53.255 32.5909C53.0902 32.75 52.8786 32.8821 52.62 32.9872C52.3615 33.0923 52.0518 33.1449 51.6911 33.1449ZM51.968 32.1222C52.3203 32.1222 52.6214 32.0526 52.8714 31.9134C53.1243 31.7741 53.3161 31.5923 53.4467 31.3679C53.5803 31.1406 53.647 30.8977 53.647 30.6392V29.7955C53.6016 29.8409 53.5135 29.8835 53.3828 29.9233C53.255 29.9602 53.1087 29.9929 52.9439 30.0213C52.7791 30.0469 52.6186 30.071 52.4624 30.0938C52.3061 30.1136 52.1754 30.1307 52.0703 30.1449C51.8232 30.1761 51.5973 30.2287 51.3928 30.3026C51.1911 30.3764 51.0291 30.483 50.907 30.6222C50.7876 30.7585 50.728 30.9403 50.728 31.1676C50.728 31.483 50.8445 31.7216 51.0774 31.8835C51.3104 32.0426 51.6072 32.1222 51.968 32.1222ZM59.3754 33.1321C58.7418 33.1321 58.1964 32.9886 57.739 32.7017C57.2844 32.4119 56.935 32.0128 56.6907 31.5043C56.4464 30.9957 56.3242 30.4134 56.3242 29.7571C56.3242 29.0923 56.4492 28.5057 56.6992 27.9972C56.9492 27.4858 57.3015 27.0866 57.756 26.7997C58.2106 26.5128 58.7461 26.3693 59.3626 26.3693C59.8597 26.3693 60.3029 26.4616 60.6921 26.6463C61.0813 26.8281 61.3952 27.0838 61.6339 27.4134C61.8754 27.7429 62.0188 28.1278 62.0643 28.5682H60.8242C60.756 28.2614 60.5998 27.9972 60.3555 27.7756C60.114 27.554 59.7901 27.4432 59.3839 27.4432C59.0288 27.4432 58.7177 27.5369 58.4506 27.7244C58.1864 27.9091 57.9805 28.1733 57.8327 28.517C57.685 28.858 57.6112 29.2614 57.6112 29.7273C57.6112 30.2045 57.6836 30.6165 57.8285 30.9631C57.9734 31.3097 58.1779 31.5781 58.4421 31.7685C58.7092 31.9588 59.0231 32.054 59.3839 32.054C59.6254 32.054 59.8441 32.0099 60.0401 31.9219C60.239 31.831 60.4052 31.7017 60.5387 31.5341C60.6751 31.3665 60.7702 31.1648 60.8242 30.929H62.0643C62.0188 31.3523 61.881 31.7301 61.6509 32.0625C61.4208 32.3949 61.1126 32.6562 60.7262 32.8466C60.3427 33.0369 59.8924 33.1321 59.3754 33.1321ZM66.2479 33.1321C65.603 33.1321 65.0476 32.9943 64.5817 32.7188C64.1186 32.4403 63.7607 32.0497 63.5078 31.5469C63.2578 31.0412 63.1328 30.4489 63.1328 29.7699C63.1328 29.0994 63.2578 28.5085 63.5078 27.9972C63.7607 27.4858 64.1129 27.0866 64.5646 26.7997C65.0192 26.5128 65.5504 26.3693 66.1584 26.3693C66.5277 26.3693 66.8857 26.4304 67.2322 26.5526C67.5788 26.6747 67.8899 26.8665 68.1655 27.1278C68.4411 27.3892 68.6584 27.7287 68.8175 28.1463C68.9766 28.5611 69.0561 29.0653 69.0561 29.6591V30.1108H63.853V29.1562H67.8075C67.8075 28.821 67.7393 28.5241 67.603 28.2656C67.4666 28.0043 67.2749 27.7983 67.0277 27.6477C66.7834 27.4972 66.4964 27.4219 66.1669 27.4219C65.8089 27.4219 65.4964 27.5099 65.2294 27.6861C64.9652 27.8594 64.7607 28.0866 64.6158 28.3679C64.4737 28.6463 64.4027 28.9489 64.4027 29.2756V30.0213C64.4027 30.4588 64.4794 30.831 64.6328 31.1378C64.7891 31.4446 65.0064 31.679 65.2848 31.8409C65.5632 32 65.8885 32.0795 66.2607 32.0795C66.5021 32.0795 66.7223 32.0455 66.9212 31.9773C67.12 31.9062 67.2919 31.8011 67.4368 31.6619C67.5817 31.5227 67.6925 31.3509 67.7692 31.1463L68.9751 31.3636C68.8786 31.7187 68.7053 32.0298 68.4553 32.2969C68.2081 32.5611 67.897 32.767 67.522 32.9148C67.1499 33.0597 66.7251 33.1321 66.2479 33.1321Z" fill="#272A40"/>
<path d="M16.9588 238V229.273H18.2756V233.065H22.6264V229.273H23.9474V238H22.6264V234.195H18.2756V238H16.9588ZM29.0568 229.273V238H27.7358V230.594H27.6847L25.5966 231.957V230.696L27.7741 229.273H29.0568ZM32.5884 236.807L32.5245 237.271C32.4819 237.612 32.4094 237.967 32.3072 238.337C32.2077 238.709 32.104 239.054 31.9961 239.372C31.891 239.69 31.8043 239.943 31.7362 240.131H30.8327C30.8697 239.955 30.9208 239.716 30.9862 239.415C31.0515 239.116 31.1154 238.783 31.1779 238.413C31.2404 238.044 31.2873 237.668 31.3185 237.284L31.3612 236.807H32.5884ZM37.5252 238V229.273H38.842V233.065H43.1928V229.273H44.5138V238H43.1928V234.195H38.842V238H37.5252ZM46.3121 238V237.045L49.2653 233.986C49.5806 233.653 49.8406 233.362 50.0451 233.112C50.2525 232.859 50.4073 232.619 50.5096 232.392C50.6119 232.165 50.663 231.923 50.663 231.668C50.663 231.378 50.5948 231.128 50.4585 230.918C50.3221 230.705 50.136 230.541 49.9002 230.428C49.6644 230.311 49.3988 230.253 49.1033 230.253C48.7908 230.253 48.5181 230.317 48.2852 230.445C48.0522 230.572 47.8732 230.753 47.7482 230.986C47.6232 231.219 47.5607 231.491 47.5607 231.804H46.3036C46.3036 231.273 46.4258 230.808 46.6701 230.411C46.9144 230.013 47.2496 229.705 47.6758 229.486C48.1019 229.264 48.5863 229.153 49.1289 229.153C49.6772 229.153 50.1602 229.263 50.5778 229.482C50.9982 229.697 51.3263 229.993 51.5621 230.368C51.7979 230.74 51.9158 231.161 51.9158 231.629C51.9158 231.953 51.8548 232.27 51.7326 232.58C51.6133 232.889 51.4045 233.234 51.1062 233.615C50.8079 233.993 50.3931 234.452 49.8619 234.991L48.1275 236.807V236.871H52.0565V238H46.3121ZM55.3462 236.807L55.2823 237.271C55.2397 237.612 55.1673 237.967 55.065 238.337C54.9656 238.709 54.8619 239.054 54.7539 239.372C54.6488 239.69 54.5621 239.943 54.494 240.131H53.5906C53.6275 239.955 53.6786 239.716 53.744 239.415C53.8093 239.116 53.8732 238.783 53.9357 238.413C53.9982 238.044 54.0451 237.668 54.0763 237.284L54.119 236.807H55.3462ZM60.283 238V229.273H61.5998V233.065H65.9506V229.273H67.2717V238H65.9506V234.195H61.5998V238H60.283ZM72.1083 238.119C71.5231 238.119 71.0004 238.018 70.5401 237.817C70.0827 237.615 69.7205 237.335 69.4535 236.977C69.1893 236.616 69.0472 236.199 69.0273 235.724H70.3654C70.3825 235.983 70.4691 236.207 70.6254 236.398C70.7844 236.585 70.9918 236.73 71.2475 236.832C71.5032 236.935 71.7873 236.986 72.0998 236.986C72.4435 236.986 72.7475 236.926 73.0117 236.807C73.2788 236.687 73.4876 236.521 73.6381 236.308C73.7887 236.092 73.864 235.844 73.864 235.562C73.864 235.27 73.7887 235.013 73.6381 234.791C73.4904 234.567 73.2731 234.391 72.9862 234.263C72.7021 234.135 72.3583 234.071 71.9549 234.071H71.2177V232.997H71.9549C72.2788 232.997 72.5629 232.939 72.8072 232.822C73.0543 232.706 73.2475 232.544 73.3867 232.337C73.5259 232.126 73.5955 231.881 73.5955 231.599C73.5955 231.33 73.5344 231.095 73.4123 230.896C73.293 230.695 73.1225 230.537 72.9009 230.423C72.6822 230.31 72.4237 230.253 72.1254 230.253C71.8413 230.253 71.5756 230.305 71.3285 230.411C71.0842 230.513 70.8853 230.661 70.7319 230.854C70.5785 231.044 70.4961 231.273 70.4847 231.54H69.2106C69.2248 231.068 69.364 230.653 69.6282 230.295C69.8952 229.937 70.2475 229.658 70.685 229.456C71.1225 229.254 71.6083 229.153 72.1424 229.153C72.7021 229.153 73.185 229.263 73.5913 229.482C74.0004 229.697 74.3157 229.986 74.5373 230.347C74.7617 230.707 74.8725 231.102 74.8697 231.531C74.8725 232.02 74.7362 232.435 74.4606 232.776C74.1879 233.116 73.8242 233.345 73.3697 233.462V233.53C73.9492 233.618 74.3981 233.848 74.7163 234.22C75.0373 234.592 75.1964 235.054 75.1935 235.605C75.1964 236.085 75.0629 236.516 74.793 236.896C74.5259 237.277 74.1609 237.577 73.6978 237.795C73.2347 238.011 72.7049 238.119 72.1083 238.119ZM78.2212 236.807L78.1573 237.271C78.1147 237.612 78.0423 237.967 77.94 238.337C77.8406 238.709 77.7369 239.054 77.6289 239.372C77.5238 239.69 77.4371 239.943 77.369 240.131H76.4656C76.5025 239.955 76.5536 239.716 76.619 239.415C76.6843 239.116 76.7482 238.783 76.8107 238.413C76.8732 238.044 76.9201 237.668 76.9513 237.284L76.994 236.807H78.2212ZM83.158 238V229.273H84.4748V233.065H88.8256V229.273H90.1467V238H88.8256V234.195H84.4748V238H83.158ZM91.7617 236.295V235.23L95.533 229.273H96.3725V230.841H95.8398L93.1424 235.111V235.179H98.3114V236.295H91.7617ZM95.8995 238V235.972L95.908 235.486V229.273H97.1566V238H95.8995ZM101.143 236.807L101.079 237.271C101.037 237.612 100.964 237.967 100.862 238.337C100.762 238.709 100.659 239.054 100.551 239.372C100.446 239.69 100.359 239.943 100.291 240.131H99.3874C99.4244 239.955 99.4755 239.716 99.5408 239.415C99.6062 239.116 99.6701 238.783 99.7326 238.413C99.7951 238.044 99.842 237.668 99.8732 237.284L99.9158 236.807H101.143ZM106.08 238V229.273H109.276C109.895 229.273 110.408 229.375 110.814 229.58C111.221 229.781 111.525 230.055 111.726 230.402C111.928 230.746 112.029 231.134 112.029 231.565C112.029 231.929 111.962 232.236 111.828 232.486C111.695 232.733 111.516 232.932 111.292 233.082C111.07 233.23 110.826 233.338 110.559 233.406V233.491C110.848 233.506 111.131 233.599 111.407 233.773C111.685 233.943 111.915 234.186 112.097 234.501C112.279 234.817 112.37 235.2 112.37 235.652C112.37 236.098 112.265 236.499 112.054 236.854C111.847 237.206 111.526 237.486 111.091 237.693C110.657 237.898 110.101 238 109.425 238H106.08ZM107.397 236.871H109.297C109.928 236.871 110.38 236.749 110.652 236.504C110.925 236.26 111.061 235.955 111.061 235.588C111.061 235.312 110.992 235.06 110.853 234.83C110.713 234.599 110.515 234.416 110.256 234.28C110 234.143 109.696 234.075 109.344 234.075H107.397V236.871ZM107.397 233.048H109.161C109.456 233.048 109.722 232.991 109.958 232.878C110.196 232.764 110.385 232.605 110.525 232.401C110.667 232.193 110.738 231.949 110.738 231.668C110.738 231.307 110.611 231.004 110.358 230.76C110.105 230.516 109.718 230.393 109.195 230.393H107.397V233.048ZM116.586 238.132C115.973 238.132 115.437 237.991 114.98 237.71C114.522 237.429 114.167 237.036 113.914 236.53C113.662 236.024 113.535 235.433 113.535 234.757C113.535 234.078 113.662 233.484 113.914 232.976C114.167 232.467 114.522 232.072 114.98 231.791C115.437 231.51 115.973 231.369 116.586 231.369C117.2 231.369 117.735 231.51 118.193 231.791C118.65 232.072 119.005 232.467 119.258 232.976C119.511 233.484 119.637 234.078 119.637 234.757C119.637 235.433 119.511 236.024 119.258 236.53C119.005 237.036 118.65 237.429 118.193 237.71C117.735 237.991 117.2 238.132 116.586 238.132ZM116.591 237.062C116.988 237.062 117.318 236.957 117.579 236.747C117.841 236.537 118.034 236.257 118.159 235.908C118.287 235.558 118.35 235.173 118.35 234.753C118.35 234.335 118.287 233.952 118.159 233.602C118.034 233.25 117.841 232.967 117.579 232.754C117.318 232.541 116.988 232.435 116.591 232.435C116.19 232.435 115.858 232.541 115.593 232.754C115.332 232.967 115.137 233.25 115.01 233.602C114.885 233.952 114.822 234.335 114.822 234.753C114.822 235.173 114.885 235.558 115.01 235.908C115.137 236.257 115.332 236.537 115.593 236.747C115.858 236.957 116.19 237.062 116.591 237.062ZM123.51 238.128C122.982 238.128 122.51 237.993 122.095 237.723C121.683 237.45 121.359 237.062 121.124 236.56C120.891 236.054 120.774 235.447 120.774 234.74C120.774 234.033 120.892 233.428 121.128 232.925C121.366 232.422 121.693 232.037 122.108 231.77C122.523 231.503 122.993 231.369 123.518 231.369C123.925 231.369 124.251 231.438 124.499 231.574C124.749 231.707 124.942 231.864 125.078 232.043C125.217 232.222 125.325 232.379 125.402 232.516H125.479V229.273H126.753V238H125.509V236.982H125.402C125.325 237.121 125.214 237.28 125.07 237.459C124.928 237.638 124.732 237.794 124.482 237.928C124.232 238.061 123.908 238.128 123.51 238.128ZM123.791 237.041C124.158 237.041 124.467 236.945 124.72 236.751C124.976 236.555 125.169 236.284 125.3 235.938C125.433 235.591 125.5 235.187 125.5 234.727C125.5 234.273 125.435 233.875 125.304 233.534C125.173 233.193 124.982 232.928 124.729 232.737C124.476 232.547 124.163 232.452 123.791 232.452C123.408 232.452 123.088 232.551 122.832 232.75C122.577 232.949 122.384 233.22 122.253 233.564C122.125 233.908 122.061 234.295 122.061 234.727C122.061 235.165 122.126 235.558 122.257 235.908C122.388 236.257 122.581 236.534 122.837 236.739C123.095 236.94 123.413 237.041 123.791 237.041ZM129.377 240.455C129.186 240.455 129.013 240.439 128.857 240.408C128.701 240.379 128.584 240.348 128.507 240.314L128.814 239.27C129.047 239.332 129.255 239.359 129.436 239.351C129.618 239.342 129.779 239.274 129.918 239.146C130.06 239.018 130.185 238.81 130.293 238.52L130.451 238.085L128.056 231.455H129.419L131.077 236.534H131.145L132.803 231.455H134.171L131.473 238.874C131.348 239.214 131.189 239.503 130.996 239.739C130.803 239.977 130.573 240.156 130.306 240.276C130.039 240.395 129.729 240.455 129.377 240.455ZM136.616 236.807L136.552 237.271C136.509 237.612 136.437 237.967 136.335 238.337C136.235 238.709 136.131 239.054 136.023 239.372C135.918 239.69 135.832 239.943 135.763 240.131H134.86C134.897 239.955 134.948 239.716 135.013 239.415C135.079 239.116 135.143 238.783 135.205 238.413C135.268 238.044 135.315 237.668 135.346 237.284L135.388 236.807H136.616ZM148.597 229.273V238H147.386L142.95 231.599H142.869V238H141.553V229.273H142.771L147.212 235.682H147.293V229.273H148.597ZM152.32 238.145C151.905 238.145 151.53 238.068 151.195 237.915C150.86 237.759 150.594 237.533 150.398 237.237C150.205 236.942 150.108 236.58 150.108 236.151C150.108 235.781 150.179 235.477 150.321 235.239C150.463 235 150.655 234.811 150.897 234.672C151.138 234.533 151.408 234.428 151.706 234.357C152.005 234.286 152.309 234.232 152.618 234.195C153.01 234.149 153.328 234.112 153.573 234.084C153.817 234.053 153.995 234.003 154.105 233.935C154.216 233.866 154.272 233.756 154.272 233.602V233.572C154.272 233.2 154.167 232.912 153.956 232.707C153.749 232.503 153.439 232.401 153.027 232.401C152.598 232.401 152.26 232.496 152.013 232.686C151.769 232.874 151.6 233.082 151.506 233.312L150.309 233.04C150.451 232.642 150.658 232.321 150.931 232.077C151.206 231.83 151.523 231.651 151.881 231.54C152.239 231.426 152.615 231.369 153.01 231.369C153.272 231.369 153.549 231.401 153.841 231.463C154.137 231.523 154.412 231.634 154.668 231.795C154.926 231.957 155.138 232.189 155.303 232.49C155.468 232.788 155.55 233.176 155.55 233.653V238H154.306V237.105H154.255C154.172 237.27 154.049 237.432 153.884 237.591C153.719 237.75 153.507 237.882 153.249 237.987C152.99 238.092 152.681 238.145 152.32 238.145ZM152.597 237.122C152.949 237.122 153.25 237.053 153.5 236.913C153.753 236.774 153.945 236.592 154.076 236.368C154.209 236.141 154.276 235.898 154.276 235.639V234.795C154.23 234.841 154.142 234.884 154.012 234.923C153.884 234.96 153.738 234.993 153.573 235.021C153.408 235.047 153.248 235.071 153.091 235.094C152.935 235.114 152.804 235.131 152.699 235.145C152.452 235.176 152.226 235.229 152.022 235.303C151.82 235.376 151.658 235.483 151.536 235.622C151.417 235.759 151.357 235.94 151.357 236.168C151.357 236.483 151.473 236.722 151.706 236.884C151.939 237.043 152.236 237.122 152.597 237.122ZM162.612 231.455L160.239 238H158.875L156.497 231.455H157.865L159.523 236.491H159.591L161.244 231.455H162.612ZM163.81 238V231.455H165.084V238H163.81ZM164.453 230.445C164.232 230.445 164.041 230.371 163.882 230.223C163.726 230.072 163.648 229.893 163.648 229.686C163.648 229.476 163.726 229.297 163.882 229.149C164.041 228.999 164.232 228.923 164.453 228.923C164.675 228.923 164.864 228.999 165.02 229.149C165.179 229.297 165.259 229.476 165.259 229.686C165.259 229.893 165.179 230.072 165.02 230.223C164.864 230.371 164.675 230.445 164.453 230.445ZM169.542 240.591C169.022 240.591 168.575 240.523 168.2 240.386C167.828 240.25 167.524 240.07 167.288 239.845C167.052 239.621 166.876 239.375 166.76 239.108L167.855 238.656C167.931 238.781 168.034 238.913 168.162 239.053C168.292 239.195 168.468 239.315 168.69 239.415C168.914 239.514 169.203 239.564 169.555 239.564C170.038 239.564 170.437 239.446 170.752 239.21C171.068 238.977 171.225 238.605 171.225 238.094V236.807H171.145C171.068 236.946 170.957 237.101 170.812 237.271C170.67 237.442 170.474 237.589 170.224 237.714C169.974 237.839 169.649 237.902 169.248 237.902C168.731 237.902 168.265 237.781 167.85 237.54C167.439 237.295 167.112 236.936 166.87 236.462C166.632 235.984 166.512 235.398 166.512 234.702C166.512 234.006 166.63 233.409 166.866 232.912C167.105 232.415 167.431 232.034 167.846 231.77C168.261 231.503 168.731 231.369 169.257 231.369C169.663 231.369 169.991 231.438 170.241 231.574C170.491 231.707 170.686 231.864 170.825 232.043C170.967 232.222 171.076 232.379 171.153 232.516H171.247V231.455H172.495V238.145C172.495 238.707 172.365 239.169 172.103 239.53C171.842 239.891 171.488 240.158 171.042 240.331C170.599 240.504 170.099 240.591 169.542 240.591ZM169.529 236.845C169.896 236.845 170.206 236.76 170.458 236.589C170.714 236.416 170.907 236.169 171.038 235.848C171.172 235.524 171.238 235.136 171.238 234.685C171.238 234.244 171.173 233.857 171.042 233.521C170.912 233.186 170.72 232.925 170.467 232.737C170.214 232.547 169.902 232.452 169.529 232.452C169.146 232.452 168.826 232.551 168.571 232.75C168.315 232.946 168.122 233.213 167.991 233.551C167.863 233.889 167.799 234.267 167.799 234.685C167.799 235.114 167.865 235.49 167.995 235.814C168.126 236.138 168.319 236.391 168.575 236.572C168.833 236.754 169.152 236.845 169.529 236.845ZM176.109 238.145C175.694 238.145 175.319 238.068 174.984 237.915C174.649 237.759 174.383 237.533 174.187 237.237C173.994 236.942 173.897 236.58 173.897 236.151C173.897 235.781 173.968 235.477 174.11 235.239C174.252 235 174.444 234.811 174.686 234.672C174.927 234.533 175.197 234.428 175.495 234.357C175.794 234.286 176.098 234.232 176.407 234.195C176.799 234.149 177.118 234.112 177.362 234.084C177.606 234.053 177.784 234.003 177.895 233.935C178.005 233.866 178.061 233.756 178.061 233.602V233.572C178.061 233.2 177.956 232.912 177.745 232.707C177.538 232.503 177.228 232.401 176.816 232.401C176.387 232.401 176.049 232.496 175.802 232.686C175.558 232.874 175.389 233.082 175.295 233.312L174.098 233.04C174.24 232.642 174.447 232.321 174.72 232.077C174.995 231.83 175.312 231.651 175.67 231.54C176.028 231.426 176.404 231.369 176.799 231.369C177.061 231.369 177.338 231.401 177.63 231.463C177.926 231.523 178.201 231.634 178.457 231.795C178.716 231.957 178.927 232.189 179.092 232.49C179.257 232.788 179.339 233.176 179.339 233.653V238H178.095V237.105H178.044C177.961 237.27 177.838 237.432 177.673 237.591C177.508 237.75 177.297 237.882 177.038 237.987C176.779 238.092 176.47 238.145 176.109 238.145ZM176.386 237.122C176.738 237.122 177.039 237.053 177.289 236.913C177.542 236.774 177.734 236.592 177.865 236.368C177.998 236.141 178.065 235.898 178.065 235.639V234.795C178.02 234.841 177.931 234.884 177.801 234.923C177.673 234.96 177.527 234.993 177.362 235.021C177.197 235.047 177.037 235.071 176.88 235.094C176.724 235.114 176.593 235.131 176.488 235.145C176.241 235.176 176.015 235.229 175.811 235.303C175.609 235.376 175.447 235.483 175.325 235.622C175.206 235.759 175.146 235.94 175.146 236.168C175.146 236.483 175.262 236.722 175.495 236.884C175.728 237.043 176.025 237.122 176.386 237.122ZM184.092 231.455V232.477H180.516V231.455H184.092ZM181.475 229.886H182.749V236.078C182.749 236.325 182.786 236.511 182.86 236.636C182.934 236.759 183.029 236.842 183.146 236.888C183.265 236.93 183.394 236.952 183.533 236.952C183.636 236.952 183.725 236.945 183.802 236.93C183.879 236.916 183.938 236.905 183.981 236.896L184.211 237.949C184.137 237.977 184.032 238.006 183.896 238.034C183.759 238.065 183.589 238.082 183.384 238.085C183.049 238.091 182.737 238.031 182.447 237.906C182.157 237.781 181.923 237.588 181.744 237.327C181.565 237.065 181.475 236.737 181.475 236.342V229.886ZM185.501 238V231.455H186.775V238H185.501ZM186.145 230.445C185.923 230.445 185.733 230.371 185.574 230.223C185.417 230.072 185.339 229.893 185.339 229.686C185.339 229.476 185.417 229.297 185.574 229.149C185.733 228.999 185.923 228.923 186.145 228.923C186.366 228.923 186.555 228.999 186.711 229.149C186.87 229.297 186.95 229.476 186.95 229.686C186.95 229.893 186.87 230.072 186.711 230.223C186.555 230.371 186.366 230.445 186.145 230.445ZM191.246 238.132C190.633 238.132 190.097 237.991 189.64 237.71C189.183 237.429 188.827 237.036 188.575 236.53C188.322 236.024 188.195 235.433 188.195 234.757C188.195 234.078 188.322 233.484 188.575 232.976C188.827 232.467 189.183 232.072 189.64 231.791C190.097 231.51 190.633 231.369 191.246 231.369C191.86 231.369 192.396 231.51 192.853 231.791C193.31 232.072 193.665 232.467 193.918 232.976C194.171 233.484 194.298 234.078 194.298 234.757C194.298 235.433 194.171 236.024 193.918 236.53C193.665 237.036 193.31 237.429 192.853 237.71C192.396 237.991 191.86 238.132 191.246 238.132ZM191.251 237.062C191.648 237.062 191.978 236.957 192.239 236.747C192.501 236.537 192.694 236.257 192.819 235.908C192.947 235.558 193.011 235.173 193.011 234.753C193.011 234.335 192.947 233.952 192.819 233.602C192.694 233.25 192.501 232.967 192.239 232.754C191.978 232.541 191.648 232.435 191.251 232.435C190.85 232.435 190.518 232.541 190.254 232.754C189.992 232.967 189.798 233.25 189.67 233.602C189.545 233.952 189.482 234.335 189.482 234.753C189.482 235.173 189.545 235.558 189.67 235.908C189.798 236.257 189.992 236.537 190.254 236.747C190.518 236.957 190.85 237.062 191.251 237.062ZM196.994 234.114V238H195.72V231.455H196.943V232.52H197.024C197.174 232.173 197.41 231.895 197.731 231.685C198.055 231.474 198.463 231.369 198.954 231.369C199.4 231.369 199.791 231.463 200.126 231.651C200.461 231.835 200.721 232.111 200.906 232.477C201.091 232.844 201.183 233.297 201.183 233.837V238H199.909V233.99C199.909 233.516 199.785 233.145 199.538 232.878C199.291 232.608 198.951 232.473 198.52 232.473C198.224 232.473 197.961 232.537 197.731 232.665C197.504 232.793 197.324 232.98 197.19 233.227C197.059 233.472 196.994 233.767 196.994 234.114ZM204.549 236.807L204.485 237.271C204.443 237.612 204.37 237.967 204.268 238.337C204.169 238.709 204.065 239.054 203.957 239.372C203.852 239.69 203.765 239.943 203.697 240.131H202.794C202.831 239.955 202.882 239.716 202.947 239.415C203.012 239.116 203.076 238.783 203.139 238.413C203.201 238.044 203.248 237.668 203.279 237.284L203.322 236.807H204.549ZM209.056 230.406V229.273H215.81V230.406H213.087V238H211.775V230.406H209.056ZM218.214 238.145C217.8 238.145 217.425 238.068 217.089 237.915C216.754 237.759 216.489 237.533 216.293 237.237C216.099 236.942 216.003 236.58 216.003 236.151C216.003 235.781 216.074 235.477 216.216 235.239C216.358 235 216.55 234.811 216.791 234.672C217.033 234.533 217.303 234.428 217.601 234.357C217.899 234.286 218.203 234.232 218.513 234.195C218.905 234.149 219.223 234.112 219.467 234.084C219.712 234.053 219.889 234.003 220 233.935C220.111 233.866 220.166 233.756 220.166 233.602V233.572C220.166 233.2 220.061 232.912 219.851 232.707C219.643 232.503 219.334 232.401 218.922 232.401C218.493 232.401 218.155 232.496 217.908 232.686C217.663 232.874 217.494 233.082 217.401 233.312L216.203 233.04C216.345 232.642 216.553 232.321 216.825 232.077C217.101 231.83 217.418 231.651 217.776 231.54C218.134 231.426 218.51 231.369 218.905 231.369C219.166 231.369 219.443 231.401 219.736 231.463C220.031 231.523 220.307 231.634 220.562 231.795C220.821 231.957 221.033 232.189 221.197 232.49C221.362 232.788 221.445 233.176 221.445 233.653V238H220.2V237.105H220.149C220.067 237.27 219.943 237.432 219.778 237.591C219.614 237.75 219.402 237.882 219.143 237.987C218.885 238.092 218.575 238.145 218.214 238.145ZM218.491 237.122C218.844 237.122 219.145 237.053 219.395 236.913C219.648 236.774 219.839 236.592 219.97 236.368C220.104 236.141 220.17 235.898 220.17 235.639V234.795C220.125 234.841 220.037 234.884 219.906 234.923C219.778 234.96 219.632 234.993 219.467 235.021C219.303 235.047 219.142 235.071 218.986 235.094C218.83 235.114 218.699 235.131 218.594 235.145C218.347 235.176 218.121 235.229 217.916 235.303C217.714 235.376 217.553 235.483 217.43 235.622C217.311 235.759 217.251 235.94 217.251 236.168C217.251 236.483 217.368 236.722 217.601 236.884C217.834 237.043 218.131 237.122 218.491 237.122ZM225.886 240.591C225.366 240.591 224.919 240.523 224.544 240.386C224.172 240.25 223.868 240.07 223.632 239.845C223.396 239.621 223.22 239.375 223.103 239.108L224.199 238.656C224.275 238.781 224.377 238.913 224.505 239.053C224.636 239.195 224.812 239.315 225.034 239.415C225.258 239.514 225.547 239.564 225.899 239.564C226.382 239.564 226.781 239.446 227.096 239.21C227.412 238.977 227.569 238.605 227.569 238.094V236.807H227.488C227.412 236.946 227.301 237.101 227.156 237.271C227.014 237.442 226.818 237.589 226.568 237.714C226.318 237.839 225.993 237.902 225.592 237.902C225.075 237.902 224.609 237.781 224.194 237.54C223.782 237.295 223.456 236.936 223.214 236.462C222.975 235.984 222.856 235.398 222.856 234.702C222.856 234.006 222.974 233.409 223.21 232.912C223.449 232.415 223.775 232.034 224.19 231.77C224.605 231.503 225.075 231.369 225.6 231.369C226.007 231.369 226.335 231.438 226.585 231.574C226.835 231.707 227.029 231.864 227.169 232.043C227.311 232.222 227.42 232.379 227.497 232.516H227.591V231.455H228.839V238.145C228.839 238.707 228.708 239.169 228.447 239.53C228.186 239.891 227.832 240.158 227.386 240.331C226.943 240.504 226.443 240.591 225.886 240.591ZM225.873 236.845C226.24 236.845 226.549 236.76 226.802 236.589C227.058 236.416 227.251 236.169 227.382 235.848C227.515 235.524 227.582 235.136 227.582 234.685C227.582 234.244 227.517 233.857 227.386 233.521C227.255 233.186 227.064 232.925 226.811 232.737C226.558 232.547 226.245 232.452 225.873 232.452C225.49 232.452 225.17 232.551 224.914 232.75C224.659 232.946 224.466 233.213 224.335 233.551C224.207 233.889 224.143 234.267 224.143 234.685C224.143 235.114 224.208 235.49 224.339 235.814C224.47 236.138 224.663 236.391 224.919 236.572C225.177 236.754 225.495 236.845 225.873 236.845ZM235.453 233.053L234.298 233.257C234.25 233.109 234.173 232.969 234.068 232.835C233.966 232.702 233.826 232.592 233.65 232.507C233.474 232.422 233.254 232.379 232.99 232.379C232.629 232.379 232.328 232.46 232.086 232.622C231.845 232.781 231.724 232.987 231.724 233.24C231.724 233.459 231.805 233.635 231.967 233.768C232.129 233.902 232.39 234.011 232.751 234.097L233.791 234.335C234.393 234.474 234.842 234.689 235.137 234.979C235.433 235.268 235.581 235.645 235.581 236.108C235.581 236.5 235.467 236.849 235.24 237.156C235.015 237.46 234.701 237.699 234.298 237.872C233.897 238.045 233.433 238.132 232.904 238.132C232.172 238.132 231.574 237.976 231.11 237.663C230.647 237.348 230.363 236.901 230.258 236.321L231.49 236.134C231.566 236.455 231.724 236.697 231.963 236.862C232.201 237.024 232.512 237.105 232.896 237.105C233.314 237.105 233.647 237.018 233.897 236.845C234.147 236.669 234.272 236.455 234.272 236.202C234.272 235.997 234.196 235.825 234.042 235.686C233.892 235.547 233.66 235.442 233.348 235.371L232.24 235.128C231.629 234.989 231.177 234.767 230.885 234.463C230.595 234.159 230.45 233.774 230.45 233.308C230.45 232.922 230.558 232.584 230.774 232.294C230.99 232.004 231.288 231.778 231.669 231.616C232.049 231.452 232.485 231.369 232.977 231.369C233.684 231.369 234.241 231.523 234.647 231.83C235.054 232.134 235.322 232.541 235.453 233.053ZM238.639 236.807L238.575 237.271C238.533 237.612 238.46 237.967 238.358 238.337C238.259 238.709 238.155 239.054 238.047 239.372C237.942 239.69 237.855 239.943 237.787 240.131H236.884C236.92 239.955 236.972 239.716 237.037 239.415C237.102 239.116 237.166 238.783 237.229 238.413C237.291 238.044 237.338 237.668 237.369 237.284L237.412 236.807H238.639ZM243.146 230.406V229.273H249.9V230.406H247.177V238H245.864V230.406H243.146ZM252.304 238.145C251.89 238.145 251.515 238.068 251.179 237.915C250.844 237.759 250.578 237.533 250.382 237.237C250.189 236.942 250.093 236.58 250.093 236.151C250.093 235.781 250.164 235.477 250.306 235.239C250.448 235 250.64 234.811 250.881 234.672C251.123 234.533 251.392 234.428 251.691 234.357C251.989 234.286 252.293 234.232 252.603 234.195C252.995 234.149 253.313 234.112 253.557 234.084C253.801 234.053 253.979 234.003 254.09 233.935C254.201 233.866 254.256 233.756 254.256 233.602V233.572C254.256 233.2 254.151 232.912 253.941 232.707C253.733 232.503 253.424 232.401 253.012 232.401C252.583 232.401 252.245 232.496 251.998 232.686C251.753 232.874 251.584 233.082 251.49 233.312L250.293 233.04C250.435 232.642 250.642 232.321 250.915 232.077C251.191 231.83 251.507 231.651 251.865 231.54C252.223 231.426 252.6 231.369 252.995 231.369C253.256 231.369 253.533 231.401 253.826 231.463C254.121 231.523 254.397 231.634 254.652 231.795C254.911 231.957 255.123 232.189 255.287 232.49C255.452 232.788 255.534 233.176 255.534 233.653V238H254.29V237.105H254.239C254.157 237.27 254.033 237.432 253.868 237.591C253.703 237.75 253.492 237.882 253.233 237.987C252.975 238.092 252.665 238.145 252.304 238.145ZM252.581 237.122C252.934 237.122 253.235 237.053 253.485 236.913C253.738 236.774 253.929 236.592 254.06 236.368C254.194 236.141 254.26 235.898 254.26 235.639V234.795C254.215 234.841 254.127 234.884 253.996 234.923C253.868 234.96 253.722 234.993 253.557 235.021C253.392 235.047 253.232 235.071 253.076 235.094C252.919 235.114 252.789 235.131 252.684 235.145C252.436 235.176 252.211 235.229 252.006 235.303C251.804 235.376 251.642 235.483 251.52 235.622C251.401 235.759 251.341 235.94 251.341 236.168C251.341 236.483 251.458 236.722 251.691 236.884C251.924 237.043 252.221 237.122 252.581 237.122ZM257.334 238V229.273H258.608V232.516H258.685C258.759 232.379 258.865 232.222 259.004 232.043C259.143 231.864 259.337 231.707 259.584 231.574C259.831 231.438 260.158 231.369 260.564 231.369C261.092 231.369 261.564 231.503 261.979 231.77C262.393 232.037 262.719 232.422 262.955 232.925C263.193 233.428 263.312 234.033 263.312 234.74C263.312 235.447 263.195 236.054 262.959 236.56C262.723 237.062 262.399 237.45 261.987 237.723C261.575 237.993 261.105 238.128 260.577 238.128C260.179 238.128 259.854 238.061 259.601 237.928C259.351 237.794 259.155 237.638 259.013 237.459C258.871 237.28 258.761 237.121 258.685 236.982H258.578V238H257.334ZM258.582 234.727C258.582 235.187 258.649 235.591 258.783 235.938C258.916 236.284 259.109 236.555 259.362 236.751C259.615 236.945 259.925 237.041 260.291 237.041C260.672 237.041 260.99 236.94 261.246 236.739C261.501 236.534 261.695 236.257 261.825 235.908C261.959 235.558 262.026 235.165 262.026 234.727C262.026 234.295 261.96 233.908 261.83 233.564C261.702 233.22 261.509 232.949 261.25 232.75C260.994 232.551 260.675 232.452 260.291 232.452C259.922 232.452 259.609 232.547 259.354 232.737C259.101 232.928 258.909 233.193 258.778 233.534C258.648 233.875 258.582 234.273 258.582 234.727ZM269.648 233.053L268.493 233.257C268.445 233.109 268.368 232.969 268.263 232.835C268.161 232.702 268.022 232.592 267.846 232.507C267.669 232.422 267.449 232.379 267.185 232.379C266.824 232.379 266.523 232.46 266.282 232.622C266.04 232.781 265.919 232.987 265.919 233.24C265.919 233.459 266 233.635 266.162 233.768C266.324 233.902 266.586 234.011 266.946 234.097L267.986 234.335C268.588 234.474 269.037 234.689 269.333 234.979C269.628 235.268 269.776 235.645 269.776 236.108C269.776 236.5 269.662 236.849 269.435 237.156C269.211 237.46 268.897 237.699 268.493 237.872C268.093 238.045 267.628 238.132 267.1 238.132C266.367 238.132 265.769 237.976 265.306 237.663C264.843 237.348 264.559 236.901 264.453 236.321L265.685 236.134C265.762 236.455 265.919 236.697 266.158 236.862C266.397 237.024 266.708 237.105 267.091 237.105C267.509 237.105 267.843 237.018 268.093 236.845C268.343 236.669 268.468 236.455 268.468 236.202C268.468 235.997 268.391 235.825 268.238 235.686C268.087 235.547 267.855 235.442 267.543 235.371L266.435 235.128C265.824 234.989 265.373 234.767 265.08 234.463C264.79 234.159 264.645 233.774 264.645 233.308C264.645 232.922 264.753 232.584 264.969 232.294C265.185 232.004 265.483 231.778 265.864 231.616C266.245 231.452 266.681 231.369 267.172 231.369C267.88 231.369 268.436 231.523 268.843 231.83C269.249 232.134 269.517 232.541 269.648 233.053ZM272.835 236.807L272.771 237.271C272.728 237.612 272.656 237.967 272.553 238.337C272.454 238.709 272.35 239.054 272.242 239.372C272.137 239.69 272.05 239.943 271.982 240.131H271.079C271.116 239.955 271.167 239.716 271.232 239.415C271.298 239.116 271.362 238.783 271.424 238.413C271.487 238.044 271.533 237.668 271.565 237.284L271.607 236.807H272.835ZM16.5284 248.406V247.273H23.2827V248.406H20.5597V256H19.2472V248.406H16.5284ZM25.6871 256.145C25.2724 256.145 24.8974 256.068 24.5621 255.915C24.2269 255.759 23.9613 255.533 23.7653 255.237C23.5721 254.942 23.4755 254.58 23.4755 254.151C23.4755 253.781 23.5465 253.477 23.6886 253.239C23.8306 253 24.0224 252.811 24.2638 252.672C24.5053 252.533 24.7752 252.428 25.0735 252.357C25.3718 252.286 25.6758 252.232 25.9854 252.195C26.3775 252.149 26.6957 252.112 26.94 252.084C27.1843 252.053 27.3619 252.003 27.4727 251.935C27.5835 251.866 27.6388 251.756 27.6388 251.602V251.572C27.6388 251.2 27.5337 250.912 27.3235 250.707C27.1161 250.503 26.8065 250.401 26.3945 250.401C25.9656 250.401 25.6275 250.496 25.3803 250.686C25.136 250.874 24.967 251.082 24.8732 251.312L23.6758 251.04C23.8178 250.642 24.0252 250.321 24.2979 250.077C24.5735 249.83 24.8903 249.651 25.2482 249.54C25.6062 249.426 25.9826 249.369 26.3775 249.369C26.6388 249.369 26.9158 249.401 27.2085 249.463C27.5039 249.523 27.7795 249.634 28.0352 249.795C28.2937 249.957 28.5053 250.189 28.6701 250.49C28.8349 250.788 28.9173 251.176 28.9173 251.653V256H27.6729V255.105H27.6218C27.5394 255.27 27.4158 255.432 27.2511 255.591C27.0863 255.75 26.8746 255.882 26.6161 255.987C26.3576 256.092 26.0479 256.145 25.6871 256.145ZM25.9641 255.122C26.3164 255.122 26.6175 255.053 26.8675 254.913C27.1204 254.774 27.3121 254.592 27.4428 254.368C27.5763 254.141 27.6431 253.898 27.6431 253.639V252.795C27.5977 252.841 27.5096 252.884 27.3789 252.923C27.2511 252.96 27.1048 252.993 26.94 253.021C26.7752 253.047 26.6147 253.071 26.4585 253.094C26.3022 253.114 26.1715 253.131 26.0664 253.145C25.8192 253.176 25.5934 253.229 25.3888 253.303C25.1871 253.376 25.0252 253.483 24.9031 253.622C24.7837 253.759 24.7241 253.94 24.7241 254.168C24.7241 254.483 24.8406 254.722 25.0735 254.884C25.3065 255.043 25.6033 255.122 25.9641 255.122ZM30.7166 256V247.273H31.9908V250.516H32.0675C32.1413 250.379 32.2479 250.222 32.3871 250.043C32.5263 249.864 32.7195 249.707 32.9666 249.574C33.2138 249.438 33.5405 249.369 33.9467 249.369C34.4751 249.369 34.9467 249.503 35.3615 249.77C35.7763 250.037 36.1016 250.422 36.3374 250.925C36.576 251.428 36.6953 252.033 36.6953 252.74C36.6953 253.447 36.5774 254.054 36.3416 254.56C36.1058 255.062 35.782 255.45 35.37 255.723C34.9581 255.993 34.4879 256.128 33.9595 256.128C33.5618 256.128 33.2365 256.061 32.9837 255.928C32.7337 255.794 32.5376 255.638 32.3956 255.459C32.2536 255.28 32.1442 255.121 32.0675 254.982H31.9609V256H30.7166ZM31.9652 252.727C31.9652 253.187 32.032 253.591 32.1655 253.938C32.299 254.284 32.4922 254.555 32.745 254.751C32.9979 254.945 33.3075 255.041 33.674 255.041C34.0547 255.041 34.3729 254.94 34.6286 254.739C34.8842 254.534 35.0774 254.257 35.2081 253.908C35.3416 253.558 35.4084 253.165 35.4084 252.727C35.4084 252.295 35.343 251.908 35.2124 251.564C35.0845 251.22 34.8913 250.949 34.6328 250.75C34.3771 250.551 34.0575 250.452 33.674 250.452C33.3047 250.452 32.9922 250.547 32.7365 250.737C32.4837 250.928 32.2919 251.193 32.1612 251.534C32.0305 251.875 31.9652 252.273 31.9652 252.727ZM39.4002 247.273V256H38.1261V247.273H39.4002ZM43.9354 256.132C43.2905 256.132 42.7351 255.994 42.2692 255.719C41.8061 255.44 41.4482 255.05 41.1953 254.547C40.9453 254.041 40.8203 253.449 40.8203 252.77C40.8203 252.099 40.9453 251.509 41.1953 250.997C41.4482 250.486 41.8004 250.087 42.2521 249.8C42.7067 249.513 43.2379 249.369 43.8459 249.369C44.2152 249.369 44.5732 249.43 44.9197 249.553C45.2663 249.675 45.5774 249.866 45.853 250.128C46.1286 250.389 46.3459 250.729 46.505 251.146C46.6641 251.561 46.7436 252.065 46.7436 252.659V253.111H41.5405V252.156H45.495C45.495 251.821 45.4268 251.524 45.2905 251.266C45.1541 251.004 44.9624 250.798 44.7152 250.648C44.4709 250.497 44.1839 250.422 43.8544 250.422C43.4964 250.422 43.1839 250.51 42.9169 250.686C42.6527 250.859 42.4482 251.087 42.3033 251.368C42.1612 251.646 42.0902 251.949 42.0902 252.276V253.021C42.0902 253.459 42.1669 253.831 42.3203 254.138C42.4766 254.445 42.6939 254.679 42.9723 254.841C43.2507 255 43.576 255.08 43.9482 255.08C44.1896 255.08 44.4098 255.045 44.6087 254.977C44.8075 254.906 44.9794 254.801 45.1243 254.662C45.2692 254.523 45.38 254.351 45.4567 254.146L46.6626 254.364C46.5661 254.719 46.3928 255.03 46.1428 255.297C45.8956 255.561 45.5845 255.767 45.2095 255.915C44.8374 256.06 44.4126 256.132 43.9354 256.132ZM51.4354 256V247.273H52.7521V251.065H57.103V247.273H58.424V256H57.103V252.195H52.7521V256H51.4354ZM63.0604 256.132C62.4155 256.132 61.8601 255.994 61.3942 255.719C60.9311 255.44 60.5732 255.05 60.3203 254.547C60.0703 254.041 59.9453 253.449 59.9453 252.77C59.9453 252.099 60.0703 251.509 60.3203 250.997C60.5732 250.486 60.9254 250.087 61.3771 249.8C61.8317 249.513 62.3629 249.369 62.9709 249.369C63.3402 249.369 63.6982 249.43 64.0447 249.553C64.3913 249.675 64.7024 249.866 64.978 250.128C65.2536 250.389 65.4709 250.729 65.63 251.146C65.7891 251.561 65.8686 252.065 65.8686 252.659V253.111H60.6655V252.156H64.62C64.62 251.821 64.5518 251.524 64.4155 251.266C64.2791 251.004 64.0874 250.798 63.8402 250.648C63.5959 250.497 63.3089 250.422 62.9794 250.422C62.6214 250.422 62.3089 250.51 62.0419 250.686C61.7777 250.859 61.5732 251.087 61.4283 251.368C61.2862 251.646 61.2152 251.949 61.2152 252.276V253.021C61.2152 253.459 61.2919 253.831 61.4453 254.138C61.6016 254.445 61.8189 254.679 62.0973 254.841C62.3757 255 62.701 255.08 63.0732 255.08C63.3146 255.08 63.5348 255.045 63.7337 254.977C63.9325 254.906 64.1044 254.801 64.2493 254.662C64.3942 254.523 64.505 254.351 64.5817 254.146L65.7876 254.364C65.6911 254.719 65.5178 255.03 65.2678 255.297C65.0206 255.561 64.7095 255.767 64.3345 255.915C63.9624 256.06 63.5376 256.132 63.0604 256.132ZM69.1871 256.145C68.7724 256.145 68.3974 256.068 68.0621 255.915C67.7269 255.759 67.4613 255.533 67.2653 255.237C67.0721 254.942 66.9755 254.58 66.9755 254.151C66.9755 253.781 67.0465 253.477 67.1886 253.239C67.3306 253 67.5224 252.811 67.7638 252.672C68.0053 252.533 68.2752 252.428 68.5735 252.357C68.8718 252.286 69.1758 252.232 69.4854 252.195C69.8775 252.149 70.1957 252.112 70.44 252.084C70.6843 252.053 70.8619 252.003 70.9727 251.935C71.0835 251.866 71.1388 251.756 71.1388 251.602V251.572C71.1388 251.2 71.0337 250.912 70.8235 250.707C70.6161 250.503 70.3065 250.401 69.8945 250.401C69.4656 250.401 69.1275 250.496 68.8803 250.686C68.636 250.874 68.467 251.082 68.3732 251.312L67.1758 251.04C67.3178 250.642 67.5252 250.321 67.7979 250.077C68.0735 249.83 68.3903 249.651 68.7482 249.54C69.1062 249.426 69.4826 249.369 69.8775 249.369C70.1388 249.369 70.4158 249.401 70.7085 249.463C71.0039 249.523 71.2795 249.634 71.5352 249.795C71.7937 249.957 72.0053 250.189 72.1701 250.49C72.3349 250.788 72.4173 251.176 72.4173 251.653V256H71.1729V255.105H71.1218C71.0394 255.27 70.9158 255.432 70.7511 255.591C70.5863 255.75 70.3746 255.882 70.1161 255.987C69.8576 256.092 69.5479 256.145 69.1871 256.145ZM69.4641 255.122C69.8164 255.122 70.1175 255.053 70.3675 254.913C70.6204 254.774 70.8121 254.592 70.9428 254.368C71.0763 254.141 71.1431 253.898 71.1431 253.639V252.795C71.0977 252.841 71.0096 252.884 70.8789 252.923C70.7511 252.96 70.6048 252.993 70.44 253.021C70.2752 253.047 70.1147 253.071 69.9585 253.094C69.8022 253.114 69.6715 253.131 69.5664 253.145C69.3192 253.176 69.0934 253.229 68.8888 253.303C68.6871 253.376 68.5252 253.483 68.4031 253.622C68.2837 253.759 68.2241 253.94 68.2241 254.168C68.2241 254.483 68.3406 254.722 68.5735 254.884C68.8065 255.043 69.1033 255.122 69.4641 255.122ZM76.5646 256.128C76.0362 256.128 75.5646 255.993 75.1499 255.723C74.7379 255.45 74.4141 255.062 74.1783 254.56C73.9453 254.054 73.8288 253.447 73.8288 252.74C73.8288 252.033 73.9467 251.428 74.1825 250.925C74.4212 250.422 74.7479 250.037 75.1626 249.77C75.5774 249.503 76.0476 249.369 76.5732 249.369C76.9794 249.369 77.3061 249.438 77.5533 249.574C77.8033 249.707 77.9964 249.864 78.1328 250.043C78.272 250.222 78.38 250.379 78.4567 250.516H78.5334V247.273H79.8075V256H78.5632V254.982H78.4567C78.38 255.121 78.2692 255.28 78.1243 255.459C77.9822 255.638 77.7862 255.794 77.5362 255.928C77.2862 256.061 76.9624 256.128 76.5646 256.128ZM76.8459 255.041C77.2124 255.041 77.522 254.945 77.7749 254.751C78.0305 254.555 78.2237 254.284 78.3544 253.938C78.4879 253.591 78.5547 253.187 78.5547 252.727C78.5547 252.273 78.4893 251.875 78.3587 251.534C78.228 251.193 78.0362 250.928 77.7834 250.737C77.5305 250.547 77.218 250.452 76.8459 250.452C76.4624 250.452 76.1428 250.551 75.8871 250.75C75.6314 250.949 75.4382 251.22 75.3075 251.564C75.1797 251.908 75.1158 252.295 75.1158 252.727C75.1158 253.165 75.1811 253.558 75.3118 253.908C75.4425 254.257 75.6357 254.534 75.8913 254.739C76.1499 254.94 76.468 255.041 76.8459 255.041ZM84.4471 256.132C83.8022 256.132 83.2468 255.994 82.7809 255.719C82.3178 255.44 81.9599 255.05 81.707 254.547C81.457 254.041 81.332 253.449 81.332 252.77C81.332 252.099 81.457 251.509 81.707 250.997C81.9599 250.486 82.3121 250.087 82.7638 249.8C83.2184 249.513 83.7496 249.369 84.3576 249.369C84.7269 249.369 85.0849 249.43 85.4315 249.553C85.7781 249.675 86.0891 249.866 86.3647 250.128C86.6403 250.389 86.8576 250.729 87.0167 251.146C87.1758 251.561 87.2553 252.065 87.2553 252.659V253.111H82.0522V252.156H86.0067C86.0067 251.821 85.9386 251.524 85.8022 251.266C85.6658 251.004 85.4741 250.798 85.2269 250.648C84.9826 250.497 84.6957 250.422 84.3661 250.422C84.0082 250.422 83.6957 250.51 83.4286 250.686C83.1644 250.859 82.9599 251.087 82.815 251.368C82.6729 251.646 82.6019 251.949 82.6019 252.276V253.021C82.6019 253.459 82.6786 253.831 82.832 254.138C82.9883 254.445 83.2056 254.679 83.484 254.841C83.7624 255 84.0877 255.08 84.4599 255.08C84.7013 255.08 84.9215 255.045 85.1204 254.977C85.3192 254.906 85.4911 254.801 85.636 254.662C85.7809 254.523 85.8917 254.351 85.9684 254.146L87.1744 254.364C87.0778 254.719 86.9045 255.03 86.6545 255.297C86.4073 255.561 86.0962 255.767 85.7212 255.915C85.3491 256.06 84.9244 256.132 84.4471 256.132ZM88.669 256V249.455H89.9006V250.494H89.9688C90.0881 250.142 90.2983 249.865 90.5994 249.663C90.9034 249.459 91.2472 249.357 91.6307 249.357C91.7102 249.357 91.804 249.359 91.9119 249.365C92.0227 249.371 92.1094 249.378 92.1719 249.386V250.605C92.1207 250.591 92.0298 250.575 91.8991 250.558C91.7685 250.538 91.6378 250.528 91.5071 250.528C91.206 250.528 90.9375 250.592 90.7017 250.72C90.4688 250.845 90.2841 251.02 90.1477 251.244C90.0114 251.466 89.9432 251.719 89.9432 252.003V256H88.669ZM94.1822 254.807L94.1183 255.271C94.0756 255.612 94.0032 255.967 93.9009 256.337C93.8015 256.709 93.6978 257.054 93.5898 257.372C93.4847 257.69 93.3981 257.943 93.3299 258.131H92.4265C92.4634 257.955 92.5146 257.716 92.5799 257.415C92.6452 257.116 92.7092 256.783 92.7717 256.413C92.8342 256.044 92.881 255.668 92.9123 255.284L92.9549 254.807H94.1822ZM100.436 247.273V256H99.119V247.273H100.436ZM103.525 252.114V256H102.251V249.455H103.474V250.52H103.555C103.706 250.173 103.941 249.895 104.262 249.685C104.586 249.474 104.994 249.369 105.485 249.369C105.931 249.369 106.322 249.463 106.657 249.651C106.993 249.835 107.252 250.111 107.437 250.477C107.622 250.844 107.714 251.297 107.714 251.837V256H106.44V251.99C106.44 251.516 106.316 251.145 106.069 250.878C105.822 250.608 105.483 250.473 105.051 250.473C104.755 250.473 104.493 250.537 104.262 250.665C104.035 250.793 103.855 250.98 103.721 251.227C103.591 251.472 103.525 251.767 103.525 252.114ZM109.423 258.455V249.455H110.667V250.516H110.774C110.848 250.379 110.954 250.222 111.093 250.043C111.233 249.864 111.426 249.707 111.673 249.574C111.92 249.438 112.247 249.369 112.653 249.369C113.181 249.369 113.653 249.503 114.068 249.77C114.483 250.037 114.808 250.422 115.044 250.925C115.282 251.428 115.402 252.033 115.402 252.74C115.402 253.447 115.284 254.054 115.048 254.56C114.812 255.062 114.488 255.45 114.076 255.723C113.664 255.993 113.194 256.128 112.666 256.128C112.268 256.128 111.943 256.061 111.69 255.928C111.44 255.794 111.244 255.638 111.102 255.459C110.96 255.28 110.85 255.121 110.774 254.982H110.697V258.455H109.423ZM110.672 252.727C110.672 253.187 110.738 253.591 110.872 253.938C111.005 254.284 111.199 254.555 111.451 254.751C111.704 254.945 112.014 255.041 112.38 255.041C112.761 255.041 113.079 254.94 113.335 254.739C113.591 254.534 113.784 254.257 113.914 253.908C114.048 253.558 114.115 253.165 114.115 252.727C114.115 252.295 114.049 251.908 113.919 251.564C113.791 251.22 113.598 250.949 113.339 250.75C113.083 250.551 112.764 250.452 112.38 250.452C112.011 250.452 111.699 250.547 111.443 250.737C111.19 250.928 110.998 251.193 110.868 251.534C110.737 251.875 110.672 252.273 110.672 252.727ZM120.975 253.286V249.455H122.254V256H121.001V254.866H120.933C120.782 255.216 120.541 255.507 120.208 255.74C119.879 255.97 119.468 256.085 118.977 256.085C118.556 256.085 118.184 255.993 117.86 255.808C117.539 255.621 117.287 255.344 117.102 254.977C116.92 254.611 116.829 254.158 116.829 253.618V249.455H118.103V253.464C118.103 253.911 118.227 254.266 118.474 254.53C118.721 254.794 119.042 254.926 119.437 254.926C119.676 254.926 119.913 254.866 120.149 254.747C120.387 254.628 120.585 254.447 120.741 254.206C120.9 253.964 120.978 253.658 120.975 253.286ZM127.021 249.455V250.477H123.446V249.455H127.021ZM124.405 247.886H125.679V254.078C125.679 254.325 125.716 254.511 125.79 254.636C125.864 254.759 125.959 254.842 126.075 254.888C126.195 254.93 126.324 254.952 126.463 254.952C126.565 254.952 126.655 254.945 126.732 254.93C126.808 254.916 126.868 254.905 126.911 254.896L127.141 255.949C127.067 255.977 126.962 256.006 126.825 256.034C126.689 256.065 126.518 256.082 126.314 256.085C125.979 256.091 125.666 256.031 125.376 255.906C125.087 255.781 124.852 255.588 124.673 255.327C124.494 255.065 124.405 254.737 124.405 254.342V247.886ZM131.709 256V247.273H137.121V248.406H133.026V251.065H136.733V252.195H133.026V256H131.709ZM138.638 256V249.455H139.912V256H138.638ZM139.281 248.445C139.06 248.445 138.869 248.371 138.71 248.223C138.554 248.072 138.476 247.893 138.476 247.686C138.476 247.476 138.554 247.297 138.71 247.149C138.869 246.999 139.06 246.923 139.281 246.923C139.503 246.923 139.692 246.999 139.848 247.149C140.007 247.297 140.087 247.476 140.087 247.686C140.087 247.893 140.007 248.072 139.848 248.223C139.692 248.371 139.503 248.445 139.281 248.445ZM144.447 256.132C143.802 256.132 143.247 255.994 142.781 255.719C142.318 255.44 141.96 255.05 141.707 254.547C141.457 254.041 141.332 253.449 141.332 252.77C141.332 252.099 141.457 251.509 141.707 250.997C141.96 250.486 142.312 250.087 142.764 249.8C143.218 249.513 143.75 249.369 144.358 249.369C144.727 249.369 145.085 249.43 145.431 249.553C145.778 249.675 146.089 249.866 146.365 250.128C146.64 250.389 146.858 250.729 147.017 251.146C147.176 251.561 147.255 252.065 147.255 252.659V253.111H142.052V252.156H146.007C146.007 251.821 145.939 251.524 145.802 251.266C145.666 251.004 145.474 250.798 145.227 250.648C144.983 250.497 144.696 250.422 144.366 250.422C144.008 250.422 143.696 250.51 143.429 250.686C143.164 250.859 142.96 251.087 142.815 251.368C142.673 251.646 142.602 251.949 142.602 252.276V253.021C142.602 253.459 142.679 253.831 142.832 254.138C142.988 254.445 143.206 254.679 143.484 254.841C143.762 255 144.088 255.08 144.46 255.08C144.701 255.08 144.922 255.045 145.12 254.977C145.319 254.906 145.491 254.801 145.636 254.662C145.781 254.523 145.892 254.351 145.968 254.146L147.174 254.364C147.078 254.719 146.904 255.03 146.654 255.297C146.407 255.561 146.096 255.767 145.721 255.915C145.349 256.06 144.924 256.132 144.447 256.132ZM149.943 247.273V256H148.669V247.273H149.943ZM154.108 256.128C153.579 256.128 153.108 255.993 152.693 255.723C152.281 255.45 151.957 255.062 151.721 254.56C151.488 254.054 151.372 253.447 151.372 252.74C151.372 252.033 151.49 251.428 151.725 250.925C151.964 250.422 152.291 250.037 152.706 249.77C153.12 249.503 153.591 249.369 154.116 249.369C154.522 249.369 154.849 249.438 155.096 249.574C155.346 249.707 155.539 249.864 155.676 250.043C155.815 250.222 155.923 250.379 156 250.516H156.076V247.273H157.35V256H156.106V254.982H156C155.923 255.121 155.812 255.28 155.667 255.459C155.525 255.638 155.329 255.794 155.079 255.928C154.829 256.061 154.505 256.128 154.108 256.128ZM154.389 255.041C154.755 255.041 155.065 254.945 155.318 254.751C155.574 254.555 155.767 254.284 155.897 253.938C156.031 253.591 156.098 253.187 156.098 252.727C156.098 252.273 156.032 251.875 155.902 251.534C155.771 251.193 155.579 250.928 155.326 250.737C155.074 250.547 154.761 250.452 154.389 250.452C154.005 250.452 153.686 250.551 153.43 250.75C153.174 250.949 152.981 251.22 152.85 251.564C152.723 251.908 152.659 252.295 152.659 252.727C152.659 253.165 152.724 253.558 152.855 253.908C152.985 254.257 153.179 254.534 153.434 254.739C153.693 254.94 154.011 255.041 154.389 255.041ZM164.074 251.053L162.919 251.257C162.871 251.109 162.794 250.969 162.689 250.835C162.587 250.702 162.447 250.592 162.271 250.507C162.095 250.422 161.875 250.379 161.611 250.379C161.25 250.379 160.949 250.46 160.707 250.622C160.466 250.781 160.345 250.987 160.345 251.24C160.345 251.459 160.426 251.635 160.588 251.768C160.75 251.902 161.011 252.011 161.372 252.097L162.412 252.335C163.014 252.474 163.463 252.689 163.759 252.979C164.054 253.268 164.202 253.645 164.202 254.108C164.202 254.5 164.088 254.849 163.861 255.156C163.636 255.46 163.322 255.699 162.919 255.872C162.518 256.045 162.054 256.132 161.526 256.132C160.793 256.132 160.195 255.976 159.732 255.663C159.268 255.348 158.984 254.901 158.879 254.321L160.111 254.134C160.188 254.455 160.345 254.697 160.584 254.862C160.822 255.024 161.134 255.105 161.517 255.105C161.935 255.105 162.268 255.018 162.518 254.845C162.768 254.669 162.893 254.455 162.893 254.202C162.893 253.997 162.817 253.825 162.663 253.686C162.513 253.547 162.281 253.442 161.969 253.371L160.861 253.128C160.25 252.989 159.798 252.767 159.506 252.463C159.216 252.159 159.071 251.774 159.071 251.308C159.071 250.922 159.179 250.584 159.395 250.294C159.611 250.004 159.909 249.778 160.29 249.616C160.67 249.452 161.107 249.369 161.598 249.369C162.305 249.369 162.862 249.523 163.268 249.83C163.675 250.134 163.943 250.541 164.074 251.053ZM168.881 256V247.273H170.197V251.065H174.548V247.273H175.869V256H174.548V252.195H170.197V256H168.881ZM180.506 256.132C179.861 256.132 179.305 255.994 178.839 255.719C178.376 255.44 178.018 255.05 177.766 254.547C177.516 254.041 177.391 253.449 177.391 252.77C177.391 252.099 177.516 251.509 177.766 250.997C178.018 250.486 178.371 250.087 178.822 249.8C179.277 249.513 179.808 249.369 180.416 249.369C180.786 249.369 181.143 249.43 181.49 249.553C181.837 249.675 182.148 249.866 182.423 250.128C182.699 250.389 182.916 250.729 183.075 251.146C183.234 251.561 183.314 252.065 183.314 252.659V253.111H178.111V252.156H182.065C182.065 251.821 181.997 251.524 181.861 251.266C181.724 251.004 181.533 250.798 181.286 250.648C181.041 250.497 180.754 250.422 180.425 250.422C180.067 250.422 179.754 250.51 179.487 250.686C179.223 250.859 179.018 251.087 178.874 251.368C178.732 251.646 178.661 251.949 178.661 252.276V253.021C178.661 253.459 178.737 253.831 178.891 254.138C179.047 254.445 179.264 254.679 179.543 254.841C179.821 255 180.146 255.08 180.518 255.08C180.76 255.08 180.98 255.045 181.179 254.977C181.378 254.906 181.55 254.801 181.695 254.662C181.839 254.523 181.95 254.351 182.027 254.146L183.233 254.364C183.136 254.719 182.963 255.03 182.713 255.297C182.466 255.561 182.155 255.767 181.78 255.915C181.408 256.06 180.983 256.132 180.506 256.132ZM186.632 256.145C186.218 256.145 185.843 256.068 185.507 255.915C185.172 255.759 184.907 255.533 184.711 255.237C184.517 254.942 184.421 254.58 184.421 254.151C184.421 253.781 184.492 253.477 184.634 253.239C184.776 253 184.968 252.811 185.209 252.672C185.451 252.533 185.721 252.428 186.019 252.357C186.317 252.286 186.621 252.232 186.931 252.195C187.323 252.149 187.641 252.112 187.885 252.084C188.13 252.053 188.307 252.003 188.418 251.935C188.529 251.866 188.584 251.756 188.584 251.602V251.572C188.584 251.2 188.479 250.912 188.269 250.707C188.061 250.503 187.752 250.401 187.34 250.401C186.911 250.401 186.573 250.496 186.326 250.686C186.081 250.874 185.912 251.082 185.819 251.312L184.621 251.04C184.763 250.642 184.971 250.321 185.243 250.077C185.519 249.83 185.836 249.651 186.194 249.54C186.551 249.426 186.928 249.369 187.323 249.369C187.584 249.369 187.861 249.401 188.154 249.463C188.449 249.523 188.725 249.634 188.98 249.795C189.239 249.957 189.451 250.189 189.615 250.49C189.78 250.788 189.863 251.176 189.863 251.653V256H188.618V255.105H188.567C188.485 255.27 188.361 255.432 188.196 255.591C188.032 255.75 187.82 255.882 187.561 255.987C187.303 256.092 186.993 256.145 186.632 256.145ZM186.909 255.122C187.262 255.122 187.563 255.053 187.813 254.913C188.066 254.774 188.257 254.592 188.388 254.368C188.522 254.141 188.588 253.898 188.588 253.639V252.795C188.543 252.841 188.455 252.884 188.324 252.923C188.196 252.96 188.05 252.993 187.885 253.021C187.721 253.047 187.56 253.071 187.404 253.094C187.248 253.114 187.117 253.131 187.012 253.145C186.765 253.176 186.539 253.229 186.334 253.303C186.132 253.376 185.971 253.483 185.848 253.622C185.729 253.759 185.669 253.94 185.669 254.168C185.669 254.483 185.786 254.722 186.019 254.884C186.252 255.043 186.549 255.122 186.909 255.122ZM194.01 256.128C193.482 256.128 193.01 255.993 192.595 255.723C192.183 255.45 191.859 255.062 191.624 254.56C191.391 254.054 191.274 253.447 191.274 252.74C191.274 252.033 191.392 251.428 191.628 250.925C191.866 250.422 192.193 250.037 192.608 249.77C193.023 249.503 193.493 249.369 194.018 249.369C194.425 249.369 194.751 249.438 194.999 249.574C195.249 249.707 195.442 249.864 195.578 250.043C195.717 250.222 195.825 250.379 195.902 250.516H195.979V247.273H197.253V256H196.009V254.982H195.902C195.825 255.121 195.714 255.28 195.57 255.459C195.428 255.638 195.232 255.794 194.982 255.928C194.732 256.061 194.408 256.128 194.01 256.128ZM194.291 255.041C194.658 255.041 194.967 254.945 195.22 254.751C195.476 254.555 195.669 254.284 195.8 253.938C195.933 253.591 196 253.187 196 252.727C196 252.273 195.935 251.875 195.804 251.534C195.673 251.193 195.482 250.928 195.229 250.737C194.976 250.547 194.663 250.452 194.291 250.452C193.908 250.452 193.588 250.551 193.332 250.75C193.077 250.949 192.884 251.22 192.753 251.564C192.625 251.908 192.561 252.295 192.561 252.727C192.561 253.165 192.626 253.558 192.757 253.908C192.888 254.257 193.081 254.534 193.337 254.739C193.595 254.94 193.913 255.041 194.291 255.041ZM201.892 256.132C201.248 256.132 200.692 255.994 200.226 255.719C199.763 255.44 199.405 255.05 199.152 254.547C198.902 254.041 198.777 253.449 198.777 252.77C198.777 252.099 198.902 251.509 199.152 250.997C199.405 250.486 199.757 250.087 200.209 249.8C200.664 249.513 201.195 249.369 201.803 249.369C202.172 249.369 202.53 249.43 202.877 249.553C203.223 249.675 203.534 249.866 203.81 250.128C204.086 250.389 204.303 250.729 204.462 251.146C204.621 251.561 204.701 252.065 204.701 252.659V253.111H199.498V252.156H203.452C203.452 251.821 203.384 251.524 203.248 251.266C203.111 251.004 202.919 250.798 202.672 250.648C202.428 250.497 202.141 250.422 201.811 250.422C201.453 250.422 201.141 250.51 200.874 250.686C200.61 250.859 200.405 251.087 200.26 251.368C200.118 251.646 200.047 251.949 200.047 252.276V253.021C200.047 253.459 200.124 253.831 200.277 254.138C200.434 254.445 200.651 254.679 200.929 254.841C201.208 255 201.533 255.08 201.905 255.08C202.147 255.08 202.367 255.045 202.566 254.977C202.765 254.906 202.936 254.801 203.081 254.662C203.226 254.523 203.337 254.351 203.414 254.146L204.62 254.364C204.523 254.719 204.35 255.03 204.1 255.297C203.853 255.561 203.542 255.767 203.167 255.915C202.794 256.06 202.37 256.132 201.892 256.132ZM206.114 256V249.455H207.346V250.494H207.414C207.533 250.142 207.744 249.865 208.045 249.663C208.349 249.459 208.692 249.357 209.076 249.357C209.156 249.357 209.249 249.359 209.357 249.365C209.468 249.371 209.555 249.378 209.617 249.386V250.605C209.566 250.591 209.475 250.575 209.344 250.558C209.214 250.538 209.083 250.528 208.952 250.528C208.651 250.528 208.383 250.592 208.147 250.72C207.914 250.845 207.729 251.02 207.593 251.244C207.457 251.466 207.388 251.719 207.388 252.003V256H206.114Z" fill="#272A40" fill-opacity="0.6"/>
<path d="M21.7188 207.565C21.6733 207.162 21.4858 206.849 21.1562 206.628C20.8267 206.403 20.4119 206.291 19.9119 206.291C19.554 206.291 19.2443 206.348 18.983 206.462C18.7216 206.572 18.5185 206.726 18.3736 206.922C18.2315 207.115 18.1605 207.335 18.1605 207.582C18.1605 207.79 18.2088 207.969 18.3054 208.119C18.4048 208.27 18.5341 208.396 18.6932 208.499C18.8551 208.598 19.0284 208.682 19.2131 208.75C19.3977 208.815 19.5753 208.869 19.7457 208.912L20.598 209.134C20.8764 209.202 21.1619 209.294 21.4545 209.411C21.7472 209.527 22.0185 209.68 22.2685 209.871C22.5185 210.061 22.7202 210.297 22.8736 210.578C23.0298 210.859 23.108 211.196 23.108 211.588C23.108 212.082 22.9801 212.521 22.7244 212.905C22.4716 213.288 22.1037 213.591 21.6207 213.812C21.1406 214.034 20.5597 214.145 19.8778 214.145C19.2244 214.145 18.6591 214.041 18.1818 213.834C17.7045 213.626 17.331 213.332 17.0611 212.952C16.7912 212.568 16.642 212.114 16.6136 211.588H17.9347C17.9602 211.903 18.0625 212.166 18.2415 212.376C18.4233 212.584 18.6548 212.739 18.9361 212.841C19.2202 212.94 19.5312 212.99 19.8693 212.99C20.2415 212.99 20.5724 212.932 20.8622 212.815C21.1548 212.696 21.3849 212.531 21.5526 212.321C21.7202 212.108 21.804 211.859 21.804 211.575C21.804 211.317 21.7301 211.105 21.5824 210.94C21.4375 210.776 21.2401 210.639 20.9901 210.531C20.7429 210.423 20.4631 210.328 20.1506 210.246L19.1193 209.964C18.4205 209.774 17.8665 209.494 17.4574 209.125C17.0511 208.756 16.848 208.267 16.848 207.659C16.848 207.156 16.9844 206.717 17.2571 206.342C17.5298 205.967 17.8991 205.676 18.3651 205.469C18.831 205.259 19.3565 205.153 19.9418 205.153C20.5327 205.153 21.054 205.257 21.5057 205.464C21.9602 205.672 22.3182 205.957 22.5795 206.321C22.8409 206.682 22.9773 207.097 22.9886 207.565H21.7188ZM27.6346 207.455V208.477H24.0593V207.455H27.6346ZM25.0181 205.886H26.2923V212.078C26.2923 212.325 26.3292 212.511 26.4031 212.636C26.4769 212.759 26.5721 212.842 26.6886 212.888C26.8079 212.93 26.9371 212.952 27.0763 212.952C27.1786 212.952 27.2681 212.945 27.3448 212.93C27.4215 212.916 27.4812 212.905 27.5238 212.896L27.7539 213.949C27.68 213.977 27.5749 214.006 27.4386 214.034C27.3022 214.065 27.1317 214.082 26.9272 214.085C26.592 214.091 26.2795 214.031 25.9897 213.906C25.6999 213.781 25.4656 213.588 25.2866 213.327C25.1076 213.065 25.0181 212.737 25.0181 212.342V205.886ZM29.8494 216.455C29.6591 216.455 29.4858 216.439 29.3295 216.408C29.1733 216.379 29.0568 216.348 28.9801 216.314L29.2869 215.27C29.5199 215.332 29.7273 215.359 29.9091 215.351C30.0909 215.342 30.2514 215.274 30.3906 215.146C30.5327 215.018 30.6577 214.81 30.7656 214.52L30.9233 214.085L28.5284 207.455H29.892L31.5497 212.534H31.6179L33.2756 207.455H34.6435L31.946 214.874C31.821 215.214 31.6619 215.503 31.4688 215.739C31.2756 215.977 31.0455 216.156 30.7784 216.276C30.5114 216.395 30.2017 216.455 29.8494 216.455ZM37.1151 205.273V214H35.8409V205.273H37.1151ZM41.6502 214.132C41.0053 214.132 40.4499 213.994 39.984 213.719C39.521 213.44 39.163 213.05 38.9102 212.547C38.6602 212.041 38.5352 211.449 38.5352 210.77C38.5352 210.099 38.6602 209.509 38.9102 208.997C39.163 208.486 39.5153 208.087 39.967 207.8C40.4215 207.513 40.9528 207.369 41.5607 207.369C41.93 207.369 42.288 207.43 42.6346 207.553C42.9812 207.675 43.2923 207.866 43.5678 208.128C43.8434 208.389 44.0607 208.729 44.2198 209.146C44.3789 209.561 44.4585 210.065 44.4585 210.659V211.111H39.2553V210.156H43.2099C43.2099 209.821 43.1417 209.524 43.0053 209.266C42.869 209.004 42.6772 208.798 42.43 208.648C42.1857 208.497 41.8988 208.422 41.5692 208.422C41.2113 208.422 40.8988 208.51 40.6317 208.686C40.3675 208.859 40.163 209.087 40.0181 209.368C39.8761 209.646 39.805 209.949 39.805 210.276V211.021C39.805 211.459 39.8817 211.831 40.0352 212.138C40.1914 212.445 40.4087 212.679 40.6871 212.841C40.9656 213 41.2908 213.08 41.663 213.08C41.9045 213.08 42.1246 213.045 42.3235 212.977C42.5224 212.906 42.6942 212.801 42.8391 212.662C42.984 212.523 43.0948 212.351 43.1715 212.146L44.3775 212.364C44.2809 212.719 44.1076 213.03 43.8576 213.297C43.6104 213.561 43.2994 213.767 42.9244 213.915C42.5522 214.06 42.1275 214.132 41.6502 214.132ZM50.777 209.053L49.6222 209.257C49.5739 209.109 49.4972 208.969 49.392 208.835C49.2898 208.702 49.1506 208.592 48.9744 208.507C48.7983 208.422 48.5781 208.379 48.3139 208.379C47.9531 208.379 47.652 208.46 47.4105 208.622C47.169 208.781 47.0483 208.987 47.0483 209.24C47.0483 209.459 47.1293 209.635 47.2912 209.768C47.4531 209.902 47.7145 210.011 48.0753 210.097L49.1151 210.335C49.7173 210.474 50.1662 210.689 50.4616 210.979C50.7571 211.268 50.9048 211.645 50.9048 212.108C50.9048 212.5 50.7912 212.849 50.5639 213.156C50.3395 213.46 50.0256 213.699 49.6222 213.872C49.2216 214.045 48.7571 214.132 48.2287 214.132C47.4957 214.132 46.8977 213.976 46.4347 213.663C45.9716 213.348 45.6875 212.901 45.5824 212.321L46.8139 212.134C46.8906 212.455 47.0483 212.697 47.2869 212.862C47.5256 213.024 47.8366 213.105 48.2202 213.105C48.6378 213.105 48.9716 213.018 49.2216 212.845C49.4716 212.669 49.5966 212.455 49.5966 212.202C49.5966 211.997 49.5199 211.825 49.3665 211.686C49.2159 211.547 48.9844 211.442 48.6719 211.371L47.5639 211.128C46.9531 210.989 46.5014 210.767 46.2088 210.463C45.919 210.159 45.7741 209.774 45.7741 209.308C45.7741 208.922 45.8821 208.584 46.098 208.294C46.3139 208.004 46.6122 207.778 46.9929 207.616C47.3736 207.452 47.8097 207.369 48.3011 207.369C49.0085 207.369 49.5653 207.523 49.9716 207.83C50.3778 208.134 50.6463 208.541 50.777 209.053Z" fill="#272A40"/>
</svg>
