<svg width="558" height="558" viewBox="0 0 558 558" fill="none" xmlns="http://www.w3.org/2000/svg">

<rect width="558" height="558" fill="white"/>

<g filter="url(#filter0_d)">

<g clipPath="url(#clip0)">

<path d="M128.65 283.945C111.496 311.768 60.4951 386.286 94.5723 422.138C128.65 457.99 176.607 445.255 197.403 457.99C218.2 470.725 217.324 474.693 245.545 474.047C273.766 473.401 336.571 431.966 354.601 403.497C372.631 375.028 413.441 297.326 426.814 285.376C440.186 273.425 508.387 211.227 491.279 155.673C475.324 103.764 441.524 74.0491 346.624 85.3998C251.724 96.7505 188.55 166.378 153.827 227.284C121.41 284.084 128.65 283.945 128.65 283.945Z" fill="#F3F7FF"/>

<path d="M181.914 113.505H409.756C414.875 113.505 419.025 117.657 419.025 122.779V416.652C419.025 421.774 414.875 425.926 409.756 425.926H181.914C176.796 425.926 172.645 421.774 172.645 416.652V122.779C172.645 117.657 176.796 113.505 181.914 113.505Z" fill="white"/>

<path d="M409.752 426.153H181.91C176.653 426.153 172.41 421.908 172.41 416.647V122.774C172.41 117.514 176.653 113.269 181.91 113.269H409.752C415.009 113.269 419.251 117.514 419.251 122.774V416.647C419.251 421.908 415.009 426.153 409.752 426.153ZM181.91 113.731C176.93 113.731 172.872 117.791 172.872 122.774V416.647C172.872 421.631 176.93 425.691 181.91 425.691H409.752C414.732 425.691 418.79 421.631 418.79 416.647V122.774C418.79 117.791 414.732 113.731 409.752 113.731H181.91Z" fill="#3B3375"/>

<path d="M397.536 130.946H194.779V405.624H397.536V130.946Z" fill="white"/>

<path d="M397.763 405.85H194.544V130.711H397.763V405.85ZM195.006 405.389H397.302V131.172H195.006V405.389Z" fill="#3B3375"/>

<path d="M265.789 111.793L257.442 133.757H259.886C260.762 133.757 261.454 134.449 261.454 135.325C261.454 135.741 261.27 136.11 260.993 136.433C260.716 136.71 260.301 136.894 259.886 136.894H256.29L255.46 139.017C254.768 140.862 252.969 142.062 251.033 142.108H228.714C226.593 142.108 224.702 140.678 224.149 138.601L223.504 136.894H219.722C218.846 136.894 218.154 136.202 218.154 135.325C218.154 134.91 218.339 134.495 218.616 134.218C218.892 133.941 219.307 133.757 219.722 133.757H222.305L213.682 111.424C212.99 108.887 214.465 106.257 217.002 105.564C217.417 105.426 217.832 105.38 218.293 105.38H261.362C263.99 105.38 266.112 107.502 266.112 110.132C266.112 110.64 266.019 111.24 265.789 111.793Z" fill="#9792B7"/>

<path d="M392.414 111.793L384.067 133.757H386.511C387.387 133.757 388.079 134.449 388.079 135.325C388.079 135.741 387.895 136.11 387.618 136.433C387.341 136.71 386.926 136.894 386.511 136.894H382.868L382.038 139.017C381.347 140.862 379.548 142.062 377.612 142.108H355.293C353.172 142.108 351.281 140.678 350.728 138.601L350.082 136.894H346.301C345.425 136.894 344.733 136.202 344.733 135.325C344.733 134.91 344.918 134.495 345.194 134.218C345.471 133.941 345.886 133.757 346.301 133.757H348.883L340.26 111.424C339.569 108.887 341.044 106.257 343.58 105.564C343.995 105.426 344.41 105.38 344.872 105.38H388.033C390.661 105.38 392.783 107.502 392.783 110.132C392.736 110.64 392.644 111.24 392.414 111.793Z" fill="#9792B7"/>

<path d="M380.24 163.009H212.067V173.714H380.24V163.009Z" fill="#3E337A"/>

<path d="M331.038 190.325H211.745V201.03H331.038V190.325Z" fill="#3E337A"/>

<path d="M380.102 219.901H211.929V230.606H380.102V219.901Z" fill="#ECECFB"/>

<path d="M330.854 247.171H211.56V257.876H330.854V247.171Z" fill="#ECECFB"/>

<path d="M380.148 273.656H292.211V284.361H380.148V273.656Z" fill="#F3F7FF"/>

<path d="M380.148 300.141H292.211V310.846H380.148V300.141Z" fill="#F3F7FF"/>

<path d="M263.621 340.561H211.56V351.266H263.621V340.561Z" fill="#3E337A"/>

<path d="M307.428 359.617C306.875 359.617 306.322 359.432 305.861 359.063C305.492 358.74 305.353 358.325 305.399 357.818C305.63 356.387 307.797 354.126 311.855 351.081C313.331 349.974 314.806 349.005 315.959 348.22C316.743 345.959 317.711 343.237 318.495 340.884C316.098 342.914 313.331 344.898 310.841 346.513C305.077 350.25 299.174 353.296 297.791 353.619H297.699C295.946 354.08 292.672 354.864 290.228 353.25C288.707 352.234 287.738 350.481 287.369 347.943C286.908 344.898 289.076 340.653 291.012 337.608C293.272 334.055 296.5 330.087 299.681 326.995C301.203 325.519 304.892 322.15 306.598 322.473C307.336 322.612 307.797 323.027 308.028 323.719C308.996 326.441 305.722 332.671 303.693 335.024C303.601 335.116 303.463 335.116 303.37 335.07C303.278 334.978 303.278 334.839 303.324 334.747C305.584 332.117 308.351 326.211 307.567 323.904C307.382 323.396 307.013 323.073 306.46 322.981C305.445 322.796 302.909 324.457 299.958 327.364C294.425 332.763 287 342.683 287.83 347.897C288.199 350.296 289.122 352.004 290.505 352.927C292.765 354.449 295.9 353.619 297.606 353.203H297.699C299.912 352.65 311.855 346.236 318.772 340.053C319.464 338.023 319.971 336.362 320.109 335.762C320.386 334.562 322.876 331.056 323.937 330.779C324.213 330.686 324.398 330.825 324.444 330.917C324.674 331.148 324.813 331.794 323.891 334.378C323.199 336.27 321.4 338.346 319.187 340.33C318.403 342.683 317.435 345.498 316.605 347.851C317.573 347.205 318.311 346.836 318.495 346.744C318.726 346.651 319.049 346.374 319.371 346.144C320.017 345.636 320.524 345.221 320.893 345.452C321.216 345.682 321.17 346.236 320.801 347.482C320.57 348.174 320.709 348.312 320.755 348.312C321.124 348.589 323.153 347.205 324.213 346.421C325.551 345.498 326.242 344.99 326.611 345.036C326.796 345.036 326.888 345.175 326.934 345.221C327.118 345.498 326.934 345.959 326.703 346.697C326.196 348.036 325.873 349.235 326.75 349.743C327.533 350.25 329.977 347.205 331.776 344.99C334.081 342.129 335.465 340.515 336.249 340.884C337.079 341.299 336.894 342.176 336.664 343.145C336.433 344.206 336.157 345.498 336.94 346.836L337.033 346.974C337.079 347.067 337.171 347.159 337.217 347.251C337.448 346.467 338.185 344.852 342.474 345.083C346.809 345.267 352.48 344.483 356.215 343.698C359.489 342.36 360.135 342.222 360.366 342.499C360.458 342.591 360.458 342.729 360.412 342.822C360.227 343.191 358.567 343.698 356.215 344.206C355.293 344.575 354.233 345.036 353.172 345.452C349.391 347.02 344.733 348.958 340.722 350.343C341.044 350.343 341.367 350.343 341.69 350.343C350.866 350.297 360.135 350.389 360.227 350.389C360.366 350.389 360.458 350.481 360.458 350.619C360.458 350.758 360.366 350.85 360.227 350.85C353.91 350.804 346.117 350.804 339.338 350.85C337.217 351.542 335.326 352.004 333.943 352.096C332.836 352.188 323.337 352.834 322.553 351.588C322.461 351.45 322.461 351.265 322.553 351.127C322.692 350.896 322.922 350.481 339.246 350.389C343.488 349.005 348.745 346.836 352.988 345.036C353.357 344.898 353.679 344.76 354.002 344.621C350.313 345.221 345.794 345.682 342.428 345.544C338.093 345.359 337.724 347.067 337.586 347.62C337.54 347.805 337.494 347.989 337.309 347.989C337.079 348.036 337.033 347.897 336.618 347.205L336.525 347.067C335.649 345.636 335.926 344.16 336.156 343.052C336.341 342.083 336.433 341.53 335.972 341.299C335.465 341.068 333.436 343.606 332.099 345.267C329.378 348.635 327.533 350.804 326.473 350.112C325.228 349.328 325.873 347.62 326.242 346.513C326.381 346.098 326.565 345.59 326.519 345.452C326.288 345.452 325.228 346.236 324.444 346.744C322.415 348.174 321.032 349.051 320.432 348.635C320.063 348.359 320.202 347.713 320.34 347.297C320.755 346.005 320.617 345.775 320.617 345.775C320.478 345.775 319.925 346.19 319.648 346.467C319.279 346.744 318.91 347.02 318.634 347.159C318.403 347.251 317.527 347.759 316.328 348.543C315.682 350.389 315.129 351.865 314.852 352.511C313.976 354.541 310.795 358.833 308.074 359.525C307.936 359.617 307.659 359.617 307.428 359.617ZM315.775 348.958C312.086 351.404 306.229 355.695 305.907 357.91C305.86 358.233 305.953 358.51 306.183 358.694C306.737 359.109 307.336 359.248 308.074 359.063C310.702 358.417 313.792 354.034 314.53 352.327C314.76 351.773 315.221 350.527 315.775 348.958ZM322.968 351.358C323.291 351.773 326.888 352.142 333.897 351.635C334.911 351.542 336.203 351.265 337.678 350.85C329.931 350.896 323.798 351.081 322.968 351.358ZM324.213 331.194C324.213 331.194 324.121 331.194 323.983 331.286C322.968 331.886 320.893 334.839 320.663 335.854C320.524 336.362 320.109 337.7 319.556 339.407C321.493 337.562 322.968 335.762 323.568 334.147C324.49 331.517 324.213 331.24 324.213 331.194Z" fill="#F09956"/>

<path d="M373.049 142.065H350.731C348.61 142.065 346.719 140.634 346.166 138.604L335.698 111.381C335.007 108.843 336.482 106.213 338.972 105.521C339.387 105.382 339.802 105.336 340.263 105.336H383.425C386.053 105.336 388.174 107.459 388.174 110.089C388.174 110.689 388.082 111.242 387.852 111.796L377.522 139.019C376.785 140.865 374.986 142.065 373.049 142.065Z" fill="white"/>

<path d="M373.047 142.292H350.728C348.515 142.292 346.532 140.769 345.932 138.647L335.465 111.424C335.096 110.132 335.28 108.793 335.926 107.594C336.572 106.44 337.632 105.61 338.923 105.241C339.338 105.102 339.799 105.056 340.261 105.056H383.422C384.759 105.056 386.004 105.564 386.926 106.533C387.849 107.455 388.402 108.747 388.402 110.039C388.402 110.639 388.31 111.239 388.079 111.839L377.75 139.062C376.966 141 375.076 142.292 373.047 142.292ZM340.214 105.564C339.799 105.564 339.384 105.61 339.016 105.748C337.863 106.071 336.894 106.856 336.295 107.871C335.695 108.932 335.557 110.132 335.88 111.331L346.347 138.555C346.901 140.539 348.699 141.877 350.728 141.877H373.047C374.891 141.877 376.597 140.723 377.289 138.97L387.618 111.746C387.803 111.239 387.941 110.685 387.941 110.132C387.941 108.932 387.48 107.778 386.604 106.948C385.727 106.071 384.621 105.61 383.422 105.61H340.214C340.214 105.564 340.214 105.564 340.214 105.564Z" fill="#3B3375"/>

<path d="M341.693 133.712H381.949C382.825 133.712 383.517 134.404 383.517 135.281C383.517 136.158 382.825 136.85 381.949 136.85H341.693C340.816 136.85 340.125 136.158 340.125 135.281C340.125 134.404 340.816 133.712 341.693 133.712Z" fill="white"/>

<path d="M381.946 137.078H341.69C340.721 137.078 339.891 136.294 339.891 135.279C339.891 134.31 340.675 133.479 341.69 133.479H381.946C382.914 133.479 383.744 134.263 383.744 135.279C383.744 136.248 382.914 137.078 381.946 137.078ZM341.69 133.94C340.952 133.94 340.353 134.54 340.353 135.279C340.353 136.017 340.952 136.617 341.69 136.617H381.946C382.684 136.617 383.283 136.017 383.283 135.279C383.283 134.54 382.684 133.94 381.946 133.94H341.69Z" fill="#3B3375"/>

<path d="M246.378 142.065H224.059C221.938 142.065 220.047 140.634 219.494 138.604L209.026 111.381C208.335 108.843 209.81 106.213 212.3 105.521C212.715 105.382 213.13 105.336 213.591 105.336H256.753C259.381 105.336 261.502 107.459 261.502 110.089C261.502 110.689 261.41 111.242 261.18 111.796L250.85 139.019C250.159 140.865 248.36 142.065 246.378 142.065Z" fill="white"/>

<path d="M246.421 142.292C246.421 142.292 246.375 142.292 246.421 142.292H224.103C221.889 142.292 219.906 140.769 219.307 138.647L208.839 111.424C208.471 110.132 208.655 108.793 209.301 107.594C209.946 106.394 211.007 105.61 212.298 105.241C212.713 105.102 213.174 105.056 213.635 105.056H256.75C258.088 105.056 259.333 105.564 260.255 106.533C261.177 107.455 261.731 108.747 261.731 110.039C261.731 110.639 261.638 111.239 261.408 111.839L251.079 139.062C250.341 141 248.45 142.292 246.421 142.292ZM213.589 105.564C213.174 105.564 212.759 105.61 212.39 105.748C211.237 106.071 210.269 106.856 209.669 107.871C209.07 108.932 208.932 110.132 209.254 111.331L219.722 138.555C220.275 140.539 222.074 141.877 224.103 141.877H246.421C248.266 141.877 249.972 140.723 250.664 138.97L260.993 111.746C261.177 111.239 261.316 110.685 261.316 110.132C261.316 108.932 260.854 107.778 259.978 106.948C259.102 106.071 257.995 105.61 256.797 105.61H213.589C213.589 105.564 213.589 105.564 213.589 105.564Z" fill="#3B3375"/>

<path d="M215.067 133.712H255.324C256.2 133.712 256.891 134.404 256.891 135.281C256.891 136.158 256.2 136.85 255.324 136.85H215.067C214.191 136.85 213.499 136.158 213.499 135.281C213.499 134.404 214.191 133.712 215.067 133.712Z" fill="white"/>

<path d="M255.321 137.078H215.064C214.096 137.078 213.266 136.294 213.266 135.279C213.266 134.31 214.05 133.479 215.064 133.479H255.321C256.289 133.479 257.119 134.263 257.119 135.279C257.073 136.248 256.289 137.078 255.321 137.078ZM215.018 133.94C214.281 133.94 213.681 134.54 213.681 135.279C213.681 136.017 214.281 136.617 215.018 136.617H255.275C256.012 136.617 256.612 136.017 256.612 135.279C256.612 134.54 256.012 133.94 255.275 133.94H215.018Z" fill="#3B3375"/>

<path d="M243.059 231.717L208.013 227.611L205.892 227.38L178.363 224.15L169.878 223.181L83.0019 213.076C85.077 212.107 86.322 205.601 84.2008 202.787L211.103 217.367L214.884 217.783L216.636 217.967L217.789 218.106C218.158 218.521 218.388 219.029 218.435 219.628C218.573 221.428 218.527 223.643 218.942 224.104C219.357 224.565 222.492 225.581 225.167 225.304C226.919 225.119 227.288 221.566 226.735 219.121L244.811 221.197C246.24 221.52 245.641 231.21 243.059 231.717Z" fill="#E39961"/>

<path d="M243.055 231.944C243.055 231.944 243.008 231.944 243.055 231.944L205.888 227.607L169.828 223.408L82.9977 213.257C82.9055 213.257 82.8133 213.165 82.8133 213.072C82.8133 212.98 82.8594 212.888 82.9516 212.842C83.6894 212.472 84.3811 211.273 84.7961 209.658C85.3495 207.489 85.3033 204.536 84.0583 202.921C84.0122 202.829 84.0122 202.737 84.0583 202.691C84.1044 202.598 84.1966 202.552 84.2889 202.598L211.191 217.225L217.877 218.009C217.923 218.009 217.969 218.056 218.015 218.102C218.43 218.563 218.707 219.117 218.707 219.763C218.753 220.224 218.753 220.732 218.799 221.239C218.845 222.439 218.938 223.823 219.168 224.1C219.491 224.469 222.488 225.484 225.163 225.207C225.486 225.161 225.808 224.977 226.039 224.608C226.869 223.454 226.915 221.009 226.5 219.301C226.5 219.209 226.5 219.163 226.546 219.071C226.592 219.025 226.685 218.978 226.731 218.978L244.807 221.055C245.683 221.239 245.821 223.223 245.821 224.423C245.775 227.284 244.945 231.575 243.055 231.944ZM83.6433 212.888L178.359 223.915L208.009 227.376L243.008 231.436C244.392 231.114 245.314 227.514 245.314 224.331C245.314 222.301 244.945 221.47 244.715 221.424L226.961 219.394C227.33 221.147 227.238 223.5 226.362 224.746C226.039 225.207 225.624 225.484 225.163 225.53C222.534 225.807 219.26 224.838 218.753 224.238C218.43 223.869 218.338 222.808 218.292 221.101C218.292 220.593 218.246 220.086 218.2 219.624C218.2 219.117 218.015 218.702 217.693 218.332L211.052 217.594L84.6578 203.06C85.7184 204.859 85.7184 207.674 85.2111 209.796C84.8422 211.18 84.2889 212.288 83.6433 212.888Z" fill="#3B3375"/>

<path d="M70.7341 207.307L64.2322 204.261L71.103 203.754C71.4258 204.769 71.6102 206.107 70.7341 207.307Z" fill="#3E337A"/>

<path d="M70.7321 207.536C70.686 207.536 70.6859 207.536 70.6398 207.536L64.138 204.49C64.0457 204.444 63.9996 204.352 63.9996 204.259C63.9996 204.167 64.0918 204.075 64.2302 204.075L71.101 203.567C71.1932 203.567 71.2854 203.614 71.3315 203.706C71.8388 205.182 71.7004 206.474 70.9626 207.489C70.8704 207.489 70.8243 207.536 70.7321 207.536ZM65.1063 204.398L70.6398 206.982C71.1932 206.151 71.2393 205.182 70.9165 203.983L65.1063 204.398Z" fill="#3B3375"/>

<path d="M83.0004 213.075L70.7344 207.307C71.6105 206.107 71.4261 204.769 71.1033 203.754L84.2454 202.785C86.3666 205.6 85.1215 212.06 83.0004 213.075Z" fill="white"/>

<path d="M82.9977 213.303C82.9516 213.303 82.9516 213.303 82.9055 213.303L70.6395 207.535C70.5934 207.489 70.5473 207.443 70.5012 207.397C70.5012 207.351 70.5012 207.259 70.5473 207.212C71.1929 206.336 71.3312 205.228 70.8701 203.844C70.8701 203.798 70.8701 203.706 70.9162 203.66C70.9623 203.613 71.0084 203.567 71.1006 203.567L84.2427 202.598C84.335 202.598 84.3811 202.644 84.4272 202.691C85.7645 204.444 85.8106 207.535 85.2572 209.842C84.7961 211.642 84.0583 212.934 83.1821 213.349C83.0899 213.257 83.0438 213.303 82.9977 213.303ZM71.0545 207.212L82.9977 212.795C83.6894 212.38 84.3811 211.227 84.75 209.658C85.2572 207.535 85.2572 204.675 84.1044 203.014L71.3773 203.936C71.7462 205.182 71.654 206.29 71.0545 207.212Z" fill="#3B3375"/>

<path d="M218.432 234.297C218.34 234.297 218.247 234.251 218.201 234.113C218.155 233.974 218.247 233.882 218.34 233.836C219.539 233.467 221.337 229.591 221.429 229.176C221.429 229.037 221.567 228.991 221.706 228.991C221.844 228.991 221.936 229.13 221.89 229.268C221.798 229.73 220 233.836 218.524 234.297C218.478 234.297 218.432 234.297 218.432 234.297Z" fill="#3B3375"/>

<path d="M214.881 218.01L211.053 217.594C210.961 217.594 210.915 217.548 210.869 217.502C210.823 217.456 210.823 217.364 210.869 217.317C211.053 216.856 212.114 214.457 213.313 214.503C213.958 214.549 214.558 215.057 214.881 215.933C215.111 216.533 215.203 217.225 215.111 217.871C215.111 217.917 215.065 218.01 215.019 218.01C215.019 218.01 214.927 218.01 214.881 218.01ZM211.422 217.179L214.65 217.548C214.65 217.041 214.604 216.533 214.42 216.072C214.143 215.426 213.728 214.964 213.267 214.964C212.713 214.918 211.93 216.026 211.422 217.179Z" fill="#3B3375"/>

<path d="M224.15 225.623C221.752 225.623 219.216 224.839 218.754 224.285C218.432 223.87 218.339 222.855 218.293 221.147C218.293 220.64 218.247 220.132 218.201 219.671C218.201 219.163 217.971 218.656 217.648 218.287C217.417 218.056 217.141 217.964 216.956 218.01C216.91 218.01 216.864 218.056 216.818 218.102C216.772 218.194 216.679 218.24 216.587 218.24L214.835 218.056C214.697 218.056 214.604 217.917 214.65 217.825C214.697 217.225 214.65 216.625 214.42 216.072C214.374 216.026 214.42 215.933 214.42 215.887C214.466 215.841 214.512 215.795 214.604 215.795C214.927 215.749 222.351 214.78 225.671 216.995C226.317 217.41 226.686 218.379 226.87 219.117C227.285 220.87 227.285 223.454 226.363 224.792C226.04 225.254 225.625 225.531 225.118 225.577C224.841 225.577 224.472 225.623 224.15 225.623ZM217.048 217.548C217.371 217.548 217.694 217.687 217.971 217.964C218.386 218.425 218.662 219.025 218.662 219.625C218.708 220.086 218.708 220.594 218.754 221.101C218.801 222.301 218.893 223.685 219.123 223.962C219.446 224.331 222.49 225.346 225.118 225.069C225.487 225.023 225.764 224.839 225.994 224.469C226.824 223.316 226.87 220.87 226.455 219.163C226.225 218.24 225.856 217.548 225.441 217.271C222.582 215.38 216.357 215.933 214.973 216.072C215.112 216.533 215.158 217.041 215.158 217.502L216.541 217.641C216.633 217.548 216.772 217.456 216.91 217.456C216.91 217.548 217.002 217.548 217.048 217.548Z" fill="#3B3375"/>

<path d="M170.203 215.755V215.801C169.788 217.186 168.866 218.385 167.621 219.124C167.252 219.308 166.929 219.493 166.514 219.585C162.825 220.739 157.891 218.293 155.309 216.171C154.709 215.663 154.11 215.109 153.556 214.556L153.003 214.048C152.311 214.648 151.435 214.879 150.559 214.694H150.513H150.375C150.282 214.648 150.19 214.648 150.098 214.602C149.96 214.556 149.821 214.509 149.683 214.417C149.406 214.279 149.176 214.094 148.991 213.91C148.853 213.771 148.761 213.679 148.668 213.541L148.53 213.31C148.392 213.079 148.3 212.848 148.253 212.618C148.115 212.249 148.069 211.833 148.115 211.464C148.161 210.818 148.346 210.218 148.761 209.665C148.807 209.619 148.853 209.572 148.899 209.48L149.037 209.342C149.13 209.249 149.268 209.157 149.36 209.065C149.545 208.973 149.729 208.88 149.914 208.788C149.96 208.742 150.052 208.742 150.098 208.742C151.159 208.373 152.311 208.557 152.496 208.327C152.588 208.234 152.588 208.004 152.496 207.773C152.404 207.404 152.173 206.942 151.989 206.435C151.896 206.158 151.804 205.881 151.758 205.604L151.712 205.374C151.666 204.866 151.758 204.405 151.896 203.897C152.081 203.297 152.357 202.743 152.726 202.236C152.957 201.913 153.234 201.59 153.556 201.267C153.971 200.852 154.479 200.436 154.986 200.113L155.447 199.837L155.724 199.698L156.231 199.421C157.614 198.683 159.274 197.945 160.658 197.299C160.934 197.16 161.165 197.068 161.396 196.976L162.226 196.607L162.41 196.514L162.825 196.33L162.917 196.284C163.102 196.191 163.24 196.099 163.425 196.007C163.609 195.915 163.747 195.822 163.886 195.73C165.407 198.083 166.837 200.483 168.128 203.02C169.604 206.158 171.54 212.249 170.203 215.755Z" fill="white"/>

<path d="M164.479 220.132C161.02 220.132 157.193 218.055 155.164 216.394C154.565 215.887 153.965 215.333 153.412 214.779L153.043 214.41C152.351 214.918 151.429 215.149 150.553 215.01H150.415H150.368C150.276 214.964 150.184 214.964 150.046 214.918C149.907 214.872 149.723 214.779 149.585 214.733C149.308 214.595 149.031 214.41 148.847 214.18C148.708 214.041 148.616 213.903 148.524 213.764L148.386 213.534C148.247 213.303 148.155 213.072 148.063 212.795C147.925 212.38 147.878 211.965 147.925 211.55C147.971 210.857 148.201 210.211 148.57 209.658C148.616 209.565 148.662 209.519 148.755 209.473L148.893 209.335C149.031 209.242 149.123 209.15 149.262 209.058C149.446 208.92 149.631 208.827 149.861 208.735C149.907 208.689 150 208.689 150.092 208.643C150.691 208.458 151.337 208.412 151.798 208.366C152.029 208.366 152.305 208.32 152.397 208.274C152.397 208.274 152.397 208.181 152.351 207.951C152.305 207.766 152.213 207.581 152.121 207.397C152.029 207.166 151.89 206.889 151.798 206.612C151.706 206.336 151.614 206.013 151.567 205.736L151.521 205.505C151.475 204.951 151.567 204.444 151.706 203.936C151.89 203.336 152.213 202.737 152.582 202.229C152.812 201.86 153.089 201.537 153.412 201.214C153.873 200.753 154.38 200.383 154.888 200.014L155.625 199.599L156.179 199.322C157.654 198.538 159.407 197.753 160.605 197.2L160.882 197.061C161.067 196.969 161.205 196.923 161.389 196.831L162.911 196.138C163.096 196.046 163.234 195.954 163.372 195.862C163.511 195.769 163.695 195.677 163.833 195.585C163.879 195.539 163.926 195.539 164.018 195.539C164.064 195.539 164.156 195.585 164.156 195.631C165.678 197.984 167.107 200.43 168.398 202.921C169.828 206.013 171.857 212.196 170.52 215.841V215.887C170.105 217.363 169.136 218.609 167.799 219.347C167.43 219.532 167.061 219.717 166.646 219.809C165.908 220.04 165.217 220.132 164.479 220.132ZM153.043 213.81C153.089 213.81 153.181 213.81 153.181 213.857L153.735 214.364C154.288 214.918 154.841 215.472 155.487 215.979C157.885 217.963 162.819 220.501 166.508 219.347C166.877 219.255 167.246 219.071 167.568 218.886C168.767 218.194 169.644 217.04 170.059 215.702C170.059 215.656 170.059 215.656 170.059 215.61C171.396 212.103 169.367 206.059 167.983 203.013C166.738 200.614 165.401 198.215 163.879 195.954C163.787 196 163.695 196.092 163.603 196.138C163.418 196.231 163.28 196.323 163.096 196.415L161.574 197.107C161.435 197.2 161.251 197.246 161.067 197.338L160.79 197.477C159.591 198.03 157.839 198.815 156.409 199.553L155.625 199.968L155.164 200.245C154.657 200.568 154.196 200.937 153.781 201.352C153.504 201.629 153.227 201.952 152.997 202.275C152.628 202.783 152.397 203.29 152.167 203.844C152.029 204.305 151.936 204.767 151.982 205.228L152.029 205.459C152.075 205.736 152.167 206.013 152.259 206.243C152.351 206.52 152.444 206.797 152.536 207.028C152.628 207.258 152.72 207.443 152.766 207.628C152.859 207.858 152.905 208.181 152.72 208.412C152.582 208.55 152.305 208.597 151.844 208.597C151.383 208.643 150.783 208.643 150.23 208.873C150.184 208.873 150.092 208.92 150.046 208.92C149.861 209.012 149.677 209.058 149.538 209.196C149.446 209.289 149.354 209.335 149.216 209.427L149.077 209.565C149.031 209.612 148.985 209.658 148.939 209.704C148.57 210.165 148.386 210.765 148.386 211.365C148.34 211.734 148.386 212.103 148.524 212.472C148.616 212.703 148.708 212.888 148.801 213.118L148.939 213.303C149.031 213.441 149.123 213.534 149.216 213.672C149.4 213.857 149.631 214.041 149.861 214.133C150 214.226 150.092 214.272 150.23 214.318C150.322 214.364 150.368 214.364 150.461 214.41H150.599C151.429 214.549 152.259 214.318 152.905 213.81C152.905 213.81 152.951 213.81 153.043 213.81Z" fill="#3B3375"/>

<path d="M170.244 216.027C170.197 216.027 170.197 216.027 170.244 216.027C170.105 216.027 170.013 215.934 170.013 215.795V215.749C170.013 215.61 170.105 215.518 170.244 215.518C170.382 215.518 170.475 215.61 170.475 215.703C170.475 215.749 170.475 215.749 170.475 215.795C170.429 215.934 170.336 216.027 170.244 216.027Z" fill="#3B3375"/>

<path d="M163.926 195.631C163.603 195.862 163.28 196.047 162.957 196.231C162.081 196.693 157.378 198.631 155.026 200.061C152.674 201.538 151.567 203.845 151.752 205.275C151.936 206.705 152.859 207.905 152.536 208.274C152.213 208.643 148.478 207.767 148.155 211.412C148.063 212.888 149.031 214.272 150.461 214.642C150.876 214.78 151.291 214.826 151.66 214.78C151.66 214.826 151.66 214.872 151.614 214.965C151.475 215.38 151.106 215.703 150.691 215.749C149.031 216.257 147.187 216.072 145.665 215.195C143.452 213.949 143.313 211.319 143.313 211.319C143.313 211.319 140.547 209.012 141.054 205.69C141.561 202.368 144.697 200.015 146.403 199.23C146.403 199.23 146.311 193.278 149.216 190.787C150.507 189.587 152.398 189.264 154.058 189.956C156.594 187.188 160.467 185.988 164.11 186.865C167.661 187.741 167.845 192.863 163.926 195.631Z" fill="#3B3375"/>

<path d="M148.801 216.256C147.648 216.256 146.541 215.979 145.527 215.379C143.452 214.226 143.129 211.919 143.037 211.411C142.576 210.996 140.27 208.781 140.777 205.597C141.284 202.368 144.189 199.922 146.126 199.045C146.126 198.076 146.265 192.955 149.031 190.602C150.369 189.356 152.259 188.987 153.965 189.679C156.548 186.91 160.467 185.757 164.156 186.633C165.632 187.003 166.692 188.11 166.969 189.679C167.384 191.894 166.231 194.293 164.018 195.862C163.695 196.092 163.372 196.277 163.05 196.462C162.773 196.6 162.22 196.831 161.528 197.154C159.776 197.938 156.824 199.23 155.118 200.291C152.859 201.675 151.798 203.936 151.936 205.274C151.983 205.92 152.259 206.566 152.49 207.074C152.766 207.72 152.951 208.181 152.674 208.458C152.536 208.597 152.259 208.643 151.798 208.643C150.599 208.735 148.57 208.873 148.34 211.411C148.247 212.795 149.17 214.041 150.461 214.41C150.83 214.503 151.199 214.549 151.614 214.549H151.89V214.826C151.89 214.918 151.89 214.964 151.844 215.056C151.66 215.564 151.245 215.933 150.737 216.025C150.092 216.164 149.446 216.256 148.801 216.256ZM152.259 189.817C151.199 189.817 150.184 190.232 149.354 190.971C146.541 193.37 146.587 199.184 146.587 199.23V199.368L146.449 199.415C144.605 200.245 141.746 202.598 141.238 205.69C140.731 208.873 143.359 211.088 143.406 211.134L143.498 211.181V211.273C143.498 211.319 143.682 213.811 145.757 214.964C147.233 215.795 148.985 215.979 150.599 215.472C150.922 215.425 151.152 215.241 151.291 214.964C150.968 214.964 150.645 214.918 150.322 214.826C148.801 214.41 147.74 212.934 147.832 211.365C148.109 208.412 150.553 208.227 151.706 208.181C151.936 208.181 152.213 208.135 152.305 208.089C152.351 208.043 152.167 207.489 152.029 207.212C151.798 206.705 151.521 206.013 151.475 205.321C151.337 203.798 152.444 201.399 154.888 199.876C156.594 198.815 159.453 197.523 161.343 196.692C162.035 196.369 162.588 196.139 162.865 196C163.188 195.816 163.511 195.631 163.787 195.446C165.816 194.016 166.923 191.755 166.508 189.725C166.231 188.341 165.355 187.372 164.064 187.049C160.467 186.218 156.732 187.372 154.242 190.094L154.15 190.232L154.011 190.186C153.412 189.956 152.813 189.817 152.259 189.817Z" fill="#3B3375"/>

<path d="M166.232 210.027C166.186 210.027 166.093 209.981 166.047 209.935C165.955 209.843 166.001 209.704 166.093 209.612C166.416 209.381 167.246 208.643 167.431 208.228C167.569 207.951 166.739 207.305 165.955 206.751C165.724 206.567 165.494 206.382 165.263 206.197C165.171 206.105 165.125 205.967 165.217 205.874C165.309 205.782 165.448 205.736 165.54 205.828C165.771 206.013 166.001 206.197 166.232 206.382C167.338 207.259 168.122 207.812 167.846 208.412C167.615 209.012 166.508 209.889 166.416 209.981C166.324 210.027 166.278 210.027 166.232 210.027Z" fill="#3B3375"/>

<path d="M151.66 212.98C151.614 212.98 151.614 212.98 151.66 212.98C151.521 212.98 151.429 212.841 151.429 212.703C151.475 212.518 151.568 212.288 151.752 212.103C151.245 212.149 150.691 212.103 150.184 212.011C150.046 211.965 150 211.873 150 211.734C150.046 211.596 150.138 211.55 150.276 211.55C151.014 211.734 151.752 211.688 152.49 211.503C152.582 211.457 152.72 211.503 152.813 211.596C152.859 211.688 152.813 211.873 152.674 211.919C152.029 212.334 151.89 212.611 151.89 212.749C151.844 212.888 151.752 212.98 151.66 212.98Z" fill="#3B3375"/>

<path d="M161.528 209.242C161.897 209.981 161.251 211.042 160.052 211.642C158.853 212.242 157.608 212.103 157.239 211.411C156.871 210.719 157.516 209.611 158.715 209.012C159.914 208.412 161.159 208.504 161.528 209.242Z" fill="#F4F0F9"/>

<path d="M168.814 205.598C168.998 205.967 168.675 206.475 168.122 206.751C167.568 207.028 166.969 206.982 166.785 206.613C166.6 206.244 166.923 205.736 167.476 205.459C168.03 205.183 168.629 205.229 168.814 205.598Z" fill="#F4F0F9"/>

<path d="M305.86 200.2C305.768 200.2 305.676 200.108 305.63 200.015C305.63 199.877 305.676 199.784 305.814 199.738C306.275 199.645 306.783 199.599 307.336 199.507C307.474 199.507 307.566 199.599 307.566 199.692C307.566 199.83 307.474 199.923 307.382 199.923C306.829 200.062 306.321 200.154 305.86 200.2Z" fill="#3B3375"/>

<path d="M161.355 206.561C161.717 206.281 161.759 205.727 161.446 205.325C161.134 204.922 160.587 204.823 160.224 205.103C159.862 205.383 159.82 205.937 160.132 206.34C160.445 206.743 160.992 206.842 161.355 206.561Z" fill="#3B3375"/>

<path d="M160.887 206.939C160.841 206.939 160.748 206.939 160.702 206.939C160.425 206.892 160.149 206.754 159.964 206.477C159.78 206.2 159.688 205.97 159.734 205.647C159.78 205.37 159.918 205.093 160.103 204.908C160.333 204.724 160.61 204.678 160.887 204.724C161.163 204.77 161.44 204.908 161.624 205.185C161.809 205.462 161.901 205.693 161.855 206.016C161.809 206.293 161.671 206.569 161.486 206.754C161.302 206.846 161.117 206.939 160.887 206.939ZM160.748 205.185C160.61 205.185 160.518 205.231 160.425 205.278C160.287 205.37 160.241 205.508 160.195 205.693C160.195 205.877 160.241 206.062 160.333 206.2C160.425 206.339 160.61 206.431 160.748 206.477C160.933 206.523 161.071 206.477 161.209 206.385C161.348 206.293 161.394 206.154 161.44 205.97C161.44 205.785 161.394 205.601 161.302 205.462C161.209 205.324 161.025 205.231 160.887 205.185C160.794 205.185 160.748 205.185 160.748 205.185Z" fill="#3B3375"/>

<path d="M158.945 207.166C158.945 207.166 158.899 207.166 158.945 207.166C158.761 207.12 158.715 207.028 158.715 206.889C159.13 204.582 160.79 204.721 160.79 204.721C160.928 204.721 161.02 204.859 160.974 204.998C160.974 205.136 160.836 205.228 160.698 205.182C160.652 205.182 159.453 205.09 159.084 206.982C159.13 207.074 159.038 207.166 158.945 207.166Z" fill="#3B3375"/>

<path d="M155.948 203.982C155.902 203.982 155.902 203.982 155.856 203.982C155.717 203.936 155.671 203.798 155.717 203.706C156.086 202.598 157.377 201.998 157.931 201.814C158.069 201.768 158.161 201.814 158.208 201.952C158.254 202.091 158.208 202.183 158.069 202.229C157.7 202.368 156.455 202.921 156.132 203.844C156.132 203.89 156.04 203.982 155.948 203.982Z" fill="#3B3375"/>

<path d="M162.542 199.739C162.45 199.739 162.358 199.693 162.312 199.6C162.265 199.461 162.312 199.369 162.45 199.323C163.095 199.091 163.741 198.999 164.433 199.138C164.571 199.138 164.663 199.276 164.617 199.415C164.617 199.554 164.479 199.646 164.341 199.6C163.741 199.508 163.188 199.554 162.634 199.785C162.588 199.739 162.542 199.739 162.542 199.739Z" fill="#3B3375"/>

<path d="M166.182 203.774C166.527 203.557 166.597 203.049 166.34 202.639C166.082 202.229 165.594 202.073 165.249 202.29C164.904 202.507 164.833 203.016 165.091 203.425C165.348 203.835 165.837 203.992 166.182 203.774Z" fill="#3B3375"/>

<path d="M165.864 204.122C165.772 204.122 165.679 204.122 165.541 204.076C165.264 203.984 165.08 203.799 164.896 203.568C164.711 203.338 164.665 203.061 164.711 202.784C164.757 202.507 164.896 202.276 165.126 202.138C165.357 202 165.633 201.953 165.91 202.046C166.187 202.138 166.371 202.323 166.556 202.553C166.74 202.784 166.786 203.061 166.74 203.338C166.694 203.614 166.556 203.845 166.325 203.984C166.187 204.076 166.048 204.122 165.864 204.122ZM165.633 202.415C165.541 202.415 165.495 202.415 165.403 202.461C165.311 202.507 165.218 202.646 165.218 202.784C165.218 202.922 165.218 203.107 165.311 203.292C165.403 203.43 165.541 203.568 165.679 203.614C165.818 203.661 165.956 203.661 166.048 203.568C166.141 203.522 166.233 203.384 166.233 203.245C166.233 203.107 166.233 202.922 166.141 202.738C166.048 202.599 165.91 202.461 165.772 202.415C165.726 202.415 165.679 202.415 165.633 202.415Z" fill="#3B3375"/>

<path d="M164.479 203.244C164.433 203.244 164.433 203.244 164.387 203.244C164.249 203.198 164.202 203.06 164.249 202.967C164.479 202.368 165.079 201.952 165.724 201.998C165.863 201.998 165.955 202.137 165.955 202.229C165.955 202.368 165.863 202.46 165.724 202.46C165.263 202.414 164.848 202.691 164.71 203.152C164.664 203.198 164.571 203.244 164.479 203.244Z" fill="#3B3375"/>

<path d="M163.511 215.426C162.312 215.426 161.159 215.103 160.144 214.457C160.052 214.41 160.006 214.226 160.052 214.134C160.098 214.041 160.283 213.995 160.375 214.041C161.436 214.687 162.635 215.01 163.833 214.918C163.972 214.918 164.064 215.01 164.064 215.149C164.064 215.287 163.972 215.379 163.833 215.379C163.741 215.426 163.603 215.426 163.511 215.426Z" fill="#3B3375"/>

<path d="M162.773 216.996C162.266 216.996 161.805 216.903 161.39 216.672C161.297 216.626 161.205 216.487 161.297 216.348C161.343 216.256 161.482 216.163 161.62 216.256C162.081 216.487 162.635 216.58 163.188 216.533C163.326 216.533 163.418 216.626 163.465 216.718C163.465 216.857 163.372 216.95 163.28 216.996C163.05 216.95 162.911 216.996 162.773 216.996Z" fill="#3B3375"/>

<path d="M221.061 235.73C202.477 266.783 195.653 284.916 180.758 275.872C180.666 275.826 180.62 275.965 180.62 276.057L184.77 307.064C184.77 307.202 184.724 307.295 184.678 307.387C184.678 307.433 184.632 307.433 184.632 307.433L184.355 307.618C176.746 312.324 156.226 313.431 155.904 313.431C154.105 313.524 152.353 313.524 150.554 313.431C150.278 312.647 149.955 311.724 149.586 310.709L149.402 310.248C145.943 300.419 139.303 282.286 139.165 281.917C141.424 277.349 143.453 272.689 145.159 267.89C149.217 256.632 140.548 235.96 140.225 235.914H140.133C140.317 235.776 140.502 235.683 140.686 235.499C143.499 233.561 149.171 229.962 152.215 228.255L152.261 228.301L152.307 228.347L152.537 228.578L152.63 228.67L152.722 228.762L152.86 228.901C152.952 228.993 153.091 229.131 153.229 229.224C154.981 230.792 159.27 233.838 164.065 231.715C164.342 231.577 164.619 231.485 164.895 231.3C165.264 231.115 165.587 230.885 165.91 230.608C166.002 230.516 166.094 230.469 166.187 230.377C166.233 230.331 166.325 230.285 166.371 230.193C166.463 230.1 166.509 230.054 166.602 229.962C167.432 229.131 168.077 228.07 168.446 226.963C168.815 225.948 168.999 224.886 168.999 223.825C168.999 223.733 168.999 223.687 168.999 223.594C168.999 223.502 168.953 223.364 168.953 223.318C168.953 223.271 168.953 223.271 168.953 223.225C171.121 222.995 173.334 222.995 175.501 223.179C176.101 223.225 176.47 223.318 176.654 223.364H176.7H176.746C177.807 223.687 178.729 224.333 179.375 225.302L179.513 225.44C179.79 225.717 179.974 226.132 179.974 226.547C183.156 233.838 186.753 246.757 188.505 253.217C188.782 254.232 205.751 227.516 206.351 226.594L221.061 235.73ZM206.397 226.594C206.996 227.101 220.553 235.36 221.107 235.683L206.397 226.594Z" fill="#ECECFB"/>

<path d="M153.228 313.753C152.352 313.753 151.429 313.706 150.553 313.66C150.461 313.66 150.369 313.614 150.369 313.522L150.23 313.153C150 312.461 149.723 311.676 149.4 310.799L149.216 310.338C147.233 304.709 143.913 295.527 139.394 283.069C139.163 282.423 139.025 282.054 138.979 281.961C138.979 281.915 138.979 281.823 138.979 281.777C141.239 277.255 143.267 272.548 144.974 267.796C148.801 257.091 140.962 237.527 140.132 236.097C140.04 236.097 139.993 236.005 139.947 235.959C139.901 235.866 139.947 235.774 140.04 235.682C140.224 235.543 140.409 235.405 140.593 235.266C143.267 233.421 149.032 229.776 152.121 228.022C152.213 227.976 152.306 227.976 152.398 228.068L152.444 228.115L153.043 228.714C153.136 228.807 153.274 228.899 153.366 229.037C154.98 230.468 159.222 233.605 163.926 231.483C164.203 231.391 164.479 231.252 164.71 231.068C165.079 230.883 165.402 230.652 165.724 230.375C165.817 230.283 165.909 230.237 166.001 230.145C166.093 230.099 166.139 230.006 166.185 229.96C166.278 229.868 166.324 229.822 166.416 229.729C167.2 228.899 167.845 227.93 168.214 226.823C168.214 226.776 168.214 226.776 168.214 226.73C168.583 225.761 168.768 224.746 168.768 223.685V223.454C168.768 223.408 168.768 223.316 168.722 223.224C168.722 223.131 168.722 223.085 168.722 223.039C168.722 222.947 168.814 222.854 168.906 222.854C171.073 222.624 173.287 222.624 175.5 222.808C176.054 222.854 176.422 222.947 176.653 222.993C176.699 222.993 176.699 222.993 176.745 222.993C177.852 223.316 178.82 224.008 179.466 224.977L179.558 225.069C179.881 225.392 180.065 225.854 180.065 226.315C183.247 233.559 186.752 246.34 188.504 252.708C190.579 250.585 204.828 228.207 205.981 226.269C206.027 226.177 206.119 226.177 206.211 226.177C206.257 226.177 206.303 226.177 206.35 226.223L221.013 235.313C221.013 235.313 221.013 235.313 221.059 235.313C221.152 235.359 221.152 235.451 221.152 235.543C221.152 235.589 221.152 235.636 221.106 235.682C218.247 240.434 215.618 244.956 213.313 248.97C203.906 265.258 197.68 276.009 190.21 277.947C187.259 278.685 184.169 278.085 180.757 276.055L184.861 306.877C184.861 307.062 184.815 307.247 184.677 307.385C184.677 307.431 184.584 307.477 184.538 307.477L184.308 307.616C176.791 312.276 156.594 313.43 155.764 313.476C155.026 313.706 154.15 313.753 153.228 313.753ZM150.738 313.245C152.444 313.337 154.196 313.337 155.902 313.245C156.778 313.199 176.837 312.045 184.262 307.431L184.538 307.247C184.584 307.2 184.63 307.108 184.63 307.062L180.48 276.055C180.48 275.917 180.526 275.732 180.665 275.64C180.757 275.594 180.849 275.594 180.941 275.64C184.354 277.716 187.397 278.362 190.302 277.624C197.588 275.732 203.767 265.074 213.128 248.878C215.434 244.91 218.016 240.434 220.829 235.728C220.598 235.589 220.229 235.359 219.676 235.036C214.096 231.621 207.687 227.699 206.442 226.869C205.658 228.068 201.738 234.297 197.773 240.388C189.196 253.538 188.827 253.492 188.55 253.446C188.458 253.446 188.366 253.354 188.32 253.261C186.613 246.986 183.017 233.928 179.789 226.638C179.789 226.592 179.789 226.592 179.789 226.546C179.789 226.177 179.65 225.854 179.374 225.577L179.235 225.438C179.235 225.438 179.235 225.438 179.189 225.392C178.59 224.516 177.76 223.87 176.745 223.593H176.699H176.653C176.422 223.547 176.054 223.5 175.546 223.454C173.471 223.27 171.35 223.27 169.275 223.454C169.275 223.5 169.275 223.547 169.275 223.593V223.823C169.275 224.931 169.091 225.992 168.722 227.007C168.722 227.053 168.722 227.053 168.722 227.053C168.307 228.207 167.661 229.268 166.831 230.145C166.739 230.237 166.693 230.329 166.6 230.375C166.554 230.422 166.462 230.514 166.416 230.56C166.324 230.652 166.232 230.745 166.139 230.791C165.817 231.068 165.448 231.298 165.079 231.529C164.802 231.667 164.525 231.806 164.249 231.944C159.315 234.159 154.842 230.929 153.182 229.406C153.043 229.314 152.905 229.176 152.813 229.084L152.306 228.576C149.17 230.329 143.59 233.882 140.962 235.728C140.87 235.82 140.731 235.866 140.639 235.959C141.607 237.712 149.354 257.137 145.481 268.027C143.775 272.779 141.792 277.486 139.532 282.007C139.578 282.146 139.717 282.515 139.901 283.023C144.42 295.481 147.74 304.663 149.723 310.292L149.908 310.753C150.23 311.63 150.507 312.414 150.738 313.107V313.245Z" fill="#3B3375"/>

<path d="M151.385 316.57C151.339 316.847 150.555 317.447 149.771 317.954C148.987 318.462 148.203 318.923 148.157 318.969C147.004 319.615 145.575 320.307 144.053 321C139.764 322.938 136.122 324.045 135.891 323.491L134.369 319.385L132.571 314.494L127.637 301.02L121.365 284.041C120.72 282.241 120.858 280.257 121.734 278.55C125.977 270.613 134.046 245.743 138.335 238.176L138.934 237.115C139.073 236.93 139.165 236.746 139.303 236.515C139.488 236.192 139.718 235.961 140.041 235.961H140.133C140.456 236.008 140.733 236.054 141.009 236.146C142.07 236.377 143.131 236.746 144.053 237.3C152.307 242.006 149.079 256.679 145.021 267.983C143.315 272.782 141.286 277.442 139.027 282.01C139.027 282.01 146.036 300.928 149.54 310.71C149.909 311.725 150.232 312.648 150.509 313.432C150.924 314.448 151.2 315.509 151.385 316.57Z" fill="#ECECFB"/>

<path d="M136.35 323.811C136.212 323.811 136.074 323.811 135.981 323.765C135.843 323.719 135.751 323.626 135.751 323.534L121.225 284.083C120.534 282.238 120.672 280.161 121.64 278.408C123.669 274.624 126.528 267.103 129.526 259.121C132.707 250.723 135.981 242.003 138.241 238.034L138.84 236.973C138.933 236.835 139.025 236.742 139.071 236.604C139.117 236.512 139.163 236.466 139.209 236.373C139.44 236.004 139.716 235.681 140.132 235.681H140.224C140.593 235.727 140.869 235.773 141.146 235.866C142.253 236.096 143.267 236.466 144.236 237.019C152.582 241.772 149.446 256.491 145.342 267.98C143.636 272.733 141.653 277.439 139.394 281.961C139.947 283.437 146.541 301.248 149.861 310.568C150.23 311.583 150.553 312.506 150.83 313.291C151.199 314.306 151.475 315.367 151.66 316.428V316.474V316.521C151.614 316.844 151.014 317.351 149.953 318.043C149.17 318.551 148.386 319.058 148.34 319.058C147.141 319.704 145.757 320.396 144.189 321.089C141.192 322.519 137.688 323.811 136.35 323.811ZM136.12 323.349C136.535 323.534 139.532 322.75 143.959 320.766C145.481 320.073 146.864 319.381 148.063 318.735C148.109 318.735 148.893 318.228 149.631 317.72C150.599 317.074 151.06 316.659 151.152 316.521C150.968 315.505 150.691 314.49 150.322 313.521C150.046 312.737 149.723 311.814 149.354 310.799C145.896 301.109 138.933 282.284 138.84 282.099L138.794 282.007L138.84 281.915C141.1 277.393 143.129 272.686 144.835 267.888C148.893 256.537 152.029 242.095 143.959 237.481C143.037 236.973 142.022 236.604 140.962 236.373C140.685 236.327 140.408 236.235 140.085 236.189H140.039C139.855 236.189 139.67 236.419 139.532 236.65C139.486 236.696 139.44 236.789 139.394 236.881C139.301 237.019 139.209 237.158 139.163 237.25L138.564 238.265C136.35 242.187 133.03 250.862 129.894 259.259C126.897 267.242 124.038 274.809 122.009 278.593C121.133 280.207 120.995 282.145 121.64 283.853L136.12 323.349Z" fill="#3B3375"/>

<path d="M187.351 433.767L185.691 434.643C185.46 434.782 185.46 435.105 185.46 435.382L185.368 436.812C185.368 436.812 182.417 439.95 174.07 437.412L160.421 364.601L143.221 435.382C143.221 435.382 136.212 434.136 135.013 435.059C133.814 435.981 134.137 438.427 134.137 438.427H131.462L134.46 319.429L135.981 323.535C136.212 324.089 139.855 322.982 144.143 321.044C145.665 320.352 147.095 319.66 148.247 319.014C148.293 318.967 149.077 318.506 149.861 317.998C150.645 317.491 151.429 316.891 151.475 316.614C151.291 315.553 151.014 314.538 150.599 313.523C152.397 313.615 154.15 313.615 155.948 313.523C156.317 313.523 176.791 312.415 184.4 307.709L187.351 433.767Z" fill="white"/>

<path d="M180.019 438.61C178.405 438.61 176.468 438.334 174.024 437.595L173.886 437.549L173.84 437.411L160.375 365.661L143.405 435.611L143.175 435.565C140.408 435.104 135.981 434.596 135.151 435.196C134.09 435.98 134.367 438.334 134.367 438.334L134.413 438.61H131.231V438.38L134.229 318.182L136.119 323.35C136.534 323.581 139.532 322.75 143.959 320.766C145.573 320.028 146.956 319.336 148.063 318.736C148.063 318.736 148.847 318.274 149.63 317.721C150.645 317.029 151.06 316.659 151.152 316.521C150.968 315.506 150.691 314.491 150.322 313.522L150.23 313.245H150.599C152.351 313.337 154.149 313.337 155.902 313.245C156.086 313.245 176.606 312.184 184.261 307.431L184.584 307.2V307.616L187.581 433.904L185.783 434.827C185.69 434.873 185.69 435.104 185.644 435.334L185.552 436.903L185.506 436.949C185.414 437.042 183.892 438.61 180.019 438.61ZM131.693 438.149H133.86C133.814 437.457 133.814 435.611 134.874 434.827C136.027 433.95 141.699 434.873 143.036 435.104L160.421 363.493L174.255 437.226C181.633 439.441 184.676 437.088 185.137 436.719L185.229 435.334C185.229 435.058 185.275 434.688 185.598 434.458L187.12 433.627L184.123 308.031C176.145 312.645 156.086 313.706 155.902 313.706C154.242 313.799 152.582 313.799 150.875 313.706C151.198 314.629 151.429 315.552 151.613 316.521V316.567V316.613C151.567 316.706 151.521 317.029 149.907 318.136C149.123 318.69 148.293 319.151 148.293 319.151C147.186 319.751 145.803 320.443 144.189 321.181C140.869 322.658 136.857 324.134 135.981 323.765C135.843 323.719 135.751 323.627 135.751 323.534L134.644 320.581L131.693 438.149Z" fill="#3B3375"/>

<path d="M134.413 423.522V423.291L134.183 423.245C134.413 421.953 139.209 326.903 139.301 325.934L139.762 325.98C139.762 325.98 138.517 350.342 137.272 374.659C136.627 386.84 136.027 399.021 135.52 408.111C135.289 412.679 135.059 416.463 134.921 419.139C134.644 423.522 134.644 423.522 134.413 423.522Z" fill="#3B3375"/>

<path d="M140.224 425.229C136.12 425.229 133.353 423.614 131.831 422.415C131.785 422.368 131.739 422.322 131.739 422.322L131.97 421.907C132.016 421.907 132.062 421.953 132.108 422.045C134.183 423.706 138.794 426.198 146.034 423.753L146.172 424.168C143.959 424.952 141.976 425.229 140.224 425.229Z" fill="#3B3375"/>

<path d="M139.67 428.506C135.197 428.506 131.739 426.568 131.693 426.521L131.923 426.106C131.969 426.152 138.471 429.844 145.25 426.891L145.434 427.306C143.451 428.229 141.468 428.506 139.67 428.506Z" fill="#3B3375"/>

<path d="M179.096 428.275C176.007 428.275 173.471 427.49 172.087 426.937L171.995 426.891L172.133 426.475L172.226 426.521C174.67 427.444 180.941 429.244 186.936 425.737L187.166 426.152C184.446 427.767 181.587 428.275 179.096 428.275Z" fill="#3B3375"/>

<path d="M178.912 431.274C175.684 431.274 173.056 430.305 172.502 429.936L172.779 429.567C173.701 430.259 181.356 432.612 186.982 428.229L187.258 428.598C184.584 430.674 181.54 431.274 178.912 431.274Z" fill="#3B3375"/>

<path d="M139.44 329.302L139.256 328.887C143.913 326.81 147.417 319.981 147.51 319.197L147.971 319.243C147.879 320.12 144.374 327.133 139.44 329.302Z" fill="#3B3375"/>

<path d="M139.255 332.993L139.117 332.578C147.141 329.763 152.444 315.921 152.674 313.521L153.135 313.567C152.951 315.367 148.017 329.948 139.255 332.993Z" fill="#3B3375"/>

<path d="M174.993 322.611L174.578 322.427C175.684 319.797 177.298 315.736 177.391 315.505L177.852 315.552C177.806 315.598 177.806 315.736 174.993 322.611Z" fill="#3B3375"/>

<path d="M184.399 314.583C183.201 313.845 182.832 310.892 182.693 308.723V308.446L183.154 308.4V308.677C183.385 311.861 183.892 313.753 184.63 314.168L184.399 314.583Z" fill="#3B3375"/>

<path d="M184.492 316.936C181.771 315.644 181.403 311.353 181.218 309.554C181.218 309.369 181.172 309.231 181.172 309.092L181.633 309.046C181.633 309.185 181.679 309.323 181.679 309.508C181.818 311.076 182.233 315.321 184.676 316.521L184.492 316.936Z" fill="#3B3375"/>

<path d="M168.944 327.205L160.171 364.528L160.62 364.633L169.393 327.31L168.944 327.205Z" fill="#3B3375"/>

<path d="M141.653 327.779C139.624 327.133 137.688 323.904 137.503 323.534L137.918 323.304C138.01 323.442 139.947 326.764 141.838 327.364L141.653 327.779Z" fill="#3B3375"/>

<path d="M168.494 226.917C168.125 228.071 167.48 229.086 166.65 229.962C166.557 230.055 166.511 230.101 166.419 230.193C166.373 230.239 166.281 230.331 166.235 230.378C166.142 230.47 166.05 230.562 165.958 230.608C165.635 230.885 165.312 231.116 164.944 231.3C164.667 231.439 164.436 231.577 164.114 231.716C159.364 233.884 155.029 230.793 153.277 229.224C153.139 229.132 153 228.993 152.908 228.901L152.77 228.763L152.678 228.67L152.585 228.578L152.355 228.347L152.309 228.301L152.263 228.255L153.784 227.286C165.497 234.946 167.295 224.195 166.973 223.226H169.001C169.001 223.226 169.001 223.272 169.001 223.318C169.001 223.364 169.048 223.503 169.048 223.595C169.048 223.687 169.048 223.733 169.048 223.826C169.094 224.887 168.909 225.948 168.494 226.917Z" fill="#3E337A"/>

<path d="M160.744 232.682C157.286 232.682 154.427 230.56 153.136 229.406C152.997 229.314 152.859 229.176 152.767 229.083L151.983 228.299L152.167 228.114L153.827 227.053L153.966 227.146C158.346 230.006 161.851 230.606 164.203 228.853C166.462 227.192 166.969 223.777 166.831 223.316L166.739 223.039H169.275V223.408C169.275 223.454 169.275 223.547 169.275 223.593C169.275 223.685 169.275 223.731 169.275 223.777V223.823C169.275 224.885 169.09 225.992 168.722 227.007V227.099C168.307 228.253 167.661 229.314 166.831 230.191C166.739 230.283 166.693 230.375 166.6 230.422C166.554 230.468 166.462 230.56 166.416 230.606C166.324 230.698 166.232 230.791 166.139 230.837C165.816 231.114 165.448 231.344 165.079 231.575C164.802 231.714 164.525 231.852 164.249 231.99C163.004 232.452 161.851 232.682 160.744 232.682ZM152.674 228.345L153.089 228.76C153.182 228.853 153.32 228.945 153.412 229.083C155.026 230.514 159.315 233.651 163.972 231.529C164.249 231.437 164.525 231.298 164.756 231.114C165.125 230.929 165.448 230.698 165.77 230.422C165.863 230.329 165.955 230.283 166.047 230.191C166.139 230.145 166.185 230.052 166.232 230.006C166.324 229.914 166.37 229.868 166.462 229.776C167.246 228.945 167.892 227.976 168.26 226.869V226.776C168.629 225.807 168.814 224.792 168.814 223.731V223.639C168.814 223.593 168.814 223.593 168.814 223.546C168.814 223.5 168.814 223.454 168.814 223.408H167.292C167.292 224.469 166.693 227.515 164.479 229.176C161.943 231.021 158.392 230.468 153.827 227.561L152.674 228.345Z" fill="#3B3375"/>

<path d="M167.015 223.594C167.062 224.84 165.494 234.945 153.781 227.285L153.504 214.55C154.058 215.104 154.657 215.658 155.257 216.165C157.839 218.288 162.773 220.733 166.462 219.58C166.877 219.441 166.554 219.626 166.877 219.441L167.015 223.594Z" fill="white"/>

<path d="M161.251 230.375C159.176 230.375 156.64 229.406 153.688 227.468L153.596 227.422L153.319 213.995L153.734 214.411C154.288 214.964 154.841 215.518 155.441 216.025C157.839 218.01 162.773 220.547 166.462 219.394C166.6 219.348 166.646 219.348 166.738 219.348C166.738 219.348 166.784 219.301 166.83 219.301L167.153 219.117L167.292 223.639C167.292 224.331 166.784 228.207 163.971 229.776C163.141 230.145 162.219 230.375 161.251 230.375ZM154.011 227.145C158.161 229.822 161.389 230.56 163.695 229.268C166.323 227.838 166.784 224.239 166.784 223.546L166.692 219.717C166.692 219.717 166.646 219.717 166.554 219.763C162.404 221.055 157.239 218.056 155.118 216.302C154.657 215.933 154.196 215.518 153.781 215.056L154.011 227.145Z" fill="#3B3375"/>

<path d="M180.665 276.286C180.573 276.286 180.434 276.194 180.434 276.101L176.745 248.693C176.745 248.555 176.838 248.463 176.93 248.417C177.068 248.417 177.16 248.509 177.206 248.601L180.895 276.009C180.942 276.147 180.849 276.24 180.665 276.286C180.711 276.286 180.665 276.286 180.665 276.286Z" fill="#3B3375"/>

<path d="M207.548 441.102C207.363 441.102 207.133 441.102 206.902 441.102C202.844 440.918 185.921 438.242 185.783 438.195C185.506 438.149 185.276 437.919 185.276 437.642L185.137 436.35C185.137 436.304 185.137 436.258 185.183 436.211L185.322 434.919C185.368 434.689 185.46 434.504 185.691 434.412L186.705 433.95L187.304 433.581C187.397 433.535 187.443 433.489 187.535 433.489C187.858 433.443 188.181 433.674 188.227 434.043L188.411 435.381C188.411 435.473 188.457 435.519 188.55 435.519C190.763 435.888 205.611 438.38 207.594 438.749C208.562 438.934 209.485 439.395 209.715 439.903C209.854 440.133 209.807 440.318 209.761 440.41C209.577 440.872 208.839 441.102 207.548 441.102ZM185.552 436.396L185.691 437.549C185.691 437.642 185.737 437.688 185.829 437.688C186.013 437.734 202.891 440.41 206.902 440.595C208.655 440.687 209.208 440.41 209.3 440.226C209.3 440.18 209.3 440.133 209.254 440.087C209.07 439.764 208.378 439.349 207.456 439.164C205.473 438.795 190.625 436.304 188.411 435.935C188.134 435.888 187.95 435.658 187.904 435.381L187.719 434.043C187.719 433.95 187.627 433.904 187.535 433.904C187.535 433.904 187.489 433.904 187.489 433.95L186.889 434.32L185.875 434.781C185.829 434.781 185.783 434.873 185.783 434.919L185.598 436.257C185.598 436.304 185.552 436.35 185.552 436.396C185.552 436.35 185.552 436.396 185.552 436.396Z" fill="#3B3375"/>

<path d="M172.872 446.409C173.471 446.455 208.471 446.87 209.9 446.409H209.946C210.73 445.947 210.315 441.103 209.531 440.318C209.393 440.687 208.655 440.918 206.903 440.826C203.122 440.641 188.089 438.288 185.783 437.919C185.599 437.873 185.461 437.734 185.461 437.596L185.322 436.396V436.35C185.322 436.35 185.138 436.673 181.633 437.55C176.515 438.842 173.932 436.627 173.932 436.627C169.459 443.271 172.272 446.316 172.872 446.409Z" fill="#3B3375"/>

<path d="M173.01 450.146C173.425 450.146 209.531 449.731 209.531 449.731C212.436 450.008 213.22 446.639 209.854 446.409C208.425 446.87 173.425 446.455 172.826 446.409C169.46 446.316 170.336 450.285 173.01 450.146Z" fill="#3B3375"/>

<path d="M145.667 440.413C145.667 440.69 141.102 441.751 137.044 440.782C135.845 440.506 134.461 438.752 134.139 438.383C134.139 438.383 133.862 435.891 135.015 435.015C135.937 434.323 140.548 434.738 142.531 434.923C142.992 434.969 143.361 435.292 143.223 435.753C143.131 436.261 143.038 436.722 143.038 437.23C142.992 438.891 145.667 440.136 145.667 440.413Z" fill="white"/>

<path d="M140.685 441.426C139.486 441.426 138.195 441.333 136.996 441.01C135.935 440.733 134.736 439.441 134.183 438.796C134.091 438.703 134.045 438.611 133.998 438.565L133.952 438.519V438.426C133.952 438.334 133.63 435.796 134.921 434.827C135.843 434.135 139.624 434.366 142.622 434.689C142.944 434.735 143.267 434.873 143.405 435.104C143.544 435.289 143.59 435.566 143.498 435.796C143.405 436.258 143.359 436.765 143.313 437.227C143.267 438.288 144.604 439.211 145.296 439.718C145.757 440.041 145.896 440.18 145.896 440.364C145.896 440.41 145.896 440.503 145.757 440.595C145.434 440.872 143.267 441.426 140.685 441.426ZM134.321 438.288C134.367 438.334 134.413 438.38 134.46 438.473C134.967 439.026 136.12 440.318 137.042 440.549C140.546 441.379 144.374 440.687 145.25 440.364C145.158 440.318 145.065 440.226 144.973 440.134C144.143 439.534 142.76 438.519 142.806 437.227C142.806 436.719 142.898 436.212 142.99 435.704C143.037 435.566 142.99 435.473 142.944 435.381C142.852 435.243 142.668 435.15 142.483 435.15C138.471 434.735 135.705 434.735 135.105 435.196C134.183 435.935 134.275 437.873 134.321 438.288Z" fill="#3B3375"/>

<path d="M151.017 450.611C150.971 451.257 150.51 451.811 149.91 452.042C147.097 453.057 137.875 455.271 129.805 451.765C129.16 451.488 128.698 450.842 128.698 450.15C128.698 449.688 128.698 449.042 128.698 448.443C128.698 447.243 129.16 447.243 129.805 447.289C129.851 447.289 129.851 447.289 129.897 447.243C130.082 447.151 130.22 446.966 130.22 446.781C130.266 445.213 130.359 438.753 130.589 438.43C130.82 438.107 131.189 438.384 131.511 438.43C132.295 438.614 133.125 438.661 133.909 438.522C134.094 438.476 134.278 438.522 134.416 438.661C135.016 439.26 136.491 440.737 137.552 440.783C140.78 441.06 146.037 440.737 146.037 440.46C146.037 440.322 145.115 439.814 144.285 439.168C144.054 438.984 144.008 438.614 144.238 438.384C144.423 438.199 144.7 438.153 144.93 438.245C146.682 439.214 149.126 440.552 149.265 440.922C149.449 441.521 148.942 447.289 149.265 447.427C149.587 447.566 150.833 447.52 151.109 448.443C151.109 449.181 151.109 449.873 151.017 450.611Z" fill="#3E337A"/>

<path d="M139.671 453.883C136.535 453.883 133.076 453.422 129.71 451.945C128.972 451.622 128.511 450.93 128.465 450.1V448.392C128.465 447.793 128.557 447.424 128.788 447.239C129.065 447.008 129.434 447.008 129.756 447.008H129.802C129.895 446.962 129.987 446.87 129.987 446.731C129.987 445.393 130.125 438.703 130.356 438.288C130.586 437.918 131.001 438.057 131.278 438.103C131.37 438.149 131.416 438.149 131.509 438.149C132.293 438.334 133.03 438.38 133.814 438.241C134.045 438.195 134.321 438.241 134.506 438.426C136.12 440.087 136.996 440.456 137.457 440.502C140.362 440.733 144.374 440.502 145.527 440.318C145.435 440.272 145.296 440.179 145.204 440.087C144.881 439.856 144.466 439.579 144.051 439.256C143.913 439.118 143.775 438.934 143.775 438.703C143.775 438.518 143.821 438.288 143.959 438.149C144.19 437.872 144.605 437.78 144.927 437.965C148.524 439.902 149.262 440.456 149.354 440.825C149.446 441.102 149.4 442.071 149.308 443.686C149.262 444.978 149.17 446.87 149.262 447.239C149.354 447.239 149.446 447.285 149.539 447.285C150.046 447.377 150.922 447.516 151.153 448.392C151.291 449.131 151.291 449.869 151.153 450.561C151.06 451.299 150.599 451.945 149.908 452.176C149.677 452.314 145.296 453.883 139.671 453.883ZM129.526 447.47C129.341 447.47 129.203 447.47 129.111 447.562C128.972 447.7 128.926 447.977 128.926 448.392V450.1C128.926 450.7 129.341 451.253 129.895 451.53C137.273 454.76 146.172 453.145 149.815 451.807C150.323 451.622 150.738 451.115 150.784 450.561C150.876 449.869 150.876 449.223 150.784 448.531C150.645 448.023 150.138 447.885 149.539 447.793C149.354 447.746 149.17 447.746 149.078 447.654C148.801 447.516 148.755 447.147 148.893 443.686C148.939 442.533 148.985 441.241 148.939 441.01C148.801 440.779 147.371 439.902 144.743 438.472C144.605 438.426 144.466 438.426 144.374 438.564C144.328 438.611 144.282 438.703 144.282 438.795C144.282 438.887 144.328 438.934 144.374 439.026C144.743 439.349 145.158 439.579 145.481 439.81C145.988 440.179 146.219 440.272 146.219 440.502V440.595L146.126 440.687C145.711 441.056 140.362 441.287 137.457 441.056C136.673 441.01 135.613 440.272 134.183 438.841C134.091 438.749 133.999 438.749 133.906 438.749C133.076 438.887 132.2 438.841 131.416 438.657C131.324 438.657 131.232 438.611 131.14 438.564C130.863 438.472 130.771 438.472 130.725 438.518C130.586 438.887 130.448 444.055 130.402 446.731C130.402 447.008 130.217 447.239 129.987 447.377C129.895 447.47 129.802 447.47 129.756 447.47C129.71 447.47 129.618 447.47 129.526 447.47Z" fill="#3B3375"/>

<path d="M437.881 352.097C437.881 351.22 469.099 281.178 481.826 272.411L476.201 291.006L480.074 289.53C480.074 289.53 467.578 322.521 465.502 325.52C463.427 328.519 437.881 352.097 437.881 352.097Z" fill="#3E337A"/>

<path d="M437.65 352.604V352.096C437.65 351.588 445.581 333.593 454.85 315.091C463.381 298.065 475.001 276.84 481.687 272.226L482.241 271.856L476.523 290.636L480.442 289.113L480.258 289.575C479.751 290.913 467.761 322.612 465.686 325.611C463.611 328.564 439.079 351.312 438.019 352.281L437.65 352.604ZM481.457 273.01C474.77 278.27 463.703 298.618 455.449 314.998C447.057 331.655 440.048 347.39 438.48 351.219C442.63 347.39 463.519 327.964 465.364 325.288C467.254 322.566 478.183 293.958 479.704 289.852L475.877 291.328L481.457 273.01Z" fill="#3B3375"/>

<path d="M406.991 242.374C407.452 243.573 433.137 280.855 428.848 315.507C428.848 315.507 415.475 301.527 410.403 280.855C405.331 260.184 412.201 275.642 413.078 275.965C413.954 276.287 406.991 242.374 406.991 242.374Z" fill="#3E337A"/>

<path d="M428.981 316.013L428.658 315.644C428.52 315.506 415.193 301.387 410.167 280.9C407.585 270.38 408.323 270.057 408.738 269.918C409.429 269.641 410.352 271.164 411.827 273.702C412.196 274.348 412.611 275.086 412.888 275.455C412.749 272.502 409.199 254.507 406.709 242.418L407.17 242.28C407.216 242.372 407.493 242.88 407.908 243.479C424.047 269.641 431.563 295.204 429.027 315.506L428.981 316.013ZM408.922 270.38C408.738 270.518 408.369 271.626 410.628 280.854C415.147 299.403 426.537 312.691 428.658 314.998C430.964 294.881 423.494 269.595 407.539 243.756C407.539 243.71 407.493 243.71 407.493 243.664C408.046 246.34 409.337 252.615 410.536 258.891C413.81 275.686 413.487 275.963 413.257 276.147L413.164 276.24L413.026 276.194C412.749 276.101 412.381 275.548 411.458 273.933C410.767 272.779 409.337 270.38 408.922 270.38Z" fill="#3B3375"/>

<path d="M430.737 377.382C431.752 376.782 432.951 373.968 431.936 364.601C430.922 355.234 427.463 350.067 425.527 346.929C423.59 343.791 419.578 337.286 420.178 334.286C420.178 334.286 416.765 349.005 418.702 355.834C420.639 362.663 422.575 367.139 421.377 367.416C420.178 367.693 416.904 364.878 416.765 365.939C416.627 367 419.532 371.753 421.515 373.506C424.558 376.229 430.737 377.382 430.737 377.382Z" fill="#3E337A"/>

<path d="M430.78 377.612H430.687C430.411 377.566 424.416 376.412 421.372 373.736C419.39 371.983 416.392 367.092 416.531 365.938C416.577 365.708 416.669 365.615 416.807 365.569C417.176 365.385 417.822 365.708 418.929 366.307C419.759 366.769 420.819 367.369 421.326 367.23C421.373 367.23 421.419 367.184 421.465 367.138C421.788 366.584 421.05 364.231 420.127 361.278C419.62 359.709 419.067 357.91 418.513 355.926C416.577 349.097 419.851 334.839 419.989 334.239L420.45 334.332C419.851 337.285 424.139 344.206 425.753 346.79L425.984 347.159C427.921 350.296 431.195 355.51 432.209 364.554C433.316 374.567 431.886 377.012 430.918 377.566L430.78 377.612ZM417.038 365.938C416.992 365.938 416.992 365.938 416.992 365.938C416.853 366.907 419.712 371.614 421.649 373.321C424.416 375.766 429.903 376.92 430.687 377.104C431.287 376.689 432.808 374.613 431.702 364.6C430.687 355.649 427.505 350.481 425.569 347.389L425.338 347.02C423.863 344.621 420.727 339.545 420.035 336.131C419.205 340.284 417.453 350.481 418.929 355.787C419.482 357.771 420.035 359.571 420.542 361.14C421.603 364.554 422.249 366.584 421.834 367.369C421.741 367.553 421.603 367.645 421.419 367.692C420.773 367.876 419.712 367.276 418.698 366.723C418.191 366.4 417.315 365.938 417.038 365.938Z" fill="#3B3375"/>

<path d="M418.149 391.595C419.025 386.52 419.025 382.229 404.592 376.138C403.255 375.953 399.981 378.076 399.981 378.076C397.352 376.23 394.17 375.215 390.943 375.261C385.732 375.4 373.696 380.752 372.082 387.166L418.149 391.595Z" fill="#3E337A"/>

<path d="M418.329 391.869H418.099L371.756 387.394L371.802 387.117C373.416 380.749 385.451 375.212 390.892 375.028C394.166 374.982 397.302 375.951 399.977 377.796C400.622 377.381 403.343 375.766 404.588 375.904H404.634C418.791 381.857 419.252 386.194 418.329 391.592V391.869ZM372.355 386.978L417.961 391.408C418.698 387.071 419.206 382.595 404.542 376.412C403.481 376.32 400.991 377.75 400.115 378.304L399.977 378.396L399.838 378.304C397.21 376.458 394.12 375.489 390.938 375.535C385.682 375.628 374.2 380.888 372.355 386.978Z" fill="#3B3375"/>

<path d="M409.94 341.949C403.991 349.378 395.092 342.687 392.556 341.211L392.786 340.888C397.766 332.121 400.625 330.322 401.778 328.43L402.239 327.83C403.254 326.953 415.889 334.52 409.94 341.949Z" fill="white"/>

<path d="M403.111 345.636C399.192 345.636 395.318 343.237 393.243 341.899C392.92 341.714 392.644 341.53 392.459 341.391C392.413 341.345 392.367 341.299 392.367 341.253C392.367 341.207 392.367 341.114 392.413 341.068L392.644 340.745C396.148 334.608 398.546 331.932 400.114 330.133C400.806 329.394 401.267 328.841 401.59 328.287L402.051 327.687L402.097 327.641C402.789 327.041 406.063 328.841 408.368 331.056C413.579 336.085 411.734 340.145 410.167 342.083C407.999 344.713 405.555 345.636 403.111 345.636ZM392.874 341.114C393.059 341.207 393.243 341.345 393.474 341.483C396.748 343.56 404.449 348.405 409.752 341.76C411.412 339.684 412.564 336.316 408.691 332.071C406.155 329.256 402.835 327.733 402.374 327.964L401.959 328.518C401.59 329.071 401.082 329.671 400.437 330.41C398.869 332.163 396.471 334.839 393.013 340.976L392.874 341.114Z" fill="#3B3375"/>

<path d="M402.425 327.645C402.24 327.829 402.102 328.014 401.964 328.245L392.972 340.703C389.882 343.794 386.055 346.609 381.443 347.993C374.48 350.069 378.492 352.746 378.492 353.207C378.492 353.668 371.068 363.589 370.008 363.589C368.947 363.589 362.906 340.426 366.503 335.95C370.1 331.475 380.014 322.708 382.089 323.308C384.164 323.907 385.501 330.598 393.986 329.121L402.425 327.645Z" fill="#3E337A"/>

<path d="M370.049 363.862C369.865 363.862 369.68 363.677 369.45 363.216C367.743 359.617 363.04 339.961 366.36 335.854C369.911 331.425 379.917 322.473 382.223 323.165C382.914 323.35 383.468 324.042 384.16 324.965C385.82 327.087 388.125 329.994 394.028 328.979L402.466 327.503C402.558 327.503 402.651 327.549 402.697 327.641C402.743 327.733 402.743 327.826 402.651 327.918C402.512 328.102 402.374 328.287 402.236 328.471L393.244 340.976C389.601 344.667 385.681 347.159 381.577 348.358C379.272 349.05 377.98 349.881 377.658 350.758C377.427 351.542 378.027 352.28 378.442 352.788C378.672 353.065 378.764 353.203 378.764 353.342C378.764 353.849 374.891 358.786 374.891 358.832C370.833 363.862 370.234 363.862 370.049 363.862ZM381.854 323.534C379.687 323.534 370.464 331.378 366.683 336.131C365.53 337.607 365.3 341.391 366.037 347.113C367.052 354.726 369.404 362.708 370.049 363.4C370.372 363.262 371.571 362.155 374.43 358.509C376.505 355.833 378.073 353.665 378.257 353.203C378.211 353.157 378.119 353.019 378.027 352.926C377.612 352.419 376.874 351.542 377.197 350.481C377.519 349.373 378.903 348.497 381.393 347.759C385.405 346.559 389.278 344.113 392.829 340.514L401.821 328.102C401.867 328.056 401.867 328.01 401.913 327.964L394.028 329.348C387.895 330.409 385.405 327.272 383.745 325.195C383.099 324.365 382.592 323.719 382.038 323.581C381.992 323.581 381.9 323.534 381.854 323.534Z" fill="#3B3375"/>

<path d="M446.738 392.197C452.687 399.626 461.587 392.935 464.123 391.459L463.892 391.136C458.912 382.369 456.053 380.569 454.9 378.678L454.439 378.078C453.425 377.155 440.79 384.768 446.738 392.197Z" fill="white"/>

<path d="M453.56 395.884C451.162 395.884 448.672 394.961 446.597 392.331C445.029 390.393 443.184 386.379 448.349 381.349C450.654 379.088 453.975 377.289 454.666 377.889L454.712 377.935L455.173 378.535C455.542 379.088 456.003 379.642 456.695 380.426C458.309 382.226 460.707 384.902 464.165 391.039L464.396 391.316C464.442 391.362 464.442 391.454 464.442 391.5C464.442 391.546 464.396 391.639 464.35 391.639C464.119 391.777 463.843 391.962 463.566 392.146C461.306 393.438 457.479 395.884 453.56 395.884ZM454.159 378.212C453.421 378.212 450.378 379.688 447.98 382.318C444.06 386.609 445.213 389.978 446.919 392.054C452.222 398.652 459.923 393.807 463.197 391.777C463.428 391.639 463.612 391.5 463.797 391.408L463.704 391.316C460.246 385.225 457.848 382.549 456.28 380.795C455.588 380.011 455.081 379.457 454.712 378.858L454.297 378.304C454.251 378.212 454.251 378.212 454.159 378.212Z" fill="#3B3375"/>

<path d="M454.207 377.893C454.392 378.077 454.53 378.262 454.668 378.492L463.66 390.951C466.75 394.042 470.577 396.857 475.189 398.241C482.152 400.317 478.14 402.993 478.14 403.455C478.14 403.916 485.564 413.837 486.625 413.837C487.685 413.837 493.772 390.628 490.175 386.198C486.578 381.768 476.664 372.956 474.589 373.555C472.514 374.155 471.177 380.846 462.692 379.369L454.207 377.893Z" fill="#3E337A"/>

<path d="M486.621 414.109C486.437 414.109 485.791 414.109 481.826 408.988C481.78 408.941 477.952 403.958 477.952 403.497C477.952 403.358 478.091 403.174 478.275 402.943C478.69 402.482 479.289 401.743 479.059 400.913C478.782 399.99 477.491 399.206 475.139 398.514C471.035 397.314 467.116 394.822 463.519 391.177L454.527 378.673C454.389 378.442 454.25 378.258 454.112 378.073C454.066 377.981 454.02 377.888 454.066 377.796C454.112 377.704 454.204 377.658 454.296 377.658L462.781 379.134C468.637 380.149 470.943 377.242 472.649 375.12C473.341 374.243 473.894 373.505 474.586 373.32C476.846 372.674 486.99 381.718 490.449 386.009C493.723 390.116 489.019 409.772 487.313 413.371C486.99 413.925 486.806 414.109 486.621 414.109ZM478.367 403.451C478.552 403.866 480.12 406.081 482.195 408.757C485.007 412.356 486.253 413.509 486.575 413.648C487.221 412.956 489.573 404.973 490.633 397.314C491.371 391.638 491.187 387.855 490.034 386.378C486.483 381.949 476.569 373.274 474.678 373.828C474.125 373.966 473.618 374.612 472.972 375.443C471.312 377.519 468.822 380.703 462.689 379.596L454.804 378.211C454.85 378.258 454.85 378.304 454.896 378.396L463.888 390.808C467.439 394.407 471.266 396.806 475.278 398.006C477.768 398.744 479.151 399.621 479.474 400.728C479.797 401.743 479.059 402.62 478.644 403.174C478.506 403.312 478.413 403.404 478.367 403.451Z" fill="#3B3375"/>

<path d="M418.151 391.598C419.764 393.259 421.194 395.105 422.347 397.089L418.151 391.598Z" fill="#3E337A"/>

<path d="M422.156 397.222C421.004 395.238 419.574 393.392 417.96 391.777L418.283 391.454C419.897 393.116 421.326 395.007 422.525 396.991L422.156 397.222Z" fill="#3B3375"/>

<path d="M426.583 397.13C426.122 382.318 413.487 347.435 409.706 342.083L410.075 341.806C413.856 347.205 426.537 382.226 426.998 397.083L426.583 397.13Z" fill="#3B3375"/>

<path d="M436.405 397.083C436.405 396.53 435.299 343.329 435.068 338.023C434.837 332.716 430.503 320.766 428.658 315.644L428.612 315.598L429.027 315.459L429.073 315.506C430.918 320.627 435.299 332.67 435.529 338.023C435.76 343.329 436.866 396.53 436.866 397.083H436.405Z" fill="#3B3375"/>

<path d="M430.503 397.176C430.457 397.037 429.027 393.9 430.503 388.086C430.687 387.255 430.918 386.563 431.056 385.963C432.025 382.318 432.117 382.041 430.503 377.427L430.918 377.289C432.578 382.041 432.44 382.411 431.471 386.102C431.333 386.702 431.102 387.394 430.918 388.224C429.488 393.854 430.872 396.945 430.918 396.991L430.503 397.176Z" fill="#3B3375"/>

<path d="M447.334 397.129H446.873C446.873 397.083 446.919 395.653 448.994 394.176L449.271 394.545C447.38 395.883 447.334 397.129 447.334 397.129Z" fill="#3B3375"/>

<path d="M438.133 352.092L437.671 352.098L438.267 397.127L438.729 397.121L438.133 352.092Z" fill="#3B3375"/>

<path d="M442.4 345.636C442.354 345.636 442.308 345.636 442.308 345.59C442.216 345.544 442.169 345.405 442.216 345.267L473.618 287.96C473.664 287.867 473.803 287.821 473.941 287.867C474.033 287.913 474.079 288.052 474.033 288.19L442.631 345.498C442.584 345.59 442.492 345.636 442.4 345.636Z" fill="white"/>

<path d="M462.736 308.584C462.644 308.584 462.597 308.538 462.551 308.492C462.459 308.4 462.505 308.261 462.597 308.169L469.238 303.74C469.33 303.647 469.468 303.693 469.56 303.786C469.653 303.878 469.607 304.016 469.514 304.109L462.874 308.538C462.828 308.584 462.782 308.584 462.736 308.584Z" fill="white"/>

<path d="M453.789 324.918C453.743 324.918 453.743 324.918 453.789 324.918C453.605 324.872 453.559 324.78 453.559 324.642L454.389 319.705C454.389 319.566 454.527 319.474 454.665 319.52C454.804 319.52 454.896 319.658 454.85 319.797L454.02 324.734C453.974 324.826 453.882 324.918 453.789 324.918Z" fill="white"/>

<path d="M425.938 307.477C425.846 307.477 425.753 307.431 425.707 307.293L410.536 253.492C410.49 253.354 410.582 253.261 410.675 253.215C410.813 253.169 410.905 253.261 410.951 253.354L426.122 307.154C426.168 307.293 426.076 307.385 425.984 307.431C425.984 307.477 425.938 307.477 425.938 307.477Z" fill="white"/>

<path d="M424.093 301.017C423.955 301.017 423.863 300.879 423.863 300.74L424.739 293.173C424.739 293.035 424.877 292.943 425.015 292.989C425.154 292.989 425.246 293.127 425.2 293.266L424.324 300.833C424.324 300.925 424.231 301.017 424.093 301.017Z" fill="white"/>

<path d="M419.989 286.345C419.943 286.345 419.897 286.345 419.851 286.299L416.07 282.93C415.977 282.838 415.977 282.7 416.07 282.607C416.162 282.515 416.3 282.515 416.392 282.607L420.174 285.976C420.266 286.068 420.266 286.206 420.174 286.299C420.081 286.299 420.035 286.345 419.989 286.345Z" fill="white"/>

<path d="M415.932 272.087C415.793 272.087 415.701 271.995 415.701 271.856L415.932 266.873C415.932 266.734 416.071 266.642 416.163 266.642C416.302 266.642 416.394 266.734 416.394 266.873L416.163 271.856C416.163 271.995 416.071 272.087 415.932 272.087Z" fill="white"/>

<path d="M371.156 360.493H371.11C370.787 360.493 370.741 360.447 371.11 352.095C371.709 339.13 381.163 335.069 388.079 332.116L388.448 331.932C388.587 331.886 388.679 331.932 388.771 332.07C388.817 332.209 388.771 332.301 388.633 332.393L388.264 332.578C381.439 335.485 372.124 339.453 371.571 352.142C371.433 355.325 371.341 357.263 371.341 358.417H371.387C371.525 358.417 371.617 358.555 371.617 358.648C371.433 360.355 371.341 360.493 371.156 360.493Z" fill="white"/>

<path d="M379.226 342.175C379.134 342.175 379.041 342.083 378.995 341.991C378.534 339.361 378.35 337.561 378.35 337.515C378.35 337.377 378.442 337.284 378.534 337.238C378.673 337.238 378.765 337.33 378.811 337.423C378.811 337.423 378.995 339.222 379.456 341.852C379.456 342.037 379.364 342.175 379.226 342.175Z" fill="white"/>

<path d="M369.265 346.421C369.173 346.421 369.081 346.374 369.034 346.282C368.988 346.19 369.034 346.051 369.127 345.959L372.908 344.16C373 344.114 373.139 344.16 373.231 344.252C373.277 344.344 373.231 344.483 373.139 344.575L369.357 346.374C369.311 346.421 369.311 346.421 369.265 346.421Z" fill="white"/>

<path d="M430.087 375.489C429.995 375.489 429.949 375.443 429.903 375.351C426.859 369.675 422.248 352.788 422.156 349.835C422.156 349.696 422.248 349.604 422.387 349.604C422.525 349.604 422.617 349.696 422.617 349.835C422.709 352.603 427.321 369.583 430.318 375.12C430.364 375.212 430.318 375.351 430.226 375.443C430.18 375.489 430.133 375.489 430.087 375.489Z" fill="white"/>

<path d="M424.278 358.832C424.186 358.832 424.14 358.786 424.093 358.74L421.05 354.449C420.958 354.356 421.004 354.218 421.096 354.126C421.188 354.033 421.327 354.08 421.419 354.172L424.462 358.463C424.555 358.555 424.508 358.694 424.416 358.786C424.37 358.832 424.324 358.832 424.278 358.832Z" fill="white"/>

<path d="M427.506 369.214C427.367 369.214 427.275 369.122 427.275 368.983V363.631C427.275 363.493 427.367 363.4 427.506 363.4C427.644 363.4 427.737 363.493 427.737 363.631V368.983C427.737 369.122 427.598 369.214 427.506 369.214Z" fill="white"/>

<path d="M486.161 403.728C486.023 403.728 485.93 403.635 485.93 403.497C485.93 401.374 483.579 391.592 482.518 389.332C481.504 387.163 471.313 381.718 466.794 380.519C466.655 380.472 466.609 380.38 466.609 380.242C466.655 380.103 466.747 380.057 466.886 380.057C471.635 381.257 481.872 386.794 482.933 389.101C484.04 391.454 486.391 401.236 486.391 403.451C486.391 403.635 486.299 403.728 486.161 403.728Z" fill="white"/>

<path d="M487.498 397.36C487.452 397.36 487.359 397.36 487.313 397.268L483.993 393.854C483.901 393.761 483.901 393.623 483.993 393.531C484.085 393.438 484.224 393.438 484.316 393.531L487.636 396.945C487.728 397.037 487.728 397.176 487.636 397.268C487.636 397.314 487.544 397.36 487.498 397.36Z" fill="white"/>

<path d="M474.725 388.732C474.633 388.732 474.495 388.64 474.495 388.547L473.618 383.241C473.618 383.103 473.664 383.01 473.803 382.964C473.941 382.964 474.033 383.01 474.079 383.149L474.956 388.455C474.956 388.593 474.91 388.686 474.725 388.732C474.771 388.732 474.725 388.732 474.725 388.732Z" fill="white"/>

<path d="M406.109 418.955C406.109 418.816 406.109 418.678 406.109 418.493H406.571V418.955H406.109Z" fill="#3B3375"/>

<path d="M457.343 397.132V419.003H406.343C406.343 418.865 406.343 418.726 406.343 418.542V397.132H457.343Z" fill="#F09956"/>

<path d="M457.571 419.185H406.109V396.853H457.571V419.185ZM406.57 418.723H457.11V397.314H406.57V418.723Z" fill="#3B3375"/>

<path d="M457.346 418.96C457.392 428.327 452.135 436.955 443.789 441.2C440.054 443.138 435.95 444.107 431.754 444.107C427.603 444.107 423.545 443.092 419.856 441.154C411.648 436.771 406.438 428.281 406.299 418.914L457.346 418.96Z" fill="white"/>

<path d="M431.84 444.378C431.794 444.378 431.748 444.378 431.702 444.378C427.551 444.378 423.401 443.363 419.758 441.379C411.458 436.949 406.247 428.367 406.109 418.954V418.724H457.571V418.954C457.617 428.459 452.36 437.088 443.875 441.425C440.186 443.363 435.99 444.378 431.84 444.378ZM431.748 443.917H431.794C435.898 443.917 440.002 442.902 443.645 441.01C451.899 436.765 457.017 428.459 457.064 419.185H406.57C406.801 428.321 411.919 436.673 419.989 440.964C423.586 442.855 427.644 443.871 431.702 443.871C431.748 443.917 431.748 443.917 431.748 443.917Z" fill="#3B3375"/>

<path d="M443.83 441.241V448.993H419.898V441.195C423.54 443.133 427.645 444.148 431.795 444.148C435.945 444.148 440.095 443.133 443.83 441.241Z" fill="#3E337A"/>

<path d="M444.06 449.223H419.666V440.779L419.989 440.963C423.586 442.855 427.644 443.87 431.702 443.87C431.748 443.87 431.794 443.87 431.84 443.87C435.944 443.87 440.048 442.855 443.691 440.963L444.014 440.779V449.223H444.06ZM420.128 448.761H443.599V441.609C439.956 443.409 435.944 444.378 431.886 444.378C431.84 444.378 431.794 444.378 431.748 444.378C427.736 444.378 423.724 443.409 420.128 441.563V448.761Z" fill="#3B3375"/>

<path d="M463.012 449.224H404.449C404.311 449.224 404.219 449.131 404.219 448.993C404.219 448.854 404.311 448.761 404.449 448.761H462.966C463.104 448.761 463.197 448.854 463.197 448.993C463.197 449.131 463.104 449.224 463.012 449.224Z" fill="#3B3375"/>

<path d="M237.66 449.915L210.361 449.5C210.223 449.5 210.131 449.408 210.131 449.269C210.131 449.131 210.223 449.039 210.361 449.039L237.66 449.454C237.798 449.454 237.89 449.546 237.89 449.685C237.89 449.823 237.752 449.915 237.66 449.915Z" fill="#3B3375"/>

<path d="M131.417 450.792L104.118 450.377C103.98 450.377 103.887 450.284 103.887 450.146C103.887 450.007 103.98 449.915 104.118 449.915L131.417 450.33C131.555 450.33 131.647 450.423 131.647 450.561C131.647 450.699 131.555 450.792 131.417 450.792Z" fill="#3B3375"/>

</g>

</g>

<defs>

<filter id="filter0_d" x="19" y="41.3818" width="520" height="481.092" filterUnits="userSpaceOnUse" color-interpolation-filters="sRGB">

<feFlood flood-opacity="0" result="BackgroundImageFix"/>

<feColorMatrix in="SourceAlpha" type="matrix" values="0 0 0 0 0 0 0 0 0 0 0 0 0 0 0 0 0 0 127 0"/>

<feOffset dy="3.38178"/>

<feGaussianBlur stdDeviation="22.5"/>

<feColorMatrix type="matrix" values="0 0 0 0 0.375913 0 0 0 0 0.368333 0 0 0 0 0.425 0 0 0 0.06 0"/>

<feBlend mode="normal" in2="BackgroundImageFix" result="effect1_dropShadow"/>

<feBlend mode="normal" in="SourceGraphic" in2="effect1_dropShadow" result="shape"/>

</filter>

<clipPath id="clip0">

<rect width="430" height="391.092" fill="white" transform="translate(64 83)"/>

</clipPath>

</defs>

</svg>

