<svg width="558" height="558" viewBox="0 0 558 558" fill="none" xmlns="http://www.w3.org/2000/svg">
<rect width="558" height="558" fill="white"/>
<path d="M499.251 125V420.098H128.997C128.997 420.098 134.661 366.533 201.957 336.4C269.252 306.267 334.261 227.245 350.474 202.204C366.687 177.162 408.208 142.665 434.502 135.807C460.797 128.949 499.251 125 499.251 125Z" fill="#F7F9FF"/>
<path d="M86.3857 151.03V283.2H252.259C252.259 283.2 249.713 259.197 219.573 245.741C189.433 232.285 160.281 196.853 153.057 185.631C145.834 174.409 127.179 158.927 115.382 155.861C103.586 152.796 86.3857 151.03 86.3857 151.03Z" fill="#F7F9FF"/>
<path d="M293 427.32C292.845 427.32 292.741 427.164 292.741 427.06L299.392 342.063C299.392 341.907 299.548 341.804 299.652 341.804C299.808 341.804 299.912 341.959 299.912 342.063L293.26 427.06C293.26 427.216 293.156 427.32 293 427.32Z" fill="#3B3375"/>
<path d="M355.412 314.53C355.36 314.582 354.789 315.153 354.737 315.205C352.762 317.024 341.745 325.544 328.962 322.115C319.037 319.465 318.101 313.906 318.101 311.568C318.101 311.465 318.101 311.309 318.101 311.205C318.101 310.893 318.153 310.685 318.153 310.581C319.348 310.581 320.596 310.581 321.947 310.633C321.947 310.633 326.623 319.673 338.731 318.011C348.917 316.66 350.112 312.971 350.112 312.971C350.684 313.127 353.282 313.75 355.412 314.53Z" fill="#3B3375"/>
<path d="M335.197 323.205C333.17 323.205 331.091 322.945 328.909 322.373C319.295 319.776 317.84 314.528 317.84 311.567V311.203C317.84 310.995 317.84 310.84 317.892 310.736C317.892 310.684 317.892 310.632 317.892 310.58V310.32H318.152C319.347 310.32 320.646 310.32 321.945 310.372H322.101L322.153 310.528C322.153 310.528 323.348 312.762 325.947 314.736C328.337 316.555 332.494 318.581 338.678 317.749C348.5 316.399 349.851 312.918 349.851 312.918L349.955 312.71L350.163 312.762C350.267 312.762 350.37 312.814 350.578 312.866C351.514 313.074 353.696 313.645 355.515 314.321L355.411 314.528L355.567 314.736C355.515 314.788 354.943 315.308 354.891 315.36C354.788 315.463 346.421 323.205 335.197 323.205ZM318.36 310.84C318.36 310.944 318.36 311.047 318.36 311.203V311.567C318.36 314.321 319.711 319.36 329.013 321.854C340.601 324.971 351.358 317.957 354.528 314.996C354.528 314.996 354.736 314.788 354.891 314.632C353.177 314.009 351.254 313.541 350.422 313.333C350.37 313.333 350.267 313.281 350.215 313.281C349.747 314.113 347.616 317.022 338.73 318.269C327.402 319.828 322.413 312.035 321.737 310.892C320.594 310.84 319.451 310.84 318.36 310.84ZM355.411 314.528L355.567 314.736L355.411 314.528Z" fill="#3B3375"/>
<path d="M369.234 428.671C369.078 428.671 368.974 428.567 368.974 428.411V387.264C368.974 387.108 369.078 387.004 369.234 387.004C369.391 387.004 369.495 387.108 369.495 387.264V428.411C369.495 428.567 369.391 428.671 369.234 428.671Z" fill="#3B3375"/>
<path d="M314.204 292.293L314.256 292.397C315.295 294.423 317.114 297.281 320.803 298.683C321.583 298.995 322.414 299.203 323.246 299.307C331.456 300.554 341.122 293.904 345.955 288.552C347.098 287.305 348.137 285.955 349.125 284.552L350.06 283.253C351.567 284.344 353.853 284.396 355.464 283.876L355.568 283.825L355.828 283.721C356.036 283.617 356.192 283.565 356.4 283.461C356.712 283.305 356.971 283.149 357.231 282.941C357.751 282.578 358.219 282.11 358.582 281.591C358.79 281.279 358.998 280.967 359.154 280.655C359.258 280.499 359.31 280.344 359.414 280.136C359.622 279.668 359.726 279.149 359.829 278.629C359.985 277.798 359.933 276.915 359.777 276.083C359.518 274.733 358.842 273.486 357.907 272.499C357.803 272.395 357.647 272.291 357.543 272.187L357.179 271.927C356.919 271.771 356.66 271.615 356.4 271.46C355.984 271.252 355.568 271.148 355.153 271.044C354.997 270.992 354.893 270.992 354.737 270.94C352.346 270.524 349.956 271.2 349.54 270.836C349.28 270.628 349.28 270.213 349.332 269.641C349.436 268.862 349.8 267.823 350.008 266.628C350.112 266.004 350.216 265.381 350.216 264.757C350.216 264.602 350.216 264.446 350.216 264.29C350.164 263.251 349.852 262.212 349.332 261.277C348.709 260.082 347.981 258.991 347.046 258.055C346.422 257.38 345.747 256.809 345.019 256.237C343.928 255.458 342.785 254.782 341.59 254.263C341.226 254.107 340.914 253.951 340.498 253.795C340.29 253.743 340.135 253.639 339.927 253.587L338.731 253.12C335.614 252.029 331.768 250.938 328.754 250.055C328.13 249.899 327.559 249.743 327.039 249.587C326.312 249.379 325.688 249.223 325.116 249.067L324.701 248.964C324.337 248.86 324.025 248.756 323.765 248.652C323.661 248.652 323.61 248.6 323.506 248.548C323.09 248.444 322.726 248.288 322.362 248.132C321.999 247.976 321.635 247.821 321.323 247.613C321.323 247.613 316.854 257.276 314.671 264.498C312.541 271.771 310.306 285.279 314.204 292.293Z" fill="white"/>
<path d="M325.375 299.721C324.647 299.721 323.972 299.669 323.244 299.565C322.361 299.41 321.53 299.202 320.75 298.89C316.957 297.487 315.138 294.578 314.046 292.5L313.995 292.396C309.889 285.07 312.488 270.939 314.462 264.445C316.593 257.327 321.062 247.664 321.114 247.56C321.166 247.508 321.218 247.456 321.27 247.404C321.322 247.404 321.426 247.404 321.478 247.456C321.737 247.612 322.049 247.767 322.465 247.975C322.829 248.131 323.192 248.287 323.608 248.391C323.712 248.443 323.764 248.443 323.868 248.495C324.128 248.599 324.44 248.703 324.803 248.807L325.219 248.91C325.635 249.014 326.154 249.17 326.726 249.326L327.142 249.43C327.506 249.534 327.921 249.638 328.285 249.742L328.857 249.898C332.078 250.781 335.768 251.872 338.886 252.963L340.081 253.43C340.289 253.482 340.497 253.586 340.653 253.638C341.017 253.794 341.38 253.95 341.744 254.106C342.991 254.625 344.134 255.301 345.226 256.132C345.953 256.704 346.629 257.275 347.304 257.95C348.24 258.938 349.019 260.029 349.643 261.224C350.162 262.211 350.474 263.25 350.526 264.341V264.86C350.526 265.484 350.422 266.159 350.318 266.783C350.214 267.406 350.059 268.029 349.903 268.549C349.799 269.017 349.695 269.432 349.643 269.796C349.539 270.315 349.591 270.627 349.747 270.731C349.903 270.835 350.578 270.783 351.15 270.731C352.137 270.627 353.488 270.523 354.839 270.783C354.995 270.783 355.151 270.835 355.307 270.887C355.723 270.991 356.19 271.147 356.606 271.303C356.866 271.458 357.178 271.614 357.438 271.77L357.801 272.03C357.957 272.134 358.061 272.238 358.165 272.342C359.153 273.381 359.828 274.68 360.14 276.082C360.348 276.965 360.348 277.849 360.192 278.732C360.088 279.251 359.932 279.823 359.776 280.291C359.724 280.498 359.62 280.654 359.516 280.81C359.36 281.174 359.153 281.485 358.945 281.797C358.581 282.317 358.113 282.784 357.542 283.2C357.282 283.408 357.022 283.564 356.71 283.719C356.554 283.823 356.346 283.927 356.139 283.979L355.775 284.135C354.216 284.655 351.929 284.655 350.318 283.616L349.539 284.707C348.552 286.109 347.46 287.46 346.317 288.707C342.004 293.383 333.326 299.721 325.375 299.721ZM321.426 248.079C320.698 249.69 316.853 258.21 314.93 264.652C313.007 271.043 310.409 285.018 314.462 292.188C314.462 292.188 314.462 292.188 314.462 292.24L314.514 292.344C315.553 294.318 317.32 297.124 320.906 298.474C321.685 298.786 322.517 298.994 323.296 299.098C331.559 300.397 341.276 293.435 345.797 288.395C346.941 287.148 347.98 285.798 348.967 284.447L349.903 283.148C350.007 283.044 350.162 282.992 350.266 283.096C351.773 284.187 354.008 284.187 355.463 283.719L355.515 283.668L355.775 283.564C355.931 283.512 356.139 283.408 356.294 283.304C356.554 283.148 356.814 282.992 357.074 282.784C357.594 282.421 358.009 282.005 358.373 281.485C358.581 281.226 358.737 280.914 358.945 280.602C359.049 280.446 359.101 280.291 359.153 280.083C359.36 279.615 359.464 279.096 359.568 278.628C359.724 277.797 359.672 277.017 359.516 276.186C359.256 274.887 358.633 273.692 357.697 272.705C357.594 272.601 357.49 272.497 357.334 272.394L356.97 272.134C356.762 271.978 356.502 271.822 356.242 271.718C355.879 271.562 355.463 271.406 355.047 271.303C354.891 271.251 354.787 271.251 354.632 271.199C353.332 270.991 352.033 271.095 351.046 271.147C350.111 271.199 349.591 271.251 349.279 271.043C348.863 270.731 348.915 270.16 349.019 269.588C349.071 269.224 349.175 268.757 349.331 268.289C349.487 267.77 349.591 267.198 349.695 266.575C349.799 265.951 349.903 265.38 349.903 264.756V264.289C349.851 263.25 349.539 262.315 349.071 261.379C348.5 260.236 347.72 259.145 346.837 258.21C346.213 257.587 345.538 256.963 344.862 256.444C343.823 255.664 342.679 254.989 341.484 254.47C341.12 254.314 340.809 254.158 340.393 254.002C340.185 253.95 340.029 253.846 339.821 253.794L338.626 253.327C335.56 252.236 331.871 251.144 328.649 250.261L328.077 250.105C327.661 250.001 327.298 249.898 326.934 249.794L326.518 249.69C325.947 249.534 325.479 249.378 325.011 249.274L324.595 249.17C324.232 249.066 323.92 248.962 323.66 248.859C323.556 248.859 323.452 248.807 323.4 248.755C322.985 248.651 322.621 248.495 322.257 248.339C321.945 248.339 321.685 248.235 321.426 248.079Z" fill="#3B3375"/>
<path d="M314.1 292.293C314.1 292.344 314.151 292.344 314.151 292.396L314.1 292.293Z" fill="white"/>
<path d="M314.151 292.709C314.047 292.709 313.995 292.657 313.943 292.605C313.891 292.552 313.891 292.5 313.839 292.448C313.787 292.344 313.839 292.292 313.891 292.24C313.943 292.188 313.995 292.136 314.099 292.136C314.203 292.136 314.308 292.188 314.36 292.292L314.412 292.396C314.464 292.5 314.412 292.657 314.308 292.709C314.203 292.657 314.151 292.709 314.151 292.709Z" fill="#3B3375"/>
<path d="M321.166 247.716C321.893 248.08 322.621 248.391 323.349 248.651C325.375 249.378 335.976 251.976 341.433 254.314C346.889 256.652 349.955 261.276 350.059 264.341C350.163 267.406 348.5 270.264 349.383 270.939C350.267 271.615 357.854 268.601 359.672 276.135C360.4 279.252 358.789 282.473 355.827 283.772C355.047 284.135 354.164 284.395 353.281 284.447V284.499C353.281 284.603 353.333 284.759 353.385 284.863C353.592 285.33 354.112 286.006 355.567 286.266C359.309 286.837 363.102 285.85 366.064 283.512C370.325 280.187 369.858 274.576 369.858 274.576C369.858 274.576 375.054 268.809 372.82 261.899C370.585 254.989 363.31 250.989 359.413 249.846C359.413 249.846 357.75 237.273 350.734 232.857C344.914 229.22 340.237 232.597 340.237 232.597C336.08 229.116 327.402 225.376 317.892 229.22C310.669 232.182 311.864 243.092 321.166 247.716Z" fill="#3B3375"/>
<path d="M357.646 286.681C356.918 286.681 356.243 286.629 355.515 286.525C353.956 286.265 353.333 285.434 353.125 284.966C353.073 284.862 353.021 284.707 353.021 284.551V284.187H353.281C354.112 284.135 354.944 283.875 355.723 283.512C358.529 282.265 360.088 279.2 359.413 276.186C358.114 270.679 353.645 271.043 350.994 271.251C350.059 271.303 349.487 271.354 349.227 271.147C348.656 270.679 348.864 269.692 349.227 268.341C349.487 267.198 349.851 265.795 349.799 264.341C349.695 261.327 346.681 256.859 341.329 254.521C337.483 252.859 331.143 251.093 326.934 249.898C325.219 249.43 323.92 249.066 323.297 248.858C322.517 248.599 321.79 248.287 321.062 247.923C315.97 245.378 312.852 240.702 313.008 235.974C313.163 232.701 314.878 230.155 317.84 228.96C326.986 225.271 335.613 228.389 340.289 232.285C340.705 232.025 341.744 231.454 343.303 231.09C345.07 230.727 347.824 230.675 350.942 232.597C354.632 234.883 356.814 239.455 358.01 242.884C359.101 246.105 359.569 248.91 359.673 249.638C363.414 250.781 370.793 254.677 373.08 261.795C375.158 268.341 370.741 273.9 370.118 274.628C370.17 275.459 370.222 280.602 366.22 283.719C363.726 285.642 360.712 286.681 357.646 286.681ZM353.593 284.655C353.593 284.655 353.593 284.707 353.645 284.707C353.8 285.07 354.268 285.746 355.619 286.005C359.257 286.577 362.998 285.59 365.908 283.304C370.014 280.083 369.598 274.628 369.598 274.576V274.472L369.65 274.368C369.702 274.316 374.743 268.601 372.56 261.951C370.273 254.937 362.946 251.144 359.361 250.105L359.205 250.053V249.898C359.205 249.794 357.49 237.377 350.682 233.117C345.07 229.636 340.497 232.857 340.445 232.857L340.289 232.961L340.134 232.805C335.561 228.96 327.09 225.791 318.048 229.428C315.294 230.519 313.683 232.909 313.527 235.974C313.371 240.494 316.385 245.014 321.27 247.456C321.946 247.819 322.673 248.131 323.453 248.391C324.024 248.599 325.375 248.962 327.038 249.43C331.247 250.625 337.639 252.391 341.537 254.054C347.045 256.444 350.215 261.12 350.319 264.341C350.371 265.847 350.007 267.302 349.747 268.497C349.487 269.588 349.227 270.523 349.539 270.731C349.695 270.835 350.371 270.783 350.942 270.731C353.593 270.523 358.477 270.108 359.932 276.082C360.66 279.355 358.997 282.68 355.931 283.979C355.152 284.343 354.372 284.551 353.593 284.655Z" fill="#3B3375"/>
<path d="M320.698 278.784C320.646 278.784 320.594 278.784 320.594 278.732C320.49 278.68 317.84 277.122 317.112 275.927C316.437 274.836 317.892 273.329 319.919 271.251C320.334 270.835 320.75 270.42 321.166 269.952C321.27 269.848 321.426 269.848 321.53 269.952C321.633 270.056 321.633 270.212 321.53 270.316C321.114 270.783 320.698 271.199 320.282 271.614C318.516 273.433 317.112 274.888 317.58 275.667C318.204 276.758 320.854 278.265 320.906 278.265C321.01 278.317 321.062 278.472 321.01 278.628C320.854 278.732 320.75 278.784 320.698 278.784Z" fill="#3B3375"/>
<path d="M330.468 275.771C329.948 277.433 331.663 279.511 334.366 280.395C337.068 281.278 339.666 280.654 340.186 278.992C340.705 277.329 338.99 275.251 336.288 274.368C333.586 273.485 331.04 274.108 330.468 275.771Z" fill="#F4F0F9"/>
<path d="M313.891 270.367C313.631 271.147 314.462 272.186 315.761 272.601C317.061 273.017 318.308 272.705 318.568 271.926C318.827 271.147 317.996 270.108 316.697 269.692C315.398 269.276 314.15 269.536 313.891 270.367Z" fill="#F4F0F9"/>
<path d="M332.462 269.183C332.982 268.257 332.713 267.121 331.862 266.644C331.01 266.168 329.898 266.532 329.378 267.458C328.858 268.383 329.126 269.52 329.978 269.996C330.829 270.472 331.941 270.108 332.462 269.183Z" fill="#3B3375"/>
<path d="M330.781 270.472C330.469 270.472 330.157 270.368 329.845 270.212C328.858 269.641 328.546 268.342 329.17 267.303C329.742 266.264 331.041 265.848 332.028 266.368C333.015 266.939 333.327 268.238 332.704 269.277C332.288 270.057 331.56 270.472 330.781 270.472ZM331.093 266.68C330.521 266.68 329.949 266.991 329.638 267.563C329.17 268.342 329.43 269.329 330.157 269.745C330.885 270.16 331.82 269.849 332.288 269.017C332.756 268.238 332.496 267.251 331.768 266.835C331.56 266.732 331.3 266.68 331.093 266.68Z" fill="#3B3375"/>
<path d="M335.197 270.315C335.093 270.315 334.989 270.263 334.937 270.159C333.534 266.055 330.831 266.678 330.676 266.73C330.52 266.782 330.416 266.678 330.364 266.522C330.312 266.367 330.416 266.263 330.572 266.211C330.624 266.211 333.897 265.379 335.456 270.003C335.508 270.159 335.404 270.263 335.301 270.315C335.301 270.315 335.249 270.315 335.197 270.315Z" fill="#3B3375"/>
<path d="M340.601 262.678C340.497 262.678 340.393 262.626 340.393 262.522C339.406 260.496 336.496 259.717 335.664 259.561C335.508 259.509 335.456 259.405 335.456 259.249C335.508 259.093 335.612 259.041 335.768 259.041C336.703 259.249 339.769 260.08 340.861 262.314C340.913 262.418 340.861 262.574 340.757 262.678C340.653 262.678 340.601 262.678 340.601 262.678Z" fill="#3B3375"/>
<path d="M321.322 255.926C321.218 255.926 321.114 255.874 321.062 255.77C321.01 255.614 321.114 255.51 321.218 255.457C322.517 255.041 323.972 254.989 325.323 255.249C325.479 255.301 325.531 255.405 325.531 255.562C325.479 255.718 325.375 255.77 325.219 255.77C323.972 255.51 322.621 255.562 321.374 255.926H321.322Z" fill="#3B3375"/>
<path d="M321.026 264.596C321.442 263.651 321.14 262.604 320.352 262.258C319.563 261.913 318.587 262.399 318.17 263.344C317.754 264.29 318.056 265.336 318.844 265.682C319.633 266.028 320.609 265.541 321.026 264.596Z" fill="#3B3375"/>
<path d="M319.401 266.057C319.193 266.057 318.933 266.005 318.725 265.901C317.79 265.485 317.426 264.29 317.894 263.199C318.362 262.108 319.505 261.589 320.44 262.004C320.908 262.212 321.22 262.628 321.376 263.147C321.531 263.667 321.48 264.238 321.272 264.706C321.064 265.174 320.648 265.641 320.18 265.849C319.921 266.005 319.661 266.057 319.401 266.057ZM318.362 263.459C317.998 264.29 318.258 265.174 318.933 265.485C319.245 265.641 319.609 265.589 319.973 265.433C320.336 265.277 320.648 264.914 320.804 264.55C320.96 264.134 321.012 263.719 320.908 263.303C320.804 262.94 320.544 262.628 320.232 262.524C319.557 262.212 318.725 262.628 318.362 263.459Z" fill="#3B3375"/>
<path d="M322.257 263.821C322.153 263.821 322.101 263.769 322.049 263.665C321.322 262.418 319.919 262.21 319.451 262.418C319.295 262.47 319.191 262.418 319.087 262.314C319.035 262.158 319.087 262.054 319.191 261.95C319.867 261.639 321.582 261.898 322.465 263.405C322.517 263.509 322.517 263.665 322.361 263.769C322.361 263.821 322.309 263.821 322.257 263.821Z" fill="#3B3375"/>
<path d="M327.402 289.435C327.246 289.435 327.142 289.331 327.142 289.175C327.142 289.019 327.246 288.915 327.402 288.915C330.104 288.655 332.598 287.616 334.625 285.85C334.729 285.746 334.885 285.746 334.989 285.902C335.093 286.006 335.093 286.161 334.937 286.265C332.806 288.084 330.208 289.175 327.402 289.435Z" fill="#3B3375"/>
<path d="M321.946 310.632C321.686 315.62 337.744 324.972 350.111 312.97L349.072 284.552C348.085 285.954 347.045 287.253 345.902 288.552C341.069 293.903 331.404 300.553 323.141 299.307C322.258 299.151 322.985 299.462 322.258 299.151L321.946 310.632Z" fill="white"/>
<path d="M336.444 319.1C332.598 319.1 329.48 317.957 328.129 317.333C324.232 315.567 321.582 312.813 321.685 310.631L321.997 298.838L322.361 298.942C322.465 298.994 322.569 299.046 322.621 299.046C322.725 298.994 322.881 299.046 323.192 299.098C331.455 300.396 341.173 293.435 345.694 288.395C346.837 287.148 347.876 285.797 348.863 284.447L349.331 283.823L350.422 313.073L350.318 313.177C345.538 317.801 340.549 319.1 336.444 319.1ZM322.517 299.565L322.205 310.631C322.101 312.554 324.699 315.203 328.337 316.814C331.143 318.061 340.861 321.49 349.851 312.865L348.863 285.33C347.98 286.525 347.045 287.616 346.109 288.707C341.536 293.798 331.611 300.864 323.141 299.565C322.933 299.513 322.829 299.513 322.777 299.513C322.725 299.617 322.621 299.617 322.517 299.565Z" fill="#3B3375"/>
<path d="M190.681 320.347H79.0067C67.99 320.347 59 311.359 59 300.345V148.12C59 137.054 67.99 128.118 79.0067 128.118H272.578C283.595 128.118 292.585 137.106 292.585 148.12V172.798C292.585 172.954 292.481 173.058 292.325 173.058C292.169 173.058 292.065 172.954 292.065 172.798V148.12C292.065 137.366 283.335 128.637 272.578 128.637H79.0067C68.2499 128.637 59.5197 137.366 59.5197 148.12V300.345C59.5197 311.047 68.2499 319.827 79.0067 319.827H190.681C190.836 319.827 190.94 319.931 190.94 320.087C190.94 320.243 190.836 320.347 190.681 320.347Z" fill="#3B3375"/>
<path d="M364.974 347.26C364.974 346.897 364.974 346.533 364.974 346.169V345.91L365.026 345.494C365.026 345.286 365.078 345.13 365.078 344.922C365.078 344.715 365.13 344.559 365.13 344.351C365.286 343.104 365.597 341.909 365.961 340.714C366.013 340.558 366.065 340.403 366.117 340.195C366.169 339.987 366.221 339.883 366.273 339.727C366.325 339.571 366.429 339.26 366.533 339.052C366.637 338.844 366.637 338.74 366.741 338.636C367.001 338.065 367.26 337.493 367.572 336.974L367.78 336.61C368.352 335.675 368.975 334.74 369.703 333.856C369.807 333.752 369.911 333.597 370.014 333.493C370.118 333.389 370.17 333.285 370.274 333.181C370.378 333.077 370.482 332.973 370.534 332.869L371.106 332.246C371.21 332.142 371.314 332.038 371.418 331.934C371.885 331.518 372.353 331.103 372.821 330.687L373.184 330.427C373.548 330.168 373.912 329.856 374.276 329.648L374.639 329.388C374.847 329.232 375.107 329.077 375.315 328.973L375.783 328.713C375.991 328.609 376.25 328.453 376.458 328.349L376.874 328.141C377.238 327.986 377.601 327.83 377.913 327.674C378.173 327.57 378.381 327.466 378.641 327.362L379.005 327.258L379.368 327.154L379.784 327.05C379.992 326.998 380.252 326.946 380.46 326.895L380.823 326.843L381.187 326.791L381.551 326.739C381.759 326.687 382.019 326.687 382.226 326.687H382.538C383.629 326.635 384.721 326.791 385.76 327.258C392.308 330.791 407.793 372.614 417.147 402.851C420.681 414.281 414.289 426.386 402.857 429.919C400.986 430.49 399.063 430.802 397.089 430.854L292.482 433.919L292.95 427.945V427.789L293.002 427.269L293.054 426.178C292.17 427.113 282.868 427.581 270.137 427.789C263.589 427.893 256.158 427.945 248.519 427.945C224.511 427.945 198.165 427.529 189.902 427.373H189.746H188.395C188.291 427.373 188.187 427.321 188.083 427.269C184.238 427.269 181.12 419.632 181.12 410.28C181.068 406.799 181.536 403.37 182.523 400.045C183.043 398.175 183.874 396.461 185.069 394.954C185.277 394.798 185.485 394.59 185.641 394.331C186.109 393.863 186.68 393.551 187.304 393.343L188.551 393.291L261.511 389.811L266.032 389.603L268.11 389.499C270.553 389.395 272.579 387.94 273.099 385.966C273.411 384.771 273.878 383.16 274.45 381.238C274.762 380.095 275.126 378.848 275.541 377.497C281.205 358.275 293.313 320.192 295.912 317.023C297.367 315.153 299.341 313.75 301.628 313.127H301.68H301.784H301.836C302.2 313.075 311.034 310.997 317.945 310.945C317.997 310.945 318.101 310.945 318.153 310.997C318.361 311.101 318.517 311.308 318.465 311.516C318.361 313.387 318.673 318.79 327.299 322.011C327.974 322.271 328.702 322.53 329.481 322.738C340.966 325.959 350.579 319.101 354.009 316.192C354.269 315.984 354.477 315.776 354.685 315.621C354.893 315.465 355.048 315.309 355.152 315.205C355.308 315.049 355.464 315.049 355.672 315.101C362.843 317.751 376.146 322.894 382.59 325.959H382.642C386.488 327.622 383.006 326.946 382.486 326.946H382.226C382.019 326.946 381.759 326.998 381.551 326.998L381.187 327.05L380.823 327.102L380.46 327.154C380.252 327.206 379.992 327.258 379.784 327.31L379.368 327.414L379.005 327.518L378.641 327.622C378.381 327.726 378.173 327.83 377.913 327.934C377.549 328.089 377.186 328.245 376.874 328.401L376.458 328.609C376.25 328.713 375.991 328.869 375.783 328.973L375.315 329.232C375.107 329.388 374.847 329.492 374.639 329.648L374.276 329.908C373.912 330.168 373.548 330.427 373.184 330.687L372.873 330.739C372.405 331.155 371.937 331.518 371.47 331.986C371.366 332.09 371.262 332.194 371.158 332.298L370.586 332.921C370.482 333.025 370.378 333.129 370.326 333.233C370.274 333.337 370.17 333.441 370.066 333.545C369.963 333.649 369.859 333.804 369.755 333.908C369.027 334.791 368.404 335.675 367.832 336.662L367.676 336.974C367.364 337.493 367.104 338.065 366.845 338.636C366.793 338.792 366.741 338.948 366.637 339.052C366.533 339.156 366.481 339.519 366.377 339.727C366.273 339.935 366.273 340.039 366.221 340.195C366.169 340.351 366.117 340.506 366.065 340.714C365.701 341.909 365.39 343.104 365.234 344.351C365.234 344.559 365.182 344.715 365.182 344.922C365.182 345.13 365.13 345.286 365.13 345.494L365.078 345.91V346.169C365.026 346.533 365.026 346.897 364.974 347.26C365.026 349.702 377.653 402.487 377.653 402.487L319.348 404.825" fill="#F3F2FC"/>
<path d="M292.221 433.97L292.689 427.736V427.58L292.793 426.385C291.39 426.905 286.713 427.528 270.136 427.788C264.16 427.892 257.041 427.944 248.466 427.944C225.394 427.944 199.775 427.528 189.849 427.372H188.342C188.238 427.372 188.082 427.32 187.978 427.268C183.925 427.164 180.807 419.631 180.807 410.02C180.755 406.539 181.223 403.058 182.21 399.681C182.73 397.81 183.613 396.044 184.808 394.485L184.86 394.433C185.068 394.278 185.224 394.122 185.38 393.914C185.9 393.394 186.523 393.031 187.199 392.823H187.251L188.498 392.771L268.057 388.978C270.396 388.874 272.318 387.524 272.838 385.653C273.202 384.354 273.669 382.744 274.189 380.873C274.501 379.731 274.865 378.484 275.28 377.133C281.204 357.079 293.105 319.672 295.703 316.555C297.158 314.632 299.236 313.23 301.575 312.606L301.887 312.554C304.121 312.087 311.812 310.476 317.944 310.372C318.048 310.372 318.152 310.372 318.256 310.424C318.568 310.528 318.775 310.84 318.724 311.203C318.62 313.749 319.555 318.529 327.402 321.438C328.077 321.698 328.805 321.958 329.584 322.166C340.861 325.335 350.319 318.685 353.852 315.671C354.112 315.464 354.32 315.256 354.528 315.1C354.736 314.944 354.892 314.788 354.995 314.684C355.203 314.477 355.515 314.425 355.775 314.528C363.154 317.23 376.405 322.374 382.693 325.335H382.797C384.252 325.958 384.668 326.27 384.72 326.53C385.083 326.634 385.447 326.738 385.811 326.894C392.515 330.53 408.312 373.34 417.354 402.642C420.94 414.176 414.444 426.437 402.908 430.022C401.037 430.593 399.062 430.957 397.087 431.009L292.221 433.97ZM293.416 425.242L293.26 427.58V427.736L292.793 433.451L397.087 430.385C399.01 430.333 400.933 430.022 402.804 429.45C414.08 425.969 420.368 413.968 416.886 402.746C411.846 386.484 405.61 368.612 400.153 354.949C393.554 338.427 388.513 328.868 385.655 327.309C385.239 327.101 384.824 326.997 384.356 326.894C384.096 326.945 383.68 326.894 383.161 326.842C382.901 326.842 382.641 326.79 382.589 326.79H382.225C382.069 326.79 381.914 326.79 381.706 326.842L380.562 327.049C380.355 327.101 380.147 327.153 379.887 327.205L378.744 327.569C378.484 327.673 378.276 327.777 378.016 327.829C377.652 327.985 377.341 328.14 376.977 328.296L376.561 328.504C376.353 328.608 376.145 328.764 375.886 328.868L375.21 329.283C375.054 329.387 374.898 329.491 374.742 329.595L374.379 329.855C373.963 330.167 373.599 330.426 373.339 330.634L372.976 330.946C372.508 331.31 372.04 331.725 371.624 332.193L371.52 332.297C371.469 332.349 371.365 332.453 371.313 332.505L370.741 333.128C370.637 333.232 370.533 333.336 370.481 333.44L370.377 333.544C370.325 333.596 370.273 333.648 370.221 333.699C370.169 333.751 370.117 333.855 370.065 333.907L369.962 334.063C369.286 334.894 368.662 335.83 368.091 336.765L367.935 337.076C367.675 337.544 367.415 338.064 367.103 338.739C367.051 338.895 366.999 338.999 366.896 339.155C366.844 339.31 366.688 339.622 366.636 339.83L366.584 339.934C366.532 340.09 366.48 340.142 366.428 340.298L366.376 340.401C366.324 340.557 366.272 340.661 366.22 340.817C365.856 342.012 365.544 343.207 365.389 344.402C365.389 344.506 365.389 344.61 365.337 344.766C365.337 344.818 365.337 344.921 365.285 344.973C365.285 345.181 365.233 345.337 365.233 345.545L365.181 345.961V346.22C365.181 346.376 365.181 346.584 365.181 346.74C365.181 346.896 365.181 347.104 365.181 347.259C365.181 349.597 377.652 401.863 377.808 402.382L377.86 402.694H377.548L319.347 405.032V404.512L377.341 402.226C376.197 397.499 364.765 349.649 364.765 347.259C364.765 347.259 364.765 347.259 364.765 347.207H364.713C364.713 346.844 364.713 346.48 364.765 346.116V345.857L364.817 345.441C364.817 345.285 364.817 345.129 364.869 344.973V344.818C364.869 344.61 364.921 344.454 364.921 344.246C365.077 342.999 365.389 341.752 365.752 340.557L365.908 340.038C365.96 339.882 366.012 339.778 366.064 339.622L366.116 339.518C366.168 339.362 366.272 339.051 366.376 338.843C366.48 338.635 366.532 338.531 366.584 338.375C366.844 337.804 367.103 337.232 367.467 336.661L367.675 336.297C368.247 335.31 368.87 334.375 369.598 333.544L369.65 333.44C369.702 333.336 369.806 333.232 369.858 333.18C369.91 333.076 370.013 333.024 370.065 332.972L370.117 332.92C370.221 332.816 370.325 332.712 370.429 332.608L371.001 331.985C371.053 331.881 371.157 331.829 371.209 331.777L371.313 331.673C371.78 331.258 372.248 330.79 372.716 330.426L373.079 330.115C373.443 329.855 373.807 329.543 374.171 329.283L374.534 329.024C374.69 328.92 374.846 328.816 375.002 328.712L375.678 328.296C375.886 328.14 376.145 328.036 376.353 327.933L376.821 327.725C377.185 327.569 377.548 327.361 377.912 327.205C378.172 327.101 378.432 326.997 378.64 326.894L379.783 326.53C379.991 326.478 380.251 326.426 380.459 326.374L381.498 326.166C381.758 326.114 381.966 326.114 382.173 326.114H382.537C382.953 326.062 383.317 326.114 383.732 326.114C383.473 326.01 383.161 325.854 382.693 325.647H382.589C376.301 322.685 363.05 317.542 355.671 314.84C355.567 314.84 355.515 314.84 355.411 314.892C355.307 314.996 355.151 315.152 354.943 315.308C354.736 315.464 354.528 315.671 354.268 315.879C350.682 318.945 341.017 325.751 329.532 322.477C328.753 322.27 328.025 322.01 327.298 321.75C319.191 318.737 318.152 313.749 318.308 310.996C318.308 310.892 318.256 310.788 318.152 310.736C318.1 310.736 318.1 310.736 318.048 310.736C311.968 310.84 304.277 312.45 302.095 312.918L301.731 312.97C299.548 313.593 297.574 314.892 296.171 316.763C293.624 319.828 281.776 357.131 275.852 377.133C275.436 378.484 275.073 379.731 274.761 380.873C274.241 382.692 273.773 384.354 273.41 385.601C272.838 387.679 270.707 389.186 268.161 389.29L261.562 389.602L187.355 393.342C186.783 393.498 186.263 393.81 185.796 394.226C185.64 394.433 185.432 394.641 185.224 394.797C184.081 396.304 183.25 397.966 182.73 399.785C181.743 403.11 181.275 406.539 181.327 409.968C181.327 419.215 184.341 426.697 188.082 426.697H188.186L188.238 426.749C188.29 426.801 188.342 426.801 188.394 426.801H189.901C199.826 426.957 225.445 427.372 248.518 427.372C257.092 427.372 264.16 427.32 270.136 427.216C288.947 426.905 292.481 426.125 292.897 425.658L293.416 425.242Z" fill="#3B3375"/>
<path d="M302.199 353.909H301.679V377.236H302.199V353.909Z" fill="#3B3375"/>
<path d="M189.747 427.164C187.253 427.164 155.865 427.216 154.878 426.957C153.891 426.697 148.798 424.723 150.721 404.72C151.033 401.707 158.36 398.226 164.648 397.603C164.7 397.343 165.583 393.81 163.972 391.836C160.231 387.16 163.4 375.47 168.909 383.991C170.468 386.381 181.069 398.33 182.472 399.785C181.484 403.11 181.017 406.591 181.069 410.02C181.069 419.423 184.187 427.009 188.032 427.009C188.136 427.061 188.24 427.112 188.344 427.112L189.747 427.164Z" fill="white"/>
<path d="M179.612 427.423C163.451 427.423 155.292 427.371 154.773 427.215C152.85 426.644 148.641 423.371 150.408 404.719C150.719 401.446 158.254 398.069 164.386 397.394C164.542 396.615 165.062 393.705 163.763 392.043C161.84 389.601 161.684 385.289 162.775 382.795C163.295 381.548 164.126 380.821 165.062 380.717C166.361 380.613 167.712 381.652 169.115 383.886C170.674 386.224 181.223 398.225 182.678 399.628L182.782 399.732L182.73 399.888C181.743 403.213 181.275 406.642 181.327 410.071C181.327 419.318 184.341 426.8 188.083 426.8H188.186L188.238 426.852C188.29 426.904 188.342 426.904 188.394 426.904L189.797 426.956V427.475H188.29C185.172 427.423 182.314 427.423 179.612 427.423ZM165.218 381.236C165.166 381.236 165.114 381.236 165.114 381.236C164.386 381.288 163.711 381.912 163.243 383.003C162.204 385.341 162.36 389.445 164.178 391.679C165.789 393.705 164.958 397.29 164.906 397.706L164.854 397.861H164.646C158.15 398.485 151.239 401.966 150.979 404.719C149.212 423.527 153.577 426.28 154.929 426.696C155.344 426.8 161.216 426.956 186.472 426.904C183.198 425.241 180.807 418.435 180.807 410.019C180.755 406.59 181.223 403.161 182.158 399.836C180.392 398.017 170.154 386.432 168.647 384.146C167.452 382.223 166.257 381.236 165.218 381.236Z" fill="#3B3375"/>
<path d="M158.099 421.033C157.995 421.033 157.943 420.981 157.891 420.877C157.839 420.773 157.839 420.617 157.995 420.513C158.827 420.046 159.762 419.786 160.697 419.734C161.269 419.682 161.944 419.682 162.568 419.63C164.543 419.578 166.777 419.526 169.375 418.487C173.481 416.928 173.273 409.759 173.169 405.031C173.169 404.044 173.117 403.161 173.117 402.381C173.117 401.082 172.701 399.991 171.87 399.212C170.519 397.965 167.92 397.446 164.595 397.757C164.439 397.757 164.335 397.653 164.335 397.55C164.335 397.394 164.439 397.29 164.543 397.29C166.985 397.03 170.311 397.134 172.234 398.9C173.169 399.784 173.637 400.979 173.637 402.433C173.637 403.161 173.637 404.096 173.689 405.031C173.845 410.226 174 417.292 169.583 418.955C166.881 419.994 164.491 420.046 162.62 420.098C161.944 420.098 161.321 420.15 160.749 420.201C159.866 420.253 159.034 420.513 158.255 420.929C158.203 421.033 158.151 421.033 158.099 421.033Z" fill="#3B3375"/>
<path d="M189.902 426.903H189.746V427.424H189.902V426.903Z" fill="#3B3375"/>
<path d="M163.451 423.111C163.399 423.111 163.295 423.059 163.243 423.007C162.411 422.02 161.528 421.085 160.541 420.253C160.437 420.149 160.437 419.994 160.541 419.89C160.645 419.786 160.8 419.786 160.904 419.89C161.892 420.773 162.827 421.708 163.659 422.747C163.763 422.851 163.711 423.007 163.607 423.111C163.555 423.059 163.503 423.111 163.451 423.111Z" fill="#3B3375"/>
<path d="M324.493 284.032C328.702 285.851 331.093 284.968 335.042 284.032C336.549 283.669 335.042 290.267 327.403 289.695" fill="white"/>
<path d="M328.337 290.006C328.025 290.006 327.713 290.006 327.35 289.954C327.194 289.954 327.09 289.798 327.09 289.694C327.09 289.538 327.246 289.434 327.35 289.434C332.39 289.798 334.365 287.044 334.833 286.161C335.352 285.226 335.352 284.55 335.196 284.343C335.196 284.343 335.144 284.291 335.04 284.291C334.625 284.395 334.261 284.499 333.897 284.55C330.571 285.33 328.181 285.953 324.336 284.239C324.18 284.187 324.128 284.031 324.18 283.875C324.232 283.719 324.388 283.667 324.543 283.719C328.233 285.33 330.416 284.81 333.741 283.979C334.105 283.875 334.521 283.771 334.885 283.719C335.144 283.667 335.404 283.719 335.56 283.927C335.924 284.395 335.768 285.33 335.248 286.317C334.833 287.304 332.962 290.006 328.337 290.006Z" fill="#3B3375"/>
<path d="M328.13 291.825C328.857 291.981 329.585 291.981 330.26 291.825H328.13Z" fill="white"/>
<path d="M329.22 292.241C328.856 292.241 328.44 292.189 328.077 292.137C327.921 292.085 327.869 291.98 327.869 291.824C327.921 291.668 328.025 291.616 328.181 291.616C328.856 291.772 329.532 291.772 330.207 291.616C330.363 291.564 330.467 291.668 330.519 291.824C330.571 291.98 330.467 292.085 330.311 292.137C329.947 292.189 329.584 292.241 329.22 292.241Z" fill="#3B3375"/>
<path d="M356.919 277.019C356.919 278.63 355.62 279.929 354.009 279.929C353.645 279.929 353.281 279.877 352.97 279.721L348.345 283.461L346.942 281.747L351.359 278.162C351.203 277.798 351.151 277.435 351.151 277.071C351.151 275.461 352.45 274.162 354.061 274.162C355.62 274.11 356.919 275.409 356.919 277.019Z" fill="white"/>
<path d="M348.343 283.667C348.239 283.667 348.188 283.615 348.136 283.563L346.732 281.849C346.629 281.745 346.681 281.589 346.784 281.485L351.046 278.056C350.942 277.744 350.89 277.381 350.89 277.017C350.89 275.303 352.293 273.848 354.06 273.848C355.774 273.848 357.23 275.251 357.23 277.017C357.23 277.069 357.23 277.069 357.23 277.121C357.178 278.835 355.774 280.186 354.06 280.186C353.696 280.186 353.384 280.134 353.072 280.03L348.551 283.667C348.447 283.667 348.395 283.667 348.343 283.667ZM347.304 281.745L348.395 283.096L352.812 279.511C352.864 279.459 352.968 279.459 353.072 279.459C353.384 279.563 353.696 279.667 354.008 279.667C355.463 279.667 356.658 278.472 356.658 277.017C356.658 276.965 356.658 276.965 356.658 276.913C356.606 275.51 355.463 274.367 354.008 274.367C352.553 274.367 351.357 275.562 351.357 277.017C351.357 277.381 351.409 277.692 351.565 278.056C351.617 278.16 351.565 278.264 351.513 278.368L347.304 281.745Z" fill="#3B3375"/>
<path d="M264.265 385.653C264.213 388.147 266.24 390.225 268.734 390.277H324.649V393.966H268.734C264.109 393.862 260.471 390.018 260.575 385.394C260.679 380.926 264.265 377.341 268.734 377.237H324.649V381.03L320.388 380.978H268.734V381.03C266.24 381.082 264.213 383.16 264.265 385.653Z" fill="#F09956"/>
<path d="M324.647 394.224H268.733C266.446 394.172 264.264 393.237 262.705 391.523C261.094 389.86 260.262 387.678 260.314 385.34C260.418 380.716 264.108 377.028 268.733 376.924H324.647C324.803 376.924 324.907 377.028 324.907 377.184V380.976C324.907 381.028 324.855 381.132 324.855 381.184C324.855 381.236 324.751 381.288 324.647 381.236L320.386 381.184H268.837C268.785 381.236 268.733 381.236 268.733 381.236C266.394 381.288 264.471 383.21 264.523 385.6C264.471 387.938 266.394 389.912 268.733 389.964H324.647C324.803 389.964 324.907 390.068 324.907 390.224V393.913C324.907 394.069 324.803 394.224 324.647 394.224ZM268.733 377.495C264.419 377.599 260.938 381.08 260.834 385.392C260.782 387.574 261.561 389.601 263.068 391.159C264.575 392.718 266.602 393.601 268.733 393.653H324.388V390.484H268.733C266.082 390.432 263.952 388.25 264.004 385.6C263.952 383.002 266.03 380.82 268.577 380.716C268.629 380.665 268.681 380.664 268.733 380.664H320.386L324.388 380.716V377.495H268.733Z" fill="#3B3375"/>
<path d="M320.388 380.977V390.277H268.735C266.188 390.173 264.162 388.043 264.266 385.497C264.37 383.055 266.292 381.133 268.735 381.029V380.977H320.388Z" fill="white"/>
<path d="M320.386 390.535H268.733C266.03 390.431 263.9 388.197 264.004 385.496C264.108 383.002 266.082 380.924 268.577 380.768C268.629 380.716 268.681 380.716 268.733 380.716H320.386C320.542 380.716 320.646 380.82 320.646 380.976V390.276C320.646 390.431 320.542 390.535 320.386 390.535ZM268.836 381.236C268.785 381.288 268.785 381.288 268.733 381.288C266.446 381.34 264.575 383.21 264.523 385.496C264.419 387.886 266.342 389.912 268.733 390.016H320.126V381.236H268.836Z" fill="#3B3375"/>
<path d="M330.885 402.434C330.937 404.928 328.91 407.006 326.416 407.058H270.501V410.747H326.416C331.041 410.643 334.678 406.798 334.574 402.174C334.47 397.706 330.885 394.121 326.416 394.018H270.501V397.81L274.762 397.758H326.416V397.81C328.91 397.862 330.937 399.94 330.885 402.434Z" fill="#3E337A"/>
<path d="M270.5 411.005C270.344 411.005 270.24 410.901 270.24 410.745V407.056C270.24 406.901 270.344 406.797 270.5 406.797H326.415C328.753 406.745 330.676 404.822 330.624 402.433C330.624 401.29 330.208 400.198 329.429 399.367C328.649 398.536 327.558 398.068 326.415 398.068C326.363 398.068 326.311 398.068 326.259 398.016H274.761L270.5 398.068C270.448 398.068 270.344 398.016 270.292 398.016C270.24 398.016 270.24 397.913 270.24 397.809V394.016C270.24 393.86 270.344 393.756 270.5 393.756H326.415C331.039 393.86 334.729 397.549 334.833 402.173C334.885 404.459 334.053 406.641 332.443 408.355C330.832 410.018 328.701 410.953 326.415 411.057H270.5V411.005ZM270.759 410.485H326.415C328.597 410.433 330.572 409.55 332.079 407.992C333.586 406.433 334.365 404.355 334.313 402.225C334.209 397.913 330.728 394.432 326.415 394.328H270.811V397.601L274.813 397.549H326.466C326.518 397.549 326.57 397.549 326.622 397.601C327.87 397.653 328.961 398.172 329.844 399.056C330.728 399.991 331.195 401.186 331.195 402.484C331.247 405.134 329.117 407.316 326.466 407.368H270.759V410.485Z" fill="#3B3375"/>
<path d="M274.762 397.811V407.111H326.416C328.962 407.007 330.989 404.877 330.885 402.331C330.781 399.889 328.858 397.967 326.416 397.863V397.811H274.762Z" fill="white"/>
<path d="M274.761 407.317C274.605 407.317 274.501 407.213 274.501 407.057V397.757C274.501 397.601 274.605 397.497 274.761 397.497H326.415C326.466 397.497 326.518 397.497 326.57 397.549C329.065 397.705 331.039 399.731 331.143 402.277C331.195 403.576 330.728 404.823 329.844 405.758C328.961 406.693 327.766 407.265 326.415 407.317H274.761ZM275.021 406.797H326.415C327.558 406.745 328.649 406.277 329.429 405.394C330.208 404.563 330.624 403.42 330.624 402.277C330.572 399.991 328.701 398.121 326.415 398.069C326.363 398.069 326.311 398.069 326.259 398.017H275.021V406.797Z" fill="#3B3375"/>
<path d="M323.921 419.267C323.973 421.761 321.946 423.839 319.452 423.891H263.537V427.58H319.452C324.077 427.476 327.714 423.631 327.611 419.007C327.507 414.539 323.921 410.955 319.452 410.851H263.537V414.643L267.798 414.591H319.452V414.643C321.946 414.695 323.973 416.773 323.921 419.267Z" fill="#F09956"/>
<path d="M263.536 427.838C263.38 427.838 263.276 427.734 263.276 427.578V423.89C263.276 423.734 263.38 423.63 263.536 423.63H319.451C321.789 423.578 323.712 421.656 323.66 419.266C323.66 418.123 323.244 417.032 322.465 416.2C321.685 415.369 320.594 414.902 319.451 414.902C319.399 414.902 319.347 414.902 319.295 414.85H267.797L263.536 414.902C263.484 414.902 263.38 414.85 263.328 414.85C263.276 414.798 263.276 414.746 263.276 414.642V410.849C263.276 410.693 263.38 410.589 263.536 410.589H319.451C324.076 410.693 327.765 414.382 327.869 419.006C327.921 421.292 327.089 423.474 325.479 425.188C323.868 426.851 321.737 427.786 319.451 427.89H263.536V427.838ZM263.796 427.319H319.451C321.633 427.267 323.608 426.383 325.115 424.825C326.622 423.266 327.401 421.188 327.349 419.058C327.245 414.746 323.764 411.265 319.451 411.161H263.796V414.434L267.797 414.382H319.451C319.503 414.382 319.555 414.382 319.606 414.434C320.854 414.486 321.997 415.006 322.828 415.889C323.712 416.824 324.179 418.019 324.179 419.318C324.231 421.967 322.101 424.149 319.451 424.201H263.796V427.319Z" fill="#3B3375"/>
<path d="M267.799 414.592V423.891H319.453C321.999 423.788 324.026 421.657 323.922 419.112C323.818 416.67 321.895 414.748 319.453 414.644V414.592H267.799Z" fill="white"/>
<path d="M267.798 424.15C267.642 424.15 267.538 424.046 267.538 423.89V414.59C267.538 414.434 267.642 414.33 267.798 414.33H319.451C319.503 414.33 319.555 414.33 319.607 414.382C322.101 414.538 324.076 416.564 324.18 419.11C324.232 420.409 323.764 421.656 322.881 422.591C321.998 423.526 320.802 424.098 319.451 424.15H267.798ZM268.057 423.63H319.451C320.595 423.578 321.686 423.111 322.465 422.227C323.245 421.396 323.66 420.253 323.66 419.11C323.608 416.824 321.738 414.954 319.451 414.902C319.399 414.902 319.347 414.902 319.295 414.85H268.057V423.63Z" fill="#3B3375"/>
<path d="M498.681 234.52H395.582V239.559H498.681V234.52Z" fill="#3E337A"/>
<path d="M498.68 239.818H395.58C395.424 239.818 395.32 239.714 395.32 239.558V234.518C395.32 234.362 395.424 234.259 395.58 234.259H498.68C498.836 234.259 498.94 234.362 498.94 234.518V239.558C498.94 239.714 498.836 239.818 498.68 239.818ZM395.84 239.298H498.42V234.778H395.84V239.298Z" fill="#3B3375"/>
<path d="M404.416 208.439H407.17C408.521 208.439 409.665 209.53 409.665 210.933V234.572H401.974V210.933C401.922 209.53 403.065 208.439 404.416 208.439Z" fill="white"/>
<path d="M409.663 234.778H401.972C401.816 234.778 401.712 234.674 401.712 234.518V210.879C401.712 209.373 402.959 208.178 404.414 208.178H407.169C408.676 208.178 409.871 209.425 409.871 210.879V234.518C409.871 234.674 409.767 234.778 409.663 234.778ZM402.18 234.259H409.351V210.879C409.351 209.685 408.364 208.697 407.169 208.697H404.414C403.219 208.697 402.232 209.685 402.232 210.879V234.259H402.18Z" fill="#3B3375"/>
<path d="M405.767 214.83C406.541 214.83 407.17 214.202 407.17 213.427C407.17 212.652 406.541 212.024 405.767 212.024C404.992 212.024 404.363 212.652 404.363 213.427C404.363 214.202 404.992 214.83 405.767 214.83Z" fill="white"/>
<path d="M405.765 215.036C404.882 215.036 404.102 214.309 404.102 213.374C404.102 212.49 404.83 211.711 405.765 211.711C406.701 211.711 407.428 212.439 407.428 213.374C407.428 214.309 406.701 215.036 405.765 215.036ZM405.765 212.283C405.142 212.283 404.622 212.802 404.622 213.426C404.622 214.049 405.142 214.569 405.765 214.569C406.389 214.569 406.908 214.049 406.908 213.426C406.908 212.802 406.389 212.283 405.765 212.283Z" fill="#3B3375"/>
<path d="M486.261 208.44H489.015C490.366 208.44 491.509 209.531 491.509 210.934V234.573H483.818V210.934C483.818 209.531 484.91 208.44 486.261 208.44Z" fill="white"/>
<path d="M491.508 234.779H483.817C483.661 234.779 483.557 234.675 483.557 234.519V210.88C483.557 209.373 484.805 208.179 486.26 208.179H489.014C490.521 208.179 491.716 209.425 491.716 210.88V234.519C491.768 234.675 491.664 234.779 491.508 234.779ZM484.077 234.259H491.248V210.88C491.248 209.685 490.261 208.698 489.066 208.698H486.312C485.116 208.698 484.129 209.685 484.129 210.88V234.259H484.077Z" fill="#3B3375"/>
<path d="M487.664 214.83C488.439 214.83 489.067 214.202 489.067 213.427C489.067 212.652 488.439 212.024 487.664 212.024C486.889 212.024 486.261 212.652 486.261 213.427C486.261 214.202 486.889 214.83 487.664 214.83Z" fill="white"/>
<path d="M487.663 215.036C486.779 215.036 486 214.309 486 213.374C486 212.49 486.727 211.711 487.663 211.711C488.598 211.711 489.325 212.439 489.325 213.374C489.273 214.309 488.546 215.036 487.663 215.036ZM487.663 212.283C487.039 212.283 486.519 212.802 486.519 213.426C486.519 214.049 487.039 214.569 487.663 214.569C488.286 214.569 488.806 214.049 488.806 213.426C488.806 212.802 488.286 212.283 487.663 212.283Z" fill="#3B3375"/>
<path d="M461.734 206.881C461.734 208.803 454.978 210.413 446.716 210.413C438.453 210.413 431.698 208.855 431.698 206.881C431.698 204.906 438.453 203.348 446.716 203.348C454.978 203.348 461.734 204.958 461.734 206.881Z" fill="#3E337A"/>
<path d="M446.714 210.672C439.283 210.672 431.436 209.373 431.436 206.879C431.436 204.437 439.335 203.086 446.714 203.086C454.145 203.086 461.992 204.385 461.992 206.879C461.992 209.321 454.093 210.672 446.714 210.672ZM446.714 203.606C437.88 203.606 431.956 205.269 431.956 206.879C431.956 208.438 437.88 210.152 446.714 210.152C455.393 210.152 461.472 208.438 461.472 206.879C461.472 205.321 455.393 203.606 446.714 203.606Z" fill="#3B3375"/>
<path d="M461.838 184.696C459.916 187.657 457.317 189.579 455.343 189.631C455.914 192.177 456.226 194.723 456.174 197.321C456.174 207.555 451.965 215.816 446.768 215.816C441.572 215.816 437.363 207.555 437.363 197.321C437.363 195.502 437.519 193.684 437.778 191.865C436.167 191.658 434.193 190.722 432.426 189.112C429.464 186.462 428.165 183.085 429.516 181.579C430.867 180.072 434.349 180.955 437.363 183.605C438.142 184.28 438.818 185.059 439.441 185.891C441.156 181.579 443.858 178.773 446.872 178.773C449.263 178.773 451.497 180.54 453.16 183.449C453.524 182.254 454.096 181.059 454.771 180.02C457.213 176.227 460.799 174.201 462.774 175.448C464.748 176.695 464.281 180.903 461.838 184.696Z" fill="white"/>
<path d="M446.766 216.075C441.414 216.075 437.101 207.659 437.101 197.32C437.101 195.554 437.205 193.787 437.464 192.073C435.801 191.813 433.879 190.774 432.216 189.319C430.137 187.449 428.786 185.163 428.682 183.396C428.63 182.617 428.838 181.942 429.254 181.422C430.709 179.76 434.346 180.643 437.464 183.448C438.14 184.02 438.764 184.695 439.283 185.423C441.102 181.059 443.804 178.617 446.766 178.617C449.053 178.617 451.235 180.123 452.95 182.929C453.314 181.89 453.834 180.903 454.405 179.968C455.6 178.097 457.107 176.591 458.666 175.707C460.277 174.772 461.732 174.668 462.772 175.344C464.85 176.694 464.538 181.007 462.044 184.903C460.225 187.709 457.679 189.683 455.6 189.943C456.12 192.384 456.38 194.878 456.38 197.424C456.432 207.659 452.119 216.075 446.766 216.075ZM431.384 181.11C430.657 181.11 430.033 181.318 429.618 181.786C429.254 182.15 429.098 182.721 429.15 183.345C429.254 185.007 430.553 187.189 432.528 188.956C434.191 190.462 436.165 191.449 437.776 191.657C437.828 191.657 437.932 191.709 437.932 191.761C437.984 191.813 437.984 191.865 437.984 191.969C437.724 193.735 437.568 195.606 437.568 197.372C437.568 207.451 441.674 215.608 446.714 215.608C451.755 215.608 455.86 207.451 455.86 197.372C455.86 194.826 455.6 192.229 455.029 189.735C455.029 189.683 455.029 189.579 455.081 189.527C455.133 189.475 455.185 189.423 455.289 189.423C457.263 189.371 459.81 187.449 461.576 184.591C463.915 180.903 464.331 176.954 462.46 175.759C461.576 175.188 460.329 175.344 458.874 176.123C457.419 176.954 455.964 178.409 454.769 180.227C454.093 181.266 453.522 182.409 453.158 183.604C453.106 183.708 453.054 183.76 452.95 183.76C452.846 183.76 452.742 183.708 452.69 183.656C451.027 180.747 448.845 179.136 446.662 179.136C443.856 179.136 441.258 181.682 439.491 186.046C439.439 186.15 439.387 186.202 439.283 186.202C439.179 186.202 439.075 186.15 439.023 186.098C438.452 185.267 437.776 184.487 436.997 183.864C435.178 182.098 432.995 181.11 431.384 181.11Z" fill="#3B3375"/>
<path d="M459.082 173.733C459.082 175.499 458.458 177.058 457.575 177.785C457.523 177.837 457.471 177.889 457.367 177.941C457.315 177.993 457.211 178.045 457.159 178.045C456.172 178.565 454.509 178.461 452.898 177.785C450.611 176.798 449.26 174.928 449.832 173.629C450.144 173.006 450.767 172.59 451.443 172.538C451.391 171.603 451.651 170.772 452.222 170.356C452.794 169.94 453.781 170.044 454.665 170.564C455.132 169.732 455.808 169.213 456.535 169.213C457.99 169.213 459.134 171.239 459.082 173.733Z" fill="#F09956"/>
<path d="M465.318 181.163H461.784C461.628 181.163 461.524 181.059 461.524 180.903C461.524 180.747 461.628 180.643 461.784 180.643H465.318C465.474 180.643 465.578 180.747 465.578 180.903C465.578 181.059 465.422 181.163 465.318 181.163Z" fill="#3B3375"/>
<path d="M462.356 177.161C462.252 177.161 462.2 177.109 462.148 177.057C462.044 176.954 462.096 176.798 462.2 176.694L464.643 174.927C464.746 174.823 464.902 174.875 465.006 174.979C465.11 175.083 465.058 175.239 464.954 175.343L462.512 177.109C462.46 177.161 462.408 177.161 462.356 177.161Z" fill="#3B3375"/>
<path d="M454.405 182.253C454.353 182.253 454.301 182.253 454.249 182.201L452.43 181.11C452.326 181.058 452.274 180.903 452.326 180.747C452.378 180.643 452.534 180.591 452.69 180.643L454.509 181.734C454.613 181.786 454.665 181.942 454.613 182.097C454.561 182.201 454.509 182.253 454.405 182.253Z" fill="#3B3375"/>
<path d="M458.458 184.8H456.172C456.016 184.8 455.912 184.696 455.912 184.54C455.912 184.384 456.016 184.279 456.172 184.279H458.458C458.614 184.279 458.718 184.384 458.718 184.54C458.718 184.696 458.562 184.8 458.458 184.8Z" fill="#3B3375"/>
<path d="M460.277 189.63C460.225 189.63 460.174 189.63 460.122 189.579L457.783 187.5C457.679 187.396 457.679 187.241 457.783 187.137C457.887 187.033 458.043 187.033 458.147 187.137L460.485 189.215C460.589 189.319 460.589 189.475 460.485 189.579C460.433 189.579 460.329 189.63 460.277 189.63Z" fill="#3B3375"/>
<path d="M457.315 196.438H454.405C454.249 196.438 454.145 196.334 454.145 196.177C454.145 196.021 454.249 195.917 454.405 195.917H457.315C457.471 195.917 457.575 196.021 457.575 196.177C457.575 196.334 457.471 196.438 457.315 196.438Z" fill="#3B3375"/>
<path d="M448.897 180.591C448.741 180.591 448.636 180.487 448.636 180.331V177.993C448.636 177.837 448.741 177.733 448.897 177.733C449.053 177.733 449.157 177.837 449.157 177.993V180.331C449.157 180.487 449.053 180.591 448.897 180.591Z" fill="#3B3375"/>
<path d="M444.791 181.162C444.687 181.162 444.635 181.11 444.584 181.058L442.505 178.149C442.401 178.045 442.453 177.889 442.557 177.785C442.661 177.681 442.817 177.733 442.921 177.837L444.999 180.747C445.103 180.85 445.051 181.006 444.947 181.11C444.895 181.162 444.843 181.162 444.791 181.162Z" fill="#3B3375"/>
<path d="M436.944 184.799C436.892 184.799 436.84 184.799 436.788 184.747C436.685 184.643 436.633 184.487 436.737 184.383L438.14 182.357C438.244 182.253 438.399 182.201 438.503 182.305C438.607 182.409 438.659 182.565 438.555 182.669L437.152 184.695C437.1 184.747 436.996 184.799 436.944 184.799Z" fill="#3B3375"/>
<path d="M433.515 182.253H433.463C433.307 182.201 433.255 182.097 433.255 181.942L433.827 179.396C433.879 179.24 433.982 179.188 434.138 179.188C434.294 179.24 434.346 179.344 434.346 179.5L433.775 182.045C433.723 182.201 433.619 182.253 433.515 182.253Z" fill="#3B3375"/>
<path d="M431.072 182.773C431.02 182.773 430.968 182.773 430.916 182.721L428.006 180.539C427.902 180.435 427.85 180.279 427.954 180.175C428.058 180.071 428.214 180.019 428.318 180.123L431.228 182.305C431.332 182.409 431.384 182.565 431.28 182.669C431.228 182.721 431.124 182.773 431.072 182.773Z" fill="#3B3375"/>
<path d="M428.11 186.357C428.006 186.357 427.902 186.253 427.85 186.15C427.798 185.994 427.902 185.89 428.058 185.838L430.968 185.266C431.124 185.214 431.228 185.318 431.28 185.474C431.332 185.63 431.228 185.734 431.072 185.786L428.11 186.357C428.162 186.357 428.162 186.357 428.11 186.357Z" fill="#3B3375"/>
<path d="M431.073 191.917C430.969 191.917 430.917 191.865 430.865 191.813C430.761 191.709 430.813 191.553 430.917 191.449L433.931 189.163C434.035 189.059 434.191 189.111 434.294 189.215C434.398 189.319 434.346 189.475 434.243 189.579L431.228 191.865C431.176 191.865 431.125 191.917 431.073 191.917Z" fill="#3B3375"/>
<path d="M438.348 195.087H434.814C434.658 195.087 434.554 194.983 434.554 194.826C434.554 194.67 434.658 194.566 434.814 194.566H438.348C438.504 194.566 438.608 194.67 438.608 194.826C438.608 194.983 438.504 195.087 438.348 195.087Z" fill="#3B3375"/>
<path d="M436.581 200.593C436.477 200.593 436.425 200.541 436.373 200.489C436.269 200.385 436.321 200.229 436.425 200.125L438.192 198.982C438.296 198.878 438.452 198.93 438.556 199.034C438.66 199.138 438.608 199.294 438.504 199.398L436.737 200.541C436.685 200.593 436.633 200.593 436.581 200.593Z" fill="#3B3375"/>
<path d="M439.231 205.165H436.944V205.686H439.231V205.165Z" fill="#3B3375"/>
<path d="M442.298 190.879C443.597 190.151 444.792 189.372 444.792 189.372L442.298 190.879Z" fill="#F09956"/>
<path d="M442.297 191.137C442.193 191.137 442.141 191.085 442.089 191.033C442.037 190.929 442.037 190.773 442.193 190.67C443.492 189.942 444.687 189.163 444.687 189.163C444.791 189.111 444.947 189.111 445.051 189.267C445.103 189.371 445.103 189.527 444.947 189.63C444.947 189.63 443.7 190.41 442.452 191.137C442.349 191.137 442.349 191.137 442.297 191.137Z" fill="#3B3375"/>
<path d="M451.079 190.774C450.975 190.774 450.871 190.722 450.871 190.618L449.78 188.436C449.728 188.332 449.78 188.176 449.884 188.072C449.988 188.02 450.144 188.072 450.248 188.176L451.339 190.358C451.391 190.462 451.339 190.618 451.235 190.722C451.131 190.774 451.131 190.774 451.079 190.774Z" fill="#3B3375"/>
<path d="M443.442 185.528C443.078 184.957 442.714 184.385 442.246 183.865L443.442 185.528Z" fill="#F09956"/>
<path d="M443.44 185.786C443.336 185.786 443.284 185.734 443.232 185.683C442.869 185.111 442.505 184.54 442.089 184.02C441.985 183.916 442.037 183.76 442.141 183.656C442.245 183.552 442.401 183.604 442.505 183.708C442.921 184.228 443.336 184.799 443.7 185.423C443.752 185.527 443.752 185.683 443.596 185.786C443.544 185.786 443.492 185.786 443.44 185.786Z" fill="#3B3375"/>
<path d="M446.974 186.357C446.87 186.357 446.818 186.305 446.766 186.253C446.662 186.149 446.714 185.993 446.818 185.89L449.832 183.604C449.936 183.5 450.092 183.552 450.196 183.656C450.3 183.759 450.248 183.915 450.144 184.019L447.13 186.305C447.078 186.357 447.026 186.357 446.974 186.357Z" fill="#3B3375"/>
<path d="M447.728 208.272L447.413 208.685L450.928 211.359L451.243 210.946L447.728 208.272Z" fill="#3B3375"/>
<path d="M446.038 204.386C445.986 204.386 445.882 204.334 445.83 204.282C445.727 204.178 445.778 204.022 445.882 203.918L448.74 201.58C448.844 201.476 449 201.528 449.104 201.632C449.208 201.736 449.156 201.892 449.052 201.996L446.194 204.334C446.142 204.334 446.09 204.386 446.038 204.386Z" fill="#3B3375"/>
<path d="M443.441 199.763C442.09 198.36 441.103 197.062 441.103 197.062L443.441 199.763Z" fill="#F09956"/>
<path d="M443.44 200.021C443.388 200.021 443.284 199.969 443.232 199.917C441.881 198.515 440.894 197.216 440.894 197.216C440.79 197.112 440.842 196.956 440.946 196.852C441.049 196.748 441.205 196.8 441.309 196.904C441.309 196.904 442.297 198.151 443.648 199.554C443.752 199.658 443.752 199.813 443.648 199.917C443.596 199.969 443.544 200.021 443.44 200.021Z" fill="#3B3375"/>
<path d="M449.312 197.32C449.208 197.32 449.156 197.268 449.104 197.216C449.001 197.112 449.052 196.956 449.156 196.852L452.43 194.566C452.534 194.462 452.69 194.514 452.794 194.618C452.898 194.722 452.846 194.878 452.742 194.982L449.468 197.268C449.416 197.32 449.364 197.32 449.312 197.32Z" fill="#3B3375"/>
<path d="M461.733 206.881V224.649C461.733 230 457.42 234.312 452.068 234.312H441.311C435.958 234.312 431.645 230 431.645 224.701V206.933C431.645 208.855 438.401 210.466 446.663 210.466C454.926 210.466 461.733 208.803 461.733 206.881Z" fill="white"/>
<path d="M441.31 234.571C438.66 234.571 436.165 233.532 434.294 231.661C432.424 229.791 431.384 227.297 431.384 224.648V206.879C431.384 206.724 431.488 206.62 431.644 206.62C431.8 206.62 431.904 206.724 431.904 206.879C431.904 208.438 437.984 210.153 446.662 210.153C455.34 210.153 461.42 208.438 461.42 206.879C461.42 206.724 461.524 206.62 461.68 206.62C461.836 206.62 461.94 206.724 461.94 206.879V224.648C461.94 230.103 457.523 234.571 452.015 234.571H441.31C441.362 234.571 441.362 234.571 441.31 234.571ZM431.956 207.919V224.648C431.956 227.141 432.943 229.531 434.71 231.298C436.477 233.064 438.815 234.051 441.362 234.051H452.119C457.315 234.051 461.524 229.843 461.524 224.648V207.919C459.654 209.685 453.054 210.672 446.766 210.672C440.426 210.672 433.827 209.685 431.956 207.919Z" fill="#3B3375"/>
<path d="M165.945 189.007H163.347C162.463 189.007 161.788 188.28 161.788 187.449V187.397C157.215 187.709 154.045 183.864 152.85 182.149C152.486 181.682 152.33 181.318 152.33 181.318C152.278 181.266 152.278 181.162 152.33 181.058L152.902 180.019C152.954 179.915 153.005 179.864 153.109 179.864C153.213 179.864 153.265 179.915 153.317 179.967C153.577 180.383 153.889 180.799 154.253 181.162C155.604 182.721 158.358 185.371 161.788 185.526V185.423C161.788 184.539 162.515 183.864 163.347 183.864H165.945C166.361 183.864 166.776 184.02 167.036 184.332C167.348 184.643 167.504 185.007 167.504 185.423V187.397C167.504 188.332 166.828 189.007 165.945 189.007ZM162.047 186.825C162.099 186.825 162.151 186.825 162.203 186.877C162.255 186.929 162.307 186.981 162.307 187.085V187.397C162.307 187.968 162.775 188.436 163.347 188.436H165.945C166.517 188.436 166.984 187.968 166.984 187.397V185.423C166.984 185.163 166.88 184.903 166.672 184.695C166.465 184.487 166.205 184.384 165.945 184.384H163.347C162.775 184.384 162.307 184.851 162.307 185.423V185.786C162.307 185.838 162.255 185.942 162.255 185.994C162.255 186.046 162.151 186.046 162.047 186.046C158.254 185.994 155.292 183.137 153.889 181.474C153.629 181.162 153.421 180.903 153.161 180.591L152.85 181.11C152.954 181.266 153.057 181.474 153.265 181.786C154.409 183.5 157.578 187.293 162.047 186.825C161.996 186.825 161.996 186.825 162.047 186.825Z" fill="#3B3375"/>
<path d="M168.647 169.525C167.764 169.525 167.036 168.797 167.036 167.914C167.036 167.031 167.764 166.304 168.647 166.304C168.959 166.304 169.271 166.356 169.478 166.511C169.946 166.823 170.258 167.343 170.258 167.914C170.258 168.797 169.53 169.525 168.647 169.525ZM168.647 166.823C168.023 166.823 167.504 167.343 167.504 167.914C167.504 168.538 168.023 169.005 168.595 169.005C168.907 169.005 169.167 168.901 169.374 168.694C169.582 168.486 169.686 168.226 169.686 167.914C169.686 167.551 169.478 167.187 169.167 166.979C169.011 166.875 168.855 166.823 168.647 166.823Z" fill="#3B3375"/>
<path d="M179.559 167.031C178.676 167.031 177.948 166.303 177.948 165.42C177.948 165.004 178.104 164.589 178.416 164.277C178.728 163.965 179.144 163.809 179.559 163.809C179.923 163.809 180.235 163.913 180.495 164.069C180.962 164.381 181.222 164.848 181.222 165.42C181.17 166.303 180.443 167.031 179.559 167.031ZM179.559 164.329C178.936 164.329 178.416 164.848 178.416 165.42C178.416 166.043 178.936 166.511 179.507 166.511C180.131 166.511 180.599 165.991 180.599 165.42C180.599 165.056 180.443 164.693 180.131 164.485C179.975 164.381 179.767 164.329 179.559 164.329Z" fill="#3B3375"/>
<path d="M183.562 151.448C183.562 151.448 179.872 141.005 168.232 138.616H168.18C166.465 138.564 154.357 138.668 147.654 148.643C145.835 151.396 144.588 154.462 143.964 157.683C143.548 159.813 143.289 161.995 143.237 164.125C144.276 163.45 145.471 163.034 146.666 162.774C147.238 162.67 147.758 162.618 148.329 162.618C153.786 162.618 158.255 167.19 158.255 172.853C158.255 176.178 156.696 179.347 153.994 181.27C155.397 182.932 158.307 185.738 161.996 185.738V185.374C161.996 184.647 162.568 184.075 163.295 184.075H165.894C166.621 184.075 167.193 184.647 167.193 185.374V187.348C167.193 188.076 166.621 188.647 165.894 188.647H163.295C162.568 188.647 161.996 188.076 161.996 187.348V187.037C157.423 187.504 154.253 183.66 153.058 181.945C152.279 182.413 151.395 182.724 150.512 182.932C154.617 190.414 161.269 195.037 167.92 194.466C169.375 194.362 170.83 193.946 172.181 193.323C178.833 190.258 183.874 181.581 184.601 171.398C184.601 171.191 184.653 170.983 184.653 170.775C184.757 169.112 184.705 167.45 184.549 165.839C184.341 163.086 183.77 160.384 182.886 157.787C183.77 157.839 184.653 158.15 185.381 158.618C187.563 160.228 188.499 164.333 189.486 164.8C190.473 165.268 191.409 165.112 191.772 163.19C192.136 161.267 190.162 153.578 183.562 151.448ZM168.648 166.567C168.908 166.567 169.115 166.619 169.323 166.775C169.739 167.034 169.999 167.45 169.999 167.918C169.999 168.645 169.375 169.268 168.648 169.268C167.92 169.268 167.297 168.645 167.297 167.918C167.297 167.19 167.868 166.567 168.648 166.567ZM179.561 166.775C178.833 166.775 178.209 166.151 178.209 165.424C178.209 164.696 178.833 164.073 179.561 164.073C179.82 164.073 180.08 164.177 180.288 164.281C180.912 164.696 181.068 165.528 180.652 166.151C180.444 166.515 180.028 166.775 179.561 166.775Z" fill="white"/>
<path d="M166.828 194.776C160.54 194.776 154.304 190.412 150.303 183.086C150.251 183.034 150.251 182.93 150.303 182.878C150.355 182.826 150.407 182.774 150.459 182.722C151.342 182.515 152.173 182.203 152.953 181.787C153.057 181.735 153.213 181.735 153.317 181.891C154.46 183.554 157.63 187.346 162.047 186.879C162.099 186.879 162.203 186.879 162.255 186.931C162.307 186.983 162.359 187.035 162.359 187.139V187.45C162.359 188.022 162.826 188.489 163.398 188.489H165.996C166.568 188.489 167.035 188.022 167.035 187.45V185.476C167.035 185.164 166.932 184.904 166.724 184.749C166.516 184.541 166.256 184.437 165.996 184.437H163.398C162.826 184.437 162.359 184.904 162.359 185.476V185.84C162.359 185.892 162.307 185.996 162.307 186.047C162.255 186.099 162.203 186.151 162.099 186.099C158.305 186.047 155.343 183.19 153.94 181.528C153.888 181.476 153.888 181.424 153.888 181.32C153.888 181.268 153.94 181.164 153.992 181.164C156.642 179.242 158.149 176.176 158.149 172.955C158.149 167.448 153.836 162.98 148.484 162.98C147.964 162.98 147.393 163.032 146.873 163.136C145.678 163.344 144.534 163.759 143.495 164.435C143.391 164.487 143.287 164.487 143.235 164.435C143.131 164.383 143.079 164.279 143.079 164.227C143.131 162.045 143.391 159.863 143.807 157.733C144.431 154.46 145.678 151.394 147.548 148.589C154.668 138.042 167.711 138.406 168.283 138.458H168.335C179.247 140.692 183.301 150.147 183.768 151.29C190.524 153.576 192.343 161.525 192.031 163.344C191.875 164.331 191.511 164.954 190.992 165.214C190.576 165.422 190.004 165.422 189.433 165.11C188.913 164.85 188.549 164.019 187.978 162.876C187.302 161.473 186.471 159.759 185.275 158.876C184.704 158.512 184.028 158.252 183.301 158.148C184.08 160.642 184.6 163.24 184.86 165.837C185.016 167.5 185.016 169.162 184.964 170.825C184.964 170.929 184.964 170.981 184.964 171.085C184.964 171.189 184.964 171.345 184.964 171.448C184.236 181.579 179.195 190.464 172.388 193.581C171.037 194.204 169.582 194.62 168.075 194.724C167.555 194.776 167.191 194.776 166.828 194.776ZM150.926 183.138C155.083 190.516 161.579 194.776 167.919 194.204C169.374 194.1 170.777 193.685 172.076 193.113C178.728 190.048 183.664 181.32 184.34 171.397C184.34 171.293 184.34 171.137 184.34 171.033C184.34 170.929 184.34 170.877 184.34 170.773C184.444 169.162 184.392 167.5 184.236 165.837C184.028 163.136 183.457 160.434 182.573 157.889C182.521 157.785 182.573 157.733 182.625 157.629C182.677 157.577 182.781 157.525 182.833 157.525C183.768 157.577 184.652 157.889 185.431 158.408C186.73 159.395 187.614 161.162 188.289 162.616C188.757 163.551 189.173 164.435 189.485 164.591C189.952 164.798 190.316 164.85 190.628 164.694C190.992 164.487 191.251 164.019 191.407 163.188C191.719 161.473 189.952 153.784 183.353 151.654C183.301 151.654 183.197 151.55 183.197 151.498C183.145 151.394 179.403 141.159 168.127 138.873C167.243 138.821 154.668 138.614 147.86 148.797C146.093 151.55 144.846 154.563 144.223 157.733C143.807 159.707 143.599 161.681 143.495 163.707C144.482 163.136 145.522 162.772 146.613 162.616C147.185 162.512 147.756 162.46 148.328 162.46C153.94 162.46 158.513 167.188 158.513 172.955C158.513 176.28 157.006 179.397 154.356 181.424C155.759 183.034 158.409 185.424 161.683 185.58V185.476C161.683 184.593 162.411 183.917 163.242 183.917H165.84C166.256 183.917 166.672 184.073 166.932 184.385C167.243 184.697 167.399 185.06 167.399 185.476V187.45C167.399 188.333 166.672 189.009 165.84 189.009H163.242C162.359 189.009 161.683 188.281 161.683 187.45V187.398C157.318 187.658 154.148 184.125 152.901 182.359C152.329 182.67 151.654 182.93 150.926 183.138ZM168.646 169.526C168.231 169.526 167.815 169.37 167.503 169.059C167.191 168.747 167.035 168.331 167.035 167.916C167.035 167.5 167.191 167.084 167.503 166.773C167.815 166.461 168.231 166.305 168.646 166.305V166.565V166.305C168.906 166.305 169.218 166.357 169.478 166.513C169.998 166.773 170.309 167.344 170.309 167.916C170.257 168.799 169.53 169.526 168.646 169.526ZM168.646 166.825C168.335 166.825 168.075 166.928 167.867 167.136C167.659 167.344 167.555 167.604 167.555 167.916C167.555 168.227 167.659 168.487 167.867 168.695C168.075 168.903 168.387 169.007 168.646 169.007C168.958 169.007 169.218 168.903 169.426 168.695C169.634 168.487 169.738 168.227 169.738 167.916C169.738 167.5 169.53 167.188 169.166 166.98C169.01 166.877 168.854 166.825 168.646 166.825ZM179.559 167.032C178.676 167.032 177.948 166.305 177.948 165.422C177.948 164.539 178.676 163.811 179.559 163.811C179.871 163.811 180.183 163.915 180.443 164.071C180.806 164.331 181.066 164.694 181.118 165.11C181.222 165.526 181.118 165.941 180.858 166.305C180.598 166.773 180.079 167.032 179.559 167.032ZM179.559 164.331C178.936 164.331 178.468 164.798 178.468 165.422C178.468 166.045 178.936 166.513 179.559 166.513C179.923 166.513 180.287 166.305 180.443 166.045C180.598 165.786 180.65 165.526 180.598 165.214C180.547 164.902 180.391 164.694 180.131 164.539C179.975 164.383 179.767 164.331 179.559 164.331Z" fill="#3B3375"/>
<path d="M160.384 170.616C159.345 170.616 157.838 170.044 156.954 168.382C155.655 165.94 157.162 162.719 158.721 160.433C158.877 160.173 159.085 159.861 159.293 159.602C160.436 157.991 162.047 155.705 161.527 153.627C161.475 153.471 161.579 153.367 161.735 153.315C161.891 153.263 161.995 153.367 162.047 153.523C162.671 155.861 160.956 158.199 159.76 159.913C159.553 160.225 159.345 160.485 159.189 160.745C157.734 162.927 156.279 165.94 157.474 168.174C158.305 169.733 159.657 170.2 160.592 170.148C161.06 170.096 161.267 169.992 161.267 169.889C161.371 169.629 161.164 169.109 160.904 168.538C160.228 166.927 159.033 164.226 162.982 161.628C168.023 158.303 168.647 152.588 168.647 152.536C168.647 152.432 168.75 152.328 168.854 152.328C168.958 152.328 169.062 152.38 169.114 152.484C169.114 152.536 170.777 156.225 174.467 157.004C176.026 157.368 177.792 157.368 179.507 157.42C180.755 157.42 181.95 157.472 182.989 157.576C183.145 157.576 183.249 157.731 183.197 157.887C183.197 158.043 183.041 158.147 182.885 158.095C181.846 157.939 180.703 157.939 179.455 157.939C177.741 157.887 175.922 157.887 174.311 157.524C171.349 156.9 169.634 154.562 168.958 153.419C168.595 155.134 167.295 159.394 163.19 162.095C159.657 164.433 160.592 166.719 161.319 168.382C161.631 169.109 161.891 169.681 161.683 170.096C161.579 170.408 161.112 170.616 160.54 170.668C160.488 170.616 160.436 170.616 160.384 170.616Z" fill="#3B3375"/>
<path d="M158.307 172.955C158.307 176.28 156.748 179.449 154.046 181.371C153.734 181.008 153.423 180.592 153.111 180.177L152.539 181.216C152.539 181.216 152.695 181.527 153.059 182.047C152.279 182.514 151.396 182.826 150.513 183.034C149.785 183.19 149.11 183.242 148.382 183.242C147.914 183.242 147.447 183.19 146.979 183.138C142.302 182.359 138.768 178.462 138.509 173.682C138.509 173.423 138.457 173.215 138.457 172.955C138.457 171.292 138.82 169.682 139.6 168.227C140.431 166.565 141.73 165.162 143.289 164.175C144.329 163.499 145.524 163.084 146.719 162.824C147.291 162.72 147.81 162.668 148.382 162.668C153.89 162.668 158.307 167.292 158.307 172.955Z" fill="#3E337A"/>
<path d="M148.432 183.448C148.38 183.448 148.38 183.448 148.328 183.448C147.86 183.448 147.393 183.396 146.925 183.344C142.144 182.565 138.454 178.513 138.195 173.681C138.195 173.577 138.195 173.421 138.195 173.317C138.195 173.213 138.195 173.058 138.195 172.954C138.195 171.291 138.61 169.577 139.338 168.122C140.169 166.407 141.52 165.005 143.131 163.966C144.223 163.29 145.418 162.823 146.665 162.615C147.237 162.511 147.808 162.459 148.38 162.459C153.992 162.459 158.565 167.187 158.565 172.954C158.565 176.383 156.954 179.604 154.2 181.578C154.096 181.682 153.94 181.63 153.836 181.526C153.576 181.214 153.369 180.955 153.109 180.643L152.797 181.162C152.901 181.318 153.005 181.526 153.213 181.838C153.265 181.89 153.265 181.994 153.265 182.046C153.265 182.098 153.213 182.201 153.161 182.201C152.329 182.669 151.446 182.981 150.562 183.189C149.887 183.396 149.159 183.448 148.432 183.448ZM148.38 182.929C149.107 182.929 149.783 182.877 150.458 182.721C151.238 182.565 151.965 182.253 152.693 181.89C152.433 181.526 152.329 181.318 152.329 181.318C152.277 181.266 152.277 181.162 152.329 181.058L152.901 180.019C152.953 179.915 153.005 179.864 153.109 179.864C153.213 179.864 153.265 179.915 153.317 179.967C153.576 180.331 153.784 180.643 154.096 180.955C156.59 179.032 158.097 176.019 158.045 172.902C158.045 167.395 153.732 162.927 148.38 162.927C147.86 162.927 147.289 162.979 146.769 163.082C145.574 163.29 144.43 163.706 143.391 164.381C141.832 165.368 140.637 166.719 139.806 168.33C139.078 169.733 138.714 171.343 138.714 172.954C138.714 173.058 138.714 173.161 138.714 173.317C138.714 173.421 138.714 173.577 138.714 173.681C138.974 178.253 142.456 182.098 146.977 182.877C147.496 182.877 147.964 182.929 148.38 182.929Z" fill="#3B3375"/>
<path d="M153.057 182.253C152.954 182.253 152.902 182.201 152.85 182.149C152.486 181.63 152.33 181.318 152.33 181.318C152.278 181.266 152.278 181.162 152.33 181.058L152.902 180.019C152.954 179.915 153.005 179.864 153.109 179.864C153.213 179.864 153.265 179.915 153.317 179.967C153.577 180.383 153.889 180.799 154.253 181.162C154.305 181.214 154.305 181.266 154.305 181.37C154.305 181.422 154.253 181.526 154.201 181.526C153.889 181.786 153.525 181.994 153.213 182.149C153.161 182.253 153.109 182.253 153.057 182.253ZM152.85 181.162C152.902 181.266 153.005 181.422 153.161 181.63C153.317 181.526 153.525 181.422 153.681 181.318C153.525 181.11 153.317 180.851 153.161 180.643L152.85 181.162Z" fill="#3B3375"/>
<path d="M146.095 143.654C140.535 147.862 137.573 154.045 136.845 160.331C130.817 160.279 125.984 155.343 126.036 149.317C126.088 143.29 131.025 138.458 137.053 138.51C140.742 138.51 144.172 140.485 146.095 143.654Z" fill="white"/>
<path d="M136.844 160.589C133.882 160.589 131.076 159.394 128.945 157.264C126.814 155.134 125.723 152.329 125.723 149.315C125.723 146.302 126.918 143.548 129.049 141.418C131.179 139.34 133.986 138.197 137 138.197C140.793 138.197 144.327 140.223 146.301 143.444C146.353 143.548 146.353 143.704 146.249 143.808C141.157 147.705 137.935 153.523 137.104 160.329C137.104 160.485 137 160.589 136.844 160.589ZM136.948 138.769C134.141 138.769 131.491 139.86 129.465 141.834C127.438 143.808 126.295 146.51 126.295 149.315C126.295 152.173 127.334 154.822 129.361 156.848C131.283 158.823 133.882 159.966 136.636 160.018C137.519 153.264 140.741 147.445 145.782 143.496C143.911 140.535 140.585 138.717 137.052 138.717C137 138.769 137 138.769 136.948 138.769Z" fill="#3B3375"/>
<path d="M159.711 138.406C158.671 138.718 152.124 139.965 146.667 144.744C142.978 147.965 139.808 152.849 139.236 160.123C139.028 162.824 139.184 165.526 139.6 168.227C138.873 169.682 138.509 171.293 138.509 172.955C138.509 173.215 138.509 173.423 138.561 173.683C136.898 169.422 136.326 164.85 136.898 160.382C137.677 154.096 140.587 147.913 146.148 143.653C149.318 141.315 152.955 139.653 156.801 138.925C157.788 138.666 158.775 138.51 159.711 138.406Z" fill="white"/>
<path d="M138.507 173.889C138.403 173.889 138.299 173.837 138.247 173.733C136.584 169.473 136.013 164.797 136.532 160.277C137.364 153.367 140.69 147.341 145.886 143.392C149.056 141.002 152.797 139.392 156.643 138.612C157.682 138.405 158.67 138.249 159.605 138.145C159.761 138.145 159.865 138.197 159.917 138.353C159.969 138.509 159.865 138.612 159.709 138.664C159.605 138.716 159.449 138.716 159.241 138.768C157.37 139.236 151.654 140.639 146.769 144.951C142.352 148.795 139.91 153.939 139.39 160.173C139.183 162.875 139.338 165.576 139.754 168.226C139.754 168.278 139.754 168.33 139.754 168.382C139.027 169.785 138.663 171.395 138.663 173.006C138.663 173.266 138.663 173.473 138.663 173.681C138.663 173.785 138.611 173.941 138.455 173.941C138.559 173.889 138.559 173.889 138.507 173.889ZM154.72 139.652C151.706 140.535 148.796 141.938 146.25 143.86C141.157 147.756 137.935 153.627 137.104 160.381C136.636 164.33 137 168.382 138.247 172.175C138.351 170.772 138.715 169.421 139.286 168.174C138.871 165.525 138.767 162.771 138.923 160.121C139.442 153.731 141.989 148.484 146.458 144.535C149.264 142.093 152.278 140.587 154.72 139.652Z" fill="#3B3375"/>
<path d="M168.233 138.614C166.518 138.562 154.41 138.666 147.706 148.641C145.888 151.394 144.64 154.46 144.017 157.681C143.601 159.811 143.341 161.993 143.289 164.123C141.73 165.11 140.431 166.513 139.6 168.175C139.184 165.526 139.028 162.772 139.236 160.071C139.808 152.797 142.978 147.913 146.667 144.692C152.071 139.913 158.619 138.666 159.71 138.354C162.569 137.99 165.427 138.094 168.233 138.614Z" fill="#3E337A"/>
<path d="M139.598 168.486C139.443 168.486 139.339 168.382 139.339 168.278C138.923 165.576 138.767 162.823 138.975 160.121C139.495 153.731 142.041 148.483 146.51 144.535C151.499 140.171 157.319 138.716 159.241 138.248C159.397 138.196 159.553 138.196 159.657 138.145C162.567 137.729 165.425 137.833 168.283 138.352C168.439 138.352 168.491 138.508 168.491 138.612C168.491 138.768 168.335 138.872 168.231 138.82C167.712 138.82 154.876 138.404 147.965 148.743C146.198 151.497 144.951 154.51 144.327 157.679C143.912 159.809 143.652 161.939 143.6 164.121C143.6 164.225 143.548 164.277 143.496 164.329C141.937 165.316 140.742 166.667 139.91 168.278C139.806 168.434 139.702 168.486 139.598 168.486ZM163.243 138.404C162.048 138.404 160.904 138.508 159.709 138.664C159.657 138.664 159.501 138.716 159.293 138.768C157.423 139.236 151.706 140.638 146.822 144.95C142.405 148.795 139.962 153.938 139.443 160.173C139.287 162.615 139.339 165.057 139.702 167.446C140.534 166.096 141.625 164.901 142.976 164.069C143.028 161.939 143.288 159.809 143.704 157.679C144.327 154.406 145.574 151.341 147.445 148.535C152.642 140.846 160.956 138.976 165.321 138.508C164.698 138.404 163.97 138.404 163.243 138.404Z" fill="#3B3375"/>
<path d="M163.139 186.931C162.776 187.035 162.412 187.087 161.996 187.139C157.423 187.606 154.253 183.762 153.058 182.047C152.694 181.58 152.538 181.216 152.538 181.216L153.11 180.177C153.422 180.592 153.734 181.008 154.045 181.372C155.448 183.034 158.359 185.84 162.048 185.84C162.62 185.84 163.191 185.788 163.711 185.684C164.542 185.528 163.867 186.723 163.139 186.931Z" fill="white"/>
<path d="M161.268 187.397C156.955 187.397 153.993 183.76 152.85 182.149C152.486 181.682 152.33 181.318 152.33 181.318C152.278 181.266 152.278 181.162 152.33 181.058L152.902 180.019C152.954 179.915 153.005 179.864 153.109 179.864C153.213 179.864 153.265 179.915 153.317 179.967C153.577 180.383 153.889 180.799 154.253 181.162C155.656 182.773 158.462 185.526 162.047 185.578C162.567 185.578 163.139 185.526 163.658 185.423C164.074 185.319 164.282 185.526 164.334 185.734C164.438 186.202 163.814 186.981 163.243 187.137C162.879 187.241 162.463 187.293 162.099 187.345C161.788 187.397 161.528 187.397 161.268 187.397ZM152.85 181.162C152.954 181.318 153.057 181.526 153.265 181.838C154.409 183.5 157.578 187.293 161.996 186.825C162.359 186.773 162.723 186.721 163.087 186.618C163.451 186.514 163.762 186.046 163.814 185.89H163.762C163.191 185.994 162.619 186.046 162.047 186.046C158.254 185.994 155.292 183.137 153.889 181.474C153.629 181.162 153.421 180.903 153.161 180.591L152.85 181.162Z" fill="#3B3375"/>
<path d="M167.245 185.476V187.45C167.245 188.178 166.674 188.749 165.946 188.749H163.348C162.62 188.749 162.049 188.178 162.049 187.45V185.476C162.049 184.749 162.62 184.177 163.348 184.177H165.946C166.674 184.177 167.245 184.749 167.245 185.476Z" fill="#3E337A"/>
<path d="M165.945 189.007H163.347C162.463 189.007 161.788 188.28 161.788 187.449V185.475C161.788 184.591 162.515 183.916 163.347 183.916H165.945C166.828 183.916 167.504 184.643 167.504 185.475V187.449C167.504 188.332 166.828 189.007 165.945 189.007ZM165.945 184.435H163.347C162.775 184.435 162.307 184.903 162.307 185.475V187.397C162.307 187.968 162.775 188.436 163.347 188.436H165.945C166.517 188.436 166.984 187.968 166.984 187.397V185.423C166.984 184.903 166.517 184.435 165.945 184.435Z" fill="#3B3375"/>
<path d="M174.363 187.604C173.739 187.604 172.96 187.5 171.972 187.085C170.517 186.461 169.582 184.695 169.478 183.24C169.426 182.513 169.582 181.993 169.894 181.734C170.05 181.63 170.362 181.526 170.829 181.785C173.22 183.084 176.701 181.889 177.273 181.63C177.377 181.578 177.533 181.63 177.637 181.734C177.689 181.837 177.637 181.993 177.533 182.097C176.753 182.461 173.168 183.656 170.621 182.253C170.517 182.201 170.31 182.097 170.258 182.201C170.102 182.305 169.998 182.617 170.05 183.24C170.154 184.487 170.985 186.098 172.232 186.617C174.311 187.5 175.506 186.929 175.506 186.929C175.61 186.877 175.766 186.929 175.87 187.033C175.922 187.137 175.87 187.293 175.766 187.396C175.714 187.396 175.246 187.604 174.363 187.604Z" fill="#3B3375"/>
<path d="M174.051 189.217C173.583 189.217 173.116 189.165 172.648 189.06C172.492 189.008 172.44 188.904 172.44 188.748C172.44 188.592 172.596 188.54 172.752 188.54C173.375 188.696 174.051 188.748 174.675 188.644C174.83 188.644 174.934 188.748 174.986 188.852C174.986 189.008 174.882 189.112 174.778 189.165C174.519 189.165 174.259 189.217 174.051 189.217Z" fill="#3B3375"/>
<path d="M177.273 175.863C177.169 175.863 177.065 175.811 177.013 175.707C176.961 175.551 177.013 175.447 177.169 175.395C177.689 175.187 179.092 173.837 179.196 173.421C178.624 172.953 177.065 170.875 176.65 170.2C176.598 170.096 176.598 169.94 176.753 169.836C176.857 169.784 177.013 169.784 177.117 169.94C177.585 170.719 179.196 172.797 179.56 173.057C179.716 173.161 179.767 173.265 179.767 173.473C179.716 174.148 178.001 175.707 177.429 175.915C177.325 175.863 177.325 175.863 177.273 175.863Z" fill="#3B3375"/>
<path d="M166.932 177.941C163.762 178.564 160.956 177.837 160.644 176.33C160.332 174.824 162.723 173.109 165.892 172.538C169.062 171.966 171.868 172.642 172.18 174.148C172.492 175.655 170.102 177.37 166.932 177.941Z" fill="#ECECFB"/>
<path d="M184.288 171.239C183.925 172.071 183.145 172.642 182.262 172.746C180.911 173.006 179.715 172.486 179.559 171.551C179.404 170.616 180.339 169.681 181.638 169.421C182.937 169.161 184.184 169.681 184.34 170.564C184.34 170.824 184.34 171.031 184.288 171.239Z" fill="#ECECFB"/>
<path d="M180.912 165.421C180.912 166.149 180.288 166.772 179.561 166.772C178.833 166.772 178.21 166.149 178.21 165.421C178.21 164.694 178.833 164.071 179.561 164.071C179.821 164.071 180.08 164.175 180.288 164.278C180.704 164.538 180.912 164.954 180.912 165.421Z" fill="#3E337A"/>
<path d="M179.559 167.031C178.676 167.031 177.948 166.303 177.948 165.42C177.948 165.004 178.104 164.589 178.416 164.277C178.728 163.965 179.144 163.809 179.559 163.809C179.923 163.809 180.235 163.913 180.495 164.069C180.962 164.381 181.222 164.848 181.222 165.42C181.17 166.303 180.443 167.031 179.559 167.031ZM179.559 164.329C178.936 164.329 178.416 164.848 178.416 165.42C178.416 166.043 178.936 166.511 179.507 166.511C180.131 166.511 180.599 165.991 180.599 165.42C180.599 165.056 180.443 164.693 180.131 164.485C179.975 164.381 179.767 164.329 179.559 164.329Z" fill="#3B3375"/>
<path d="M170 167.915C170 168.643 169.376 169.266 168.648 169.266C167.921 169.266 167.297 168.643 167.297 167.915C167.297 167.188 167.921 166.565 168.648 166.565C168.648 166.565 168.648 166.565 168.7 166.565C168.96 166.565 169.168 166.617 169.376 166.772C169.74 166.98 170 167.448 170 167.915Z" fill="#3E337A"/>
<path d="M168.647 169.525C167.764 169.525 167.036 168.797 167.036 167.914C167.036 167.031 167.764 166.304 168.647 166.304C168.959 166.304 169.271 166.356 169.478 166.511C169.946 166.823 170.258 167.343 170.258 167.914C170.258 168.797 169.53 169.525 168.647 169.525ZM168.647 166.823C168.023 166.823 167.504 167.343 167.504 167.914C167.504 168.538 168.023 169.005 168.595 169.005C168.907 169.005 169.167 168.901 169.374 168.694C169.582 168.486 169.686 168.226 169.686 167.914C169.686 167.551 169.478 167.187 169.167 166.979C169.011 166.875 168.855 166.823 168.647 166.823Z" fill="#3B3375"/>
<path d="M168.647 167.602C168.543 167.602 168.439 167.55 168.439 167.446C168.387 167.342 168.439 167.186 168.543 167.082C169.53 166.563 169.946 164.9 169.738 164.069C169.686 163.913 169.79 163.809 169.946 163.757C170.102 163.705 170.206 163.809 170.258 163.965C170.518 165.004 170.05 166.875 168.803 167.55C168.699 167.602 168.647 167.602 168.647 167.602Z" fill="#3B3375"/>
<path d="M179.56 165.213C179.456 165.213 179.352 165.161 179.352 165.057C179.3 164.953 179.352 164.797 179.456 164.693C180.443 164.173 180.859 162.511 180.651 161.68C180.599 161.524 180.703 161.42 180.859 161.368C181.015 161.316 181.119 161.42 181.171 161.576C181.431 162.615 180.963 164.485 179.716 165.161C179.612 165.213 179.612 165.213 179.56 165.213Z" fill="#3B3375"/>
<path d="M168.283 138.874C168.231 138.874 168.127 138.874 168.075 138.822C168.023 138.822 168.023 138.77 168.023 138.718C168.023 138.666 168.023 138.666 168.023 138.614C168.023 138.562 168.023 138.457 168.075 138.405C168.127 138.353 168.283 138.301 168.336 138.353C168.388 138.353 168.388 138.405 168.44 138.405C168.492 138.457 168.544 138.509 168.544 138.614C168.544 138.718 168.492 138.77 168.44 138.822C168.388 138.874 168.336 138.874 168.283 138.874Z" fill="#3B3375"/>
<path d="M239.268 207.244C239.632 206.413 240.516 199.503 245.088 197.269C249.661 195.035 260.522 190.411 262.913 190.307C264.004 190.255 265.095 191.917 263.172 193.216C261.25 194.515 254.027 197.113 253.819 197.425C253.819 197.425 258.444 195.242 261.458 194.931C264.472 194.619 274.657 192.645 277.411 191.19C280.165 189.735 280.373 190.774 280.165 191.502C279.957 192.229 276.943 199.659 269.564 202.568C262.185 205.477 259.067 206.516 257.144 207.348C255.222 208.179 251.324 211.556 251.324 211.556" fill="white"/>
<path d="M251.272 211.711C251.22 211.711 251.116 211.659 251.064 211.607C250.96 211.503 250.96 211.347 251.116 211.244C251.272 211.088 255.013 207.867 256.988 207.035C258.027 206.568 259.379 206.1 261.405 205.321C263.276 204.593 265.874 203.658 269.408 202.256C276.423 199.502 279.593 192.54 279.853 191.397C279.905 191.293 279.957 190.878 279.749 190.722C279.645 190.618 279.125 190.462 277.462 191.397C274.604 192.956 264.211 194.93 261.405 195.19C258.495 195.502 253.87 197.632 253.818 197.684C253.714 197.736 253.61 197.684 253.506 197.632C253.454 197.528 253.402 197.424 253.454 197.32C253.558 197.164 253.974 196.956 256.572 195.865C258.755 194.982 261.769 193.735 262.86 193.008C263.64 192.54 263.951 191.917 263.744 191.345C263.588 190.878 263.172 190.566 262.756 190.618C260.418 190.722 249.557 195.294 245.036 197.58C241.295 199.398 240.099 204.438 239.58 206.568C239.476 206.983 239.424 207.295 239.32 207.451C239.268 207.607 239.112 207.659 238.956 207.607C238.8 207.555 238.748 207.399 238.8 207.243C238.852 207.139 238.904 206.827 239.008 206.464C239.528 204.282 240.775 199.086 244.724 197.164C249.453 194.826 260.21 190.306 262.652 190.15C263.276 190.098 263.951 190.566 264.159 191.241C264.419 192.021 264.003 192.904 263.068 193.527C262.496 193.891 261.509 194.359 260.366 194.878C260.626 194.826 260.937 194.774 261.197 194.774C264.315 194.462 274.397 192.488 277.047 191.034C278.502 190.254 279.437 190.046 279.905 190.41C280.217 190.67 280.321 191.085 280.165 191.605C279.853 192.8 276.579 200.022 269.408 202.827C265.874 204.23 263.276 205.165 261.405 205.892C259.379 206.672 258.027 207.191 256.988 207.607C255.117 208.438 251.272 211.711 251.22 211.763C251.428 211.659 251.376 211.711 251.272 211.711Z" fill="#3B3375"/>
<path d="M249.974 291.825H79.3713V297.8H249.974V291.825Z" fill="#3E337A"/>
<path d="M249.973 298.058H79.3702C79.2143 298.058 79.1104 297.954 79.1104 297.798V291.823C79.1104 291.668 79.2143 291.564 79.3702 291.564H249.973C250.129 291.564 250.233 291.668 250.233 291.823V297.798C250.233 297.954 250.077 298.058 249.973 298.058ZM79.63 297.538H249.713V292.083H79.63V297.538Z" fill="#3B3375"/>
<path d="M498.681 427.737H121.775V433.711H498.681V427.737Z" fill="#3E337A"/>
<path d="M498.679 433.97H121.774C121.618 433.97 121.514 433.866 121.514 433.71V427.735C121.514 427.579 121.618 427.476 121.774 427.476H498.679C498.835 427.476 498.939 427.579 498.939 427.735V433.71C498.939 433.814 498.835 433.97 498.679 433.97ZM122.034 433.45H498.42V427.995H122.034V433.45Z" fill="#3B3375"/>
<path d="M140.276 239.04C139.237 243.3 137.886 248.079 137.886 248.079L137.262 289.746C137.262 289.746 127.856 290.214 129.052 291.825H89.9215C89.9215 290.785 90.1294 289.746 90.4931 288.759C95.3259 276.186 111.279 229.064 115.852 221.947C116.112 221.531 117.411 219.505 117.723 219.141C119.646 217.011 122.4 215.816 125.258 215.816C132.481 216.284 143.654 225.22 140.276 239.04Z" fill="white"/>
<path d="M129.569 292.083H89.608V291.824C89.608 290.732 89.8158 289.693 90.1796 288.706C91.6346 284.966 94.025 278.16 96.8312 270.315C103.379 251.975 112.317 226.881 115.539 221.842C115.747 221.478 117.098 219.4 117.461 219.036C119.436 216.854 122.242 215.607 125.204 215.659C129.414 215.919 134.35 218.828 137.416 222.985C139.807 226.206 142.301 231.609 140.43 239.142C139.443 243.195 138.144 247.715 138.04 248.182L137.416 290.057H137.156C134.038 290.213 129.465 290.784 129.102 291.564C129.102 291.564 129.05 291.616 129.154 291.72L129.569 292.083ZM90.1796 291.564H128.738C128.738 291.46 128.738 291.356 128.79 291.304C129.362 290.057 135.286 289.641 137.052 289.538L137.676 248.078V248.026C137.676 247.975 139.027 243.195 140.066 238.987C141.833 231.661 139.443 226.414 137.104 223.296C133.623 218.621 128.686 216.387 125.308 216.179H125.256C122.502 216.179 119.852 217.374 117.981 219.4C117.669 219.712 116.422 221.686 116.11 222.153C112.94 227.141 103.95 252.235 97.4548 270.522C94.6486 278.367 92.2062 285.173 90.8032 288.914C90.3875 289.745 90.1796 290.681 90.1796 291.564Z" fill="#3B3375"/>
<path d="M201.23 296.136C201.126 296.136 200.97 296.032 200.97 295.928L190.421 224.284C190.421 224.128 190.473 224.024 190.629 223.972C190.785 223.972 190.889 224.024 190.94 224.18L201.489 295.824C201.489 295.98 201.386 296.136 201.23 296.136Z" fill="#3B3375"/>
<path d="M251.948 211.453C252 213.583 245.764 276.031 220.301 291.877H127.595C128.01 290.266 128.166 289.331 128.166 289.331L138.092 248.132C138.092 248.132 139.339 243.352 140.326 239.092C144.068 222.467 126.451 213.531 120.995 216.856C121.463 216.492 126.14 214.102 127.179 213.479C129.829 211.868 134.714 209.634 138.871 207.452C140.326 213.115 142.457 225.428 152.07 226.987C164.074 228.909 167.764 217.999 167.764 217.999C167.764 217.999 171.973 220.96 178.209 218.726C183.925 216.648 176.91 201.893 175.871 198.62C179.976 198.724 184.133 199.088 188.238 199.607H188.29H188.394H188.446C191.824 200.075 194.214 202.101 195.202 202.984C200.087 207.192 213.39 240.391 216.456 249.483C216.715 250.314 222.64 239.352 228.408 228.39C233.916 217.843 239.32 207.296 239.32 207.296C239.84 206.413 244.205 206.985 246.336 207.764C249.194 208.699 252 209.946 251.948 211.453Z" fill="white"/>
<path d="M220.353 292.083H127.282L127.386 291.771C127.75 290.213 127.958 289.278 127.958 289.278L137.883 248.026C137.883 247.974 139.131 243.195 140.118 238.986C141.833 231.401 139.027 224.179 132.687 219.608C128.53 216.646 123.593 215.503 121.203 217.01L120.891 216.594C121.151 216.386 122.45 215.711 124.372 214.672C125.568 214.049 126.659 213.477 127.127 213.217C128.841 212.178 131.44 210.879 134.194 209.529C135.753 208.749 137.312 207.97 138.819 207.191L139.131 207.035L139.235 207.346C139.338 207.814 139.494 208.334 139.598 208.905C141.105 215.036 143.548 225.322 152.174 226.673C163.814 228.544 167.556 217.945 167.556 217.841L167.66 217.529L167.92 217.737C167.971 217.789 172.077 220.595 178.105 218.413C178.832 218.153 179.352 217.633 179.716 216.906C181.327 213.373 178.209 205.372 176.546 201.112C176.13 200.073 175.818 199.19 175.61 198.67L175.506 198.307H175.87C179.976 198.41 184.133 198.774 188.238 199.294H188.342H188.394C191.824 199.761 194.214 201.787 195.253 202.671C200.346 207.035 213.441 240.077 216.507 249.013C217.183 248.182 219.677 244.13 228.044 228.18C233.5 217.737 238.904 207.191 238.956 207.087C239.632 205.892 244.465 206.775 246.283 207.398C249.194 208.438 252.156 209.736 252.156 211.399C252.156 212.334 250.701 228.388 245.868 246.52C241.555 262.729 233.656 283.719 220.353 291.979V292.083ZM127.906 291.564H220.197C233.344 283.355 241.139 262.521 245.4 246.416C250.181 228.284 251.688 212.282 251.636 211.399C251.636 209.996 248.518 208.697 246.128 207.866C243.633 207.035 239.736 206.723 239.424 207.295C239.372 207.398 233.968 217.945 228.511 228.388C217.339 249.741 216.715 249.637 216.403 249.637C216.299 249.637 216.195 249.533 216.143 249.429C212.87 239.558 199.722 207.139 194.994 203.034C193.954 202.151 191.668 200.177 188.394 199.761H188.238C184.237 199.242 180.235 198.93 176.234 198.774C176.39 199.294 176.702 200.021 177.013 200.852C178.728 205.216 181.846 213.321 180.183 217.062C179.768 217.945 179.144 218.517 178.261 218.828C172.804 220.802 168.907 218.88 167.868 218.257C167.192 219.867 163.658 227.349 154.772 227.349C153.889 227.349 153.005 227.297 152.018 227.141C143.028 225.686 140.534 215.243 139.027 208.957C138.923 208.541 138.819 208.126 138.715 207.71C137.312 208.437 135.805 209.165 134.35 209.892C131.596 211.243 128.997 212.542 127.282 213.581C126.815 213.841 125.672 214.464 124.528 215.088C124.061 215.347 123.593 215.555 123.125 215.815C125.879 215.555 129.569 216.802 132.895 219.14C139.442 223.816 142.301 231.245 140.534 239.038C139.598 243.247 138.351 248.026 138.299 248.078L128.374 289.278C128.426 289.381 128.27 290.161 127.906 291.564Z" fill="#3B3375"/>
<path d="M167.558 216.752C158.1 219.505 147.291 204.075 147.239 204.075L147.187 201.217L147.032 183.034C147.499 183.085 147.915 183.137 148.383 183.137C149.11 183.137 149.786 183.034 150.513 182.93C154.619 190.411 161.27 195.035 167.922 194.463C169.377 194.359 170.832 193.944 172.183 193.32L174.261 198.048L174.521 198.62C174.573 199.347 175.561 214.414 167.558 216.752Z" fill="white"/>
<path d="M165.166 217.374C157.839 217.374 150.304 208.594 147.186 204.541C147.134 204.489 147.134 204.489 147.082 204.437L146.926 204.489L146.718 182.825L147.03 182.877C147.446 182.929 147.913 182.981 148.329 182.981C149.004 182.981 149.732 182.929 150.408 182.773L150.615 182.721L150.719 182.877C154.877 190.462 161.424 194.826 167.868 194.255C169.323 194.151 170.726 193.735 172.025 193.163L172.285 193.06L174.727 198.671C174.727 198.826 176.027 214.62 167.608 217.114C166.829 217.27 165.997 217.374 165.166 217.374ZM147.446 204.022C147.497 204.074 147.549 204.126 147.601 204.178C157.787 217.582 164.906 217.27 167.452 216.491C175.143 214.257 174.312 199.45 174.208 198.671L171.973 193.631C170.674 194.203 169.271 194.566 167.868 194.67C161.268 195.242 154.565 190.826 150.304 183.188C149.628 183.344 149.004 183.396 148.329 183.396C147.965 183.396 147.601 183.396 147.238 183.344L147.446 204.022Z" fill="#3B3375"/>
<path d="M179.51 220.285C174.106 223.558 167.818 217.947 167.818 217.947C167.818 217.947 163.92 230.52 152.592 228.597C143.498 227.039 139.393 214.622 137.99 209.011C137.886 208.595 137.834 208.335 137.782 208.179C137.73 207.868 137.834 207.556 138.094 207.4L147.24 201.27V203.244C147.24 203.815 147.447 204.387 147.811 204.854C150.098 207.816 159.347 219.194 167.61 216.804C175.613 214.466 174.677 199.399 174.573 198.672L174.314 198.1H176.756C176.86 198.1 176.964 198.152 176.964 198.256C177.224 198.776 177.587 199.451 177.691 199.711C178.99 202.828 187.721 215.349 179.51 220.285Z" fill="#F09956"/>
<path d="M154.825 229.064C154.097 229.064 153.318 229.012 152.486 228.856C149.368 228.336 141.625 225.323 137.676 209.061C137.624 208.802 137.572 208.594 137.52 208.438L137.468 208.23C137.364 207.815 137.52 207.399 137.884 207.191L147.394 200.801V203.243C147.394 203.762 147.549 204.282 147.913 204.697C151.239 209.01 159.865 218.777 167.4 216.543C175.195 214.257 174.26 199.606 174.208 198.723L173.792 197.839H176.65C176.858 197.839 177.066 197.995 177.118 198.151C177.222 198.359 177.378 198.671 177.482 198.879C177.637 199.19 177.741 199.398 177.845 199.554C178.053 200.022 178.417 200.645 178.833 201.476C181.431 206.256 186.783 216.127 179.56 220.491C177.274 221.894 174.468 221.894 171.454 220.543C169.739 219.764 168.44 218.777 167.868 218.361C167.192 220.284 163.503 229.064 154.825 229.064ZM146.926 201.736L138.196 207.607C138.04 207.711 137.988 207.919 137.988 208.074L138.04 208.282C138.092 208.438 138.144 208.646 138.196 208.906C139.183 213.062 143.184 226.674 152.538 228.284C163.503 230.155 167.452 217.946 167.504 217.842L167.608 217.478L167.92 217.738C167.972 217.79 174.104 223.193 179.3 220.076C186.108 215.971 180.859 206.36 178.365 201.736C177.897 200.905 177.534 200.229 177.326 199.762C177.274 199.606 177.118 199.398 177.014 199.086C176.91 198.827 176.754 198.567 176.598 198.307H174.571L174.675 198.619C174.675 198.775 175.871 214.569 167.504 217.01C159.605 219.296 150.875 209.373 147.445 204.957C147.03 204.438 146.822 203.814 146.822 203.191V201.736H146.926Z" fill="#3B3375"/>
<path d="M152.435 243.3L216.145 243.196C218.327 243.196 220.042 244.962 220.094 247.092L220.146 291.721L148.589 291.825L148.538 247.196C148.538 245.066 150.304 243.3 152.435 243.3Z" fill="#F3F2FC"/>
<path d="M148.329 292.135L148.277 247.247C148.277 244.961 150.147 243.091 152.434 243.039L216.143 242.935C218.43 242.935 220.301 244.805 220.301 247.091L220.353 291.979H220.093L148.329 292.135ZM152.434 243.299V243.558C150.407 243.558 148.796 245.221 148.796 247.247L148.848 291.616L219.885 291.512L219.833 247.143C219.833 245.117 218.17 243.506 216.195 243.506L152.486 243.61L152.434 243.299Z" fill="#3B3375"/>
<path d="M184.342 272.55C187.097 272.55 189.331 270.317 189.331 267.563C189.331 264.808 187.097 262.575 184.342 262.575C181.587 262.575 179.353 264.808 179.353 267.563C179.353 270.317 181.587 272.55 184.342 272.55Z" fill="white"/>
<path d="M184.341 272.809C181.431 272.809 179.092 270.471 179.092 267.561C179.092 264.652 181.431 262.314 184.341 262.314C187.251 262.314 189.589 264.652 189.589 267.561C189.589 270.419 187.199 272.809 184.341 272.809ZM184.341 262.833C181.742 262.833 179.612 264.964 179.612 267.561C179.612 270.159 181.742 272.289 184.341 272.289C186.939 272.289 189.07 270.159 189.07 267.561C189.07 264.964 186.939 262.833 184.341 262.833Z" fill="#3B3375"/>
<path d="M195.929 243.507C195.825 243.507 195.721 243.455 195.669 243.299L192.448 231.557C192.396 231.402 192.5 231.298 192.604 231.246C192.759 231.194 192.863 231.298 192.915 231.402L196.137 243.143C196.189 243.299 196.085 243.403 195.981 243.455C195.981 243.507 195.981 243.507 195.929 243.507Z" fill="#3B3375"/>
</svg>
