<svg width="265" height="171" viewBox="0 0 265 171" fill="none" xmlns="http://www.w3.org/2000/svg">
<rect x="2.5" y="2.96875" width="260" height="166" rx="8" fill="#111111"/>
<rect x="1.5" y="1.96875" width="262" height="168" rx="9" stroke="white" stroke-opacity="0.08" stroke-width="2"/>
<rect x="18.5" y="28.9688" width="8" height="8" rx="2" fill="#778CD1"/>
<path d="M35.004 31.6328C35.004 31.1367 35.128 30.7007 35.376 30.3247C35.624 29.9487 35.972 29.6567 36.42 29.4487C36.876 29.2407 37.4 29.1367 37.992 29.1367C38.544 29.1367 39.024 29.2367 39.432 29.4367C39.848 29.6287 40.172 29.9047 40.404 30.2647C40.644 30.6247 40.78 31.0567 40.812 31.5607H39.624C39.592 31.1287 39.432 30.7927 39.144 30.5527C38.856 30.3127 38.468 30.1927 37.98 30.1927C37.436 30.1927 37 30.3207 36.672 30.5767C36.344 30.8247 36.18 31.1647 36.18 31.5967C36.18 31.9487 36.28 32.2327 36.48 32.4487C36.68 32.6567 36.984 32.8087 37.392 32.9047L38.82 33.2407C39.532 33.4007 40.064 33.6767 40.416 34.0687C40.776 34.4527 40.956 34.9487 40.956 35.5567C40.956 36.0767 40.828 36.5287 40.572 36.9127C40.324 37.2967 39.968 37.5927 39.504 37.8007C39.048 38.0087 38.512 38.1128 37.896 38.1128C37.312 38.1128 36.796 38.0168 36.348 37.8247C35.908 37.6247 35.56 37.3447 35.304 36.9847C35.056 36.6167 34.916 36.1887 34.884 35.7007H36.084C36.092 36.1167 36.26 36.4487 36.588 36.6967C36.916 36.9367 37.352 37.0567 37.896 37.0567C38.472 37.0567 38.928 36.9287 39.264 36.6727C39.608 36.4167 39.78 36.0767 39.78 35.6527C39.78 35.3087 39.684 35.0287 39.492 34.8127C39.3 34.5967 38.996 34.4407 38.58 34.3447L37.152 34.0207C36.448 33.8607 35.912 33.5807 35.544 33.1807C35.184 32.7727 35.004 32.2567 35.004 31.6328ZM42.2418 40.5968V32.1007H43.2618L43.3458 33.1567C43.5378 32.7487 43.8218 32.4447 44.1978 32.2447C44.5818 32.0367 45.0058 31.9327 45.4698 31.9327C46.0298 31.9327 46.5138 32.0647 46.9218 32.3287C47.3298 32.5847 47.6418 32.9447 47.8578 33.4087C48.0818 33.8647 48.1938 34.3927 48.1938 34.9927C48.1938 35.5927 48.0858 36.1287 47.8698 36.6007C47.6618 37.0727 47.3538 37.4447 46.9458 37.7167C46.5458 37.9887 46.0538 38.1248 45.4698 38.1248C44.9978 38.1248 44.5778 38.0287 44.2098 37.8367C43.8418 37.6447 43.5618 37.3687 43.3698 37.0087V40.5968H42.2418ZM43.3818 35.0407C43.3818 35.4327 43.4538 35.7887 43.5978 36.1087C43.7498 36.4207 43.9618 36.6647 44.2338 36.8407C44.5138 37.0167 44.8458 37.1047 45.2298 37.1047C45.6138 37.1047 45.9418 37.0167 46.2138 36.8407C46.4858 36.6567 46.6938 36.4087 46.8378 36.0967C46.9898 35.7847 47.0658 35.4327 47.0658 35.0407C47.0658 34.6327 46.9898 34.2727 46.8378 33.9607C46.6938 33.6487 46.4858 33.4047 46.2138 33.2287C45.9418 33.0527 45.6138 32.9647 45.2298 32.9647C44.8458 32.9647 44.5138 33.0527 44.2338 33.2287C43.9618 33.4047 43.7498 33.6487 43.5978 33.9607C43.4538 34.2727 43.3818 34.6327 43.3818 35.0407ZM52.7971 32.0527V33.0847H52.2931C51.7571 33.0847 51.3331 33.2407 51.0211 33.5527C50.7171 33.8567 50.5651 34.2927 50.5651 34.8607V37.9688H49.4371V32.1127H50.4931L50.5891 33.2887H50.4811C50.5611 32.9047 50.7531 32.5927 51.0571 32.3527C51.3611 32.1047 51.7411 31.9807 52.1971 31.9807C52.3011 31.9807 52.3971 31.9887 52.4851 32.0047C52.5811 32.0127 52.6851 32.0287 52.7971 32.0527ZM53.8551 37.9688V32.1007H54.9831V37.9688H53.8551ZM54.4071 30.7087C54.2071 30.7087 54.0311 30.6367 53.8791 30.4927C53.7351 30.3407 53.6631 30.1647 53.6631 29.9647C53.6631 29.7567 53.7351 29.5807 53.8791 29.4367C54.0311 29.2927 54.2071 29.2207 54.4071 29.2207C54.6151 29.2207 54.7911 29.2927 54.9351 29.4367C55.0791 29.5807 55.1511 29.7567 55.1511 29.9647C55.1511 30.1647 55.0791 30.3407 54.9351 30.4927C54.7911 30.6367 54.6151 30.7087 54.4071 30.7087ZM57.7487 37.9688H56.6207V32.1007H57.6407L57.7607 33.0007C57.9447 32.6647 58.2087 32.4047 58.5527 32.2207C58.9047 32.0287 59.2887 31.9327 59.7047 31.9327C60.4727 31.9327 61.0407 32.1527 61.4087 32.5927C61.7767 33.0327 61.9607 33.6287 61.9607 34.3807V37.9688H60.8327V34.6327C60.8327 34.0407 60.7047 33.6167 60.4487 33.3607C60.1927 33.0967 59.8487 32.9647 59.4167 32.9647C58.8887 32.9647 58.4767 33.1367 58.1807 33.4807C57.8927 33.8247 57.7487 34.2847 57.7487 34.8607V37.9688ZM62.899 32.1007H66.331V33.0487H62.899V32.1007ZM65.179 37.9688H64.051V30.2647H65.179V37.9688ZM71.9926 29.2927V37.9688H70.8166V29.2927H71.9926ZM74.1886 34.8727H71.7286V33.8167H73.9366C74.5206 33.8167 74.9686 33.6607 75.2806 33.3487C75.5926 33.0287 75.7486 32.6007 75.7486 32.0647C75.7486 31.5207 75.5926 31.1007 75.2806 30.8047C74.9686 30.5007 74.5366 30.3487 73.9846 30.3487H71.4646V29.2927H74.1886C74.7566 29.2927 75.2486 29.4087 75.6646 29.6407C76.0806 29.8727 76.4046 30.1967 76.6366 30.6127C76.8686 31.0287 76.9846 31.5167 76.9846 32.0767C76.9846 32.6127 76.8686 33.0927 76.6366 33.5167C76.4046 33.9407 76.0806 34.2727 75.6646 34.5127C75.2486 34.7527 74.7566 34.8727 74.1886 34.8727ZM79.2766 37.9688H78.1486V29.1367H79.2766V37.9688ZM82.6531 38.1128C82.0291 38.1128 81.5371 37.9487 81.1771 37.6207C80.8251 37.2927 80.6491 36.8647 80.6491 36.3367C80.6491 35.8007 80.8411 35.3727 81.2251 35.0527C81.6091 34.7247 82.1451 34.5327 82.8331 34.4767L84.6811 34.3327V34.1647C84.6811 33.8367 84.6211 33.5767 84.5011 33.3847C84.3811 33.1847 84.2171 33.0447 84.0091 32.9647C83.8011 32.8767 83.5651 32.8327 83.3011 32.8327C82.8291 32.8327 82.4611 32.9327 82.1971 33.1327C81.9411 33.3247 81.8131 33.6007 81.8131 33.9607H80.8291C80.8291 33.5527 80.9331 33.1967 81.1411 32.8927C81.3491 32.5887 81.6411 32.3527 82.0171 32.1847C82.4011 32.0167 82.8451 31.9327 83.3491 31.9327C83.8371 31.9327 84.2611 32.0207 84.6211 32.1967C84.9891 32.3647 85.2731 32.6247 85.4731 32.9767C85.6811 33.3207 85.7851 33.7567 85.7851 34.2847V37.9688H84.8251L84.7051 37.0207C84.5531 37.3567 84.2891 37.6247 83.9131 37.8247C83.5451 38.0168 83.1251 38.1128 82.6531 38.1128ZM82.9771 37.2367C83.5131 37.2367 83.9331 37.0767 84.2371 36.7567C84.5411 36.4287 84.6931 35.9887 84.6931 35.4367V35.1247L83.1931 35.2447C82.6971 35.2927 82.3371 35.4087 82.1131 35.5927C81.8971 35.7767 81.7891 36.0127 81.7891 36.3007C81.7891 36.6127 81.8931 36.8487 82.1011 37.0087C82.3171 37.1607 82.6091 37.2367 82.9771 37.2367ZM88.4753 37.9688H87.3473V32.1007H88.3673L88.4873 33.0007C88.6713 32.6647 88.9353 32.4047 89.2793 32.2207C89.6313 32.0287 90.0153 31.9327 90.4313 31.9327C91.1993 31.9327 91.7673 32.1527 92.1353 32.5927C92.5033 33.0327 92.6873 33.6287 92.6873 34.3807V37.9688H91.5593V34.6327C91.5593 34.0407 91.4313 33.6167 91.1753 33.3607C90.9193 33.0967 90.5753 32.9647 90.1433 32.9647C89.6153 32.9647 89.2033 33.1367 88.9073 33.4807C88.6193 33.8247 88.4753 34.2847 88.4753 34.8607V37.9688ZM95.3776 37.9688H94.2496V32.1007H95.2696L95.3896 33.0007C95.5736 32.6647 95.8376 32.4047 96.1816 32.2207C96.5336 32.0287 96.9176 31.9327 97.3336 31.9327C98.1016 31.9327 98.6696 32.1527 99.0376 32.5927C99.4056 33.0327 99.5896 33.6287 99.5896 34.3807V37.9688H98.4616V34.6327C98.4616 34.0407 98.3336 33.6167 98.0776 33.3607C97.8216 33.0967 97.4776 32.9647 97.0456 32.9647C96.5176 32.9647 96.1056 33.1367 95.8096 33.4807C95.5216 33.8247 95.3776 34.2847 95.3776 34.8607V37.9688ZM101.152 37.9688V32.1007H102.28V37.9688H101.152ZM101.704 30.7087C101.504 30.7087 101.328 30.6367 101.176 30.4927C101.032 30.3407 100.96 30.1647 100.96 29.9647C100.96 29.7567 101.032 29.5807 101.176 29.4367C101.328 29.2927 101.504 29.2207 101.704 29.2207C101.912 29.2207 102.088 29.2927 102.232 29.4367C102.376 29.5807 102.448 29.7567 102.448 29.9647C102.448 30.1647 102.376 30.3407 102.232 30.4927C102.088 30.6367 101.912 30.7087 101.704 30.7087ZM105.046 37.9688H103.918V32.1007H104.938L105.058 33.0007C105.242 32.6647 105.506 32.4047 105.85 32.2207C106.202 32.0287 106.586 31.9327 107.002 31.9327C107.77 31.9327 108.338 32.1527 108.706 32.5927C109.074 33.0327 109.258 33.6287 109.258 34.3807V37.9688H108.13V34.6327C108.13 34.0407 108.002 33.6167 107.746 33.3607C107.49 33.0967 107.146 32.9647 106.714 32.9647C106.186 32.9647 105.774 33.1367 105.478 33.4807C105.19 33.8247 105.046 34.2847 105.046 34.8607V37.9688ZM110.448 34.8848C110.448 34.3327 110.56 33.8367 110.784 33.3967C111.008 32.9487 111.328 32.5927 111.744 32.3287C112.16 32.0647 112.652 31.9327 113.22 31.9327C113.748 31.9327 114.2 32.0607 114.576 32.3167C114.952 32.5647 115.22 32.9127 115.38 33.3607L115.236 33.5167L115.356 32.1007H116.364V37.7287C116.364 38.3448 116.244 38.8768 116.004 39.3248C115.764 39.7808 115.424 40.1328 114.984 40.3808C114.544 40.6288 114.024 40.7528 113.424 40.7528C112.624 40.7528 111.968 40.5408 111.456 40.1168C110.944 39.6928 110.632 39.1088 110.52 38.3647H111.648C111.72 38.7968 111.912 39.1328 112.224 39.3728C112.536 39.6128 112.936 39.7327 113.424 39.7327C113.976 39.7327 114.416 39.5648 114.744 39.2288C115.08 38.9008 115.248 38.4568 115.248 37.8967V36.2407L115.392 36.3967C115.24 36.8367 114.964 37.1847 114.564 37.4407C114.164 37.6887 113.7 37.8127 113.172 37.8127C112.612 37.8127 112.128 37.6847 111.72 37.4287C111.312 37.1647 110.996 36.8127 110.772 36.3727C110.556 35.9327 110.448 35.4367 110.448 34.8848ZM111.576 34.8607C111.576 35.2287 111.648 35.5607 111.792 35.8567C111.944 36.1527 112.152 36.3887 112.416 36.5647C112.688 36.7407 113.004 36.8287 113.364 36.8287C113.748 36.8287 114.076 36.7447 114.348 36.5767C114.62 36.4087 114.828 36.1767 114.972 35.8807C115.124 35.5847 115.2 35.2447 115.2 34.8607C115.2 34.4767 115.128 34.1407 114.984 33.8527C114.84 33.5647 114.632 33.3367 114.36 33.1687C114.088 33.0007 113.76 32.9167 113.376 32.9167C113 32.9167 112.676 33.0047 112.404 33.1807C112.14 33.3567 111.936 33.5927 111.792 33.8887C111.648 34.1767 111.576 34.5007 111.576 34.8607ZM122.617 37.9688H121.465V29.2927H122.617L125.605 36.5887L128.593 29.2927H129.769V37.9688H128.617V34.5367C128.617 34.1287 128.617 33.7807 128.617 33.4927C128.617 33.2047 128.621 32.9567 128.629 32.7487C128.637 32.5407 128.645 32.3567 128.653 32.1967C128.661 32.0287 128.673 31.8687 128.689 31.7167L126.157 37.9688H125.053L122.533 31.7407C122.565 31.9487 122.585 32.2687 122.593 32.7007C122.609 33.1327 122.617 33.6527 122.617 34.2607V37.9688ZM134.129 38.1128C133.561 38.1128 133.057 37.9847 132.617 37.7287C132.177 37.4647 131.833 37.1047 131.585 36.6487C131.337 36.1847 131.213 35.6487 131.213 35.0407C131.213 34.4247 131.333 33.8847 131.573 33.4207C131.821 32.9567 132.157 32.5927 132.581 32.3287C133.013 32.0647 133.513 31.9327 134.081 31.9327C134.641 31.9327 135.125 32.0527 135.533 32.2927C135.949 32.5327 136.269 32.8687 136.493 33.3007C136.725 33.7327 136.841 34.2407 136.841 34.8247V35.2447L131.813 35.2567L131.837 34.5007H135.713C135.713 34.0127 135.565 33.6207 135.269 33.3247C134.973 33.0287 134.577 32.8807 134.081 32.8807C133.705 32.8807 133.381 32.9647 133.109 33.1327C132.845 33.2927 132.641 33.5327 132.497 33.8527C132.361 34.1647 132.293 34.5407 132.293 34.9807C132.293 35.6847 132.453 36.2287 132.773 36.6127C133.093 36.9887 133.553 37.1768 134.153 37.1768C134.593 37.1768 134.953 37.0887 135.233 36.9127C135.513 36.7367 135.701 36.4807 135.797 36.1447H136.853C136.709 36.7687 136.401 37.2527 135.929 37.5967C135.457 37.9407 134.857 38.1128 134.129 38.1128ZM140.633 38.1128C140.065 38.1128 139.561 37.9847 139.121 37.7287C138.681 37.4647 138.337 37.1047 138.089 36.6487C137.841 36.1847 137.717 35.6487 137.717 35.0407C137.717 34.4247 137.837 33.8847 138.077 33.4207C138.325 32.9567 138.661 32.5927 139.085 32.3287C139.517 32.0647 140.017 31.9327 140.585 31.9327C141.145 31.9327 141.629 32.0527 142.037 32.2927C142.453 32.5327 142.773 32.8687 142.997 33.3007C143.229 33.7327 143.345 34.2407 143.345 34.8247V35.2447L138.317 35.2567L138.341 34.5007H142.217C142.217 34.0127 142.069 33.6207 141.773 33.3247C141.477 33.0287 141.081 32.8807 140.585 32.8807C140.209 32.8807 139.885 32.9647 139.613 33.1327C139.349 33.2927 139.145 33.5327 139.001 33.8527C138.865 34.1647 138.797 34.5407 138.797 34.9807C138.797 35.6847 138.957 36.2287 139.277 36.6127C139.597 36.9887 140.057 37.1768 140.657 37.1768C141.097 37.1768 141.457 37.0887 141.737 36.9127C142.017 36.7367 142.205 36.4807 142.301 36.1447H143.357C143.213 36.7687 142.905 37.2527 142.433 37.5967C141.961 37.9407 141.361 38.1128 140.633 38.1128ZM143.922 32.1007H147.354V33.0487H143.922V32.1007ZM146.202 37.9688H145.074V30.2647H146.202V37.9688ZM148.367 37.9688V32.1007H149.495V37.9688H148.367ZM148.919 30.7087C148.719 30.7087 148.543 30.6367 148.391 30.4927C148.247 30.3407 148.175 30.1647 148.175 29.9647C148.175 29.7567 148.247 29.5807 148.391 29.4367C148.543 29.2927 148.719 29.2207 148.919 29.2207C149.127 29.2207 149.303 29.2927 149.447 29.4367C149.591 29.5807 149.663 29.7567 149.663 29.9647C149.663 30.1647 149.591 30.3407 149.447 30.4927C149.303 30.6367 149.127 30.7087 148.919 30.7087ZM152.26 37.9688H151.132V32.1007H152.152L152.272 33.0007C152.456 32.6647 152.72 32.4047 153.064 32.2207C153.416 32.0287 153.8 31.9327 154.216 31.9327C154.984 31.9327 155.552 32.1527 155.92 32.5927C156.288 33.0327 156.472 33.6287 156.472 34.3807V37.9688H155.344V34.6327C155.344 34.0407 155.216 33.6167 154.96 33.3607C154.704 33.0967 154.36 32.9647 153.928 32.9647C153.4 32.9647 152.988 33.1367 152.692 33.4807C152.404 33.8247 152.26 34.2847 152.26 34.8607V37.9688ZM157.663 34.8848C157.663 34.3327 157.775 33.8367 157.999 33.3967C158.223 32.9487 158.543 32.5927 158.959 32.3287C159.375 32.0647 159.867 31.9327 160.435 31.9327C160.963 31.9327 161.415 32.0607 161.791 32.3167C162.167 32.5647 162.435 32.9127 162.595 33.3607L162.451 33.5167L162.571 32.1007H163.579V37.7287C163.579 38.3448 163.459 38.8768 163.219 39.3248C162.979 39.7808 162.639 40.1328 162.199 40.3808C161.759 40.6288 161.239 40.7528 160.639 40.7528C159.839 40.7528 159.183 40.5408 158.671 40.1168C158.159 39.6928 157.847 39.1088 157.735 38.3647H158.863C158.935 38.7968 159.127 39.1328 159.439 39.3728C159.751 39.6128 160.151 39.7327 160.639 39.7327C161.191 39.7327 161.631 39.5648 161.959 39.2288C162.295 38.9008 162.463 38.4568 162.463 37.8967V36.2407L162.607 36.3967C162.455 36.8367 162.179 37.1847 161.779 37.4407C161.379 37.6887 160.915 37.8127 160.387 37.8127C159.827 37.8127 159.343 37.6847 158.935 37.4287C158.527 37.1647 158.211 36.8127 157.987 36.3727C157.771 35.9327 157.663 35.4367 157.663 34.8848ZM158.791 34.8607C158.791 35.2287 158.863 35.5607 159.007 35.8567C159.159 36.1527 159.367 36.3887 159.631 36.5647C159.903 36.7407 160.219 36.8287 160.579 36.8287C160.963 36.8287 161.291 36.7447 161.563 36.5767C161.835 36.4087 162.043 36.1767 162.187 35.8807C162.339 35.5847 162.415 35.2447 162.415 34.8607C162.415 34.4767 162.343 34.1407 162.199 33.8527C162.055 33.5647 161.847 33.3367 161.575 33.1687C161.303 33.0007 160.975 32.9167 160.591 32.9167C160.215 32.9167 159.891 33.0047 159.619 33.1807C159.355 33.3567 159.151 33.5927 159.007 33.8887C158.863 34.1767 158.791 34.5007 158.791 34.8607ZM164.727 36.2647H165.807C165.807 36.5607 165.915 36.7967 166.131 36.9727C166.347 37.1407 166.639 37.2247 167.007 37.2247C167.407 37.2247 167.715 37.1487 167.931 36.9967C168.147 36.8367 168.255 36.6247 168.255 36.3607C168.255 36.1687 168.195 36.0087 168.075 35.8807C167.963 35.7527 167.755 35.6487 167.451 35.5687L166.419 35.3287C165.899 35.2007 165.511 35.0047 165.255 34.7407C165.007 34.4767 164.883 34.1287 164.883 33.6967C164.883 33.3367 164.975 33.0247 165.159 32.7607C165.351 32.4967 165.611 32.2927 165.939 32.1487C166.275 32.0047 166.659 31.9327 167.091 31.9327C167.523 31.9327 167.895 32.0087 168.207 32.1607C168.527 32.3127 168.775 32.5247 168.951 32.7967C169.135 33.0687 169.231 33.3927 169.239 33.7687H168.159C168.151 33.4647 168.051 33.2287 167.859 33.0607C167.667 32.8927 167.399 32.8087 167.055 32.8087C166.703 32.8087 166.431 32.8847 166.239 33.0367C166.047 33.1887 165.951 33.3967 165.951 33.6607C165.951 34.0527 166.239 34.3207 166.815 34.4647L167.847 34.7167C168.343 34.8287 168.715 35.0127 168.963 35.2687C169.211 35.5167 169.335 35.8567 169.335 36.2887C169.335 36.6567 169.235 36.9807 169.035 37.2607C168.835 37.5327 168.559 37.7447 168.207 37.8967C167.863 38.0408 167.455 38.1128 166.983 38.1128C166.295 38.1128 165.747 37.9447 165.339 37.6087C164.931 37.2727 164.727 36.8247 164.727 36.2647Z" fill="white"/>
<g clip-path="url(#clip0_930_43167)">
<path d="M201.664 36.1354C201.388 35.8593 200.94 35.8593 200.664 36.1354L193.497 43.3021C192.024 44.7754 189.637 44.7754 188.164 43.3021C186.691 41.8287 186.691 39.4421 188.164 37.9687L196.497 29.6354C197.417 28.7154 198.911 28.7154 199.831 29.6354C200.751 30.5554 200.751 32.0487 199.831 32.9687L192.831 39.9688C192.464 40.3354 191.864 40.3354 191.497 39.9688C191.131 39.6021 191.131 39.0021 191.497 38.6354L197.331 32.8021C197.607 32.5259 197.607 32.0782 197.331 31.8021C197.055 31.5259 196.607 31.5259 196.331 31.8021L190.497 37.6354C189.577 38.5554 189.577 40.0487 190.497 40.9687C191.417 41.8887 192.911 41.8888 193.831 40.9688L200.831 33.9687C202.304 32.4954 202.304 30.1087 200.831 28.6354C199.357 27.1621 196.971 27.1621 195.497 28.6354L187.164 36.9687C185.137 38.9954 185.137 42.2754 187.164 44.3021C189.191 46.3287 192.471 46.3287 194.497 44.3021L201.664 37.1354C201.94 36.8593 201.94 36.4116 201.664 36.1354Z" fill="#AAAAAA"/>
</g>
<rect x="214.5" y="28.9688" width="32" height="16" rx="8" fill="#BBA7F4" fill-opacity="0.32"/>
<circle cx="238.5" cy="36.9688" r="8" fill="#BBA7F4"/>
<path d="M26.5 58.4688C25.2144 58.4688 23.9577 58.85 22.8888 59.5642C21.8199 60.2784 20.9868 61.2936 20.4948 62.4813C20.0028 63.669 19.8741 64.976 20.1249 66.2368C20.3757 67.4977 20.9948 68.6559 21.9038 69.5649C22.8129 70.474 23.971 71.0931 25.2319 71.3439C26.4928 71.5947 27.7997 71.4659 28.9874 70.974C30.1752 70.482 31.1903 69.6489 31.9046 68.58C32.6188 67.511 33 66.2543 33 64.9688C32.9982 63.2454 32.3128 61.5932 31.0942 60.3746C29.8756 59.156 28.2234 58.4706 26.5 58.4688ZM26.5 70.4688C25.4122 70.4688 24.3488 70.1462 23.4444 69.5418C22.5399 68.9375 21.8349 68.0785 21.4187 67.0735C21.0024 66.0685 20.8935 64.9626 21.1057 63.8958C21.3179 62.8289 21.8417 61.8489 22.6109 61.0797C23.3801 60.3105 24.3601 59.7866 25.427 59.5744C26.4939 59.3622 27.5998 59.4711 28.6048 59.8874C29.6098 60.3037 30.4687 61.0086 31.0731 61.9131C31.6774 62.8176 32 63.881 32 64.9688C31.9983 66.4269 31.4184 67.8249 30.3873 68.856C29.3562 69.8871 27.9582 70.4671 26.5 70.4688ZM30.5 64.9688C30.5 65.1014 30.4473 65.2285 30.3536 65.3223C30.2598 65.4161 30.1326 65.4688 30 65.4688H26.5C26.3674 65.4688 26.2402 65.4161 26.1464 65.3223C26.0527 65.2285 26 65.1014 26 64.9688V61.4688C26 61.3361 26.0527 61.209 26.1464 61.1152C26.2402 61.0214 26.3674 60.9688 26.5 60.9688C26.6326 60.9688 26.7598 61.0214 26.8536 61.1152C26.9473 61.209 27 61.3361 27 61.4688V64.4688H30C30.1326 64.4688 30.2598 64.5214 30.3536 64.6152C30.4473 64.709 30.5 64.8361 30.5 64.9688Z" fill="#AAAAAA"/>
<path d="M44.672 62.1567H42.92V61.3767H45.5V69.9688H44.672V62.1567ZM50.6999 72.5008V64.1607H51.4199L51.5039 65.3367C51.7119 64.8887 52.0079 64.5567 52.3919 64.3407C52.7839 64.1167 53.2199 64.0047 53.6999 64.0047C54.2599 64.0047 54.7399 64.1367 55.1399 64.4007C55.5399 64.6647 55.8479 65.0247 56.0639 65.4807C56.2799 65.9367 56.3879 66.4567 56.3879 67.0407C56.3879 67.6247 56.2799 68.1487 56.0639 68.6127C55.8559 69.0767 55.5519 69.4447 55.1519 69.7167C54.7599 69.9807 54.2759 70.1128 53.6999 70.1128C53.2039 70.1128 52.7679 70.0087 52.3919 69.8007C52.0159 69.5847 51.7279 69.2687 51.5279 68.8527V72.5008H50.6999ZM51.5399 67.0647C51.5399 67.5047 51.6199 67.9007 51.7799 68.2527C51.9399 68.5967 52.1679 68.8687 52.4639 69.0687C52.7679 69.2687 53.1319 69.3687 53.5559 69.3687C53.9799 69.3687 54.3399 69.2687 54.6359 69.0687C54.9319 68.8687 55.1559 68.5967 55.3079 68.2527C55.4679 67.9007 55.5479 67.5047 55.5479 67.0647C55.5479 66.6167 55.4679 66.2207 55.3079 65.8767C55.1559 65.5247 54.9319 65.2527 54.6359 65.0607C54.3399 64.8607 53.9799 64.7607 53.5559 64.7607C53.1319 64.7607 52.7679 64.8607 52.4639 65.0607C52.1679 65.2527 51.9399 65.5247 51.7799 65.8767C51.6199 66.2207 51.5399 66.6167 51.5399 67.0647ZM58.5358 69.9688H57.7078V64.1607H58.4277L58.5478 65.2527L58.4277 65.2167C58.5477 64.8487 58.7718 64.5567 59.0998 64.3407C59.4358 64.1167 59.8278 64.0047 60.2758 64.0047C60.7958 64.0047 61.2278 64.1487 61.5718 64.4367C61.9238 64.7167 62.1478 65.1007 62.2438 65.5887H62.0638C62.1438 65.1007 62.3598 64.7167 62.7118 64.4367C63.0718 64.1487 63.5198 64.0047 64.0558 64.0047C64.6798 64.0047 65.1838 64.1967 65.5678 64.5807C65.9518 64.9647 66.1438 65.4927 66.1438 66.1647V69.9688H65.3398V66.3327C65.3398 65.8367 65.2118 65.4487 64.9558 65.1687C64.6998 64.8887 64.3478 64.7487 63.8997 64.7487C63.5798 64.7487 63.3038 64.8247 63.0718 64.9767C62.8398 65.1207 62.6598 65.3167 62.5318 65.5647C62.4118 65.8127 62.3518 66.0847 62.3518 66.3807V69.9688H61.5358V66.3207C61.5358 65.8247 61.4038 65.4407 61.1398 65.1687C60.8838 64.8967 60.5358 64.7607 60.0958 64.7607C59.7758 64.7607 59.4958 64.8327 59.2558 64.9767C59.0238 65.1207 58.8438 65.3167 58.7158 65.5647C58.5958 65.8047 58.5358 66.0727 58.5358 66.3687V69.9688ZM71.0414 67.1847V66.4408H74.5214V67.1847H71.0414ZM84.8212 69.9688H79.1572V69.2847L81.9052 66.8848C82.3052 66.5407 82.6332 66.2367 82.8892 65.9727C83.1452 65.7087 83.3452 65.4687 83.4892 65.2527C83.6412 65.0287 83.7452 64.8087 83.8012 64.5927C83.8652 64.3767 83.8972 64.1407 83.8972 63.8847C83.8972 63.3087 83.7332 62.8527 83.4052 62.5167C83.0772 62.1807 82.6292 62.0127 82.0612 62.0127C81.4692 62.0127 80.9892 62.2127 80.6212 62.6127C80.2612 63.0127 80.0732 63.5447 80.0572 64.2087H79.1932C79.2172 63.6087 79.3492 63.0847 79.5892 62.6367C79.8292 62.1887 80.1612 61.8407 80.5852 61.5927C81.0172 61.3447 81.5132 61.2207 82.0732 61.2207C82.6172 61.2207 83.0892 61.3327 83.4892 61.5567C83.8972 61.7727 84.2132 62.0767 84.4372 62.4688C84.6612 62.8527 84.7732 63.3087 84.7732 63.8367C84.7732 64.1407 84.7332 64.4327 84.6532 64.7127C84.5732 64.9847 84.4452 65.2567 84.2692 65.5287C84.0932 65.8007 83.8612 66.0887 83.5732 66.3927C83.2852 66.6967 82.9252 67.0367 82.4932 67.4127L80.0932 69.5127L79.8292 69.1647H84.8212V69.9688ZM89.5476 72.5008V64.1607H90.2676L90.3516 65.3367C90.5596 64.8887 90.8556 64.5567 91.2396 64.3407C91.6316 64.1167 92.0676 64.0047 92.5476 64.0047C93.1076 64.0047 93.5876 64.1367 93.9876 64.4007C94.3876 64.6647 94.6956 65.0247 94.9116 65.4807C95.1276 65.9367 95.2356 66.4567 95.2356 67.0407C95.2356 67.6247 95.1276 68.1487 94.9116 68.6127C94.7036 69.0767 94.3996 69.4447 93.9996 69.7167C93.6076 69.9807 93.1236 70.1128 92.5476 70.1128C92.0516 70.1128 91.6156 70.0087 91.2396 69.8007C90.8636 69.5847 90.5756 69.2687 90.3756 68.8527V72.5008H89.5476ZM90.3876 67.0647C90.3876 67.5047 90.4676 67.9007 90.6276 68.2527C90.7876 68.5967 91.0156 68.8687 91.3116 69.0687C91.6156 69.2687 91.9796 69.3687 92.4036 69.3687C92.8276 69.3687 93.1876 69.2687 93.4836 69.0687C93.7796 68.8687 94.0036 68.5967 94.1556 68.2527C94.3156 67.9007 94.3956 67.5047 94.3956 67.0647C94.3956 66.6167 94.3156 66.2207 94.1556 65.8767C94.0036 65.5247 93.7796 65.2527 93.4836 65.0607C93.1876 64.8607 92.8276 64.7607 92.4036 64.7607C91.9796 64.7607 91.6156 64.8607 91.3116 65.0607C91.0156 65.2527 90.7876 65.5247 90.6276 65.8767C90.4676 66.2207 90.3876 66.6167 90.3876 67.0647ZM97.3834 69.9688H96.5554V64.1607H97.2754L97.3954 65.2527L97.2754 65.2167C97.3954 64.8487 97.6194 64.5567 97.9474 64.3407C98.2834 64.1167 98.6754 64.0047 99.1234 64.0047C99.6434 64.0047 100.075 64.1487 100.419 64.4367C100.771 64.7167 100.995 65.1007 101.091 65.5887H100.911C100.991 65.1007 101.207 64.7167 101.559 64.4367C101.919 64.1487 102.367 64.0047 102.903 64.0047C103.527 64.0047 104.031 64.1967 104.415 64.5807C104.799 64.9647 104.991 65.4927 104.991 66.1647V69.9688H104.187V66.3327C104.187 65.8367 104.059 65.4487 103.803 65.1687C103.547 64.8887 103.195 64.7487 102.747 64.7487C102.427 64.7487 102.151 64.8247 101.919 64.9767C101.687 65.1207 101.507 65.3167 101.379 65.5647C101.259 65.8127 101.199 66.0847 101.199 66.3807V69.9688H100.383V66.3207C100.383 65.8247 100.251 65.4407 99.9874 65.1687C99.7314 64.8967 99.3834 64.7607 98.9434 64.7607C98.6234 64.7607 98.3434 64.8327 98.1034 64.9767C97.8714 65.1207 97.6914 65.3167 97.5634 65.5647C97.4434 65.8047 97.3834 66.0727 97.3834 66.3687V69.9688Z" fill="#AAAAAA"/>
<path d="M26.5 82.4688C25.2144 82.4688 23.9577 82.85 22.8888 83.5642C21.8199 84.2784 20.9868 85.2936 20.4948 86.4813C20.0028 87.669 19.8741 88.976 20.1249 90.2368C20.3757 91.4977 20.9948 92.6559 21.9038 93.5649C22.8129 94.474 23.971 95.0931 25.2319 95.3439C26.4928 95.5947 27.7997 95.4659 28.9874 94.974C30.1752 94.482 31.1903 93.6489 31.9046 92.58C32.6188 91.511 33 90.2543 33 88.9688C32.9982 87.2454 32.3128 85.5932 31.0942 84.3746C29.8756 83.156 28.2234 82.4706 26.5 82.4688ZM23.13 93.3125C23.4917 92.7468 23.99 92.2813 24.579 91.9588C25.1679 91.6363 25.8286 91.4673 26.5 91.4673C27.1715 91.4673 27.8321 91.6363 28.4211 91.9588C29.01 92.2813 29.5083 92.7468 29.87 93.3125C28.9065 94.0619 27.7206 94.4687 26.5 94.4687C25.2794 94.4687 24.0935 94.0619 23.13 93.3125ZM24.5 88.4688C24.5 88.0732 24.6173 87.6865 24.8371 87.3576C25.0568 87.0287 25.3692 86.7724 25.7346 86.621C26.1001 86.4696 26.5022 86.43 26.8902 86.5072C27.2781 86.5843 27.6345 86.7748 27.9142 87.0545C28.1939 87.3342 28.3844 87.6906 28.4616 88.0786C28.5387 88.4665 28.4991 88.8687 28.3478 89.2341C28.1964 89.5996 27.94 89.9119 27.6111 90.1317C27.2822 90.3515 26.8956 90.4688 26.5 90.4688C25.9696 90.4688 25.4609 90.258 25.0858 89.883C24.7107 89.5079 24.5 88.9992 24.5 88.4688ZM30.61 92.6194C30.0524 91.8113 29.2682 91.1861 28.3563 90.8225C28.8461 90.4367 29.2036 89.9077 29.379 89.3093C29.5543 88.7109 29.5388 88.0727 29.3346 87.4835C29.1305 86.8942 28.7477 86.3833 28.2397 86.0217C27.7317 85.6601 27.1236 85.4657 26.5 85.4657C25.8764 85.4657 25.2683 85.6601 24.7603 86.0217C24.2523 86.3833 23.8695 86.8942 23.6654 87.4835C23.4612 88.0727 23.4457 88.7109 23.621 89.3093C23.7964 89.9077 24.1539 90.4367 24.6438 90.8225C23.7318 91.1861 22.9476 91.8113 22.39 92.6194C21.6854 91.827 21.2248 90.8478 21.0638 89.7997C20.9028 88.7516 21.0482 87.6793 21.4825 86.7119C21.9167 85.7446 22.6214 84.9234 23.5116 84.3472C24.4018 83.7711 25.4396 83.4645 26.5 83.4645C27.5604 83.4645 28.5982 83.7711 29.4884 84.3472C30.3786 84.9234 31.0833 85.7446 31.5176 86.7119C31.9518 87.6793 32.0972 88.7516 31.9362 89.7997C31.7752 90.8478 31.3146 91.827 30.61 92.6194Z" fill="#AAAAAA"/>
<path d="M44.408 85.3767V93.9688H43.544V85.3767H44.408ZM43.688 93.9688V93.1768H48.356V93.9688H43.688ZM51.7883 94.1128C51.2283 94.1128 50.7323 93.9847 50.3003 93.7287C49.8763 93.4727 49.5443 93.1167 49.3043 92.6607C49.0643 92.2047 48.9443 91.6727 48.9443 91.0647C48.9443 90.4647 49.0603 89.9367 49.2923 89.4807C49.5323 89.0167 49.8603 88.6567 50.2763 88.4007C50.6923 88.1367 51.1763 88.0047 51.7283 88.0047C52.2563 88.0047 52.7163 88.1207 53.1083 88.3527C53.5083 88.5847 53.8163 88.9087 54.0323 89.3247C54.2563 89.7327 54.3683 90.2127 54.3683 90.7647V91.1727H49.4003L49.4243 90.5727H53.5403C53.5403 90.0127 53.3723 89.5647 53.0363 89.2287C52.7083 88.8847 52.2723 88.7127 51.7283 88.7127C51.3283 88.7127 50.9763 88.8047 50.6723 88.9887C50.3763 89.1727 50.1483 89.4367 49.9883 89.7807C49.8283 90.1167 49.7483 90.5167 49.7483 90.9807C49.7483 91.7487 49.9243 92.3447 50.2763 92.7687C50.6363 93.1927 51.1443 93.4047 51.8003 93.4047C52.2723 93.4047 52.6603 93.3047 52.9643 93.1047C53.2683 92.9047 53.4723 92.6127 53.5763 92.2287H54.3683C54.2163 92.8367 53.9203 93.3047 53.4803 93.6327C53.0403 93.9527 52.4763 94.1128 51.7883 94.1128ZM55.2001 92.3367H55.9921C55.9921 92.6727 56.1121 92.9407 56.3521 93.1407C56.5921 93.3327 56.9121 93.4287 57.3121 93.4287C57.7601 93.4287 58.1081 93.3407 58.3561 93.1647C58.6121 92.9807 58.7401 92.7327 58.7401 92.4207C58.7401 92.1807 58.6721 91.9887 58.5361 91.8447C58.4001 91.7007 58.1601 91.5847 57.8161 91.4967L56.8201 91.2447C56.3161 91.1167 55.9401 90.9207 55.6921 90.6567C55.4441 90.3927 55.3201 90.0647 55.3201 89.6727C55.3201 89.3367 55.4081 89.0447 55.5841 88.7967C55.7601 88.5407 56.0041 88.3447 56.3161 88.2087C56.6361 88.0727 57.0041 88.0047 57.4201 88.0047C57.8281 88.0047 58.1841 88.0767 58.4881 88.2207C58.7921 88.3647 59.0281 88.5687 59.1961 88.8327C59.3721 89.0887 59.4641 89.3967 59.4721 89.7567H58.6681C58.6601 89.4127 58.5441 89.1487 58.3201 88.9647C58.0961 88.7807 57.7881 88.6887 57.3961 88.6887C56.9881 88.6887 56.6721 88.7727 56.4481 88.9407C56.2321 89.1087 56.1241 89.3487 56.1241 89.6607C56.1241 90.1087 56.4401 90.4127 57.0721 90.5727L58.0681 90.8247C58.5721 90.9527 58.9401 91.1407 59.1721 91.3887C59.4121 91.6367 59.5321 91.9687 59.5321 92.3848C59.5321 92.7287 59.4401 93.0327 59.2561 93.2967C59.0721 93.5607 58.8121 93.7647 58.4761 93.9087C58.1481 94.0447 57.7641 94.1128 57.3241 94.1128C56.6761 94.1128 56.1601 93.9527 55.7761 93.6327C55.3921 93.3047 55.2001 92.8727 55.2001 92.3367ZM61.7593 93.9688H60.9313V85.2207H61.7593V93.9688ZM63.5203 93.9688V88.1607H64.3483V93.9688H63.5203ZM63.9283 86.5647C63.7603 86.5647 63.6163 86.5047 63.4963 86.3847C63.3763 86.2647 63.3163 86.1207 63.3163 85.9527C63.3163 85.7847 63.3763 85.6407 63.4963 85.5207C63.6163 85.3927 63.7603 85.3287 63.9283 85.3287C64.0963 85.3287 64.2403 85.3927 64.3603 85.5207C64.4883 85.6407 64.5523 85.7847 64.5523 85.9527C64.5523 86.1207 64.4883 86.2647 64.3603 86.3847C64.2403 86.5047 64.0963 86.5647 63.9283 86.5647ZM68.5109 94.1128C67.9509 94.1128 67.4549 93.9847 67.0229 93.7287C66.5989 93.4727 66.2669 93.1167 66.0269 92.6607C65.7869 92.2047 65.6669 91.6727 65.6669 91.0647C65.6669 90.4647 65.7829 89.9367 66.0149 89.4807C66.2549 89.0167 66.5829 88.6567 66.9989 88.4007C67.4149 88.1367 67.8989 88.0047 68.4509 88.0047C68.9789 88.0047 69.4389 88.1207 69.8309 88.3527C70.2309 88.5847 70.5389 88.9087 70.7549 89.3247C70.9789 89.7327 71.0909 90.2127 71.0909 90.7647V91.1727H66.1229L66.1469 90.5727H70.2629C70.2629 90.0127 70.0949 89.5647 69.7589 89.2287C69.4309 88.8847 68.9949 88.7127 68.4509 88.7127C68.0509 88.7127 67.6989 88.8047 67.3949 88.9887C67.0989 89.1727 66.8709 89.4367 66.7109 89.7807C66.5509 90.1167 66.4709 90.5167 66.4709 90.9807C66.4709 91.7487 66.6469 92.3447 66.9989 92.7687C67.3589 93.1927 67.8669 93.4047 68.5229 93.4047C68.9949 93.4047 69.3829 93.3047 69.6869 93.1047C69.9909 92.9047 70.1949 92.6127 70.2989 92.2287H71.0909C70.9389 92.8367 70.6429 93.3047 70.2029 93.6327C69.7629 93.9527 69.1989 94.1128 68.5109 94.1128ZM75.9229 93.9688H75.0469L78.2029 85.3767H79.2709L82.4629 93.9688H81.5629L80.7229 91.6887H76.7629L75.9229 93.9688ZM78.6229 86.5887L77.0269 90.9327H80.4469L78.8389 86.5887C78.8229 86.5247 78.8029 86.4607 78.7789 86.3967C78.7549 86.3327 78.7389 86.2807 78.7309 86.2407C78.7229 86.2807 78.7069 86.3367 78.6829 86.4087C78.6669 86.4727 78.6469 86.5327 78.6229 86.5887ZM84.3413 93.9688H83.5133V85.2207H84.3413V93.9688ZM88.5383 94.1128C87.9783 94.1128 87.4823 93.9847 87.0503 93.7287C86.6263 93.4727 86.2943 93.1167 86.0543 92.6607C85.8143 92.2047 85.6943 91.6727 85.6943 91.0647C85.6943 90.4647 85.8103 89.9367 86.0423 89.4807C86.2823 89.0167 86.6103 88.6567 87.0263 88.4007C87.4423 88.1367 87.9263 88.0047 88.4783 88.0047C89.0063 88.0047 89.4663 88.1207 89.8583 88.3527C90.2583 88.5847 90.5663 88.9087 90.7823 89.3247C91.0063 89.7327 91.1183 90.2127 91.1183 90.7647V91.1727H86.1503L86.1743 90.5727H90.2903C90.2903 90.0127 90.1223 89.5647 89.7863 89.2287C89.4583 88.8847 89.0223 88.7127 88.4783 88.7127C88.0783 88.7127 87.7263 88.8047 87.4223 88.9887C87.1263 89.1727 86.8983 89.4367 86.7383 89.7807C86.5783 90.1167 86.4983 90.5167 86.4983 90.9807C86.4983 91.7487 86.6743 92.3447 87.0263 92.7687C87.3863 93.1927 87.8943 93.4047 88.5503 93.4047C89.0223 93.4047 89.4103 93.3047 89.7143 93.1047C90.0183 92.9047 90.2223 92.6127 90.3263 92.2287H91.1183C90.9663 92.8367 90.6703 93.3047 90.2303 93.6327C89.7903 93.9527 89.2263 94.1128 88.5383 94.1128ZM92.4592 93.9688H91.4872L93.5632 91.0647L91.4992 88.1607H92.4712L94.1152 90.4887L95.7472 88.1607H96.7072L94.6432 91.0767L96.6952 93.9688H95.7112L94.0792 91.6407L92.4592 93.9688ZM99.3601 94.1128C98.7441 94.1128 98.2601 93.9527 97.9081 93.6327C97.5641 93.3127 97.3921 92.9007 97.3921 92.3967C97.3921 91.8607 97.5841 91.4327 97.9681 91.1127C98.3521 90.7927 98.8841 90.6047 99.5641 90.5487L101.484 90.3927V90.2007C101.484 89.8167 101.416 89.5167 101.28 89.3007C101.144 89.0767 100.96 88.9207 100.728 88.8327C100.496 88.7447 100.236 88.7007 99.9481 88.7007C99.4361 88.7007 99.0401 88.8087 98.7601 89.0247C98.4801 89.2407 98.3401 89.5447 98.3401 89.9367H97.5841C97.5841 89.5447 97.6841 89.2047 97.8841 88.9167C98.0841 88.6287 98.3641 88.4047 98.7241 88.2447C99.0841 88.0847 99.5001 88.0047 99.9721 88.0047C100.428 88.0047 100.828 88.0847 101.172 88.2447C101.516 88.3967 101.788 88.6367 101.988 88.9647C102.196 89.2847 102.3 89.7007 102.3 90.2127V93.9688H101.604L101.496 92.9487C101.32 93.3167 101.04 93.6047 100.656 93.8127C100.28 94.0127 99.8481 94.1128 99.3601 94.1128ZM99.5521 93.4407C100.168 93.4407 100.644 93.2447 100.98 92.8527C101.316 92.4607 101.484 91.9527 101.484 91.3287V91.0167L99.7681 91.1487C99.2241 91.1967 98.8321 91.3327 98.5921 91.5567C98.3521 91.7807 98.2321 92.0527 98.2321 92.3727C98.2321 92.7247 98.3521 92.9927 98.5921 93.1768C98.8321 93.3527 99.1521 93.4407 99.5521 93.4407ZM104.79 93.9688H103.962V88.1607H104.682L104.802 89.1687C104.994 88.8007 105.266 88.5167 105.618 88.3167C105.978 88.1087 106.37 88.0047 106.794 88.0047C107.594 88.0047 108.17 88.2247 108.522 88.6647C108.874 89.1047 109.05 89.6887 109.05 90.4167V93.9688H108.222V90.5967C108.222 89.9167 108.078 89.4407 107.79 89.1687C107.51 88.8967 107.13 88.7607 106.65 88.7607C106.058 88.7607 105.598 88.9607 105.27 89.3607C104.95 89.7527 104.79 90.2767 104.79 90.9327V93.9688ZM112.98 94.1128C112.42 94.1128 111.94 93.9807 111.54 93.7167C111.14 93.4527 110.832 93.0927 110.616 92.6367C110.4 92.1727 110.292 91.6527 110.292 91.0767C110.292 90.4927 110.4 89.9687 110.616 89.5047C110.832 89.0407 111.14 88.6767 111.54 88.4127C111.948 88.1407 112.44 88.0047 113.016 88.0047C113.496 88.0047 113.92 88.1087 114.288 88.3167C114.664 88.5247 114.952 88.8407 115.152 89.2647V85.2207H115.98V93.9688H115.26L115.176 92.7807C114.968 93.2287 114.672 93.5647 114.288 93.7887C113.904 94.0047 113.468 94.1128 112.98 94.1128ZM113.124 93.3567C113.556 93.3567 113.92 93.2607 114.216 93.0687C114.512 92.8687 114.74 92.5967 114.9 92.2527C115.06 91.9007 115.14 91.5007 115.14 91.0527C115.14 90.6047 115.06 90.2087 114.9 89.8647C114.74 89.5207 114.512 89.2487 114.216 89.0487C113.92 88.8487 113.556 88.7487 113.124 88.7487C112.708 88.7487 112.348 88.8487 112.044 89.0487C111.748 89.2487 111.52 89.5207 111.36 89.8647C111.208 90.2087 111.132 90.6047 111.132 91.0527C111.132 91.5007 111.208 91.9007 111.36 92.2527C111.52 92.5967 111.748 92.8687 112.044 93.0687C112.348 93.2607 112.708 93.3567 113.124 93.3567ZM120.144 94.1128C119.584 94.1128 119.088 93.9847 118.656 93.7287C118.232 93.4727 117.9 93.1167 117.66 92.6607C117.42 92.2047 117.3 91.6727 117.3 91.0647C117.3 90.4647 117.416 89.9367 117.648 89.4807C117.888 89.0167 118.216 88.6567 118.632 88.4007C119.048 88.1367 119.532 88.0047 120.084 88.0047C120.612 88.0047 121.072 88.1207 121.464 88.3527C121.864 88.5847 122.172 88.9087 122.388 89.3247C122.612 89.7327 122.724 90.2127 122.724 90.7647V91.1727H117.756L117.78 90.5727H121.896C121.896 90.0127 121.728 89.5647 121.392 89.2287C121.064 88.8847 120.628 88.7127 120.084 88.7127C119.684 88.7127 119.332 88.8047 119.028 88.9887C118.732 89.1727 118.504 89.4367 118.344 89.7807C118.184 90.1167 118.104 90.5167 118.104 90.9807C118.104 91.7487 118.28 92.3447 118.632 92.7687C118.992 93.1927 119.5 93.4047 120.156 93.4047C120.628 93.4047 121.016 93.3047 121.32 93.1047C121.624 92.9047 121.828 92.6127 121.932 92.2287H122.724C122.572 92.8367 122.276 93.3047 121.836 93.6327C121.396 93.9527 120.832 94.1128 120.144 94.1128ZM127.084 88.0887V88.8327H126.628C126.092 88.8327 125.664 88.9967 125.344 89.3247C125.032 89.6527 124.876 90.0967 124.876 90.6567V93.9688H124.048V88.1607H124.828L124.9 89.3007H124.816C124.896 88.9247 125.092 88.6207 125.404 88.3887C125.716 88.1487 126.096 88.0287 126.544 88.0287C126.632 88.0287 126.72 88.0327 126.808 88.0407C126.896 88.0487 126.988 88.0647 127.084 88.0887Z" fill="#AAAAAA"/>
<circle cx="137.5" cy="88.9688" r="2" fill="#D9D9D9"/>
<path d="M149.408 85.3767V93.9688H148.544V85.3767H149.408ZM152.145 93.9688H151.317V88.1607H152.037L152.157 89.1687C152.349 88.8007 152.621 88.5167 152.973 88.3167C153.333 88.1087 153.725 88.0047 154.149 88.0047C154.949 88.0047 155.525 88.2247 155.877 88.6647C156.229 89.1047 156.405 89.6887 156.405 90.4167V93.9688H155.577V90.5967C155.577 89.9167 155.433 89.4407 155.145 89.1687C154.865 88.8967 154.485 88.7607 154.005 88.7607C153.413 88.7607 152.953 88.9607 152.625 89.3607C152.305 89.7527 152.145 90.2767 152.145 90.9327V93.9688ZM157.407 88.1607H160.551V88.8567H157.407V88.1607ZM159.387 93.9688H158.571V86.3247H159.387V93.9688ZM164.007 94.1128C163.447 94.1128 162.951 93.9847 162.519 93.7287C162.095 93.4727 161.763 93.1167 161.523 92.6607C161.283 92.2047 161.163 91.6727 161.163 91.0647C161.163 90.4647 161.279 89.9367 161.511 89.4807C161.751 89.0167 162.079 88.6567 162.495 88.4007C162.911 88.1367 163.395 88.0047 163.947 88.0047C164.475 88.0047 164.935 88.1207 165.327 88.3527C165.727 88.5847 166.035 88.9087 166.251 89.3247C166.475 89.7327 166.587 90.2127 166.587 90.7647V91.1727H161.619L161.643 90.5727H165.759C165.759 90.0127 165.591 89.5647 165.255 89.2287C164.927 88.8847 164.491 88.7127 163.947 88.7127C163.547 88.7127 163.195 88.8047 162.891 88.9887C162.595 89.1727 162.367 89.4367 162.207 89.7807C162.047 90.1167 161.967 90.5167 161.967 90.9807C161.967 91.7487 162.143 92.3447 162.495 92.7687C162.855 93.1927 163.363 93.4047 164.019 93.4047C164.491 93.4047 164.879 93.3047 165.183 93.1047C165.487 92.9047 165.691 92.6127 165.795 92.2287H166.587C166.435 92.8367 166.139 93.3047 165.699 93.6327C165.259 93.9527 164.695 94.1128 164.007 94.1128ZM170.947 88.0887V88.8327H170.491C169.955 88.8327 169.527 88.9967 169.207 89.3247C168.895 89.6527 168.739 90.0967 168.739 90.6567V93.9688H167.911V88.1607H168.691L168.763 89.3007H168.679C168.759 88.9247 168.955 88.6207 169.267 88.3887C169.579 88.1487 169.959 88.0287 170.407 88.0287C170.495 88.0287 170.583 88.0327 170.671 88.0407C170.759 88.0487 170.851 88.0647 170.947 88.0887ZM173.843 93.9688L171.467 88.1607H172.355L173.855 91.9047C173.943 92.1207 174.019 92.3287 174.083 92.5287C174.155 92.7207 174.219 92.9127 174.275 93.1047C174.331 92.9047 174.395 92.7087 174.467 92.5167C174.539 92.3167 174.619 92.1127 174.707 91.9047L176.231 88.1607H177.083L174.671 93.9688H173.843ZM178.059 93.9688V88.1607H178.887V93.9688H178.059ZM178.467 86.5647C178.299 86.5647 178.155 86.5047 178.035 86.3847C177.915 86.2647 177.855 86.1207 177.855 85.9527C177.855 85.7847 177.915 85.6407 178.035 85.5207C178.155 85.3927 178.299 85.3287 178.467 85.3287C178.635 85.3287 178.779 85.3927 178.899 85.5207C179.027 85.6407 179.091 85.7847 179.091 85.9527C179.091 86.1207 179.027 86.2647 178.899 86.3847C178.779 86.5047 178.635 86.5647 178.467 86.5647ZM183.05 94.1128C182.49 94.1128 181.994 93.9847 181.562 93.7287C181.138 93.4727 180.806 93.1167 180.566 92.6607C180.326 92.2047 180.206 91.6727 180.206 91.0647C180.206 90.4647 180.322 89.9367 180.554 89.4807C180.794 89.0167 181.122 88.6567 181.538 88.4007C181.954 88.1367 182.438 88.0047 182.99 88.0047C183.518 88.0047 183.978 88.1207 184.37 88.3527C184.77 88.5847 185.078 88.9087 185.294 89.3247C185.518 89.7327 185.63 90.2127 185.63 90.7647V91.1727H180.662L180.686 90.5727H184.802C184.802 90.0127 184.634 89.5647 184.298 89.2287C183.97 88.8847 183.534 88.7127 182.99 88.7127C182.59 88.7127 182.238 88.8047 181.934 88.9887C181.638 89.1727 181.41 89.4367 181.25 89.7807C181.09 90.1167 181.01 90.5167 181.01 90.9807C181.01 91.7487 181.186 92.3447 181.538 92.7687C181.898 93.1927 182.406 93.4047 183.062 93.4047C183.534 93.4047 183.922 93.3047 184.226 93.1047C184.53 92.9047 184.734 92.6127 184.838 92.2287H185.63C185.478 92.8367 185.182 93.3047 184.742 93.6327C184.302 93.9527 183.738 94.1128 183.05 94.1128ZM188.014 93.9688L186.094 88.1607H186.946L188.086 91.6647C188.15 91.8567 188.21 92.0527 188.266 92.2527C188.33 92.4527 188.39 92.6727 188.446 92.9127C188.478 92.7607 188.518 92.6007 188.566 92.4327C188.614 92.2567 188.658 92.1007 188.698 91.9647C188.746 91.8287 188.778 91.7287 188.794 91.6647L189.946 88.1607H190.798L191.938 91.6647C191.962 91.7447 191.99 91.8367 192.022 91.9407C192.054 92.0367 192.086 92.1367 192.118 92.2407C192.15 92.3447 192.178 92.4567 192.202 92.5767C192.234 92.6887 192.266 92.8007 192.298 92.9127C192.338 92.7447 192.37 92.6087 192.394 92.5047C192.418 92.3927 192.45 92.2767 192.49 92.1567C192.53 92.0367 192.582 91.8727 192.646 91.6647L193.798 88.1607H194.662L192.694 93.9688H191.89L190.69 90.3207C190.618 90.1047 190.554 89.9047 190.498 89.7207C190.45 89.5367 190.41 89.3567 190.378 89.1807C190.338 89.3407 190.29 89.5127 190.234 89.6967C190.186 89.8727 190.122 90.0807 190.042 90.3207L188.842 93.9688H188.014Z" fill="#AAAAAA"/>
<rect x="18.5" y="112.969" width="228" height="40" rx="4" fill="#BBA7F4" fill-opacity="0.72"/>
<path d="M91.78 135.155V134.651H93.11V135.155C93.11 135.649 93.2453 136.06 93.516 136.387C93.796 136.704 94.216 136.863 94.776 136.863C95.3453 136.863 95.7607 136.704 96.022 136.387C96.2927 136.06 96.428 135.635 96.428 135.113V127.847H97.8V135.169C97.8 135.775 97.674 136.303 97.422 136.751C97.17 137.189 96.8153 137.53 96.358 137.773C95.91 138.015 95.3827 138.137 94.776 138.137C94.132 138.137 93.586 138.011 93.138 137.759C92.69 137.507 92.3493 137.157 92.116 136.709C91.892 136.251 91.78 135.733 91.78 135.155ZM99.4142 134.539C99.4142 133.839 99.5682 133.218 99.8762 132.677C100.184 132.135 100.604 131.711 101.136 131.403C101.677 131.095 102.293 130.941 102.984 130.941C103.675 130.941 104.286 131.095 104.818 131.403C105.35 131.711 105.77 132.135 106.078 132.677C106.386 133.218 106.54 133.839 106.54 134.539C106.54 135.239 106.386 135.859 106.078 136.401C105.77 136.942 105.35 137.367 104.818 137.675C104.286 137.983 103.675 138.137 102.984 138.137C102.293 138.137 101.677 137.983 101.136 137.675C100.604 137.367 100.184 136.942 99.8762 136.401C99.5682 135.859 99.4142 135.239 99.4142 134.539ZM100.744 134.539C100.744 135.015 100.837 135.435 101.024 135.799C101.22 136.163 101.486 136.447 101.822 136.653C102.158 136.858 102.545 136.961 102.984 136.961C103.423 136.961 103.81 136.858 104.146 136.653C104.482 136.447 104.743 136.163 104.93 135.799C105.126 135.435 105.224 135.015 105.224 134.539C105.224 134.053 105.126 133.633 104.93 133.279C104.743 132.915 104.482 132.63 104.146 132.425C103.81 132.219 103.423 132.117 102.984 132.117C102.545 132.117 102.158 132.219 101.822 132.425C101.486 132.63 101.22 132.915 101.024 133.279C100.837 133.633 100.744 134.053 100.744 134.539ZM107.997 137.969V131.123H109.313V137.969H107.997ZM108.641 129.499C108.408 129.499 108.202 129.415 108.025 129.247C107.857 129.069 107.773 128.864 107.773 128.631C107.773 128.388 107.857 128.183 108.025 128.015C108.202 127.847 108.408 127.763 108.641 127.763C108.884 127.763 109.089 127.847 109.257 128.015C109.425 128.183 109.509 128.388 109.509 128.631C109.509 128.864 109.425 129.069 109.257 129.247C109.089 129.415 108.884 129.499 108.641 129.499ZM112.539 137.969H111.223V131.123H112.413L112.553 132.173C112.768 131.781 113.076 131.477 113.477 131.263C113.888 131.039 114.336 130.927 114.821 130.927C115.717 130.927 116.38 131.183 116.809 131.697C117.239 132.21 117.453 132.905 117.453 133.783V137.969H116.137V134.077C116.137 133.386 115.988 132.891 115.689 132.593C115.391 132.285 114.989 132.131 114.485 132.131C113.869 132.131 113.389 132.331 113.043 132.733C112.707 133.134 112.539 133.671 112.539 134.343V137.969ZM124.42 137.969H123.104V131.123H124.28L124.462 132.383L124.294 132.271C124.434 131.888 124.691 131.571 125.064 131.319C125.447 131.057 125.909 130.927 126.45 130.927C127.057 130.927 127.561 131.09 127.962 131.417C128.364 131.743 128.625 132.177 128.746 132.719H128.508C128.602 132.177 128.858 131.743 129.278 131.417C129.698 131.09 130.216 130.927 130.832 130.927C131.616 130.927 132.232 131.155 132.68 131.613C133.128 132.07 133.352 132.695 133.352 133.489V137.969H132.064V133.811C132.064 133.269 131.924 132.854 131.644 132.565C131.374 132.266 131.005 132.117 130.538 132.117C130.212 132.117 129.922 132.191 129.67 132.341C129.428 132.481 129.236 132.686 129.096 132.957C128.956 133.227 128.886 133.545 128.886 133.909V137.969H127.584V133.797C127.584 133.255 127.449 132.845 127.178 132.565C126.908 132.275 126.539 132.131 126.072 132.131C125.746 132.131 125.456 132.205 125.204 132.355C124.962 132.495 124.77 132.7 124.63 132.971C124.49 133.232 124.42 133.545 124.42 133.909V137.969ZM138.131 138.137C137.468 138.137 136.88 137.987 136.367 137.689C135.853 137.381 135.452 136.961 135.163 136.429C134.873 135.887 134.729 135.262 134.729 134.553C134.729 133.834 134.869 133.204 135.149 132.663C135.438 132.121 135.83 131.697 136.325 131.389C136.829 131.081 137.412 130.927 138.075 130.927C138.728 130.927 139.293 131.067 139.769 131.347C140.254 131.627 140.627 132.019 140.889 132.523C141.159 133.027 141.295 133.619 141.295 134.301V134.791L135.429 134.805L135.457 133.923H139.979C139.979 133.353 139.806 132.896 139.461 132.551C139.115 132.205 138.653 132.033 138.075 132.033C137.636 132.033 137.258 132.131 136.941 132.327C136.633 132.513 136.395 132.793 136.227 133.167C136.068 133.531 135.989 133.969 135.989 134.483C135.989 135.304 136.175 135.939 136.549 136.387C136.922 136.825 137.459 137.045 138.159 137.045C138.672 137.045 139.092 136.942 139.419 136.737C139.745 136.531 139.965 136.233 140.077 135.841H141.309C141.141 136.569 140.781 137.133 140.231 137.535C139.68 137.936 138.98 138.137 138.131 138.137ZM145.719 138.137C145.056 138.137 144.468 137.987 143.955 137.689C143.441 137.381 143.04 136.961 142.751 136.429C142.461 135.887 142.317 135.262 142.317 134.553C142.317 133.834 142.457 133.204 142.736 132.663C143.026 132.121 143.418 131.697 143.913 131.389C144.417 131.081 145 130.927 145.663 130.927C146.316 130.927 146.881 131.067 147.357 131.347C147.842 131.627 148.215 132.019 148.477 132.523C148.747 133.027 148.882 133.619 148.882 134.301V134.791L143.017 134.805L143.045 133.923H147.567C147.567 133.353 147.394 132.896 147.049 132.551C146.703 132.205 146.241 132.033 145.663 132.033C145.224 132.033 144.846 132.131 144.529 132.327C144.221 132.513 143.983 132.793 143.815 133.167C143.656 133.531 143.577 133.969 143.577 134.483C143.577 135.304 143.763 135.939 144.137 136.387C144.51 136.825 145.047 137.045 145.747 137.045C146.26 137.045 146.68 136.942 147.007 136.737C147.333 136.531 147.553 136.233 147.665 135.841H148.897C148.729 136.569 148.369 137.133 147.819 137.535C147.268 137.936 146.568 138.137 145.719 138.137ZM149.556 131.123H153.56V132.229H149.556V131.123ZM152.216 137.969H150.9V128.981H152.216V137.969ZM154.741 137.969V131.123H156.057V137.969H154.741ZM155.385 129.499C155.152 129.499 154.946 129.415 154.769 129.247C154.601 129.069 154.517 128.864 154.517 128.631C154.517 128.388 154.601 128.183 154.769 128.015C154.946 127.847 155.152 127.763 155.385 127.763C155.628 127.763 155.833 127.847 156.001 128.015C156.169 128.183 156.253 128.388 156.253 128.631C156.253 128.864 156.169 129.069 156.001 129.247C155.833 129.415 155.628 129.499 155.385 129.499ZM159.284 137.969H157.968V131.123H159.158L159.298 132.173C159.512 131.781 159.82 131.477 160.222 131.263C160.632 131.039 161.08 130.927 161.566 130.927C162.462 130.927 163.124 131.183 163.554 131.697C163.983 132.21 164.198 132.905 164.198 133.783V137.969H162.882V134.077C162.882 133.386 162.732 132.891 162.434 132.593C162.135 132.285 161.734 132.131 161.23 132.131C160.614 132.131 160.133 132.331 159.788 132.733C159.452 133.134 159.284 133.671 159.284 134.343V137.969ZM165.586 134.371C165.586 133.727 165.717 133.148 165.978 132.635C166.24 132.112 166.613 131.697 167.098 131.389C167.584 131.081 168.158 130.927 168.82 130.927C169.436 130.927 169.964 131.076 170.402 131.375C170.841 131.664 171.154 132.07 171.34 132.593L171.172 132.775L171.312 131.123H172.488V137.689C172.488 138.407 172.348 139.028 172.068 139.551C171.788 140.083 171.392 140.493 170.878 140.783C170.365 141.072 169.758 141.217 169.058 141.217C168.125 141.217 167.36 140.969 166.762 140.475C166.165 139.98 165.801 139.299 165.67 138.431H166.986C167.07 138.935 167.294 139.327 167.658 139.607C168.022 139.887 168.489 140.027 169.058 140.027C169.702 140.027 170.216 139.831 170.598 139.439C170.99 139.056 171.186 138.538 171.186 137.885V135.953L171.354 136.135C171.177 136.648 170.855 137.054 170.388 137.353C169.922 137.642 169.38 137.787 168.764 137.787C168.111 137.787 167.546 137.637 167.07 137.339C166.594 137.031 166.226 136.62 165.964 136.107C165.712 135.593 165.586 135.015 165.586 134.371ZM166.902 134.343C166.902 134.772 166.986 135.159 167.154 135.505C167.332 135.85 167.574 136.125 167.882 136.331C168.2 136.536 168.568 136.639 168.988 136.639C169.436 136.639 169.819 136.541 170.136 136.345C170.454 136.149 170.696 135.878 170.864 135.533C171.042 135.187 171.13 134.791 171.13 134.343C171.13 133.895 171.046 133.503 170.878 133.167C170.71 132.831 170.468 132.565 170.15 132.369C169.833 132.173 169.45 132.075 169.002 132.075C168.564 132.075 168.186 132.177 167.868 132.383C167.56 132.588 167.322 132.863 167.154 133.209C166.986 133.545 166.902 133.923 166.902 134.343Z" fill="#222222"/>
<defs>
<clipPath id="clip0_930_43167">
<rect width="24" height="24" fill="white" transform="translate(182.5 24.9688)"/>
</clipPath>
</defs>
</svg>
