<svg width="376" height="368" viewBox="0 0 376 368" fill="none" xmlns="http://www.w3.org/2000/svg">
<mask id="path-1-inside-1_930_73996" fill="white">
<path d="M0 0H376V64H0V0Z"/>
</mask>
<path d="M0 0H376V64H0V0Z" fill="#111111"/>
<path d="M0 1H376V-1H0V1Z" fill="white" fill-opacity="0.08" mask="url(#path-1-inside-1_930_73996)"/>
<path d="M300.3 26.64L298.076 38H297.34L299.564 26.64H300.3ZM304.188 26.64L301.948 38H301.212L303.452 26.64H304.188ZM296.828 30.16H305.196L305.068 30.864H296.7L296.828 30.16ZM296.428 33.776H304.54L304.412 34.48H296.3L296.428 33.776ZM308.8 27.344H306.56V26.64H309.552V38H308.8V27.344ZM313.706 27.344H311.466V26.64H314.458V38H313.706V27.344ZM318.613 27.344H316.373V26.64H319.365V38H318.613V27.344ZM323.519 27.344H321.279V26.64H324.271V38H323.519V27.344ZM328.425 27.344H326.185V26.64H329.177V38H328.425V27.344ZM333.331 27.344H331.091V26.64H334.083V38H333.331V27.344Z" fill="white"/>
<rect width="376" height="120" transform="translate(0 64)" fill="#222222"/>
<path d="M72.3 118.64L70.076 130H69.34L71.564 118.64H72.3ZM76.188 118.64L73.948 130H73.212L75.452 118.64H76.188ZM68.828 122.16H77.196L77.068 122.864H68.7L68.828 122.16ZM68.428 125.776H76.54L76.412 126.48H68.3L68.428 125.776ZM86.016 130H78.72V129.36L82.32 126.176C82.9067 125.664 83.3867 125.216 83.76 124.832C84.1333 124.448 84.4213 124.101 84.624 123.792C84.8373 123.472 84.9867 123.157 85.072 122.848C85.1573 122.539 85.2 122.203 85.2 121.84C85.2 121.019 84.96 120.368 84.48 119.888C84 119.408 83.3493 119.168 82.528 119.168C81.6853 119.168 80.9973 119.456 80.464 120.032C79.9307 120.608 79.648 121.371 79.616 122.32H78.848C78.88 121.541 79.0507 120.864 79.36 120.288C79.68 119.701 80.112 119.248 80.656 118.928C81.2107 118.608 81.8453 118.448 82.56 118.448C83.232 118.448 83.824 118.592 84.336 118.88C84.848 119.157 85.248 119.547 85.536 120.048C85.824 120.549 85.968 121.131 85.968 121.792C85.968 122.208 85.9147 122.603 85.808 122.976C85.712 123.339 85.5413 123.707 85.296 124.08C85.0613 124.443 84.736 124.837 84.32 125.264C83.9147 125.691 83.3973 126.181 82.768 126.736L79.424 129.696L79.232 129.296H86.016V130ZM94.8285 130H87.5325V129.36L91.1325 126.176C91.7192 125.664 92.1992 125.216 92.5725 124.832C92.9458 124.448 93.2338 124.101 93.4365 123.792C93.6498 123.472 93.7992 123.157 93.8845 122.848C93.9698 122.539 94.0125 122.203 94.0125 121.84C94.0125 121.019 93.7725 120.368 93.2925 119.888C92.8125 119.408 92.1618 119.168 91.3405 119.168C90.4978 119.168 89.8098 119.456 89.2765 120.032C88.7432 120.608 88.4605 121.371 88.4285 122.32H87.6605C87.6925 121.541 87.8632 120.864 88.1725 120.288C88.4925 119.701 88.9245 119.248 89.4685 118.928C90.0232 118.608 90.6578 118.448 91.3725 118.448C92.0445 118.448 92.6365 118.592 93.1485 118.88C93.6605 119.157 94.0605 119.547 94.3485 120.048C94.6365 120.549 94.7805 121.131 94.7805 121.792C94.7805 122.208 94.7272 122.603 94.6205 122.976C94.5245 123.339 94.3538 123.707 94.1085 124.08C93.8738 124.443 93.5485 124.837 93.1325 125.264C92.7272 125.691 92.2098 126.181 91.5805 126.736L88.2365 129.696L88.0445 129.296H94.8285V130ZM103.641 130H96.345V129.36L99.945 126.176C100.532 125.664 101.012 125.216 101.385 124.832C101.758 124.448 102.046 124.101 102.249 123.792C102.462 123.472 102.612 123.157 102.697 122.848C102.782 122.539 102.825 122.203 102.825 121.84C102.825 121.019 102.585 120.368 102.105 119.888C101.625 119.408 100.974 119.168 100.153 119.168C99.3103 119.168 98.6223 119.456 98.089 120.032C97.5557 120.608 97.273 121.371 97.241 122.32H96.473C96.505 121.541 96.6757 120.864 96.985 120.288C97.305 119.701 97.737 119.248 98.281 118.928C98.8357 118.608 99.4703 118.448 100.185 118.448C100.857 118.448 101.449 118.592 101.961 118.88C102.473 119.157 102.873 119.547 103.161 120.048C103.449 120.549 103.593 121.131 103.593 121.792C103.593 122.208 103.54 122.603 103.433 122.976C103.337 123.339 103.166 123.707 102.921 124.08C102.686 124.443 102.361 124.837 101.945 125.264C101.54 125.691 101.022 126.181 100.393 126.736L97.049 129.696L96.857 129.296H103.641V130ZM112.454 130H105.158V129.36L108.758 126.176C109.344 125.664 109.824 125.216 110.198 124.832C110.571 124.448 110.859 124.101 111.062 123.792C111.275 123.472 111.424 123.157 111.51 122.848C111.595 122.539 111.638 122.203 111.638 121.84C111.638 121.019 111.398 120.368 110.918 119.888C110.438 119.408 109.787 119.168 108.966 119.168C108.123 119.168 107.435 119.456 106.902 120.032C106.368 120.608 106.086 121.371 106.054 122.32H105.286C105.318 121.541 105.488 120.864 105.798 120.288C106.118 119.701 106.55 119.248 107.094 118.928C107.648 118.608 108.283 118.448 108.998 118.448C109.67 118.448 110.262 118.592 110.774 118.88C111.286 119.157 111.686 119.547 111.974 120.048C112.262 120.549 112.406 121.131 112.406 121.792C112.406 122.208 112.352 122.603 112.246 122.976C112.15 123.339 111.979 123.707 111.734 124.08C111.499 124.443 111.174 124.837 110.758 125.264C110.352 125.691 109.835 126.181 109.206 126.736L105.862 129.696L105.67 129.296H112.454V130ZM121.266 130H113.97V129.36L117.57 126.176C118.157 125.664 118.637 125.216 119.01 124.832C119.383 124.448 119.671 124.101 119.874 123.792C120.087 123.472 120.237 123.157 120.322 122.848C120.407 122.539 120.45 122.203 120.45 121.84C120.45 121.019 120.21 120.368 119.73 119.888C119.25 119.408 118.599 119.168 117.778 119.168C116.935 119.168 116.247 119.456 115.714 120.032C115.181 120.608 114.898 121.371 114.866 122.32H114.098C114.13 121.541 114.301 120.864 114.61 120.288C114.93 119.701 115.362 119.248 115.906 118.928C116.461 118.608 117.095 118.448 117.81 118.448C118.482 118.448 119.074 118.592 119.586 118.88C120.098 119.157 120.498 119.547 120.786 120.048C121.074 120.549 121.218 121.131 121.218 121.792C121.218 122.208 121.165 122.603 121.058 122.976C120.962 123.339 120.791 123.707 120.546 124.08C120.311 124.443 119.986 124.837 119.57 125.264C119.165 125.691 118.647 126.181 118.018 126.736L114.674 129.696L114.482 129.296H121.266V130ZM130.079 130H122.783V129.36L126.383 126.176C126.969 125.664 127.449 125.216 127.823 124.832C128.196 124.448 128.484 124.101 128.687 123.792C128.9 123.472 129.049 123.157 129.135 122.848C129.22 122.539 129.263 122.203 129.263 121.84C129.263 121.019 129.023 120.368 128.543 119.888C128.063 119.408 127.412 119.168 126.591 119.168C125.748 119.168 125.06 119.456 124.527 120.032C123.993 120.608 123.711 121.371 123.679 122.32H122.911C122.943 121.541 123.113 120.864 123.423 120.288C123.743 119.701 124.175 119.248 124.719 118.928C125.273 118.608 125.908 118.448 126.623 118.448C127.295 118.448 127.887 118.592 128.399 118.88C128.911 119.157 129.311 119.547 129.599 120.048C129.887 120.549 130.031 121.131 130.031 121.792C130.031 122.208 129.977 122.603 129.871 122.976C129.775 123.339 129.604 123.707 129.359 124.08C129.124 124.443 128.799 124.837 128.383 125.264C127.977 125.691 127.46 126.181 126.831 126.736L123.487 129.696L123.295 129.296H130.079V130Z" fill="white"/>
<rect width="376" height="72" transform="translate(0 184)" fill="#4A4A4A"/>
<path d="M217.3 214.64L215.076 226H214.34L216.564 214.64H217.3ZM221.188 214.64L218.948 226H218.212L220.452 214.64H221.188ZM213.828 218.16H222.196L222.068 218.864H213.7L213.828 218.16ZM213.428 221.776H221.54L221.412 222.48H213.3L213.428 221.776ZM230.536 214.64V226H229.768V214.64H230.536ZM223.72 222.784L229.464 214.64H230.312L224.584 222.784H223.72ZM231.864 223.488H223.72V222.784H231.864V223.488ZM233.914 226H233.146L237.354 214.64H238.49L242.746 226H241.962L240.762 222.816H235.098L233.914 226ZM237.818 215.456L235.354 222.112H240.506L238.01 215.456C238 215.403 237.984 215.355 237.962 215.312C237.941 215.259 237.925 215.211 237.914 215.168C237.904 215.2 237.888 215.248 237.866 215.312C237.856 215.365 237.84 215.413 237.818 215.456ZM250.52 214.64V226H249.752V214.64H250.52ZM243.704 222.784L249.448 214.64H250.296L244.568 222.784H243.704ZM251.848 223.488H243.704V222.784H251.848V223.488ZM253.899 226H253.131L257.339 214.64H258.475L262.731 226H261.947L260.747 222.816H255.083L253.899 226ZM257.803 215.456L255.339 222.112H260.491L257.995 215.456C257.984 215.403 257.968 215.355 257.947 215.312C257.925 215.259 257.909 215.211 257.899 215.168C257.888 215.2 257.872 215.248 257.851 215.312C257.84 215.365 257.824 215.413 257.803 215.456ZM270.505 214.64V226H269.737V214.64H270.505ZM263.689 222.784L269.433 214.64H270.281L264.553 222.784H263.689ZM271.833 223.488H263.689V222.784H271.833V223.488ZM273.883 226H273.115L277.323 214.64H278.459L282.715 226H281.931L280.731 222.816H275.067L273.883 226ZM277.787 215.456L275.323 222.112H280.475L277.979 215.456C277.968 215.403 277.952 215.355 277.931 215.312C277.91 215.259 277.894 215.211 277.883 215.168C277.872 215.2 277.856 215.248 277.835 215.312C277.824 215.365 277.808 215.413 277.787 215.456Z" fill="white"/>
<rect width="376" height="48" transform="translate(0 256)" fill="#5D5D5D"/>
<path d="M77.3 274.64L75.076 286H74.34L76.564 274.64H77.3ZM81.188 274.64L78.948 286H78.212L80.452 274.64H81.188ZM73.828 278.16H82.196L82.068 278.864H73.7L73.828 278.16ZM73.428 281.776H81.54L81.412 282.48H73.3L73.428 281.776ZM87.608 286.192C86.8613 286.192 86.216 286.048 85.672 285.76C85.128 285.461 84.7067 285.045 84.408 284.512C84.1093 283.968 83.96 283.333 83.96 282.608H84.728C84.728 283.493 84.984 284.192 85.496 284.704C86.0187 285.216 86.7227 285.472 87.608 285.472C88.2373 285.472 88.7813 285.344 89.24 285.088C89.7093 284.821 90.072 284.459 90.328 284C90.584 283.531 90.712 282.992 90.712 282.384C90.712 281.819 90.5893 281.301 90.344 280.832C90.0987 280.363 89.7413 279.989 89.272 279.712C88.8133 279.424 88.2533 279.28 87.592 279.28C87.0373 279.28 86.5093 279.392 86.008 279.616C85.5173 279.84 85.0907 280.133 84.728 280.496L84.216 280.256L85.56 274.64H90.856V275.344H85.512L86.28 274.688L85.016 279.968L84.744 279.776C85.1173 279.381 85.5547 279.083 86.056 278.88C86.568 278.667 87.096 278.56 87.64 278.56C88.44 278.56 89.1227 278.736 89.688 279.088C90.264 279.44 90.7067 279.909 91.016 280.496C91.3253 281.072 91.48 281.707 91.48 282.4C91.48 283.136 91.3147 283.792 90.984 284.368C90.664 284.933 90.2107 285.381 89.624 285.712C89.048 286.032 88.376 286.192 87.608 286.192ZM96.8271 286H93.6431V274.64H96.8271C97.9791 274.64 98.9818 274.88 99.8351 275.36C100.699 275.829 101.366 276.491 101.835 277.344C102.315 278.187 102.555 279.179 102.555 280.32C102.555 281.451 102.315 282.443 101.835 283.296C101.366 284.149 100.699 284.816 99.8351 285.296C98.9818 285.765 97.9791 286 96.8271 286ZM94.4111 275.024V285.616L94.0591 285.296H96.8271C97.8298 285.296 98.6991 285.093 99.4351 284.688C100.171 284.272 100.742 283.691 101.147 282.944C101.563 282.197 101.771 281.323 101.771 280.32C101.771 279.307 101.568 278.427 101.163 277.68C100.758 276.933 100.187 276.357 99.4511 275.952C98.7151 275.547 97.8405 275.344 96.8271 275.344H94.0591L94.4111 275.024ZM107.889 286.192C107.143 286.192 106.497 286.048 105.953 285.76C105.409 285.461 104.988 285.045 104.689 284.512C104.391 283.968 104.241 283.333 104.241 282.608H105.009C105.009 283.493 105.265 284.192 105.777 284.704C106.3 285.216 107.004 285.472 107.889 285.472C108.519 285.472 109.063 285.344 109.521 285.088C109.991 284.821 110.353 284.459 110.609 284C110.865 283.531 110.993 282.992 110.993 282.384C110.993 281.819 110.871 281.301 110.625 280.832C110.38 280.363 110.023 279.989 109.553 279.712C109.095 279.424 108.535 279.28 107.873 279.28C107.319 279.28 106.791 279.392 106.289 279.616C105.799 279.84 105.372 280.133 105.009 280.496L104.497 280.256L105.841 274.64H111.137V275.344H105.793L106.561 274.688L105.297 279.968L105.025 279.776C105.399 279.381 105.836 279.083 106.337 278.88C106.849 278.667 107.377 278.56 107.921 278.56C108.721 278.56 109.404 278.736 109.969 279.088C110.545 279.44 110.988 279.909 111.297 280.496C111.607 281.072 111.761 281.707 111.761 282.4C111.761 283.136 111.596 283.792 111.265 284.368C110.945 284.933 110.492 285.381 109.905 285.712C109.329 286.032 108.657 286.192 107.889 286.192ZM117.108 286H113.924V274.64H117.108C118.26 274.64 119.263 274.88 120.116 275.36C120.98 275.829 121.647 276.491 122.116 277.344C122.596 278.187 122.836 279.179 122.836 280.32C122.836 281.451 122.596 282.443 122.116 283.296C121.647 284.149 120.98 284.816 120.116 285.296C119.263 285.765 118.26 286 117.108 286ZM114.692 275.024V285.616L114.34 285.296H117.108C118.111 285.296 118.98 285.093 119.716 284.688C120.452 284.272 121.023 283.691 121.428 282.944C121.844 282.197 122.052 281.323 122.052 280.32C122.052 279.307 121.85 278.427 121.444 277.68C121.039 276.933 120.468 276.357 119.732 275.952C118.996 275.547 118.122 275.344 117.108 275.344H114.34L114.692 275.024ZM128.171 286.192C127.424 286.192 126.779 286.048 126.235 285.76C125.691 285.461 125.269 285.045 124.971 284.512C124.672 283.968 124.523 283.333 124.523 282.608H125.291C125.291 283.493 125.547 284.192 126.059 284.704C126.581 285.216 127.285 285.472 128.171 285.472C128.8 285.472 129.344 285.344 129.803 285.088C130.272 284.821 130.635 284.459 130.891 284C131.147 283.531 131.275 282.992 131.275 282.384C131.275 281.819 131.152 281.301 130.907 280.832C130.661 280.363 130.304 279.989 129.835 279.712C129.376 279.424 128.816 279.28 128.155 279.28C127.6 279.28 127.072 279.392 126.571 279.616C126.08 279.84 125.653 280.133 125.291 280.496L124.779 280.256L126.123 274.64H131.419V275.344H126.075L126.843 274.688L125.579 279.968L125.307 279.776C125.68 279.381 126.117 279.083 126.619 278.88C127.131 278.667 127.659 278.56 128.203 278.56C129.003 278.56 129.685 278.736 130.251 279.088C130.827 279.44 131.269 279.909 131.579 280.496C131.888 281.072 132.043 281.707 132.043 282.4C132.043 283.136 131.877 283.792 131.547 284.368C131.227 284.933 130.773 285.381 130.187 285.712C129.611 286.032 128.939 286.192 128.171 286.192ZM137.39 286H134.206V274.64H137.39C138.542 274.64 139.544 274.88 140.398 275.36C141.262 275.829 141.928 276.491 142.398 277.344C142.878 278.187 143.118 279.179 143.118 280.32C143.118 281.451 142.878 282.443 142.398 283.296C141.928 284.149 141.262 284.816 140.398 285.296C139.544 285.765 138.542 286 137.39 286ZM134.974 275.024V285.616L134.622 285.296H137.39C138.392 285.296 139.262 285.093 139.998 284.688C140.734 284.272 141.304 283.691 141.71 282.944C142.126 282.197 142.334 281.323 142.334 280.32C142.334 279.307 142.131 278.427 141.726 277.68C141.32 276.933 140.75 276.357 140.014 275.952C139.278 275.547 138.403 275.344 137.39 275.344H134.622L134.974 275.024Z" fill="white"/>
<rect width="376" height="32" transform="translate(0 304)" fill="#AAAAAA"/>
<path d="M158.3 314.64L156.076 326H155.34L157.564 314.64H158.3ZM162.188 314.64L159.948 326H159.212L161.452 314.64H162.188ZM154.828 318.16H163.196L163.068 318.864H154.7L154.828 318.16ZM154.428 321.776H162.54L162.412 322.48H154.3L154.428 321.776ZM165.008 326H164.24L168.448 314.64H169.584L173.84 326H173.056L171.856 322.816H166.192L165.008 326ZM168.912 315.456L166.448 322.112H171.6L169.104 315.456C169.093 315.403 169.077 315.355 169.056 315.312C169.035 315.259 169.019 315.211 169.008 315.168C168.997 315.2 168.981 315.248 168.96 315.312C168.949 315.365 168.933 315.413 168.912 315.456ZM175.399 326H174.631L178.839 314.64H179.975L184.231 326H183.447L182.247 322.816H176.583L175.399 326ZM179.303 315.456L176.839 322.112H181.991L179.495 315.456C179.484 315.403 179.468 315.355 179.447 315.312C179.425 315.259 179.409 315.211 179.399 315.168C179.388 315.2 179.372 315.248 179.351 315.312C179.34 315.365 179.324 315.413 179.303 315.456ZM185.789 326H185.021L189.229 314.64H190.365L194.621 326H193.837L192.637 322.816H186.973L185.789 326ZM189.693 315.456L187.229 322.112H192.381L189.885 315.456C189.875 315.403 189.859 315.355 189.837 315.312C189.816 315.259 189.8 315.211 189.789 315.168C189.779 315.2 189.763 315.248 189.741 315.312C189.731 315.365 189.715 315.413 189.693 315.456ZM196.18 326H195.412L199.62 314.64H200.756L205.012 326H204.228L203.028 322.816H197.364L196.18 326ZM200.084 315.456L197.62 322.112H202.772L200.276 315.456C200.265 315.403 200.249 315.355 200.228 315.312C200.207 315.259 200.191 315.211 200.18 315.168C200.169 315.2 200.153 315.248 200.132 315.312C200.121 315.365 200.105 315.413 200.084 315.456ZM206.571 326H205.803L210.011 314.64H211.147L215.403 326H214.619L213.419 322.816H207.755L206.571 326ZM210.475 315.456L208.011 322.112H213.163L210.667 315.456C210.656 315.403 210.64 315.355 210.619 315.312C210.597 315.259 210.581 315.211 210.571 315.168C210.56 315.2 210.544 315.248 210.523 315.312C210.512 315.365 210.496 315.413 210.475 315.456ZM216.961 326H216.193L220.401 314.64H221.537L225.793 326H225.009L223.809 322.816H218.145L216.961 326ZM220.865 315.456L218.401 322.112H223.553L221.057 315.456C221.046 315.403 221.03 315.355 221.009 315.312C220.988 315.259 220.972 315.211 220.961 315.168C220.95 315.2 220.934 315.248 220.913 315.312C220.902 315.365 220.886 315.413 220.865 315.456Z" fill="white"/>
<rect width="376" height="24" transform="translate(0 336)" fill="white"/>
<rect width="478" height="8" transform="translate(0 360)" fill="#BBA7F4"/>
</svg>
