<svg width="1024" height="368" viewBox="0 0 1024 368" fill="none" xmlns="http://www.w3.org/2000/svg">
<mask id="path-1-inside-1_930_65750" fill="white">
<path d="M0 -0.00585938H1024V63.9941H0V-0.00585938Z"/>
</mask>
<path d="M0 -0.00585938H1024V63.9941H0V-0.00585938Z" fill="#111111"/>
<path d="M0 0.994141H1024V-1.00586H0V0.994141Z" fill="white" fill-opacity="0.08" mask="url(#path-1-inside-1_930_65750)"/>
<path d="M838.3 26.6341L836.076 37.9941H835.34L837.564 26.6341H838.3ZM842.188 26.6341L839.948 37.9941H839.212L841.452 26.6341H842.188ZM834.828 30.1541H843.196L843.068 30.8581H834.7L834.828 30.1541ZM834.428 33.7701H842.54L842.412 34.4741H834.3L834.428 33.7701ZM846.8 27.3381H844.56V26.6341H847.552V37.9941H846.8V27.3381ZM851.706 27.3381H849.466V26.6341H852.458V37.9941H851.706V27.3381ZM856.613 27.3381H854.373V26.6341H857.365V37.9941H856.613V27.3381ZM861.519 27.3381H859.279V26.6341H862.271V37.9941H861.519V27.3381ZM866.425 27.3381H864.185V26.6341H867.177V37.9941H866.425V27.3381ZM871.331 27.3381H869.091V26.6341H872.083V37.9941H871.331V27.3381Z" fill="white"/>
<rect width="1024" height="120" transform="translate(0 63.9941)" fill="#222222"/>
<path d="M262.3 118.634L260.076 129.994H259.34L261.564 118.634H262.3ZM266.188 118.634L263.948 129.994H263.212L265.452 118.634H266.188ZM258.828 122.154H267.196L267.068 122.858H258.7L258.828 122.154ZM258.428 125.77H266.54L266.412 126.474H258.3L258.428 125.77ZM276.016 129.994H268.72V129.354L272.32 126.17C272.907 125.658 273.387 125.21 273.76 124.826C274.133 124.442 274.421 124.095 274.624 123.786C274.837 123.466 274.987 123.151 275.072 122.842C275.157 122.533 275.2 122.197 275.2 121.834C275.2 121.013 274.96 120.362 274.48 119.882C274 119.402 273.349 119.162 272.528 119.162C271.685 119.162 270.997 119.45 270.464 120.026C269.931 120.602 269.648 121.365 269.616 122.314H268.848C268.88 121.535 269.051 120.858 269.36 120.282C269.68 119.695 270.112 119.242 270.656 118.922C271.211 118.602 271.845 118.442 272.56 118.442C273.232 118.442 273.824 118.586 274.336 118.874C274.848 119.151 275.248 119.541 275.536 120.042C275.824 120.543 275.968 121.125 275.968 121.786C275.968 122.202 275.915 122.597 275.808 122.97C275.712 123.333 275.541 123.701 275.296 124.074C275.061 124.437 274.736 124.831 274.32 125.258C273.915 125.685 273.397 126.175 272.768 126.73L269.424 129.69L269.232 129.29H276.016V129.994ZM284.829 129.994H277.533V129.354L281.133 126.17C281.719 125.658 282.199 125.21 282.573 124.826C282.946 124.442 283.234 124.095 283.437 123.786C283.65 123.466 283.799 123.151 283.885 122.842C283.97 122.533 284.013 122.197 284.013 121.834C284.013 121.013 283.773 120.362 283.293 119.882C282.813 119.402 282.162 119.162 281.341 119.162C280.498 119.162 279.81 119.45 279.277 120.026C278.743 120.602 278.461 121.365 278.429 122.314H277.661C277.693 121.535 277.863 120.858 278.173 120.282C278.493 119.695 278.925 119.242 279.469 118.922C280.023 118.602 280.658 118.442 281.373 118.442C282.045 118.442 282.637 118.586 283.149 118.874C283.661 119.151 284.061 119.541 284.349 120.042C284.637 120.543 284.781 121.125 284.781 121.786C284.781 122.202 284.727 122.597 284.621 122.97C284.525 123.333 284.354 123.701 284.109 124.074C283.874 124.437 283.549 124.831 283.133 125.258C282.727 125.685 282.21 126.175 281.581 126.73L278.237 129.69L278.045 129.29H284.829V129.994ZM293.641 129.994H286.345V129.354L289.945 126.17C290.532 125.658 291.012 125.21 291.385 124.826C291.758 124.442 292.046 124.095 292.249 123.786C292.462 123.466 292.612 123.151 292.697 122.842C292.782 122.533 292.825 122.197 292.825 121.834C292.825 121.013 292.585 120.362 292.105 119.882C291.625 119.402 290.974 119.162 290.153 119.162C289.31 119.162 288.622 119.45 288.089 120.026C287.556 120.602 287.273 121.365 287.241 122.314H286.473C286.505 121.535 286.676 120.858 286.985 120.282C287.305 119.695 287.737 119.242 288.281 118.922C288.836 118.602 289.47 118.442 290.185 118.442C290.857 118.442 291.449 118.586 291.961 118.874C292.473 119.151 292.873 119.541 293.161 120.042C293.449 120.543 293.593 121.125 293.593 121.786C293.593 122.202 293.54 122.597 293.433 122.97C293.337 123.333 293.166 123.701 292.921 124.074C292.686 124.437 292.361 124.831 291.945 125.258C291.54 125.685 291.022 126.175 290.393 126.73L287.049 129.69L286.857 129.29H293.641V129.994ZM302.454 129.994H295.158V129.354L298.758 126.17C299.344 125.658 299.824 125.21 300.198 124.826C300.571 124.442 300.859 124.095 301.062 123.786C301.275 123.466 301.424 123.151 301.51 122.842C301.595 122.533 301.638 122.197 301.638 121.834C301.638 121.013 301.398 120.362 300.918 119.882C300.438 119.402 299.787 119.162 298.966 119.162C298.123 119.162 297.435 119.45 296.902 120.026C296.368 120.602 296.086 121.365 296.054 122.314H295.286C295.318 121.535 295.488 120.858 295.798 120.282C296.118 119.695 296.55 119.242 297.094 118.922C297.648 118.602 298.283 118.442 298.998 118.442C299.67 118.442 300.262 118.586 300.774 118.874C301.286 119.151 301.686 119.541 301.974 120.042C302.262 120.543 302.406 121.125 302.406 121.786C302.406 122.202 302.352 122.597 302.246 122.97C302.15 123.333 301.979 123.701 301.734 124.074C301.499 124.437 301.174 124.831 300.758 125.258C300.352 125.685 299.835 126.175 299.206 126.73L295.862 129.69L295.67 129.29H302.454V129.994ZM311.266 129.994H303.97V129.354L307.57 126.17C308.157 125.658 308.637 125.21 309.01 124.826C309.383 124.442 309.671 124.095 309.874 123.786C310.087 123.466 310.237 123.151 310.322 122.842C310.407 122.533 310.45 122.197 310.45 121.834C310.45 121.013 310.21 120.362 309.73 119.882C309.25 119.402 308.599 119.162 307.778 119.162C306.935 119.162 306.247 119.45 305.714 120.026C305.181 120.602 304.898 121.365 304.866 122.314H304.098C304.13 121.535 304.301 120.858 304.61 120.282C304.93 119.695 305.362 119.242 305.906 118.922C306.461 118.602 307.095 118.442 307.81 118.442C308.482 118.442 309.074 118.586 309.586 118.874C310.098 119.151 310.498 119.541 310.786 120.042C311.074 120.543 311.218 121.125 311.218 121.786C311.218 122.202 311.165 122.597 311.058 122.97C310.962 123.333 310.791 123.701 310.546 124.074C310.311 124.437 309.986 124.831 309.57 125.258C309.165 125.685 308.647 126.175 308.018 126.73L304.674 129.69L304.482 129.29H311.266V129.994ZM320.079 129.994H312.783V129.354L316.383 126.17C316.969 125.658 317.449 125.21 317.823 124.826C318.196 124.442 318.484 124.095 318.687 123.786C318.9 123.466 319.049 123.151 319.135 122.842C319.22 122.533 319.263 122.197 319.263 121.834C319.263 121.013 319.023 120.362 318.543 119.882C318.063 119.402 317.412 119.162 316.591 119.162C315.748 119.162 315.06 119.45 314.527 120.026C313.993 120.602 313.711 121.365 313.679 122.314H312.911C312.943 121.535 313.113 120.858 313.423 120.282C313.743 119.695 314.175 119.242 314.719 118.922C315.273 118.602 315.908 118.442 316.623 118.442C317.295 118.442 317.887 118.586 318.399 118.874C318.911 119.151 319.311 119.541 319.599 120.042C319.887 120.543 320.031 121.125 320.031 121.786C320.031 122.202 319.977 122.597 319.871 122.97C319.775 123.333 319.604 123.701 319.359 124.074C319.124 124.437 318.799 124.831 318.383 125.258C317.977 125.685 317.46 126.175 316.831 126.73L313.487 129.69L313.295 129.29H320.079V129.994Z" fill="white"/>
<rect width="1024" height="72" transform="translate(0 183.994)" fill="#4A4A4A"/>
<path d="M667.3 214.634L665.076 225.994H664.34L666.564 214.634H667.3ZM671.188 214.634L668.948 225.994H668.212L670.452 214.634H671.188ZM663.828 218.154H672.196L672.068 218.858H663.7L663.828 218.154ZM663.428 221.77H671.54L671.412 222.474H663.3L663.428 221.77ZM680.536 214.634V225.994H679.768V214.634H680.536ZM673.72 222.778L679.464 214.634H680.312L674.584 222.778H673.72ZM681.864 223.482H673.72V222.778H681.864V223.482ZM683.914 225.994H683.146L687.354 214.634H688.49L692.746 225.994H691.962L690.762 222.81H685.098L683.914 225.994ZM687.818 215.45L685.354 222.106H690.506L688.01 215.45C688 215.397 687.984 215.349 687.962 215.306C687.941 215.253 687.925 215.205 687.914 215.162C687.904 215.194 687.888 215.242 687.866 215.306C687.856 215.359 687.84 215.407 687.818 215.45ZM700.52 214.634V225.994H699.752V214.634H700.52ZM693.704 222.778L699.448 214.634H700.296L694.568 222.778H693.704ZM701.848 223.482H693.704V222.778H701.848V223.482ZM703.899 225.994H703.131L707.339 214.634H708.475L712.731 225.994H711.947L710.747 222.81H705.083L703.899 225.994ZM707.803 215.45L705.339 222.106H710.491L707.995 215.45C707.984 215.397 707.968 215.349 707.947 215.306C707.925 215.253 707.909 215.205 707.899 215.162C707.888 215.194 707.872 215.242 707.851 215.306C707.84 215.359 707.824 215.407 707.803 215.45ZM720.505 214.634V225.994H719.737V214.634H720.505ZM713.689 222.778L719.433 214.634H720.281L714.553 222.778H713.689ZM721.833 223.482H713.689V222.778H721.833V223.482ZM723.883 225.994H723.115L727.323 214.634H728.459L732.715 225.994H731.931L730.731 222.81H725.067L723.883 225.994ZM727.787 215.45L725.323 222.106H730.475L727.979 215.45C727.968 215.397 727.952 215.349 727.931 215.306C727.91 215.253 727.894 215.205 727.883 215.162C727.872 215.194 727.856 215.242 727.835 215.306C727.824 215.359 727.808 215.407 727.787 215.45Z" fill="white"/>
<rect width="1024" height="48" transform="translate(0 255.994)" fill="#5D5D5D"/>
<path d="M397.3 274.634L395.076 285.994H394.34L396.564 274.634H397.3ZM401.188 274.634L398.948 285.994H398.212L400.452 274.634H401.188ZM393.828 278.154H402.196L402.068 278.858H393.7L393.828 278.154ZM393.428 281.77H401.54L401.412 282.474H393.3L393.428 281.77ZM407.608 286.186C406.861 286.186 406.216 286.042 405.672 285.754C405.128 285.455 404.707 285.039 404.408 284.506C404.109 283.962 403.96 283.327 403.96 282.602H404.728C404.728 283.487 404.984 284.186 405.496 284.698C406.019 285.21 406.723 285.466 407.608 285.466C408.237 285.466 408.781 285.338 409.24 285.082C409.709 284.815 410.072 284.453 410.328 283.994C410.584 283.525 410.712 282.986 410.712 282.378C410.712 281.813 410.589 281.295 410.344 280.826C410.099 280.357 409.741 279.983 409.272 279.706C408.813 279.418 408.253 279.274 407.592 279.274C407.037 279.274 406.509 279.386 406.008 279.61C405.517 279.834 405.091 280.127 404.728 280.49L404.216 280.25L405.56 274.634H410.856V275.338H405.512L406.28 274.682L405.016 279.962L404.744 279.77C405.117 279.375 405.555 279.077 406.056 278.874C406.568 278.661 407.096 278.554 407.64 278.554C408.44 278.554 409.123 278.73 409.688 279.082C410.264 279.434 410.707 279.903 411.016 280.49C411.325 281.066 411.48 281.701 411.48 282.394C411.48 283.13 411.315 283.786 410.984 284.362C410.664 284.927 410.211 285.375 409.624 285.706C409.048 286.026 408.376 286.186 407.608 286.186ZM416.827 285.994H413.643V274.634H416.827C417.979 274.634 418.982 274.874 419.835 275.354C420.699 275.823 421.366 276.485 421.835 277.338C422.315 278.181 422.555 279.173 422.555 280.314C422.555 281.445 422.315 282.437 421.835 283.29C421.366 284.143 420.699 284.81 419.835 285.29C418.982 285.759 417.979 285.994 416.827 285.994ZM414.411 275.018V285.61L414.059 285.29H416.827C417.83 285.29 418.699 285.087 419.435 284.682C420.171 284.266 420.742 283.685 421.147 282.938C421.563 282.191 421.771 281.317 421.771 280.314C421.771 279.301 421.568 278.421 421.163 277.674C420.758 276.927 420.187 276.351 419.451 275.946C418.715 275.541 417.84 275.338 416.827 275.338H414.059L414.411 275.018ZM427.889 286.186C427.143 286.186 426.497 286.042 425.953 285.754C425.409 285.455 424.988 285.039 424.689 284.506C424.391 283.962 424.241 283.327 424.241 282.602H425.009C425.009 283.487 425.265 284.186 425.777 284.698C426.3 285.21 427.004 285.466 427.889 285.466C428.519 285.466 429.063 285.338 429.521 285.082C429.991 284.815 430.353 284.453 430.609 283.994C430.865 283.525 430.993 282.986 430.993 282.378C430.993 281.813 430.871 281.295 430.625 280.826C430.38 280.357 430.023 279.983 429.553 279.706C429.095 279.418 428.535 279.274 427.873 279.274C427.319 279.274 426.791 279.386 426.289 279.61C425.799 279.834 425.372 280.127 425.009 280.49L424.497 280.25L425.841 274.634H431.137V275.338H425.793L426.561 274.682L425.297 279.962L425.025 279.77C425.399 279.375 425.836 279.077 426.337 278.874C426.849 278.661 427.377 278.554 427.921 278.554C428.721 278.554 429.404 278.73 429.969 279.082C430.545 279.434 430.988 279.903 431.297 280.49C431.607 281.066 431.761 281.701 431.761 282.394C431.761 283.13 431.596 283.786 431.265 284.362C430.945 284.927 430.492 285.375 429.905 285.706C429.329 286.026 428.657 286.186 427.889 286.186ZM437.108 285.994H433.924V274.634H437.108C438.26 274.634 439.263 274.874 440.116 275.354C440.98 275.823 441.647 276.485 442.116 277.338C442.596 278.181 442.836 279.173 442.836 280.314C442.836 281.445 442.596 282.437 442.116 283.29C441.647 284.143 440.98 284.81 440.116 285.29C439.263 285.759 438.26 285.994 437.108 285.994ZM434.692 275.018V285.61L434.34 285.29H437.108C438.111 285.29 438.98 285.087 439.716 284.682C440.452 284.266 441.023 283.685 441.428 282.938C441.844 282.191 442.052 281.317 442.052 280.314C442.052 279.301 441.85 278.421 441.444 277.674C441.039 276.927 440.468 276.351 439.732 275.946C438.996 275.541 438.122 275.338 437.108 275.338H434.34L434.692 275.018ZM448.171 286.186C447.424 286.186 446.779 286.042 446.235 285.754C445.691 285.455 445.269 285.039 444.971 284.506C444.672 283.962 444.523 283.327 444.523 282.602H445.291C445.291 283.487 445.547 284.186 446.059 284.698C446.581 285.21 447.285 285.466 448.171 285.466C448.8 285.466 449.344 285.338 449.803 285.082C450.272 284.815 450.635 284.453 450.891 283.994C451.147 283.525 451.275 282.986 451.275 282.378C451.275 281.813 451.152 281.295 450.907 280.826C450.661 280.357 450.304 279.983 449.835 279.706C449.376 279.418 448.816 279.274 448.155 279.274C447.6 279.274 447.072 279.386 446.571 279.61C446.08 279.834 445.653 280.127 445.291 280.49L444.779 280.25L446.123 274.634H451.419V275.338H446.075L446.843 274.682L445.579 279.962L445.307 279.77C445.68 279.375 446.117 279.077 446.619 278.874C447.131 278.661 447.659 278.554 448.203 278.554C449.003 278.554 449.685 278.73 450.251 279.082C450.827 279.434 451.269 279.903 451.579 280.49C451.888 281.066 452.043 281.701 452.043 282.394C452.043 283.13 451.877 283.786 451.547 284.362C451.227 284.927 450.773 285.375 450.187 285.706C449.611 286.026 448.939 286.186 448.171 286.186ZM457.39 285.994H454.206V274.634H457.39C458.542 274.634 459.544 274.874 460.398 275.354C461.262 275.823 461.928 276.485 462.398 277.338C462.878 278.181 463.118 279.173 463.118 280.314C463.118 281.445 462.878 282.437 462.398 283.29C461.928 284.143 461.262 284.81 460.398 285.29C459.544 285.759 458.542 285.994 457.39 285.994ZM454.974 275.018V285.61L454.622 285.29H457.39C458.392 285.29 459.262 285.087 459.998 284.682C460.734 284.266 461.304 283.685 461.71 282.938C462.126 282.191 462.334 281.317 462.334 280.314C462.334 279.301 462.131 278.421 461.726 277.674C461.32 276.927 460.75 276.351 460.014 275.946C459.278 275.541 458.403 275.338 457.39 275.338H454.622L454.974 275.018Z" fill="white"/>
<rect width="1024" height="32" transform="translate(0 303.994)" fill="#AAAAAA"/>
<path d="M566.3 314.634L564.076 325.994H563.34L565.564 314.634H566.3ZM570.188 314.634L567.948 325.994H567.212L569.452 314.634H570.188ZM562.828 318.154H571.196L571.068 318.858H562.7L562.828 318.154ZM562.428 321.77H570.54L570.412 322.474H562.3L562.428 321.77ZM573.008 325.994H572.24L576.448 314.634H577.584L581.84 325.994H581.056L579.856 322.81H574.192L573.008 325.994ZM576.912 315.45L574.448 322.106H579.6L577.104 315.45C577.093 315.397 577.077 315.349 577.056 315.306C577.035 315.253 577.019 315.205 577.008 315.162C576.997 315.194 576.981 315.242 576.96 315.306C576.949 315.359 576.933 315.407 576.912 315.45ZM583.399 325.994H582.631L586.839 314.634H587.975L592.231 325.994H591.447L590.247 322.81H584.583L583.399 325.994ZM587.303 315.45L584.839 322.106H589.991L587.495 315.45C587.484 315.397 587.468 315.349 587.447 315.306C587.425 315.253 587.409 315.205 587.399 315.162C587.388 315.194 587.372 315.242 587.351 315.306C587.34 315.359 587.324 315.407 587.303 315.45ZM593.789 325.994H593.021L597.229 314.634H598.365L602.621 325.994H601.837L600.637 322.81H594.973L593.789 325.994ZM597.693 315.45L595.229 322.106H600.381L597.885 315.45C597.875 315.397 597.859 315.349 597.837 315.306C597.816 315.253 597.8 315.205 597.789 315.162C597.779 315.194 597.763 315.242 597.741 315.306C597.731 315.359 597.715 315.407 597.693 315.45ZM604.18 325.994H603.412L607.62 314.634H608.756L613.012 325.994H612.228L611.028 322.81H605.364L604.18 325.994ZM608.084 315.45L605.62 322.106H610.772L608.276 315.45C608.265 315.397 608.249 315.349 608.228 315.306C608.207 315.253 608.191 315.205 608.18 315.162C608.169 315.194 608.153 315.242 608.132 315.306C608.121 315.359 608.105 315.407 608.084 315.45ZM614.571 325.994H613.803L618.011 314.634H619.147L623.403 325.994H622.619L621.419 322.81H615.755L614.571 325.994ZM618.475 315.45L616.011 322.106H621.163L618.667 315.45C618.656 315.397 618.64 315.349 618.619 315.306C618.597 315.253 618.581 315.205 618.571 315.162C618.56 315.194 618.544 315.242 618.523 315.306C618.512 315.359 618.496 315.407 618.475 315.45ZM624.961 325.994H624.193L628.401 314.634H629.537L633.793 325.994H633.009L631.809 322.81H626.145L624.961 325.994ZM628.865 315.45L626.401 322.106H631.553L629.057 315.45C629.046 315.397 629.03 315.349 629.009 315.306C628.988 315.253 628.972 315.205 628.961 315.162C628.95 315.194 628.934 315.242 628.913 315.306C628.902 315.359 628.886 315.407 628.865 315.45Z" fill="white"/>
<rect width="1024" height="24" transform="translate(0 335.994)" fill="white"/>
<rect width="478" height="8" transform="translate(0 359.994)" fill="#BBA7F4"/>
<rect width="91" height="8" transform="translate(478 359.994)" fill="#DF92CF"/>
<rect width="91" height="8" transform="translate(569 359.994)" fill="#FF9494"/>
<rect width="91" height="8" transform="translate(660 359.994)" fill="#E8912A"/>
<rect width="91" height="8" transform="translate(751 359.994)" fill="#778CD1"/>
<rect width="91" height="8" transform="translate(842 359.994)" fill="#77C9DD"/>
<rect width="91" height="8" transform="translate(933 359.994)" fill="#58B682"/>
</svg>
