<svg width="204" height="132" viewBox="0 0 204 132" fill="none" xmlns="http://www.w3.org/2000/svg">
<rect x="2" y="1.89355" width="200" height="128" rx="6.15385" fill="#111111"/>
<rect x="1.23077" y="1.12432" width="201.538" height="129.538" rx="6.92308" stroke="white" stroke-opacity="0.08" stroke-width="1.53846"/>
<rect x="14.3047" y="22.2393" width="6.15385" height="6.15385" rx="1.53846" fill="#778CD1"/>
<path d="M26.9971 23.9426C26.9971 23.561 27.0925 23.2256 27.2832 22.9364C27.474 22.6472 27.7417 22.4226 28.0863 22.2626C28.4371 22.1026 28.8401 22.0226 29.2955 22.0226C29.7201 22.0226 30.0894 22.0995 30.4032 22.2533C30.7232 22.401 30.9725 22.6133 31.1509 22.8903C31.3355 23.1672 31.4401 23.4995 31.4648 23.8872H30.5509C30.5263 23.5549 30.4032 23.2964 30.1817 23.1118C29.9601 22.9272 29.6617 22.8349 29.2863 22.8349C28.8678 22.8349 28.5325 22.9333 28.2801 23.1303C28.0278 23.321 27.9017 23.5826 27.9017 23.9149C27.9017 24.1856 27.9786 24.4041 28.1325 24.5703C28.2863 24.7303 28.5201 24.8472 28.834 24.921L29.9325 25.1795C30.4801 25.3026 30.8894 25.5149 31.1601 25.8164C31.4371 26.1118 31.5755 26.4933 31.5755 26.961C31.5755 27.361 31.4771 27.7087 31.2801 28.0041C31.0894 28.2995 30.8155 28.5272 30.4586 28.6872C30.1078 28.8472 29.6955 28.9272 29.2217 28.9272C28.7725 28.9272 28.3755 28.8533 28.0309 28.7056C27.6925 28.5518 27.4248 28.3364 27.2278 28.0595C27.0371 27.7764 26.9294 27.4472 26.9048 27.0718H27.8278C27.834 27.3918 27.9632 27.6472 28.2155 27.8379C28.4678 28.0226 28.8032 28.1149 29.2217 28.1149C29.6648 28.1149 30.0155 28.0164 30.274 27.8195C30.5386 27.6226 30.6709 27.361 30.6709 27.0349C30.6709 26.7703 30.5971 26.5549 30.4494 26.3887C30.3017 26.2226 30.0678 26.1026 29.7478 26.0287L28.6494 25.7795C28.1078 25.6564 27.6955 25.441 27.4125 25.1333C27.1355 24.8195 26.9971 24.4226 26.9971 23.9426ZM32.5646 30.8379V24.3026H33.3492L33.4138 25.1149C33.5615 24.801 33.78 24.5672 34.0692 24.4133C34.3646 24.2533 34.6907 24.1733 35.0477 24.1733C35.4784 24.1733 35.8507 24.2749 36.1646 24.4779C36.4784 24.6749 36.7184 24.9518 36.8846 25.3087C37.0569 25.6595 37.1431 26.0656 37.1431 26.5272C37.1431 26.9887 37.06 27.401 36.8938 27.7641C36.7338 28.1272 36.4969 28.4133 36.1831 28.6226C35.8754 28.8318 35.4969 28.9364 35.0477 28.9364C34.6846 28.9364 34.3615 28.8626 34.0784 28.7149C33.7954 28.5672 33.58 28.3549 33.4323 28.0779V30.8379H32.5646ZM33.4415 26.5641C33.4415 26.8656 33.4969 27.1395 33.6077 27.3856C33.7246 27.6256 33.8877 27.8133 34.0969 27.9487C34.3123 28.0841 34.5677 28.1518 34.8631 28.1518C35.1584 28.1518 35.4107 28.0841 35.62 27.9487C35.8292 27.8072 35.9892 27.6164 36.1 27.3764C36.2169 27.1364 36.2754 26.8656 36.2754 26.5641C36.2754 26.2503 36.2169 25.9733 36.1 25.7333C35.9892 25.4933 35.8292 25.3056 35.62 25.1703C35.4107 25.0349 35.1584 24.9672 34.8631 24.9672C34.5677 24.9672 34.3123 25.0349 34.0969 25.1703C33.8877 25.3056 33.7246 25.4933 33.6077 25.7333C33.4969 25.9733 33.4415 26.2503 33.4415 26.5641ZM40.6841 24.2656V25.0595H40.2964C39.8841 25.0595 39.5579 25.1795 39.3179 25.4195C39.0841 25.6533 38.9671 25.9887 38.9671 26.4256V28.8164H38.0994V24.3118H38.9118L38.9856 25.2164H38.9025C38.9641 24.921 39.1118 24.681 39.3456 24.4964C39.5794 24.3056 39.8718 24.2103 40.2225 24.2103C40.3025 24.2103 40.3764 24.2164 40.4441 24.2287C40.5179 24.2349 40.5979 24.2472 40.6841 24.2656ZM41.4979 28.8164V24.3026H42.3656V28.8164H41.4979ZM41.9225 23.2318C41.7687 23.2318 41.6333 23.1764 41.5163 23.0656C41.4056 22.9487 41.3502 22.8133 41.3502 22.6595C41.3502 22.4995 41.4056 22.3641 41.5163 22.2533C41.6333 22.1426 41.7687 22.0872 41.9225 22.0872C42.0825 22.0872 42.2179 22.1426 42.3287 22.2533C42.4394 22.3641 42.4948 22.4995 42.4948 22.6595C42.4948 22.8133 42.4394 22.9487 42.3287 23.0656C42.2179 23.1764 42.0825 23.2318 41.9225 23.2318ZM44.493 28.8164H43.6253V24.3026H44.4099L44.5022 24.9949C44.6438 24.7364 44.8468 24.5364 45.1114 24.3949C45.3822 24.2472 45.6776 24.1733 45.9976 24.1733C46.5884 24.1733 47.0253 24.3426 47.3084 24.681C47.5914 25.0195 47.733 25.4779 47.733 26.0564V28.8164H46.8653V26.2503C46.8653 25.7949 46.7668 25.4687 46.5699 25.2718C46.373 25.0687 46.1084 24.9672 45.7761 24.9672C45.3699 24.9672 45.053 25.0995 44.8253 25.3641C44.6038 25.6287 44.493 25.9826 44.493 26.4256V28.8164ZM48.4548 24.3026H51.0948V25.0318H48.4548V24.3026ZM50.2086 28.8164H49.3409V22.8903H50.2086V28.8164ZM55.4498 22.1426V28.8164H54.5452V22.1426H55.4498ZM57.1391 26.4349H55.2468V25.6226H56.9452C57.3944 25.6226 57.7391 25.5026 57.9791 25.2626C58.2191 25.0164 58.3391 24.6872 58.3391 24.2749C58.3391 23.8564 58.2191 23.5333 57.9791 23.3056C57.7391 23.0718 57.4068 22.9549 56.9821 22.9549H55.0437V22.1426H57.1391C57.576 22.1426 57.9544 22.2318 58.2744 22.4103C58.5944 22.5887 58.8437 22.8379 59.0221 23.1579C59.2006 23.4779 59.2898 23.8533 59.2898 24.2841C59.2898 24.6964 59.2006 25.0656 59.0221 25.3918C58.8437 25.7179 58.5944 25.9733 58.2744 26.1579C57.9544 26.3426 57.576 26.4349 57.1391 26.4349ZM61.0529 28.8164H60.1852V22.0226H61.0529V28.8164ZM63.6502 28.9272C63.1702 28.9272 62.7918 28.801 62.5148 28.5487C62.2441 28.2964 62.1087 27.9672 62.1087 27.561C62.1087 27.1487 62.2564 26.8195 62.5518 26.5733C62.8471 26.321 63.2594 26.1733 63.7887 26.1303L65.2102 26.0195V25.8903C65.2102 25.6379 65.1641 25.4379 65.0718 25.2903C64.9794 25.1364 64.8533 25.0287 64.6933 24.9672C64.5333 24.8995 64.3518 24.8656 64.1487 24.8656C63.7856 24.8656 63.5025 24.9426 63.2994 25.0964C63.1025 25.2441 63.0041 25.4564 63.0041 25.7333H62.2471C62.2471 25.4195 62.3271 25.1456 62.4871 24.9118C62.6471 24.6779 62.8718 24.4964 63.161 24.3672C63.4564 24.2379 63.7979 24.1733 64.1856 24.1733C64.561 24.1733 64.8871 24.241 65.1641 24.3764C65.4471 24.5056 65.6656 24.7056 65.8194 24.9764C65.9794 25.241 66.0594 25.5764 66.0594 25.9826V28.8164H65.321L65.2287 28.0872C65.1118 28.3456 64.9087 28.5518 64.6194 28.7056C64.3364 28.8533 64.0133 28.9272 63.6502 28.9272ZM63.8994 28.2533C64.3118 28.2533 64.6348 28.1303 64.8687 27.8841C65.1025 27.6318 65.2194 27.2933 65.2194 26.8687V26.6287L64.0656 26.721C63.6841 26.7579 63.4071 26.8472 63.2348 26.9887C63.0687 27.1303 62.9856 27.3118 62.9856 27.5333C62.9856 27.7733 63.0656 27.9549 63.2256 28.0779C63.3918 28.1949 63.6164 28.2533 63.8994 28.2533ZM68.1288 28.8164H67.2611V24.3026H68.0457L68.138 24.9949C68.2796 24.7364 68.4826 24.5364 68.7473 24.3949C69.018 24.2472 69.3134 24.1733 69.6334 24.1733C70.2242 24.1733 70.6611 24.3426 70.9442 24.681C71.2273 25.0195 71.3688 25.4779 71.3688 26.0564V28.8164H70.5011V26.2503C70.5011 25.7949 70.4026 25.4687 70.2057 25.2718C70.0088 25.0687 69.7442 24.9672 69.4119 24.9672C69.0057 24.9672 68.6888 25.0995 68.4611 25.3641C68.2396 25.6287 68.1288 25.9826 68.1288 26.4256V28.8164ZM73.4383 28.8164H72.5706V24.3026H73.3552L73.4475 24.9949C73.5891 24.7364 73.7921 24.5364 74.0568 24.3949C74.3275 24.2472 74.6229 24.1733 74.9429 24.1733C75.5337 24.1733 75.9706 24.3426 76.2537 24.681C76.5368 25.0195 76.6783 25.4779 76.6783 26.0564V28.8164H75.8106V26.2503C75.8106 25.7949 75.7121 25.4687 75.5152 25.2718C75.3183 25.0687 75.0537 24.9672 74.7214 24.9672C74.3152 24.9672 73.9983 25.0995 73.7706 25.3641C73.5491 25.6287 73.4383 25.9826 73.4383 26.4256V28.8164ZM77.8801 28.8164V24.3026H78.7478V28.8164H77.8801ZM78.3047 23.2318C78.1509 23.2318 78.0155 23.1764 77.8986 23.0656C77.7878 22.9487 77.7324 22.8133 77.7324 22.6595C77.7324 22.4995 77.7878 22.3641 77.8986 22.2533C78.0155 22.1426 78.1509 22.0872 78.3047 22.0872C78.4647 22.0872 78.6001 22.1426 78.7109 22.2533C78.8216 22.3641 78.877 22.4995 78.877 22.6595C78.877 22.8133 78.8216 22.9487 78.7109 23.0656C78.6001 23.1764 78.4647 23.2318 78.3047 23.2318ZM80.8752 28.8164H80.0075V24.3026H80.7921L80.8844 24.9949C81.026 24.7364 81.229 24.5364 81.4937 24.3949C81.7644 24.2472 82.0598 24.1733 82.3798 24.1733C82.9706 24.1733 83.4075 24.3426 83.6906 24.681C83.9737 25.0195 84.1152 25.4779 84.1152 26.0564V28.8164H83.2475V26.2503C83.2475 25.7949 83.149 25.4687 82.9521 25.2718C82.7552 25.0687 82.4906 24.9672 82.1583 24.9672C81.7521 24.9672 81.4352 25.0995 81.2075 25.3641C80.986 25.6287 80.8752 25.9826 80.8752 26.4256V28.8164ZM85.0308 26.4441C85.0308 26.0195 85.117 25.6379 85.2893 25.2995C85.4616 24.9549 85.7078 24.681 86.0278 24.4779C86.3478 24.2749 86.7262 24.1733 87.1631 24.1733C87.5693 24.1733 87.917 24.2718 88.2062 24.4687C88.4955 24.6595 88.7016 24.9272 88.8247 25.2718L88.7139 25.3918L88.8062 24.3026H89.5816V28.6318C89.5816 29.1056 89.4893 29.5149 89.3047 29.8595C89.1201 30.2103 88.8585 30.481 88.5201 30.6718C88.1816 30.8626 87.7816 30.9579 87.3201 30.9579C86.7047 30.9579 86.2001 30.7949 85.8062 30.4687C85.4124 30.1426 85.1724 29.6933 85.0862 29.121H85.9539C86.0093 29.4533 86.157 29.7118 86.397 29.8964C86.637 30.081 86.9447 30.1733 87.3201 30.1733C87.7447 30.1733 88.0831 30.0441 88.3355 29.7856C88.5939 29.5333 88.7231 29.1918 88.7231 28.761V27.4872L88.8339 27.6072C88.717 27.9456 88.5047 28.2133 88.197 28.4103C87.8893 28.601 87.5324 28.6964 87.1262 28.6964C86.6955 28.6964 86.3231 28.5979 86.0093 28.401C85.6955 28.1979 85.4524 27.9272 85.2801 27.5887C85.1139 27.2503 85.0308 26.8687 85.0308 26.4441ZM85.8985 26.4256C85.8985 26.7087 85.9539 26.9641 86.0647 27.1918C86.1816 27.4195 86.3416 27.601 86.5447 27.7364C86.7539 27.8718 86.997 27.9395 87.2739 27.9395C87.5693 27.9395 87.8216 27.8749 88.0308 27.7456C88.2401 27.6164 88.4001 27.4379 88.5108 27.2103C88.6278 26.9826 88.6862 26.721 88.6862 26.4256C88.6862 26.1303 88.6308 25.8718 88.5201 25.6503C88.4093 25.4287 88.2493 25.2533 88.0401 25.1241C87.8308 24.9949 87.5785 24.9303 87.2831 24.9303C86.9939 24.9303 86.7447 24.9979 86.5355 25.1333C86.3324 25.2687 86.1755 25.4503 86.0647 25.6779C85.9539 25.8995 85.8985 26.1487 85.8985 26.4256ZM94.3917 28.8164H93.5056V22.1426H94.3917L96.6902 27.7549L98.9886 22.1426H99.8932V28.8164H99.0071V26.1764C99.0071 25.8626 99.0071 25.5949 99.0071 25.3733C99.0071 25.1518 99.0102 24.961 99.0163 24.801C99.0225 24.641 99.0286 24.4995 99.0348 24.3764C99.0409 24.2472 99.0502 24.1241 99.0625 24.0072L97.1148 28.8164H96.2656L94.3271 24.0256C94.3517 24.1856 94.3671 24.4318 94.3732 24.7641C94.3856 25.0964 94.3917 25.4964 94.3917 25.9641V28.8164ZM103.247 28.9272C102.81 28.9272 102.423 28.8287 102.084 28.6318C101.746 28.4287 101.481 28.1518 101.29 27.801C101.1 27.4441 101.004 27.0318 101.004 26.5641C101.004 26.0903 101.096 25.6749 101.281 25.3179C101.472 24.961 101.73 24.681 102.056 24.4779C102.389 24.2749 102.773 24.1733 103.21 24.1733C103.641 24.1733 104.013 24.2656 104.327 24.4503C104.647 24.6349 104.893 24.8933 105.066 25.2256C105.244 25.5579 105.333 25.9487 105.333 26.3979V26.721L101.466 26.7303L101.484 26.1487H104.466C104.466 25.7733 104.352 25.4718 104.124 25.2441C103.896 25.0164 103.592 24.9026 103.21 24.9026C102.921 24.9026 102.672 24.9672 102.463 25.0964C102.26 25.2195 102.103 25.4041 101.992 25.6503C101.887 25.8903 101.835 26.1795 101.835 26.5179C101.835 27.0595 101.958 27.4779 102.204 27.7733C102.45 28.0626 102.804 28.2072 103.266 28.2072C103.604 28.2072 103.881 28.1395 104.096 28.0041C104.312 27.8687 104.456 27.6718 104.53 27.4133H105.343C105.232 27.8933 104.995 28.2656 104.632 28.5303C104.269 28.7949 103.807 28.9272 103.247 28.9272ZM108.25 28.9272C107.813 28.9272 107.426 28.8287 107.087 28.6318C106.749 28.4287 106.484 28.1518 106.293 27.801C106.103 27.4441 106.007 27.0318 106.007 26.5641C106.007 26.0903 106.099 25.6749 106.284 25.3179C106.475 24.961 106.733 24.681 107.059 24.4779C107.392 24.2749 107.776 24.1733 108.213 24.1733C108.644 24.1733 109.016 24.2656 109.33 24.4503C109.65 24.6349 109.896 24.8933 110.069 25.2256C110.247 25.5579 110.336 25.9487 110.336 26.3979V26.721L106.469 26.7303L106.487 26.1487H109.469C109.469 25.7733 109.355 25.4718 109.127 25.2441C108.899 25.0164 108.595 24.9026 108.213 24.9026C107.924 24.9026 107.675 24.9672 107.466 25.0964C107.263 25.2195 107.106 25.4041 106.995 25.6503C106.89 25.8903 106.838 26.1795 106.838 26.5179C106.838 27.0595 106.961 27.4779 107.207 27.7733C107.453 28.0626 107.807 28.2072 108.269 28.2072C108.607 28.2072 108.884 28.1395 109.099 28.0041C109.315 27.8687 109.459 27.6718 109.533 27.4133H110.346C110.235 27.8933 109.998 28.2656 109.635 28.5303C109.272 28.7949 108.81 28.9272 108.25 28.9272ZM110.781 24.3026H113.421V25.0318H110.781V24.3026ZM112.534 28.8164H111.667V22.8903H112.534V28.8164ZM114.199 28.8164V24.3026H115.067V28.8164H114.199ZM114.624 23.2318C114.47 23.2318 114.335 23.1764 114.218 23.0656C114.107 22.9487 114.052 22.8133 114.052 22.6595C114.052 22.4995 114.107 22.3641 114.218 22.2533C114.335 22.1426 114.47 22.0872 114.624 22.0872C114.784 22.0872 114.919 22.1426 115.03 22.2533C115.141 22.3641 115.196 22.4995 115.196 22.6595C115.196 22.8133 115.141 22.9487 115.03 23.0656C114.919 23.1764 114.784 23.2318 114.624 23.2318ZM117.194 28.8164H116.327V24.3026H117.111L117.204 24.9949C117.345 24.7364 117.548 24.5364 117.813 24.3949C118.084 24.2472 118.379 24.1733 118.699 24.1733C119.29 24.1733 119.727 24.3426 120.01 24.681C120.293 25.0195 120.434 25.4779 120.434 26.0564V28.8164H119.567V26.2503C119.567 25.7949 119.468 25.4687 119.271 25.2718C119.074 25.0687 118.81 24.9672 118.477 24.9672C118.071 24.9672 117.754 25.0995 117.527 25.3641C117.305 25.6287 117.194 25.9826 117.194 26.4256V28.8164ZM121.35 26.4441C121.35 26.0195 121.436 25.6379 121.608 25.2995C121.781 24.9549 122.027 24.681 122.347 24.4779C122.667 24.2749 123.045 24.1733 123.482 24.1733C123.888 24.1733 124.236 24.2718 124.525 24.4687C124.815 24.6595 125.021 24.9272 125.144 25.2718L125.033 25.3918L125.125 24.3026H125.901V28.6318C125.901 29.1056 125.808 29.5149 125.624 29.8595C125.439 30.2103 125.178 30.481 124.839 30.6718C124.501 30.8626 124.101 30.9579 123.639 30.9579C123.024 30.9579 122.519 30.7949 122.125 30.4687C121.731 30.1426 121.491 29.6933 121.405 29.121H122.273C122.328 29.4533 122.476 29.7118 122.716 29.8964C122.956 30.081 123.264 30.1733 123.639 30.1733C124.064 30.1733 124.402 30.0441 124.655 29.7856C124.913 29.5333 125.042 29.1918 125.042 28.761V27.4872L125.153 27.6072C125.036 27.9456 124.824 28.2133 124.516 28.4103C124.208 28.601 123.851 28.6964 123.445 28.6964C123.015 28.6964 122.642 28.5979 122.328 28.401C122.015 28.1979 121.771 27.9272 121.599 27.5887C121.433 27.2503 121.35 26.8687 121.35 26.4441ZM122.218 26.4256C122.218 26.7087 122.273 26.9641 122.384 27.1918C122.501 27.4195 122.661 27.601 122.864 27.7364C123.073 27.8718 123.316 27.9395 123.593 27.9395C123.888 27.9395 124.141 27.8749 124.35 27.7456C124.559 27.6164 124.719 27.4379 124.83 27.2103C124.947 26.9826 125.005 26.721 125.005 26.4256C125.005 26.1303 124.95 25.8718 124.839 25.6503C124.728 25.4287 124.568 25.2533 124.359 25.1241C124.15 24.9949 123.898 24.9303 123.602 24.9303C123.313 24.9303 123.064 24.9979 122.855 25.1333C122.651 25.2687 122.495 25.4503 122.384 25.6779C122.273 25.8995 122.218 26.1487 122.218 26.4256ZM126.784 27.5056H127.614C127.614 27.7333 127.698 27.9149 127.864 28.0503C128.03 28.1795 128.254 28.2441 128.538 28.2441C128.845 28.2441 129.082 28.1856 129.248 28.0687C129.414 27.9456 129.498 27.7826 129.498 27.5795C129.498 27.4318 129.451 27.3087 129.359 27.2103C129.273 27.1118 129.113 27.0318 128.879 26.9703L128.085 26.7856C127.685 26.6872 127.387 26.5364 127.19 26.3333C126.999 26.1303 126.904 25.8626 126.904 25.5303C126.904 25.2533 126.974 25.0133 127.116 24.8103C127.264 24.6072 127.464 24.4503 127.716 24.3395C127.974 24.2287 128.27 24.1733 128.602 24.1733C128.934 24.1733 129.221 24.2318 129.461 24.3487C129.707 24.4656 129.898 24.6287 130.033 24.8379C130.174 25.0472 130.248 25.2964 130.254 25.5856H129.424C129.418 25.3518 129.341 25.1703 129.193 25.041C129.045 24.9118 128.839 24.8472 128.574 24.8472C128.304 24.8472 128.094 24.9056 127.947 25.0226C127.799 25.1395 127.725 25.2995 127.725 25.5026C127.725 25.8041 127.947 26.0103 128.39 26.121L129.184 26.3149C129.565 26.401 129.851 26.5426 130.042 26.7395C130.233 26.9303 130.328 27.1918 130.328 27.5241C130.328 27.8072 130.251 28.0564 130.098 28.2718C129.944 28.481 129.731 28.6441 129.461 28.761C129.196 28.8718 128.882 28.9272 128.519 28.9272C127.99 28.9272 127.568 28.7979 127.254 28.5395C126.941 28.281 126.784 27.9364 126.784 27.5056Z" fill="white"/>
<g clip-path="url(#clip0_930_70575)">
<path d="M155.2 27.4065C154.988 27.194 154.643 27.194 154.431 27.4065L148.918 32.9193C147.785 34.0526 145.949 34.0526 144.816 32.9193C143.682 31.7859 143.682 29.95 144.816 28.8167L151.226 22.4065C151.933 21.6988 153.082 21.6988 153.79 22.4065C154.498 23.1141 154.498 24.2629 153.79 24.9706L148.405 30.3552C148.123 30.6372 147.662 30.6372 147.38 30.3552C147.098 30.0731 147.098 29.6116 147.38 29.3295L151.867 24.8423C152.079 24.6299 152.079 24.2855 151.867 24.0731C151.654 23.8607 151.31 23.8607 151.098 24.0731L146.61 28.5603C145.903 29.268 145.903 30.4167 146.61 31.1244C147.318 31.8321 148.467 31.8321 149.174 31.1244L154.559 25.7398C155.692 24.6065 155.692 22.7706 154.559 21.6372C153.426 20.5039 151.59 20.5039 150.457 21.6372L144.046 28.0475C142.487 29.6065 142.487 32.1295 144.046 33.6885C145.605 35.2475 148.128 35.2475 149.687 33.6885L155.2 28.1757C155.413 27.9633 155.413 27.6189 155.2 27.4065Z" fill="#AAAAAA"/>
</g>
<rect x="165.078" y="21.8936" width="24.6154" height="12.3077" rx="6.15385" fill="#BBA7F4" fill-opacity="0.32"/>
<circle cx="183.537" cy="28.0474" r="6.15385" fill="#BBA7F4"/>
<path d="M20.4609 44.9316C19.472 44.9316 18.5053 45.2249 17.6831 45.7743C16.8608 46.3237 16.22 47.1046 15.8415 48.0182C15.4631 48.9319 15.3641 49.9372 15.557 50.9071C15.7499 51.877 16.2261 52.7679 16.9254 53.4672C17.6247 54.1664 18.5156 54.6426 19.4855 54.8356C20.4554 55.0285 21.4607 54.9295 22.3744 54.551C23.288 54.1726 24.0689 53.5317 24.6183 52.7095C25.1677 51.8872 25.4609 50.9205 25.4609 49.9316C25.4595 48.606 24.9323 47.335 23.9949 46.3977C23.0575 45.4603 21.7866 44.933 20.4609 44.9316ZM20.4609 54.1624C19.6242 54.1624 18.8062 53.9143 18.1105 53.4494C17.4147 52.9845 16.8724 52.3238 16.5522 51.5507C16.232 50.7776 16.1482 49.9269 16.3115 49.1063C16.4747 48.2856 16.8777 47.5317 17.4693 46.94C18.061 46.3484 18.8149 45.9454 19.6356 45.7822C20.4562 45.6189 21.3069 45.7027 22.08 46.0229C22.8531 46.3431 23.5138 46.8854 23.9787 47.5812C24.4436 48.2769 24.6917 49.0949 24.6917 49.9316C24.6904 51.0533 24.2443 52.1287 23.4511 52.9218C22.658 53.715 21.5826 54.1611 20.4609 54.1624ZM23.5379 49.9316C23.5379 50.0336 23.4973 50.1315 23.4252 50.2036C23.3531 50.2757 23.2553 50.3163 23.1532 50.3163H20.4609C20.3589 50.3163 20.2611 50.2757 20.189 50.2036C20.1168 50.1315 20.0763 50.0336 20.0763 49.9316V47.2393C20.0763 47.1373 20.1168 47.0395 20.189 46.9674C20.2611 46.8952 20.3589 46.8547 20.4609 46.8547C20.5629 46.8547 20.6608 46.8952 20.7329 46.9674C20.805 47.0395 20.8456 47.1373 20.8456 47.2393V49.547H23.1532C23.2553 49.547 23.3531 49.5875 23.4252 49.6597C23.4973 49.7318 23.5379 49.8296 23.5379 49.9316Z" fill="#AAAAAA"/>
<path d="M34.4364 47.4224H33.0887V46.8224H35.0733V53.4316H34.4364V47.4224ZM39.0733 55.3793V48.9639H39.6271L39.6917 49.8686C39.8517 49.5239 40.0794 49.2686 40.3748 49.1024C40.6763 48.9301 41.0117 48.8439 41.381 48.8439C41.8117 48.8439 42.181 48.9455 42.4887 49.1486C42.7963 49.3516 43.0333 49.6286 43.1994 49.9793C43.3656 50.3301 43.4487 50.7301 43.4487 51.1793C43.4487 51.6286 43.3656 52.0316 43.1994 52.3886C43.0394 52.7455 42.8056 53.0286 42.4979 53.2378C42.1963 53.4409 41.824 53.5424 41.381 53.5424C40.9994 53.5424 40.664 53.4624 40.3748 53.3024C40.0856 53.1363 39.864 52.8932 39.7102 52.5732V55.3793H39.0733ZM39.7194 51.1978C39.7194 51.5363 39.781 51.8409 39.904 52.1116C40.0271 52.3763 40.2025 52.5855 40.4302 52.7393C40.664 52.8932 40.944 52.9701 41.2702 52.9701C41.5963 52.9701 41.8733 52.8932 42.101 52.7393C42.3287 52.5855 42.501 52.3763 42.6179 52.1116C42.741 51.8409 42.8025 51.5363 42.8025 51.1978C42.8025 50.8532 42.741 50.5486 42.6179 50.2839C42.501 50.0132 42.3287 49.8039 42.101 49.6563C41.8733 49.5024 41.5963 49.4255 41.2702 49.4255C40.944 49.4255 40.664 49.5024 40.4302 49.6563C40.2025 49.8039 40.0271 50.0132 39.904 50.2839C39.781 50.5486 39.7194 50.8532 39.7194 51.1978ZM45.1008 53.4316H44.4639V48.9639H45.0177L45.11 49.8039L45.0177 49.7763C45.11 49.4932 45.2824 49.2686 45.5347 49.1024C45.7931 48.9301 46.0947 48.8439 46.4393 48.8439C46.8393 48.8439 47.1716 48.9547 47.4362 49.1763C47.707 49.3916 47.8793 49.687 47.9531 50.0624H47.8147C47.8762 49.687 48.0424 49.3916 48.3131 49.1763C48.59 48.9547 48.9347 48.8439 49.347 48.8439C49.827 48.8439 50.2147 48.9916 50.51 49.287C50.8054 49.5824 50.9531 49.9886 50.9531 50.5055V53.4316H50.3347V50.6347C50.3347 50.2532 50.2362 49.9547 50.0393 49.7393C49.8424 49.5239 49.5716 49.4163 49.227 49.4163C48.9808 49.4163 48.7685 49.4747 48.59 49.5916C48.4116 49.7024 48.2731 49.8532 48.1747 50.0439C48.0824 50.2347 48.0362 50.4439 48.0362 50.6716V53.4316H47.4085V50.6255C47.4085 50.2439 47.307 49.9486 47.1039 49.7393C46.907 49.5301 46.6393 49.4255 46.3008 49.4255C46.0547 49.4255 45.8393 49.4809 45.6547 49.5916C45.4762 49.7024 45.3377 49.8532 45.2393 50.0439C45.147 50.2286 45.1008 50.4347 45.1008 50.6624V53.4316ZM54.7206 51.2901V50.7178H57.3975V51.2901H54.7206ZM65.3204 53.4316H60.9635V52.9055L63.0773 51.0593C63.385 50.7947 63.6373 50.5609 63.8342 50.3578C64.0312 50.1547 64.185 49.9701 64.2958 49.8039C64.4127 49.6316 64.4927 49.4624 64.5358 49.2963C64.585 49.1301 64.6096 48.9486 64.6096 48.7516C64.6096 48.3086 64.4835 47.9578 64.2312 47.6993C63.9788 47.4409 63.6342 47.3116 63.1973 47.3116C62.7419 47.3116 62.3727 47.4655 62.0896 47.7732C61.8127 48.0809 61.6681 48.4901 61.6558 49.0009H60.9912C61.0096 48.5393 61.1112 48.1363 61.2958 47.7916C61.4804 47.447 61.7358 47.1793 62.0619 46.9886C62.3942 46.7978 62.7758 46.7024 63.2065 46.7024C63.625 46.7024 63.9881 46.7886 64.2958 46.9609C64.6096 47.127 64.8527 47.3609 65.025 47.6624C65.1973 47.9578 65.2835 48.3086 65.2835 48.7147C65.2835 48.9486 65.2527 49.1732 65.1912 49.3886C65.1296 49.5978 65.0312 49.807 64.8958 50.0163C64.7604 50.2255 64.5819 50.447 64.3604 50.6809C64.1388 50.9147 63.8619 51.1763 63.5296 51.4655L61.6835 53.0809L61.4804 52.8132H65.3204V53.4316ZM68.9561 55.3793V48.9639H69.5099L69.5745 49.8686C69.7345 49.5239 69.9622 49.2686 70.2576 49.1024C70.5592 48.9301 70.8945 48.8439 71.2638 48.8439C71.6945 48.8439 72.0638 48.9455 72.3715 49.1486C72.6792 49.3516 72.9161 49.6286 73.0822 49.9793C73.2484 50.3301 73.3315 50.7301 73.3315 51.1793C73.3315 51.6286 73.2484 52.0316 73.0822 52.3886C72.9222 52.7455 72.6884 53.0286 72.3807 53.2378C72.0792 53.4409 71.7069 53.5424 71.2638 53.5424C70.8822 53.5424 70.5469 53.4624 70.2576 53.3024C69.9684 53.1363 69.7469 52.8932 69.593 52.5732V55.3793H68.9561ZM69.6022 51.1978C69.6022 51.5363 69.6638 51.8409 69.7869 52.1116C69.9099 52.3763 70.0853 52.5855 70.313 52.7393C70.5469 52.8932 70.8269 52.9701 71.153 52.9701C71.4792 52.9701 71.7561 52.8932 71.9838 52.7393C72.2115 52.5855 72.3838 52.3763 72.5007 52.1116C72.6238 51.8409 72.6853 51.5363 72.6853 51.1978C72.6853 50.8532 72.6238 50.5486 72.5007 50.2839C72.3838 50.0132 72.2115 49.8039 71.9838 49.6563C71.7561 49.5024 71.4792 49.4255 71.153 49.4255C70.8269 49.4255 70.5469 49.5024 70.313 49.6563C70.0853 49.8039 69.9099 50.0132 69.7869 50.2839C69.6638 50.5486 69.6022 50.8532 69.6022 51.1978ZM74.9836 53.4316H74.3467V48.9639H74.9006L74.9929 49.8039L74.9006 49.7763C74.9929 49.4932 75.1652 49.2686 75.4175 49.1024C75.6759 48.9301 75.9775 48.8439 76.3221 48.8439C76.7221 48.8439 77.0544 48.9547 77.319 49.1763C77.5898 49.3916 77.7621 49.687 77.8359 50.0624H77.6975C77.759 49.687 77.9252 49.3916 78.1959 49.1763C78.4729 48.9547 78.8175 48.8439 79.2298 48.8439C79.7098 48.8439 80.0975 48.9916 80.3929 49.287C80.6882 49.5824 80.8359 49.9886 80.8359 50.5055V53.4316H80.2175V50.6347C80.2175 50.2532 80.119 49.9547 79.9221 49.7393C79.7252 49.5239 79.4544 49.4163 79.1098 49.4163C78.8636 49.4163 78.6513 49.4747 78.4729 49.5916C78.2944 49.7024 78.1559 49.8532 78.0575 50.0439C77.9652 50.2347 77.919 50.4439 77.919 50.6716V53.4316H77.2913V50.6255C77.2913 50.2439 77.1898 49.9486 76.9867 49.7393C76.7898 49.5301 76.5221 49.4255 76.1836 49.4255C75.9375 49.4255 75.7221 49.4809 75.5375 49.5916C75.359 49.7024 75.2206 49.8532 75.1221 50.0439C75.0298 50.2286 74.9836 50.4347 74.9836 50.6624V53.4316Z" fill="#AAAAAA"/>
<path d="M20.4609 64.0859C19.472 64.0859 18.5053 64.3792 17.6831 64.9286C16.8608 65.478 16.22 66.2589 15.8415 67.1725C15.4631 68.0862 15.3641 69.0915 15.557 70.0614C15.7499 71.0313 16.2261 71.9222 16.9254 72.6215C17.6247 73.3207 18.5156 73.7969 19.4855 73.9899C20.4554 74.1828 21.4607 74.0838 22.3744 73.7053C23.288 73.3269 24.0689 72.686 24.6183 71.8638C25.1677 71.0415 25.4609 70.0748 25.4609 69.0859C25.4595 67.7603 24.9323 66.4893 23.9949 65.5519C23.0575 64.6146 21.7866 64.0873 20.4609 64.0859ZM17.8686 72.4273C18.1469 71.9921 18.5302 71.634 18.9832 71.386C19.4362 71.1379 19.9444 71.0079 20.4609 71.0079C20.9774 71.0079 21.4856 71.1379 21.9387 71.386C22.3917 71.634 22.775 71.9921 23.0532 72.4273C22.3121 73.0037 21.3999 73.3167 20.4609 73.3167C19.522 73.3167 18.6098 73.0037 17.8686 72.4273ZM18.9225 68.7013C18.9225 68.397 19.0127 68.0996 19.1818 67.8466C19.3508 67.5936 19.5911 67.3964 19.8722 67.28C20.1533 67.1635 20.4626 67.1331 20.7611 67.1924C21.0595 67.2518 21.3336 67.3983 21.5488 67.6135C21.764 67.8286 21.9105 68.1028 21.9698 68.4012C22.0292 68.6996 21.9987 69.0089 21.8823 69.2901C21.7659 69.5712 21.5687 69.8115 21.3157 69.9805C21.0627 70.1496 20.7652 70.2398 20.4609 70.2398C20.0529 70.2398 19.6616 70.0777 19.3731 69.7892C19.0846 69.5007 18.9225 69.1093 18.9225 68.7013ZM23.6225 71.8941C23.1935 71.2725 22.5904 70.7916 21.8888 70.5119C22.2657 70.2151 22.5406 69.8082 22.6755 69.3479C22.8104 68.8876 22.7985 68.3967 22.6414 67.9434C22.4844 67.4902 22.19 67.0971 21.7992 66.819C21.4084 66.5408 20.9406 66.3913 20.4609 66.3913C19.9813 66.3913 19.5135 66.5408 19.1227 66.819C18.7319 67.0971 18.4375 67.4902 18.2805 67.9434C18.1234 68.3967 18.1115 68.8876 18.2464 69.3479C18.3812 69.8082 18.6562 70.2151 19.0331 70.5119C18.3315 70.7916 17.7284 71.2725 17.2994 71.8941C16.7574 71.2846 16.4031 70.5313 16.2792 69.7251C16.1554 68.9189 16.2672 68.0941 16.6013 67.3499C16.9354 66.6058 17.4774 65.9741 18.1622 65.5309C18.847 65.0877 19.6453 64.8519 20.4609 64.8519C21.2766 64.8519 22.0749 65.0877 22.7597 65.5309C23.4445 65.9741 23.9865 66.6058 24.3206 67.3499C24.6547 68.0941 24.7665 68.9189 24.6426 69.7251C24.5188 70.5313 24.1645 71.2846 23.6225 71.8941Z" fill="#AAAAAA"/>
<path d="M34.2333 65.9767V72.5859H33.5687V65.9767H34.2333ZM33.6795 72.5859V71.9767H37.2702V72.5859H33.6795ZM39.9105 72.6967C39.4797 72.6967 39.0981 72.5982 38.7658 72.4013C38.4397 72.2044 38.1843 71.9306 37.9997 71.5798C37.8151 71.229 37.7228 70.8198 37.7228 70.3521C37.7228 69.8906 37.812 69.4844 37.9905 69.1336C38.1751 68.7767 38.4274 68.4998 38.7474 68.3029C39.0674 68.0998 39.4397 67.9982 39.8643 67.9982C40.2705 67.9982 40.6243 68.0875 40.9258 68.2659C41.2335 68.4444 41.4705 68.6936 41.6366 69.0136C41.8089 69.3275 41.8951 69.6967 41.8951 70.1213V70.4352H38.0735L38.092 69.9736H41.2581C41.2581 69.5429 41.1289 69.1982 40.8705 68.9398C40.6181 68.6752 40.2828 68.5429 39.8643 68.5429C39.5566 68.5429 39.2858 68.6136 39.052 68.7552C38.8243 68.8967 38.6489 69.0998 38.5258 69.3644C38.4028 69.6229 38.3412 69.9306 38.3412 70.2875C38.3412 70.8782 38.4766 71.3367 38.7474 71.6629C39.0243 71.989 39.4151 72.1521 39.9197 72.1521C40.2828 72.1521 40.5812 72.0752 40.8151 71.9213C41.0489 71.7675 41.2058 71.5429 41.2858 71.2475H41.8951C41.7781 71.7152 41.5505 72.0752 41.212 72.3275C40.8735 72.5736 40.4397 72.6967 39.9105 72.6967ZM42.535 71.3306H43.1442C43.1442 71.589 43.2365 71.7952 43.4211 71.949C43.6057 72.0967 43.8519 72.1706 44.1596 72.1706C44.5042 72.1706 44.7719 72.1029 44.9626 71.9675C45.1596 71.8259 45.258 71.6352 45.258 71.3952C45.258 71.2106 45.2057 71.0629 45.1011 70.9521C44.9965 70.8413 44.8119 70.7521 44.5473 70.6844L43.7811 70.4906C43.3934 70.3921 43.1042 70.2413 42.9134 70.0382C42.7226 69.8352 42.6273 69.5829 42.6273 69.2813C42.6273 69.0229 42.695 68.7982 42.8303 68.6075C42.9657 68.4106 43.1534 68.2598 43.3934 68.1552C43.6396 68.0506 43.9226 67.9982 44.2426 67.9982C44.5565 67.9982 44.8303 68.0536 45.0642 68.1644C45.298 68.2752 45.4796 68.4321 45.6088 68.6352C45.7442 68.8321 45.815 69.069 45.8211 69.3459H45.2026C45.1965 69.0813 45.1073 68.8782 44.935 68.7367C44.7626 68.5952 44.5257 68.5244 44.2242 68.5244C43.9103 68.5244 43.6673 68.589 43.495 68.7182C43.3288 68.8475 43.2457 69.0321 43.2457 69.2721C43.2457 69.6167 43.4888 69.8506 43.975 69.9736L44.7411 70.1675C45.1288 70.2659 45.4119 70.4106 45.5903 70.6013C45.775 70.7921 45.8673 71.0475 45.8673 71.3675C45.8673 71.6321 45.7965 71.8659 45.655 72.069C45.5134 72.2721 45.3134 72.429 45.055 72.5398C44.8026 72.6444 44.5073 72.6967 44.1688 72.6967C43.6703 72.6967 43.2734 72.5736 42.978 72.3275C42.6826 72.0752 42.535 71.7429 42.535 71.3306ZM47.5804 72.5859H46.9435V65.8567H47.5804V72.5859ZM48.935 72.5859V68.1182H49.572V72.5859H48.935ZM49.2489 66.8906C49.1197 66.8906 49.0089 66.8444 48.9166 66.7521C48.8243 66.6598 48.7781 66.549 48.7781 66.4198C48.7781 66.2906 48.8243 66.1798 48.9166 66.0875C49.0089 65.989 49.1197 65.9398 49.2489 65.9398C49.3781 65.9398 49.4889 65.989 49.5812 66.0875C49.6797 66.1798 49.7289 66.2906 49.7289 66.4198C49.7289 66.549 49.6797 66.6598 49.5812 66.7521C49.4889 66.8444 49.3781 66.8906 49.2489 66.8906ZM52.774 72.6967C52.3433 72.6967 51.9617 72.5982 51.6294 72.4013C51.3033 72.2044 51.0479 71.9306 50.8633 71.5798C50.6787 71.229 50.5863 70.8198 50.5863 70.3521C50.5863 69.8906 50.6756 69.4844 50.854 69.1336C51.0387 68.7767 51.291 68.4998 51.611 68.3029C51.931 68.0998 52.3033 67.9982 52.7279 67.9982C53.134 67.9982 53.4879 68.0875 53.7894 68.2659C54.0971 68.4444 54.334 68.6936 54.5002 69.0136C54.6725 69.3275 54.7587 69.6967 54.7587 70.1213V70.4352H50.9371L50.9556 69.9736H54.1217C54.1217 69.5429 53.9925 69.1982 53.734 68.9398C53.4817 68.6752 53.1463 68.5429 52.7279 68.5429C52.4202 68.5429 52.1494 68.6136 51.9156 68.7552C51.6879 68.8967 51.5125 69.0998 51.3894 69.3644C51.2663 69.6229 51.2048 69.9306 51.2048 70.2875C51.2048 70.8782 51.3402 71.3367 51.611 71.6629C51.8879 71.989 52.2787 72.1521 52.7833 72.1521C53.1463 72.1521 53.4448 72.0752 53.6787 71.9213C53.9125 71.7675 54.0694 71.5429 54.1494 71.2475H54.7587C54.6417 71.7152 54.414 72.0752 54.0756 72.3275C53.7371 72.5736 53.3033 72.6967 52.774 72.6967ZM58.4756 72.5859H57.8017L60.2294 65.9767H61.0509L63.5063 72.5859H62.814L62.1679 70.8321H59.1217L58.4756 72.5859ZM60.5525 66.909L59.3248 70.2506H61.9556L60.7186 66.909C60.7063 66.8598 60.6909 66.8106 60.6725 66.7613C60.654 66.7121 60.6417 66.6721 60.6356 66.6413C60.6294 66.6721 60.6171 66.7152 60.5986 66.7706C60.5863 66.8198 60.5709 66.8659 60.5525 66.909ZM64.9512 72.5859H64.3143V65.8567H64.9512V72.5859ZM68.1797 72.6967C67.7489 72.6967 67.3674 72.5982 67.0351 72.4013C66.7089 72.2044 66.4535 71.9306 66.2689 71.5798C66.0843 71.229 65.992 70.8198 65.992 70.3521C65.992 69.8906 66.0812 69.4844 66.2597 69.1336C66.4443 68.7767 66.6966 68.4998 67.0166 68.3029C67.3366 68.0998 67.7089 67.9982 68.1335 67.9982C68.5397 67.9982 68.8935 68.0875 69.1951 68.2659C69.5028 68.4444 69.7397 68.6936 69.9058 69.0136C70.0781 69.3275 70.1643 69.6967 70.1643 70.1213V70.4352H66.3428L66.3612 69.9736H69.5274C69.5274 69.5429 69.3981 69.1982 69.1397 68.9398C68.8874 68.6752 68.552 68.5429 68.1335 68.5429C67.8258 68.5429 67.5551 68.6136 67.3212 68.7552C67.0935 68.8967 66.9181 69.0998 66.7951 69.3644C66.672 69.6229 66.6105 69.9306 66.6105 70.2875C66.6105 70.8782 66.7458 71.3367 67.0166 71.6629C67.2935 71.989 67.6843 72.1521 68.1889 72.1521C68.552 72.1521 68.8505 72.0752 69.0843 71.9213C69.3181 71.7675 69.4751 71.5429 69.5551 71.2475H70.1643C70.0474 71.7152 69.8197 72.0752 69.4812 72.3275C69.1428 72.5736 68.7089 72.6967 68.1797 72.6967ZM71.1958 72.5859H70.4481L72.045 70.3521L70.4573 68.1182H71.205L72.4696 69.909L73.725 68.1182H74.4635L72.8758 70.3613L74.4542 72.5859H73.6973L72.4419 70.7952L71.1958 72.5859ZM76.5042 72.6967C76.0303 72.6967 75.658 72.5736 75.3873 72.3275C75.1226 72.0813 74.9903 71.7644 74.9903 71.3767C74.9903 70.9644 75.138 70.6352 75.4334 70.389C75.7288 70.1429 76.138 69.9982 76.6611 69.9552L78.138 69.8352V69.6875C78.138 69.3921 78.0857 69.1613 77.9811 68.9952C77.8765 68.8229 77.735 68.7029 77.5565 68.6352C77.378 68.5675 77.178 68.5336 76.9565 68.5336C76.5626 68.5336 76.258 68.6167 76.0426 68.7829C75.8273 68.949 75.7196 69.1829 75.7196 69.4844H75.138C75.138 69.1829 75.215 68.9213 75.3688 68.6998C75.5226 68.4782 75.738 68.3059 76.015 68.1829C76.2919 68.0598 76.6119 67.9982 76.975 67.9982C77.3257 67.9982 77.6334 68.0598 77.898 68.1829C78.1626 68.2998 78.3719 68.4844 78.5257 68.7367C78.6857 68.9829 78.7657 69.3029 78.7657 69.6967V72.5859H78.2303L78.1473 71.8013C78.0119 72.0844 77.7965 72.3059 77.5011 72.4659C77.2119 72.6198 76.8796 72.6967 76.5042 72.6967ZM76.6519 72.1798C77.1257 72.1798 77.4919 72.029 77.7503 71.7275C78.0088 71.4259 78.138 71.0352 78.138 70.5552V70.3152L76.818 70.4167C76.3996 70.4536 76.098 70.5582 75.9134 70.7306C75.7288 70.9029 75.6365 71.1121 75.6365 71.3582C75.6365 71.629 75.7288 71.8352 75.9134 71.9767C76.098 72.1121 76.3442 72.1798 76.6519 72.1798ZM80.6807 72.5859H80.0438V68.1182H80.5977L80.69 68.8936C80.8377 68.6106 81.0469 68.3921 81.3177 68.2382C81.5946 68.0782 81.8961 67.9982 82.2223 67.9982C82.8377 67.9982 83.2807 68.1675 83.5515 68.5059C83.8223 68.8444 83.9577 69.2936 83.9577 69.8536V72.5859H83.3207V69.9921C83.3207 69.469 83.21 69.1029 82.9884 68.8936C82.7731 68.6844 82.4807 68.5798 82.1115 68.5798C81.6561 68.5798 81.3023 68.7336 81.05 69.0413C80.8038 69.3429 80.6807 69.7459 80.6807 70.2506V72.5859ZM86.981 72.6967C86.5502 72.6967 86.181 72.5952 85.8733 72.3921C85.5656 72.189 85.3287 71.9121 85.1625 71.5613C84.9963 71.2044 84.9133 70.8044 84.9133 70.3613C84.9133 69.9121 84.9963 69.509 85.1625 69.1521C85.3287 68.7952 85.5656 68.5152 85.8733 68.3121C86.1871 68.1029 86.5656 67.9982 87.0087 67.9982C87.3779 67.9982 87.704 68.0782 87.9871 68.2382C88.2763 68.3982 88.4979 68.6413 88.6517 68.9675V65.8567H89.2887V72.5859H88.7348L88.6702 71.6721C88.5102 72.0167 88.2825 72.2752 87.9871 72.4475C87.6917 72.6136 87.3563 72.6967 86.981 72.6967ZM87.0917 72.1152C87.424 72.1152 87.704 72.0413 87.9317 71.8936C88.1594 71.7398 88.3348 71.5306 88.4579 71.2659C88.581 70.9952 88.6425 70.6875 88.6425 70.3429C88.6425 69.9982 88.581 69.6936 88.4579 69.429C88.3348 69.1644 88.1594 68.9552 87.9317 68.8013C87.704 68.6475 87.424 68.5706 87.0917 68.5706C86.7717 68.5706 86.4948 68.6475 86.261 68.8013C86.0333 68.9552 85.8579 69.1644 85.7348 69.429C85.6179 69.6936 85.5594 69.9982 85.5594 70.3429C85.5594 70.6875 85.6179 70.9952 85.7348 71.2659C85.8579 71.5306 86.0333 71.7398 86.261 71.8936C86.4948 72.0413 86.7717 72.1152 87.0917 72.1152ZM92.4916 72.6967C92.0608 72.6967 91.6793 72.5982 91.347 72.4013C91.0208 72.2044 90.7654 71.9306 90.5808 71.5798C90.3962 71.229 90.3039 70.8198 90.3039 70.3521C90.3039 69.8906 90.3931 69.4844 90.5716 69.1336C90.7562 68.7767 91.0085 68.4998 91.3285 68.3029C91.6485 68.0998 92.0208 67.9982 92.4454 67.9982C92.8516 67.9982 93.2054 68.0875 93.507 68.2659C93.8147 68.4444 94.0516 68.6936 94.2177 69.0136C94.39 69.3275 94.4762 69.6967 94.4762 70.1213V70.4352H90.6547L90.6731 69.9736H93.8393C93.8393 69.5429 93.71 69.1982 93.4516 68.9398C93.1993 68.6752 92.8639 68.5429 92.4454 68.5429C92.1377 68.5429 91.867 68.6136 91.6331 68.7552C91.4054 68.8967 91.23 69.0998 91.107 69.3644C90.9839 69.6229 90.9224 69.9306 90.9224 70.2875C90.9224 70.8782 91.0577 71.3367 91.3285 71.6629C91.6054 71.989 91.9962 72.1521 92.5008 72.1521C92.8639 72.1521 93.1624 72.0752 93.3962 71.9213C93.63 71.7675 93.787 71.5429 93.867 71.2475H94.4762C94.3593 71.7152 94.1316 72.0752 93.7931 72.3275C93.4547 72.5736 93.0208 72.6967 92.4916 72.6967ZM97.8299 68.0629V68.6352H97.4792C97.0669 68.6352 96.7376 68.7613 96.4915 69.0136C96.2515 69.2659 96.1315 69.6075 96.1315 70.0382V72.5859H95.4945V68.1182H96.0945L96.1499 68.9952H96.0853C96.1469 68.7059 96.2976 68.4721 96.5376 68.2936C96.7776 68.109 97.0699 68.0167 97.4145 68.0167C97.4822 68.0167 97.5499 68.0198 97.6176 68.0259C97.6853 68.0321 97.7561 68.0444 97.8299 68.0629Z" fill="#AAAAAA"/>
<circle cx="106.46" cy="69.0863" r="1.53846" fill="#D9D9D9"/>
<path d="M115.616 65.9767V72.5859H114.952V65.9767H115.616ZM117.722 72.5859H117.085V68.1182H117.639L117.731 68.8936C117.879 68.6106 118.088 68.3921 118.359 68.2382C118.635 68.0782 118.937 67.9982 119.263 67.9982C119.879 67.9982 120.322 68.1675 120.592 68.5059C120.863 68.8444 120.999 69.2936 120.999 69.8536V72.5859H120.362V69.9921C120.362 69.469 120.251 69.1029 120.029 68.8936C119.814 68.6844 119.522 68.5798 119.152 68.5798C118.697 68.5798 118.343 68.7336 118.091 69.0413C117.845 69.3429 117.722 69.7459 117.722 70.2506V72.5859ZM121.77 68.1182H124.188V68.6536H121.77V68.1182ZM123.293 72.5859H122.665V66.7059H123.293V72.5859ZM126.846 72.6967C126.415 72.6967 126.034 72.5982 125.702 72.4013C125.375 72.2044 125.12 71.9306 124.935 71.5798C124.751 71.229 124.658 70.8198 124.658 70.3521C124.658 69.8906 124.748 69.4844 124.926 69.1336C125.111 68.7767 125.363 68.4998 125.683 68.3029C126.003 68.0998 126.375 67.9982 126.8 67.9982C127.206 67.9982 127.56 68.0875 127.862 68.2659C128.169 68.4444 128.406 68.6936 128.572 69.0136C128.745 69.3275 128.831 69.6967 128.831 70.1213V70.4352H125.009L125.028 69.9736H128.194C128.194 69.5429 128.065 69.1982 127.806 68.9398C127.554 68.6752 127.218 68.5429 126.8 68.5429C126.492 68.5429 126.222 68.6136 125.988 68.7552C125.76 68.8967 125.585 69.0998 125.462 69.3644C125.338 69.6229 125.277 69.9306 125.277 70.2875C125.277 70.8782 125.412 71.3367 125.683 71.6629C125.96 71.989 126.351 72.1521 126.855 72.1521C127.218 72.1521 127.517 72.0752 127.751 71.9213C127.985 71.7675 128.142 71.5429 128.222 71.2475H128.831C128.714 71.7152 128.486 72.0752 128.148 72.3275C127.809 72.5736 127.375 72.6967 126.846 72.6967ZM132.184 68.0629V68.6352H131.834C131.421 68.6352 131.092 68.7613 130.846 69.0136C130.606 69.2659 130.486 69.6075 130.486 70.0382V72.5859H129.849V68.1182H130.449L130.504 68.9952H130.44C130.501 68.7059 130.652 68.4721 130.892 68.2936C131.132 68.109 131.424 68.0167 131.769 68.0167C131.837 68.0167 131.904 68.0198 131.972 68.0259C132.04 68.0321 132.111 68.0444 132.184 68.0629ZM134.413 72.5859L132.585 68.1182H133.268L134.422 70.9982C134.489 71.1644 134.548 71.3244 134.597 71.4782C134.653 71.6259 134.702 71.7736 134.745 71.9213C134.788 71.7675 134.837 71.6167 134.893 71.469C134.948 71.3152 135.009 71.1582 135.077 70.9982L136.249 68.1182H136.905L135.049 72.5859H134.413ZM137.656 72.5859V68.1182H138.293V72.5859H137.656ZM137.969 66.8906C137.84 66.8906 137.729 66.8444 137.637 66.7521C137.545 66.6598 137.499 66.549 137.499 66.4198C137.499 66.2906 137.545 66.1798 137.637 66.0875C137.729 65.989 137.84 65.9398 137.969 65.9398C138.099 65.9398 138.209 65.989 138.302 66.0875C138.4 66.1798 138.449 66.2906 138.449 66.4198C138.449 66.549 138.4 66.6598 138.302 66.7521C138.209 66.8444 138.099 66.8906 137.969 66.8906ZM141.495 72.6967C141.064 72.6967 140.682 72.5982 140.35 72.4013C140.024 72.2044 139.768 71.9306 139.584 71.5798C139.399 71.229 139.307 70.8198 139.307 70.3521C139.307 69.8906 139.396 69.4844 139.575 69.1336C139.759 68.7767 140.012 68.4998 140.332 68.3029C140.652 68.0998 141.024 67.9982 141.448 67.9982C141.855 67.9982 142.208 68.0875 142.51 68.2659C142.818 68.4444 143.055 68.6936 143.221 69.0136C143.393 69.3275 143.479 69.6967 143.479 70.1213V70.4352H139.658L139.676 69.9736H142.842C142.842 69.5429 142.713 69.1982 142.455 68.9398C142.202 68.6752 141.867 68.5429 141.448 68.5429C141.141 68.5429 140.87 68.6136 140.636 68.7552C140.408 68.8967 140.233 69.0998 140.11 69.3644C139.987 69.6229 139.925 69.9306 139.925 70.2875C139.925 70.8782 140.061 71.3367 140.332 71.6629C140.608 71.989 140.999 72.1521 141.504 72.1521C141.867 72.1521 142.165 72.0752 142.399 71.9213C142.633 71.7675 142.79 71.5429 142.87 71.2475H143.479C143.362 71.7152 143.135 72.0752 142.796 72.3275C142.458 72.5736 142.024 72.6967 141.495 72.6967ZM145.313 72.5859L143.836 68.1182H144.491L145.368 70.8136C145.417 70.9613 145.464 71.1121 145.507 71.2659C145.556 71.4198 145.602 71.589 145.645 71.7736C145.67 71.6567 145.701 71.5336 145.737 71.4044C145.774 71.269 145.808 71.149 145.839 71.0444C145.876 70.9398 145.901 70.8629 145.913 70.8136L146.799 68.1182H147.454L148.331 70.8136C148.35 70.8752 148.371 70.9459 148.396 71.0259C148.421 71.0998 148.445 71.1767 148.47 71.2567C148.494 71.3367 148.516 71.4229 148.534 71.5152C148.559 71.6013 148.584 71.6875 148.608 71.7736C148.639 71.6444 148.664 71.5398 148.682 71.4598C148.701 71.3736 148.725 71.2844 148.756 71.1921C148.787 71.0998 148.827 70.9736 148.876 70.8136L149.762 68.1182H150.427L148.913 72.5859H148.294L147.371 69.7798C147.316 69.6136 147.267 69.4598 147.224 69.3182C147.187 69.1767 147.156 69.0382 147.131 68.9029C147.101 69.0259 147.064 69.1582 147.021 69.2998C146.984 69.4352 146.934 69.5952 146.873 69.7798L145.95 72.5859H145.313Z" fill="#AAAAAA"/>
<rect x="14.3047" y="87.8936" width="175.385" height="30.7692" rx="3.07692" fill="#BBA7F4" fill-opacity="0.72"/>
<path d="M70.2154 105.114V104.726H71.2385V105.114C71.2385 105.494 71.3426 105.81 71.5508 106.061C71.7662 106.305 72.0892 106.428 72.52 106.428C72.9579 106.428 73.2774 106.305 73.4785 106.061C73.6867 105.81 73.7908 105.483 73.7908 105.081V99.4922H74.8462V105.124C74.8462 105.591 74.7492 105.997 74.5554 106.341C74.3615 106.679 74.0887 106.941 73.7369 107.128C73.3923 107.314 72.9867 107.408 72.52 107.408C72.0246 107.408 71.6046 107.311 71.26 107.117C70.9154 106.923 70.6533 106.654 70.4738 106.309C70.3015 105.957 70.2154 105.559 70.2154 105.114ZM76.0878 104.64C76.0878 104.101 76.2063 103.624 76.4432 103.208C76.6801 102.791 77.0032 102.464 77.4124 102.228C77.8288 101.991 78.3027 101.872 78.834 101.872C79.3652 101.872 79.8355 101.991 80.2447 102.228C80.654 102.464 80.977 102.791 81.214 103.208C81.4509 103.624 81.5694 104.101 81.5694 104.64C81.5694 105.178 81.4509 105.656 81.214 106.072C80.977 106.489 80.654 106.815 80.2447 107.052C79.8355 107.289 79.3652 107.408 78.834 107.408C78.3027 107.408 77.8288 107.289 77.4124 107.052C77.0032 106.815 76.6801 106.489 76.4432 106.072C76.2063 105.656 76.0878 105.178 76.0878 104.64ZM77.1109 104.64C77.1109 105.006 77.1827 105.329 77.3263 105.609C77.477 105.889 77.6817 106.108 77.9401 106.266C78.1986 106.424 78.4965 106.503 78.834 106.503C79.1714 106.503 79.4694 106.424 79.7278 106.266C79.9863 106.108 80.1873 105.889 80.3309 105.609C80.4817 105.329 80.557 105.006 80.557 104.64C80.557 104.267 80.4817 103.943 80.3309 103.671C80.1873 103.391 79.9863 103.172 79.7278 103.014C79.4694 102.856 79.1714 102.777 78.834 102.777C78.4965 102.777 78.1986 102.856 77.9401 103.014C77.6817 103.172 77.477 103.391 77.3263 103.671C77.1827 103.943 77.1109 104.267 77.1109 104.64ZM82.6899 107.278V102.012H83.7022V107.278H82.6899ZM83.1853 100.763C83.0058 100.763 82.8479 100.698 82.7115 100.569C82.5822 100.433 82.5176 100.275 82.5176 100.095C82.5176 99.9086 82.5822 99.7506 82.7115 99.6214C82.8479 99.4922 83.0058 99.4276 83.1853 99.4276C83.372 99.4276 83.5299 99.4922 83.6592 99.6214C83.7884 99.7506 83.853 99.9086 83.853 100.095C83.853 100.275 83.7884 100.433 83.6592 100.569C83.5299 100.698 83.372 100.763 83.1853 100.763ZM86.1842 107.278H85.1719V102.012H86.0873L86.195 102.82C86.3601 102.518 86.597 102.285 86.9058 102.12C87.2217 101.948 87.5663 101.861 87.9396 101.861C88.6288 101.861 89.1386 102.059 89.4688 102.454C89.7991 102.849 89.9642 103.383 89.9642 104.058V107.278H88.9519V104.284C88.9519 103.753 88.837 103.373 88.6073 103.143C88.3776 102.906 88.0688 102.788 87.6811 102.788C87.2073 102.788 86.8376 102.942 86.5719 103.251C86.3135 103.559 86.1842 103.972 86.1842 104.489V107.278ZM95.3233 107.278H94.311V102.012H95.2156L95.3556 102.981L95.2264 102.895C95.3341 102.601 95.5315 102.357 95.8187 102.163C96.1131 101.962 96.4685 101.861 96.8849 101.861C97.3515 101.861 97.7392 101.987 98.048 102.238C98.3567 102.49 98.5577 102.823 98.651 103.24H98.468C98.5398 102.823 98.7372 102.49 99.0603 102.238C99.3833 101.987 99.7818 101.861 100.256 101.861C100.859 101.861 101.333 102.037 101.677 102.389C102.022 102.741 102.194 103.222 102.194 103.832V107.278H101.203V104.08C101.203 103.663 101.096 103.344 100.88 103.121C100.672 102.892 100.388 102.777 100.029 102.777C99.7782 102.777 99.5556 102.834 99.3618 102.949C99.1751 103.057 99.028 103.215 98.9203 103.423C98.8126 103.631 98.7587 103.875 98.7587 104.155V107.278H97.7572V104.069C97.7572 103.653 97.6531 103.337 97.4449 103.121C97.2367 102.899 96.9531 102.788 96.5941 102.788C96.3428 102.788 96.1203 102.845 95.9264 102.96C95.7398 103.068 95.5926 103.225 95.4849 103.434C95.3772 103.635 95.3233 103.875 95.3233 104.155V107.278ZM105.87 107.408C105.36 107.408 104.908 107.293 104.513 107.063C104.118 106.826 103.809 106.503 103.587 106.094C103.364 105.677 103.253 105.196 103.253 104.651C103.253 104.098 103.36 103.613 103.576 103.197C103.798 102.78 104.1 102.454 104.48 102.217C104.868 101.98 105.317 101.861 105.827 101.861C106.329 101.861 106.764 101.969 107.13 102.184C107.503 102.4 107.79 102.701 107.991 103.089C108.199 103.477 108.304 103.933 108.304 104.457V104.834L103.791 104.844L103.813 104.166H107.291C107.291 103.728 107.158 103.376 106.893 103.111C106.627 102.845 106.272 102.712 105.827 102.712C105.489 102.712 105.198 102.788 104.954 102.938C104.717 103.082 104.534 103.297 104.405 103.584C104.283 103.864 104.222 104.202 104.222 104.597C104.222 105.229 104.366 105.717 104.653 106.061C104.94 106.399 105.353 106.568 105.891 106.568C106.286 106.568 106.609 106.489 106.86 106.331C107.112 106.173 107.28 105.943 107.367 105.641H108.314C108.185 106.201 107.909 106.636 107.485 106.944C107.061 107.253 106.523 107.408 105.87 107.408ZM111.707 107.408C111.197 107.408 110.744 107.293 110.35 107.063C109.955 106.826 109.646 106.503 109.423 106.094C109.201 105.677 109.09 105.196 109.09 104.651C109.09 104.098 109.197 103.613 109.413 103.197C109.635 102.78 109.937 102.454 110.317 102.217C110.705 101.98 111.154 101.861 111.663 101.861C112.166 101.861 112.6 101.969 112.967 102.184C113.34 102.4 113.627 102.701 113.828 103.089C114.036 103.477 114.14 103.933 114.14 104.457V104.834L109.628 104.844L109.65 104.166H113.128C113.128 103.728 112.995 103.376 112.73 103.111C112.464 102.845 112.109 102.712 111.663 102.712C111.326 102.712 111.035 102.788 110.791 102.938C110.554 103.082 110.371 103.297 110.242 103.584C110.12 103.864 110.059 104.202 110.059 104.597C110.059 105.229 110.202 105.717 110.49 106.061C110.777 106.399 111.19 106.568 111.728 106.568C112.123 106.568 112.446 106.489 112.697 106.331C112.949 106.173 113.117 105.943 113.203 105.641H114.151C114.022 106.201 113.746 106.636 113.322 106.944C112.898 107.253 112.36 107.408 111.707 107.408ZM114.658 102.012H117.738V102.863H114.658V102.012ZM116.705 107.278H115.692V100.364H116.705V107.278ZM118.647 107.278V102.012H119.659V107.278H118.647ZM119.142 100.763C118.963 100.763 118.805 100.698 118.669 100.569C118.539 100.433 118.475 100.275 118.475 100.095C118.475 99.9086 118.539 99.7506 118.669 99.6214C118.805 99.4922 118.963 99.4276 119.142 99.4276C119.329 99.4276 119.487 99.4922 119.616 99.6214C119.745 99.7506 119.81 99.9086 119.81 100.095C119.81 100.275 119.745 100.433 119.616 100.569C119.487 100.698 119.329 100.763 119.142 100.763ZM122.141 107.278H121.129V102.012H122.044L122.152 102.82C122.317 102.518 122.554 102.285 122.863 102.12C123.179 101.948 123.523 101.861 123.897 101.861C124.586 101.861 125.096 102.059 125.426 102.454C125.756 102.849 125.921 103.383 125.921 104.058V107.278H124.909V104.284C124.909 103.753 124.794 103.373 124.564 103.143C124.335 102.906 124.026 102.788 123.638 102.788C123.164 102.788 122.795 102.942 122.529 103.251C122.27 103.559 122.141 103.972 122.141 104.489V107.278ZM126.99 104.511C126.99 104.015 127.09 103.57 127.291 103.175C127.492 102.773 127.779 102.454 128.153 102.217C128.526 101.98 128.967 101.861 129.477 101.861C129.951 101.861 130.357 101.976 130.694 102.206C131.032 102.429 131.272 102.741 131.416 103.143L131.286 103.283L131.394 102.012H132.299V107.063C132.299 107.616 132.191 108.093 131.976 108.495C131.76 108.904 131.455 109.22 131.06 109.443C130.665 109.665 130.199 109.777 129.66 109.777C128.942 109.777 128.354 109.587 127.894 109.206C127.435 108.825 127.155 108.301 127.054 107.634H128.066C128.131 108.021 128.303 108.323 128.583 108.538C128.863 108.754 129.222 108.861 129.66 108.861C130.156 108.861 130.551 108.711 130.845 108.409C131.146 108.115 131.297 107.716 131.297 107.214V105.728L131.426 105.868C131.29 106.262 131.042 106.575 130.683 106.804C130.324 107.027 129.908 107.138 129.434 107.138C128.932 107.138 128.497 107.023 128.131 106.794C127.765 106.557 127.481 106.241 127.28 105.846C127.086 105.451 126.99 105.006 126.99 104.511ZM128.002 104.489C128.002 104.819 128.066 105.117 128.196 105.383C128.332 105.649 128.519 105.86 128.756 106.018C129 106.176 129.283 106.255 129.606 106.255C129.951 106.255 130.245 106.18 130.49 106.029C130.734 105.878 130.92 105.67 131.05 105.404C131.186 105.139 131.254 104.834 131.254 104.489C131.254 104.144 131.19 103.843 131.06 103.584C130.931 103.326 130.744 103.121 130.5 102.971C130.256 102.82 129.962 102.744 129.617 102.744C129.28 102.744 128.989 102.823 128.745 102.981C128.508 103.139 128.325 103.351 128.196 103.617C128.066 103.875 128.002 104.166 128.002 104.489Z" fill="#222222"/>
<defs>
<clipPath id="clip0_930_70575">
<rect width="18.4615" height="18.4615" fill="white" transform="translate(140.461 18.8164)"/>
</clipPath>
</defs>
</svg>
