<svg width="400" height="494" viewBox="0 0 400 494" fill="none" xmlns="http://www.w3.org/2000/svg">
<g filter="url(#filter0_d_14760_17128)">
<rect x="40" y="12" width="320" height="450" rx="17.7778" fill="white"/>
<rect x="67.3125" y="387.465" width="265.387" height="47.7867" rx="6.82667" fill="#202226"/>
<path d="M149.406 416.198C146.733 416.198 145.066 414.272 145.066 411.158C145.066 408.038 146.726 406.112 149.399 406.112C151.519 406.112 153.159 407.485 153.399 409.445H151.913C151.633 408.265 150.666 407.505 149.399 407.505C147.673 407.505 146.593 408.912 146.593 411.158C146.593 413.398 147.673 414.805 149.406 414.805C150.679 414.805 151.646 414.118 151.913 413.032H153.399C153.133 414.932 151.553 416.198 149.406 416.198ZM155.199 415.965V408.705H156.579V409.818H156.686C156.893 409.105 157.699 408.585 158.646 408.585C158.859 408.585 159.133 408.605 159.286 408.645V410.058C159.166 410.018 158.739 409.972 158.486 409.972C157.399 409.972 156.633 410.658 156.633 411.678V415.965H155.199ZM163.459 409.785C162.399 409.785 161.659 410.532 161.579 411.665H165.246C165.213 410.525 164.519 409.785 163.459 409.785ZM165.239 414.005H166.619C166.293 415.305 165.133 416.105 163.473 416.105C161.393 416.105 160.119 414.678 160.119 412.358C160.119 410.038 161.419 408.565 163.466 408.565C165.486 408.565 166.706 409.945 166.706 412.225V412.725H161.579V412.805C161.626 414.078 162.366 414.885 163.513 414.885C164.379 414.885 164.973 414.572 165.239 414.005ZM170.799 414.878C171.879 414.878 172.679 414.192 172.679 413.292V412.685L170.906 412.798C169.906 412.865 169.453 413.205 169.453 413.845C169.453 414.498 170.019 414.878 170.799 414.878ZM170.433 416.085C169.033 416.085 168.013 415.238 168.013 413.912C168.013 412.605 168.986 411.852 170.713 411.745L172.679 411.632V411.005C172.679 410.238 172.173 409.805 171.193 409.805C170.393 409.805 169.839 410.098 169.679 410.612H168.293C168.439 409.365 169.613 408.565 171.259 408.565C173.079 408.565 174.106 409.472 174.106 411.005V415.965H172.726V414.945H172.613C172.179 415.672 171.386 416.085 170.433 416.085ZM176.653 406.898H178.086V408.738H179.659V409.945H178.086V413.678C178.086 414.438 178.399 414.772 179.113 414.772C179.333 414.772 179.459 414.758 179.659 414.738V415.932C179.426 415.972 179.159 416.005 178.879 416.005C177.286 416.005 176.653 415.445 176.653 414.045V409.945H175.499V408.738H176.653V406.898ZM184.246 409.785C183.186 409.785 182.446 410.532 182.366 411.665H186.033C185.999 410.525 185.306 409.785 184.246 409.785ZM186.026 414.005H187.406C187.079 415.305 185.919 416.105 184.259 416.105C182.179 416.105 180.906 414.678 180.906 412.358C180.906 410.038 182.206 408.565 184.253 408.565C186.273 408.565 187.493 409.945 187.493 412.225V412.725H182.366V412.805C182.413 414.078 183.153 414.885 184.299 414.885C185.166 414.885 185.759 414.572 186.026 414.005ZM196.712 408.585C198.559 408.585 199.726 410.025 199.726 412.332C199.726 414.638 198.559 416.085 196.726 416.085C195.693 416.085 194.873 415.632 194.493 414.865H194.379V418.378H192.946V408.705H194.326V409.905H194.433C194.873 409.078 195.726 408.585 196.712 408.585ZM196.306 414.798C197.526 414.798 198.252 413.872 198.252 412.332C198.252 410.798 197.526 409.872 196.313 409.872C195.106 409.872 194.353 410.818 194.353 412.338C194.353 413.852 195.106 414.798 196.306 414.798ZM207.572 408.705V415.965H206.192V414.812H206.079C205.726 415.638 204.986 416.105 203.886 416.105C202.279 416.105 201.386 415.125 201.386 413.418V408.705H202.819V413.045C202.819 414.218 203.292 414.778 204.346 414.778C205.506 414.778 206.139 414.092 206.139 412.952V408.705H207.572ZM209.652 415.965V408.705H211.032V409.858H211.139C211.492 409.052 212.212 408.565 213.306 408.565C214.926 408.565 215.819 409.538 215.819 411.265V415.965H214.386V411.625C214.386 410.458 213.879 409.878 212.819 409.878C211.759 409.878 211.086 410.585 211.086 411.718V415.965H209.652ZM223.986 411.078H222.592C222.426 410.372 221.839 409.845 220.879 409.845C219.679 409.845 218.946 410.765 218.946 412.312C218.946 413.885 219.686 414.825 220.879 414.825C221.786 414.825 222.406 414.412 222.592 413.632H223.986C223.799 415.092 222.679 416.105 220.886 416.105C218.772 416.105 217.479 414.678 217.479 412.312C217.479 409.985 218.766 408.565 220.879 408.565C222.699 408.565 223.799 409.625 223.986 411.078ZM225.692 415.965V405.872H227.112V409.872H227.226C227.579 409.058 228.346 408.572 229.439 408.572C230.986 408.572 231.939 409.552 231.939 411.278V415.965H230.506V411.632C230.506 410.472 229.966 409.885 228.952 409.885C227.779 409.885 227.126 410.625 227.126 411.725V415.965H225.692ZM237.759 415.965V405.872H239.192V415.965H237.759ZM241.372 415.965V408.705H242.799V415.965H241.372ZM242.086 407.432C241.552 407.432 241.159 407.052 241.159 406.558C241.159 406.058 241.552 405.678 242.086 405.678C242.619 405.678 243.012 406.058 243.012 406.558C243.012 407.052 242.619 407.432 242.086 407.432ZM244.739 410.758C244.739 409.472 245.919 408.565 247.559 408.565C249.192 408.565 250.259 409.325 250.399 410.605H249.026C248.892 410.072 248.372 409.732 247.559 409.732C246.759 409.732 246.152 410.112 246.152 410.678C246.152 411.112 246.519 411.385 247.306 411.565L248.512 411.845C249.892 412.165 250.539 412.758 250.539 413.825C250.539 415.192 249.266 416.105 247.532 416.105C245.806 416.105 244.679 415.325 244.552 414.038H245.986C246.166 414.598 246.699 414.945 247.566 414.945C248.459 414.945 249.092 414.545 249.092 413.965C249.092 413.532 248.752 413.252 248.026 413.078L246.759 412.785C245.379 412.458 244.739 411.838 244.739 410.758ZM252.719 406.898H254.152V408.738H255.726V409.945H254.152V413.678C254.152 414.438 254.466 414.772 255.179 414.772C255.399 414.772 255.526 414.758 255.726 414.738V415.932C255.492 415.972 255.226 416.005 254.946 416.005C253.352 416.005 252.719 415.445 252.719 414.045V409.945H251.566V408.738H252.719V406.898Z" fill="white"/>
<path d="M71.1858 320.547V316.407L67.7725 310.927H69.1392L71.7325 315.2H71.8392L74.4325 310.927H75.7992L72.3858 316.407V320.547H71.1858ZM79.1592 320.674C77.1125 320.674 75.8458 319.26 75.8458 316.96V316.947C75.8458 314.64 77.1125 313.234 79.1592 313.234C81.2058 313.234 82.4725 314.64 82.4725 316.947V316.96C82.4725 319.26 81.2058 320.674 79.1592 320.674ZM79.1592 319.647C80.5192 319.647 81.2858 318.654 81.2858 316.96V316.947C81.2858 315.247 80.5192 314.26 79.1592 314.26C77.7992 314.26 77.0325 315.247 77.0325 316.947V316.96C77.0325 318.654 77.7992 319.647 79.1592 319.647ZM86.6792 320.674C85.0458 320.674 84.2058 319.714 84.2058 318.014V313.36H85.3658V317.734C85.3658 319.027 85.8325 319.647 86.9792 319.647C88.2458 319.647 88.9192 318.874 88.9192 317.614V313.36H90.0792V320.547H88.9192V319.474H88.8125C88.4592 320.24 87.7325 320.674 86.6792 320.674ZM92.2392 314.72L92.8192 310.927H94.1458L93.0992 314.72H92.2392ZM97.9992 320.547L95.3392 313.36H96.5658L98.5325 319.28H98.6392L100.606 313.36H101.832L99.1725 320.547H97.9992ZM106.032 320.674C103.979 320.674 102.739 319.234 102.739 316.98V316.974C102.739 314.754 104.006 313.234 105.959 313.234C107.912 313.234 109.099 314.687 109.099 316.834V317.287H103.926C103.959 318.774 104.779 319.64 106.059 319.64C107.032 319.64 107.632 319.18 107.826 318.747L107.852 318.687H109.012L108.999 318.74C108.752 319.714 107.726 320.674 106.032 320.674ZM105.952 314.267C104.886 314.267 104.072 314.994 103.946 316.36H107.919C107.799 314.94 107.012 314.267 105.952 314.267ZM114.739 320.547V313.36H115.899V314.454H116.006C116.326 313.68 117.006 313.234 117.946 313.234C118.919 313.234 119.599 313.747 119.932 314.494H120.039C120.426 313.734 121.246 313.234 122.239 313.234C123.706 313.234 124.526 314.074 124.526 315.58V320.547H123.366V315.847C123.366 314.787 122.879 314.26 121.866 314.26C120.866 314.26 120.206 315.014 120.206 315.927V320.547H119.046V315.667C119.046 314.814 118.459 314.26 117.552 314.26C116.612 314.26 115.899 315.08 115.899 316.094V320.547H114.739ZM128.592 320.674C127.226 320.674 126.192 319.847 126.192 318.54V318.527C126.192 317.247 127.139 316.507 128.812 316.407L130.872 316.28V315.627C130.872 314.74 130.332 314.26 129.259 314.26C128.399 314.26 127.832 314.58 127.646 315.14L127.639 315.16H126.479L126.486 315.12C126.672 313.994 127.766 313.234 129.299 313.234C131.052 313.234 132.032 314.134 132.032 315.627V320.547H130.872V319.487H130.766C130.312 320.254 129.559 320.674 128.592 320.674ZM127.379 318.514C127.379 319.24 127.999 319.667 128.832 319.667C130.012 319.667 130.872 318.894 130.872 317.867V317.214L128.952 317.334C127.859 317.4 127.379 317.787 127.379 318.5V318.514ZM134.152 320.547V313.36H135.312V314.427H135.419C135.692 313.674 136.366 313.234 137.339 313.234C137.559 313.234 137.806 313.26 137.919 313.28V314.407C137.679 314.367 137.459 314.34 137.206 314.34C136.099 314.34 135.312 315.04 135.312 316.094V320.547H134.152ZM139.419 320.547V310.507H140.579V316.5H140.686L143.792 313.36H145.199L142.066 316.38L145.406 320.547H143.946L141.252 317.167L140.579 317.82V320.547H139.419ZM149.366 320.674C147.312 320.674 146.072 319.234 146.072 316.98V316.974C146.072 314.754 147.339 313.234 149.292 313.234C151.246 313.234 152.432 314.687 152.432 316.834V317.287H147.259C147.292 318.774 148.112 319.64 149.392 319.64C150.366 319.64 150.966 319.18 151.159 318.747L151.186 318.687H152.346L152.332 318.74C152.086 319.714 151.059 320.674 149.366 320.674ZM149.286 314.267C148.219 314.267 147.406 314.994 147.279 316.36H151.252C151.132 314.94 150.346 314.267 149.286 314.267ZM156.886 320.674C155.066 320.674 153.872 319.2 153.872 316.96V316.947C153.872 314.694 155.059 313.234 156.886 313.234C157.872 313.234 158.732 313.727 159.126 314.494H159.232V310.507H160.392V320.547H159.232V319.4H159.126C158.686 320.2 157.886 320.674 156.886 320.674ZM157.152 319.647C158.459 319.647 159.259 318.62 159.259 316.96V316.947C159.259 315.287 158.459 314.26 157.152 314.26C155.839 314.26 155.059 315.274 155.059 316.947V316.96C155.059 318.634 155.839 319.647 157.152 319.647ZM168.432 320.674C167.066 320.674 166.032 319.847 166.032 318.54V318.527C166.032 317.247 166.979 316.507 168.652 316.407L170.712 316.28V315.627C170.712 314.74 170.172 314.26 169.099 314.26C168.239 314.26 167.672 314.58 167.486 315.14L167.479 315.16H166.319L166.326 315.12C166.512 313.994 167.606 313.234 169.139 313.234C170.892 313.234 171.872 314.134 171.872 315.627V320.547H170.712V319.487H170.606C170.152 320.254 169.399 320.674 168.432 320.674ZM167.219 318.514C167.219 319.24 167.839 319.667 168.672 319.667C169.852 319.667 170.712 318.894 170.712 317.867V317.214L168.792 317.334C167.699 317.4 167.219 317.787 167.219 318.5V318.514ZM174.059 320.547V310.507H175.219V320.547H174.059ZM177.512 320.547V310.507H178.672V320.547H177.512ZM187.206 320.674C185.606 320.674 184.506 319.9 184.372 318.714H185.559C185.752 319.314 186.326 319.707 187.246 319.707C188.212 319.707 188.899 319.247 188.899 318.594V318.58C188.899 318.094 188.532 317.754 187.646 317.54L186.532 317.274C185.186 316.954 184.579 316.367 184.579 315.334V315.327C184.579 314.134 185.726 313.234 187.252 313.234C188.759 313.234 189.806 313.987 189.966 315.16H188.826C188.672 314.594 188.112 314.2 187.246 314.2C186.392 314.2 185.766 314.64 185.766 315.274V315.287C185.766 315.774 186.126 316.08 186.972 316.287L188.079 316.554C189.432 316.88 190.086 317.467 190.086 318.494V318.507C190.086 319.787 188.839 320.674 187.206 320.674ZM194.372 320.6C192.892 320.6 192.272 320.054 192.272 318.68V314.32H191.139V313.36H192.272V311.5H193.472V313.36H195.046V314.32H193.472V318.387C193.472 319.234 193.766 319.574 194.512 319.574C194.719 319.574 194.832 319.567 195.046 319.547V320.534C194.819 320.574 194.599 320.6 194.372 320.6ZM198.752 320.674C197.386 320.674 196.352 319.847 196.352 318.54V318.527C196.352 317.247 197.299 316.507 198.972 316.407L201.032 316.28V315.627C201.032 314.74 200.492 314.26 199.419 314.26C198.559 314.26 197.992 314.58 197.806 315.14L197.799 315.16H196.639L196.646 315.12C196.832 313.994 197.926 313.234 199.459 313.234C201.212 313.234 202.192 314.134 202.192 315.627V320.547H201.032V319.487H200.926C200.472 320.254 199.719 320.674 198.752 320.674ZM197.539 318.514C197.539 319.24 198.159 319.667 198.992 319.667C200.172 319.667 201.032 318.894 201.032 317.867V317.214L199.112 317.334C198.019 317.4 197.539 317.787 197.539 318.5V318.514ZM207.272 323.08C205.539 323.08 204.432 322.3 204.252 321.12L204.266 321.114H205.466L205.472 321.12C205.599 321.667 206.239 322.054 207.272 322.054C208.559 322.054 209.326 321.447 209.326 320.387V318.934H209.219C208.766 319.727 207.952 320.174 206.966 320.174C205.106 320.174 203.952 318.734 203.952 316.72V316.707C203.952 314.694 205.112 313.234 206.992 313.234C208.006 313.234 208.792 313.734 209.232 314.547H209.312V313.36H210.472V320.447C210.472 322.054 209.232 323.08 207.272 323.08ZM207.219 319.147C208.552 319.147 209.352 318.147 209.352 316.72V316.707C209.352 315.28 208.546 314.26 207.219 314.26C205.886 314.26 205.139 315.28 205.139 316.707V316.72C205.139 318.147 205.886 319.147 207.219 319.147ZM215.566 320.674C213.512 320.674 212.272 319.234 212.272 316.98V316.974C212.272 314.754 213.539 313.234 215.492 313.234C217.446 313.234 218.632 314.687 218.632 316.834V317.287H213.459C213.492 318.774 214.312 319.64 215.592 319.64C216.566 319.64 217.166 319.18 217.359 318.747L217.386 318.687H218.546L218.532 318.74C218.286 319.714 217.259 320.674 215.566 320.674ZM215.486 314.267C214.419 314.267 213.606 314.994 213.479 316.36H217.452C217.332 314.94 216.546 314.267 215.486 314.267ZM222.899 320.674C221.299 320.674 220.199 319.9 220.066 318.714H221.252C221.446 319.314 222.019 319.707 222.939 319.707C223.906 319.707 224.592 319.247 224.592 318.594V318.58C224.592 318.094 224.226 317.754 223.339 317.54L222.226 317.274C220.879 316.954 220.272 316.367 220.272 315.334V315.327C220.272 314.134 221.419 313.234 222.946 313.234C224.452 313.234 225.499 313.987 225.659 315.16H224.519C224.366 314.594 223.806 314.2 222.939 314.2C222.086 314.2 221.459 314.64 221.459 315.274V315.287C221.459 315.774 221.819 316.08 222.666 316.287L223.772 316.554C225.126 316.88 225.779 317.467 225.779 318.494V318.507C225.779 319.787 224.532 320.674 222.899 320.674ZM233.392 320.674C232.026 320.674 230.992 319.847 230.992 318.54V318.527C230.992 317.247 231.939 316.507 233.612 316.407L235.672 316.28V315.627C235.672 314.74 235.132 314.26 234.059 314.26C233.199 314.26 232.632 314.58 232.446 315.14L232.439 315.16H231.279L231.286 315.12C231.472 313.994 232.566 313.234 234.099 313.234C235.852 313.234 236.832 314.134 236.832 315.627V320.547H235.672V319.487H235.566C235.112 320.254 234.359 320.674 233.392 320.674ZM232.179 318.514C232.179 319.24 232.799 319.667 233.632 319.667C234.812 319.667 235.672 318.894 235.672 317.867V317.214L233.752 317.334C232.659 317.4 232.179 317.787 232.179 318.5V318.514ZM241.419 320.674C239.819 320.674 238.719 319.9 238.586 318.714H239.772C239.966 319.314 240.539 319.707 241.459 319.707C242.426 319.707 243.112 319.247 243.112 318.594V318.58C243.112 318.094 242.746 317.754 241.859 317.54L240.746 317.274C239.399 316.954 238.792 316.367 238.792 315.334V315.327C238.792 314.134 239.939 313.234 241.466 313.234C242.972 313.234 244.019 313.987 244.179 315.16H243.039C242.886 314.594 242.326 314.2 241.459 314.2C240.606 314.2 239.979 314.64 239.979 315.274V315.287C239.979 315.774 240.339 316.08 241.186 316.287L242.292 316.554C243.646 316.88 244.299 317.467 244.299 318.494V318.507C244.299 319.787 243.052 320.674 241.419 320.674ZM252.879 320.674C250.866 320.674 249.579 319.214 249.579 316.934V316.92C249.579 314.687 250.859 313.234 252.872 313.234C254.619 313.234 255.666 314.24 255.879 315.52L255.886 315.56H254.732L254.726 315.54C254.546 314.834 253.906 314.26 252.872 314.26C251.579 314.26 250.766 315.3 250.766 316.92V316.934C250.766 318.587 251.592 319.647 252.872 319.647C253.839 319.647 254.452 319.22 254.719 318.42L254.732 318.38L255.879 318.374L255.866 318.447C255.572 319.747 254.606 320.674 252.879 320.674ZM260.532 320.674C258.486 320.674 257.219 319.26 257.219 316.96V316.947C257.219 314.64 258.486 313.234 260.532 313.234C262.579 313.234 263.846 314.64 263.846 316.947V316.96C263.846 319.26 262.579 320.674 260.532 320.674ZM260.532 319.647C261.892 319.647 262.659 318.654 262.659 316.96V316.947C262.659 315.247 261.892 314.26 260.532 314.26C259.172 314.26 258.406 315.247 258.406 316.947V316.96C258.406 318.654 259.172 319.647 260.532 319.647ZM265.646 320.547V313.36H266.806V314.454H266.912C267.232 313.68 267.912 313.234 268.852 313.234C269.826 313.234 270.506 313.747 270.839 314.494H270.946C271.332 313.734 272.152 313.234 273.146 313.234C274.612 313.234 275.432 314.074 275.432 315.58V320.547H274.272V315.847C274.272 314.787 273.786 314.26 272.772 314.26C271.772 314.26 271.112 315.014 271.112 315.927V320.547H269.952V315.667C269.952 314.814 269.366 314.26 268.459 314.26C267.519 314.26 266.806 315.08 266.806 316.094V320.547H265.646ZM277.526 322.947V313.36H278.686V314.507H278.792C279.232 313.707 280.032 313.234 281.032 313.234C282.852 313.234 284.046 314.707 284.046 316.947V316.96C284.046 319.214 282.859 320.674 281.032 320.674C280.046 320.674 279.186 320.18 278.792 319.414H278.686V322.947H277.526ZM280.766 319.647C282.079 319.647 282.859 318.634 282.859 316.96V316.947C282.859 315.274 282.079 314.26 280.766 314.26C279.459 314.26 278.659 315.287 278.659 316.947V316.96C278.659 318.62 279.459 319.647 280.766 319.647ZM285.926 320.547V310.507H287.086V320.547H285.926ZM292.246 320.674C290.192 320.674 288.952 319.234 288.952 316.98V316.974C288.952 314.754 290.219 313.234 292.172 313.234C294.126 313.234 295.312 314.687 295.312 316.834V317.287H290.139C290.172 318.774 290.992 319.64 292.272 319.64C293.246 319.64 293.846 319.18 294.039 318.747L294.066 318.687H295.226L295.212 318.74C294.966 319.714 293.939 320.674 292.246 320.674ZM292.166 314.267C291.099 314.267 290.286 314.994 290.159 316.36H294.132C294.012 314.94 293.226 314.267 292.166 314.267ZM299.666 320.6C298.186 320.6 297.566 320.054 297.566 318.68V314.32H296.432V313.36H297.566V311.5H298.766V313.36H300.339V314.32H298.766V318.387C298.766 319.234 299.059 319.574 299.806 319.574C300.012 319.574 300.126 319.567 300.339 319.547V320.534C300.112 320.574 299.892 320.6 299.666 320.6ZM304.899 320.674C302.846 320.674 301.606 319.234 301.606 316.98V316.974C301.606 314.754 302.872 313.234 304.826 313.234C306.779 313.234 307.966 314.687 307.966 316.834V317.287H302.792C302.826 318.774 303.646 319.64 304.926 319.64C305.899 319.64 306.499 319.18 306.692 318.747L306.719 318.687H307.879L307.866 318.74C307.619 319.714 306.592 320.674 304.899 320.674ZM304.819 314.267C303.752 314.267 302.939 314.994 302.812 316.36H306.786C306.666 314.94 305.879 314.267 304.819 314.267ZM312.419 320.674C310.599 320.674 309.406 319.2 309.406 316.96V316.947C309.406 314.694 310.592 313.234 312.419 313.234C313.406 313.234 314.266 313.727 314.659 314.494H314.766V310.507H315.926V320.547H314.766V319.4H314.659C314.219 320.2 313.419 320.674 312.419 320.674ZM312.686 319.647C313.992 319.647 314.792 318.62 314.792 316.96V316.947C314.792 315.287 313.992 314.26 312.686 314.26C311.372 314.26 310.592 315.274 310.592 316.947V316.96C310.592 318.634 311.372 319.647 312.686 319.647ZM319.099 320.614C318.626 320.614 318.232 320.22 318.232 319.747C318.232 319.267 318.626 318.88 319.099 318.88C319.579 318.88 319.966 319.267 319.966 319.747C319.966 320.22 319.579 320.614 319.099 320.614ZM71.0392 341.547V333.007H67.9392V331.927H75.3392V333.007H72.2392V341.547H71.0392ZM77.5258 332.974C77.0858 332.974 76.7258 332.614 76.7258 332.174C76.7258 331.734 77.0858 331.374 77.5258 331.374C77.9658 331.374 78.3258 331.734 78.3258 332.174C78.3258 332.614 77.9658 332.974 77.5258 332.974ZM76.9392 341.547V334.36H78.0992V341.547H76.9392ZM80.2858 341.547V334.36H81.4458V335.454H81.5525C81.8725 334.68 82.5525 334.234 83.4925 334.234C84.4658 334.234 85.1458 334.747 85.4792 335.494H85.5858C85.9725 334.734 86.7925 334.234 87.7858 334.234C89.2525 334.234 90.0725 335.074 90.0725 336.58V341.547H88.9125V336.847C88.9125 335.787 88.4258 335.26 87.4125 335.26C86.4125 335.26 85.7525 336.014 85.7525 336.927V341.547H84.5925V336.667C84.5925 335.814 84.0058 335.26 83.0992 335.26C82.1592 335.26 81.4458 336.08 81.4458 337.094V341.547H80.2858ZM95.0992 341.674C93.0458 341.674 91.8058 340.234 91.8058 337.98V337.974C91.8058 335.754 93.0725 334.234 95.0258 334.234C96.9792 334.234 98.1658 335.687 98.1658 337.834V338.287H92.9925C93.0258 339.774 93.8458 340.64 95.1258 340.64C96.0992 340.64 96.6992 340.18 96.8925 339.747L96.9192 339.687H98.0792L98.0658 339.74C97.8192 340.714 96.7925 341.674 95.0992 341.674ZM95.0192 335.267C93.9525 335.267 93.1392 335.994 93.0125 337.36H96.9858C96.8658 335.94 96.0792 335.267 95.0192 335.267ZM106.359 341.6C104.879 341.6 104.259 341.054 104.259 339.68V335.32H103.126V334.36H104.259V332.5H105.459V334.36H107.032V335.32H105.459V339.387C105.459 340.234 105.752 340.574 106.499 340.574C106.706 340.574 106.819 340.567 107.032 340.547V341.534C106.806 341.574 106.586 341.6 106.359 341.6ZM111.612 341.674C109.566 341.674 108.299 340.26 108.299 337.96V337.947C108.299 335.64 109.566 334.234 111.612 334.234C113.659 334.234 114.926 335.64 114.926 337.947V337.96C114.926 340.26 113.659 341.674 111.612 341.674ZM111.612 340.647C112.972 340.647 113.739 339.654 113.739 337.96V337.947C113.739 336.247 112.972 335.26 111.612 335.26C110.252 335.26 109.486 336.247 109.486 337.947V337.96C109.486 339.654 110.252 340.647 111.612 340.647ZM123.506 341.674C121.492 341.674 120.206 340.214 120.206 337.934V337.92C120.206 335.687 121.486 334.234 123.499 334.234C125.246 334.234 126.292 335.24 126.506 336.52L126.512 336.56H125.359L125.352 336.54C125.172 335.834 124.532 335.26 123.499 335.26C122.206 335.26 121.392 336.3 121.392 337.92V337.934C121.392 339.587 122.219 340.647 123.499 340.647C124.466 340.647 125.079 340.22 125.346 339.42L125.359 339.38L126.506 339.374L126.492 339.447C126.199 340.747 125.232 341.674 123.506 341.674ZM128.206 341.547V334.36H129.366V335.427H129.472C129.746 334.674 130.419 334.234 131.392 334.234C131.612 334.234 131.859 334.26 131.972 334.28V335.407C131.732 335.367 131.512 335.34 131.259 335.34C130.152 335.34 129.366 336.04 129.366 337.094V341.547H128.206ZM136.139 341.674C134.086 341.674 132.846 340.234 132.846 337.98V337.974C132.846 335.754 134.112 334.234 136.066 334.234C138.019 334.234 139.206 335.687 139.206 337.834V338.287H134.032C134.066 339.774 134.886 340.64 136.166 340.64C137.139 340.64 137.739 340.18 137.932 339.747L137.959 339.687H139.119L139.106 339.74C138.859 340.714 137.832 341.674 136.139 341.674ZM136.059 335.267C134.992 335.267 134.179 335.994 134.052 337.36H138.026C137.906 335.94 137.119 335.267 136.059 335.267ZM142.979 341.674C141.612 341.674 140.579 340.847 140.579 339.54V339.527C140.579 338.247 141.526 337.507 143.199 337.407L145.259 337.28V336.627C145.259 335.74 144.719 335.26 143.646 335.26C142.786 335.26 142.219 335.58 142.032 336.14L142.026 336.16H140.866L140.872 336.12C141.059 334.994 142.152 334.234 143.686 334.234C145.439 334.234 146.419 335.134 146.419 336.627V341.547H145.259V340.487H145.152C144.699 341.254 143.946 341.674 142.979 341.674ZM141.766 339.514C141.766 340.24 142.386 340.667 143.219 340.667C144.399 340.667 145.259 339.894 145.259 338.867V338.214L143.339 338.334C142.246 338.4 141.766 338.787 141.766 339.5V339.514ZM151.092 341.6C149.612 341.6 148.992 341.054 148.992 339.68V335.32H147.859V334.36H148.992V332.5H150.192V334.36H151.766V335.32H150.192V339.387C150.192 340.234 150.486 340.574 151.232 340.574C151.439 340.574 151.552 340.567 151.766 340.547V341.534C151.539 341.574 151.319 341.6 151.092 341.6ZM156.326 341.674C154.272 341.674 153.032 340.234 153.032 337.98V337.974C153.032 335.754 154.299 334.234 156.252 334.234C158.206 334.234 159.392 335.687 159.392 337.834V338.287H154.219C154.252 339.774 155.072 340.64 156.352 340.64C157.326 340.64 157.926 340.18 158.119 339.747L158.146 339.687H159.306L159.292 339.74C159.046 340.714 158.019 341.674 156.326 341.674ZM156.246 335.267C155.179 335.267 154.366 335.994 154.239 337.36H158.212C158.092 335.94 157.306 335.267 156.246 335.267ZM167.006 341.674C165.639 341.674 164.606 340.847 164.606 339.54V339.527C164.606 338.247 165.552 337.507 167.226 337.407L169.286 337.28V336.627C169.286 335.74 168.746 335.26 167.672 335.26C166.812 335.26 166.246 335.58 166.059 336.14L166.052 336.16H164.892L164.899 336.12C165.086 334.994 166.179 334.234 167.712 334.234C169.466 334.234 170.446 335.134 170.446 336.627V341.547H169.286V340.487H169.179C168.726 341.254 167.972 341.674 167.006 341.674ZM165.792 339.514C165.792 340.24 166.412 340.667 167.246 340.667C168.426 340.667 169.286 339.894 169.286 338.867V338.214L167.366 338.334C166.272 338.4 165.792 338.787 165.792 339.5V339.514ZM176.406 343.947V334.36H177.566V335.507H177.672C178.112 334.707 178.912 334.234 179.912 334.234C181.732 334.234 182.926 335.707 182.926 337.947V337.96C182.926 340.214 181.739 341.674 179.912 341.674C178.926 341.674 178.066 341.18 177.672 340.414H177.566V343.947H176.406ZM179.646 340.647C180.959 340.647 181.739 339.634 181.739 337.96V337.947C181.739 336.274 180.959 335.26 179.646 335.26C178.339 335.26 177.539 336.287 177.539 337.947V337.96C177.539 339.62 178.339 340.647 179.646 340.647ZM187.146 341.674C185.512 341.674 184.672 340.714 184.672 339.014V334.36H185.832V338.734C185.832 340.027 186.299 340.647 187.446 340.647C188.712 340.647 189.386 339.874 189.386 338.614V334.36H190.546V341.547H189.386V340.474H189.279C188.926 341.24 188.199 341.674 187.146 341.674ZM192.712 341.547V334.36H193.872V335.44H193.979C194.339 334.68 195.012 334.234 196.072 334.234C197.686 334.234 198.586 335.187 198.586 336.894V341.547H197.426V337.174C197.426 335.88 196.892 335.26 195.746 335.26C194.599 335.26 193.872 336.034 193.872 337.294V341.547H192.712ZM203.626 341.674C201.612 341.674 200.326 340.214 200.326 337.934V337.92C200.326 335.687 201.606 334.234 203.619 334.234C205.366 334.234 206.412 335.24 206.626 336.52L206.632 336.56H205.479L205.472 336.54C205.292 335.834 204.652 335.26 203.619 335.26C202.326 335.26 201.512 336.3 201.512 337.92V337.934C201.512 339.587 202.339 340.647 203.619 340.647C204.586 340.647 205.199 340.22 205.466 339.42L205.479 339.38L206.626 339.374L206.612 339.447C206.319 340.747 205.352 341.674 203.626 341.674ZM208.392 341.547V331.507H209.552V335.44H209.659C210.019 334.68 210.692 334.234 211.752 334.234C213.366 334.234 214.266 335.187 214.266 336.894V341.547H213.106V337.174C213.106 335.88 212.572 335.26 211.426 335.26C210.279 335.26 209.552 336.034 209.552 337.294V341.547H208.392ZM220.272 341.547V331.507H221.432V341.547H220.272ZM224.272 332.974C223.832 332.974 223.472 332.614 223.472 332.174C223.472 331.734 223.832 331.374 224.272 331.374C224.712 331.374 225.072 331.734 225.072 332.174C225.072 332.614 224.712 332.974 224.272 332.974ZM223.686 341.547V334.36H224.846V341.547H223.686ZM229.499 341.674C227.899 341.674 226.799 340.9 226.666 339.714H227.852C228.046 340.314 228.619 340.707 229.539 340.707C230.506 340.707 231.192 340.247 231.192 339.594V339.58C231.192 339.094 230.826 338.754 229.939 338.54L228.826 338.274C227.479 337.954 226.872 337.367 226.872 336.334V336.327C226.872 335.134 228.019 334.234 229.546 334.234C231.052 334.234 232.099 334.987 232.259 336.16H231.119C230.966 335.594 230.406 335.2 229.539 335.2C228.686 335.2 228.059 335.64 228.059 336.274V336.287C228.059 336.774 228.419 337.08 229.266 337.287L230.372 337.554C231.726 337.88 232.379 338.467 232.379 339.494V339.507C232.379 340.787 231.132 341.674 229.499 341.674ZM236.666 341.6C235.186 341.6 234.566 341.054 234.566 339.68V335.32H233.432V334.36H234.566V332.5H235.766V334.36H237.339V335.32H235.766V339.387C235.766 340.234 236.059 340.574 236.806 340.574C237.012 340.574 237.126 340.567 237.339 340.547V341.534C237.112 341.574 236.892 341.6 236.666 341.6ZM244.886 341.674C243.519 341.674 242.486 340.847 242.486 339.54V339.527C242.486 338.247 243.432 337.507 245.106 337.407L247.166 337.28V336.627C247.166 335.74 246.626 335.26 245.552 335.26C244.692 335.26 244.126 335.58 243.939 336.14L243.932 336.16H242.772L242.779 336.12C242.966 334.994 244.059 334.234 245.592 334.234C247.346 334.234 248.326 335.134 248.326 336.627V341.547H247.166V340.487H247.059C246.606 341.254 245.852 341.674 244.886 341.674ZM243.672 339.514C243.672 340.24 244.292 340.667 245.126 340.667C246.306 340.667 247.166 339.894 247.166 338.867V338.214L245.246 338.334C244.152 338.4 243.672 338.787 243.672 339.5V339.514ZM250.446 341.547V334.36H251.606V335.44H251.712C252.072 334.68 252.746 334.234 253.806 334.234C255.419 334.234 256.319 335.187 256.319 336.894V341.547H255.159V337.174C255.159 335.88 254.626 335.26 253.479 335.26C252.332 335.26 251.606 336.034 251.606 337.294V341.547H250.446ZM261.072 341.674C259.252 341.674 258.059 340.2 258.059 337.96V337.947C258.059 335.694 259.246 334.234 261.072 334.234C262.059 334.234 262.919 334.727 263.312 335.494H263.419V331.507H264.579V341.547H263.419V340.4H263.312C262.872 341.2 262.072 341.674 261.072 341.674ZM261.339 340.647C262.646 340.647 263.446 339.62 263.446 337.96V337.947C263.446 336.287 262.646 335.26 261.339 335.26C260.026 335.26 259.246 336.274 259.246 337.947V337.96C259.246 339.634 260.026 340.647 261.339 340.647ZM270.712 341.547V331.507H271.872V335.44H271.979C272.339 334.68 273.012 334.234 274.072 334.234C275.686 334.234 276.586 335.187 276.586 336.894V341.547H275.426V337.174C275.426 335.88 274.892 335.26 273.746 335.26C272.599 335.26 271.872 336.034 271.872 337.294V341.547H270.712ZM279.299 332.974C278.859 332.974 278.499 332.614 278.499 332.174C278.499 331.734 278.859 331.374 279.299 331.374C279.739 331.374 280.099 331.734 280.099 332.174C280.099 332.614 279.739 332.974 279.299 332.974ZM278.712 341.547V334.36H279.872V341.547H278.712ZM285.019 344.08C283.286 344.08 282.179 343.3 281.999 342.12L282.012 342.114H283.212L283.219 342.12C283.346 342.667 283.986 343.054 285.019 343.054C286.306 343.054 287.072 342.447 287.072 341.387V339.934H286.966C286.512 340.727 285.699 341.174 284.712 341.174C282.852 341.174 281.699 339.734 281.699 337.72V337.707C281.699 335.694 282.859 334.234 284.739 334.234C285.752 334.234 286.539 334.734 286.979 335.547H287.059V334.36H288.219V341.447C288.219 343.054 286.979 344.08 285.019 344.08ZM284.966 340.147C286.299 340.147 287.099 339.147 287.099 337.72V337.707C287.099 336.28 286.292 335.26 284.966 335.26C283.632 335.26 282.886 336.28 282.886 337.707V337.72C282.886 339.147 283.632 340.147 284.966 340.147ZM290.446 341.547V331.507H291.606V335.44H291.712C292.072 334.68 292.746 334.234 293.806 334.234C295.419 334.234 296.319 335.187 296.319 336.894V341.547H295.159V337.174C295.159 335.88 294.626 335.26 293.479 335.26C292.332 335.26 291.606 336.034 291.606 337.294V341.547H290.446ZM298.486 341.547V331.507H299.646V341.547H298.486ZM302.486 332.974C302.046 332.974 301.686 332.614 301.686 332.174C301.686 331.734 302.046 331.374 302.486 331.374C302.926 331.374 303.286 331.734 303.286 332.174C303.286 332.614 302.926 332.974 302.486 332.974ZM301.899 341.547V334.36H303.059V341.547H301.899ZM308.206 344.08C306.472 344.08 305.366 343.3 305.186 342.12L305.199 342.114H306.399L306.406 342.12C306.532 342.667 307.172 343.054 308.206 343.054C309.492 343.054 310.259 342.447 310.259 341.387V339.934H310.152C309.699 340.727 308.886 341.174 307.899 341.174C306.039 341.174 304.886 339.734 304.886 337.72V337.707C304.886 335.694 306.046 334.234 307.926 334.234C308.939 334.234 309.726 334.734 310.166 335.547H310.246V334.36H311.406V341.447C311.406 343.054 310.166 344.08 308.206 344.08ZM308.152 340.147C309.486 340.147 310.286 339.147 310.286 337.72V337.707C310.286 336.28 309.479 335.26 308.152 335.26C306.819 335.26 306.072 336.28 306.072 337.707V337.72C306.072 339.147 306.819 340.147 308.152 340.147ZM313.632 341.547V331.507H314.792V335.44H314.899C315.259 334.68 315.932 334.234 316.992 334.234C318.606 334.234 319.506 335.187 319.506 336.894V341.547H318.346V337.174C318.346 335.88 317.812 335.26 316.666 335.26C315.519 335.26 314.792 336.034 314.792 337.294V341.547H313.632ZM324.159 341.6C322.679 341.6 322.059 341.054 322.059 339.68V335.32H320.926V334.36H322.059V332.5H323.259V334.36H324.832V335.32H323.259V339.387C323.259 340.234 323.552 340.574 324.299 340.574C324.506 340.574 324.619 340.567 324.832 340.547V341.534C324.606 341.574 324.386 341.6 324.159 341.6ZM69.7792 361.547L67.7658 354.36H68.9258L70.3392 360.107H70.4458L72.0525 354.36H73.1525L74.7592 360.107H74.8658L76.2792 354.36H77.4325L75.4192 361.547H74.2525L72.6458 355.987H72.5392L70.9392 361.547H69.7792ZM79.0325 361.547V351.507H80.1925V355.44H80.2992C80.6592 354.68 81.3325 354.234 82.3925 354.234C84.0058 354.234 84.9058 355.187 84.9058 356.894V361.547H83.7458V357.174C83.7458 355.88 83.2125 355.26 82.0658 355.26C80.9192 355.26 80.1925 356.034 80.1925 357.294V361.547H79.0325ZM88.9792 361.674C87.6125 361.674 86.5792 360.847 86.5792 359.54V359.527C86.5792 358.247 87.5258 357.507 89.1992 357.407L91.2592 357.28V356.627C91.2592 355.74 90.7192 355.26 89.6458 355.26C88.7858 355.26 88.2192 355.58 88.0325 356.14L88.0258 356.16H86.8658L86.8725 356.12C87.0592 354.994 88.1525 354.234 89.6858 354.234C91.4392 354.234 92.4192 355.134 92.4192 356.627V361.547H91.2592V360.487H91.1525C90.6992 361.254 89.9458 361.674 88.9792 361.674ZM87.7658 359.514C87.7658 360.24 88.3858 360.667 89.2192 360.667C90.3992 360.667 91.2592 359.894 91.2592 358.867V358.214L89.3392 358.334C88.2458 358.4 87.7658 358.787 87.7658 359.5V359.514ZM97.0925 361.6C95.6125 361.6 94.9925 361.054 94.9925 359.68V355.32H93.8592V354.36H94.9925V352.5H96.1925V354.36H97.7658V355.32H96.1925V359.387C96.1925 360.234 96.4858 360.574 97.2325 360.574C97.4392 360.574 97.5525 360.567 97.7658 360.547V361.534C97.5392 361.574 97.3192 361.6 97.0925 361.6ZM103.339 361.547V354.36H104.499V355.44H104.606C104.966 354.68 105.639 354.234 106.699 354.234C108.312 354.234 109.212 355.187 109.212 356.894V361.547H108.052V357.174C108.052 355.88 107.519 355.26 106.372 355.26C105.226 355.26 104.499 356.034 104.499 357.294V361.547H103.339ZM114.246 361.674C112.192 361.674 110.952 360.234 110.952 357.98V357.974C110.952 355.754 112.219 354.234 114.172 354.234C116.126 354.234 117.312 355.687 117.312 357.834V358.287H112.139C112.172 359.774 112.992 360.64 114.272 360.64C115.246 360.64 115.846 360.18 116.039 359.747L116.066 359.687H117.226L117.212 359.74C116.966 360.714 115.939 361.674 114.246 361.674ZM114.166 355.267C113.099 355.267 112.286 355.994 112.159 357.36H116.132C116.012 355.94 115.226 355.267 114.166 355.267ZM122.046 361.674C119.992 361.674 118.752 360.234 118.752 357.98V357.974C118.752 355.754 120.019 354.234 121.972 354.234C123.926 354.234 125.112 355.687 125.112 357.834V358.287H119.939C119.972 359.774 120.792 360.64 122.072 360.64C123.046 360.64 123.646 360.18 123.839 359.747L123.866 359.687H125.026L125.012 359.74C124.766 360.714 123.739 361.674 122.046 361.674ZM121.966 355.267C120.899 355.267 120.086 355.994 119.959 357.36H123.932C123.812 355.94 123.026 355.267 121.966 355.267ZM129.566 361.674C127.746 361.674 126.552 360.2 126.552 357.96V357.947C126.552 355.694 127.739 354.234 129.566 354.234C130.552 354.234 131.412 354.727 131.806 355.494H131.912V351.507H133.072V361.547H131.912V360.4H131.806C131.366 361.2 130.566 361.674 129.566 361.674ZM129.832 360.647C131.139 360.647 131.939 359.62 131.939 357.96V357.947C131.939 356.287 131.139 355.26 129.832 355.26C128.519 355.26 127.739 356.274 127.739 357.947V357.96C127.739 359.634 128.519 360.647 129.832 360.647ZM137.766 361.674C136.166 361.674 135.066 360.9 134.932 359.714H136.119C136.312 360.314 136.886 360.707 137.806 360.707C138.772 360.707 139.459 360.247 139.459 359.594V359.58C139.459 359.094 139.092 358.754 138.206 358.54L137.092 358.274C135.746 357.954 135.139 357.367 135.139 356.334V356.327C135.139 355.134 136.286 354.234 137.812 354.234C139.319 354.234 140.366 354.987 140.526 356.16H139.386C139.232 355.594 138.672 355.2 137.806 355.2C136.952 355.2 136.326 355.64 136.326 356.274V356.287C136.326 356.774 136.686 357.08 137.532 357.287L138.639 357.554C139.992 357.88 140.646 358.467 140.646 359.494V359.507C140.646 360.787 139.399 361.674 137.766 361.674ZM148.839 361.6C147.359 361.6 146.739 361.054 146.739 359.68V355.32H145.606V354.36H146.739V352.5H147.939V354.36H149.512V355.32H147.939V359.387C147.939 360.234 148.232 360.574 148.979 360.574C149.186 360.574 149.299 360.567 149.512 360.547V361.534C149.286 361.574 149.066 361.6 148.839 361.6ZM154.092 361.674C152.046 361.674 150.779 360.26 150.779 357.96V357.947C150.779 355.64 152.046 354.234 154.092 354.234C156.139 354.234 157.406 355.64 157.406 357.947V357.96C157.406 360.26 156.139 361.674 154.092 361.674ZM154.092 360.647C155.452 360.647 156.219 359.654 156.219 357.96V357.947C156.219 356.247 155.452 355.26 154.092 355.26C152.732 355.26 151.966 356.247 151.966 357.947V357.96C151.966 359.654 152.732 360.647 154.092 360.647ZM166.619 361.674C165.619 361.674 164.819 361.2 164.379 360.4H164.272V361.547H163.112V351.507H164.272V355.494H164.379C164.772 354.727 165.632 354.234 166.619 354.234C168.446 354.234 169.632 355.694 169.632 357.947V357.96C169.632 360.2 168.439 361.674 166.619 361.674ZM166.352 360.647C167.666 360.647 168.446 359.634 168.446 357.96V357.947C168.446 356.274 167.666 355.26 166.352 355.26C165.046 355.26 164.246 356.287 164.246 357.947V357.96C164.246 359.62 165.046 360.647 166.352 360.647ZM174.366 361.674C172.312 361.674 171.072 360.234 171.072 357.98V357.974C171.072 355.754 172.339 354.234 174.292 354.234C176.246 354.234 177.432 355.687 177.432 357.834V358.287H172.259C172.292 359.774 173.112 360.64 174.392 360.64C175.366 360.64 175.966 360.18 176.159 359.747L176.186 359.687H177.346L177.332 359.74C177.086 360.714 176.059 361.674 174.366 361.674ZM174.286 355.267C173.219 355.267 172.406 355.994 172.279 357.36H176.252C176.132 355.94 175.346 355.267 174.286 355.267ZM186.012 361.674C183.999 361.674 182.712 360.214 182.712 357.934V357.92C182.712 355.687 183.992 354.234 186.006 354.234C187.752 354.234 188.799 355.24 189.012 356.52L189.019 356.56H187.866L187.859 356.54C187.679 355.834 187.039 355.26 186.006 355.26C184.712 355.26 183.899 356.3 183.899 357.92V357.934C183.899 359.587 184.726 360.647 186.006 360.647C186.972 360.647 187.586 360.22 187.852 359.42L187.866 359.38L189.012 359.374L188.999 359.447C188.706 360.747 187.739 361.674 186.012 361.674ZM193.666 361.674C191.619 361.674 190.352 360.26 190.352 357.96V357.947C190.352 355.64 191.619 354.234 193.666 354.234C195.712 354.234 196.979 355.64 196.979 357.947V357.96C196.979 360.26 195.712 361.674 193.666 361.674ZM193.666 360.647C195.026 360.647 195.792 359.654 195.792 357.96V357.947C195.792 356.247 195.026 355.26 193.666 355.26C192.306 355.26 191.539 356.247 191.539 357.947V357.96C191.539 359.654 192.306 360.647 193.666 360.647ZM198.779 361.547V354.36H199.939V355.427H200.046C200.319 354.674 200.992 354.234 201.966 354.234C202.186 354.234 202.432 354.26 202.546 354.28V355.407C202.306 355.367 202.086 355.34 201.832 355.34C200.726 355.34 199.939 356.04 199.939 357.094V361.547H198.779ZM204.112 361.547V354.36H205.272V355.427H205.379C205.652 354.674 206.326 354.234 207.299 354.234C207.519 354.234 207.766 354.26 207.879 354.28V355.407C207.639 355.367 207.419 355.34 207.166 355.34C206.059 355.34 205.272 356.04 205.272 357.094V361.547H204.112ZM212.046 361.674C209.992 361.674 208.752 360.234 208.752 357.98V357.974C208.752 355.754 210.019 354.234 211.972 354.234C213.926 354.234 215.112 355.687 215.112 357.834V358.287H209.939C209.972 359.774 210.792 360.64 212.072 360.64C213.046 360.64 213.646 360.18 213.839 359.747L213.866 359.687H215.026L215.012 359.74C214.766 360.714 213.739 361.674 212.046 361.674ZM211.966 355.267C210.899 355.267 210.086 355.994 209.959 357.36H213.932C213.812 355.94 213.026 355.267 211.966 355.267ZM219.852 361.674C217.839 361.674 216.552 360.214 216.552 357.934V357.92C216.552 355.687 217.832 354.234 219.846 354.234C221.592 354.234 222.639 355.24 222.852 356.52L222.859 356.56H221.706L221.699 356.54C221.519 355.834 220.879 355.26 219.846 355.26C218.552 355.26 217.739 356.3 217.739 357.92V357.934C217.739 359.587 218.566 360.647 219.846 360.647C220.812 360.647 221.426 360.22 221.692 359.42L221.706 359.38L222.852 359.374L222.839 359.447C222.546 360.747 221.579 361.674 219.852 361.674ZM227.239 361.6C225.759 361.6 225.139 361.054 225.139 359.68V355.32H224.006V354.36H225.139V352.5H226.339V354.36H227.912V355.32H226.339V359.387C226.339 360.234 226.632 360.574 227.379 360.574C227.586 360.574 227.699 360.567 227.912 360.547V361.534C227.686 361.574 227.466 361.6 227.239 361.6ZM232.472 361.674C230.419 361.674 229.179 360.234 229.179 357.98V357.974C229.179 355.754 230.446 354.234 232.399 354.234C234.352 354.234 235.539 355.687 235.539 357.834V358.287H230.366C230.399 359.774 231.219 360.64 232.499 360.64C233.472 360.64 234.072 360.18 234.266 359.747L234.292 359.687H235.452L235.439 359.74C235.192 360.714 234.166 361.674 232.472 361.674ZM232.392 355.267C231.326 355.267 230.512 355.994 230.386 357.36H234.359C234.239 355.94 233.452 355.267 232.392 355.267ZM239.992 361.674C238.172 361.674 236.979 360.2 236.979 357.96V357.947C236.979 355.694 238.166 354.234 239.992 354.234C240.979 354.234 241.839 354.727 242.232 355.494H242.339V351.507H243.499V361.547H242.339V360.4H242.232C241.792 361.2 240.992 361.674 239.992 361.674ZM240.259 360.647C241.566 360.647 242.366 359.62 242.366 357.96V357.947C242.366 356.287 241.566 355.26 240.259 355.26C238.946 355.26 238.166 356.274 238.166 357.947V357.96C238.166 359.634 238.946 360.647 240.259 360.647ZM246.672 361.614C246.199 361.614 245.806 361.22 245.806 360.747C245.806 360.267 246.199 359.88 246.672 359.88C247.152 359.88 247.539 360.267 247.539 360.747C247.539 361.22 247.152 361.614 246.672 361.614Z" fill="#202226"/>
<path d="M68.7051 293.414V279.14H74.7263C75.2724 279.14 75.8322 279.249 76.4056 279.467C76.9791 279.686 77.4979 280 77.9621 280.409C78.44 280.819 78.8223 281.331 79.109 281.945C79.3957 282.56 79.5391 283.236 79.5391 283.973C79.5391 284.492 79.4435 285.031 79.2523 285.591C79.0748 286.137 78.7472 286.676 78.2693 287.209C77.7914 287.741 77.2248 288.144 76.5695 288.417C75.9141 288.676 75.2997 288.806 74.7263 288.806H71.8591V293.414H68.7051ZM71.8591 285.939H74.5419C74.8287 285.939 75.1154 285.864 75.4021 285.714C75.6888 285.563 75.9209 285.352 76.0984 285.079C76.2896 284.792 76.3851 284.423 76.3851 283.973C76.3851 283.604 76.31 283.27 76.1599 282.969C76.0097 282.655 75.7707 282.416 75.4431 282.252C75.129 282.089 74.8287 282.007 74.5419 282.007H71.8591V285.939ZM81.0541 289.257V283.092H84.1466V288.99C84.1466 289.304 84.208 289.618 84.3309 289.932C84.4538 290.233 84.6654 290.472 84.9658 290.649C85.2798 290.813 85.6348 290.895 86.0307 290.895C86.4267 290.895 86.7748 290.813 87.0752 290.649C87.3892 290.472 87.6077 290.233 87.7306 289.932C87.8535 289.618 87.9149 289.304 87.9149 288.99V283.092H91.0074V289.257C91.0074 289.803 90.9186 290.342 90.7411 290.875C90.5636 291.407 90.2633 291.885 89.84 292.308C89.4304 292.718 88.9048 293.052 88.2631 293.312C87.6214 293.571 86.8772 293.701 86.0307 293.701C85.3617 293.701 84.7268 293.605 84.1261 293.414C83.5254 293.237 82.9929 292.964 82.5287 292.595C82.0781 292.226 81.7163 291.762 81.4432 291.202C81.1838 290.629 81.0541 289.98 81.0541 289.257ZM92.9565 293.414V283.092H96.008V284.382C96.2265 283.932 96.6088 283.57 97.1549 283.297C97.701 283.01 98.3223 282.867 99.0186 282.867C100.275 282.867 101.244 283.249 101.927 284.014C102.623 284.765 102.971 285.809 102.971 287.147V293.414H99.9197V287.516C99.9197 287.079 99.8241 286.703 99.633 286.389C99.4555 286.075 99.2165 285.864 98.9162 285.755C98.6158 285.632 98.3223 285.57 98.0355 285.57C97.4621 285.57 96.9774 285.768 96.5815 286.164C96.1992 286.546 96.008 287.031 96.008 287.618V293.414H92.9565ZM104.466 288.233C104.466 287.468 104.609 286.751 104.896 286.082C105.196 285.4 105.606 284.812 106.125 284.321C106.657 283.829 107.272 283.447 107.968 283.174C108.664 282.901 109.395 282.764 110.159 282.764C111.852 282.764 113.286 283.406 114.46 284.69L112.535 286.594C112.207 286.239 111.852 285.973 111.47 285.796C111.101 285.618 110.665 285.529 110.159 285.529C109.422 285.529 108.794 285.789 108.275 286.308C107.77 286.813 107.517 287.454 107.517 288.233C107.517 288.997 107.77 289.639 108.275 290.158C108.794 290.663 109.422 290.916 110.159 290.916C110.665 290.916 111.101 290.827 111.47 290.649C111.852 290.472 112.207 290.206 112.535 289.851L114.46 291.755C113.286 293.039 111.852 293.68 110.159 293.68C109.586 293.68 109.026 293.598 108.48 293.435C107.934 293.284 107.429 293.066 106.964 292.779C106.514 292.492 106.084 292.117 105.674 291.653C105.265 291.175 104.957 290.629 104.753 290.014C104.562 289.386 104.466 288.792 104.466 288.233ZM115.836 293.414V279.14H118.888V284.341C119.093 283.905 119.455 283.55 119.973 283.276C120.506 283.003 121.107 282.867 121.776 282.867C122.991 282.867 123.933 283.249 124.602 284.014C125.271 284.765 125.605 285.809 125.605 287.147V293.414H122.554V287.516C122.554 286.915 122.397 286.444 122.083 286.103C121.783 285.748 121.352 285.57 120.793 285.57C120.247 285.57 119.789 285.768 119.42 286.164C119.066 286.546 118.888 287.031 118.888 287.618V293.414H115.836ZM135.876 293.414V279.14H138.928V293.414H135.876ZM142.492 282.212C142.028 282.212 141.618 282.041 141.263 281.7C140.922 281.358 140.751 280.955 140.751 280.491C140.751 280.013 140.922 279.604 141.263 279.262C141.618 278.921 142.028 278.75 142.492 278.75C142.97 278.75 143.379 278.921 143.721 279.262C144.062 279.604 144.233 280.013 144.233 280.491C144.233 280.71 144.171 280.955 144.048 281.228C143.939 281.502 143.734 281.734 143.434 281.925C143.147 282.116 142.833 282.212 142.492 282.212ZM140.976 293.414V283.092H144.028V293.414H140.976ZM145.278 291.858L147.039 289.973C147.312 290.301 147.701 290.574 148.206 290.793C148.725 290.997 149.278 291.1 149.865 291.1C150.384 291.1 150.773 291.025 151.033 290.875C151.292 290.724 151.422 290.52 151.422 290.26C151.422 290.178 151.388 290.089 151.319 289.994C151.265 289.885 151.128 289.789 150.91 289.707C150.705 289.612 150.316 289.496 149.742 289.359C149.183 289.209 148.746 289.079 148.432 288.97C146.848 288.424 146.056 287.468 146.056 286.103C146.056 285.447 146.22 284.881 146.548 284.403C146.875 283.911 147.339 283.522 147.94 283.236C148.555 282.935 149.265 282.785 150.07 282.785C151.517 282.785 152.698 283.229 153.613 284.116L152.159 286.123C151.599 285.618 150.876 285.365 149.988 285.365C149.66 285.365 149.408 285.434 149.23 285.57C149.053 285.693 148.964 285.843 148.964 286.021C148.964 286.226 149.039 286.376 149.189 286.471C149.34 286.567 149.701 286.69 150.275 286.84C150.848 286.99 151.354 287.14 151.79 287.291C153.483 287.864 154.33 288.84 154.33 290.219C154.33 290.711 154.234 291.175 154.043 291.612C153.866 292.035 153.593 292.404 153.224 292.718C152.855 293.032 152.378 293.271 151.79 293.435C151.203 293.612 150.534 293.701 149.783 293.701C149.265 293.701 148.705 293.639 148.104 293.516C147.517 293.394 146.978 293.182 146.486 292.882C145.995 292.581 145.592 292.24 145.278 291.858ZM156.452 293.414V285.857H155.08V283.092H156.452V279.14H159.422V283.092H161.695V285.857H159.422V293.414H156.452Z" fill="#202226"/>
<g clip-path="url(#clip0_14760_17128)">
<path d="M216.469 245.366L291.669 126.134L173.099 242.382L277.856 83.2864L93.5866 265.204L245.007 46.1217L104.263 187.027L170.468 90.8074" stroke="url(#paint0_linear_14760_17128)" stroke-width="30.0011"/>
<path d="M201.069 167.99V168.356C201.069 176.439 194.517 182.991 186.434 182.991H137.408C129.326 182.991 122.773 176.439 122.773 168.356V119.33C122.773 111.247 129.326 104.695 137.408 104.695H186.434C194.517 104.695 201.069 111.247 201.069 119.33V141.465" stroke="#202226" stroke-width="1.28"/>
<path d="M122.773 38.1055V72.1311V72.4969C122.773 80.5794 129.326 87.1316 137.408 87.1316H186.434C194.517 87.1316 201.069 80.5794 201.069 72.4969V56.0329" stroke="#202226" stroke-width="1.28"/>
<path d="M201.07 249.578L201.07 215.553L201.07 215.187C201.07 207.104 194.518 200.552 186.436 200.552L137.41 200.552C129.327 200.552 122.775 207.104 122.775 215.187L122.775 240.431" stroke="#202226" stroke-width="1.28"/>
<path fill-rule="evenodd" clip-rule="evenodd" d="M151.794 140.778L157.558 147.218L174.403 127.898C175.664 126.593 177.646 127.985 176.655 129.465L160.081 153.919C158.82 155.486 157.108 155.66 155.667 154.093L147.29 144.433C145.669 142.17 149.812 138.951 151.794 140.778V140.778Z" fill="#202226"/>
<path d="M221.562 117.137H250.1" stroke="black" stroke-width="1.28"/>
<path d="M301.32 117.137H323.272" stroke="black" stroke-width="1.28"/>
<path d="M221.562 134.699H235.465" stroke="black" stroke-width="1.28"/>
<ellipse cx="228.509" cy="165.064" rx="4.02453" ry="4.02453" fill="#202226"/>
<ellipse cx="254.118" cy="165.064" rx="4.02453" ry="4.02453" fill="#202226"/>
<ellipse cx="264.368" cy="173.114" rx="4.02453" ry="4.02453" fill="#202226"/>
<path d="M267.589 102.281C273.088 94.6734 283.796 93.134 291.217 98.8842C298.637 104.635 299.819 115.388 293.824 122.612L207.633 226.494L178.713 245.331C178.058 245.758 177.234 245.118 177.483 244.378L188.506 211.672L267.589 102.281Z" fill="white" stroke="black" stroke-width="1.28"/>
<path d="M262.812 108.93L282.946 124.532" stroke="black" stroke-width="1.28"/>
<path d="M188.555 210.57L208.688 226.172" stroke="black" stroke-width="1.28"/>
<path d="M283.273 135.742L290.626 141.44C291.65 142.233 291.768 143.735 290.882 144.679L263.102 174.246" stroke="#202226" stroke-width="1.28"/>
<path d="M286.249 96.1543L294.577 85.407C295.32 84.4487 296.699 84.2739 297.657 85.0165L301.962 88.3524" stroke="black" stroke-width="1.28"/>
</g>
</g>
<defs>
<filter id="filter0_d_14760_17128" x="19" y="1" width="362" height="492" filterUnits="userSpaceOnUse" color-interpolation-filters="sRGB">
<feFlood flood-opacity="0" result="BackgroundImageFix"/>
<feColorMatrix in="SourceAlpha" type="matrix" values="0 0 0 0 0 0 0 0 0 0 0 0 0 0 0 0 0 0 127 0" result="hardAlpha"/>
<feOffset dy="10"/>
<feGaussianBlur stdDeviation="10.5"/>
<feColorMatrix type="matrix" values="0 0 0 0 0.682353 0 0 0 0 0.698039 0 0 0 0 0.760784 0 0 0 0.1 0"/>
<feBlend mode="normal" in2="BackgroundImageFix" result="effect1_dropShadow_14760_17128"/>
<feBlend mode="normal" in="SourceGraphic" in2="effect1_dropShadow_14760_17128" result="shape"/>
</filter>
<linearGradient id="paint0_linear_14760_17128" x1="292.913" y1="131.6" x2="74.4967" y2="181.286" gradientUnits="userSpaceOnUse">
<stop stop-color="#E3E3E3"/>
<stop offset="1" stop-color="white" stop-opacity="0"/>
</linearGradient>
<clipPath id="clip0_14760_17128">
<rect width="292.693" height="232.107" fill="white" transform="translate(53.6484 25.6562)"/>
</clipPath>
</defs>
</svg>
