<svg width="1312" height="288" viewBox="0 0 1312 288" fill="none" xmlns="http://www.w3.org/2000/svg">
<rect width="304" height="288" rx="40" fill="#18AB41"/>
<g filter="url(#filter0_b_14759_35783)">
<rect x="91.5" y="112" width="121" height="64" rx="32" fill="url(#paint0_linear_14759_35783)" fill-opacity="0.15"/>
<rect x="92" y="112.5" width="120" height="63" rx="31.5" stroke="url(#paint1_linear_14759_35783)" stroke-opacity="0.15"/>
<path d="M118.574 150H117.326L118.047 146.458H115.981L116.227 145.192H118.31L118.961 141.993H116.781L117.036 140.736H119.216L119.919 137.317H121.167L120.464 140.736H123.355L124.059 137.317H125.315L124.612 140.736H126.801L126.555 141.993H124.357L123.698 145.192H125.983L125.737 146.458H123.443L122.714 150H121.457L122.186 146.458H119.295L118.574 150ZM119.559 145.192H122.45L123.101 141.993H120.209L119.559 145.192ZM131.213 150V139.075H131.073L127.847 141.413V139.743L131.222 137.317H132.795V150H131.213ZM140.433 150.211C137.744 150.211 135.828 148.699 135.828 146.572V146.555C135.828 144.99 136.926 143.689 138.552 143.312V143.276C137.164 142.846 136.285 141.791 136.285 140.455V140.438C136.285 138.521 138.034 137.106 140.433 137.106C142.833 137.106 144.582 138.521 144.582 140.438V140.455C144.582 141.791 143.703 142.846 142.314 143.276V143.312C143.94 143.689 145.039 144.99 145.039 146.555V146.572C145.039 148.699 143.123 150.211 140.433 150.211ZM140.433 142.688C141.963 142.688 143.008 141.817 143.008 140.587V140.569C143.008 139.339 141.963 138.469 140.433 138.469C138.904 138.469 137.858 139.339 137.858 140.569V140.587C137.858 141.817 138.904 142.688 140.433 142.688ZM140.433 148.831C142.182 148.831 143.43 147.847 143.43 146.476V146.458C143.43 145.069 142.191 144.076 140.433 144.076C138.675 144.076 137.436 145.069 137.436 146.458V146.476C137.436 147.847 138.684 148.831 140.433 148.831ZM146.252 150L150.928 137.317H152.492L157.168 150H155.507L154.232 146.37H149.188L147.913 150H146.252ZM151.64 139.365L149.653 145.025H153.767L151.78 139.365H151.64ZM159.032 150V137.317H163.883C166.212 137.317 167.636 138.539 167.636 140.473V140.49C167.636 141.8 166.669 142.995 165.448 143.215V143.355C167.179 143.575 168.278 144.762 168.278 146.432V146.449C168.278 148.673 166.678 150 163.98 150H159.032ZM163.549 138.715H160.614V142.784H163.145C165.061 142.784 166.036 142.099 166.036 140.763V140.745C166.036 139.462 165.122 138.715 163.549 138.715ZM163.593 144.146H160.614V148.603H163.743C165.65 148.603 166.652 147.829 166.652 146.37V146.353C166.652 144.894 165.615 144.146 163.593 144.146ZM176.092 150V147.372H169.913V145.931C171.627 143.057 173.569 139.963 175.344 137.317H177.638V145.957H179.44V147.372H177.638V150H176.092ZM171.53 145.966H176.1V138.785H175.995C174.571 140.912 172.91 143.531 171.53 145.86V145.966ZM184.45 150V139.075H184.31L181.084 141.413V139.743L184.459 137.317H186.032V150H184.45Z" fill="white"/>
</g>
<rect x="336" width="304" height="288" rx="40" fill="#1B63F5"/>
<g filter="url(#filter1_b_14759_35783)">
<rect x="427" y="112" width="122" height="64" rx="32" fill="url(#paint2_linear_14759_35783)" fill-opacity="0.15"/>
<rect x="427.5" y="112.5" width="121" height="63" rx="31.5" stroke="url(#paint3_linear_14759_35783)" stroke-opacity="0.15"/>
<path d="M456.991 150L457.712 146.458H454.829L454.108 150H452.86L453.572 146.458H451.516L451.762 145.192H453.845L454.486 141.993H452.315L452.57 140.736H454.741L455.453 137.317H456.701L456.016 140.736H458.881L459.593 137.317H460.85L460.146 140.736H462.335L462.089 141.993H459.883L459.224 145.192H461.518L461.271 146.458H458.969L458.248 150H456.991ZM455.075 145.219H457.976L458.635 141.976H455.734L455.075 145.219ZM466.642 150V139.075H466.501L463.276 141.413V139.743L466.651 137.317H468.224V150H466.642ZM476.802 150H471.854V137.317H476.706C479.035 137.317 480.459 138.539 480.459 140.481C480.459 141.8 479.492 142.995 478.27 143.215V143.355C480.002 143.575 481.1 144.762 481.1 146.44C481.1 148.673 479.501 150 476.802 150ZM473.436 138.715V142.784H475.967C477.883 142.784 478.859 142.099 478.859 140.754C478.859 139.462 477.945 138.715 476.372 138.715H473.436ZM473.436 148.603H476.565C478.472 148.603 479.474 147.829 479.474 146.361C479.474 144.894 478.437 144.146 476.416 144.146H473.436V148.603ZM487.604 150.29C485.697 150.29 484.238 149.271 483.447 147.407C483.034 146.44 482.832 145.271 482.832 143.874C482.832 139.515 484.607 137.019 487.71 137.019C489.863 137.019 491.463 138.293 491.867 140.332H490.241C489.898 139.146 488.94 138.425 487.692 138.425C485.627 138.425 484.458 140.253 484.37 143.628H484.511C485.135 142.397 486.374 141.677 487.886 141.677C490.303 141.677 492.052 143.461 492.052 145.922C492.052 148.471 490.206 150.29 487.604 150.29ZM487.587 148.901C489.213 148.901 490.452 147.636 490.452 145.975C490.452 144.243 489.283 143.048 487.604 143.048C485.926 143.048 484.722 144.243 484.722 145.922C484.722 147.618 485.961 148.901 487.587 148.901ZM496.833 144.155V142.802H498.371C499.813 142.802 500.832 141.87 500.832 140.552C500.832 139.26 499.857 138.398 498.398 138.398C496.939 138.398 495.981 139.207 495.849 140.569H494.311C494.469 138.372 496.042 137.019 498.459 137.019C500.674 137.019 502.441 138.495 502.441 140.341C502.441 141.853 501.606 142.96 500.217 143.294V143.435C501.94 143.654 502.986 144.85 502.986 146.581C502.986 148.673 501.026 150.299 498.521 150.299C495.946 150.299 494.17 148.866 494.056 146.695H495.585C495.726 148.049 496.869 148.919 498.503 148.919C500.173 148.919 501.36 147.926 501.36 146.537C501.36 145.069 500.244 144.155 498.442 144.155H496.833ZM506.95 150H505.368V137.317H513.067V138.741H506.95V143.101H512.566V144.507H506.95V150ZM519.29 150.299C516.891 150.299 515.168 148.813 515.027 146.625H516.583C516.724 147.996 517.814 148.91 519.308 148.91C521.004 148.91 522.138 147.75 522.138 146.01C522.138 144.27 520.995 143.083 519.334 143.083C518.183 143.083 517.233 143.602 516.715 144.507H515.23L515.924 137.317H522.999V138.732H517.163L516.803 142.802H516.943C517.559 142.081 518.455 141.721 519.624 141.721C522.032 141.721 523.72 143.47 523.72 145.966C523.72 148.541 521.918 150.299 519.29 150.299Z" fill="white"/>
</g>
<rect x="672" width="304" height="288" rx="40" fill="#FDD173"/>
<g filter="url(#filter2_b_14759_35783)">
<rect x="762" y="112" width="124" height="64" rx="32" fill="url(#paint4_linear_14759_35783)" fill-opacity="0.15"/>
<rect x="762.5" y="112.5" width="123" height="63" rx="31.5" stroke="url(#paint5_linear_14759_35783)" stroke-opacity="0.15"/>
<path d="M789.229 150H787.981L788.702 146.458H786.637L786.883 145.192H788.966L789.616 141.993H787.436L787.691 140.736H789.871L790.574 137.317H791.822L791.119 140.736H794.011L794.714 137.317H795.971L795.268 140.736H797.456L797.21 141.993H795.013L794.353 145.192H796.639L796.393 146.458H794.099L793.369 150H792.112L792.842 146.458H789.95L789.229 150ZM790.214 145.192H793.105L793.756 141.993H790.864L790.214 145.192ZM798.968 150V137.317H806.667V138.741H800.55V143.101H806.166V144.507H800.55V150H798.968ZM808.909 150V137.317H813.259C817.021 137.317 819.245 139.664 819.245 143.646V143.663C819.245 147.653 817.03 150 813.259 150H808.909ZM810.491 148.576H813.154C815.984 148.576 817.628 146.766 817.628 143.681V143.663C817.628 140.569 815.966 138.741 813.154 138.741H810.491V148.576ZM821.627 150V137.317H825.978C829.739 137.317 831.963 139.664 831.963 143.646V143.663C831.963 147.653 829.748 150 825.978 150H821.627ZM823.209 148.576H825.872C828.702 148.576 830.346 146.766 830.346 143.681V143.663C830.346 140.569 828.685 138.741 825.872 138.741H823.209V148.576ZM837.245 150V139.075H837.105L833.879 141.413V139.743L837.254 137.317H838.828V150H837.245ZM842.66 150L848.355 138.855V138.732H841.57V137.317H849.964V138.785L844.321 150H842.66ZM856.072 150.211C853.453 150.211 851.757 148.752 851.59 146.748L851.581 146.643H853.102L853.11 146.73C853.233 147.979 854.385 148.84 856.072 148.84C857.733 148.84 858.867 147.908 858.867 146.563V146.546C858.867 144.99 857.751 144.12 855.976 144.12H854.385V142.784H855.905C857.417 142.784 858.472 141.853 858.472 140.587V140.569C858.472 139.242 857.602 138.478 856.055 138.478C854.561 138.478 853.497 139.269 853.365 140.552L853.357 140.64H851.836L851.845 140.552C852.047 138.486 853.682 137.106 856.055 137.106C858.472 137.106 860.063 138.451 860.063 140.376V140.394C860.063 141.958 858.955 143.03 857.373 143.364V143.399C859.219 143.558 860.476 144.709 860.476 146.511V146.528C860.476 148.646 858.612 150.211 856.072 150.211Z" fill="#825B08"/>
</g>
<rect x="1008.5" y="0.5" width="303" height="287" rx="39.5" fill="#202226"/>
<rect x="1008.5" y="0.5" width="303" height="287" rx="39.5" stroke="#5B5F66"/>
<g filter="url(#filter3_b_14759_35783)">
<rect x="1098" y="112" width="124" height="64" rx="32" fill="url(#paint6_linear_14759_35783)" fill-opacity="0.15"/>
<rect x="1098.5" y="112.5" width="123" height="63" rx="31.5" stroke="url(#paint7_linear_14759_35783)" stroke-opacity="0.15"/>
<path d="M1125.14 150H1123.89L1124.61 146.458H1122.55L1122.79 145.192H1124.88L1125.53 141.993H1123.35L1123.6 140.736H1125.78L1126.49 137.317H1127.73L1127.03 140.736H1129.92L1130.63 137.317H1131.88L1131.18 140.736H1133.37L1133.12 141.993H1130.92L1130.27 145.192H1132.55L1132.3 146.458H1130.01L1129.28 150H1128.02L1128.75 146.458H1125.86L1125.14 150ZM1126.13 145.192H1129.02L1129.67 141.993H1126.78L1126.13 145.192ZM1134.68 150V148.91L1138.97 144.27C1140.58 142.521 1141.06 141.861 1141.06 140.754V140.736C1141.06 139.4 1140.15 138.398 1138.66 138.398C1137.14 138.398 1136.13 139.392 1136.13 140.886L1136.12 140.903L1134.61 140.895L1134.59 140.886C1134.6 138.636 1136.34 137.019 1138.76 137.019C1140.98 137.019 1142.68 138.521 1142.68 140.569V140.587C1142.68 142.037 1142.05 143.092 1139.76 145.456L1136.88 148.436V148.576H1142.89V150H1134.68ZM1149.43 150.299C1146.62 150.299 1144.95 147.741 1144.95 143.663V143.646C1144.95 139.567 1146.62 137.019 1149.43 137.019C1152.23 137.019 1153.92 139.567 1153.92 143.646V143.663C1153.92 147.741 1152.23 150.299 1149.43 150.299ZM1149.43 148.919C1151.25 148.919 1152.33 146.897 1152.33 143.663V143.646C1152.33 140.411 1151.25 138.407 1149.43 138.407C1147.61 138.407 1146.54 140.411 1146.54 143.646V143.663C1146.54 146.897 1147.61 148.919 1149.43 148.919ZM1156.16 150V148.91L1160.45 144.27C1162.07 142.521 1162.54 141.861 1162.54 140.754V140.736C1162.54 139.4 1161.63 138.398 1160.14 138.398C1158.62 138.398 1157.61 139.392 1157.61 140.886L1157.6 140.903L1156.09 140.895L1156.07 140.886C1156.08 138.636 1157.82 137.019 1160.25 137.019C1162.46 137.019 1164.16 138.521 1164.16 140.569V140.587C1164.16 142.037 1163.53 143.092 1161.24 145.456L1158.36 148.436V148.576H1164.37V150H1156.16ZM1166.66 150V148.91L1170.95 144.27C1172.57 142.521 1173.04 141.861 1173.04 140.754V140.736C1173.04 139.4 1172.14 138.398 1170.64 138.398C1169.12 138.398 1168.11 139.392 1168.11 140.886L1168.1 140.903L1166.59 140.895L1166.57 140.886C1166.58 138.636 1168.32 137.019 1170.75 137.019C1172.96 137.019 1174.66 138.521 1174.66 140.569V140.587C1174.66 142.037 1174.04 143.092 1171.74 145.456L1168.86 148.436V148.576H1174.87V150H1166.66ZM1177.17 150V148.91L1181.45 144.27C1183.07 142.521 1183.55 141.861 1183.55 140.754V140.736C1183.55 139.4 1182.64 138.398 1181.15 138.398C1179.63 138.398 1178.62 139.392 1178.62 140.886L1178.61 140.903L1177.1 140.895L1177.08 140.886C1177.09 138.636 1178.83 137.019 1181.25 137.019C1183.47 137.019 1185.16 138.521 1185.16 140.569V140.587C1185.16 142.037 1184.54 143.092 1182.25 145.456L1179.36 148.436V148.576H1185.37V150H1177.17ZM1192.15 150.299C1189.83 150.299 1187.38 148.664 1187.38 143.892V143.874C1187.38 139.55 1189.18 137.019 1192.26 137.019C1194.38 137.019 1195.97 138.267 1196.4 140.139L1196.42 140.253H1194.83L1194.8 140.156C1194.41 139.093 1193.52 138.434 1192.24 138.434C1189.94 138.434 1189 140.684 1188.9 143.329C1188.89 143.426 1188.89 143.531 1188.89 143.628H1189.06C1189.52 142.591 1190.72 141.668 1192.43 141.668C1194.81 141.668 1196.59 143.479 1196.59 145.913V145.931C1196.59 148.462 1194.71 150.299 1192.15 150.299ZM1189.27 145.913C1189.27 147.583 1190.53 148.901 1192.13 148.901C1193.72 148.901 1195 147.609 1195 145.966V145.948C1195 144.261 1193.8 143.048 1192.16 143.048C1190.52 143.048 1189.27 144.252 1189.27 145.904V145.913Z" fill="white"/>
</g>
<defs>
<filter id="filter0_b_14759_35783" x="51.5" y="72" width="201" height="144" filterUnits="userSpaceOnUse" color-interpolation-filters="sRGB">
<feFlood flood-opacity="0" result="BackgroundImageFix"/>
<feGaussianBlur in="BackgroundImageFix" stdDeviation="20"/>
<feComposite in2="SourceAlpha" operator="in" result="effect1_backgroundBlur_14759_35783"/>
<feBlend mode="normal" in="SourceGraphic" in2="effect1_backgroundBlur_14759_35783" result="shape"/>
</filter>
<filter id="filter1_b_14759_35783" x="387" y="72" width="202" height="144" filterUnits="userSpaceOnUse" color-interpolation-filters="sRGB">
<feFlood flood-opacity="0" result="BackgroundImageFix"/>
<feGaussianBlur in="BackgroundImageFix" stdDeviation="20"/>
<feComposite in2="SourceAlpha" operator="in" result="effect1_backgroundBlur_14759_35783"/>
<feBlend mode="normal" in="SourceGraphic" in2="effect1_backgroundBlur_14759_35783" result="shape"/>
</filter>
<filter id="filter2_b_14759_35783" x="722" y="72" width="204" height="144" filterUnits="userSpaceOnUse" color-interpolation-filters="sRGB">
<feFlood flood-opacity="0" result="BackgroundImageFix"/>
<feGaussianBlur in="BackgroundImageFix" stdDeviation="20"/>
<feComposite in2="SourceAlpha" operator="in" result="effect1_backgroundBlur_14759_35783"/>
<feBlend mode="normal" in="SourceGraphic" in2="effect1_backgroundBlur_14759_35783" result="shape"/>
</filter>
<filter id="filter3_b_14759_35783" x="1058" y="72" width="204" height="144" filterUnits="userSpaceOnUse" color-interpolation-filters="sRGB">
<feFlood flood-opacity="0" result="BackgroundImageFix"/>
<feGaussianBlur in="BackgroundImageFix" stdDeviation="20"/>
<feComposite in2="SourceAlpha" operator="in" result="effect1_backgroundBlur_14759_35783"/>
<feBlend mode="normal" in="SourceGraphic" in2="effect1_backgroundBlur_14759_35783" result="shape"/>
</filter>
<linearGradient id="paint0_linear_14759_35783" x1="130.743" y1="75.2" x2="213.412" y2="177.788" gradientUnits="userSpaceOnUse">
<stop stop-color="white"/>
<stop offset="1" stop-color="white" stop-opacity="0.32"/>
</linearGradient>
<linearGradient id="paint1_linear_14759_35783" x1="143.17" y1="112" x2="165.325" y2="165.853" gradientUnits="userSpaceOnUse">
<stop offset="0.0627102" stop-color="white"/>
<stop offset="1" stop-color="white" stop-opacity="0"/>
</linearGradient>
<linearGradient id="paint2_linear_14759_35783" x1="466.568" y1="75.2" x2="549.089" y2="178.451" gradientUnits="userSpaceOnUse">
<stop stop-color="white"/>
<stop offset="1" stop-color="white" stop-opacity="0.32"/>
</linearGradient>
<linearGradient id="paint3_linear_14759_35783" x1="479.097" y1="112" x2="501.122" y2="165.981" gradientUnits="userSpaceOnUse">
<stop offset="0.0627102" stop-color="white"/>
<stop offset="1" stop-color="white" stop-opacity="0"/>
</linearGradient>
<linearGradient id="paint4_linear_14759_35783" x1="802.216" y1="75.2" x2="884.432" y2="179.755" gradientUnits="userSpaceOnUse">
<stop stop-color="white"/>
<stop offset="1" stop-color="white" stop-opacity="0.32"/>
</linearGradient>
<linearGradient id="paint5_linear_14759_35783" x1="814.951" y1="112" x2="836.72" y2="166.228" gradientUnits="userSpaceOnUse">
<stop offset="0.0627102" stop-color="white"/>
<stop offset="1" stop-color="white" stop-opacity="0"/>
</linearGradient>
<linearGradient id="paint6_linear_14759_35783" x1="1138.22" y1="75.2" x2="1220.43" y2="179.755" gradientUnits="userSpaceOnUse">
<stop stop-color="white"/>
<stop offset="1" stop-color="white" stop-opacity="0.32"/>
</linearGradient>
<linearGradient id="paint7_linear_14759_35783" x1="1150.95" y1="112" x2="1172.72" y2="166.228" gradientUnits="userSpaceOnUse">
<stop offset="0.0627102" stop-color="white"/>
<stop offset="1" stop-color="white" stop-opacity="0"/>
</linearGradient>
</defs>
</svg>
