<svg width="72" height="72" viewBox="0 0 72 72" fill="none" xmlns="http://www.w3.org/2000/svg">
<g filter="url(#filter0_d_14760_43995)">
<rect x="8" y="6" width="56" height="56" rx="12" fill="white"/>
<rect x="20" y="18" width="32" height="32" rx="12" fill="white"/>
<path fill-rule="evenodd" clip-rule="evenodd" d="M25.3281 28C24.2236 28 23.3281 27.1046 23.3281 26C23.3281 24.8954 24.2236 24 25.3281 24C26.4327 24 27.3281 24.8954 27.3281 26C27.3281 27.1046 26.4327 28 25.3281 28ZM21.3281 26C21.3281 23.7909 23.119 22 25.3281 22C27.5373 22 29.3281 23.7909 29.3281 26C29.3281 27.8638 28.0534 29.4299 26.3281 29.874L26.3281 35.4594C28.0534 35.9034 29.3281 37.4695 29.3281 39.3333C29.3281 41.1972 28.0534 42.7633 26.3281 43.2073V46H24.3281L24.3281 43.2073C22.6029 42.7633 21.3281 41.1972 21.3281 39.3333C21.3281 37.4695 22.6029 35.9034 24.3281 35.4594L24.3281 29.874C22.6029 29.4299 21.3281 27.8638 21.3281 26ZM25.3281 41.3333C24.2236 41.3333 23.3281 40.4379 23.3281 39.3333C23.3281 38.2288 24.2236 37.3333 25.3281 37.3333C26.4327 37.3333 27.3281 38.2288 27.3281 39.3333C27.3281 40.4379 26.4327 41.3333 25.3281 41.3333ZM46.6615 24H35.9948C34.8902 24 33.9948 24.8954 33.9948 26V28.6667C33.9948 29.7712 34.8902 30.6667 35.9948 30.6667H46.6615C47.766 30.6667 48.6615 29.7712 48.6615 28.6667V26C48.6615 24.8954 47.766 24 46.6615 24ZM35.9948 22C33.7857 22 31.9948 23.7909 31.9948 26V28.6667C31.9948 30.8758 33.7857 32.6667 35.9948 32.6667H46.6615C48.8706 32.6667 50.6615 30.8758 50.6615 28.6667V26C50.6615 23.7909 48.8706 22 46.6615 22H35.9948ZM35.9948 37.3333H46.6615C47.766 37.3333 48.6615 38.2288 48.6615 39.3333V42C48.6615 43.1046 47.766 44 46.6615 44H35.9948C34.8902 44 33.9948 43.1046 33.9948 42V39.3333C33.9948 38.2288 34.8902 37.3333 35.9948 37.3333ZM31.9948 39.3333C31.9948 37.1242 33.7857 35.3333 35.9948 35.3333H46.6615C48.8706 35.3333 50.6615 37.1242 50.6615 39.3333V42C50.6615 44.2091 48.8706 46 46.6615 46H35.9948C33.7857 46 31.9948 44.2091 31.9948 42V39.3333Z" fill="#18AB41"/>
</g>
<defs>
<filter id="filter0_d_14760_43995" x="0" y="0" width="72" height="72" filterUnits="userSpaceOnUse" color-interpolation-filters="sRGB">
<feFlood flood-opacity="0" result="BackgroundImageFix"/>
<feColorMatrix in="SourceAlpha" type="matrix" values="0 0 0 0 0 0 0 0 0 0 0 0 0 0 0 0 0 0 127 0" result="hardAlpha"/>
<feOffset dy="2"/>
<feGaussianBlur stdDeviation="4"/>
<feComposite in2="hardAlpha" operator="out"/>
<feColorMatrix type="matrix" values="0 0 0 0 0 0 0 0 0 0 0 0 0 0 0 0 0 0 0.04 0"/>
<feBlend mode="normal" in2="BackgroundImageFix" result="effect1_dropShadow_14760_43995"/>
<feBlend mode="normal" in="SourceGraphic" in2="effect1_dropShadow_14760_43995" result="shape"/>
</filter>
</defs>
</svg>
