<svg width="234" height="88" viewBox="0 0 234 88" fill="none" xmlns="http://www.w3.org/2000/svg">
<path d="M26.2512 59.3113C29.9687 59.3113 32.9822 56.2976 32.9822 52.5801C32.9822 48.8626 29.9687 45.8491 26.2512 45.8491C22.5337 45.8491 19.52 48.8626 19.52 52.5801C19.52 56.2976 22.5337 59.3113 26.2512 59.3113ZM26.2512 41.8105C29.9687 41.8105 32.9822 38.7968 32.9822 35.0793C32.9822 31.3618 29.9687 28.3482 26.2512 28.3482C22.5337 28.3482 19.52 31.3618 19.52 35.0793C19.52 38.7968 22.5337 41.8105 26.2512 41.8105ZM43.752 59.3113C47.4695 59.3113 50.4831 56.2976 50.4831 52.5801C50.4831 48.8626 47.4695 45.8491 43.752 45.8491C40.0345 45.8491 37.0208 48.8626 37.0208 52.5801C37.0208 56.2976 40.0345 59.3113 43.752 59.3113ZM43.752 41.8105C47.4695 41.8105 50.4831 38.7968 50.4831 35.0793C50.4831 31.3618 47.4695 28.3482 43.752 28.3482C40.0345 28.3482 37.0208 31.3618 37.0208 35.0793C37.0208 38.7968 40.0345 41.8105 43.752 41.8105ZM35.0016 8.82812C53.9607 8.82812 70.0032 24.8706 70.0032 43.8297C70.0032 62.7888 53.9607 78.8313 35.0016 78.8313C16.0424 78.8313 0 62.7888 0 43.8297C0 24.8708 16.0425 8.82812 35.0016 8.82812ZM35.0016 18.2516C20.9155 18.2516 9.42351 29.3457 9.42351 43.3598C9.42351 57.3739 20.9155 69.4078 35.0016 69.4078C49.0876 69.4078 60.5797 57.3739 60.5797 43.3598C60.5797 29.3457 49.0876 18.2516 35.0016 18.2516ZM109.703 64.6961H120.702C121.098 64.6961 121.267 64.5265 121.38 64.1306L125.023 50.6841L128.556 64.1306C128.669 64.5265 128.839 64.6961 129.234 64.6961H140.228C140.68 64.6961 140.963 64.5265 141.076 64.1306L148.759 35.6178V64.0176C148.759 64.4133 149.041 64.6961 149.437 64.6961H161.537C161.933 64.6961 162.215 64.4133 162.215 64.0176V34.4117C162.215 34.0158 161.933 33.7332 161.537 33.7332L137.96 33.7354C137.564 33.7354 137.338 33.9052 137.225 34.3574L134.554 48.0432L131.865 34.3574C131.809 33.9617 131.526 33.7354 131.13 33.7354H119.163C118.767 33.7354 118.485 33.9617 118.428 34.3574L115.809 48.0432L113.199 34.3574C113.086 33.9052 112.86 33.7354 112.464 33.7354L94.5984 33.7332V23.6474C94.5984 23.1385 94.2481 22.9124 93.6828 23.082L82.4503 26.7052C82.0544 26.8182 81.8283 27.1576 81.8283 27.5533L81.8152 32.3063C81.8152 33.4937 81.1932 34.0025 80.0057 34.0025H77.102C76.7061 34.0025 76.4233 34.2851 76.4233 34.681V43.154C76.4233 43.5499 76.7061 43.8325 77.102 43.8325H81.4461V54.1228C81.4461 61.4166 84.3162 65.5387 93.0799 65.5387C96.4724 65.5387 99.2456 65.1028 100.716 64.4243C101.168 64.1982 101.33 63.9154 101.33 63.4632V55.4525C101.33 55.0001 100.885 54.774 100.32 55.0566C99.5849 55.396 98.734 55.4525 97.886 55.4525C95.6243 55.4525 94.9026 54.6044 94.9026 51.7773V43.8325H100.171C100.567 43.8325 100.831 43.5704 100.831 43.1747V35.6178L108.855 64.1306C108.968 64.5265 109.251 64.6961 109.703 64.6961ZM148.759 30.3634C148.759 30.7592 149.041 31.0421 149.437 31.0421H161.537C161.933 31.0421 162.215 30.7592 162.215 30.3634V23.6474C162.215 23.2516 161.933 22.9689 161.537 22.9689H149.437C149.041 22.9689 148.759 23.2516 148.759 23.6474V30.3634ZM164.91 64.0176C164.91 64.4133 165.192 64.6961 165.588 64.6961H177.701C178.097 64.6961 178.379 64.4133 178.379 64.0176V23.6474C178.379 23.2516 178.097 22.9689 177.701 22.9689H165.588C165.192 22.9689 164.91 23.2516 164.91 23.6474V64.0176ZM181.072 64.0176C181.072 64.4133 181.355 64.6961 181.751 64.6961H193.83C194.227 64.6961 194.509 64.4133 194.509 64.0176L194.502 34.4117C194.502 34.0158 194.22 33.7332 193.825 33.7332H181.744C181.348 33.7332 181.067 34.0158 181.067 34.4117L181.072 64.0176ZM181.067 30.3634C181.067 30.7592 181.348 31.0421 181.744 31.0421H193.83C194.227 31.0421 194.509 30.7592 194.509 30.3634L194.502 23.6474C194.502 23.2516 194.22 22.9689 193.825 22.9689H181.744C181.348 22.9689 181.067 23.2516 181.067 23.6474V30.3634ZM196.625 49.4865C196.625 58.7028 203.7 65.6383 214.049 65.6383C224.395 65.6383 231.409 58.7028 231.409 49.4865V48.7515C231.409 39.5354 224.395 32.7907 214.049 32.7907C203.7 32.7907 196.625 39.5354 196.625 48.7515V49.4865ZM209.605 49.5108V48.9587C209.605 44.7182 211.56 43.0597 214.049 43.0597C216.536 43.0597 218.501 44.7182 218.501 48.9587V49.5108C218.501 53.6949 216.536 55.4448 214.049 55.4448C211.56 55.4448 209.605 53.6949 209.605 49.5108Z" fill="white"/>
</svg>
