<svg width="400" height="574" viewBox="0 0 400 574" fill="none" xmlns="http://www.w3.org/2000/svg">
<g filter="url(#filter0_d_14760_17129)">
<g clip-path="url(#clip0_14760_17129)">
<path d="M40 24.1283C40 17.43 45.43 12 52.1283 12H347.872C354.57 12 360 17.43 360 24.1283V529.872C360 536.57 354.57 542 347.872 542H52.1283C45.43 542 40 536.57 40 529.872V24.1283Z" fill="white"/>
<rect x="54.9297" y="474.738" width="290.146" height="52.2449" rx="7.46356" fill="#202226"/>
<path d="M140.338 497.157V500.837H142.685C143.946 500.837 144.675 500.167 144.675 498.993C144.675 497.849 143.902 497.157 142.641 497.157H140.338ZM140.338 502.23V506.238H138.705V495.721H142.867C144.988 495.721 146.351 496.982 146.351 498.957C146.351 500.371 145.593 501.523 144.31 501.96L146.672 506.238H144.784L142.641 502.23H140.338ZM151.519 499.482C150.36 499.482 149.551 500.298 149.463 501.537H153.472C153.436 500.291 152.678 499.482 151.519 499.482ZM153.465 504.095H154.973C154.616 505.517 153.348 506.391 151.533 506.391C149.259 506.391 147.867 504.832 147.867 502.295C147.867 499.759 149.288 498.148 151.526 498.148C153.734 498.148 155.068 499.657 155.068 502.149V502.696H149.463V502.783C149.514 504.176 150.323 505.058 151.577 505.058C152.524 505.058 153.173 504.715 153.465 504.095ZM159.842 498.17C160.921 498.17 161.876 498.731 162.328 499.613H162.452V498.301H163.968V508.877H162.393V505.036H162.269C161.788 505.896 160.95 506.369 159.828 506.369C157.816 506.369 156.555 504.788 156.555 502.266C156.555 499.766 157.838 498.17 159.842 498.17ZM160.272 504.963C161.606 504.963 162.422 503.935 162.422 502.273C162.422 500.619 161.599 499.576 160.28 499.576C158.96 499.576 158.173 500.59 158.173 502.266C158.173 503.957 158.953 504.963 160.272 504.963ZM172.94 498.301V506.238H171.431V504.977H171.307C170.921 505.881 170.112 506.391 168.909 506.391C167.153 506.391 166.176 505.32 166.176 503.454V498.301H167.743V503.046C167.743 504.329 168.261 504.941 169.412 504.941C170.68 504.941 171.373 504.19 171.373 502.944V498.301H172.94ZM178.472 499.482C177.313 499.482 176.504 500.298 176.417 501.537H180.425C180.389 500.291 179.631 499.482 178.472 499.482ZM180.418 504.095H181.927C181.57 505.517 180.301 506.391 178.487 506.391C176.212 506.391 174.82 504.832 174.82 502.295C174.82 499.759 176.242 498.148 178.479 498.148C180.688 498.148 182.022 499.657 182.022 502.149V502.696H176.417V502.783C176.468 504.176 177.277 505.058 178.53 505.058C179.478 505.058 180.126 504.715 180.418 504.095ZM183.72 500.546C183.72 499.139 185.01 498.148 186.803 498.148C188.589 498.148 189.755 498.979 189.908 500.378H188.406C188.261 499.795 187.692 499.423 186.803 499.423C185.928 499.423 185.265 499.839 185.265 500.458C185.265 500.932 185.666 501.231 186.526 501.428L187.845 501.734C189.354 502.084 190.061 502.732 190.061 503.899C190.061 505.393 188.669 506.391 186.774 506.391C184.886 506.391 183.654 505.539 183.516 504.132H185.083C185.28 504.744 185.863 505.123 186.81 505.123C187.787 505.123 188.479 504.686 188.479 504.052C188.479 503.578 188.108 503.272 187.313 503.082L185.928 502.762C184.419 502.404 183.72 501.727 183.72 500.546ZM192.444 496.326H194.011V498.337H195.731V499.657H194.011V503.738C194.011 504.569 194.354 504.934 195.134 504.934C195.374 504.934 195.513 504.919 195.731 504.897V506.202C195.476 506.246 195.185 506.282 194.879 506.282C193.137 506.282 192.444 505.67 192.444 504.139V499.657H191.183V498.337H192.444V496.326ZM204.252 505.05C205.433 505.05 206.307 504.3 206.307 503.316V502.652L204.368 502.776C203.275 502.849 202.78 503.221 202.78 503.92C202.78 504.635 203.399 505.05 204.252 505.05ZM203.851 506.369C202.32 506.369 201.205 505.444 201.205 503.993C201.205 502.565 202.269 501.741 204.157 501.625L206.307 501.501V500.816C206.307 499.977 205.753 499.504 204.682 499.504C203.807 499.504 203.202 499.824 203.027 500.386H201.511C201.672 499.023 202.954 498.148 204.755 498.148C206.745 498.148 207.867 499.139 207.867 500.816V506.238H206.358V505.123H206.234C205.761 505.918 204.893 506.369 203.851 506.369ZM214.215 498.17C216.234 498.17 217.51 499.744 217.51 502.266C217.51 504.788 216.234 506.369 214.23 506.369C213.1 506.369 212.204 505.874 211.788 505.036H211.664V508.877H210.097V498.301H211.606V499.613H211.723C212.204 498.709 213.137 498.17 214.215 498.17ZM213.771 504.963C215.105 504.963 215.899 503.95 215.899 502.266C215.899 500.59 215.105 499.576 213.778 499.576C212.459 499.576 211.635 500.611 211.635 502.273C211.635 503.928 212.459 504.963 213.771 504.963ZM223.516 498.17C225.535 498.17 226.81 499.744 226.81 502.266C226.81 504.788 225.535 506.369 223.53 506.369C222.401 506.369 221.504 505.874 221.089 505.036H220.965V508.877H219.398V498.301H220.906V499.613H221.023C221.504 498.709 222.437 498.17 223.516 498.17ZM223.071 504.963C224.405 504.963 225.199 503.95 225.199 502.266C225.199 500.59 224.405 499.576 223.078 499.576C221.759 499.576 220.936 500.611 220.936 502.273C220.936 503.928 221.759 504.963 223.071 504.963ZM228.698 506.238V498.301H230.207V499.518H230.323C230.549 498.738 231.431 498.17 232.466 498.17C232.699 498.17 232.998 498.192 233.166 498.235V499.781C233.035 499.737 232.568 499.686 232.291 499.686C231.103 499.686 230.265 500.437 230.265 501.552V506.238H228.698ZM237.823 506.391C235.498 506.391 234.077 504.839 234.077 502.266C234.077 499.708 235.505 498.148 237.823 498.148C240.134 498.148 241.562 499.708 241.562 502.266C241.562 504.839 240.141 506.391 237.823 506.391ZM237.823 504.999C239.179 504.999 239.952 503.993 239.952 502.266C239.952 500.546 239.179 499.54 237.823 499.54C236.46 499.54 235.695 500.546 235.695 502.266C235.695 504.001 236.46 504.999 237.823 504.999ZM249.864 498.301L247.007 506.238H245.323L242.459 498.301H244.135L246.11 504.562H246.234L248.202 498.301H249.864ZM253.771 505.05C254.952 505.05 255.826 504.3 255.826 503.316V502.652L253.887 502.776C252.794 502.849 252.298 503.221 252.298 503.92C252.298 504.635 252.918 505.05 253.771 505.05ZM253.37 506.369C251.839 506.369 250.724 505.444 250.724 503.993C250.724 502.565 251.788 501.741 253.676 501.625L255.826 501.501V500.816C255.826 499.977 255.272 499.504 254.201 499.504C253.326 499.504 252.721 499.824 252.546 500.386H251.03C251.191 499.023 252.473 498.148 254.274 498.148C256.264 498.148 257.386 499.139 257.386 500.816V506.238H255.877V505.123H255.753C255.28 505.918 254.412 506.369 253.37 506.369ZM259.689 506.238V495.203H261.256V506.238H259.689Z" fill="white"/>
<rect width="320" height="74.6356" transform="translate(40 161.27)" fill="white"/>
<rect x="270.148" y="186.672" width="74.9271" height="23.1953" rx="3.73178" fill="#D4F5DD"/>
<path d="M282.305 203.461C280.113 203.461 278.746 201.881 278.746 199.328C278.746 196.77 280.108 195.19 282.3 195.19C284.038 195.19 285.383 196.316 285.579 197.923H284.36C284.131 196.956 283.338 196.333 282.3 196.333C280.884 196.333 279.998 197.486 279.998 199.328C279.998 201.165 280.884 202.318 282.305 202.318C283.349 202.318 284.142 201.755 284.36 200.864H285.579C285.361 202.422 284.065 203.461 282.305 203.461ZM289.57 203.384C287.826 203.384 286.76 202.22 286.76 200.29C286.76 198.372 287.832 197.202 289.57 197.202C291.303 197.202 292.374 198.372 292.374 200.29C292.374 202.22 291.308 203.384 289.57 203.384ZM289.57 202.34C290.587 202.34 291.166 201.586 291.166 200.29C291.166 199 290.587 198.246 289.57 198.246C288.548 198.246 287.974 199 287.974 200.29C287.974 201.591 288.548 202.34 289.57 202.34ZM293.79 203.27V197.317H294.922V198.273H295.009C295.272 197.601 295.873 197.202 296.665 197.202C297.48 197.202 298.043 197.623 298.305 198.273H298.398C298.699 197.623 299.382 197.202 300.208 197.202C301.41 197.202 302.11 197.929 302.11 199.17V203.27H300.935V199.476C300.935 198.672 300.552 198.279 299.781 198.279C299.022 198.279 298.524 198.825 298.524 199.525V203.27H297.371V199.361C297.371 198.689 296.922 198.279 296.223 198.279C295.507 198.279 294.965 198.864 294.965 199.629V203.27H293.79ZM306.85 197.218C308.364 197.218 309.32 198.399 309.32 200.29C309.32 202.182 308.364 203.368 306.86 203.368C306.013 203.368 305.341 202.996 305.029 202.368H304.936V205.248H303.761V197.317H304.893V198.301H304.98C305.341 197.623 306.04 197.218 306.85 197.218ZM306.516 202.313C307.516 202.313 308.112 201.553 308.112 200.29C308.112 199.033 307.516 198.273 306.522 198.273C305.532 198.273 304.914 199.049 304.914 200.296C304.914 201.537 305.532 202.313 306.516 202.313ZM310.791 203.27V194.993H311.966V203.27H310.791ZM316.175 198.202C315.306 198.202 314.699 198.814 314.634 199.744H317.64C317.613 198.809 317.045 198.202 316.175 198.202ZM317.635 201.662H318.766C318.499 202.728 317.547 203.384 316.186 203.384C314.481 203.384 313.437 202.215 313.437 200.312C313.437 198.41 314.503 197.202 316.181 197.202C317.837 197.202 318.838 198.333 318.838 200.203V200.613H314.634V200.678C314.672 201.723 315.279 202.384 316.219 202.384C316.93 202.384 317.416 202.127 317.635 201.662ZM320.663 195.835H321.839V197.344H323.129V198.333H321.839V201.395C321.839 202.018 322.096 202.291 322.68 202.291C322.861 202.291 322.965 202.28 323.129 202.264V203.242C322.937 203.275 322.719 203.302 322.489 203.302C321.183 203.302 320.663 202.843 320.663 201.695V198.333H319.718V197.344H320.663V195.835ZM326.89 198.202C326.02 198.202 325.414 198.814 325.348 199.744H328.355C328.327 198.809 327.759 198.202 326.89 198.202ZM328.349 201.662H329.481C329.213 202.728 328.262 203.384 326.901 203.384C325.195 203.384 324.151 202.215 324.151 200.312C324.151 198.41 325.217 197.202 326.895 197.202C328.551 197.202 329.552 198.333 329.552 200.203V200.613H325.348V200.678C325.386 201.723 325.993 202.384 326.933 202.384C327.644 202.384 328.131 202.127 328.349 201.662ZM333.138 203.368C331.624 203.368 330.667 202.176 330.667 200.29C330.667 198.41 331.635 197.218 333.138 197.218C333.952 197.218 334.641 197.606 334.964 198.262H335.051V194.993H336.226V203.27H335.1V202.329H335.007C334.652 202.98 333.958 203.368 333.138 203.368ZM333.471 198.273C332.482 198.273 331.881 199.038 331.881 200.29C331.881 201.553 332.476 202.313 333.471 202.313C334.461 202.313 335.073 201.542 335.073 200.296C335.073 199.055 334.455 198.273 333.471 198.273Z" fill="#147C31"/>
<path d="M97.4718 216.004V214.097H92.9884V213.051C93.8111 211.591 95.2715 209.282 96.9297 206.801H98.5942V213.07H99.9016V214.097H98.5942V216.004H97.4718ZM94.1618 213V213.077H97.4782V207.866H97.4016C96.4577 209.237 95.2588 211.138 94.1618 213ZM101.617 217.962H100.648L104.028 206.399H104.997L101.617 217.962ZM109.972 216.004V214.097H105.488V213.051C106.311 211.591 107.772 209.282 109.43 206.801H111.094V213.07H112.402V214.097H111.094V216.004H109.972ZM106.662 213V213.077H109.978V207.866H109.902C108.958 209.237 107.759 211.138 106.662 213ZM117.893 216.004V209.129H118.99V216.004H117.893ZM118.441 207.732C118.02 207.732 117.676 207.388 117.676 206.967C117.676 206.546 118.02 206.202 118.441 206.202C118.862 206.202 119.206 206.546 119.206 206.967C119.206 207.388 118.862 207.732 118.441 207.732ZM121.541 207.35H122.638V209.129H124.168V210.047H122.638V213.938C122.638 214.748 122.944 215.092 123.658 215.092C123.856 215.092 123.964 215.086 124.168 215.066V215.991C123.951 216.029 123.741 216.055 123.524 216.055C122.108 216.055 121.541 215.532 121.541 214.218V210.047H120.431V209.129H121.541V207.35ZM128.467 209.977C127.37 209.977 126.604 210.781 126.522 211.999H130.31C130.284 210.781 129.557 209.977 128.467 209.977ZM130.278 214.225H131.375C131.043 215.404 129.985 216.125 128.479 216.125C126.573 216.125 125.38 214.748 125.38 212.573C125.38 210.411 126.592 209.008 128.479 209.008C130.335 209.008 131.464 210.328 131.464 212.464V212.885H126.522V212.936C126.579 214.295 127.338 215.156 128.505 215.156C129.391 215.156 129.991 214.83 130.278 214.225ZM133.186 216.004V209.129H134.232V210.213H134.334C134.647 209.448 135.335 209.008 136.254 209.008C137.185 209.008 137.835 209.499 138.154 210.213H138.256C138.626 209.486 139.411 209.008 140.361 209.008C141.764 209.008 142.548 209.811 142.548 211.253V216.004H141.451V211.508C141.451 210.494 140.973 209.996 140.004 209.996C139.047 209.996 138.409 210.711 138.409 211.584V216.004H137.312V211.336C137.312 210.519 136.745 209.996 135.877 209.996C134.978 209.996 134.283 210.774 134.283 211.744V216.004H133.186ZM144.391 211.01C144.391 209.869 145.495 209.008 146.955 209.008C148.397 209.008 149.398 209.722 149.544 210.851H148.46C148.314 210.302 147.778 209.939 146.949 209.939C146.132 209.939 145.495 210.353 145.495 210.966C145.495 211.438 145.877 211.731 146.687 211.929L147.746 212.184C149.041 212.496 149.666 213.057 149.666 214.046C149.666 215.277 148.473 216.125 146.911 216.125C145.38 216.125 144.328 215.392 144.206 214.25H145.335C145.52 214.83 146.069 215.2 146.949 215.2C147.874 215.2 148.537 214.76 148.537 214.129C148.537 213.657 148.18 213.338 147.446 213.16L146.266 212.873C144.978 212.56 144.391 212.005 144.391 211.01ZM160.763 211.233H159.653C159.474 210.551 158.868 209.996 157.88 209.996C156.643 209.996 155.865 210.985 155.865 212.541C155.865 214.129 156.655 215.137 157.88 215.137C158.805 215.137 159.449 214.709 159.653 213.931H160.763C160.565 215.194 159.538 216.125 157.886 216.125C155.96 216.125 154.729 214.728 154.729 212.541C154.729 210.398 155.954 209.008 157.88 209.008C159.551 209.008 160.571 210.009 160.763 211.233ZM165.208 216.125C163.25 216.125 162.038 214.773 162.038 212.566C162.038 210.353 163.25 209.008 165.208 209.008C167.166 209.008 168.377 210.353 168.377 212.566C168.377 214.773 167.166 216.125 165.208 216.125ZM165.208 215.137C166.509 215.137 167.242 214.193 167.242 212.566C167.242 210.934 166.509 209.996 165.208 209.996C163.907 209.996 163.173 210.934 163.173 212.566C163.173 214.193 163.907 215.137 165.208 215.137ZM170.099 216.004V209.129H171.145V210.213H171.247C171.56 209.448 172.249 209.008 173.167 209.008C174.098 209.008 174.749 209.499 175.067 210.213H175.169C175.539 209.486 176.324 209.008 177.274 209.008C178.677 209.008 179.462 209.811 179.462 211.253V216.004H178.365V211.508C178.365 210.494 177.886 209.996 176.917 209.996C175.96 209.996 175.323 210.711 175.323 211.584V216.004H174.226V211.336C174.226 210.519 173.658 209.996 172.791 209.996C171.891 209.996 171.196 210.774 171.196 211.744V216.004H170.099ZM184.812 209.008C186.566 209.008 187.701 210.404 187.701 212.566C187.701 214.716 186.56 216.125 184.812 216.125C183.83 216.125 183.039 215.698 182.663 214.971H182.561V218.3H181.464V209.129H182.51V210.277H182.612C183.052 209.486 183.875 209.008 184.812 209.008ZM184.551 215.137C185.814 215.137 186.566 214.174 186.566 212.566C186.566 210.959 185.814 209.996 184.557 209.996C183.314 209.996 182.529 210.985 182.529 212.566C182.529 214.142 183.314 215.137 184.551 215.137ZM189.487 216.004V206.399H190.584V216.004H189.487ZM195.456 209.977C194.36 209.977 193.594 210.781 193.511 211.999H197.3C197.274 210.781 196.547 209.977 195.456 209.977ZM197.268 214.225H198.365C198.033 215.404 196.974 216.125 195.469 216.125C193.562 216.125 192.37 214.748 192.37 212.573C192.37 210.411 193.581 209.008 195.469 209.008C197.325 209.008 198.454 210.328 198.454 212.464V212.885H193.511V212.936C193.569 214.295 194.328 215.156 195.495 215.156C196.381 215.156 196.981 214.83 197.268 214.225ZM200.635 207.35H201.732V209.129H203.263V210.047H201.732V213.938C201.732 214.748 202.038 215.092 202.752 215.092C202.95 215.092 203.059 215.086 203.263 215.066V215.991C203.046 216.029 202.835 216.055 202.618 216.055C201.203 216.055 200.635 215.532 200.635 214.218V210.047H199.525V209.129H200.635V207.35ZM207.561 209.977C206.464 209.977 205.699 210.781 205.616 211.999H209.404C209.379 210.781 208.652 209.977 207.561 209.977ZM209.372 214.225H210.469C210.138 215.404 209.079 216.125 207.574 216.125C205.667 216.125 204.474 214.748 204.474 212.573C204.474 210.411 205.686 209.008 207.574 209.008C209.43 209.008 210.559 210.328 210.559 212.464V212.885H205.616V212.936C205.673 214.295 206.432 215.156 207.599 215.156C208.486 215.156 209.085 214.83 209.372 214.225ZM214.825 216.125C213.065 216.125 211.936 214.728 211.936 212.566C211.936 210.411 213.078 209.008 214.825 209.008C215.782 209.008 216.592 209.461 216.981 210.213H217.076V206.399H218.173V216.004H217.127V214.907H217.025C216.592 215.672 215.775 216.125 214.825 216.125ZM215.08 209.996C213.83 209.996 213.071 210.966 213.071 212.566C213.071 214.174 213.824 215.137 215.08 215.137C216.33 215.137 217.102 214.154 217.102 212.566C217.102 210.991 216.324 209.996 215.08 209.996Z" fill="#7F838C"/>
<path d="M93.2572 192.879V182.475H95.556V187.117L99.5714 182.475H102.303L98.3175 187.087L102.422 192.879H99.7207L96.7502 188.714L95.556 190.043V192.879H93.2572ZM104.341 184.714C104.003 184.714 103.704 184.589 103.445 184.341C103.197 184.092 103.072 183.798 103.072 183.46C103.072 183.112 103.197 182.813 103.445 182.564C103.704 182.315 104.003 182.191 104.341 182.191C104.689 182.191 104.988 182.315 105.237 182.564C105.485 182.813 105.61 183.112 105.61 183.46C105.61 183.619 105.565 183.798 105.475 183.997C105.396 184.196 105.247 184.365 105.028 184.505C104.819 184.644 104.59 184.714 104.341 184.714ZM103.236 192.879V185.356H105.46V192.879H103.236ZM107.446 192.879V187.371H106.446V185.356H107.446V182.475H109.611V185.356H111.267V187.371H109.611V192.879H107.446ZM111.611 189.102C111.611 188.545 111.715 188.023 111.924 187.535C112.143 187.037 112.442 186.61 112.82 186.251C113.208 185.893 113.656 185.614 114.163 185.415C114.671 185.216 115.203 185.117 115.76 185.117C116.994 185.117 118.039 185.585 118.895 186.52L117.492 187.908C117.253 187.649 116.994 187.455 116.716 187.326C116.447 187.197 116.129 187.132 115.76 187.132C115.223 187.132 114.765 187.321 114.387 187.699C114.019 188.067 113.835 188.535 113.835 189.102C113.835 189.66 114.019 190.127 114.387 190.505C114.765 190.874 115.223 191.058 115.76 191.058C116.129 191.058 116.447 190.993 116.716 190.864C116.994 190.734 117.253 190.54 117.492 190.282L118.895 191.67C118.039 192.605 116.994 193.073 115.76 193.073C115.342 193.073 114.934 193.013 114.536 192.894C114.138 192.784 113.77 192.625 113.432 192.416C113.103 192.207 112.79 191.934 112.491 191.595C112.193 191.247 111.969 190.849 111.82 190.401C111.68 189.943 111.611 189.51 111.611 189.102ZM119.898 192.879V182.475H122.122V186.266C122.272 185.948 122.535 185.689 122.913 185.49C123.302 185.291 123.739 185.191 124.227 185.191C125.113 185.191 125.799 185.47 126.287 186.027C126.775 186.575 127.018 187.336 127.018 188.311V192.879H124.794V188.58C124.794 188.142 124.68 187.799 124.451 187.55C124.232 187.291 123.919 187.162 123.511 187.162C123.112 187.162 122.779 187.306 122.51 187.595C122.252 187.873 122.122 188.227 122.122 188.655V192.879H119.898ZM128.141 189.162V189.102C128.141 188.525 128.241 187.993 128.44 187.505C128.649 187.008 128.937 186.585 129.306 186.236C129.674 185.888 130.107 185.624 130.604 185.445C131.102 185.256 131.639 185.162 132.216 185.162C132.774 185.162 133.291 185.261 133.769 185.46C134.256 185.649 134.669 185.923 135.008 186.281C135.356 186.629 135.62 187.037 135.799 187.505C135.988 187.973 136.082 188.465 136.082 188.983L136.053 189.699H130.365C130.385 190.028 130.5 190.311 130.709 190.55C130.918 190.789 131.176 190.953 131.485 191.043C131.803 191.132 132.097 191.177 132.366 191.177C132.644 191.177 132.938 191.132 133.246 191.043C133.555 190.953 133.873 190.754 134.202 190.446L135.5 191.685C134.615 192.6 133.535 193.058 132.261 193.058C131.664 193.058 131.107 192.968 130.589 192.789C130.082 192.6 129.644 192.337 129.276 191.998C128.917 191.65 128.639 191.237 128.44 190.759C128.241 190.272 128.141 189.739 128.141 189.162ZM130.395 188.252H133.843C133.843 188.092 133.789 187.918 133.679 187.729C133.57 187.53 133.376 187.361 133.097 187.222C132.828 187.072 132.535 186.998 132.216 186.998C131.739 186.998 131.321 187.122 130.962 187.371C130.614 187.61 130.425 187.903 130.395 188.252ZM137.187 192.879V185.356H139.411V186.296C139.57 185.968 139.849 185.704 140.247 185.505C140.645 185.296 141.098 185.191 141.605 185.191C142.521 185.191 143.227 185.47 143.725 186.027C144.232 186.575 144.486 187.336 144.486 188.311V192.879H142.262V188.58C142.262 188.261 142.192 187.988 142.053 187.759C141.924 187.53 141.75 187.376 141.531 187.296C141.312 187.207 141.098 187.162 140.889 187.162C140.471 187.162 140.117 187.306 139.829 187.595C139.55 187.873 139.411 188.227 139.411 188.655V192.879H137.187Z" fill="#202226"/>
<circle cx="66.1263" cy="198.271" r="9.32945" fill="#15AB3F" stroke="#15AB3F" stroke-width="2.79883"/>
<path d="M60.5234 197.984L64.4418 202.003L71.7188 194.539" stroke="white" stroke-width="1.86589"/>
<rect width="320" height="74.6356" transform="translate(40 235.906)" fill="white"/>
<rect x="270.148" y="261.309" width="74.9271" height="23.1953" rx="3.73178" fill="#D4F5DD"/>
<path d="M282.305 278.098C280.113 278.098 278.746 276.518 278.746 273.965C278.746 271.407 280.108 269.827 282.3 269.827C284.038 269.827 285.383 270.953 285.579 272.56H284.36C284.131 271.592 283.338 270.969 282.3 270.969C280.884 270.969 279.998 272.123 279.998 273.965C279.998 275.802 280.884 276.955 282.305 276.955C283.349 276.955 284.142 276.392 284.36 275.501H285.579C285.361 277.059 284.065 278.098 282.305 278.098ZM289.57 278.021C287.826 278.021 286.76 276.857 286.76 274.927C286.76 273.008 287.832 271.838 289.57 271.838C291.303 271.838 292.374 273.008 292.374 274.927C292.374 276.857 291.308 278.021 289.57 278.021ZM289.57 276.977C290.587 276.977 291.166 276.223 291.166 274.927C291.166 273.637 290.587 272.883 289.57 272.883C288.548 272.883 287.974 273.637 287.974 274.927C287.974 276.228 288.548 276.977 289.57 276.977ZM293.79 277.906V271.953H294.922V272.91H295.009C295.272 272.238 295.873 271.838 296.665 271.838C297.48 271.838 298.043 272.259 298.305 272.91H298.398C298.699 272.259 299.382 271.838 300.208 271.838C301.41 271.838 302.11 272.566 302.11 273.806V277.906H300.935V274.113C300.935 273.309 300.552 272.915 299.781 272.915C299.022 272.915 298.524 273.462 298.524 274.162V277.906H297.371V273.998C297.371 273.325 296.922 272.915 296.223 272.915C295.507 272.915 294.965 273.5 294.965 274.266V277.906H293.79ZM306.85 271.855C308.364 271.855 309.32 273.036 309.32 274.927C309.32 276.818 308.364 278.005 306.86 278.005C306.013 278.005 305.341 277.633 305.029 277.004H304.936V279.885H303.761V271.953H304.893V272.937H304.98C305.341 272.259 306.04 271.855 306.85 271.855ZM306.516 276.95C307.516 276.95 308.112 276.19 308.112 274.927C308.112 273.67 307.516 272.91 306.522 272.91C305.532 272.91 304.914 273.686 304.914 274.932C304.914 276.173 305.532 276.95 306.516 276.95ZM310.791 277.906V269.63H311.966V277.906H310.791ZM316.175 272.839C315.306 272.839 314.699 273.451 314.634 274.38H317.64C317.613 273.446 317.045 272.839 316.175 272.839ZM317.635 276.299H318.766C318.499 277.365 317.547 278.021 316.186 278.021C314.481 278.021 313.437 276.851 313.437 274.949C313.437 273.047 314.503 271.838 316.181 271.838C317.837 271.838 318.838 272.97 318.838 274.84V275.25H314.634V275.315C314.672 276.359 315.279 277.021 316.219 277.021C316.93 277.021 317.416 276.764 317.635 276.299ZM320.663 270.472H321.839V271.981H323.129V272.97H321.839V276.031C321.839 276.654 322.096 276.928 322.68 276.928C322.861 276.928 322.965 276.917 323.129 276.9V277.879C322.937 277.912 322.719 277.939 322.489 277.939C321.183 277.939 320.663 277.48 320.663 276.332V272.97H319.718V271.981H320.663V270.472ZM326.89 272.839C326.02 272.839 325.414 273.451 325.348 274.38H328.355C328.327 273.446 327.759 272.839 326.89 272.839ZM328.349 276.299H329.481C329.213 277.365 328.262 278.021 326.901 278.021C325.195 278.021 324.151 276.851 324.151 274.949C324.151 273.047 325.217 271.838 326.895 271.838C328.551 271.838 329.552 272.97 329.552 274.84V275.25H325.348V275.315C325.386 276.359 325.993 277.021 326.933 277.021C327.644 277.021 328.131 276.764 328.349 276.299ZM333.138 278.005C331.624 278.005 330.667 276.813 330.667 274.927C330.667 273.047 331.635 271.855 333.138 271.855C333.952 271.855 334.641 272.243 334.964 272.899H335.051V269.63H336.226V277.906H335.1V276.966H335.007C334.652 277.617 333.958 278.005 333.138 278.005ZM333.471 272.91C332.482 272.91 331.881 273.675 331.881 274.927C331.881 276.19 332.476 276.95 333.471 276.95C334.461 276.95 335.073 276.179 335.073 274.932C335.073 273.692 334.455 272.91 333.471 272.91Z" fill="#147C31"/>
<path d="M96.209 290.851C94.6465 290.851 93.4858 289.926 93.1924 288.447H94.3723C94.621 289.308 95.3162 289.831 96.2218 289.831C97.7205 289.831 98.5687 288.504 98.6325 286.055H98.5815H98.556H98.5305C98.0776 286.948 97.1784 287.471 96.0815 287.471C94.3276 287.471 93.0585 286.176 93.0585 284.391C93.0585 282.541 94.3978 281.221 96.2856 281.221C97.6631 281.221 98.7282 281.954 99.3021 283.313C99.6019 284.014 99.7486 284.863 99.7486 285.877C99.7486 289.04 98.4603 290.851 96.209 290.851ZM96.2856 286.476C97.5037 286.476 98.3774 285.609 98.3774 284.391C98.3774 283.16 97.4782 282.229 96.2983 282.229C95.1185 282.229 94.2192 283.147 94.2192 284.352C94.2192 285.609 95.0674 286.476 96.2856 286.476ZM101.541 292.599H100.571L103.951 281.036H104.921L101.541 292.599ZM108.888 290.851C107.325 290.851 106.164 289.926 105.871 288.447H107.051C107.3 289.308 107.995 289.831 108.9 289.831C110.399 289.831 111.247 288.504 111.311 286.055H111.26H111.235H111.209C110.756 286.948 109.857 287.471 108.76 287.471C107.006 287.471 105.737 286.176 105.737 284.391C105.737 282.541 107.076 281.221 108.964 281.221C110.342 281.221 111.407 281.954 111.981 283.313C112.28 284.014 112.427 284.863 112.427 285.877C112.427 289.04 111.139 290.851 108.888 290.851ZM108.964 286.476C110.182 286.476 111.056 285.609 111.056 284.391C111.056 283.16 110.157 282.229 108.977 282.229C107.797 282.229 106.898 283.147 106.898 284.352C106.898 285.609 107.746 286.476 108.964 286.476ZM117.995 290.641V283.766H119.092V290.641H117.995ZM118.543 282.369C118.122 282.369 117.778 282.025 117.778 281.604C117.778 281.183 118.122 280.838 118.543 280.838C118.964 280.838 119.309 281.183 119.309 281.604C119.309 282.025 118.964 282.369 118.543 282.369ZM121.643 281.986H122.74V283.766H124.27V284.684H122.74V288.574C122.74 289.384 123.046 289.729 123.76 289.729C123.958 289.729 124.066 289.722 124.27 289.703V290.628C124.053 290.666 123.843 290.692 123.626 290.692C122.21 290.692 121.643 290.169 121.643 288.855V284.684H120.533V283.766H121.643V281.986ZM128.569 284.614C127.472 284.614 126.706 285.417 126.624 286.636H130.412C130.386 285.417 129.659 284.614 128.569 284.614ZM130.38 288.861H131.477C131.145 290.041 130.087 290.762 128.581 290.762C126.675 290.762 125.482 289.384 125.482 287.21C125.482 285.048 126.694 283.644 128.581 283.644C130.437 283.644 131.566 284.965 131.566 287.101V287.522H126.624V287.573C126.681 288.931 127.44 289.792 128.607 289.792C129.493 289.792 130.093 289.467 130.38 288.861ZM133.288 290.641V283.766H134.334V284.85H134.436C134.749 284.085 135.437 283.644 136.356 283.644C137.287 283.644 137.937 284.136 138.256 284.85H138.358C138.728 284.123 139.513 283.644 140.463 283.644C141.866 283.644 142.65 284.448 142.65 285.889V290.641H141.553V286.144C141.553 285.13 141.075 284.633 140.106 284.633C139.149 284.633 138.511 285.347 138.511 286.221V290.641H137.414V285.972C137.414 285.156 136.847 284.633 135.979 284.633C135.08 284.633 134.385 285.411 134.385 286.38V290.641H133.288ZM144.493 285.647C144.493 284.505 145.597 283.644 147.057 283.644C148.499 283.644 149.5 284.359 149.647 285.488H148.562C148.416 284.939 147.88 284.576 147.051 284.576C146.235 284.576 145.597 284.99 145.597 285.602C145.597 286.074 145.979 286.368 146.789 286.565L147.848 286.82C149.143 287.133 149.768 287.694 149.768 288.683C149.768 289.914 148.575 290.762 147.013 290.762C145.482 290.762 144.43 290.028 144.309 288.887H145.437C145.622 289.467 146.171 289.837 147.051 289.837C147.976 289.837 148.639 289.397 148.639 288.766C148.639 288.294 148.282 287.975 147.548 287.796L146.368 287.509C145.08 287.197 144.493 286.642 144.493 285.647ZM160.865 285.87H159.755C159.576 285.188 158.971 284.633 157.982 284.633C156.745 284.633 155.967 285.621 155.967 287.178C155.967 288.766 156.757 289.773 157.982 289.773C158.907 289.773 159.551 289.346 159.755 288.568H160.865C160.667 289.831 159.64 290.762 157.988 290.762C156.062 290.762 154.831 289.365 154.831 287.178C154.831 285.035 156.056 283.644 157.982 283.644C159.653 283.644 160.673 284.646 160.865 285.87ZM165.31 290.762C163.352 290.762 162.14 289.41 162.14 287.203C162.14 284.99 163.352 283.644 165.31 283.644C167.268 283.644 168.479 284.99 168.479 287.203C168.479 289.41 167.268 290.762 165.31 290.762ZM165.31 289.773C166.611 289.773 167.344 288.829 167.344 287.203C167.344 285.57 166.611 284.633 165.31 284.633C164.009 284.633 163.275 285.57 163.275 287.203C163.275 288.829 164.009 289.773 165.31 289.773ZM170.201 290.641V283.766H171.247V284.85H171.349C171.662 284.085 172.351 283.644 173.269 283.644C174.2 283.644 174.851 284.136 175.169 284.85H175.272C175.641 284.123 176.426 283.644 177.376 283.644C178.779 283.644 179.564 284.448 179.564 285.889V290.641H178.467V286.144C178.467 285.13 177.988 284.633 177.019 284.633C176.062 284.633 175.425 285.347 175.425 286.221V290.641H174.328V285.972C174.328 285.156 173.76 284.633 172.893 284.633C171.993 284.633 171.298 285.411 171.298 286.38V290.641H170.201ZM184.914 283.644C186.668 283.644 187.803 285.041 187.803 287.203C187.803 289.352 186.662 290.762 184.914 290.762C183.932 290.762 183.141 290.335 182.765 289.607H182.663V292.937H181.566V283.766H182.612V284.914H182.714C183.154 284.123 183.977 283.644 184.914 283.644ZM184.653 289.773C185.916 289.773 186.668 288.81 186.668 287.203C186.668 285.596 185.916 284.633 184.659 284.633C183.416 284.633 182.631 285.621 182.631 287.203C182.631 288.778 183.416 289.773 184.653 289.773ZM189.589 290.641V281.036H190.686V290.641H189.589ZM195.559 284.614C194.462 284.614 193.696 285.417 193.613 286.636H197.402C197.376 285.417 196.649 284.614 195.559 284.614ZM197.37 288.861H198.467C198.135 290.041 197.076 290.762 195.571 290.762C193.664 290.762 192.472 289.384 192.472 287.21C192.472 285.048 193.684 283.644 195.571 283.644C197.427 283.644 198.556 284.965 198.556 287.101V287.522H193.613V287.573C193.671 288.931 194.43 289.792 195.597 289.792C196.483 289.792 197.083 289.467 197.37 288.861ZM200.737 281.986H201.834V283.766H203.365V284.684H201.834V288.574C201.834 289.384 202.14 289.729 202.854 289.729C203.052 289.729 203.161 289.722 203.365 289.703V290.628C203.148 290.666 202.937 290.692 202.721 290.692C201.305 290.692 200.737 290.169 200.737 288.855V284.684H199.627V283.766H200.737V281.986ZM207.663 284.614C206.566 284.614 205.801 285.417 205.718 286.636H209.506C209.481 285.417 208.754 284.614 207.663 284.614ZM209.474 288.861H210.571C210.24 290.041 209.181 290.762 207.676 290.762C205.769 290.762 204.576 289.384 204.576 287.21C204.576 285.048 205.788 283.644 207.676 283.644C209.532 283.644 210.661 284.965 210.661 287.101V287.522H205.718V287.573C205.775 288.931 206.534 289.792 207.701 289.792C208.588 289.792 209.187 289.467 209.474 288.861ZM214.927 290.762C213.167 290.762 212.038 289.365 212.038 287.203C212.038 285.048 213.18 283.644 214.927 283.644C215.884 283.644 216.694 284.097 217.083 284.85H217.178V281.036H218.275V290.641H217.229V289.544H217.127C216.694 290.309 215.877 290.762 214.927 290.762ZM215.182 284.633C213.932 284.633 213.173 285.602 213.173 287.203C213.173 288.81 213.926 289.773 215.182 289.773C216.432 289.773 217.204 288.791 217.204 287.203C217.204 285.628 216.426 284.633 215.182 284.633Z" fill="#7F838C"/>
<path d="M93.2572 267.516V257.111H95.1828L98.7504 262.44L102.318 257.111H104.244V267.516H102.079V261.172L98.7504 266.098L95.4067 261.172V267.516H93.2572ZM105.678 263.754C105.678 263.227 105.772 262.724 105.961 262.246C106.15 261.769 106.414 261.351 106.752 260.992C107.091 260.634 107.489 260.356 107.947 260.157C108.404 259.958 108.892 259.858 109.409 259.858C109.678 259.858 109.972 259.893 110.29 259.963C110.609 260.032 110.892 260.162 111.141 260.351C111.4 260.53 111.569 260.739 111.648 260.978V259.992H113.873V267.516H111.648V266.53C111.539 266.849 111.275 267.118 110.857 267.336C110.449 267.545 109.967 267.65 109.409 267.65C108.892 267.65 108.404 267.55 107.947 267.351C107.489 267.152 107.091 266.874 106.752 266.516C106.414 266.157 106.15 265.739 105.961 265.262C105.772 264.784 105.678 264.281 105.678 263.754ZM107.902 263.754C107.902 264.281 108.086 264.729 108.454 265.097C108.822 265.456 109.275 265.635 109.812 265.635C110.061 265.635 110.34 265.575 110.648 265.456C110.957 265.326 111.221 265.107 111.44 264.799C111.668 264.48 111.783 264.132 111.783 263.754C111.783 263.376 111.668 263.033 111.44 262.724C111.221 262.406 110.957 262.187 110.648 262.067C110.34 261.938 110.061 261.873 109.812 261.873C109.275 261.873 108.822 262.057 108.454 262.425C108.086 262.784 107.902 263.227 107.902 263.754ZM116.455 259.35C116.116 259.35 115.818 259.226 115.559 258.977C115.31 258.729 115.186 258.435 115.186 258.097C115.186 257.748 115.31 257.45 115.559 257.201C115.818 256.952 116.116 256.828 116.455 256.828C116.803 256.828 117.102 256.952 117.35 257.201C117.599 257.45 117.723 257.748 117.723 258.097C117.723 258.256 117.679 258.435 117.589 258.634C117.51 258.833 117.36 259.002 117.141 259.142C116.932 259.281 116.703 259.35 116.455 259.35ZM115.35 267.516V259.992H117.574V267.516H115.35ZM119.067 267.516V259.992H121.291V260.933C121.451 260.604 121.729 260.341 122.127 260.142C122.525 259.933 122.978 259.828 123.486 259.828C124.401 259.828 125.108 260.107 125.605 260.664C126.113 261.211 126.367 261.973 126.367 262.948V267.516H124.142V263.217C124.142 262.898 124.073 262.625 123.933 262.396C123.804 262.167 123.63 262.012 123.411 261.933C123.192 261.843 122.978 261.799 122.769 261.799C122.351 261.799 121.998 261.943 121.709 262.231C121.431 262.51 121.291 262.863 121.291 263.291V267.516H119.067ZM133.819 267.516V257.111H136.044V260.978C136.093 260.828 136.203 260.664 136.372 260.485C136.541 260.306 136.8 260.157 137.148 260.037C137.496 259.918 137.875 259.858 138.283 259.858C138.8 259.858 139.288 259.958 139.746 260.157C140.203 260.356 140.601 260.634 140.94 260.992C141.278 261.351 141.542 261.769 141.731 262.246C141.92 262.724 142.014 263.227 142.014 263.754C142.014 264.281 141.92 264.784 141.731 265.262C141.542 265.739 141.278 266.157 140.94 266.516C140.601 266.874 140.203 267.152 139.746 267.351C139.288 267.55 138.8 267.65 138.283 267.65C137.725 267.65 137.238 267.545 136.82 267.336C136.412 267.118 136.153 266.849 136.044 266.53V267.516H133.819ZM135.909 263.754C135.909 264.132 136.019 264.48 136.238 264.799C136.467 265.107 136.735 265.326 137.044 265.456C137.352 265.575 137.631 265.635 137.88 265.635C138.417 265.635 138.87 265.456 139.238 265.097C139.606 264.729 139.79 264.281 139.79 263.754C139.79 263.227 139.606 262.784 139.238 262.425C138.87 262.057 138.417 261.873 137.88 261.873C137.631 261.873 137.352 261.938 137.044 262.067C136.735 262.187 136.467 262.406 136.238 262.724C136.019 263.033 135.909 263.376 135.909 263.754ZM142.835 263.754C142.835 263.227 142.93 262.724 143.119 262.246C143.308 261.769 143.571 261.351 143.91 260.992C144.248 260.634 144.646 260.356 145.104 260.157C145.562 259.958 146.049 259.858 146.567 259.858C146.836 259.858 147.129 259.893 147.448 259.963C147.766 260.032 148.05 260.162 148.298 260.351C148.557 260.53 148.726 260.739 148.806 260.978V259.992H151.03V267.516H148.806V266.53C148.696 266.849 148.433 267.118 148.015 267.336C147.607 267.545 147.124 267.65 146.567 267.65C146.049 267.65 145.562 267.55 145.104 267.351C144.646 267.152 144.248 266.874 143.91 266.516C143.571 266.157 143.308 265.739 143.119 265.262C142.93 264.784 142.835 264.281 142.835 263.754ZM145.059 263.754C145.059 264.281 145.243 264.729 145.612 265.097C145.98 265.456 146.433 265.635 146.97 265.635C147.219 265.635 147.497 265.575 147.806 265.456C148.114 265.326 148.378 265.107 148.597 264.799C148.826 264.48 148.94 264.132 148.94 263.754C148.94 263.376 148.826 263.033 148.597 262.724C148.378 262.406 148.114 262.187 147.806 262.067C147.497 261.938 147.219 261.873 146.97 261.873C146.433 261.873 145.98 262.057 145.612 262.425C145.243 262.784 145.059 263.227 145.059 263.754ZM153 267.516V262.008H152V259.992H153V257.111H155.165V259.992H156.821V262.008H155.165V267.516H153ZM157.784 267.516V257.111H160.009V260.903C160.158 260.584 160.422 260.326 160.8 260.127C161.188 259.928 161.626 259.828 162.113 259.828C162.999 259.828 163.686 260.107 164.173 260.664C164.661 261.211 164.905 261.973 164.905 262.948V267.516H162.681V263.217C162.681 262.779 162.566 262.435 162.337 262.187C162.118 261.928 161.805 261.799 161.397 261.799C160.999 261.799 160.665 261.943 160.397 262.231C160.138 262.51 160.009 262.863 160.009 263.291V267.516H157.784ZM166.356 267.516V259.992H168.58V261.022C168.749 260.644 169.028 260.351 169.416 260.142C169.804 259.933 170.252 259.828 170.759 259.828C170.909 259.828 171.103 259.843 171.342 259.873V261.963C171.113 261.913 170.864 261.888 170.595 261.888C169.968 261.888 169.476 262.062 169.117 262.411C168.759 262.759 168.58 263.237 168.58 263.844V267.516H166.356ZM171.756 263.754C171.756 263.217 171.861 262.704 172.07 262.216C172.289 261.729 172.587 261.301 172.965 260.933C173.354 260.565 173.801 260.281 174.309 260.082C174.826 259.873 175.369 259.768 175.936 259.768C176.493 259.768 177.026 259.873 177.533 260.082C178.051 260.281 178.503 260.565 178.892 260.933C179.28 261.301 179.578 261.729 179.787 262.216C180.006 262.704 180.116 263.217 180.116 263.754C180.116 264.291 180.006 264.804 179.787 265.291C179.578 265.779 179.28 266.207 178.892 266.575C178.503 266.943 178.051 267.232 177.533 267.441C177.026 267.64 176.493 267.74 175.936 267.74C175.369 267.74 174.826 267.64 174.309 267.441C173.801 267.232 173.354 266.943 172.965 266.575C172.587 266.207 172.289 265.779 172.07 265.291C171.861 264.804 171.756 264.291 171.756 263.754ZM173.98 263.754C173.98 264.152 174.09 264.515 174.309 264.844C174.528 265.172 174.787 265.401 175.085 265.53C175.394 265.66 175.677 265.724 175.936 265.724C176.185 265.724 176.463 265.66 176.772 265.53C177.08 265.401 177.344 265.172 177.563 264.844C177.782 264.515 177.891 264.152 177.891 263.754C177.891 263.505 177.827 263.227 177.697 262.918C177.568 262.61 177.339 262.346 177.011 262.127C176.682 261.898 176.324 261.784 175.936 261.784C175.389 261.784 174.926 261.978 174.548 262.366C174.17 262.744 173.98 263.207 173.98 263.754ZM180.955 263.754C180.955 263.217 181.059 262.704 181.268 262.216C181.487 261.729 181.786 261.301 182.164 260.933C182.552 260.565 183 260.281 183.507 260.082C184.025 259.873 184.567 259.768 185.134 259.768C185.691 259.768 186.224 259.873 186.731 260.082C187.249 260.281 187.702 260.565 188.09 260.933C188.478 261.301 188.776 261.729 188.985 262.216C189.204 262.704 189.314 263.217 189.314 263.754C189.314 264.291 189.204 264.804 188.985 265.291C188.776 265.779 188.478 266.207 188.09 266.575C187.702 266.943 187.249 267.232 186.731 267.441C186.224 267.64 185.691 267.74 185.134 267.74C184.567 267.74 184.025 267.64 183.507 267.441C183 267.232 182.552 266.943 182.164 266.575C181.786 266.207 181.487 265.779 181.268 265.291C181.059 264.804 180.955 264.291 180.955 263.754ZM183.179 263.754C183.179 264.152 183.288 264.515 183.507 264.844C183.726 265.172 183.985 265.401 184.283 265.53C184.592 265.66 184.875 265.724 185.134 265.724C185.383 265.724 185.662 265.66 185.97 265.53C186.279 265.401 186.542 265.172 186.761 264.844C186.98 264.515 187.09 264.152 187.09 263.754C187.09 263.505 187.025 263.227 186.896 262.918C186.766 262.61 186.537 262.346 186.209 262.127C185.881 261.898 185.522 261.784 185.134 261.784C184.587 261.784 184.124 261.978 183.746 262.366C183.368 262.744 183.179 263.207 183.179 263.754ZM190.481 267.516V259.992H192.705V260.933C192.845 260.604 193.093 260.341 193.452 260.142C193.81 259.933 194.213 259.828 194.661 259.828C195.158 259.828 195.581 259.933 195.93 260.142C196.278 260.341 196.537 260.634 196.706 261.022C197.124 260.226 197.96 259.828 199.214 259.828C200.059 259.828 200.716 260.107 201.184 260.664C201.652 261.211 201.886 261.973 201.886 262.948V267.516H199.661V263.217C199.661 262.898 199.607 262.625 199.497 262.396C199.388 262.167 199.243 262.012 199.064 261.933C198.885 261.843 198.711 261.799 198.542 261.799C198.184 261.799 197.885 261.943 197.646 262.231C197.407 262.51 197.288 262.863 197.288 263.291V267.516H195.064V263.217C195.064 262.898 195.009 262.625 194.9 262.396C194.79 262.167 194.646 262.012 194.467 261.933C194.288 261.843 194.114 261.799 193.944 261.799C193.775 261.799 193.591 261.848 193.392 261.948C193.203 262.037 193.039 262.207 192.899 262.455C192.77 262.694 192.705 262.973 192.705 263.291V267.516H190.481Z" fill="#202226"/>
<circle cx="66.1263" cy="272.908" r="9.32945" fill="#15AB3F" stroke="#15AB3F" stroke-width="2.79883"/>
<path d="M60.5234 272.62L64.4418 276.639L71.7188 269.176" stroke="white" stroke-width="1.86589"/>
<rect width="320" height="74.6356" transform="translate(40 310.539)" fill="white"/>
<rect x="270.148" y="335.941" width="74.9271" height="23.1953" rx="3.73178" fill="#D4F5DD"/>
<path d="M282.305 352.73C280.113 352.73 278.746 351.151 278.746 348.598C278.746 346.039 280.108 344.46 282.3 344.46C284.038 344.46 285.383 345.586 285.579 347.193H284.36C284.131 346.225 283.338 345.602 282.3 345.602C280.884 345.602 279.998 346.756 279.998 348.598C279.998 350.434 280.884 351.588 282.305 351.588C283.349 351.588 284.142 351.025 284.36 350.134H285.579C285.361 351.692 284.065 352.73 282.305 352.73ZM289.57 352.654C287.826 352.654 286.76 351.489 286.76 349.56C286.76 347.641 287.832 346.471 289.57 346.471C291.303 346.471 292.374 347.641 292.374 349.56C292.374 351.489 291.308 352.654 289.57 352.654ZM289.57 351.61C290.587 351.61 291.166 350.855 291.166 349.56C291.166 348.27 290.587 347.515 289.57 347.515C288.548 347.515 287.974 348.27 287.974 349.56C287.974 350.861 288.548 351.61 289.57 351.61ZM293.79 352.539V346.586H294.922V347.543H295.009C295.272 346.87 295.873 346.471 296.665 346.471C297.48 346.471 298.043 346.892 298.305 347.543H298.398C298.699 346.892 299.382 346.471 300.208 346.471C301.41 346.471 302.11 347.198 302.11 348.439V352.539H300.935V348.745C300.935 347.942 300.552 347.548 299.781 347.548C299.022 347.548 298.524 348.095 298.524 348.795V352.539H297.371V348.631C297.371 347.958 296.922 347.548 296.223 347.548C295.507 347.548 294.965 348.133 294.965 348.898V352.539H293.79ZM306.85 346.488C308.364 346.488 309.32 347.668 309.32 349.56C309.32 351.451 308.364 352.637 306.86 352.637C306.013 352.637 305.341 352.266 305.029 351.637H304.936V354.518H303.761V346.586H304.893V347.57H304.98C305.341 346.892 306.04 346.488 306.85 346.488ZM306.516 351.582C307.516 351.582 308.112 350.823 308.112 349.56C308.112 348.303 307.516 347.543 306.522 347.543C305.532 347.543 304.914 348.319 304.914 349.565C304.914 350.806 305.532 351.582 306.516 351.582ZM310.791 352.539V344.263H311.966V352.539H310.791ZM316.175 347.472C315.306 347.472 314.699 348.084 314.634 349.013H317.64C317.613 348.078 317.045 347.472 316.175 347.472ZM317.635 350.932H318.766C318.499 351.998 317.547 352.654 316.186 352.654C314.481 352.654 313.437 351.484 313.437 349.582C313.437 347.679 314.503 346.471 316.181 346.471C317.837 346.471 318.838 347.603 318.838 349.472V349.882H314.634V349.948C314.672 350.992 315.279 351.653 316.219 351.653C316.93 351.653 317.416 351.397 317.635 350.932ZM320.663 345.105H321.839V346.613H323.129V347.603H321.839V350.664C321.839 351.287 322.096 351.561 322.68 351.561C322.861 351.561 322.965 351.55 323.129 351.533V352.512C322.937 352.545 322.719 352.572 322.489 352.572C321.183 352.572 320.663 352.113 320.663 350.965V347.603H319.718V346.613H320.663V345.105ZM326.89 347.472C326.02 347.472 325.414 348.084 325.348 349.013H328.355C328.327 348.078 327.759 347.472 326.89 347.472ZM328.349 350.932H329.481C329.213 351.998 328.262 352.654 326.901 352.654C325.195 352.654 324.151 351.484 324.151 349.582C324.151 347.679 325.217 346.471 326.895 346.471C328.551 346.471 329.552 347.603 329.552 349.472V349.882H325.348V349.948C325.386 350.992 325.993 351.653 326.933 351.653C327.644 351.653 328.131 351.397 328.349 350.932ZM333.138 352.637C331.624 352.637 330.667 351.446 330.667 349.56C330.667 347.679 331.635 346.488 333.138 346.488C333.952 346.488 334.641 346.876 334.964 347.532H335.051V344.263H336.226V352.539H335.1V351.599H335.007C334.652 352.249 333.958 352.637 333.138 352.637ZM333.471 347.543C332.482 347.543 331.881 348.308 331.881 349.56C331.881 350.823 332.476 351.582 333.471 351.582C334.461 351.582 335.073 350.812 335.073 349.565C335.073 348.324 334.455 347.543 333.471 347.543Z" fill="#147C31"/>
<path d="M96.3047 365.49C94.5636 365.49 93.3136 364.412 93.2116 362.824H94.3404C94.4424 363.819 95.2333 364.483 96.3174 364.483C97.5483 364.483 98.371 363.641 98.371 362.378C98.371 361.115 97.5419 360.254 96.3366 360.254C95.5011 360.254 94.8123 360.631 94.4361 361.287H93.3583L93.8621 356.071H98.996V357.097H94.7613L94.4998 360.05H94.6019C95.0483 359.527 95.6988 359.266 96.547 359.266C98.2945 359.266 99.519 360.535 99.519 362.346C99.519 364.215 98.2116 365.49 96.3047 365.49ZM101.298 367.231H100.329L103.709 355.669H104.678L101.298 367.231ZM108.741 365.49C107 365.49 105.75 364.412 105.648 362.824H106.777C106.879 363.819 107.669 364.483 108.754 364.483C109.985 364.483 110.807 363.641 110.807 362.378C110.807 361.115 109.978 360.254 108.773 360.254C107.937 360.254 107.249 360.631 106.872 361.287H105.794L106.298 356.071H111.432V357.097H107.198L106.936 360.05H107.038C107.485 359.527 108.135 359.266 108.983 359.266C110.731 359.266 111.955 360.535 111.955 362.346C111.955 364.215 110.648 365.49 108.741 365.49ZM117.51 365.273V358.398H118.607V365.273H117.51ZM118.059 357.002C117.638 357.002 117.293 356.657 117.293 356.236C117.293 355.816 117.638 355.471 118.059 355.471C118.479 355.471 118.824 355.816 118.824 356.236C118.824 356.657 118.479 357.002 118.059 357.002ZM121.158 356.619H122.255V358.398H123.786V359.317H122.255V363.207C122.255 364.017 122.561 364.361 123.275 364.361C123.473 364.361 123.581 364.355 123.786 364.336V365.261C123.569 365.299 123.358 365.324 123.141 365.324C121.726 365.324 121.158 364.801 121.158 363.488V359.317H120.048V358.398H121.158V356.619ZM128.084 359.247C126.987 359.247 126.222 360.05 126.139 361.268H129.927C129.902 360.05 129.175 359.247 128.084 359.247ZM129.895 363.494H130.992C130.661 364.674 129.602 365.395 128.097 365.395C126.19 365.395 124.997 364.017 124.997 361.842C124.997 359.68 126.209 358.277 128.097 358.277C129.953 358.277 131.081 359.597 131.081 361.734V362.155H126.139V362.206C126.196 363.564 126.955 364.425 128.122 364.425C129.009 364.425 129.608 364.1 129.895 363.494ZM132.803 365.273V358.398H133.849V359.483H133.951C134.264 358.717 134.953 358.277 135.871 358.277C136.802 358.277 137.453 358.768 137.772 359.483H137.874C138.243 358.756 139.028 358.277 139.978 358.277C141.381 358.277 142.166 359.081 142.166 360.522V365.273H141.069V360.777C141.069 359.763 140.59 359.266 139.621 359.266C138.664 359.266 138.027 359.98 138.027 360.854V365.273H136.93V360.605C136.93 359.789 136.362 359.266 135.495 359.266C134.596 359.266 133.9 360.044 133.9 361.013V365.273H132.803ZM144.009 360.28C144.009 359.138 145.112 358.277 146.573 358.277C148.014 358.277 149.015 358.992 149.162 360.12H148.078C147.931 359.572 147.395 359.208 146.566 359.208C145.75 359.208 145.112 359.623 145.112 360.235C145.112 360.707 145.495 361 146.305 361.198L147.363 361.453C148.658 361.766 149.283 362.327 149.283 363.316C149.283 364.546 148.09 365.395 146.528 365.395C144.997 365.395 143.945 364.661 143.824 363.52H144.953C145.138 364.1 145.686 364.47 146.566 364.47C147.491 364.47 148.154 364.03 148.154 363.398C148.154 362.926 147.797 362.608 147.064 362.429L145.884 362.142C144.596 361.83 144.009 361.275 144.009 360.28ZM160.38 360.503H159.27C159.092 359.821 158.486 359.266 157.497 359.266C156.26 359.266 155.482 360.254 155.482 361.81C155.482 363.398 156.273 364.406 157.497 364.406C158.422 364.406 159.066 363.979 159.27 363.201H160.38C160.182 364.463 159.155 365.395 157.504 365.395C155.578 365.395 154.347 363.998 154.347 361.81C154.347 359.668 155.571 358.277 157.497 358.277C159.168 358.277 160.189 359.279 160.38 360.503ZM164.825 365.395C162.867 365.395 161.655 364.043 161.655 361.836C161.655 359.623 162.867 358.277 164.825 358.277C166.783 358.277 167.995 359.623 167.995 361.836C167.995 364.043 166.783 365.395 164.825 365.395ZM164.825 364.406C166.126 364.406 166.86 363.462 166.86 361.836C166.86 360.203 166.126 359.266 164.825 359.266C163.524 359.266 162.791 360.203 162.791 361.836C162.791 363.462 163.524 364.406 164.825 364.406ZM169.717 365.273V358.398H170.763V359.483H170.865C171.177 358.717 171.866 358.277 172.784 358.277C173.715 358.277 174.366 358.768 174.685 359.483H174.787C175.157 358.756 175.941 358.277 176.891 358.277C178.294 358.277 179.079 359.081 179.079 360.522V365.273H177.982V360.777C177.982 359.763 177.504 359.266 176.534 359.266C175.578 359.266 174.94 359.98 174.94 360.854V365.273H173.843V360.605C173.843 359.789 173.275 359.266 172.408 359.266C171.509 359.266 170.814 360.044 170.814 361.013V365.273H169.717ZM184.43 358.277C186.184 358.277 187.319 359.674 187.319 361.836C187.319 363.985 186.177 365.395 184.43 365.395C183.448 365.395 182.657 364.967 182.28 364.24H182.178V367.569H181.081V358.398H182.127V359.546H182.229C182.669 358.756 183.492 358.277 184.43 358.277ZM184.168 364.406C185.431 364.406 186.184 363.443 186.184 361.836C186.184 360.229 185.431 359.266 184.175 359.266C182.931 359.266 182.147 360.254 182.147 361.836C182.147 363.411 182.931 364.406 184.168 364.406ZM189.104 365.273V355.669H190.201V365.273H189.104ZM195.074 359.247C193.977 359.247 193.212 360.05 193.129 361.268H196.917C196.891 360.05 196.164 359.247 195.074 359.247ZM196.885 363.494H197.982C197.65 364.674 196.592 365.395 195.087 365.395C193.18 365.395 191.987 364.017 191.987 361.842C191.987 359.68 193.199 358.277 195.087 358.277C196.942 358.277 198.071 359.597 198.071 361.734V362.155H193.129V362.206C193.186 363.564 193.945 364.425 195.112 364.425C195.999 364.425 196.598 364.1 196.885 363.494ZM200.252 356.619H201.349V358.398H202.88V359.317H201.349V363.207C201.349 364.017 201.655 364.361 202.37 364.361C202.567 364.361 202.676 364.355 202.88 364.336V365.261C202.663 365.299 202.453 365.324 202.236 365.324C200.82 365.324 200.252 364.801 200.252 363.488V359.317H199.143V358.398H200.252V356.619ZM207.178 359.247C206.081 359.247 205.316 360.05 205.233 361.268H209.022C208.996 360.05 208.269 359.247 207.178 359.247ZM208.99 363.494H210.087C209.755 364.674 208.696 365.395 207.191 365.395C205.284 365.395 204.092 364.017 204.092 361.842C204.092 359.68 205.303 358.277 207.191 358.277C209.047 358.277 210.176 359.597 210.176 361.734V362.155H205.233V362.206C205.291 363.564 206.05 364.425 207.217 364.425C208.103 364.425 208.703 364.1 208.99 363.494ZM214.442 365.395C212.682 365.395 211.553 363.998 211.553 361.836C211.553 359.68 212.695 358.277 214.442 358.277C215.399 358.277 216.209 358.73 216.598 359.483H216.694V355.669H217.791V365.273H216.745V364.176H216.643C216.209 364.942 215.393 365.395 214.442 365.395ZM214.698 359.266C213.448 359.266 212.689 360.235 212.689 361.836C212.689 363.443 213.441 364.406 214.698 364.406C215.948 364.406 216.719 363.424 216.719 361.836C216.719 360.261 215.941 359.266 214.698 359.266Z" fill="#7F838C"/>
<path d="M93.2572 342.148V331.744H97.6458C98.0439 331.744 98.4519 331.824 98.8698 331.983C99.2878 332.142 99.6659 332.371 100.004 332.67C100.353 332.968 100.631 333.341 100.84 333.789C101.049 334.237 101.154 334.73 101.154 335.267C101.154 335.645 101.084 336.038 100.945 336.446C100.815 336.844 100.576 337.237 100.228 337.626C99.8799 338.014 99.4669 338.307 98.9892 338.506C98.5116 338.695 98.0638 338.79 97.6458 338.79H95.556V342.148H93.2572ZM95.556 336.7H97.5115C97.7204 336.7 97.9294 336.645 98.1384 336.536C98.3474 336.426 98.5166 336.272 98.6459 336.073C98.7852 335.864 98.8549 335.595 98.8549 335.267C98.8549 334.998 98.8002 334.755 98.6907 334.536C98.5812 334.307 98.4071 334.133 98.1683 334.013C97.9394 333.894 97.7204 333.834 97.5115 333.834H95.556V336.7ZM101.552 338.387C101.552 337.849 101.657 337.337 101.866 336.849C102.085 336.362 102.383 335.934 102.761 335.566C103.149 335.197 103.597 334.914 104.105 334.715C104.622 334.506 105.165 334.401 105.732 334.401C106.289 334.401 106.822 334.506 107.329 334.715C107.847 334.914 108.299 335.197 108.687 335.566C109.076 335.934 109.374 336.362 109.583 336.849C109.802 337.337 109.911 337.849 109.911 338.387C109.911 338.924 109.802 339.437 109.583 339.924C109.374 340.412 109.076 340.84 108.687 341.208C108.299 341.576 107.847 341.865 107.329 342.074C106.822 342.273 106.289 342.372 105.732 342.372C105.165 342.372 104.622 342.273 104.105 342.074C103.597 341.865 103.149 341.576 102.761 341.208C102.383 340.84 102.085 340.412 101.866 339.924C101.657 339.437 101.552 338.924 101.552 338.387ZM103.776 338.387C103.776 338.785 103.886 339.148 104.105 339.476C104.324 339.805 104.582 340.034 104.881 340.163C105.19 340.292 105.473 340.357 105.732 340.357C105.981 340.357 106.259 340.292 106.568 340.163C106.876 340.034 107.14 339.805 107.359 339.476C107.578 339.148 107.687 338.785 107.687 338.387C107.687 338.138 107.623 337.859 107.493 337.551C107.364 337.242 107.135 336.979 106.807 336.76C106.478 336.531 106.12 336.416 105.732 336.416C105.185 336.416 104.722 336.61 104.344 336.999C103.965 337.377 103.776 337.839 103.776 338.387ZM112.255 342.148L109.882 334.625H111.942L113.27 338.82L114.554 334.625H116.285L117.584 338.82L118.913 334.625H120.973L118.584 342.148H116.748L115.42 337.849L114.106 342.148H112.255ZM120.955 338.387C120.955 337.859 121.049 337.357 121.238 336.879C121.427 336.401 121.691 335.984 122.029 335.625C122.368 335.267 122.766 334.988 123.224 334.789C123.681 334.59 124.169 334.491 124.686 334.491C124.955 334.491 125.249 334.526 125.567 334.595C125.886 334.665 126.169 334.794 126.418 334.983C126.677 335.163 126.846 335.372 126.925 335.61V331.744H129.15V342.148H126.925V341.163C126.816 341.482 126.552 341.75 126.134 341.969C125.726 342.178 125.244 342.283 124.686 342.283C124.169 342.283 123.681 342.183 123.224 341.984C122.766 341.785 122.368 341.507 122.029 341.148C121.691 340.79 121.427 340.372 121.238 339.894C121.049 339.417 120.955 338.914 120.955 338.387ZM123.179 338.387C123.179 338.914 123.363 339.362 123.731 339.73C124.099 340.088 124.552 340.268 125.089 340.268C125.338 340.268 125.617 340.208 125.925 340.088C126.234 339.959 126.498 339.74 126.716 339.432C126.945 339.113 127.06 338.765 127.06 338.387C127.06 338.009 126.945 337.665 126.716 337.357C126.498 337.038 126.234 336.819 125.925 336.7C125.617 336.571 125.338 336.506 125.089 336.506C124.552 336.506 124.099 336.69 123.731 337.058C123.363 337.417 123.179 337.859 123.179 338.387ZM130.299 338.432V338.372C130.299 337.795 130.398 337.262 130.597 336.775C130.806 336.277 131.095 335.854 131.463 335.506C131.831 335.158 132.264 334.894 132.762 334.715C133.259 334.526 133.797 334.431 134.374 334.431C134.931 334.431 135.448 334.531 135.926 334.73C136.414 334.919 136.827 335.192 137.165 335.551C137.513 335.899 137.777 336.307 137.956 336.775C138.145 337.242 138.24 337.735 138.24 338.252L138.21 338.969H132.523C132.543 339.297 132.657 339.581 132.866 339.82C133.075 340.059 133.334 340.223 133.642 340.312C133.961 340.402 134.254 340.447 134.523 340.447C134.802 340.447 135.095 340.402 135.404 340.312C135.712 340.223 136.031 340.024 136.359 339.715L137.658 340.954C136.772 341.87 135.692 342.328 134.419 342.328C133.821 342.328 133.264 342.238 132.747 342.059C132.239 341.87 131.801 341.606 131.433 341.268C131.075 340.919 130.796 340.506 130.597 340.029C130.398 339.541 130.299 339.009 130.299 338.432ZM132.553 337.521H136.001C136.001 337.362 135.946 337.188 135.837 336.999C135.727 336.8 135.533 336.63 135.254 336.491C134.986 336.342 134.692 336.267 134.374 336.267C133.896 336.267 133.478 336.392 133.12 336.64C132.772 336.879 132.582 337.173 132.553 337.521ZM139.344 342.148V334.625H141.568V335.655C141.738 335.277 142.016 334.983 142.404 334.774C142.792 334.565 143.24 334.461 143.748 334.461C143.897 334.461 144.091 334.476 144.33 334.506V336.596C144.101 336.546 143.852 336.521 143.584 336.521C142.957 336.521 142.464 336.695 142.106 337.043C141.747 337.392 141.568 337.869 141.568 338.476V342.148H139.344ZM150.671 342.148V334.625H152.895V335.655C153.064 335.277 153.343 334.983 153.731 334.774C154.119 334.565 154.567 334.461 155.074 334.461C155.224 334.461 155.418 334.476 155.656 334.506V336.596C155.428 336.546 155.179 336.521 154.91 336.521C154.283 336.521 153.791 336.695 153.432 337.043C153.074 337.392 152.895 337.869 152.895 338.476V342.148H150.671ZM156.071 338.387C156.071 337.849 156.176 337.337 156.385 336.849C156.604 336.362 156.902 335.934 157.28 335.566C157.668 335.197 158.116 334.914 158.624 334.715C159.141 334.506 159.684 334.401 160.251 334.401C160.808 334.401 161.34 334.506 161.848 334.715C162.365 334.914 162.818 335.197 163.206 335.566C163.594 335.934 163.893 336.362 164.102 336.849C164.321 337.337 164.43 337.849 164.43 338.387C164.43 338.924 164.321 339.437 164.102 339.924C163.893 340.412 163.594 340.84 163.206 341.208C162.818 341.576 162.365 341.865 161.848 342.074C161.34 342.273 160.808 342.372 160.251 342.372C159.684 342.372 159.141 342.273 158.624 342.074C158.116 341.865 157.668 341.576 157.28 341.208C156.902 340.84 156.604 340.412 156.385 339.924C156.176 339.437 156.071 338.924 156.071 338.387ZM158.295 338.387C158.295 338.785 158.405 339.148 158.624 339.476C158.843 339.805 159.101 340.034 159.4 340.163C159.708 340.292 159.992 340.357 160.251 340.357C160.5 340.357 160.778 340.292 161.087 340.163C161.395 340.034 161.659 339.805 161.878 339.476C162.097 339.148 162.206 338.785 162.206 338.387C162.206 338.138 162.142 337.859 162.012 337.551C161.883 337.242 161.654 336.979 161.326 336.76C160.997 336.531 160.639 336.416 160.251 336.416C159.703 336.416 159.241 336.61 158.863 336.999C158.484 337.377 158.295 337.839 158.295 338.387ZM165.269 338.387C165.269 337.849 165.374 337.337 165.583 336.849C165.802 336.362 166.1 335.934 166.479 335.566C166.867 335.197 167.314 334.914 167.822 334.715C168.339 334.506 168.882 334.401 169.449 334.401C170.006 334.401 170.539 334.506 171.046 334.715C171.564 334.914 172.017 335.197 172.405 335.566C172.793 335.934 173.091 336.362 173.3 336.849C173.519 337.337 173.629 337.849 173.629 338.387C173.629 338.924 173.519 339.437 173.3 339.924C173.091 340.412 172.793 340.84 172.405 341.208C172.017 341.576 171.564 341.865 171.046 342.074C170.539 342.273 170.006 342.372 169.449 342.372C168.882 342.372 168.339 342.273 167.822 342.074C167.314 341.865 166.867 341.576 166.479 341.208C166.1 340.84 165.802 340.412 165.583 339.924C165.374 339.437 165.269 338.924 165.269 338.387ZM167.494 338.387C167.494 338.785 167.603 339.148 167.822 339.476C168.041 339.805 168.3 340.034 168.598 340.163C168.907 340.292 169.19 340.357 169.449 340.357C169.698 340.357 169.976 340.292 170.285 340.163C170.593 340.034 170.857 339.805 171.076 339.476C171.295 339.148 171.405 338.785 171.405 338.387C171.405 338.138 171.34 337.859 171.21 337.551C171.081 337.242 170.852 336.979 170.524 336.76C170.195 336.531 169.837 336.416 169.449 336.416C168.902 336.416 168.439 336.61 168.061 336.999C167.683 337.377 167.494 337.839 167.494 338.387ZM174.796 342.148V334.625H177.02V335.566C177.16 335.237 177.408 334.973 177.767 334.774C178.125 334.565 178.528 334.461 178.976 334.461C179.473 334.461 179.896 334.565 180.245 334.774C180.593 334.973 180.852 335.267 181.021 335.655C181.439 334.859 182.275 334.461 183.528 334.461C184.374 334.461 185.031 334.74 185.499 335.297C185.967 335.844 186.2 336.606 186.2 337.581V342.148H183.976V337.849C183.976 337.531 183.922 337.257 183.812 337.028C183.703 336.8 183.558 336.645 183.379 336.566C183.2 336.476 183.026 336.431 182.857 336.431C182.499 336.431 182.2 336.576 181.961 336.864C181.722 337.143 181.603 337.496 181.603 337.924V342.148H179.379V337.849C179.379 337.531 179.324 337.257 179.215 337.028C179.105 336.8 178.961 336.645 178.782 336.566C178.603 336.476 178.428 336.431 178.259 336.431C178.09 336.431 177.906 336.481 177.707 336.581C177.518 336.67 177.354 336.839 177.214 337.088C177.085 337.327 177.02 337.606 177.02 337.924V342.148H174.796Z" fill="#202226"/>
<circle cx="66.1263" cy="347.54" r="9.32945" fill="#15AB3F" stroke="#15AB3F" stroke-width="2.79883"/>
<path d="M60.5234 347.253L64.4418 351.272L71.7188 343.809" stroke="white" stroke-width="1.86589"/>
<rect width="320" height="74.6356" transform="translate(40 385.176)" fill="white"/>
<rect x="270.148" y="410.578" width="74.9271" height="23.1953" rx="3.73178" fill="#D4F5DD"/>
<path d="M282.305 427.367C280.113 427.367 278.746 425.787 278.746 423.234C278.746 420.676 280.108 419.096 282.3 419.096C284.038 419.096 285.383 420.222 285.579 421.83H284.36C284.131 420.862 283.338 420.239 282.3 420.239C280.884 420.239 279.998 421.392 279.998 423.234C279.998 425.071 280.884 426.225 282.305 426.225C283.349 426.225 284.142 425.662 284.36 424.771H285.579C285.361 426.328 284.065 427.367 282.305 427.367ZM289.57 427.291C287.826 427.291 286.76 426.126 286.76 424.197C286.76 422.278 287.832 421.108 289.57 421.108C291.303 421.108 292.374 422.278 292.374 424.197C292.374 426.126 291.308 427.291 289.57 427.291ZM289.57 426.246C290.587 426.246 291.166 425.492 291.166 424.197C291.166 422.906 290.587 422.152 289.57 422.152C288.548 422.152 287.974 422.906 287.974 424.197C287.974 425.498 288.548 426.246 289.57 426.246ZM293.79 427.176V421.223H294.922V422.179H295.009C295.272 421.507 295.873 421.108 296.665 421.108C297.48 421.108 298.043 421.529 298.305 422.179H298.398C298.699 421.529 299.382 421.108 300.208 421.108C301.41 421.108 302.11 421.835 302.11 423.076V427.176H300.935V423.382C300.935 422.578 300.552 422.185 299.781 422.185C299.022 422.185 298.524 422.732 298.524 423.431V427.176H297.371V423.267C297.371 422.595 296.922 422.185 296.223 422.185C295.507 422.185 294.965 422.77 294.965 423.535V427.176H293.79ZM306.85 421.124C308.364 421.124 309.32 422.305 309.32 424.197C309.32 426.088 308.364 427.274 306.86 427.274C306.013 427.274 305.341 426.902 305.029 426.274H304.936V429.155H303.761V421.223H304.893V422.207H304.98C305.341 421.529 306.04 421.124 306.85 421.124ZM306.516 426.219C307.516 426.219 308.112 425.459 308.112 424.197C308.112 422.939 307.516 422.179 306.522 422.179C305.532 422.179 304.914 422.956 304.914 424.202C304.914 425.443 305.532 426.219 306.516 426.219ZM310.791 427.176V418.9H311.966V427.176H310.791ZM316.175 422.108C315.306 422.108 314.699 422.721 314.634 423.65H317.64C317.613 422.715 317.045 422.108 316.175 422.108ZM317.635 425.569H318.766C318.499 426.635 317.547 427.291 316.186 427.291C314.481 427.291 313.437 426.121 313.437 424.218C313.437 422.316 314.503 421.108 316.181 421.108C317.837 421.108 318.838 422.24 318.838 424.109V424.519H314.634V424.585C314.672 425.629 315.279 426.29 316.219 426.29C316.93 426.29 317.416 426.033 317.635 425.569ZM320.663 419.741H321.839V421.25H323.129V422.24H321.839V425.301C321.839 425.924 322.096 426.197 322.68 426.197C322.861 426.197 322.965 426.186 323.129 426.17V427.148C322.937 427.181 322.719 427.209 322.489 427.209C321.183 427.209 320.663 426.749 320.663 425.601V422.24H319.718V421.25H320.663V419.741ZM326.89 422.108C326.02 422.108 325.414 422.721 325.348 423.65H328.355C328.327 422.715 327.759 422.108 326.89 422.108ZM328.349 425.569H329.481C329.213 426.635 328.262 427.291 326.901 427.291C325.195 427.291 324.151 426.121 324.151 424.218C324.151 422.316 325.217 421.108 326.895 421.108C328.551 421.108 329.552 422.24 329.552 424.109V424.519H325.348V424.585C325.386 425.629 325.993 426.29 326.933 426.29C327.644 426.29 328.131 426.033 328.349 425.569ZM333.138 427.274C331.624 427.274 330.667 426.082 330.667 424.197C330.667 422.316 331.635 421.124 333.138 421.124C333.952 421.124 334.641 421.513 334.964 422.168H335.051V418.9H336.226V427.176H335.1V426.236H335.007C334.652 426.886 333.958 427.274 333.138 427.274ZM333.471 422.179C332.482 422.179 331.881 422.945 331.881 424.197C331.881 425.459 332.476 426.219 333.471 426.219C334.461 426.219 335.073 425.448 335.073 424.202C335.073 422.961 334.455 422.179 333.471 422.179Z" fill="#147C31"/>
<path d="M93.2116 433.297C93.2116 431.664 94.4488 430.491 96.158 430.491C97.8098 430.491 99.0725 431.613 99.0725 433.073C99.0725 434.03 98.6389 434.776 97.1274 436.396L94.9144 438.775V438.877H99.2256V439.91H93.269V439.119L96.4514 435.644C97.6376 434.355 97.9246 433.858 97.9246 433.118C97.9246 432.2 97.1401 431.492 96.1261 431.492C95.0483 431.492 94.3213 432.212 94.3213 433.297V433.303H93.2116V433.297ZM101.107 441.868H100.138L103.518 430.306H104.487L101.107 441.868ZM105.456 433.297C105.456 431.664 106.694 430.491 108.403 430.491C110.055 430.491 111.317 431.613 111.317 433.073C111.317 434.03 110.884 434.776 109.372 436.396L107.159 438.775V438.877H111.471V439.91H105.514V439.119L108.696 435.644C109.882 434.355 110.169 433.858 110.169 433.118C110.169 432.2 109.385 431.492 108.371 431.492C107.293 431.492 106.566 432.212 106.566 433.297V433.303H105.456V433.297ZM117.127 439.91V433.035H118.224V439.91H117.127ZM117.676 431.638C117.255 431.638 116.911 431.294 116.911 430.873C116.911 430.452 117.255 430.108 117.676 430.108C118.097 430.108 118.441 430.452 118.441 430.873C118.441 431.294 118.097 431.638 117.676 431.638ZM120.775 431.256H121.872V433.035H123.403V433.954H121.872V437.844C121.872 438.654 122.178 438.998 122.893 438.998C123.09 438.998 123.199 438.992 123.403 438.973V439.897C123.186 439.936 122.976 439.961 122.759 439.961C121.343 439.961 120.775 439.438 120.775 438.124V433.954H119.666V433.035H120.775V431.256ZM127.701 433.883C126.604 433.883 125.839 434.687 125.756 435.905H129.544C129.519 434.687 128.792 433.883 127.701 433.883ZM129.513 438.131H130.61C130.278 439.311 129.219 440.031 127.714 440.031C125.807 440.031 124.615 438.654 124.615 436.479C124.615 434.317 125.826 432.914 127.714 432.914C129.57 432.914 130.699 434.234 130.699 436.371V436.792H125.756V436.843C125.814 438.201 126.573 439.062 127.74 439.062C128.626 439.062 129.226 438.737 129.513 438.131ZM132.421 439.91V433.035H133.467V434.119H133.569C133.881 433.354 134.57 432.914 135.488 432.914C136.419 432.914 137.07 433.405 137.389 434.119H137.491C137.861 433.392 138.645 432.914 139.596 432.914C140.999 432.914 141.783 433.718 141.783 435.159V439.91H140.686V435.414C140.686 434.4 140.208 433.903 139.238 433.903C138.282 433.903 137.644 434.617 137.644 435.491V439.91H136.547V435.242C136.547 434.425 135.979 433.903 135.112 433.903C134.213 433.903 133.518 434.681 133.518 435.65V439.91H132.421ZM143.626 434.917C143.626 433.775 144.729 432.914 146.19 432.914C147.631 432.914 148.632 433.628 148.779 434.757H147.695C147.548 434.209 147.013 433.845 146.184 433.845C145.367 433.845 144.729 434.26 144.729 434.872C144.729 435.344 145.112 435.637 145.922 435.835L146.981 436.09C148.275 436.403 148.9 436.964 148.9 437.952C148.9 439.183 147.708 440.031 146.145 440.031C144.615 440.031 143.562 439.298 143.441 438.156H144.57C144.755 438.737 145.303 439.107 146.184 439.107C147.108 439.107 147.772 438.667 147.772 438.035C147.772 437.563 147.414 437.244 146.681 437.066L145.501 436.779C144.213 436.466 143.626 435.911 143.626 434.917ZM159.997 435.14H158.888C158.709 434.457 158.103 433.903 157.115 433.903C155.877 433.903 155.099 434.891 155.099 436.447C155.099 438.035 155.89 439.043 157.115 439.043C158.039 439.043 158.684 438.616 158.888 437.837H159.997C159.8 439.1 158.773 440.031 157.121 440.031C155.195 440.031 153.964 438.635 153.964 436.447C153.964 434.304 155.189 432.914 157.115 432.914C158.786 432.914 159.806 433.915 159.997 435.14ZM164.442 440.031C162.485 440.031 161.273 438.679 161.273 436.473C161.273 434.26 162.485 432.914 164.442 432.914C166.4 432.914 167.612 434.26 167.612 436.473C167.612 438.679 166.4 440.031 164.442 440.031ZM164.442 439.043C165.743 439.043 166.477 438.099 166.477 436.473C166.477 434.84 165.743 433.903 164.442 433.903C163.141 433.903 162.408 434.84 162.408 436.473C162.408 438.099 163.141 439.043 164.442 439.043ZM169.334 439.91V433.035H170.38V434.119H170.482C170.794 433.354 171.483 432.914 172.402 432.914C173.333 432.914 173.983 433.405 174.302 434.119H174.404C174.774 433.392 175.559 432.914 176.509 432.914C177.912 432.914 178.696 433.718 178.696 435.159V439.91H177.599V435.414C177.599 434.4 177.121 433.903 176.152 433.903C175.195 433.903 174.557 434.617 174.557 435.491V439.91H173.46V435.242C173.46 434.425 172.893 433.903 172.025 433.903C171.126 433.903 170.431 434.681 170.431 435.65V439.91H169.334ZM184.047 432.914C185.801 432.914 186.936 434.311 186.936 436.473C186.936 438.622 185.794 440.031 184.047 440.031C183.065 440.031 182.274 439.604 181.898 438.877H181.796V442.206H180.699V433.035H181.745V434.183H181.847C182.287 433.392 183.11 432.914 184.047 432.914ZM183.786 439.043C185.048 439.043 185.801 438.08 185.801 436.473C185.801 434.866 185.048 433.903 183.792 433.903C182.548 433.903 181.764 434.891 181.764 436.473C181.764 438.048 182.548 439.043 183.786 439.043ZM188.722 439.91V430.306H189.819V439.91H188.722ZM194.691 433.883C193.594 433.883 192.829 434.687 192.746 435.905H196.534C196.509 434.687 195.782 433.883 194.691 433.883ZM196.502 438.131H197.599C197.268 439.311 196.209 440.031 194.704 440.031C192.797 440.031 191.604 438.654 191.604 436.479C191.604 434.317 192.816 432.914 194.704 432.914C196.56 432.914 197.689 434.234 197.689 436.371V436.792H192.746V436.843C192.803 438.201 193.562 439.062 194.729 439.062C195.616 439.062 196.215 438.737 196.502 438.131ZM199.87 431.256H200.967V433.035H202.497V433.954H200.967V437.844C200.967 438.654 201.273 438.998 201.987 438.998C202.185 438.998 202.293 438.992 202.497 438.973V439.897C202.28 439.936 202.07 439.961 201.853 439.961C200.437 439.961 199.87 439.438 199.87 438.124V433.954H198.76V433.035H199.87V431.256ZM206.796 433.883C205.699 433.883 204.934 434.687 204.851 435.905H208.639C208.613 434.687 207.886 433.883 206.796 433.883ZM208.607 438.131H209.704C209.372 439.311 208.314 440.031 206.809 440.031C204.902 440.031 203.709 438.654 203.709 436.479C203.709 434.317 204.921 432.914 206.809 432.914C208.664 432.914 209.793 434.234 209.793 436.371V436.792H204.851V436.843C204.908 438.201 205.667 439.062 206.834 439.062C207.721 439.062 208.32 438.737 208.607 438.131ZM214.06 440.031C212.3 440.031 211.171 438.635 211.171 436.473C211.171 434.317 212.312 432.914 214.06 432.914C215.016 432.914 215.826 433.367 216.215 434.119H216.311V430.306H217.408V439.91H216.362V438.813H216.26C215.826 439.579 215.01 440.031 214.06 440.031ZM214.315 433.903C213.065 433.903 212.306 434.872 212.306 436.473C212.306 438.08 213.059 439.043 214.315 439.043C215.565 439.043 216.337 438.061 216.337 436.473C216.337 434.897 215.559 433.903 214.315 433.903Z" fill="#7F838C"/>
<path d="M92.7646 411.605C92.7646 410.879 92.9089 410.187 93.1975 409.531C93.4861 408.864 93.8842 408.282 94.3917 407.784C94.8992 407.287 95.4913 406.903 96.168 406.635C96.8547 406.356 97.5712 406.217 98.3175 406.217C99.0639 406.217 99.7754 406.356 100.452 406.635C101.139 406.903 101.736 407.287 102.243 407.784C102.761 408.282 103.159 408.864 103.438 409.531C103.726 410.187 103.87 410.879 103.87 411.605C103.87 412.342 103.726 413.043 103.438 413.71C103.159 414.367 102.761 414.944 102.243 415.442C101.736 415.929 101.139 416.312 100.452 416.591C99.7754 416.86 99.0639 416.994 98.3175 416.994C97.5712 416.994 96.8547 416.86 96.168 416.591C95.4913 416.312 94.8992 415.929 94.3917 415.442C93.8842 414.944 93.4861 414.367 93.1975 413.71C92.9089 413.043 92.7646 412.342 92.7646 411.605ZM95.0634 411.605C95.0634 411.944 95.1181 412.297 95.2276 412.665C95.3371 413.033 95.5411 413.407 95.8396 413.785C96.1481 414.153 96.5263 414.432 96.9741 414.621C97.4219 414.81 97.8697 414.904 98.3175 414.904C98.6459 414.904 98.9892 414.85 99.3475 414.74C99.7157 414.621 100.084 414.407 100.452 414.098C100.82 413.79 101.099 413.412 101.288 412.964C101.477 412.506 101.572 412.053 101.572 411.605C101.572 411.168 101.487 410.75 101.318 410.352C101.159 409.944 100.93 409.59 100.631 409.292C100.333 408.983 99.9844 408.744 99.5863 408.575C99.1883 408.396 98.7653 408.307 98.3175 408.307C97.8697 408.307 97.4468 408.391 97.0487 408.56C96.6507 408.729 96.3024 408.968 96.0038 409.277C95.7053 409.575 95.4714 409.929 95.3022 410.337C95.143 410.745 95.0634 411.168 95.0634 411.605ZM105.639 416.785V411.277H104.638V409.262H105.639V406.381H107.803V409.262H109.46V411.277H107.803V416.785H105.639ZM110.423 416.785V406.381H112.647V410.172C112.796 409.854 113.06 409.595 113.438 409.396C113.826 409.197 114.264 409.098 114.752 409.098C115.637 409.098 116.324 409.376 116.812 409.934C117.299 410.481 117.543 411.242 117.543 412.217V416.785H115.319V412.486C115.319 412.048 115.205 411.705 114.976 411.456C114.757 411.197 114.443 411.068 114.035 411.068C113.637 411.068 113.304 411.212 113.035 411.501C112.776 411.78 112.647 412.133 112.647 412.561V416.785H110.423ZM118.666 413.068V413.009C118.666 412.431 118.765 411.899 118.965 411.411C119.173 410.914 119.462 410.491 119.83 410.143C120.198 409.794 120.631 409.531 121.129 409.351C121.627 409.162 122.164 409.068 122.741 409.068C123.298 409.068 123.816 409.167 124.293 409.366C124.781 409.555 125.194 409.829 125.532 410.187C125.881 410.536 126.144 410.944 126.324 411.411C126.513 411.879 126.607 412.372 126.607 412.889L126.577 413.606H120.89C120.91 413.934 121.024 414.218 121.233 414.457C121.442 414.695 121.701 414.86 122.01 414.949C122.328 415.039 122.622 415.083 122.89 415.083C123.169 415.083 123.463 415.039 123.771 414.949C124.08 414.86 124.398 414.661 124.726 414.352L126.025 415.591C125.139 416.507 124.06 416.964 122.786 416.964C122.189 416.964 121.631 416.875 121.114 416.696C120.607 416.507 120.169 416.243 119.8 415.904C119.442 415.556 119.164 415.143 118.965 414.666C118.765 414.178 118.666 413.645 118.666 413.068ZM120.92 412.158H124.368C124.368 411.999 124.313 411.824 124.204 411.635C124.094 411.436 123.9 411.267 123.622 411.128C123.353 410.979 123.06 410.904 122.741 410.904C122.263 410.904 121.845 411.028 121.487 411.277C121.139 411.516 120.95 411.809 120.92 412.158ZM127.712 416.785V409.262H129.936V410.292C130.105 409.914 130.384 409.62 130.772 409.411C131.16 409.202 131.608 409.098 132.115 409.098C132.264 409.098 132.458 409.113 132.697 409.142V411.232C132.468 411.183 132.22 411.158 131.951 411.158C131.324 411.158 130.831 411.332 130.473 411.68C130.115 412.028 129.936 412.506 129.936 413.113V416.785H127.712Z" fill="#202226"/>
<circle cx="66.1263" cy="422.177" r="9.32945" fill="#15AB3F" stroke="#15AB3F" stroke-width="2.79883"/>
<path d="M60.5234 421.89L64.4418 425.909L71.7188 418.445" stroke="white" stroke-width="1.86589"/>
<path d="M55.7746 143.281V142.45L58.3931 139.701C59.4372 138.613 59.7378 138.208 59.7378 137.569V137.552C59.7378 136.782 59.2076 136.213 58.3439 136.213C57.4583 136.213 56.8679 136.793 56.8679 137.656L56.8625 137.673H55.7145L55.7036 137.662C55.709 136.219 56.8242 135.202 58.4095 135.202C59.88 135.202 60.9623 136.137 60.9623 137.438V137.454C60.9623 138.35 60.5469 139.039 59.1147 140.461L57.4419 142.128V142.237H61.0881V143.281H55.7746ZM65.4776 143.473C63.6573 143.473 62.564 141.882 62.564 139.34V139.329C62.564 136.787 63.6573 135.202 65.4776 135.202C67.2925 135.202 68.3913 136.787 68.3913 139.329V139.34C68.3913 141.882 67.2925 143.473 65.4776 143.473ZM65.4776 142.456C66.5327 142.456 67.1558 141.27 67.1558 139.34V139.329C67.1558 137.399 66.5327 136.224 65.4776 136.224C64.4171 136.224 63.7994 137.399 63.7994 139.329V139.34C63.7994 141.27 64.4171 142.456 65.4776 142.456ZM72.6387 135.016L70.228 145.26H69.1128L71.5236 135.016H72.6387ZM73.4969 143.281V142.45L76.1154 139.701C77.1595 138.613 77.4601 138.208 77.4601 137.569V137.552C77.4601 136.782 76.9299 136.213 76.0662 136.213C75.1806 136.213 74.5902 136.793 74.5902 137.656L74.5848 137.673H73.4368L73.4259 137.662C73.4314 136.219 74.5465 135.202 76.1318 135.202C77.6023 135.202 78.6846 136.137 78.6846 137.438V137.454C78.6846 138.35 78.2692 139.039 76.837 140.461L75.1642 142.128V142.237H78.8104V143.281H73.4969ZM83.1999 143.473C81.3796 143.473 80.2863 141.882 80.2863 139.34V139.329C80.2863 136.787 81.3796 135.202 83.1999 135.202C85.0148 135.202 86.1136 136.787 86.1136 139.329V139.34C86.1136 141.882 85.0148 143.473 83.1999 143.473ZM83.1999 142.456C84.255 142.456 84.8781 141.27 84.8781 139.34V139.329C84.8781 137.399 84.255 136.224 83.1999 136.224C82.1394 136.224 81.5217 137.399 81.5217 139.329V139.34C81.5217 141.27 82.1394 142.456 83.1999 142.456ZM90.8858 143.281V135.393H92.1103V143.281H90.8858ZM96.0899 143.281V136.448H93.6081V135.393H99.7907V136.448H97.3144V143.281H96.0899ZM101.294 143.281V135.393H106.301V136.448H102.518V138.755H106.099V139.772H102.518V142.226H106.301V143.281H101.294ZM108.072 143.281V135.393H109.483L111.997 141.685H112.085L114.599 135.393H116.01V143.281H114.895V137.492H114.813L112.495 143.281H111.587L109.275 137.492H109.188V143.281H108.072ZM120.656 143.473C118.874 143.473 117.732 142.571 117.622 141.242L117.617 141.171H118.819L118.825 141.231C118.891 141.947 119.65 142.407 120.705 142.407C121.711 142.407 122.427 141.904 122.427 141.171V141.166C122.427 140.559 122.001 140.165 120.957 139.941L120.093 139.755C118.491 139.416 117.803 138.673 117.803 137.509V137.503C117.808 136.142 118.989 135.202 120.662 135.202C122.334 135.202 123.428 136.148 123.515 137.372L123.521 137.449H122.334L122.323 137.377C122.22 136.732 121.602 136.262 120.645 136.268C119.721 136.268 119.038 136.7 119.038 137.443V137.449C119.038 138.033 119.454 138.416 120.476 138.635L121.334 138.826C122.99 139.181 123.668 139.848 123.668 141.018V141.024C123.668 142.532 122.493 143.473 120.656 143.473ZM131.578 143.473C129.386 143.473 128.02 141.887 128.02 139.345V139.334C128.02 136.787 129.381 135.202 131.573 135.202C133.311 135.202 134.645 136.301 134.853 137.869L134.847 137.897H133.634V137.88C133.404 136.913 132.611 136.284 131.573 136.284C130.157 136.284 129.271 137.459 129.271 139.334V139.345C129.271 141.215 130.157 142.39 131.578 142.39C132.622 142.39 133.404 141.833 133.628 140.942L133.639 140.92H134.853V140.953C134.623 142.467 133.338 143.473 131.578 143.473ZM139.827 143.473C137.531 143.473 136.143 141.871 136.143 139.34V139.329C136.143 136.793 137.564 135.202 139.827 135.202C142.096 135.202 143.506 136.798 143.506 139.329V139.34C143.506 141.865 142.107 143.473 139.827 143.473ZM139.827 142.39C141.325 142.39 142.254 141.188 142.254 139.34V139.329C142.254 137.465 141.319 136.284 139.827 136.284C138.335 136.284 137.395 137.465 137.395 139.329V139.34C137.395 141.188 138.307 142.39 139.827 142.39ZM145.168 143.281V135.393H146.578L149.093 141.685H149.18L151.695 135.393H153.105V143.281H151.99V137.492H151.908L149.59 143.281H148.683L146.37 137.492H146.283V143.281H145.168ZM155.084 143.281V135.393H158.156C159.703 135.393 160.775 136.432 160.775 137.979V137.99C160.775 139.531 159.703 140.586 158.156 140.586H156.309V143.281H155.084ZM157.85 136.426H156.309V139.559H157.85C158.911 139.559 159.528 138.985 159.528 137.995V137.984C159.528 137 158.911 136.426 157.85 136.426ZM162.354 143.281V135.393H167.362V136.448H163.579V138.755H167.159V139.772H163.579V142.226H167.362V143.281H162.354ZM171.134 143.281V136.448H168.652V135.393H174.834V136.448H172.358V143.281H171.134ZM176.338 143.281V135.393H181.345V136.448H177.562V138.755H181.143V139.772H177.562V142.226H181.345V143.281H176.338ZM183.116 143.281V135.393H185.964C188.304 135.393 189.676 136.836 189.676 139.313V139.324C189.676 141.827 188.315 143.281 185.964 143.281H183.116ZM184.341 142.226H185.827C187.478 142.226 188.43 141.171 188.43 139.34V139.329C188.43 137.514 187.462 136.448 185.827 136.448H184.341V142.226Z" fill="#202226"/>
<mask id="path-29-inside-1_14760_17129" fill="white">
<path d="M40 12H360V109.172H40V12Z"/>
</mask>
<path d="M40 12H360V109.172H40V12Z" fill="white"/>
<path d="M360 108.239H40V110.105H360V108.239Z" fill="#E4E6EB" mask="url(#path-29-inside-1_14760_17129)"/>
<path d="M56.4523 54.6602V39.0539H63.0351C63.6322 39.0539 64.2442 39.1733 64.8711 39.4121C65.4981 39.6509 66.0653 39.9943 66.5728 40.4421C67.0953 40.8899 67.5132 41.4497 67.8267 42.1214C68.1402 42.7931 68.2969 43.532 68.2969 44.3381C68.2969 44.9053 68.1924 45.4949 67.9834 46.1069C67.7894 46.704 67.4311 47.2936 66.9087 47.8758C66.3862 48.4579 65.7668 48.8983 65.0503 49.1968C64.3338 49.4804 63.662 49.6223 63.0351 49.6223H59.9004V54.6602H56.4523ZM59.9004 46.4876H62.8336C63.1471 46.4876 63.4605 46.4055 63.774 46.2413C64.0875 46.0771 64.3412 45.8457 64.5353 45.5472C64.7443 45.2337 64.8488 44.8307 64.8488 44.3381C64.8488 43.935 64.7667 43.5693 64.6025 43.2409C64.4383 42.8976 64.177 42.6364 63.8188 42.4572C63.4755 42.2781 63.1471 42.1886 62.8336 42.1886H59.9004V46.4876ZM69.9533 50.1148V43.3753H73.3343V49.8238C73.3343 50.1671 73.4015 50.5104 73.5358 50.8537C73.6702 51.1821 73.9015 51.4434 74.2299 51.6374C74.5732 51.8165 74.9613 51.9061 75.3942 51.9061C75.8271 51.9061 76.2078 51.8165 76.5362 51.6374C76.8795 51.4434 77.1183 51.1821 77.2527 50.8537C77.387 50.5104 77.4542 50.1671 77.4542 49.8238V43.3753H80.8352V50.1148C80.8352 50.7119 80.7381 51.3016 80.5441 51.8837C80.35 52.4659 80.0216 52.9883 79.5589 53.4511C79.1111 53.8989 78.5364 54.2646 77.8348 54.5482C77.1332 54.8318 76.3197 54.9736 75.3942 54.9736C74.6628 54.9736 73.9687 54.8691 73.3119 54.6602C72.6551 54.4661 72.073 54.1676 71.5654 53.7645C71.0728 53.3615 70.6773 52.854 70.3787 52.242C70.0951 51.615 69.9533 50.906 69.9533 50.1148ZM82.9661 54.6602V43.3753H86.3023V44.7859C86.5412 44.2933 86.9591 43.8977 87.5562 43.5992C88.1533 43.2857 88.8325 43.129 89.5938 43.129C90.9671 43.129 92.0269 43.5469 92.7732 44.3828C93.5345 45.2038 93.9152 46.3458 93.9152 47.8086V54.6602H90.579V48.2116C90.579 47.734 90.4745 47.3235 90.2655 46.9802C90.0714 46.6368 89.8102 46.4055 89.4818 46.286C89.1534 46.1517 88.8325 46.0845 88.519 46.0845C87.8921 46.0845 87.3622 46.301 86.9293 46.7339C86.5113 47.1518 86.3023 47.6817 86.3023 48.3236V54.6602H82.9661ZM95.5493 48.9953C95.5493 48.1594 95.7061 47.3757 96.0195 46.6443C96.3479 45.8979 96.7958 45.2561 97.363 44.7187C97.9451 44.1813 98.6169 43.7634 99.3781 43.4648C100.139 43.1663 100.938 43.017 101.774 43.017C103.625 43.017 105.192 43.7186 106.476 45.1217L104.371 47.2041C104.013 46.816 103.625 46.5249 103.207 46.3308C102.804 46.1368 102.326 46.0397 101.774 46.0397C100.968 46.0397 100.281 46.3234 99.714 46.8906C99.1617 47.4429 98.8856 48.1445 98.8856 48.9953C98.8856 49.8312 99.1617 50.5328 99.714 51.1C100.281 51.6523 100.968 51.9285 101.774 51.9285C102.326 51.9285 102.804 51.8315 103.207 51.6374C103.625 51.4434 104.013 51.1523 104.371 50.7642L106.476 52.8465C105.192 54.2497 103.625 54.9512 101.774 54.9512C101.147 54.9512 100.535 54.8617 99.9379 54.6825C99.3408 54.5183 98.7885 54.2795 98.281 53.966C97.7884 53.6526 97.3182 53.2421 96.8704 52.7346C96.4226 52.2121 96.0867 51.615 95.8628 50.9433C95.6538 50.2567 95.5493 49.6073 95.5493 48.9953ZM107.981 54.6602V39.0539H111.317V44.7411C111.541 44.2634 111.936 43.8753 112.504 43.5768C113.086 43.2782 113.743 43.129 114.474 43.129C115.803 43.129 116.832 43.5469 117.564 44.3828C118.295 45.2038 118.661 46.3458 118.661 47.8086V54.6602H115.325V48.2116C115.325 47.5548 115.153 47.0399 114.81 46.6667C114.481 46.2786 114.011 46.0845 113.399 46.0845C112.802 46.0845 112.302 46.301 111.899 46.7339C111.511 47.1518 111.317 47.6817 111.317 48.3236V54.6602H107.981ZM129.89 54.6602V39.0539H133.227V54.6602H129.89ZM137.123 42.4125C136.616 42.4125 136.168 42.2259 135.78 41.8527C135.406 41.4795 135.22 41.0392 135.22 40.5316C135.22 40.0092 135.406 39.5614 135.78 39.1882C136.168 38.815 136.616 38.6284 137.123 38.6284C137.645 38.6284 138.093 38.815 138.466 39.1882C138.84 39.5614 139.026 40.0092 139.026 40.5316C139.026 40.7705 138.959 41.0392 138.825 41.3377C138.705 41.6362 138.481 41.89 138.153 42.099C137.84 42.308 137.496 42.4125 137.123 42.4125ZM135.466 54.6602V43.3753H138.802V54.6602H135.466ZM140.169 52.9585L142.094 50.8985C142.393 51.2568 142.818 51.5553 143.371 51.7942C143.938 52.0181 144.542 52.13 145.184 52.13C145.751 52.13 146.177 52.0479 146.46 51.8837C146.744 51.7195 146.886 51.4956 146.886 51.212C146.886 51.1224 146.849 51.0254 146.774 50.9209C146.714 50.8015 146.565 50.697 146.326 50.6074C146.102 50.503 145.677 50.3761 145.05 50.2268C144.438 50.0626 143.96 49.9208 143.617 49.8014C141.885 49.2043 141.02 48.1594 141.02 46.6667C141.02 45.9502 141.199 45.3307 141.557 44.8083C141.915 44.2709 142.423 43.8455 143.079 43.532C143.751 43.2036 144.527 43.0394 145.408 43.0394C146.99 43.0394 148.282 43.5245 149.282 44.4948L147.692 46.6891C147.08 46.1368 146.289 45.8606 145.319 45.8606C144.96 45.8606 144.684 45.9353 144.49 46.0845C144.296 46.2189 144.199 46.3831 144.199 46.5771C144.199 46.801 144.281 46.9652 144.445 47.0697C144.61 47.1742 145.005 47.3086 145.632 47.4728C146.259 47.6369 146.811 47.8011 147.289 47.9653C149.14 48.5923 150.065 49.6596 150.065 51.1672C150.065 51.7046 149.961 52.2121 149.752 52.6898C149.558 53.1525 149.259 53.5555 148.856 53.8989C148.453 54.2422 147.931 54.5034 147.289 54.6825C146.647 54.8766 145.916 54.9736 145.095 54.9736C144.527 54.9736 143.915 54.9065 143.259 54.7721C142.617 54.6378 142.027 54.4064 141.49 54.078C140.952 53.7496 140.512 53.3764 140.169 52.9585ZM152.386 54.6602V46.398H150.886V43.3753H152.386V39.0539H155.632V43.3753H158.118V46.398H155.632V54.6602H152.386Z" fill="#202226"/>
<path fill-rule="evenodd" clip-rule="evenodd" d="M343.227 45.3902L338.289 40.4522L339.608 39.1328L345.866 45.3902L339.608 51.6475L338.289 50.3281L343.227 45.3902Z" fill="#202226"/>
<circle cx="66.1263" cy="79.3216" r="9.32945" fill="#15AB3F" stroke="#15AB3F" stroke-width="2.79883"/>
<path d="M60.5312 79.0346L64.4496 83.0534L71.7266 75.5898" stroke="white" stroke-width="1.86589"/>
<path d="M87.9828 83.8203V76.1545H87.8744L85.5657 77.7871V76.3267L87.9892 74.6175H89.4114V83.8203H87.9828ZM95.3425 84.0435C93.1932 84.0435 91.9369 82.2706 91.9369 79.2093C91.9369 76.1673 93.206 74.3943 95.3425 74.3943C97.4662 74.3943 98.7353 76.1736 98.7353 79.2221C98.7353 82.2769 97.4853 84.0435 95.3425 84.0435ZM95.3425 82.7935C96.5925 82.7935 97.294 81.5435 97.294 79.2093C97.294 76.9007 96.5797 75.6443 95.3425 75.6443C94.1052 75.6443 93.3782 76.907 93.3782 79.2093C93.3782 81.5371 94.0925 82.7935 95.3425 82.7935ZM103.825 84.0435C101.675 84.0435 100.419 82.2706 100.419 79.2093C100.419 76.1673 101.688 74.3943 103.825 74.3943C105.948 74.3943 107.217 76.1736 107.217 79.2221C107.217 82.2769 105.967 84.0435 103.825 84.0435ZM103.825 82.7935C105.075 82.7935 105.776 81.5435 105.776 79.2093C105.776 76.9007 105.062 75.6443 103.825 75.6443C102.587 75.6443 101.86 76.907 101.86 79.2093C101.86 81.5371 102.575 82.7935 103.825 82.7935ZM112.594 76.703C112.594 78.0423 111.765 78.9734 110.566 78.9734C109.373 78.9734 108.538 78.0423 108.538 76.703C108.538 75.3637 109.367 74.4326 110.566 74.4326C111.765 74.4326 112.594 75.3573 112.594 76.703ZM110.566 77.9785C111.089 77.9785 111.433 77.4746 111.433 76.6966C111.433 75.9058 111.101 75.4275 110.566 75.4275C110.036 75.4275 109.698 75.9185 109.698 76.6966C109.698 77.4746 110.043 77.9785 110.566 77.9785ZM110.738 83.8203H109.341L112.842 79.0116L115.904 74.6175H117.294L113.735 79.49L110.738 83.8203ZM118.059 81.7285C118.059 83.0741 117.23 84.0053 116.031 84.0053C114.832 84.0053 113.997 83.0741 113.997 81.7285C113.997 80.3892 114.832 79.4644 116.031 79.4644C117.23 79.4644 118.059 80.3892 118.059 81.7285ZM116.031 83.0104C116.554 83.0104 116.892 82.5065 116.892 81.7285C116.892 80.9377 116.561 80.4593 116.031 80.4593C115.502 80.4593 115.164 80.9504 115.164 81.7285C115.164 82.5065 115.508 83.0104 116.031 83.0104Z" fill="#15AB3F"/>
</g>
</g>
<defs>
<filter id="filter0_d_14760_17129" x="19" y="1" width="362" height="572" filterUnits="userSpaceOnUse" color-interpolation-filters="sRGB">
<feFlood flood-opacity="0" result="BackgroundImageFix"/>
<feColorMatrix in="SourceAlpha" type="matrix" values="0 0 0 0 0 0 0 0 0 0 0 0 0 0 0 0 0 0 127 0" result="hardAlpha"/>
<feOffset dy="10"/>
<feGaussianBlur stdDeviation="10.5"/>
<feColorMatrix type="matrix" values="0 0 0 0 0.682353 0 0 0 0 0.698039 0 0 0 0 0.760784 0 0 0 0.1 0"/>
<feBlend mode="normal" in2="BackgroundImageFix" result="effect1_dropShadow_14760_17129"/>
<feBlend mode="normal" in="SourceGraphic" in2="effect1_dropShadow_14760_17129" result="shape"/>
</filter>
<clipPath id="clip0_14760_17129">
<path d="M40 24.1283C40 17.43 45.43 12 52.1283 12H347.872C354.57 12 360 17.43 360 24.1283V529.872C360 536.57 354.57 542 347.872 542H52.1283C45.43 542 40 536.57 40 529.872V24.1283Z" fill="white"/>
</clipPath>
</defs>
</svg>
