<svg width="1312" height="600" viewBox="0 0 1312 600" fill="none" xmlns="http://www.w3.org/2000/svg">
<g clip-path="url(#clip0_14759_35765)">
<rect width="640" height="600" rx="40" fill="white"/>
<g filter="url(#filter0_b_14759_35765)">
<rect x="48" y="488" width="129" height="64" rx="32" fill="url(#paint0_linear_14759_35765)" fill-opacity="0.15"/>
<rect x="48.5" y="488.5" width="128" height="63" rx="31.5" stroke="url(#paint1_linear_14759_35765)" stroke-opacity="0.15"/>
<path d="M73.6334 526V513.317H75.2154V518.802H82.1763V513.317H83.7584V526H82.1763V520.226H75.2154V526H73.6334ZM90.3066 526.167C87.5995 526.167 85.9648 524.269 85.9648 521.298V521.289C85.9648 518.362 87.6347 516.358 90.2099 516.358C92.7851 516.358 94.3495 518.274 94.3495 521.104V521.702H87.5292C87.5732 523.662 88.6542 524.805 90.3417 524.805C91.6249 524.805 92.4159 524.198 92.6708 523.627L92.706 523.548H94.2353L94.2177 523.618C93.8925 524.901 92.539 526.167 90.3066 526.167ZM90.2011 517.721C88.7948 517.721 87.7226 518.679 87.5556 520.48H92.7939C92.6357 518.608 91.5986 517.721 90.2011 517.721ZM98.9641 526.167C97.1624 526.167 95.8001 525.077 95.8001 523.354V523.337C95.8001 521.649 97.0481 520.674 99.2542 520.542L101.97 520.375V519.514C101.97 518.345 101.258 517.712 99.843 517.712C98.7093 517.712 97.9622 518.134 97.7161 518.872L97.7073 518.898H96.178L96.1868 518.846C96.4329 517.36 97.8743 516.358 99.8958 516.358C102.207 516.358 103.499 517.545 103.499 519.514V526H101.97V524.603H101.829C101.232 525.613 100.239 526.167 98.9641 526.167ZM97.3645 523.319C97.3645 524.277 98.1819 524.84 99.2805 524.84C100.836 524.84 101.97 523.82 101.97 522.467V521.605L99.4387 521.764C97.9973 521.852 97.3645 522.361 97.3645 523.302V523.319ZM109.432 526.167C107.033 526.167 105.46 524.225 105.46 521.271V521.254C105.46 518.283 107.024 516.358 109.432 516.358C110.733 516.358 111.867 517.009 112.385 518.02H112.526V512.764H114.055V526H112.526V524.488H112.385C111.805 525.543 110.751 526.167 109.432 526.167ZM109.784 524.813C111.506 524.813 112.561 523.46 112.561 521.271V521.254C112.561 519.065 111.506 517.712 109.784 517.712C108.052 517.712 107.024 519.048 107.024 521.254V521.271C107.024 523.478 108.052 524.813 109.784 524.813ZM116.719 526V512.764H118.248V526H116.719ZM121.632 514.697C121.052 514.697 120.577 514.223 120.577 513.643C120.577 513.062 121.052 512.588 121.632 512.588C122.212 512.588 122.687 513.062 122.687 513.643C122.687 514.223 122.212 514.697 121.632 514.697ZM120.859 526V516.525H122.388V526H120.859ZM124.911 526V516.525H126.44V517.949H126.581C127.055 516.947 127.943 516.358 129.341 516.358C131.467 516.358 132.654 517.615 132.654 519.865V526H131.125V520.234C131.125 518.529 130.422 517.712 128.91 517.712C127.398 517.712 126.44 518.731 126.44 520.393V526H124.911ZM138.93 526.167C136.223 526.167 134.588 524.269 134.588 521.298V521.289C134.588 518.362 136.258 516.358 138.833 516.358C141.408 516.358 142.973 518.274 142.973 521.104V521.702H136.152C136.196 523.662 137.277 524.805 138.965 524.805C140.248 524.805 141.039 524.198 141.294 523.627L141.329 523.548H142.858L142.841 523.618C142.516 524.901 141.162 526.167 138.93 526.167ZM138.824 517.721C137.418 517.721 136.346 518.679 136.179 520.48H141.417C141.259 518.608 140.222 517.721 138.824 517.721ZM148.238 526.167C146.128 526.167 144.678 525.147 144.502 523.583H146.067C146.322 524.374 147.078 524.893 148.29 524.893C149.565 524.893 150.47 524.286 150.47 523.425V523.407C150.47 522.766 149.987 522.317 148.818 522.036L147.35 521.685C145.575 521.263 144.775 520.489 144.775 519.127V519.118C144.775 517.545 146.287 516.358 148.299 516.358C150.286 516.358 151.665 517.352 151.876 518.898H150.373C150.171 518.151 149.433 517.633 148.29 517.633C147.165 517.633 146.339 518.213 146.339 519.048V519.065C146.339 519.707 146.814 520.111 147.93 520.384L149.389 520.735C151.173 521.166 152.035 521.939 152.035 523.293V523.311C152.035 524.998 150.391 526.167 148.238 526.167Z" fill="#5B5F66"/>
</g>
<g filter="url(#filter1_b_14759_35765)">
<rect x="185" y="488" width="123" height="64" rx="32" fill="url(#paint2_linear_14759_35765)" fill-opacity="0.15"/>
<rect x="185.5" y="488.5" width="122" height="63" rx="31.5" stroke="url(#paint3_linear_14759_35765)" stroke-opacity="0.15"/>
<path d="M210.71 526V513.317H212.248L219.13 523.188H219.27V513.317H220.835V526H219.297L212.415 516.165H212.274V526H210.71ZM226.689 526.167C224.535 526.167 223.428 524.901 223.428 522.66V516.525H224.957V522.291C224.957 523.996 225.573 524.813 227.084 524.813C228.754 524.813 229.642 523.794 229.642 522.133V516.525H231.171V526H229.642V524.585H229.501C229.035 525.596 228.077 526.167 226.689 526.167ZM233.668 526V516.525H235.197V517.967H235.338C235.759 516.947 236.656 516.358 237.895 516.358C239.178 516.358 240.075 517.035 240.514 518.02H240.655C241.165 517.018 242.246 516.358 243.555 516.358C245.489 516.358 246.57 517.466 246.57 519.452V526H245.041V519.804C245.041 518.406 244.399 517.712 243.063 517.712C241.745 517.712 240.875 518.705 240.875 519.909V526H239.345V519.566C239.345 518.441 238.572 517.712 237.377 517.712C236.137 517.712 235.197 518.793 235.197 520.129V526H233.668ZM253.681 526.167C252.362 526.167 251.308 525.543 250.728 524.488H250.587V526H249.058V512.764H250.587V518.02H250.728C251.246 517.009 252.38 516.358 253.681 516.358C256.089 516.358 257.653 518.283 257.653 521.254V521.271C257.653 524.225 256.08 526.167 253.681 526.167ZM253.329 524.813C255.061 524.813 256.089 523.478 256.089 521.271V521.254C256.089 519.048 255.061 517.712 253.329 517.712C251.606 517.712 250.552 519.065 250.552 521.254V521.271C250.552 523.46 251.606 524.813 253.329 524.813ZM263.534 526.167C260.827 526.167 259.192 524.269 259.192 521.298V521.289C259.192 518.362 260.862 516.358 263.437 516.358C266.012 516.358 267.577 518.274 267.577 521.104V521.702H260.756C260.8 523.662 261.881 524.805 263.569 524.805C264.852 524.805 265.643 524.198 265.898 523.627L265.933 523.548H267.462L267.445 523.618C267.119 524.901 265.766 526.167 263.534 526.167ZM263.428 517.721C262.022 517.721 260.95 518.679 260.783 520.48H266.021C265.863 518.608 264.826 517.721 263.428 517.721ZM269.59 526V516.525H271.119V517.932H271.259C271.62 516.938 272.508 516.358 273.791 516.358C274.081 516.358 274.406 516.394 274.555 516.42V517.905C274.239 517.853 273.949 517.817 273.615 517.817C272.156 517.817 271.119 518.74 271.119 520.129V526H269.59ZM279.161 526.167C277.052 526.167 275.602 525.147 275.426 523.583H276.99C277.245 524.374 278.001 524.893 279.214 524.893C280.488 524.893 281.394 524.286 281.394 523.425V523.407C281.394 522.766 280.91 522.317 279.741 522.036L278.274 521.685C276.498 521.263 275.698 520.489 275.698 519.127V519.118C275.698 517.545 277.21 516.358 279.223 516.358C281.209 516.358 282.589 517.352 282.8 518.898H281.297C281.095 518.151 280.357 517.633 279.214 517.633C278.089 517.633 277.263 518.213 277.263 519.048V519.065C277.263 519.707 277.737 520.111 278.854 520.384L280.313 520.735C282.097 521.166 282.958 521.939 282.958 523.293V523.311C282.958 524.998 281.315 526.167 279.161 526.167Z" fill="#5B5F66"/>
</g>
<path d="M54.528 143V76.088H69.312V100.952H98.304V76.088H113.088V143H98.304V114.392H69.312V143H54.528ZM124.039 123.512V94.616H138.535V122.264C138.535 123.736 138.823 125.208 139.399 126.68C139.975 128.088 140.967 129.208 142.375 130.04C143.847 130.808 145.511 131.192 147.367 131.192C149.223 131.192 150.855 130.808 152.263 130.04C153.735 129.208 154.759 128.088 155.335 126.68C155.911 125.208 156.199 123.736 156.199 122.264V94.616H170.695V123.512C170.695 126.072 170.279 128.6 169.447 131.096C168.615 133.592 167.207 135.832 165.223 137.816C163.303 139.736 160.839 141.304 157.831 142.52C154.823 143.736 151.335 144.344 147.367 144.344C144.231 144.344 141.255 143.896 138.439 143C135.623 142.168 133.127 140.888 130.951 139.16C128.839 137.432 127.143 135.256 125.863 132.632C124.647 129.944 124.039 126.904 124.039 123.512ZM179.831 143V94.616H194.135V101.24C195.223 98.808 197.015 96.92 199.511 95.576C202.007 94.232 204.887 93.56 208.151 93.56C209.111 93.56 210.359 93.656 211.895 93.848V107.288C210.423 106.968 208.823 106.808 207.095 106.808C203.063 106.808 199.895 107.928 197.591 110.168C195.287 112.408 194.135 115.48 194.135 119.384V143H179.831ZM219.113 143V94.616H233.417V100.664C234.313 98.552 235.913 96.856 238.217 95.576C240.521 94.232 243.113 93.56 245.993 93.56C249.193 93.56 251.913 94.232 254.153 95.576C256.393 96.856 258.057 98.744 259.145 101.24C261.833 96.12 267.209 93.56 275.273 93.56C280.713 93.56 284.937 95.352 287.945 98.936C290.953 102.456 292.457 107.352 292.457 113.624V143H278.153V115.352C278.153 113.304 277.801 111.544 277.097 110.072C276.393 108.6 275.465 107.608 274.312 107.096C273.161 106.52 272.041 106.232 270.953 106.232C268.649 106.232 266.729 107.16 265.193 109.016C263.657 110.808 262.889 113.08 262.889 115.832V143H248.585V115.352C248.585 113.304 248.233 111.544 247.529 110.072C246.825 108.6 245.897 107.608 244.745 107.096C243.593 106.52 242.473 106.232 241.385 106.232C240.297 106.232 239.113 106.552 237.833 107.192C236.617 107.768 235.561 108.856 234.665 110.456C233.833 111.992 233.417 113.784 233.417 115.832V143H219.113ZM299.501 119.096V118.712C299.501 115 300.141 111.576 301.421 108.44C302.765 105.24 304.621 102.52 306.989 100.28C309.357 98.04 312.141 96.344 315.341 95.192C318.541 93.976 321.997 93.368 325.709 93.368C329.293 93.368 332.621 94.008 335.693 95.288C338.829 96.504 341.485 98.264 343.661 100.568C345.901 102.808 347.597 105.432 348.749 108.44C349.965 111.448 350.573 114.616 350.573 117.944L350.381 122.552H313.805C313.933 124.664 314.669 126.488 316.013 128.024C317.357 129.56 319.021 130.616 321.005 131.192C323.053 131.768 324.941 132.056 326.669 132.056C328.461 132.056 330.349 131.768 332.333 131.192C334.317 130.616 336.365 129.336 338.477 127.352L346.829 135.32C341.133 141.208 334.189 144.152 325.997 144.152C322.157 144.152 318.573 143.576 315.245 142.424C311.981 141.208 309.165 139.512 306.797 137.336C304.493 135.096 302.701 132.44 301.421 129.368C300.141 126.232 299.501 122.808 299.501 119.096ZM313.997 113.24H336.173C336.173 112.216 335.821 111.096 335.117 109.88C334.413 108.6 333.165 107.512 331.373 106.616C329.645 105.656 327.757 105.176 325.709 105.176C322.637 105.176 319.949 105.976 317.645 107.576C315.405 109.112 314.189 111 313.997 113.24ZM51.36 205.592C51.36 200.792 52.288 196.248 54.144 191.96C56 187.672 58.592 183.992 61.92 180.92C65.248 177.784 69.088 175.352 73.44 173.624C77.856 171.896 82.496 171.032 87.36 171.032C92.352 171.032 97.088 171.992 101.568 173.912C106.048 175.832 109.952 178.488 113.28 181.88L103.296 190.616C101.312 188.632 98.912 187.128 96.096 186.104C93.344 185.016 90.432 184.472 87.36 184.472C84.48 184.472 81.728 185.016 79.104 186.104C76.48 187.128 74.208 188.6 72.288 190.52C70.368 192.44 68.864 194.712 67.776 197.336C66.688 199.896 66.144 202.648 66.144 205.592C66.144 208.536 66.688 211.32 67.776 213.944C68.864 216.504 70.368 218.744 72.288 220.664C74.208 222.52 76.48 223.992 79.104 225.08C81.728 226.104 84.48 226.616 87.36 226.616C90.176 226.616 92.832 226.168 95.328 225.272C97.888 224.376 100.096 223.096 101.952 221.432V212.408H84.384V199.352H115.776V226.424C112.64 230.584 108.576 233.912 103.584 236.408C98.592 238.84 93.184 240.056 87.36 240.056C82.496 240.056 77.856 239.224 73.44 237.56C69.088 235.832 65.248 233.4 61.92 230.264C58.592 227.128 56 223.448 54.144 219.224C52.288 214.936 51.36 210.392 51.36 205.592ZM122.688 215.096V214.712C122.688 211 123.328 207.576 124.608 204.44C125.952 201.24 127.808 198.52 130.176 196.28C132.544 194.04 135.328 192.344 138.528 191.192C141.728 189.976 145.184 189.368 148.896 189.368C152.48 189.368 155.808 190.008 158.88 191.288C162.016 192.504 164.672 194.264 166.848 196.568C169.088 198.808 170.784 201.432 171.936 204.44C173.152 207.448 173.76 210.616 173.76 213.944L173.568 218.552H136.992C137.12 220.664 137.856 222.488 139.2 224.024C140.544 225.56 142.208 226.616 144.192 227.192C146.24 227.768 148.128 228.056 149.856 228.056C151.648 228.056 153.536 227.768 155.52 227.192C157.504 226.616 159.552 225.336 161.664 223.352L170.016 231.32C164.32 237.208 157.376 240.152 149.184 240.152C145.344 240.152 141.76 239.576 138.432 238.424C135.168 237.208 132.352 235.512 129.984 233.336C127.68 231.096 125.888 228.44 124.608 225.368C123.328 222.232 122.688 218.808 122.688 215.096ZM137.184 209.24H159.36C159.36 208.216 159.008 207.096 158.304 205.88C157.6 204.6 156.352 203.512 154.56 202.616C152.832 201.656 150.944 201.176 148.896 201.176C145.824 201.176 143.136 201.976 140.832 203.576C138.592 205.112 137.376 207 137.184 209.24ZM178.751 214.808C178.751 211.352 179.423 208.056 180.767 204.92C182.175 201.784 184.095 199.032 186.527 196.664C189.023 194.296 191.903 192.472 195.167 191.192C198.495 189.848 201.983 189.176 205.631 189.176C209.215 189.176 212.639 189.848 215.903 191.192C219.231 192.472 222.143 194.296 224.639 196.664C227.135 199.032 229.055 201.784 230.399 204.92C231.807 208.056 232.51 211.352 232.51 214.808C232.51 218.264 231.807 221.56 230.399 224.696C229.055 227.832 227.135 230.584 224.639 232.952C222.143 235.32 219.231 237.176 215.903 238.52C212.639 239.8 209.215 240.44 205.631 240.44C201.983 240.44 198.495 239.8 195.167 238.52C191.903 237.176 189.023 235.32 186.527 232.952C184.095 230.584 182.175 227.832 180.767 224.696C179.423 221.56 178.751 218.264 178.751 214.808ZM193.055 214.808C193.055 217.368 193.759 219.704 195.167 221.816C196.575 223.928 198.239 225.4 200.159 226.232C202.143 227.064 203.967 227.48 205.631 227.48C207.231 227.48 209.023 227.064 211.007 226.232C212.991 225.4 214.687 223.928 216.095 221.816C217.503 219.704 218.207 217.368 218.207 214.808C218.207 213.208 217.791 211.416 216.959 209.432C216.127 207.448 214.655 205.752 212.543 204.344C210.431 202.872 208.127 202.136 205.631 202.136C202.111 202.136 199.135 203.384 196.703 205.88C194.271 208.312 193.055 211.288 193.055 214.808ZM240.019 239V190.616H254.323V196.664C255.219 194.552 256.819 192.856 259.123 191.576C261.427 190.232 264.019 189.56 266.899 189.56C270.099 189.56 272.819 190.232 275.059 191.576C277.299 192.856 278.963 194.744 280.051 197.24C282.739 192.12 288.115 189.56 296.179 189.56C301.619 189.56 305.843 191.352 308.851 194.936C311.859 198.456 313.363 203.352 313.363 209.624V239H299.059V211.352C299.059 209.304 298.707 207.544 298.003 206.072C297.299 204.6 296.371 203.608 295.219 203.096C294.067 202.52 292.947 202.232 291.859 202.232C289.555 202.232 287.635 203.16 286.099 205.016C284.563 206.808 283.795 209.08 283.795 211.832V239H269.491V211.352C269.491 209.304 269.139 207.544 268.435 206.072C267.731 204.6 266.803 203.608 265.651 203.096C264.499 202.52 263.379 202.232 262.291 202.232C261.203 202.232 260.019 202.552 258.739 203.192C257.523 203.768 256.467 204.856 255.571 206.456C254.739 207.992 254.323 209.784 254.323 211.832V239H240.019ZM320.407 215.096V214.712C320.407 211 321.047 207.576 322.327 204.44C323.671 201.24 325.527 198.52 327.895 196.28C330.263 194.04 333.047 192.344 336.247 191.192C339.447 189.976 342.903 189.368 346.615 189.368C350.199 189.368 353.527 190.008 356.599 191.288C359.735 192.504 362.391 194.264 364.567 196.568C366.807 198.808 368.503 201.432 369.655 204.44C370.871 207.448 371.479 210.616 371.479 213.944L371.287 218.552H334.711C334.839 220.664 335.575 222.488 336.919 224.024C338.263 225.56 339.927 226.616 341.911 227.192C343.959 227.768 345.847 228.056 347.575 228.056C349.367 228.056 351.255 227.768 353.239 227.192C355.223 226.616 357.271 225.336 359.383 223.352L367.735 231.32C362.039 237.208 355.095 240.152 346.903 240.152C343.063 240.152 339.479 239.576 336.151 238.424C332.887 237.208 330.071 235.512 327.703 233.336C325.399 231.096 323.607 228.44 322.327 225.368C321.047 222.232 320.407 218.808 320.407 215.096ZM334.903 209.24H357.079C357.079 208.216 356.727 207.096 356.023 205.88C355.319 204.6 354.071 203.512 352.279 202.616C350.551 201.656 348.663 201.176 346.615 201.176C343.543 201.176 340.855 201.976 338.551 203.576C336.311 205.112 335.095 207 334.903 209.24ZM381.749 239V203.576H375.317V190.616H381.749V172.088H395.669V190.616H406.325V203.576H395.669V239H381.749ZM412.519 239V190.616H426.823V197.24C427.911 194.808 429.703 192.92 432.199 191.576C434.695 190.232 437.575 189.56 440.839 189.56C441.799 189.56 443.047 189.656 444.583 189.848V203.288C443.111 202.968 441.511 202.808 439.783 202.808C435.751 202.808 432.583 203.928 430.279 206.168C427.975 208.408 426.823 211.48 426.823 215.384V239H412.519ZM458.904 186.488C456.728 186.488 454.808 185.688 453.144 184.088C451.544 182.488 450.744 180.6 450.744 178.424C450.744 176.184 451.544 174.264 453.144 172.664C454.808 171.064 456.728 170.264 458.904 170.264C461.144 170.264 463.064 171.064 464.664 172.664C466.264 174.264 467.064 176.184 467.064 178.424C467.064 179.448 466.776 180.6 466.2 181.88C465.688 183.16 464.728 184.248 463.32 185.144C461.976 186.04 460.504 186.488 458.904 186.488ZM451.8 239V190.616H466.104V239H451.8ZM473.594 214.712C473.594 211.128 474.266 207.768 475.61 204.632C477.018 201.432 478.938 198.68 481.37 196.376C483.866 194.072 486.746 192.28 490.01 191C493.274 189.72 496.698 189.08 500.282 189.08C508.218 189.08 514.938 192.088 520.442 198.104L511.418 207.032C509.882 205.368 508.218 204.12 506.426 203.288C504.698 202.456 502.65 202.04 500.282 202.04C496.826 202.04 493.882 203.256 491.45 205.688C489.082 208.056 487.898 211.064 487.898 214.712C487.898 218.296 489.082 221.304 491.45 223.736C493.882 226.104 496.826 227.288 500.282 227.288C502.65 227.288 504.698 226.872 506.426 226.04C508.218 225.208 509.882 223.96 511.418 222.296L520.442 231.224C514.938 237.24 508.218 240.248 500.282 240.248C497.594 240.248 494.97 239.864 492.41 239.096C489.85 238.392 487.482 237.368 485.306 236.024C483.194 234.68 481.178 232.92 479.258 230.744C477.338 228.504 475.898 225.944 474.938 223.064C474.042 220.12 473.594 217.336 473.594 214.712ZM48.768 321.272L59.52 313.88C61.12 316.568 63.392 318.712 66.336 320.312C69.28 321.912 72.608 322.712 76.32 322.712C77.984 322.712 79.616 322.488 81.216 322.04C82.88 321.528 84.128 320.728 84.96 319.64C85.856 318.552 86.304 317.368 86.304 316.088C86.304 314.872 85.92 313.752 85.152 312.728C84.448 311.704 83.296 310.808 81.696 310.04C80.096 309.208 77.888 308.312 75.072 307.352C72.32 306.392 70.464 305.72 69.504 305.336C64.96 303.672 61.536 301.816 59.232 299.768C56.992 297.72 55.424 295.544 54.528 293.24C53.696 290.936 53.28 288.504 53.28 285.944C53.28 283.832 53.664 281.656 54.432 279.416C55.264 277.176 56.608 275.16 58.464 273.368C60.32 271.512 62.688 270.008 65.568 268.856C68.512 267.64 71.84 267.032 75.552 267.032C80.672 267.032 85.088 268.088 88.8 270.2C92.576 272.248 95.584 274.84 97.824 277.976L87.936 285.464C85.248 282.008 81.248 280.28 75.936 280.28C73.504 280.28 71.552 280.792 70.08 281.816C68.608 282.84 67.872 284.152 67.872 285.752C67.872 287.352 68.384 288.664 69.408 289.688C70.432 290.648 72.704 291.736 76.224 292.952C79.808 294.168 82.4 295.096 84 295.736C90.016 298.04 94.368 300.76 97.056 303.896C99.744 306.968 101.088 310.872 101.088 315.608C101.088 318.552 100.576 321.272 99.552 323.768C98.528 326.264 96.992 328.44 94.944 330.296C92.896 332.152 90.272 333.592 87.072 334.616C83.936 335.576 80.32 336.056 76.224 336.056C71.936 336.056 67.872 335.416 64.032 334.136C60.256 332.856 57.088 331.064 54.528 328.76C52.032 326.392 50.112 323.896 48.768 321.272ZM106.376 310.808C106.376 307.416 106.984 304.184 108.2 301.112C109.416 298.04 111.112 295.352 113.288 293.048C115.464 290.744 118.024 288.952 120.968 287.672C123.912 286.392 127.048 285.752 130.376 285.752C132.104 285.752 133.992 285.976 136.04 286.424C138.088 286.872 139.912 287.704 141.512 288.92C143.176 290.072 144.264 291.416 144.776 292.952V286.616H159.08V335H144.776V328.664C144.072 330.712 142.376 332.44 139.688 333.848C137.064 335.192 133.96 335.864 130.376 335.864C127.048 335.864 123.912 335.224 120.968 333.944C118.024 332.664 115.464 330.872 113.288 328.568C111.112 326.264 109.416 323.576 108.2 320.504C106.984 317.432 106.376 314.2 106.376 310.808ZM120.68 310.808C120.68 314.2 121.864 317.08 124.232 319.448C126.6 321.752 129.512 322.904 132.968 322.904C134.568 322.904 136.36 322.52 138.344 321.752C140.328 320.92 142.024 319.512 143.432 317.528C144.904 315.48 145.64 313.24 145.64 310.808C145.64 308.376 144.904 306.168 143.432 304.184C142.024 302.136 140.328 300.728 138.344 299.96C136.36 299.128 134.568 298.712 132.968 298.712C129.512 298.712 126.6 299.896 124.232 302.264C121.864 304.568 120.68 307.416 120.68 310.808ZM168.581 335V286.616H182.885V292.664C183.909 290.552 185.701 288.856 188.261 287.576C190.821 286.232 193.733 285.56 196.997 285.56C202.885 285.56 207.429 287.352 210.629 290.936C213.893 294.456 215.525 299.352 215.525 305.624V335H201.221V307.352C201.221 305.304 200.773 303.544 199.877 302.072C199.045 300.6 197.925 299.608 196.517 299.096C195.109 298.52 193.733 298.232 192.389 298.232C189.701 298.232 187.429 299.16 185.573 301.016C183.781 302.808 182.885 305.08 182.885 307.832V335H168.581ZM220.9 327.704L229.156 318.872C230.436 320.408 232.26 321.688 234.628 322.712C237.06 323.672 239.652 324.152 242.404 324.152C244.836 324.152 246.66 323.8 247.876 323.096C249.092 322.392 249.7 321.432 249.7 320.216C249.7 319.832 249.54 319.416 249.22 318.968C248.964 318.456 248.324 318.008 247.3 317.624C246.34 317.176 244.516 316.632 241.828 315.992C239.204 315.288 237.156 314.68 235.684 314.168C228.26 311.608 224.548 307.128 224.548 300.728C224.548 297.656 225.316 295 226.852 292.76C228.388 290.456 230.564 288.632 233.38 287.288C236.26 285.88 239.588 285.176 243.364 285.176C250.148 285.176 255.684 287.256 259.972 291.416L253.156 300.824C250.532 298.456 247.14 297.272 242.98 297.272C241.444 297.272 240.26 297.592 239.428 298.232C238.596 298.808 238.18 299.512 238.18 300.344C238.18 301.304 238.532 302.008 239.236 302.456C239.94 302.904 241.636 303.48 244.324 304.184C247.012 304.888 249.38 305.592 251.428 306.296C259.364 308.984 263.332 313.56 263.332 320.024C263.332 322.328 262.884 324.504 261.988 326.552C261.156 328.536 259.876 330.264 258.148 331.736C256.42 333.208 254.18 334.328 251.428 335.096C248.676 335.928 245.54 336.344 242.02 336.344C239.588 336.344 236.964 336.056 234.148 335.48C231.396 334.904 228.868 333.912 226.564 332.504C224.26 331.096 222.372 329.496 220.9 327.704Z" fill="#202226"/>
</g>
<rect x="672" width="640" height="600" rx="40" fill="white"/>
<g filter="url(#filter2_b_14759_35765)">
<rect x="720" y="488" width="133" height="64" rx="32" fill="url(#paint4_linear_14759_35765)" fill-opacity="0.15"/>
<rect x="720.5" y="488.5" width="132" height="63" rx="31.5" stroke="url(#paint5_linear_14759_35765)" stroke-opacity="0.15"/>
<path d="M745.981 526V513.317H750.762C753.144 513.317 754.832 514.961 754.832 517.369V517.387C754.832 519.795 753.144 521.474 750.762 521.474H747.563V526H745.981ZM750.358 514.724H747.563V520.067H750.358C752.169 520.067 753.214 519.074 753.214 517.404V517.387C753.214 515.717 752.169 514.724 750.358 514.724ZM759.121 526.167C757.319 526.167 755.957 525.077 755.957 523.354V523.337C755.957 521.649 757.205 520.674 759.411 520.542L762.127 520.375V519.514C762.127 518.345 761.415 517.712 760 517.712C758.866 517.712 758.119 518.134 757.873 518.872L757.864 518.898H756.335L756.344 518.846C756.59 517.36 758.031 516.358 760.053 516.358C762.364 516.358 763.656 517.545 763.656 519.514V526H762.127V524.603H761.986C761.389 525.613 760.395 526.167 759.121 526.167ZM757.521 523.319C757.521 524.277 758.339 524.84 759.437 524.84C760.993 524.84 762.127 523.82 762.127 522.467V521.605L759.596 521.764C758.154 521.852 757.521 522.361 757.521 523.302V523.319ZM766.091 526V516.525H767.62V517.932H767.761C768.121 516.938 769.009 516.358 770.292 516.358C770.582 516.358 770.907 516.394 771.057 516.42V517.905C770.741 517.853 770.45 517.817 770.116 517.817C768.657 517.817 767.62 518.74 767.62 520.129V526H766.091ZM775.188 526.167C773.386 526.167 772.024 525.077 772.024 523.354V523.337C772.024 521.649 773.272 520.674 775.478 520.542L778.194 520.375V519.514C778.194 518.345 777.482 517.712 776.067 517.712C774.933 517.712 774.186 518.134 773.94 518.872L773.931 518.898H772.402L772.411 518.846C772.657 517.36 774.098 516.358 776.12 516.358C778.431 516.358 779.723 517.545 779.723 519.514V526H778.194V524.603H778.053C777.456 525.613 776.463 526.167 775.188 526.167ZM773.589 523.319C773.589 524.277 774.406 524.84 775.505 524.84C777.06 524.84 778.194 523.82 778.194 522.467V521.605L775.663 521.764C774.221 521.852 773.589 522.361 773.589 523.302V523.319ZM786.061 529.34C783.775 529.34 782.316 528.312 782.079 526.756L782.097 526.747H783.679L783.688 526.756C783.854 527.477 784.698 527.986 786.061 527.986C787.757 527.986 788.768 527.187 788.768 525.789V523.873H788.627C788.029 524.919 786.957 525.508 785.656 525.508C783.204 525.508 781.684 523.609 781.684 520.955V520.938C781.684 518.283 783.213 516.358 785.691 516.358C787.027 516.358 788.064 517.018 788.645 518.09H788.75V516.525H790.279V525.868C790.279 527.986 788.645 529.34 786.061 529.34ZM785.99 524.154C787.748 524.154 788.803 522.836 788.803 520.955V520.938C788.803 519.057 787.739 517.712 785.99 517.712C784.232 517.712 783.248 519.057 783.248 520.938V520.955C783.248 522.836 784.232 524.154 785.99 524.154ZM792.767 526V516.525H794.296V517.932H794.437C794.797 516.938 795.685 516.358 796.968 516.358C797.258 516.358 797.583 516.394 797.733 516.42V517.905C797.416 517.853 797.126 517.817 796.792 517.817C795.333 517.817 794.296 518.74 794.296 520.129V526H792.767ZM801.864 526.167C800.062 526.167 798.7 525.077 798.7 523.354V523.337C798.7 521.649 799.948 520.674 802.154 520.542L804.87 520.375V519.514C804.87 518.345 804.158 517.712 802.743 517.712C801.609 517.712 800.862 518.134 800.616 518.872L800.607 518.898H799.078L799.087 518.846C799.333 517.36 800.774 516.358 802.796 516.358C805.107 516.358 806.399 517.545 806.399 519.514V526H804.87V524.603H804.729C804.132 525.613 803.138 526.167 801.864 526.167ZM800.264 523.319C800.264 524.277 801.082 524.84 802.18 524.84C803.736 524.84 804.87 523.82 804.87 522.467V521.605L802.339 521.764C800.897 521.852 800.264 522.361 800.264 523.302V523.319ZM808.834 529.164V516.525H810.363V518.037H810.504C811.084 516.982 812.139 516.358 813.457 516.358C815.857 516.358 817.43 518.301 817.43 521.254V521.271C817.43 524.242 815.865 526.167 813.457 526.167C812.156 526.167 811.023 525.517 810.504 524.506H810.363V529.164H808.834ZM813.106 524.813C814.837 524.813 815.865 523.478 815.865 521.271V521.254C815.865 519.048 814.837 517.712 813.106 517.712C811.383 517.712 810.328 519.065 810.328 521.254V521.271C810.328 523.46 811.383 524.813 813.106 524.813ZM819.548 526V512.764H821.078V517.949H821.218C821.693 516.947 822.581 516.358 823.978 516.358C826.105 516.358 827.291 517.615 827.291 519.865V526H825.762V520.234C825.762 518.529 825.059 517.712 823.547 517.712C822.036 517.712 821.078 518.731 821.078 520.393V526H819.548Z" fill="#5B5F66"/>
</g>
<g filter="url(#filter3_b_14759_35765)">
<rect x="861" y="488" width="155" height="64" rx="32" fill="url(#paint6_linear_14759_35765)" fill-opacity="0.15"/>
<rect x="861.5" y="488.5" width="154" height="63" rx="31.5" stroke="url(#paint7_linear_14759_35765)" stroke-opacity="0.15"/>
<path d="M891.178 526.299C888.401 526.299 886.608 524.84 886.423 522.774L886.414 522.678H887.996L888.005 522.774C888.119 524.04 889.438 524.84 891.266 524.84C892.988 524.84 894.245 523.952 894.245 522.66V522.651C894.245 521.597 893.516 520.876 891.776 520.489L890.369 520.182C887.829 519.619 886.731 518.45 886.731 516.613V516.604C886.739 514.504 888.576 513.019 891.196 513.019C893.727 513.019 895.493 514.513 895.625 516.402L895.634 516.525H894.052L894.034 516.411C893.859 515.295 892.804 514.469 891.152 514.478C889.57 514.486 888.348 515.233 888.348 516.561V516.569C888.348 517.58 889.042 518.266 890.765 518.644L892.171 518.96C894.817 519.549 895.862 520.612 895.862 522.44V522.449C895.862 524.822 894.008 526.299 891.178 526.299ZM901.119 526.167C898.965 526.167 897.858 524.901 897.858 522.66V516.525H899.387V522.291C899.387 523.996 900.002 524.813 901.514 524.813C903.184 524.813 904.072 523.794 904.072 522.133V516.525H905.601V526H904.072V524.585H903.931C903.465 525.596 902.507 526.167 901.119 526.167ZM912.809 526.167C911.49 526.167 910.435 525.543 909.855 524.488H909.715V526H908.185V512.764H909.715V518.02H909.855C910.374 517.009 911.508 516.358 912.809 516.358C915.217 516.358 916.781 518.283 916.781 521.254V521.271C916.781 524.225 915.208 526.167 912.809 526.167ZM912.457 524.813C914.188 524.813 915.217 523.478 915.217 521.271V521.254C915.217 519.048 914.188 517.712 912.457 517.712C910.734 517.712 909.68 519.065 909.68 521.254V521.271C909.68 523.46 910.734 524.813 912.457 524.813ZM918.662 521.605V520.182H924.569V521.605H918.662ZM927.012 526V512.764H928.542V517.949H928.682C929.157 516.947 930.045 516.358 931.442 516.358C933.569 516.358 934.756 517.615 934.756 519.865V526H933.226V520.234C933.226 518.529 932.523 517.712 931.011 517.712C929.5 517.712 928.542 518.731 928.542 520.393V526H927.012ZM941.031 526.167C938.324 526.167 936.689 524.269 936.689 521.298V521.289C936.689 518.362 938.359 516.358 940.935 516.358C943.51 516.358 945.074 518.274 945.074 521.104V521.702H938.254C938.298 523.662 939.379 524.805 941.066 524.805C942.35 524.805 943.141 524.198 943.396 523.627L943.431 523.548H944.96L944.942 523.618C944.617 524.901 943.264 526.167 941.031 526.167ZM940.926 517.721C939.52 517.721 938.447 518.679 938.28 520.48H943.519C943.36 518.608 942.323 517.721 940.926 517.721ZM949.689 526.167C947.887 526.167 946.525 525.077 946.525 523.354V523.337C946.525 521.649 947.773 520.674 949.979 520.542L952.695 520.375V519.514C952.695 518.345 951.983 517.712 950.568 517.712C949.434 517.712 948.687 518.134 948.441 518.872L948.432 518.898H946.903L946.911 518.846C947.158 517.36 948.599 516.358 950.62 516.358C952.932 516.358 954.224 517.545 954.224 519.514V526H952.695V524.603H952.554C951.956 525.613 950.963 526.167 949.689 526.167ZM948.089 523.319C948.089 524.277 948.907 524.84 950.005 524.84C951.561 524.84 952.695 523.82 952.695 522.467V521.605L950.163 521.764C948.722 521.852 948.089 522.361 948.089 523.302V523.319ZM960.157 526.167C957.758 526.167 956.184 524.225 956.184 521.271V521.254C956.184 518.283 957.749 516.358 960.157 516.358C961.458 516.358 962.592 517.009 963.11 518.02H963.251V512.764H964.78V526H963.251V524.488H963.11C962.53 525.543 961.475 526.167 960.157 526.167ZM960.509 524.813C962.231 524.813 963.286 523.46 963.286 521.271V521.254C963.286 519.065 962.231 517.712 960.509 517.712C958.777 517.712 957.749 519.048 957.749 521.254V521.271C957.749 523.478 958.777 524.813 960.509 524.813ZM971.223 526.167C968.516 526.167 966.881 524.269 966.881 521.298V521.289C966.881 518.362 968.551 516.358 971.126 516.358C973.701 516.358 975.266 518.274 975.266 521.104V521.702H968.445C968.489 523.662 969.57 524.805 971.258 524.805C972.541 524.805 973.332 524.198 973.587 523.627L973.622 523.548H975.151L975.134 523.618C974.809 524.901 973.455 526.167 971.223 526.167ZM971.117 517.721C969.711 517.721 968.639 518.679 968.472 520.48H973.71C973.552 518.608 972.515 517.721 971.117 517.721ZM977.279 526V516.525H978.808V517.932H978.949C979.309 516.938 980.197 516.358 981.48 516.358C981.77 516.358 982.095 516.394 982.245 516.42V517.905C981.928 517.853 981.638 517.817 981.304 517.817C979.845 517.817 978.808 518.74 978.808 520.129V526H977.279ZM986.85 526.167C984.741 526.167 983.291 525.147 983.115 523.583H984.679C984.934 524.374 985.69 524.893 986.903 524.893C988.178 524.893 989.083 524.286 989.083 523.425V523.407C989.083 522.766 988.599 522.317 987.43 522.036L985.963 521.685C984.187 521.263 983.387 520.489 983.387 519.127V519.118C983.387 517.545 984.899 516.358 986.912 516.358C988.898 516.358 990.278 517.352 990.489 518.898H988.986C988.784 518.151 988.046 517.633 986.903 517.633C985.778 517.633 984.952 518.213 984.952 519.048V519.065C984.952 519.707 985.427 520.111 986.543 520.384L988.002 520.735C989.786 521.166 990.647 521.939 990.647 523.293V523.311C990.647 524.998 989.004 526.167 986.85 526.167Z" fill="#5B5F66"/>
</g>
<g filter="url(#filter4_b_14759_35765)">
<rect x="1024" y="488" width="112" height="64" rx="32" fill="url(#paint8_linear_14759_35765)" fill-opacity="0.15"/>
<rect x="1024.5" y="488.5" width="111" height="63" rx="31.5" stroke="url(#paint9_linear_14759_35765)" stroke-opacity="0.15"/>
<path d="M1049.77 526V513.317H1054.62C1056.95 513.317 1058.38 514.539 1058.38 516.473V516.49C1058.38 517.8 1057.41 518.995 1056.19 519.215V519.355C1057.92 519.575 1059.02 520.762 1059.02 522.432V522.449C1059.02 524.673 1057.42 526 1054.72 526H1049.77ZM1054.29 514.715H1051.36V518.784H1053.89C1055.8 518.784 1056.78 518.099 1056.78 516.763V516.745C1056.78 515.462 1055.86 514.715 1054.29 514.715ZM1054.33 520.146H1051.36V524.603H1054.48C1056.39 524.603 1057.39 523.829 1057.39 522.37V522.353C1057.39 520.894 1056.36 520.146 1054.33 520.146ZM1064.22 526.167C1062.07 526.167 1060.96 524.901 1060.96 522.66V516.525H1062.49V522.291C1062.49 523.996 1063.11 524.813 1064.62 524.813C1066.29 524.813 1067.18 523.794 1067.18 522.133V516.525H1068.71V526H1067.18V524.585H1067.04C1066.57 525.596 1065.61 526.167 1064.22 526.167ZM1074.57 526.07C1072.62 526.07 1071.8 525.35 1071.8 523.539V517.791H1070.31V516.525H1071.8V514.073H1073.38V516.525H1075.46V517.791H1073.38V523.152C1073.38 524.269 1073.77 524.717 1074.75 524.717C1075.03 524.717 1075.17 524.708 1075.46 524.682V525.982C1075.16 526.035 1074.87 526.07 1074.57 526.07ZM1080.75 526.07C1078.8 526.07 1077.98 525.35 1077.98 523.539V517.791H1076.48V516.525H1077.98V514.073H1079.56V516.525H1081.63V517.791H1079.56V523.152C1079.56 524.269 1079.95 524.717 1080.93 524.717C1081.2 524.717 1081.35 524.708 1081.63 524.682V525.982C1081.34 526.035 1081.05 526.07 1080.75 526.07ZM1087.31 526.167C1084.61 526.167 1082.94 524.304 1082.94 521.271V521.254C1082.94 518.213 1084.61 516.358 1087.31 516.358C1090.01 516.358 1091.68 518.213 1091.68 521.254V521.271C1091.68 524.304 1090.01 526.167 1087.31 526.167ZM1087.31 524.813C1089.11 524.813 1090.12 523.504 1090.12 521.271V521.254C1090.12 519.013 1089.11 517.712 1087.31 517.712C1085.52 517.712 1084.51 519.013 1084.51 521.254V521.271C1084.51 523.504 1085.52 524.813 1087.31 524.813ZM1093.69 526V516.525H1095.22V517.949H1095.36C1095.84 516.947 1096.73 516.358 1098.12 516.358C1100.25 516.358 1101.44 517.615 1101.44 519.865V526H1099.91V520.234C1099.91 518.529 1099.2 517.712 1097.69 517.712C1096.18 517.712 1095.22 518.731 1095.22 520.393V526H1093.69ZM1107.1 526.167C1104.99 526.167 1103.54 525.147 1103.36 523.583H1104.93C1105.18 524.374 1105.94 524.893 1107.15 524.893C1108.42 524.893 1109.33 524.286 1109.33 523.425V523.407C1109.33 522.766 1108.85 522.317 1107.68 522.036L1106.21 521.685C1104.43 521.263 1103.63 520.489 1103.63 519.127V519.118C1103.63 517.545 1105.15 516.358 1107.16 516.358C1109.15 516.358 1110.53 517.352 1110.74 518.898H1109.23C1109.03 518.151 1108.29 517.633 1107.15 517.633C1106.03 517.633 1105.2 518.213 1105.2 519.048V519.065C1105.2 519.707 1105.67 520.111 1106.79 520.384L1108.25 520.735C1110.03 521.166 1110.89 521.939 1110.89 523.293V523.311C1110.89 524.998 1109.25 526.167 1107.1 526.167Z" fill="#5B5F66"/>
</g>
<path d="M768.688 143.125C754.062 143.125 744.172 135.953 743.328 124.375L743.281 123.719H751.719L751.812 124.375C752.797 131.172 759.359 135.344 769.156 135.344C778.906 135.344 785.047 130.938 785.047 123.953V123.906C785.047 117.953 781.156 114.625 771.875 112.562L764.375 110.922C751.156 108.016 744.969 102.062 744.969 92.1719V92.125C745.016 81.0156 754.859 73.2344 768.781 73.2344C782 73.2344 791.656 80.875 792.406 91.9375L792.453 92.6406H784.016L783.922 91.9844C782.891 85.0938 777.125 81.0156 768.547 81.0156C759.5 81.0625 753.594 85.375 753.594 91.8906V91.9375C753.594 97.4688 757.672 100.938 766.484 102.859L773.984 104.5C787.859 107.547 793.672 113.172 793.672 123.484V123.531C793.672 135.531 784.156 143.125 768.688 143.125ZM816.547 142.938C806.844 142.938 800.328 137.078 800.328 128.219V128.125C800.328 119.828 806.797 114.625 818 113.969L831.969 113.172V109.094C831.969 103.141 828.078 99.5312 821.281 99.5312C815 99.5312 811.062 102.531 810.125 106.891L810.031 107.312H802.156L802.203 106.797C802.906 98.7812 809.891 92.3125 821.375 92.3125C832.906 92.3125 840.125 98.5469 840.125 108.297V142H831.969V134.078H831.781C828.922 139.422 823.062 142.938 816.547 142.938ZM808.672 128.219C808.672 132.906 812.516 135.859 818.375 135.859C826.062 135.859 831.969 130.562 831.969 123.484V119.5L818.938 120.297C812.422 120.672 808.672 123.578 808.672 128.125V128.219ZM850.484 142V93.25H858.641V100.188H858.828C861.453 95.6406 866.422 92.3125 873.828 92.3125C884.516 92.3125 890.703 99.25 890.703 110.359V142H882.547V111.812C882.547 103.891 878.844 99.5312 871.344 99.5312C863.656 99.5312 858.641 105.016 858.641 113.312V142H850.484ZM746.562 238V170.359H787.625V177.953H755V201.203H784.953V208.703H755V238H746.562ZM796.016 238V189.25H804.172V197.5H804.359C806 191.875 810.219 188.312 815.703 188.312C817.109 188.312 818.328 188.547 818.984 188.641V196.562C818.328 196.328 816.594 196.094 814.625 196.094C808.297 196.094 804.172 200.5 804.172 207.906V238H796.016ZM838.953 238.938C829.25 238.938 822.734 233.078 822.734 224.219V224.125C822.734 215.828 829.203 210.625 840.406 209.969L854.375 209.172V205.094C854.375 199.141 850.484 195.531 843.688 195.531C837.406 195.531 833.469 198.531 832.531 202.891L832.438 203.312H824.562L824.609 202.797C825.312 194.781 832.297 188.312 843.781 188.312C855.312 188.312 862.531 194.547 862.531 204.297V238H854.375V230.078H854.188C851.328 235.422 845.469 238.938 838.953 238.938ZM831.078 224.219C831.078 228.906 834.922 231.859 840.781 231.859C848.469 231.859 854.375 226.562 854.375 219.484V215.5L841.344 216.297C834.828 216.672 831.078 219.578 831.078 224.125V224.219ZM872.891 238V189.25H881.047V196.188H881.234C883.859 191.641 888.828 188.312 896.234 188.312C906.922 188.312 913.109 195.25 913.109 206.359V238H904.953V207.812C904.953 199.891 901.25 195.531 893.75 195.531C886.062 195.531 881.047 201.016 881.047 209.312V238H872.891ZM943.719 238.938C929.891 238.938 921.125 229.094 921.125 213.578V213.531C921.125 198.156 930.078 188.312 943.625 188.312C955.766 188.312 962.938 196.375 963.969 204.719L964.016 205.094H956.047L955.953 204.719C954.734 199.844 950.797 195.531 943.625 195.531C935.141 195.531 929.469 202.562 929.469 213.625V213.672C929.469 225.016 935.281 231.719 943.719 231.719C950.375 231.719 954.641 227.969 956 222.531L956.094 222.156H964.109L964.062 222.484C962.75 231.766 954.734 238.938 943.719 238.938ZM976.203 181C973.391 181 971.094 178.703 971.094 175.891C971.094 173.031 973.391 170.781 976.203 170.781C979.062 170.781 981.312 173.031 981.312 175.891C981.312 178.703 979.062 181 976.203 181ZM972.125 238V189.25H980.281V238H972.125ZM1008.69 238.938C997.203 238.938 990.266 233.078 989.281 224.359L989.234 223.938H997.391L997.484 224.406C998.469 229.281 1002.08 232.141 1008.73 232.141C1015.34 232.141 1019.28 229.375 1019.28 224.969V224.922C1019.28 221.406 1017.45 219.438 1011.92 218.078L1004.19 216.203C995 214 990.547 209.734 990.547 202.703V202.656C990.547 194.266 997.906 188.312 1008.45 188.312C1019.14 188.312 1025.94 194.547 1026.55 202.703L1026.59 203.312H1018.81L1018.77 202.984C1018.11 198.25 1014.5 195.109 1008.45 195.109C1002.55 195.109 998.891 197.969 998.891 202.281V202.328C998.891 205.656 1001.09 207.953 1006.48 209.266L1014.22 211.141C1024.06 213.531 1027.62 217.422 1027.62 224.359V224.406C1027.62 232.938 1019.56 238.938 1008.69 238.938ZM1056.31 238.938C1042.48 238.938 1033.72 229.094 1033.72 213.578V213.531C1033.72 198.156 1042.67 188.312 1056.22 188.312C1068.36 188.312 1075.53 196.375 1076.56 204.719L1076.61 205.094H1068.64L1068.55 204.719C1067.33 199.844 1063.39 195.531 1056.22 195.531C1047.73 195.531 1042.06 202.562 1042.06 213.625V213.672C1042.06 225.016 1047.88 231.719 1056.31 231.719C1062.97 231.719 1067.23 227.969 1068.59 222.531L1068.69 222.156H1076.7L1076.66 222.484C1075.34 231.766 1067.33 238.938 1056.31 238.938ZM1104.41 238.938C1090.86 238.938 1081.81 229.141 1081.81 213.625V213.531C1081.81 198.016 1090.91 188.312 1104.36 188.312C1117.81 188.312 1126.95 197.969 1126.95 213.531V213.625C1126.95 229.188 1117.86 238.938 1104.41 238.938ZM1104.45 231.719C1113.03 231.719 1118.61 225.062 1118.61 213.625V213.531C1118.61 202.094 1112.98 195.531 1104.36 195.531C1095.88 195.531 1090.16 202.141 1090.16 213.531V213.625C1090.16 225.109 1095.83 231.719 1104.45 231.719ZM746.562 334V266.359H770.656C783.359 266.359 792.359 275.125 792.359 287.969V288.062C792.359 300.906 783.359 309.859 770.656 309.859H755V334H746.562ZM768.5 273.859H755V302.359H768.5C778.156 302.359 783.734 297.062 783.734 288.156V288.062C783.734 279.156 778.156 273.859 768.5 273.859ZM800.797 334V285.25H808.953V293.5H809.141C810.781 287.875 815 284.312 820.484 284.312C821.891 284.312 823.109 284.547 823.766 284.641V292.562C823.109 292.328 821.375 292.094 819.406 292.094C813.078 292.094 808.953 296.5 808.953 303.906V334H800.797ZM848.281 334.938C834.734 334.938 825.688 325.141 825.688 309.625V309.531C825.688 294.016 834.781 284.312 848.234 284.312C861.688 284.312 870.828 293.969 870.828 309.531V309.625C870.828 325.188 861.734 334.938 848.281 334.938ZM848.328 327.719C856.906 327.719 862.484 321.062 862.484 309.625V309.531C862.484 298.094 856.859 291.531 848.234 291.531C839.75 291.531 834.031 298.141 834.031 309.531V309.625C834.031 321.109 839.703 327.719 848.328 327.719Z" fill="#202226"/>
<defs>
<filter id="filter0_b_14759_35765" x="8" y="448" width="209" height="144" filterUnits="userSpaceOnUse" color-interpolation-filters="sRGB">
<feFlood flood-opacity="0" result="BackgroundImageFix"/>
<feGaussianBlur in="BackgroundImageFix" stdDeviation="20"/>
<feComposite in2="SourceAlpha" operator="in" result="effect1_backgroundBlur_14759_35765"/>
<feBlend mode="normal" in="SourceGraphic" in2="effect1_backgroundBlur_14759_35765" result="shape"/>
</filter>
<filter id="filter1_b_14759_35765" x="145" y="448" width="203" height="144" filterUnits="userSpaceOnUse" color-interpolation-filters="sRGB">
<feFlood flood-opacity="0" result="BackgroundImageFix"/>
<feGaussianBlur in="BackgroundImageFix" stdDeviation="20"/>
<feComposite in2="SourceAlpha" operator="in" result="effect1_backgroundBlur_14759_35765"/>
<feBlend mode="normal" in="SourceGraphic" in2="effect1_backgroundBlur_14759_35765" result="shape"/>
</filter>
<filter id="filter2_b_14759_35765" x="680" y="448" width="213" height="144" filterUnits="userSpaceOnUse" color-interpolation-filters="sRGB">
<feFlood flood-opacity="0" result="BackgroundImageFix"/>
<feGaussianBlur in="BackgroundImageFix" stdDeviation="20"/>
<feComposite in2="SourceAlpha" operator="in" result="effect1_backgroundBlur_14759_35765"/>
<feBlend mode="normal" in="SourceGraphic" in2="effect1_backgroundBlur_14759_35765" result="shape"/>
</filter>
<filter id="filter3_b_14759_35765" x="821" y="448" width="235" height="144" filterUnits="userSpaceOnUse" color-interpolation-filters="sRGB">
<feFlood flood-opacity="0" result="BackgroundImageFix"/>
<feGaussianBlur in="BackgroundImageFix" stdDeviation="20"/>
<feComposite in2="SourceAlpha" operator="in" result="effect1_backgroundBlur_14759_35765"/>
<feBlend mode="normal" in="SourceGraphic" in2="effect1_backgroundBlur_14759_35765" result="shape"/>
</filter>
<filter id="filter4_b_14759_35765" x="984" y="448" width="192" height="144" filterUnits="userSpaceOnUse" color-interpolation-filters="sRGB">
<feFlood flood-opacity="0" result="BackgroundImageFix"/>
<feGaussianBlur in="BackgroundImageFix" stdDeviation="20"/>
<feComposite in2="SourceAlpha" operator="in" result="effect1_backgroundBlur_14759_35765"/>
<feBlend mode="normal" in="SourceGraphic" in2="effect1_backgroundBlur_14759_35765" result="shape"/>
</filter>
<linearGradient id="paint0_linear_14759_35765" x1="89.8379" y1="451.2" x2="171.231" y2="558.883" gradientUnits="userSpaceOnUse">
<stop stop-color="#B6C0C9"/>
<stop offset="1" stop-color="#EFEFEF" stop-opacity="0.5"/>
</linearGradient>
<linearGradient id="paint1_linear_14759_35765" x1="65.8866" y1="484.5" x2="121.82" y2="537.783" gradientUnits="userSpaceOnUse">
<stop stop-color="#D1D7E0"/>
<stop offset="1" stop-color="#D9DFE7" stop-opacity="0.15"/>
</linearGradient>
<linearGradient id="paint2_linear_14759_35765" x1="224.892" y1="451.2" x2="307.262" y2="555.107" gradientUnits="userSpaceOnUse">
<stop stop-color="#B6C0C9"/>
<stop offset="1" stop-color="#EFEFEF" stop-opacity="0.5"/>
</linearGradient>
<linearGradient id="paint3_linear_14759_35765" x1="202.055" y1="484.5" x2="257.796" y2="535.13" gradientUnits="userSpaceOnUse">
<stop stop-color="#D1D7E0"/>
<stop offset="1" stop-color="#D9DFE7" stop-opacity="0.15"/>
</linearGradient>
<linearGradient id="paint4_linear_14759_35765" x1="763.135" y1="451.2" x2="843.818" y2="561.254" gradientUnits="userSpaceOnUse">
<stop stop-color="#B6C0C9"/>
<stop offset="1" stop-color="#EFEFEF" stop-opacity="0.5"/>
</linearGradient>
<linearGradient id="paint5_linear_14759_35765" x1="738.441" y1="484.5" x2="794.431" y2="539.491" gradientUnits="userSpaceOnUse">
<stop stop-color="#D1D7E0"/>
<stop offset="1" stop-color="#D9DFE7" stop-opacity="0.15"/>
</linearGradient>
<linearGradient id="paint6_linear_14759_35765" x1="911.27" y1="451.2" x2="987.533" y2="572.43" gradientUnits="userSpaceOnUse">
<stop stop-color="#B6C0C9"/>
<stop offset="1" stop-color="#EFEFEF" stop-opacity="0.5"/>
</linearGradient>
<linearGradient id="paint7_linear_14759_35765" x1="882.492" y1="484.5" x2="937.984" y2="548.017" gradientUnits="userSpaceOnUse">
<stop stop-color="#D1D7E0"/>
<stop offset="1" stop-color="#D9DFE7" stop-opacity="0.15"/>
</linearGradient>
<linearGradient id="paint8_linear_14759_35765" x1="1060.32" y1="451.2" x2="1144.12" y2="547.453" gradientUnits="userSpaceOnUse">
<stop stop-color="#B6C0C9"/>
<stop offset="1" stop-color="#EFEFEF" stop-opacity="0.5"/>
</linearGradient>
<linearGradient id="paint9_linear_14759_35765" x1="1039.53" y1="484.5" x2="1094.53" y2="529.993" gradientUnits="userSpaceOnUse">
<stop stop-color="#D1D7E0"/>
<stop offset="1" stop-color="#D9DFE7" stop-opacity="0.15"/>
</linearGradient>
<clipPath id="clip0_14759_35765">
<rect width="640" height="600" rx="40" fill="white"/>
</clipPath>
</defs>
</svg>
