<svg width="1312" height="488" viewBox="0 0 1312 488" fill="none" xmlns="http://www.w3.org/2000/svg">
<rect width="1312" height="488" rx="40" fill="white"/>
<path fill-rule="evenodd" clip-rule="evenodd" d="M140.492 100.197L149.312 91.3764L146.956 89.0195L135.778 100.197L146.956 111.375L149.312 109.018L140.492 100.197Z" fill="#202226"/>
<path fill-rule="evenodd" clip-rule="evenodd" d="M240.923 100.194L232.102 91.3725L234.458 89.0156L245.636 100.194L234.458 111.371L232.102 109.014L240.923 100.194Z" fill="#202226"/>
<path fill-rule="evenodd" clip-rule="evenodd" d="M330.189 103.919L339.01 95.0977L341.367 97.4545L330.189 108.632L319.011 97.4545L321.368 95.0977L330.189 103.919Z" fill="#202226"/>
<path fill-rule="evenodd" clip-rule="evenodd" d="M423.189 96.472L432.01 105.293L434.367 102.936L423.189 91.7582L412.011 102.936L414.368 105.293L423.189 96.472Z" fill="#202226"/>
<path d="M516.192 97.8394L524.442 89.5898L526.798 91.9464L518.549 100.196L526.798 108.445L524.442 110.802L516.192 102.552L507.942 110.802L505.586 108.445L513.835 100.196L505.586 91.9464L507.942 89.5898L516.192 97.8394Z" fill="#202226"/>
<path fill-rule="evenodd" clip-rule="evenodd" d="M621.84 92.8491L603.996 110.693L594.484 101.182L596.841 98.8251L603.996 105.979L619.483 90.4922L621.84 92.8491Z" fill="#202226"/>
<g clip-path="url(#clip0_14759_35796)">
<path d="M713.662 91.6681H721.995V95.0014H713.662V91.6681ZM710.328 100.001H721.995V103.335H710.328V100.001ZM715.328 108.335H721.995V111.668H715.328V108.335ZM685.328 116.668C685.328 113.132 686.733 109.741 689.233 107.24C691.734 104.74 695.125 103.335 698.662 103.335C702.198 103.335 705.589 104.74 708.09 107.24C710.59 109.741 711.995 113.132 711.995 116.668H708.662C708.662 114.016 707.608 111.473 705.733 109.597C703.857 107.722 701.314 106.668 698.662 106.668C696.009 106.668 693.466 107.722 691.59 109.597C689.715 111.473 688.661 114.016 688.661 116.668H685.328ZM698.662 101.668C693.137 101.668 688.661 97.1931 688.661 91.6681C688.661 86.143 693.137 81.668 698.662 81.668C704.187 81.668 708.662 86.143 708.662 91.6681C708.662 97.1931 704.187 101.668 698.662 101.668ZM698.662 98.3348C702.345 98.3348 705.328 95.3514 705.328 91.6681C705.328 87.9847 702.345 85.0013 698.662 85.0013C694.978 85.0013 691.995 87.9847 691.995 91.6681C691.995 95.3514 694.978 98.3348 698.662 98.3348Z" fill="#202226"/>
</g>
<path fill-rule="evenodd" clip-rule="evenodd" d="M784.985 91.6759C784.985 86.153 789.463 81.6758 794.986 81.6758C800.508 81.6758 804.986 86.153 804.986 91.6759V95.01H804.992C807.754 95.01 809.992 97.2486 809.992 100.01V113.343C809.992 116.105 807.754 118.343 804.992 118.343H784.992C782.231 118.343 779.992 116.105 779.992 113.343V100.01C779.992 97.2508 782.227 95.0137 784.985 95.01V91.6759ZM794.986 85.0091C791.304 85.0091 788.319 87.9939 788.319 91.6759V95.0092H801.652V91.6759C801.652 87.9939 798.667 85.0091 794.986 85.0091ZM784.992 98.3433C784.072 98.3433 783.326 99.0895 783.326 100.01V113.343C783.326 114.264 784.072 115.01 784.992 115.01H804.992C805.913 115.01 806.659 114.264 806.659 113.343V100.01C806.659 99.0895 805.913 98.3433 804.992 98.3433H784.992ZM789.985 108.337V105.007H786.652V108.337H789.985ZM793.327 105.007H796.66V108.337H793.327V105.007ZM803.325 105.007H799.991V108.337H803.325V105.007Z" fill="#202226"/>
<path d="M901.313 108.336H904.646V111.67H871.312V108.336H874.646V96.6694C874.646 93.1331 876.051 89.7417 878.551 87.2412C881.052 84.7407 884.443 83.3359 887.979 83.3359C891.516 83.3359 894.907 84.7407 897.407 87.2412C899.908 89.7417 901.313 93.1331 901.313 96.6694V108.336ZM897.979 108.336V96.6694C897.979 94.0172 896.926 91.4736 895.05 89.5983C893.175 87.7229 890.631 86.6693 887.979 86.6693C885.327 86.6693 882.784 87.7229 880.908 89.5983C879.033 91.4736 877.979 94.0172 877.979 96.6694V108.336H897.979ZM882.979 115.003H892.979V118.336H882.979V115.003Z" fill="#202226"/>
<path fill-rule="evenodd" clip-rule="evenodd" d="M965.984 88.336C965.984 85.5745 968.223 83.3359 970.984 83.3359H987.651C990.413 83.3359 992.651 85.5745 992.651 88.336V90.0027H989.318V88.336C989.318 87.4155 988.572 86.6693 987.651 86.6693H970.984C970.064 86.6693 969.318 87.4155 969.318 88.336V111.67C969.318 112.59 970.064 113.336 970.984 113.336H987.651C988.572 113.336 989.318 112.59 989.318 111.67V110.003H992.651V111.67C992.651 114.431 990.413 116.67 987.651 116.67H970.984C968.223 116.67 965.984 114.431 965.984 111.67V88.336ZM988.83 92.1575L996.675 100.003L988.83 107.848L986.473 105.491L990.294 101.669H979.318V98.3361H990.294L986.473 94.5145L988.83 92.1575Z" fill="#202226"/>
<path fill-rule="evenodd" clip-rule="evenodd" d="M1080.46 84.5114C1082.41 82.5587 1085.58 82.5587 1087.53 84.5114L1089.48 86.464C1091.44 88.4166 1091.44 91.5825 1089.48 93.5351L1066.84 116.178C1066.53 116.491 1066.1 116.666 1065.66 116.666H1058.99C1058.07 116.666 1057.33 115.92 1057.33 115V108.333C1057.33 107.891 1057.5 107.467 1057.82 107.155L1080.46 84.5114ZM1085.17 86.8684C1084.52 86.2175 1083.47 86.2175 1082.82 86.8684L1081.35 88.3329L1085.66 92.6426L1087.13 91.1781C1087.78 90.5272 1087.78 89.4719 1087.13 88.821L1085.17 86.8684ZM1083.3 94.9996L1078.99 90.6899L1060.66 109.023V113.333H1064.97L1083.3 94.9996Z" fill="#202226"/>
<path fill-rule="evenodd" clip-rule="evenodd" d="M1150.34 88.3321C1150.34 85.5706 1152.57 83.332 1155.34 83.332H1178.67C1181.43 83.332 1183.67 85.5706 1183.67 88.3321V99.9863C1183.67 99.9942 1183.67 100.002 1183.67 100.01V111.666C1183.67 114.427 1181.43 116.666 1178.67 116.666H1155.34C1152.57 116.666 1150.34 114.427 1150.34 111.666V108.371C1150.34 108.345 1150.34 108.319 1150.34 108.294V88.3321ZM1153.67 109.534V111.666C1153.67 112.586 1154.42 113.332 1155.34 113.332H1178.67C1179.59 113.332 1180.34 112.586 1180.34 111.666V103.557L1173.07 109.613C1172.63 109.982 1172.02 110.096 1171.48 109.914L1162 106.756L1153.67 109.534ZM1180.34 99.2184L1171.65 106.458L1162.53 103.418C1162.19 103.304 1161.82 103.304 1161.48 103.418L1153.67 106.02V88.3321C1153.67 87.4116 1154.42 86.6654 1155.34 86.6654H1178.67C1179.59 86.6654 1180.34 87.4116 1180.34 88.3321V99.2184ZM1162 93.3351C1161.08 93.3351 1160.33 94.0813 1160.33 95.0017C1160.33 95.9222 1161.08 96.6684 1162 96.6684C1162.92 96.6684 1163.67 95.9222 1163.67 95.0017C1163.67 94.0813 1162.92 93.3351 1162 93.3351ZM1157 95.0017C1157 92.2403 1159.24 90.0017 1162 90.0017C1164.76 90.0017 1167 92.2403 1167 95.0017C1167 97.7632 1164.76 100.002 1162 100.002C1159.24 100.002 1157 97.7632 1157 95.0017Z" fill="#202226"/>
<path fill-rule="evenodd" clip-rule="evenodd" d="M158.988 195.996C158.988 204.28 152.272 210.996 143.989 210.996C135.705 210.996 128.989 204.28 128.989 195.996C128.989 187.713 135.705 180.997 143.989 180.997C152.272 180.997 158.988 187.713 158.988 195.996ZM162.321 195.996C162.321 206.121 154.113 214.329 143.989 214.329C133.864 214.329 125.656 206.121 125.656 195.996C125.656 185.872 133.864 177.664 143.989 177.664C154.113 177.664 162.321 185.872 162.321 195.996ZM142.672 203.006L154.338 191.34L151.981 188.983L141.493 199.471L136.006 193.983L133.649 196.34L140.315 203.006L141.493 204.185L142.672 203.006Z" fill="#202226"/>
<path d="M235.336 194.336V184.336H238.669V194.336H248.669V197.669H238.669V207.669H235.336V197.669H225.336V194.336H235.336Z" fill="#202226"/>
<path fill-rule="evenodd" clip-rule="evenodd" d="M331.167 183.159L329.988 181.98L328.81 183.159L320.477 191.492L322.834 193.849L329.988 186.695L337.143 193.849L339.5 191.492L331.167 183.159ZM331.167 208.847L329.988 210.026L328.81 208.847L320.477 200.514L322.834 198.157L329.988 205.311L337.143 198.157L339.5 200.514L331.167 208.847Z" fill="#202226"/>
<path d="M423.003 212.67C413.798 212.67 406.336 205.208 406.336 196.003C406.336 186.798 413.798 179.336 423.003 179.336C432.208 179.336 439.67 186.798 439.67 196.003C439.67 205.208 432.208 212.67 423.003 212.67ZM423.003 193.646L418.289 188.931L415.931 191.289L420.646 196.003L415.931 200.716L418.289 203.074L423.003 198.359L427.716 203.074L430.074 200.716L425.359 196.003L430.074 191.289L427.716 188.931L423.003 193.646Z" fill="#202226"/>
<path fill-rule="evenodd" clip-rule="evenodd" d="M526.002 182.665H512.669C511.748 182.665 511.002 183.412 511.002 184.332V184.336H507.669V184.332C507.669 181.571 509.907 179.332 512.669 179.332H526.002C528.763 179.332 531.002 181.571 531.002 184.332V200.999C531.002 203.76 528.763 205.999 526.002 205.999H525.998V202.666H526.002C526.922 202.666 527.669 201.919 527.669 200.999V184.332C527.669 183.412 526.922 182.665 526.002 182.665ZM506.008 189.33H519.341C520.262 189.33 521.008 190.076 521.008 190.996V207.663C521.008 208.584 520.262 209.33 519.341 209.33H506.008C505.087 209.33 504.341 208.584 504.341 207.663V190.996C504.341 190.076 505.087 189.33 506.008 189.33ZM501.008 190.996C501.008 188.235 503.246 185.996 506.008 185.996H519.341C522.103 185.996 524.341 188.235 524.341 190.996V207.663C524.341 210.425 522.103 212.663 519.341 212.663H506.008C503.246 212.663 501.008 210.425 501.008 207.663V190.996Z" fill="#202226"/>
<path fill-rule="evenodd" clip-rule="evenodd" d="M595.672 185.997H612.339C613.259 185.997 614.005 186.744 614.005 187.664V193.554C614.003 193.601 614.002 193.649 614.002 193.698V198.304C614.002 198.353 614.003 198.401 614.005 198.448V204.331C614.005 205.251 613.259 205.998 612.339 205.998H595.672C594.751 205.998 594.005 205.251 594.005 204.331V187.664C594.005 186.744 594.751 185.997 595.672 185.997ZM617.339 202.033V204.331C617.339 207.092 615.1 209.331 612.339 209.331H595.672C592.91 209.331 590.672 207.092 590.672 204.331V187.664C590.672 184.903 592.91 182.664 595.672 182.664H612.339C615.1 182.664 617.339 184.903 617.339 187.664V189.969L624.924 186.177C625.44 185.919 626.054 185.946 626.545 186.25C627.037 186.554 627.336 187.09 627.336 187.668V204.334C627.336 204.912 627.037 205.448 626.545 205.752C626.054 206.056 625.44 206.083 624.924 205.825L617.339 202.033ZM617.339 198.306L624.002 201.638V190.364L617.339 193.696V198.306Z" fill="#202226"/>
<path fill-rule="evenodd" clip-rule="evenodd" d="M705.34 186.74C705.34 182.648 708.656 179.332 712.748 179.332C713.259 179.332 713.673 179.747 713.673 180.258V189.334H713.677V212.668H710.344V199.332H707.562C706.335 199.332 705.34 198.337 705.34 197.11V186.74ZM695.348 179.332V190.995H697.016V179.332H700.349V190.999C700.349 194.106 698.224 196.716 695.348 197.456V212.666H692.015V197.455C689.14 196.715 687.016 194.105 687.016 190.999V179.332H690.349V190.995H692.015V179.332H695.348Z" fill="#202226"/>
<path fill-rule="evenodd" clip-rule="evenodd" d="M796.681 179.34H793.348V182.775C786.77 183.595 781.68 189.206 781.68 196.006V196.561C781.68 198.095 782.923 199.339 784.457 199.339H805.569C807.103 199.339 808.347 198.095 808.347 196.561V196.006C808.347 189.207 803.258 183.596 796.681 182.775V179.34ZM795.013 186.005C800.536 186.005 805.013 190.483 805.013 196.006L785.013 196.006C785.013 190.483 789.49 186.005 795.013 186.005ZM785.012 202.671H788.345V206.004H785.012V202.671ZM788.345 209.34H785.012V212.674H788.345V209.34ZM793.348 202.671H796.681V206.004H793.348V202.671ZM796.681 209.34H793.348V212.674H796.681V209.34ZM801.684 202.671H805.017V206.004H801.684V202.671ZM805.017 209.34H801.684V212.674H805.017V209.34Z" fill="#202226"/>
<path fill-rule="evenodd" clip-rule="evenodd" d="M899.675 181L882.265 181L876.341 184.554L876.341 186L893.006 186L893.006 181.001L896.339 181.001L896.339 186L899.675 186L899.675 181ZM873.008 186C873.008 187.841 874.5 189.334 876.341 189.334L883.015 189.334L883.015 209.336C883.015 212.097 885.253 214.336 888.015 214.336C890.776 214.336 893.015 212.097 893.015 209.336L893.015 189.334L899.675 189.334C901.516 189.334 903.008 187.841 903.008 186L903.008 181C903.008 179.159 901.516 177.667 899.675 177.667L882.265 177.667C881.66 177.667 881.068 177.831 880.549 178.142L874.626 181.696C873.622 182.298 873.008 183.383 873.008 184.554L873.008 186ZM889.682 189.336L889.682 209.336C889.682 210.256 888.935 211.003 888.015 211.003C887.094 211.003 886.348 210.256 886.348 209.336L886.348 189.336L889.682 189.336Z" fill="#202226"/>
<path fill-rule="evenodd" clip-rule="evenodd" d="M977.789 179.332C976.117 179.332 974.556 180.168 973.629 181.559L972.275 183.59C971.966 184.054 971.445 184.332 970.888 184.332H967.672C964.91 184.332 962.672 186.571 962.672 189.332V207.666C962.672 210.427 964.91 212.666 967.672 212.666H994.339C997.1 212.666 999.339 210.427 999.339 207.666V189.332C999.339 186.571 997.1 184.332 994.339 184.332H991.123C990.565 184.332 990.045 184.054 989.736 183.59L988.382 181.559C987.454 180.168 985.893 179.332 984.221 179.332H977.789ZM976.403 183.408C976.712 182.944 977.232 182.665 977.789 182.665H984.221C984.779 182.665 985.299 182.944 985.608 183.408L986.962 185.439C987.89 186.83 989.451 187.665 991.123 187.665H994.339C995.259 187.665 996.005 188.412 996.005 189.332V207.666C996.005 208.586 995.259 209.332 994.339 209.332H967.672C966.751 209.332 966.005 208.586 966.005 207.666V189.332C966.005 188.412 966.751 187.665 967.672 187.665H970.888C972.56 187.665 974.121 186.83 975.048 185.439L976.403 183.408ZM986.008 197.663C986.008 200.424 983.769 202.663 981.008 202.663C978.246 202.663 976.008 200.424 976.008 197.663C976.008 194.901 978.246 192.663 981.008 192.663C983.769 192.663 986.008 194.901 986.008 197.663ZM989.341 197.663C989.341 202.265 985.61 205.996 981.008 205.996C976.405 205.996 972.674 202.265 972.674 197.663C972.674 193.06 976.405 189.329 981.008 189.329C985.61 189.329 989.341 193.06 989.341 197.663Z" fill="#202226"/>
<path fill-rule="evenodd" clip-rule="evenodd" d="M1075.19 179.827L1074.01 178.648L1072.83 179.827L1064.5 188.16L1066.85 190.517L1072.34 185.029V197.67H1067.35V194.341H1062.34C1059.58 194.341 1057.34 196.58 1057.34 199.341V207.674C1057.34 210.436 1059.58 212.674 1062.34 212.674H1085.68C1088.44 212.674 1090.68 210.436 1090.68 207.674V199.341C1090.68 196.58 1088.44 194.341 1085.68 194.341H1080.68V197.67H1075.68V185.029L1081.16 190.517L1083.52 188.16L1075.19 179.827ZM1072.34 197.674V202.672H1075.68V197.674H1085.68C1086.6 197.674 1087.34 198.42 1087.34 199.341V207.674C1087.34 208.595 1086.6 209.341 1085.68 209.341H1062.34C1061.42 209.341 1060.68 208.595 1060.68 207.674V199.341C1060.68 198.42 1061.42 197.674 1062.34 197.674H1072.34Z" fill="#202226"/>
<rect x="1153.66" y="182.664" width="26.6669" height="30.0002" rx="3.33336" stroke="#202226" stroke-width="3.33336"/>
<path fill-rule="evenodd" clip-rule="evenodd" d="M1161.99 194.34H1158.66V197.673H1161.99V194.34ZM1161.99 202.676H1158.66V206.009H1161.99V202.676ZM1165.32 194.34H1175.32V197.673H1165.32V194.34ZM1175.32 202.676H1165.32V206.009H1175.32V202.676Z" fill="#202226"/>
<path d="M1166.99 176C1165.44 176 1164.13 177.066 1163.76 178.508C1163.65 178.954 1163.28 179.323 1162.84 179.436C1161.39 179.803 1160.33 181.11 1160.33 182.667V186C1160.33 186.921 1161.07 187.667 1161.99 187.667H1171.99C1172.92 187.667 1173.66 186.921 1173.66 186V182.667C1173.66 181.11 1172.6 179.803 1171.15 179.436C1170.71 179.323 1170.34 178.954 1170.23 178.508C1169.86 177.066 1168.55 176 1166.99 176Z" fill="#202226"/>
<g clip-path="url(#clip1_14759_35796)">
<path fill-rule="evenodd" clip-rule="evenodd" d="M126.334 274.633L130.371 278.67C130.467 278.664 130.565 278.661 130.663 278.661H147.33C150.091 278.661 152.33 280.9 152.33 283.661V285.967L159.915 282.174C160.431 281.916 161.045 281.944 161.536 282.247C162.028 282.551 162.327 283.087 162.327 283.665V300.332C162.327 300.909 162.028 301.446 161.536 301.75C161.045 302.053 160.431 302.081 159.915 301.823L152.33 298.03V300.328C152.33 300.426 152.327 300.524 152.322 300.621L156.35 304.65L153.993 307.007L151.859 304.872L151.867 304.864L124.644 277.641L124.636 277.649L123.977 276.99L126.334 274.633ZM125.671 283.382C125.666 283.474 125.663 283.568 125.663 283.661V300.328C125.663 303.09 127.902 305.328 130.663 305.328H147.33C147.424 305.328 147.517 305.326 147.61 305.321L144.284 301.995H130.663C129.743 301.995 128.996 301.249 128.996 300.328V286.707L125.671 283.382ZM133.696 281.995L148.997 297.296V294.446C148.994 294.398 148.993 294.35 148.993 294.302V289.695C148.993 289.647 148.994 289.599 148.997 289.551V283.661C148.997 282.741 148.25 281.995 147.33 281.995H133.696ZM152.33 294.303L158.994 297.635V286.362L152.33 289.694V294.303Z" fill="#202226"/>
</g>
<path fill-rule="evenodd" clip-rule="evenodd" d="M228.672 283.665C228.672 279.063 232.403 275.332 237.006 275.332C241.608 275.332 245.339 279.063 245.339 283.665V290.332C245.339 294.935 241.608 298.666 237.006 298.666C232.403 298.666 228.672 294.935 228.672 290.332V283.665ZM237.006 278.665C234.244 278.665 232.006 280.904 232.006 283.665V290.332C232.006 293.094 234.244 295.332 237.006 295.332C239.767 295.332 242.006 293.094 242.006 290.332V283.665C242.006 280.904 239.767 278.665 237.006 278.665ZM225.341 290.333C225.341 296.776 230.565 302 237.008 302C243.451 302 248.675 296.776 248.675 290.333H252.008C252.008 298.055 246.172 304.415 238.67 305.242V308.662H235.337V305.241C227.839 304.41 222.008 298.052 222.008 290.333H225.341Z" fill="#202226"/>
<path fill-rule="evenodd" clip-rule="evenodd" d="M318.048 273.672L323.211 278.835C324.723 276.719 327.199 275.339 329.998 275.339C334.6 275.339 338.331 279.07 338.331 283.672V290.339C338.331 291.413 338.128 292.439 337.758 293.382L340.265 295.889C341.159 294.239 341.667 292.349 341.667 290.34H345C345 293.275 344.157 296.012 342.701 298.325L348.218 303.842L345.861 306.199L340.608 300.946C340.606 300.947 340.605 300.948 340.604 300.949L338.247 298.592C338.248 298.591 338.249 298.59 338.251 298.589L335.892 296.23C335.891 296.231 335.89 296.233 335.888 296.234L333.531 293.877C333.533 293.875 333.534 293.874 333.535 293.873L324.998 285.336V285.343L321.803 282.149C321.804 282.147 321.804 282.145 321.805 282.143L315.691 276.029L318.048 273.672ZM321.665 286.724V290.339C321.665 294.941 325.396 298.672 329.998 298.672C331.072 298.672 332.098 298.469 333.04 298.1L330.272 295.332C330.181 295.337 330.09 295.339 329.998 295.339C327.236 295.339 324.998 293.101 324.998 290.339V290.057L321.665 286.724ZM335.547 300.606C333.897 301.499 332.008 302.007 330 302.007C323.557 302.007 318.333 296.783 318.333 290.34H315C315 298.059 320.831 304.417 328.329 305.248V308.669H331.662V305.249C333.967 304.995 336.114 304.219 337.983 303.042L335.547 300.606ZM325.624 281.248L334.991 290.614C334.995 290.523 334.998 290.431 334.998 290.339V283.672C334.998 280.911 332.759 278.672 329.998 278.672C328.116 278.672 326.477 279.712 325.624 281.248Z" fill="#202226"/>
<path fill-rule="evenodd" clip-rule="evenodd" d="M412.992 277.005C412.072 277.005 411.326 277.751 411.326 278.672V305.339C411.326 306.259 412.072 307.005 412.992 307.005H432.992C433.913 307.005 434.659 306.259 434.659 305.339V285.339H429.659C427.818 285.339 426.326 283.846 426.326 282.005V277.005H412.992ZM429.659 279.362L432.302 282.005H429.659V279.362ZM407.992 278.672C407.992 275.91 410.231 273.672 412.992 273.672H427.992C428.434 273.672 428.858 273.847 429.171 274.16L437.504 282.493C437.817 282.806 437.992 283.23 437.992 283.672V305.339C437.992 308.1 435.754 310.339 432.992 310.339H412.992C410.231 310.339 407.992 308.1 407.992 305.339V278.672ZM416.328 292.004H429.661V295.338H416.328V292.004ZM424.661 298.674H416.328V302.007H424.661V298.674Z" fill="#202226"/>
<path d="M512.619 301.997H514.331V293.664H517.665V301.997H519.376C519.596 299.994 520.618 298.341 522.276 296.536C522.465 296.332 523.663 295.091 523.805 294.914C524.982 293.443 525.72 291.67 525.933 289.798C526.147 287.927 525.827 286.033 525.012 284.335C524.196 282.637 522.917 281.204 521.323 280.201C519.729 279.198 517.883 278.665 516 278.665C514.116 278.664 512.27 279.196 510.676 280.198C509.081 281.201 507.802 282.633 506.985 284.331C506.169 286.029 505.849 287.923 506.061 289.794C506.274 291.666 507.011 293.439 508.188 294.911C508.331 295.089 509.533 296.332 509.718 296.534C511.378 298.341 512.399 299.994 512.619 301.997ZM512.664 305.331V306.997H519.331V305.331H512.664ZM505.588 296.997C504.018 295.036 503.034 292.671 502.75 290.175C502.465 287.68 502.892 285.154 503.98 282.89C505.068 280.626 506.773 278.715 508.9 277.378C511.027 276.041 513.488 275.332 516 275.332C518.512 275.332 520.972 276.042 523.099 277.38C525.225 278.718 526.93 280.629 528.017 282.894C529.104 285.158 529.53 287.684 529.245 290.18C528.959 292.675 527.975 295.04 526.405 297.001C525.371 298.287 522.665 300.331 522.665 302.831V306.997C522.665 307.881 522.313 308.729 521.688 309.354C521.063 309.979 520.215 310.331 519.331 310.331H512.664C511.78 310.331 510.933 309.979 510.307 309.354C509.682 308.729 509.331 307.881 509.331 306.997V302.831C509.331 300.331 506.623 298.287 505.588 296.997Z" fill="#202226"/>
<path fill-rule="evenodd" clip-rule="evenodd" d="M590.656 282.004C590.656 279.243 592.895 277.004 595.656 277.004H622.323C625.085 277.004 627.323 279.243 627.323 282.004V302.004C627.323 304.766 625.085 307.004 622.323 307.004H595.656C592.895 307.004 590.656 304.766 590.656 302.004V282.004ZM595.656 280.337C594.736 280.337 593.99 281.083 593.99 282.004V285.34H623.984V288.674H593.99V302.004C593.99 302.925 594.736 303.671 595.656 303.671H622.323C623.244 303.671 623.99 302.925 623.99 302.004V282.004C623.99 281.083 623.244 280.337 622.323 280.337H595.656ZM620.656 297.003H610.656V300.337H620.656V297.003Z" fill="#202226"/>
<path fill-rule="evenodd" clip-rule="evenodd" d="M699.681 276.639C700.52 274.548 703.481 274.548 704.321 276.639L707.899 285.549L717.479 286.199C719.727 286.351 720.642 289.167 718.913 290.612L711.544 296.768L713.887 306.081C714.437 308.266 712.042 310.006 710.133 308.808L702.001 303.702L693.868 308.808C691.96 310.006 689.565 308.266 690.114 306.081L692.457 296.768L685.088 290.612C683.359 289.167 684.274 286.351 686.522 286.199L696.102 285.549L699.681 276.639ZM702.001 279.807L699.001 287.277C698.643 288.168 697.807 288.775 696.85 288.84L688.818 289.384L694.996 294.546C695.732 295.161 696.051 296.144 695.817 297.074L693.853 304.881L700.671 300.601C701.484 300.091 702.517 300.091 703.33 300.601L710.148 304.881L708.184 297.074C707.95 296.144 708.269 295.161 709.005 294.546L715.183 289.384L707.151 288.84C706.194 288.775 705.358 288.168 705.001 287.277L702.001 279.807Z" fill="#202226"/>
<path d="M798.331 295.755V299.238C796.822 298.705 795.208 298.541 793.623 298.761C792.038 298.981 790.529 299.578 789.223 300.502C787.917 301.426 786.851 302.65 786.116 304.071C785.381 305.492 784.997 307.068 784.997 308.668L781.664 308.667C781.664 306.631 782.129 304.623 783.025 302.796C783.92 300.968 785.222 299.37 786.831 298.123C788.44 296.877 790.313 296.015 792.306 295.604C794.299 295.193 796.36 295.246 798.331 295.755ZM794.998 293.668C789.472 293.668 784.997 289.193 784.997 283.668C784.997 278.143 789.472 273.668 794.998 273.668C800.523 273.668 804.998 278.143 804.998 283.668C804.998 289.193 800.523 293.668 794.998 293.668ZM794.998 290.335C798.681 290.335 801.664 287.351 801.664 283.668C801.664 279.985 798.681 277.001 794.998 277.001C791.314 277.001 788.331 279.985 788.331 283.668C788.331 287.351 791.314 290.335 794.998 290.335ZM804.998 300.335V295.335H808.331V300.335H813.331V303.668H808.331V308.668H804.998V303.668H799.998V300.335H804.998Z" fill="#202226"/>
<path fill-rule="evenodd" clip-rule="evenodd" d="M902.99 292.005C902.99 300.29 896.274 307.005 887.99 307.005C879.705 307.005 872.99 300.29 872.99 292.005C872.99 283.721 879.705 277.005 887.99 277.005C896.274 277.005 902.99 283.721 902.99 292.005ZM906.323 292.005C906.323 302.131 898.115 310.339 887.99 310.339C877.864 310.339 869.656 302.131 869.656 292.005C869.656 281.88 877.864 273.672 887.99 273.672C898.115 273.672 906.323 281.88 906.323 292.005ZM886.322 282.008V292.008V292.698L886.81 293.186L891.81 298.186L894.167 295.829L889.656 291.317V282.008H886.322Z" fill="#202226"/>
<path fill-rule="evenodd" clip-rule="evenodd" d="M996.005 292.005C996.005 300.29 989.29 307.005 981.005 307.005C972.721 307.005 966.005 300.29 966.005 292.005C966.005 283.721 972.721 277.005 981.005 277.005C989.29 277.005 996.005 283.721 996.005 292.005ZM999.339 292.005C999.339 302.131 991.131 310.339 981.005 310.339C970.88 310.339 962.672 302.131 962.672 292.005C962.672 281.88 970.88 273.672 981.005 273.672C991.131 273.672 999.339 281.88 999.339 292.005ZM985.462 284.929C984.661 284.395 983.7 284.019 982.662 283.825V282.007H979.328V283.776C978.373 283.903 977.44 284.16 976.635 284.624C975.231 285.432 974.335 286.806 974.335 288.673C974.335 290.539 975.231 291.913 976.635 292.721C977.91 293.455 979.505 293.673 981.002 293.673V293.676C982.266 293.676 983.172 293.875 983.706 294.183C984.112 294.416 984.335 294.709 984.335 295.342C984.335 295.976 984.112 296.268 983.706 296.502C983.172 296.809 982.266 297.009 981.002 297.009C979.904 297.009 978.986 296.709 978.391 296.313C977.784 295.908 977.669 295.532 977.669 295.342H974.335C974.335 296.993 975.339 298.284 976.542 299.086C977.339 299.618 978.295 299.993 979.328 300.188V302.007H982.662V300.241C983.622 300.115 984.559 299.857 985.369 299.391C986.773 298.583 987.669 297.209 987.669 295.342C987.669 293.476 986.773 292.102 985.369 291.294C984.093 290.559 982.499 290.342 981.002 290.342V290.339C979.738 290.339 978.832 290.14 978.298 289.832C977.892 289.599 977.669 289.306 977.669 288.673C977.669 288.039 977.892 287.746 978.298 287.513C978.832 287.205 979.738 287.006 981.002 287.006C982.099 287.006 983.018 287.305 983.613 287.702C984.22 288.107 984.335 288.483 984.335 288.673H987.669C987.669 287.021 986.665 285.731 985.462 284.929Z" fill="#202226"/>
<path fill-rule="evenodd" clip-rule="evenodd" d="M1088.99 292.005C1088.99 300.29 1082.27 307.005 1073.99 307.005C1065.71 307.005 1058.99 300.29 1058.99 292.005C1058.99 283.721 1065.71 277.005 1073.99 277.005C1082.27 277.005 1088.99 283.721 1088.99 292.005ZM1092.32 292.005C1092.32 302.131 1084.12 310.339 1073.99 310.339C1063.86 310.339 1055.66 302.131 1055.66 292.005C1055.66 281.88 1063.86 273.672 1073.99 273.672C1084.12 273.672 1092.32 281.88 1092.32 292.005ZM1080.58 283.065L1073.99 289.649L1067.41 283.065L1065.05 285.422L1071.64 292.005L1065.05 298.589L1067.41 300.945L1073.99 294.362L1080.58 300.945L1082.93 298.589L1076.35 292.005L1082.93 285.422L1080.58 283.065Z" fill="#202226"/>
<path fill-rule="evenodd" clip-rule="evenodd" d="M1182.01 292.005C1182.01 300.29 1175.29 307.005 1167.01 307.005C1158.72 307.005 1152.01 300.29 1152.01 292.005C1152.01 283.721 1158.72 277.005 1167.01 277.005C1175.29 277.005 1182.01 283.721 1182.01 292.005ZM1185.34 292.005C1185.34 302.131 1177.13 310.339 1167.01 310.339C1156.88 310.339 1148.67 302.131 1148.67 292.005C1148.67 281.88 1156.88 273.672 1167.01 273.672C1177.13 273.672 1185.34 281.88 1185.34 292.005ZM1165.33 282.007H1168.67V285.34H1165.33V282.007ZM1163.67 288.671H1165.33H1168.67H1168.67V292.005H1168.67V298.673H1170.34V302.007H1163.67V298.673H1165.33V292.005H1163.67V288.671Z" fill="#202226"/>
<path fill-rule="evenodd" clip-rule="evenodd" d="M144.012 374.665C138.418 374.665 133.628 378.111 131.649 382.995H129.013V383L135.68 383V386.333L127.346 386.333H125.68L125.68 384.667L125.68 376.333L129.013 376.333L129.013 380.723C131.715 375.164 137.416 371.332 144.012 371.332C151.474 371.332 157.79 376.235 159.915 382.995H156.375C154.396 378.111 149.606 374.665 144.012 374.665ZM128.107 392.996H131.646C133.624 397.884 138.415 401.332 144.012 401.332C149.608 401.332 154.399 397.885 156.377 392.998H152.351V389.664H160.685H162.351V391.331V399.664H159.018V395.26C156.319 400.827 150.614 404.666 144.012 404.666C136.548 404.666 130.23 399.759 128.107 392.996ZM147.351 388.001C147.351 389.842 145.859 391.334 144.018 391.334C142.177 391.334 140.684 389.842 140.684 388.001C140.684 386.16 142.177 384.668 144.018 384.668C145.859 384.668 147.351 386.16 147.351 388.001ZM150.684 388.001C150.684 391.683 147.7 394.668 144.018 394.668C140.336 394.668 137.351 391.683 137.351 388.001C137.351 384.319 140.336 381.334 144.018 381.334C147.7 381.334 150.684 384.319 150.684 388.001Z" fill="#202226"/>
<path fill-rule="evenodd" clip-rule="evenodd" d="M220.336 377.996C220.336 375.235 222.575 372.996 225.336 372.996H248.67C251.431 372.996 253.67 375.235 253.67 377.996V381.327V382.993V382.996V384.663V397.994C253.67 400.755 251.431 402.994 248.67 402.994H225.336C222.575 402.994 220.336 400.755 220.336 397.994V384.663V382.996V382.993V381.327V377.996ZM250.336 377.996V381.327H223.669V377.996C223.669 377.076 224.415 376.329 225.336 376.329H248.67C249.59 376.329 250.336 377.076 250.336 377.996ZM250.336 384.663H223.669V397.994C223.669 398.914 224.415 399.66 225.336 399.66H248.67C249.59 399.66 250.336 398.914 250.336 397.994V384.663ZM241.999 387.997H231.999V391.33H241.999V387.997Z" fill="#202226"/>
<path fill-rule="evenodd" clip-rule="evenodd" d="M326.662 372.996C324.821 372.996 323.329 374.488 323.329 376.329H336.662C336.662 374.488 335.17 372.996 333.329 372.996H326.662ZM343.331 379.666H341.548L340.213 398.356C340.026 400.973 337.849 403 335.226 403H324.767C322.144 403 319.966 400.973 319.779 398.356L318.444 379.666H316.664V376.333H318.206H319.996H339.996H341.786H343.331V379.666ZM321.786 379.666H338.207L336.888 398.119C336.826 398.991 336.1 399.666 335.226 399.666H324.767C323.892 399.666 323.167 398.991 323.104 398.119L321.786 379.666Z" fill="#202226"/>
<path fill-rule="evenodd" clip-rule="evenodd" d="M411.195 381.329C411.195 378.568 413.434 376.329 416.195 376.329C418.957 376.329 421.195 378.568 421.195 381.329C421.195 384.091 418.957 386.33 416.195 386.33C413.434 386.33 411.195 384.091 411.195 381.329ZM416.195 372.996C411.593 372.996 407.862 376.727 407.862 381.329C407.862 385.932 411.593 389.663 416.195 389.663C420.798 389.663 424.529 385.932 424.529 381.329C424.529 376.727 420.798 372.996 416.195 372.996ZM429.528 384.661C429.528 382.82 431.02 381.328 432.861 381.328C434.702 381.328 436.194 382.82 436.194 384.661C436.194 386.502 434.702 387.995 432.861 387.995C431.02 387.995 429.528 386.502 429.528 384.661ZM432.861 377.994C429.179 377.994 426.194 380.979 426.194 384.661C426.194 388.343 429.179 391.328 432.861 391.328C436.543 391.328 439.528 388.343 439.528 384.661C439.528 380.979 436.543 377.994 432.861 377.994ZM406.772 401.325C408.145 397.442 411.849 394.661 416.202 394.661C420.555 394.661 424.258 397.442 425.632 401.325H429.114C427.633 395.576 422.414 391.328 416.202 391.328C409.99 391.328 404.77 395.576 403.289 401.325H406.772ZM432.873 396.329C431.563 396.329 430.341 396.707 429.311 397.36C428.765 396.382 428.113 395.472 427.371 394.644C428.949 393.602 430.84 392.996 432.873 392.996C437.829 392.996 441.943 396.601 442.735 401.332H439.33C438.591 398.455 435.981 396.329 432.873 396.329Z" fill="#202226"/>
<path d="M503.492 385.504C502.117 385.504 500.992 386.629 500.992 388.004C500.992 389.379 502.117 390.504 503.492 390.504C504.867 390.504 505.992 389.379 505.992 388.004C505.992 386.629 504.867 385.504 503.492 385.504ZM528.492 385.504C527.117 385.504 525.992 386.629 525.992 388.004C525.992 389.379 527.117 390.504 528.492 390.504C529.867 390.504 530.992 389.379 530.992 388.004C530.992 386.629 529.867 385.504 528.492 385.504ZM515.992 385.504C514.617 385.504 513.492 386.629 513.492 388.004C513.492 389.379 514.617 390.504 515.992 390.504C517.367 390.504 518.492 389.379 518.492 388.004C518.492 386.629 517.367 385.504 515.992 385.504Z" fill="#202226"/>
<path fill-rule="evenodd" clip-rule="evenodd" d="M610.303 370.07C609.476 369.722 608.544 369.722 607.716 370.07L593.55 376.035C592.31 376.557 591.489 377.794 591.525 379.161C592.025 398.618 604.989 404.882 607.911 406.039C608.624 406.321 609.396 406.321 610.109 406.039C613.031 404.882 625.995 398.618 626.495 379.161C626.53 377.794 625.71 376.557 624.47 376.035L610.303 370.07ZM609.01 373.142L623.162 379.101C622.708 396.341 611.572 401.84 609.01 402.888C606.447 401.84 595.312 396.341 594.857 379.101L609.01 373.142ZM608.526 392.511L617.693 383.345L615.336 380.987L607.348 388.976L603.526 385.154L601.169 387.511L606.169 392.511L607.348 393.69L608.526 392.511Z" fill="#202226"/>
<path fill-rule="evenodd" clip-rule="evenodd" d="M704.195 375.511C704.896 374.9 705.339 374 705.339 372.997C705.339 371.156 703.847 369.664 702.006 369.664C700.165 369.664 698.672 371.156 698.672 372.997C698.672 373.994 699.11 374.888 699.803 375.499L694.959 386.397L689.901 379.652C690.18 379.166 690.339 378.602 690.339 378.001C690.339 376.16 688.846 374.668 687.005 374.668C685.164 374.668 683.672 376.16 683.672 378.001C683.672 379.613 684.816 380.957 686.336 381.267L688.333 398.574C688.624 401.097 690.761 403.001 693.3 403.001H710.692C713.232 403.001 715.368 401.097 715.659 398.574L717.656 381.271C719.186 380.969 720.339 379.62 720.339 378.001C720.339 376.16 718.847 374.668 717.006 374.668C715.165 374.668 713.673 376.16 713.673 378.001C713.673 378.596 713.828 379.155 714.102 379.638L709.033 386.397L704.195 375.511ZM698.006 387.75L701.996 378.771L705.987 387.75C707.02 390.076 710.173 390.432 711.7 388.397L713.801 385.594L712.348 398.192C712.251 399.033 711.539 399.668 710.692 399.668H693.3C692.454 399.668 691.742 399.033 691.645 398.192L690.191 385.594L692.293 388.397C693.82 390.432 696.972 390.076 698.006 387.75Z" fill="#202226"/>
<path fill-rule="evenodd" clip-rule="evenodd" d="M783.344 371.34C780.582 371.34 778.344 373.578 778.344 376.34V383.007H781.677V376.34C781.677 375.419 782.423 374.673 783.344 374.673H790.011V371.34H783.344ZM783.344 404.674C780.582 404.674 778.344 402.435 778.344 399.674V393.007H781.677V399.674C781.677 400.594 782.423 401.34 783.344 401.34H790.011V404.674H783.344ZM811.678 399.674C811.678 402.435 809.439 404.674 806.678 404.674H800.011V401.34H806.678C807.598 401.34 808.344 400.594 808.344 399.674V393.007H811.678V399.674ZM806.678 371.34C809.439 371.34 811.678 373.578 811.678 376.34V383.007H808.344V376.34C808.344 375.419 807.598 374.673 806.678 374.673H800.011V371.34H806.678Z" fill="#202226"/>
<path fill-rule="evenodd" clip-rule="evenodd" d="M874.672 374.664H869.672V377.997H874.672V374.664ZM874.672 386.327H869.672V389.66H874.672V386.327ZM869.672 397.995H874.672V401.328H869.672V397.995ZM906.346 374.664H879.679V377.997H906.346V374.664ZM879.679 386.327H906.346V389.66H879.679V386.327ZM906.346 397.995H879.679V401.328H906.346V397.995Z" fill="#202226"/>
<path fill-rule="evenodd" clip-rule="evenodd" d="M967.672 379.663C966.751 379.663 966.005 378.917 966.005 377.996C966.005 377.076 966.751 376.329 967.672 376.329C968.592 376.329 969.339 377.076 969.339 377.996C969.339 378.917 968.592 379.663 967.672 379.663ZM962.672 377.996C962.672 375.235 964.91 372.996 967.672 372.996C970.433 372.996 972.672 375.235 972.672 377.996C972.672 380.172 971.282 382.023 969.342 382.71L969.342 389.948C971.282 390.636 972.672 392.487 972.672 394.663C972.672 396.838 971.282 398.689 969.342 399.377V402.998H966.009L966.009 399.379C964.065 398.694 962.672 396.841 962.672 394.663C962.672 392.484 964.065 390.631 966.009 389.946L966.009 382.713C964.065 382.027 962.672 380.174 962.672 377.996ZM967.672 396.329C966.751 396.329 966.005 395.583 966.005 394.663C966.005 393.742 966.751 392.996 967.672 392.996C968.592 392.996 969.339 393.742 969.339 394.663C969.339 395.583 968.592 396.329 967.672 396.329ZM994.334 376.329H981.001C980.08 376.329 979.334 377.076 979.334 377.996V381.329C979.334 382.25 980.08 382.996 981.001 382.996H994.334C995.255 382.996 996.001 382.25 996.001 381.329V377.996C996.001 377.076 995.255 376.329 994.334 376.329ZM981.001 372.996C978.24 372.996 976.001 375.235 976.001 377.996V381.329C976.001 384.091 978.24 386.33 981.001 386.33H994.334C997.096 386.33 999.334 384.091 999.334 381.329V377.996C999.334 375.235 997.096 372.996 994.334 372.996H981.001ZM981.001 392.996H994.334C995.255 392.996 996.001 393.742 996.001 394.663V397.996C996.001 398.916 995.255 399.663 994.334 399.663H981.001C980.08 399.663 979.334 398.916 979.334 397.996V394.663C979.334 393.742 980.08 392.996 981.001 392.996ZM976.001 394.663C976.001 391.901 978.24 389.663 981.001 389.663H994.334C997.096 389.663 999.334 391.901 999.334 394.663V397.996C999.334 400.757 997.096 402.996 994.334 402.996H981.001C978.24 402.996 976.001 400.757 976.001 397.996V394.663Z" fill="#202226"/>
<path fill-rule="evenodd" clip-rule="evenodd" d="M1062.34 371.34C1059.57 371.34 1057.34 373.578 1057.34 376.34V399.673C1057.34 402.435 1059.57 404.673 1062.34 404.673H1085.67C1088.43 404.673 1090.67 402.435 1090.67 399.673V376.34C1090.67 373.578 1088.43 371.34 1085.67 371.34H1062.34ZM1060.67 376.34C1060.67 375.419 1061.42 374.673 1062.34 374.673H1085.67C1086.59 374.673 1087.34 375.419 1087.34 376.34V399.673C1087.34 400.594 1086.59 401.34 1085.67 401.34H1062.34C1061.42 401.34 1060.67 400.594 1060.67 399.673V376.34ZM1069 382.773V393.235C1069 393.874 1069.69 394.276 1070.25 393.958L1079.4 388.727C1079.96 388.408 1079.96 387.6 1079.4 387.28L1070.25 382.05C1069.69 381.732 1069 382.133 1069 382.773Z" fill="#202226"/>
<path d="M1174.47 384.076C1173.16 386.407 1171.53 388.571 1169.61 390.5C1167.74 392.38 1165.63 393.99 1163.36 395.302L1162.15 393.272C1161.37 391.965 1159.7 391.541 1158.3 392.152C1156.63 392.886 1154.88 393.437 1153.09 393.793C1151.58 394.093 1150.45 395.428 1150.58 396.959L1151.02 401.906C1151.16 403.431 1152.5 404.57 1154.02 404.322C1156.38 403.933 1158.69 403.311 1160.92 402.47C1162.22 401.975 1163.5 401.404 1164.74 400.76C1167.97 399.084 1170.94 396.916 1173.54 394.31C1175.88 391.969 1177.85 389.335 1179.42 386.495C1180 385.432 1180.53 384.342 1181 383.23C1182.15 380.525 1182.94 377.688 1183.37 374.785C1183.6 373.266 1182.43 371.938 1180.89 371.84L1175.79 371.51C1174.26 371.412 1172.95 372.575 1172.68 374.082C1172.36 375.798 1171.86 377.476 1171.19 379.088C1170.59 380.516 1171.07 382.219 1172.43 382.96L1174.47 384.076Z" stroke="#202226" stroke-width="3.33336"/>
<defs>
<clipPath id="clip0_14759_35796">
<rect width="40.0003" height="40.0003" fill="white" transform="translate(681.992 80)"/>
</clipPath>
<clipPath id="clip1_14759_35796">
<rect width="40.0003" height="40.0003" fill="white" transform="translate(124 272)"/>
</clipPath>
</defs>
</svg>
