<svg width="113" height="47" viewBox="0 0 113 47" fill="none" xmlns="http://www.w3.org/2000/svg">
<path fill-rule="evenodd" clip-rule="evenodd" d="M112.322 27.322H97.1423C97.5001 30.9247 100.156 32.082 103.169 32.082C106.258 32.082 108.744 31.3913 110.796 30.3087V36.506C108.191 37.9917 105.21 38.7044 102.208 38.5593C94.6563 38.5593 89.3453 33.8927 89.3453 24.5967C89.3453 16.7753 93.8465 10.5593 101.21 10.5593C108.593 10.5593 112.435 16.682 112.435 24.5593C112.435 25.306 112.36 26.9113 112.322 27.322ZM101.173 16.8313C99.2328 16.8313 97.0858 18.194 97.0858 21.6473H105.09C105.09 18.194 103.075 16.8313 101.173 16.8313ZM77.1225 38.5593C74.4105 38.5593 72.7531 37.4393 71.6608 36.618L71.6231 45.2607L63.8638 46.8847V11.0633H70.9451L71.0958 12.9673C72.7383 11.4232 74.9152 10.5615 77.179 10.5593C82.6406 10.5593 87.7633 15.4127 87.7633 24.3727C87.7633 34.1353 82.6783 38.5593 77.1225 38.5593ZM75.3333 17.3727C73.5442 17.3727 72.433 18.0073 71.6231 18.8847L71.6608 30.3087C72.4141 31.13 73.5065 31.7647 75.3333 31.7647C78.196 31.7647 80.117 28.6847 80.117 24.5407C80.117 20.5273 78.1583 17.3727 75.3333 17.3727ZM53.1853 11.0633H60.9635V38.018H53.1853V11.0633ZM53.1853 2.29002L60.9635 0.666016V6.93801L53.1853 8.58068V2.30868V2.29002ZM45.0493 19.7433V38.018H37.29V11.0633H44.2583L44.4843 13.3407C46.3677 10.0367 50.2662 10.7087 51.302 11.0633V18.138C50.3227 17.8207 46.9892 17.3353 45.0493 19.7433ZM28.9468 28.554C28.9468 33.09 33.8435 31.69 34.8228 31.2793V37.5513C33.787 38.1113 31.9225 38.5593 29.38 38.5593C28.3203 38.59 27.2654 38.4066 26.2795 38.0205C25.2936 37.6343 24.3972 37.0533 23.645 36.313C22.8927 35.5726 22.3003 34.6883 21.9037 33.7138C21.5071 32.7394 21.3147 31.6952 21.3382 30.6447L21.357 6.06068L28.928 4.45535V11.0633H34.8417V17.6527H28.9468V28.5727V28.554ZM19.6997 29.8607C19.6997 35.4047 15.3492 38.5593 8.90816 38.5593C6.01785 38.5572 3.15882 37.9663 0.5085 36.8233V29.4873C3.1075 30.8873 6.34683 31.9327 8.90816 31.9327C10.6408 31.9327 11.7897 31.4847 11.7897 30.066C11.7897 26.37 0 27.7513 0 19.2393C0 13.8073 4.294 10.5593 10.5843 10.5593C13.1457 10.5593 15.707 10.9327 18.2872 11.9593V19.202C15.9028 17.9582 13.2593 17.2808 10.5655 17.2233C8.94583 17.2233 7.8535 17.69 7.8535 18.9033C7.8535 22.3567 19.6997 20.714 19.6997 29.8793V29.8607Z" fill="white"/>
</svg>
