<svg width="148" height="56" viewBox="0 0 148 56" fill="none" xmlns="http://www.w3.org/2000/svg">
<path d="M16.6211 37.7448C18.9749 37.7448 20.8829 35.827 20.8829 33.4613C20.8829 31.0956 18.9749 29.178 16.6211 29.178C14.2673 29.178 12.3592 31.0956 12.3592 33.4613C12.3592 35.827 14.2673 37.7448 16.6211 37.7448ZM16.6211 26.6079C18.9749 26.6079 20.8829 24.6902 20.8829 22.3245C20.8829 19.9588 18.9749 18.041 16.6211 18.041C14.2673 18.041 12.3592 19.9588 12.3592 22.3245C12.3592 24.6902 14.2673 26.6079 16.6211 26.6079ZM27.7018 37.7448C30.0556 37.7448 31.9637 35.827 31.9637 33.4613C31.9637 31.0956 30.0556 29.178 27.7018 29.178C25.3481 29.178 23.44 31.0956 23.44 33.4613C23.44 35.827 25.3481 37.7448 27.7018 37.7448ZM27.7018 26.6079C30.0556 26.6079 31.9637 24.6902 31.9637 22.3245C31.9637 19.9588 30.0556 18.041 27.7018 18.041C25.3481 18.041 23.44 19.9588 23.44 22.3245C23.44 24.6902 25.3481 26.6079 27.7018 26.6079ZM22.1615 5.61914C34.1655 5.61914 44.3229 15.828 44.3229 27.8929C44.3229 39.9578 34.1655 50.1667 22.1615 50.1667C10.1573 50.1667 0 39.9578 0 27.8929C0 15.8281 10.1574 5.61914 22.1615 5.61914ZM22.1615 11.6159C13.2428 11.6159 5.96655 18.6758 5.96655 27.5939C5.96655 36.512 13.2428 44.1699 22.1615 44.1699C31.0801 44.1699 38.3564 36.512 38.3564 27.5939C38.3564 18.6758 31.0801 11.6159 22.1615 11.6159ZM69.4593 41.1715H76.423C76.6737 41.1715 76.781 41.0636 76.8526 40.8117L79.1587 32.2548L81.3959 40.8117C81.4675 41.0636 81.5749 41.1715 81.8255 41.1715H88.7863C89.0727 41.1715 89.2517 41.0636 89.3233 40.8117L94.1874 22.6671V40.7397C94.1874 40.9916 94.3664 41.1715 94.617 41.1715H102.278C102.529 41.1715 102.708 40.9916 102.708 40.7397V21.8996C102.708 21.6477 102.529 21.4678 102.278 21.4678L87.3502 21.4693C87.0996 21.4693 86.9564 21.5773 86.8848 21.8651L85.194 30.5742L83.4913 21.8651C83.4555 21.6133 83.2766 21.4693 83.0259 21.4693H75.4488C75.1982 21.4693 75.0192 21.6133 74.9834 21.8651L73.3254 30.5742L71.6727 21.8651C71.6011 21.5773 71.458 21.4693 71.2073 21.4693L59.8955 21.4678V15.0496C59.8955 14.7258 59.6737 14.5819 59.3158 14.6898L52.2039 16.9955C51.9532 17.0674 51.8101 17.2834 51.8101 17.5352L51.8017 20.5598C51.8017 21.3155 51.4079 21.6392 50.6561 21.6392H48.8176C48.5669 21.6392 48.3879 21.8191 48.3879 22.071V27.4629C48.3879 27.7148 48.5669 27.8947 48.8176 27.8947H51.5681V34.4431C51.5681 39.0846 53.3853 41.7078 58.9341 41.7078C61.0821 41.7078 62.8379 41.4303 63.7688 40.9986C64.0551 40.8547 64.1574 40.6747 64.1574 40.3869V35.2892C64.1574 35.0014 63.8762 34.8575 63.5182 35.0373C63.0528 35.2533 62.514 35.2892 61.9771 35.2892C60.5451 35.2892 60.0881 34.7495 60.0881 32.9505V27.8947H63.4239C63.6745 27.8947 63.8415 27.7279 63.8415 27.4761V22.6671L68.9224 40.8117C68.9939 41.0636 69.1729 41.1715 69.4593 41.1715ZM94.1874 19.3234C94.1874 19.5753 94.3664 19.7553 94.617 19.7553H102.278C102.529 19.7553 102.708 19.5753 102.708 19.3234V15.0496C102.708 14.7977 102.529 14.6179 102.278 14.6179H94.617C94.3664 14.6179 94.1874 14.7977 94.1874 15.0496V19.3234ZM104.414 40.7397C104.414 40.9916 104.593 41.1715 104.843 41.1715H112.513C112.763 41.1715 112.941 40.9916 112.941 40.7397V15.0496C112.941 14.7977 112.763 14.6179 112.513 14.6179H104.843C104.593 14.6179 104.414 14.7977 104.414 15.0496V40.7397ZM114.647 40.7397C114.647 40.9916 114.826 41.1715 115.077 41.1715H122.725C122.976 41.1715 123.155 40.9916 123.155 40.7397L123.15 21.8996C123.15 21.6477 122.972 21.4678 122.721 21.4678H115.072C114.822 21.4678 114.643 21.6477 114.643 21.8996L114.647 40.7397ZM114.643 19.3234C114.643 19.5753 114.822 19.7553 115.072 19.7553H122.725C122.976 19.7553 123.155 19.5753 123.155 19.3234L123.15 15.0496C123.15 14.7977 122.972 14.6179 122.721 14.6179H115.072C114.822 14.6179 114.643 14.7977 114.643 15.0496V19.3234ZM124.494 31.4927C124.494 37.3576 128.974 41.7711 135.526 41.7711C142.077 41.7711 146.518 37.3576 146.518 31.4927V31.0249C146.518 25.1601 142.077 20.8681 135.526 20.8681C128.974 20.8681 124.494 25.1601 124.494 31.0249V31.4927ZM132.713 31.5082V31.1568C132.713 28.4583 133.951 27.4029 135.526 27.4029C137.101 27.4029 138.345 28.4583 138.345 31.1568V31.5082C138.345 34.1708 137.101 35.2843 135.526 35.2843C133.951 35.2843 132.713 34.1708 132.713 31.5082Z" fill="white"/>
</svg>
