<svg xmlns="http://www.w3.org/2000/svg" width="12" height="20" viewBox="0 0 12 20"><g><g><path fill="#fff" d="M10.26 6.69a.834.834 0 0 1 .85-.831.852.852 0 0 1 .858.839l.005 1.247-1.708-.007zm-6.833-.027V6.66l.005 1.25zm0-.006l.005 1.253.002.407 1.708.007V8.15l-.001-.233-1.709-.007 1.709.007-.006-1.247a.852.852 0 0 0-.857-.839.834.834 0 0 0-.85.826l-.004-.825.003.828v-.003zm-.003-.83v.005zm1.708.008l.01 2.489V8.15l-.01-2.315-.566-.003zm-1.7 2.075l.002.417zm1.71.414v.01-.01zm.897 10.01c-2.357-.01-4.278-1.884-4.288-4.181l-.043-9.994C1.702 2.776 2.845 1.66 4.26 1.666c1.416.006 2.567 1.128 2.573 2.513l.039 9.16a.837.837 0 0 1-.85.83.853.853 0 0 1-.858-.837l-.022-4.998-1.708-.007.021 4.998c.006 1.38 1.158 2.504 2.573 2.51 1.413.005 2.558-1.109 2.552-2.49l-.039-9.159C8.531 1.88 6.611.01 4.253 0 1.893-.01-.01 1.85 0 4.152l.043 9.994c.013 3.216 2.701 5.84 6.003 5.854 3.303.013 5.968-2.586 5.954-5.806l-.027-6.249-1.708-.007.027 6.25c.01 2.3-1.894 4.155-4.253 4.146zM3.424 5.828l1.142.005z"/></g></g></svg>