<?xml version="1.0" encoding="UTF-8"?>
<svg width="1441px" height="1px" viewBox="0 0 1441 1" version="1.1" xmlns="http://www.w3.org/2000/svg" xmlns:xlink="http://www.w3.org/1999/xlink">
    <!-- Generator: Sketch 59.1 (86144) - https://sketch.com -->
    <title>Group</title>
    <desc>Created with Sketch.</desc>
    <g id="Design" stroke="none" stroke-width="1" fill="none" fill-rule="evenodd">
        <g id="Artboard" transform="translate(-148.000000, -30.000000)" fill-rule="nonzero">
            <g id="Group" transform="translate(148.000000, 30.000000)">
                <path d="M2,0 L2,1 L9,1 L9,0 L2,0 Z M15,0 L15,1 L22,1 L22,0 L15,0 Z M28,0 L28,1 L35,1 L35,0 L28,0 Z M41,0 L41,1 L48,1 L48,0 L41,0 Z M54,0 L54,1 L61,1 L61,0 L54,0 Z M67,0 L67,1 L74,1 L74,0 L67,0 Z M80,0 L80,1 L87,1 L87,0 L80,0 Z M93,0 L93,1 L100,1 L100,0 L93,0 Z M106,0 L106,1 L113,1 L113,0 L106,0 Z M119,0 L119,1 L126,1 L126,0 L119,0 Z M132,0 L132,1 L139,1 L139,0 L132,0 Z M145,0 L145,1 L152,1 L152,0 L145,0 Z M158,0 L158,1 L165,1 L165,0 L158,0 Z M171,0 L171,1 L178,1 L178,0 L171,0 Z M184,0 L184,1 L191,1 L191,0 L184,0 Z M197,0 L197,1 L204,1 L204,0 L197,0 Z M210,0 L210,1 L217,1 L217,0 L210,0 Z M223,0 L223,1 L230,1 L230,0 L223,0 Z M236,0 L236,1 L243,1 L243,0 L236,0 Z M249,0 L249,1 L256,1 L256,0 L249,0 Z M262,0 L262,1 L269,1 L269,0 L262,0 Z M275,0 L275,1 L282,1 L282,0 L275,0 Z M288,0 L288,1 L295,1 L295,0 L288,0 Z M301,0 L301,1 L308,1 L308,0 L301,0 Z M314,0 L314,1 L321,1 L321,0 L314,0 Z M327,0 L327,1 L334,1 L334,0 L327,0 Z M340,0 L340,1 L347,1 L347,0 L340,0 Z M353,0 L353,1 L360,1 L360,0 L353,0 Z M366,0 L366,1 L373,1 L373,0 L366,0 Z M379,0 L379,1 L386,1 L386,0 L379,0 Z M392,0 L392,1 L399,1 L399,0 L392,0 Z M405,0 L405,1 L412,1 L412,0 L405,0 Z M418,0 L418,1 L425,1 L425,0 L418,0 Z M431,0 L431,1 L438,1 L438,0 L431,0 Z M444,0 L444,1 L451,1 L451,0 L444,0 Z M457,0 L457,1 L464,1 L464,0 L457,0 Z M470,0 L470,1 L477,1 L477,0 L470,0 Z M483,0 L483,1 L490,1 L490,0 L483,0 Z M496,0 L496,1 L503,1 L503,0 L496,0 Z M509,0 L509,1 L516,1 L516,0 L509,0 Z M522,0 L522,1 L529,1 L529,0 L522,0 Z M535,0 L535,1 L542,1 L542,0 L535,0 Z M548,0 L548,1 L555,1 L555,0 L548,0 Z M561,0 L561,1 L568,1 L568,0 L561,0 Z M574,0 L574,1 L581,1 L581,0 L574,0 Z M587,0 L587,1 L594,1 L594,0 L587,0 Z M600,0 L600,1 L607,1 L607,0 L600,0 Z M613,0 L613,1 L620,1 L620,0 L613,0 Z M626,0 L626,1 L633,1 L633,0 L626,0 Z M639,0 L639,1 L646,1 L646,0 L639,0 Z M652,0 L652,1 L659,1 L659,0 L652,0 Z M665,0 L665,1 L672,1 L672,0 L665,0 Z M678,0 L678,1 L685,1 L685,0 L678,0 Z M691,0 L691,1 L698,1 L698,0 L691,0 Z M704,0 L704,1 L711,1 L711,0 L704,0 Z M717,0 L717,1 L724,1 L724,0 L717,0 Z M730,0 L730,1 L737,1 L737,0 L730,0 Z M743,0 L743,1 L750,1 L750,0 L743,0 Z M756,0 L756,1 L763,1 L763,0 L756,0 Z M769,0 L769,1 L776,1 L776,0 L769,0 Z M782,0 L782,1 L789,1 L789,0 L782,0 Z M795,0 L795,1 L802,1 L802,0 L795,0 Z M808,0 L808,1 L815,1 L815,0 L808,0 Z M821,0 L821,1 L828,1 L828,0 L821,0 Z M834,0 L834,1 L841,1 L841,0 L834,0 Z M847,0 L847,1 L854,1 L854,0 L847,0 Z M860,0 L860,1 L867,1 L867,0 L860,0 Z M873,0 L873,1 L880,1 L880,0 L873,0 Z M886,0 L886,1 L893,1 L893,0 L886,0 Z M899,0 L899,1 L906,1 L906,0 L899,0 Z M912,0 L912,1 L919,1 L919,0 L912,0 Z M925,0 L925,1 L932,1 L932,0 L925,0 Z M938,0 L938,1 L945,1 L945,0 L938,0 Z M951,0 L951,1 L958,1 L958,0 L951,0 Z M964,0 L964,1 L971,1 L971,0 L964,0 Z M977,0 L977,1 L984,1 L984,0 L977,0 Z M990,0 L990,1 L997,1 L997,0 L990,0 Z M1003,0 L1003,1 L1010,1 L1010,0 L1003,0 Z M1016,0 L1016,1 L1023,1 L1023,0 L1016,0 Z M1029,0 L1029,1 L1036,1 L1036,0 L1029,0 Z M1042,0 L1042,1 L1049,1 L1049,0 L1042,0 Z M1055,0 L1055,1 L1062,1 L1062,0 L1055,0 Z M1068,0 L1068,1 L1075,1 L1075,0 L1068,0 Z M1081,0 L1081,1 L1088,1 L1088,0 L1081,0 Z M1094,0 L1094,1 L1101,1 L1101,0 L1094,0 Z M1107,0 L1107,1 L1114,1 L1114,0 L1107,0 Z M1120,0 L1120,1 L1127,1 L1127,0 L1120,0 Z M1133,0 L1133,1 L1140,1 L1140,0 L1133,0 Z M1146,0 L1146,1 L1153,1 L1153,0 L1146,0 Z M1159,0 L1159,1 L1166,1 L1166,0 L1159,0 Z M1172,0 L1172,1 L1179,1 L1179,0 L1172,0 Z M1185,0 L1185,1 L1192,1 L1192,0 L1185,0 Z M1198,0 L1198,1 L1205,1 L1205,0 L1198,0 Z M1211,0 L1211,1 L1218,1 L1218,0 L1211,0 Z M1224,0 L1224,1 L1231,1 L1231,0 L1224,0 Z M1237,0 L1237,1 L1244,1 L1244,0 L1237,0 Z M1250,0 L1250,1 L1257,1 L1257,0 L1250,0 Z M1263,0 L1263,1 L1270,1 L1270,0 L1263,0 Z M1276,0 L1276,1 L1283,1 L1283,0 L1276,0 Z M1289,0 L1289,1 L1296,1 L1296,0 L1289,0 Z M1302,0 L1302,1 L1309,1 L1309,0 L1302,0 Z M1315,0 L1315,1 L1322,1 L1322,0 L1315,0 Z M1328,0 L1328,1 L1335,1 L1335,0 L1328,0 Z M1341,0 L1341,1 L1348,1 L1348,0 L1341,0 Z M1354,0 L1354,1 L1361,1 L1361,0 L1354,0 Z M1367,0 L1367,1 L1374,1 L1374,0 L1367,0 Z M1380,0 L1380,1 L1387,1 L1387,0 L1380,0 Z M1393,0 L1393,1 L1400,1 L1400,0 L1393,0 Z M1406,0 L1406,1 L1413,1 L1413,0 L1406,0 Z M1419,0 L1419,1 L1426,1 L1426,0 L1419,0 Z M1432,0 L1432,1 L1439,1 L1439,0 L1432,0 Z" id="Line" fill="#E6E6E6"></path>
                <polygon id="Line-Copy" fill="#FFFFFF" points="1439 0 1439 1 1441 1 1441 0"></polygon>
                <polygon id="Line-Copy" fill="#FFFFFF" points="0 0 0 1 2 1 2 0"></polygon>
            </g>
        </g>
    </g>
</svg>