<?xml version="1.0" encoding="UTF-8"?>
<svg width="26px" height="32px" viewBox="0 0 26 32" version="1.1" xmlns="http://www.w3.org/2000/svg" xmlns:xlink="http://www.w3.org/1999/xlink">
    <!-- Generator: Sketch 59 (86127) - https://sketch.com -->
    <title>g</title>
    <desc>Created with Sketch.</desc>
    <g id="Design" stroke="none" stroke-width="1" fill="none" fill-rule="evenodd">
        <path d="M3.6504133e-13,32 L6.55526123,21.1982323 C4.03888479,19.3639484 2.42479526,16.4472384 2.42479526,13.1274987 L2.42479526,13.1274987 L2.4286459,12.8470494 C2.57978846,7.35114546 7.16168074,3.02932288 12.8755449,3.02932288 L12.8755449,3.02932288 L13.1650665,3.03303219 C14.4702499,3.0665233 15.7126039,3.32586408 16.8519743,3.77274385 L18.9366259,0.380275023 L25.165075,0.380275023 L21.1472088,6.91870495 C22.5151658,8.62462977 23.325841,10.7748143 23.325841,13.1274987 L23.325841,13.1274987 L23.3219904,13.4079483 C23.1708479,18.9038668 18.5889631,23.2261236 12.8755449,23.2261236 L12.8755449,23.2261236 L12.5860011,23.2224139 C12.2519426,23.2138417 11.9220009,23.1904751 11.596849,23.1529565 L9.543,26.536275 L23.6601235,26.5366475 L23.6601235,32 L3.6504133e-13,32 Z M12.8755449,8.61616885 L12.6548267,8.62100038 C10.1703567,8.73013223 8.27677964,10.6749755 8.27677964,13.1274987 L8.27677964,13.1274987 L8.28166062,13.3425454 C8.39192062,15.7640321 10.3574434,17.6383795 12.8755449,17.6383795 L12.8755449,17.6383795 L13.0962243,17.633549 C15.580254,17.5244414 17.473403,15.5800219 17.473403,13.1274987 L17.473403,13.1274987 L17.4685232,12.9124509 C17.358288,10.49094 15.3932058,8.61616885 12.8755449,8.61616885 L12.8755449,8.61616885 Z" id="g" fill="#DC3D39"></path>
    </g>
</svg>