<svg xmlns="http://www.w3.org/2000/svg" width="90" height="37" viewBox="0 0 90 37"><g><g><path fill="#dc3d39" d="M47.613 13.658c-2.843 0-5.1 2.234-5.1 5.007h-5.894c0-5.918 4.891-10.636 10.994-10.636zm0 15.634c-6.103 0-10.994-4.714-10.994-10.627h5.894c0 2.77 2.257 5.003 5.1 5.003zm0-21.263c6.108 0 11.003 4.718 11.003 10.636h-5.9c0-2.773-2.258-5.007-5.103-5.007zm0 15.64c2.845 0 5.104-2.233 5.104-5.004h5.9c0 5.913-4.896 10.627-11.004 10.627zM27.423 0h5.727v28.93h-5.728zM8.282 18.128c0 2.523 2.005 4.508 4.598 4.51 2.589-.002 4.592-1.987 4.592-4.51 0-2.524-2.003-4.51-4.592-4.512-2.593.003-4.599 1.988-4.599 4.512zm4.603 10.098h-.01c-.434 0-.86-.025-1.28-.074l-2.053 3.385H23.66V37H0l6.556-10.804c-2.517-1.835-4.131-4.75-4.131-8.069 0-5.625 4.639-10.093 10.45-10.098h.011c1.407.002 2.747.265 3.967.744l2.088-3.393h6.234l-4.024 6.543a9.869 9.869 0 0 1 2.175 6.204c0 5.626-4.635 10.094-10.44 10.1zm55.251.703h-.877L58.44 8.402h5.81l3.636 8.608 3.637-8.608h5.81l3.638 8.608 3.637-8.608H90l-8.778 20.527h-.879l-6.117-14.237z"/></g></g></svg>