<?xml version="1.0" encoding="UTF-8"?>
<svg width="23px" height="22px" viewBox="0 0 23 22" version="1.1" xmlns="http://www.w3.org/2000/svg" xmlns:xlink="http://www.w3.org/1999/xlink">
    <!-- Generator: Sketch 59 (86127) - https://sketch.com -->
    <title>o</title>
    <desc>Created with Sketch.</desc>
    <g id="Design" stroke="none" stroke-width="1" fill="none" fill-rule="evenodd">
        <path d="M11.3184645,21.2984212 C5.35347915,21.1495718 0.618672042,16.4882831 0.618672042,10.6654813 L0.618672042,10.6654813 L0.622473969,10.3800655 C0.776771695,4.59626067 5.60842359,0.0293228794 11.6128008,0.0293228794 L11.6128008,0.0293228794 L11.9071368,0.0329901447 C17.872108,0.181825495 22.606476,4.84267944 22.606476,10.6654813 L22.606476,10.6654813 L22.6026744,10.9508974 C22.4483909,16.7347163 17.617178,21.3020888 11.6128008,21.3020888 L11.6128008,21.3020888 Z M11.8359645,15.668419 C14.5725609,15.5550492 16.7123094,13.3654983 16.7123094,10.6654813 L16.7123094,10.6654813 L16.7076509,10.4477105 C16.5931158,7.77642999 14.3805322,5.65793211 11.6128008,5.65793211 L11.6128008,5.65793211 L11.3896362,5.66254363 C8.6530172,5.77591334 6.5128386,7.9654643 6.5128386,10.6654813 L6.5128386,10.6654813 L6.51749807,10.8832521 C6.63205576,13.5545326 8.8450694,15.6730305 11.6128008,15.6730305 L11.6128008,15.6730305 Z" id="o" fill="#DC3D39"></path>
    </g>
</svg>