<svg width="344" height="421" viewBox="0 0 344 421" fill="none" xmlns="http://www.w3.org/2000/svg">
<rect x="0.365854" y="0.365854" width="343.268" height="420.268" rx="34.7561" fill="white" stroke="#E8E8E8" stroke-width="0.731707"/>
<path d="M29.5781 214.703C23.0352 214.703 18.875 211.48 18.5234 206.617L18.5039 206.344H23.3867L23.4062 206.539C23.6406 208.902 26.1602 210.465 29.7344 210.465C33.1328 210.465 35.5156 208.785 35.5156 206.363V206.344C35.5156 204.312 34.0508 203.082 30.418 202.301L27.3906 201.676C21.6289 200.465 19.1289 197.77 19.1289 193.57V193.551C19.1289 188.512 23.4648 185.113 29.5586 185.113C35.8086 185.113 39.6953 188.531 40.0469 193.062L40.0664 193.316H35.2422L35.2031 193.082C34.8516 190.895 32.7617 189.332 29.5391 189.352C26.4141 189.352 24.1875 190.816 24.1875 193.219V193.238C24.1875 195.23 25.6133 196.48 29.1289 197.223L32.1562 197.867C38.0938 199.117 40.5742 201.5 40.5742 205.758V205.777C40.5742 211.266 36.3359 214.703 29.5781 214.703ZM46.2383 214V185.816H64.207V190.055H51.2773V198.395H63.0938V202.496H51.2773V214H46.2383ZM80.457 214V185.816H91.707C97.4297 185.816 101.297 189.586 101.297 195.23V195.27C101.297 200.895 97.4297 204.684 91.707 204.684H85.4961V214H80.457ZM90.4766 189.938H85.4961V200.621H90.4766C94.0898 200.621 96.1992 198.668 96.1992 195.289V195.25C96.1992 191.871 94.0898 189.938 90.4766 189.938ZM106.355 214V192.652H111.219V195.934H111.551C112.273 193.648 114.227 192.301 117.039 192.301C117.781 192.301 118.543 192.398 119.012 192.535V196.891C118.23 196.734 117.43 196.617 116.59 196.617C113.348 196.617 111.219 198.551 111.219 201.598V214H106.355ZM131.668 214.43C125.262 214.43 121.395 210.25 121.395 203.336V203.297C121.395 196.441 125.32 192.242 131.668 192.242C138.035 192.242 141.941 196.422 141.941 203.297V203.336C141.941 210.25 138.055 214.43 131.668 214.43ZM131.668 210.484C135.047 210.484 136.961 207.848 136.961 203.355V203.316C136.961 198.824 135.027 196.168 131.668 196.168C128.289 196.168 126.355 198.824 126.355 203.316V203.355C126.355 207.848 128.289 210.484 131.668 210.484ZM165.008 214V190.055H156.336V185.816H178.738V190.055H170.047V214H165.008ZM188.855 214.43C182.508 214.43 178.66 210.172 178.66 203.375V203.355C178.66 196.637 182.547 192.242 188.621 192.242C194.695 192.242 198.445 196.5 198.445 202.945V204.547H183.523C183.582 208.375 185.652 210.602 188.953 210.602C191.59 210.602 193.094 209.273 193.562 208.297L193.621 208.16H198.25L198.191 208.336C197.508 211.09 194.656 214.43 188.855 214.43ZM188.68 196.051C185.965 196.051 183.934 197.887 183.562 201.285H193.699C193.367 197.789 191.395 196.051 188.68 196.051ZM200.828 214L207.742 203.414L200.77 192.652H206.395L210.633 200.055H210.965L215.184 192.652H220.516L213.621 203.199L220.594 214H215.125L210.75 206.578H210.418L206.062 214H200.828ZM233.27 214.098C228.367 214.098 226.355 212.457 226.355 208.336V196.422H223.035V192.652H226.355V187.418H231.297V192.652H235.809V196.422H231.297V207.184C231.297 209.312 232.137 210.211 234.168 210.211C234.852 210.211 235.223 210.191 235.809 210.133V213.883C235.105 214.02 234.207 214.098 233.27 214.098Z" fill="black"/>
<path d="M20.627 32.2051C18.2773 32.2051 16.8125 30.5059 16.8125 27.7812V27.7695C16.8125 25.0391 18.2715 23.3398 20.6211 23.3398C22.4844 23.3398 23.9141 24.5176 24.1367 26.1992L24.1309 26.2285H22.8301V26.2109C22.584 25.1738 21.7344 24.5 20.6211 24.5C19.1035 24.5 18.1543 25.7598 18.1543 27.7695V27.7812C18.1543 29.7852 19.1035 31.0449 20.627 31.0449C21.7461 31.0449 22.584 30.4473 22.8242 29.4922L22.8359 29.4688H24.1367V29.5039C23.8906 31.127 22.5137 32.2051 20.627 32.2051ZM28.4141 32.123C26.5449 32.123 25.4023 30.875 25.4023 28.8242V28.8125C25.4023 26.7676 26.5508 25.5137 28.4141 25.5137C30.2715 25.5137 31.4199 26.7617 31.4199 28.8125V28.8242C31.4199 30.875 30.2773 32.123 28.4141 32.123ZM28.4141 31.0625C29.5039 31.0625 30.125 30.2305 30.125 28.8242V28.8125C30.125 27.4004 29.5039 26.5742 28.4141 26.5742C27.3184 26.5742 26.7031 27.4004 26.7031 28.8125V28.8242C26.7031 30.2363 27.3184 31.0625 28.4141 31.0625ZM32.9961 32V23.1406H34.2676V32H32.9961ZM38.8555 32.123C36.9863 32.123 35.8438 30.875 35.8438 28.8242V28.8125C35.8438 26.7676 36.9922 25.5137 38.8555 25.5137C40.7129 25.5137 41.8613 26.7617 41.8613 28.8125V28.8242C41.8613 30.875 40.7188 32.123 38.8555 32.123ZM38.8555 31.0625C39.9453 31.0625 40.5664 30.2305 40.5664 28.8242V28.8125C40.5664 27.4004 39.9453 26.5742 38.8555 26.5742C37.7598 26.5742 37.1445 27.4004 37.1445 28.8125V28.8242C37.1445 30.2363 37.7598 31.0625 38.8555 31.0625ZM43.3789 32V25.6367H44.6504V26.5977H44.7441C44.9727 25.9238 45.5645 25.5254 46.4141 25.5254C46.6191 25.5254 46.8418 25.5547 46.9707 25.584V26.7559C46.7422 26.709 46.5254 26.6797 46.2852 26.6797C45.3125 26.6797 44.6504 27.2773 44.6504 28.1973V32H43.3789ZM54.3301 23.1406L51.7461 34.1211H50.5508L53.1348 23.1406H54.3301ZM60.8223 32V24.6758H58.1621V23.5449H64.7891V24.6758H62.1348V32H60.8223ZM66.2422 34.2383C66.084 34.2383 65.8965 34.2266 65.7324 34.209V33.207C65.8555 33.2246 66.0137 33.2305 66.1602 33.2305C66.752 33.2305 67.1094 32.9785 67.2969 32.334L67.3906 32.0059L65.082 25.6367H66.4531L68.0469 30.7227H68.1582L69.7461 25.6367H71.082L68.7148 32.2461C68.1758 33.7637 67.5312 34.2383 66.2422 34.2383ZM72.3711 34.1211V25.6367H73.6426V26.6387H73.7363C74.1055 25.9414 74.8027 25.5254 75.6934 25.5254C77.2988 25.5254 78.3301 26.8086 78.3301 28.8125V28.8242C78.3301 30.8398 77.3105 32.1055 75.6934 32.1055C74.8203 32.1055 74.0762 31.6777 73.7363 30.9922H73.6426V34.1211H72.3711ZM75.3359 31.0215C76.3965 31.0215 77.0352 30.1895 77.0352 28.8242V28.8125C77.0352 27.4414 76.3965 26.6152 75.3359 26.6152C74.2754 26.6152 73.6191 27.4531 73.6191 28.8125V28.8242C73.6191 30.1836 74.2754 31.0215 75.3359 31.0215ZM82.5312 32.123C80.668 32.123 79.543 30.8516 79.543 28.8359V28.8301C79.543 26.8438 80.6914 25.5137 82.4668 25.5137C84.2422 25.5137 85.332 26.7969 85.332 28.707V29.1523H80.8203C80.8438 30.3711 81.5117 31.0801 82.5605 31.0801C83.375 31.0801 83.8613 30.6758 84.0137 30.3477L84.0371 30.3008L85.2617 30.2949L85.25 30.3477C85.0391 31.1855 84.1602 32.123 82.5312 32.123ZM82.4727 26.5566C81.6055 26.5566 80.9492 27.1484 80.8379 28.2441H84.0723C83.9727 27.1074 83.334 26.5566 82.4727 26.5566ZM87.2949 32V26.6387H86.2461V25.6367H87.2949V24.9688C87.2949 23.7031 87.9395 23.082 89.2637 23.082C89.5508 23.082 89.7969 23.1055 90.0137 23.1406V24.0723C89.8965 24.0547 89.7266 24.043 89.5273 24.043C88.8242 24.043 88.5488 24.3828 88.5488 25.0273V25.6367H89.9609V26.6387H88.5605V32H87.2949ZM92.9492 32.1055C91.7363 32.1055 90.8398 31.3672 90.8398 30.2129V30.2012C90.8398 29.0645 91.6953 28.4023 93.2129 28.3086L94.9355 28.209V27.6465C94.9355 26.9492 94.4961 26.5625 93.6348 26.5625C92.9316 26.5625 92.4688 26.8203 92.3164 27.2715L92.3105 27.2949H91.0859L91.0918 27.2539C91.2441 26.2109 92.2461 25.5137 93.6934 25.5137C95.293 25.5137 96.1953 26.3105 96.1953 27.6465V32H94.9355V31.0977H94.8359C94.4609 31.7422 93.793 32.1055 92.9492 32.1055ZM92.1055 30.1602C92.1055 30.7461 92.6035 31.0918 93.2891 31.0918C94.2383 31.0918 94.9355 30.4707 94.9355 29.6504V29.1055L93.3828 29.2051C92.5039 29.2578 92.1055 29.5742 92.1055 30.1484V30.1602ZM100.666 32.123C98.8086 32.123 97.6719 30.8574 97.6719 28.8008V28.7891C97.6719 26.7734 98.8027 25.5137 100.66 25.5137C102.26 25.5137 103.215 26.416 103.391 27.6523V27.6816L102.172 27.6875L102.166 27.6699C102.025 27.043 101.51 26.5742 100.666 26.5742C99.6055 26.5742 98.9668 27.418 98.9668 28.7891V28.8008C98.9668 30.207 99.6172 31.0625 100.666 31.0625C101.463 31.0625 101.955 30.6992 102.16 30.0137L102.172 29.9844H103.391L103.379 30.0371C103.15 31.2734 102.242 32.123 100.666 32.123ZM107.504 32.123C105.641 32.123 104.516 30.8516 104.516 28.8359V28.8301C104.516 26.8438 105.664 25.5137 107.439 25.5137C109.215 25.5137 110.305 26.7969 110.305 28.707V29.1523H105.793C105.816 30.3711 106.484 31.0801 107.533 31.0801C108.348 31.0801 108.834 30.6758 108.986 30.3477L109.01 30.3008L110.234 30.2949L110.223 30.3477C110.012 31.1855 109.133 32.123 107.504 32.123ZM107.445 26.5566C106.578 26.5566 105.922 27.1484 105.811 28.2441H109.045C108.945 27.1074 108.307 26.5566 107.445 26.5566Z" fill="#B0B0B0"/>
<path d="M16.936 234.432H18.076V238.116H22.588V234.432H23.728V243H22.588V239.076H18.076V243H16.936V234.432ZM28.9322 243H27.9122V236.904H25.7042V236.088C25.9922 236.088 26.2722 236.068 26.5442 236.028C26.8162 235.98 27.0602 235.896 27.2762 235.776C27.5002 235.656 27.6882 235.492 27.8402 235.284C27.9922 235.076 28.0962 234.812 28.1522 234.492H28.9322V243ZM32.3241 241.668H33.6561V242.88C33.6561 243.336 33.5521 243.728 33.3441 244.056C33.1361 244.384 32.8001 244.616 32.3361 244.752V244.152C32.4721 244.104 32.5841 244.032 32.6721 243.936C32.7681 243.848 32.8441 243.748 32.9001 243.636C32.9561 243.532 32.9921 243.424 33.0081 243.312C33.0321 243.2 33.0401 243.096 33.0321 243H32.3241V241.668ZM38.9438 234.432H40.0838V238.116H44.5958V234.432H45.7358V243H44.5958V239.076H40.0838V243H38.9438V234.432ZM47.196 237.504C47.172 237.072 47.216 236.672 47.328 236.304C47.44 235.936 47.612 235.62 47.844 235.356C48.084 235.084 48.38 234.872 48.732 234.72C49.084 234.568 49.484 234.492 49.932 234.492C50.3 234.492 50.644 234.548 50.964 234.66C51.292 234.764 51.576 234.92 51.816 235.128C52.056 235.328 52.244 235.58 52.38 235.884C52.524 236.188 52.596 236.54 52.596 236.94C52.596 237.316 52.536 237.648 52.416 237.936C52.304 238.224 52.152 238.484 51.96 238.716C51.768 238.94 51.548 239.144 51.3 239.328C51.052 239.512 50.796 239.688 50.532 239.856C50.268 240.016 50.004 240.176 49.74 240.336C49.476 240.488 49.232 240.652 49.008 240.828C48.792 241.004 48.604 241.196 48.444 241.404C48.292 241.604 48.192 241.836 48.144 242.1H52.512V243H46.956C46.996 242.496 47.084 242.068 47.22 241.716C47.364 241.356 47.544 241.044 47.76 240.78C47.976 240.516 48.22 240.284 48.492 240.084C48.764 239.884 49.048 239.696 49.344 239.52C49.704 239.296 50.02 239.092 50.292 238.908C50.564 238.716 50.788 238.524 50.964 238.332C51.148 238.14 51.284 237.932 51.372 237.708C51.468 237.484 51.516 237.224 51.516 236.928C51.516 236.696 51.472 236.488 51.384 236.304C51.296 236.112 51.176 235.948 51.024 235.812C50.88 235.676 50.708 235.572 50.508 235.5C50.308 235.428 50.096 235.392 49.872 235.392C49.576 235.392 49.32 235.456 49.104 235.584C48.896 235.704 48.724 235.864 48.588 236.064C48.452 236.264 48.352 236.492 48.288 236.748C48.232 236.996 48.208 237.248 48.216 237.504H47.196ZM54.3319 241.668H55.6639V242.88C55.6639 243.336 55.5599 243.728 55.3519 244.056C55.1439 244.384 54.8079 244.616 54.3439 244.752V244.152C54.4799 244.104 54.5919 244.032 54.6799 243.936C54.7759 243.848 54.8519 243.748 54.9079 243.636C54.9639 243.532 54.9999 243.424 55.0159 243.312C55.0399 243.2 55.0479 243.096 55.0399 243H54.3319V241.668ZM60.9516 234.432H62.0916V238.116H66.6036V234.432H67.7436V243H66.6036V239.076H62.0916V243H60.9516V234.432ZM71.2918 238.14C71.3318 238.148 71.3678 238.152 71.3998 238.152C71.4398 238.152 71.4798 238.152 71.5198 238.152H71.7358C71.9518 238.152 72.1558 238.124 72.3478 238.068C72.5478 238.004 72.7198 237.916 72.8638 237.804C73.0158 237.684 73.1358 237.536 73.2238 237.36C73.3118 237.184 73.3558 236.984 73.3558 236.76C73.3558 236.304 73.2118 235.964 72.9238 235.74C72.6358 235.508 72.2758 235.392 71.8438 235.392C71.5718 235.392 71.3318 235.444 71.1238 235.548C70.9238 235.644 70.7558 235.776 70.6198 235.944C70.4918 236.112 70.3958 236.308 70.3318 236.532C70.2678 236.756 70.2358 236.992 70.2358 237.24H69.2158C69.2318 236.832 69.2958 236.46 69.4078 236.124C69.5278 235.788 69.6958 235.5 69.9118 235.26C70.1278 235.02 70.3958 234.832 70.7158 234.696C71.0438 234.56 71.4198 234.492 71.8438 234.492C72.2118 234.492 72.5518 234.54 72.8638 234.636C73.1838 234.724 73.4598 234.86 73.6918 235.044C73.9238 235.228 74.1038 235.464 74.2318 235.752C74.3678 236.04 74.4358 236.38 74.4358 236.772C74.4358 237.156 74.3238 237.496 74.0998 237.792C73.8758 238.088 73.5958 238.312 73.2598 238.464V238.488C73.7798 238.6 74.1638 238.844 74.4118 239.22C74.6678 239.596 74.7958 240.04 74.7958 240.552C74.7958 240.976 74.7158 241.352 74.5558 241.68C74.4038 242 74.1958 242.268 73.9318 242.484C73.6678 242.7 73.3558 242.864 72.9958 242.976C72.6438 243.08 72.2678 243.132 71.8678 243.132C71.4358 243.132 71.0438 243.072 70.6918 242.952C70.3398 242.832 70.0398 242.656 69.7918 242.424C69.5438 242.184 69.3518 241.892 69.2158 241.548C69.0878 241.204 69.0278 240.812 69.0358 240.372H70.0558C70.0718 240.924 70.2318 241.376 70.5358 241.728C70.8398 242.072 71.2838 242.244 71.8678 242.244C72.1158 242.244 72.3518 242.208 72.5758 242.136C72.7998 242.056 72.9958 241.948 73.1638 241.812C73.3318 241.668 73.4638 241.496 73.5598 241.296C73.6638 241.088 73.7158 240.856 73.7158 240.6C73.7158 240.336 73.6678 240.104 73.5718 239.904C73.4758 239.696 73.3478 239.524 73.1878 239.388C73.0278 239.244 72.8358 239.14 72.6118 239.076C72.3958 239.004 72.1598 238.968 71.9038 238.968C71.6878 238.968 71.4838 238.98 71.2918 239.004V238.14ZM76.3398 241.668H77.6718V242.88C77.6718 243.336 77.5678 243.728 77.3598 244.056C77.1518 244.384 76.8158 244.616 76.3518 244.752V244.152C76.4878 244.104 76.5998 244.032 76.6878 243.936C76.7838 243.848 76.8598 243.748 76.9158 243.636C76.9718 243.532 77.0078 243.424 77.0238 243.312C77.0478 243.2 77.0558 243.096 77.0478 243H76.3398V241.668ZM82.9594 234.432H84.0994V238.116H88.6114V234.432H89.7514V243H88.6114V239.076H84.0994V243H82.9594V234.432ZM94.7516 240.108V235.944H94.7276L91.8956 240.108H94.7516ZM95.7116 240.108H96.8636V241.008H95.7116V243H94.7516V241.008H91.0196V240.024L94.8956 234.492H95.7116V240.108ZM98.3476 241.668H99.6796V242.88C99.6796 243.336 99.5756 243.728 99.3676 244.056C99.1596 244.384 98.8236 244.616 98.3596 244.752V244.152C98.4956 244.104 98.6076 244.032 98.6956 243.936C98.7916 243.848 98.8676 243.748 98.9236 243.636C98.9796 243.532 99.0156 243.424 99.0316 243.312C99.0556 243.2 99.0636 243.096 99.0556 243H98.3476V241.668ZM106.107 238.116H108.387C109.035 238.116 109.499 238.004 109.779 237.78C110.067 237.548 110.211 237.204 110.211 236.748C110.211 236.444 110.163 236.204 110.067 236.028C109.971 235.852 109.839 235.716 109.671 235.62C109.503 235.524 109.307 235.464 109.083 235.44C108.867 235.408 108.635 235.392 108.387 235.392H106.107V238.116ZM104.967 234.432H108.075C108.259 234.432 108.455 234.436 108.663 234.444C108.879 234.444 109.091 234.456 109.299 234.48C109.507 234.496 109.699 234.524 109.875 234.564C110.059 234.604 110.215 234.664 110.343 234.744C110.623 234.912 110.859 235.144 111.051 235.44C111.251 235.736 111.351 236.1 111.351 236.532C111.351 236.988 111.239 237.384 111.015 237.72C110.799 238.048 110.487 238.292 110.079 238.452V238.476C110.607 238.588 111.011 238.828 111.291 239.196C111.571 239.564 111.711 240.012 111.711 240.54C111.711 240.852 111.655 241.156 111.543 241.452C111.431 241.748 111.263 242.012 111.039 242.244C110.823 242.468 110.551 242.652 110.223 242.796C109.903 242.932 109.531 243 109.107 243H104.967V234.432ZM106.107 242.04H108.963C109.467 242.04 109.859 241.904 110.139 241.632C110.427 241.36 110.571 240.984 110.571 240.504C110.571 240.224 110.519 239.992 110.415 239.808C110.311 239.624 110.171 239.48 109.995 239.376C109.827 239.264 109.631 239.188 109.407 239.148C109.183 239.1 108.951 239.076 108.711 239.076H106.107V242.04ZM113.758 239.904C113.758 240.28 113.806 240.616 113.902 240.912C114.006 241.2 114.146 241.444 114.322 241.644C114.498 241.836 114.702 241.984 114.934 242.088C115.174 242.192 115.426 242.244 115.69 242.244C115.954 242.244 116.202 242.192 116.434 242.088C116.674 241.984 116.882 241.836 117.058 241.644C117.234 241.444 117.37 241.2 117.466 240.912C117.57 240.616 117.622 240.28 117.622 239.904C117.622 239.528 117.57 239.196 117.466 238.908C117.37 238.612 117.234 238.364 117.058 238.164C116.882 237.964 116.674 237.812 116.434 237.708C116.202 237.604 115.954 237.552 115.69 237.552C115.426 237.552 115.174 237.604 114.934 237.708C114.702 237.812 114.498 237.964 114.322 238.164C114.146 238.364 114.006 238.612 113.902 238.908C113.806 239.196 113.758 239.528 113.758 239.904ZM112.678 239.904C112.678 239.448 112.742 239.024 112.87 238.632C112.998 238.232 113.19 237.888 113.446 237.6C113.702 237.304 114.018 237.072 114.394 236.904C114.77 236.736 115.202 236.652 115.69 236.652C116.186 236.652 116.618 236.736 116.986 236.904C117.362 237.072 117.678 237.304 117.934 237.6C118.19 237.888 118.382 238.232 118.51 238.632C118.638 239.024 118.702 239.448 118.702 239.904C118.702 240.36 118.638 240.784 118.51 241.176C118.382 241.568 118.19 241.912 117.934 242.208C117.678 242.496 117.362 242.724 116.986 242.892C116.618 243.052 116.186 243.132 115.69 243.132C115.202 243.132 114.77 243.052 114.394 242.892C114.018 242.724 113.702 242.496 113.446 242.208C113.19 241.912 112.998 241.568 112.87 241.176C112.742 240.784 112.678 240.36 112.678 239.904ZM120.649 239.952C120.649 240.24 120.685 240.524 120.757 240.804C120.837 241.076 120.953 241.32 121.105 241.536C121.265 241.752 121.465 241.924 121.705 242.052C121.953 242.18 122.241 242.244 122.569 242.244C122.913 242.244 123.205 242.176 123.445 242.04C123.685 241.904 123.881 241.728 124.033 241.512C124.185 241.288 124.293 241.036 124.357 240.756C124.429 240.476 124.465 240.192 124.465 239.904C124.465 239.6 124.429 239.308 124.357 239.028C124.285 238.74 124.169 238.488 124.009 238.272C123.857 238.056 123.657 237.884 123.409 237.756C123.161 237.62 122.861 237.552 122.509 237.552C122.165 237.552 121.873 237.62 121.633 237.756C121.393 237.892 121.201 238.072 121.057 238.296C120.913 238.52 120.809 238.776 120.745 239.064C120.681 239.352 120.649 239.648 120.649 239.952ZM125.449 243H124.429V242.16H124.405C124.237 242.504 123.973 242.752 123.613 242.904C123.253 243.056 122.857 243.132 122.425 243.132C121.945 243.132 121.525 243.044 121.165 242.868C120.813 242.692 120.517 242.456 120.277 242.16C120.045 241.864 119.869 241.52 119.749 241.128C119.629 240.736 119.569 240.32 119.569 239.88C119.569 239.44 119.625 239.024 119.737 238.632C119.857 238.24 120.033 237.9 120.265 237.612C120.505 237.316 120.801 237.084 121.153 236.916C121.513 236.74 121.929 236.652 122.401 236.652C122.561 236.652 122.733 236.668 122.917 236.7C123.101 236.732 123.285 236.788 123.469 236.868C123.653 236.94 123.825 237.04 123.985 237.168C124.153 237.288 124.293 237.44 124.405 237.624H124.429V234.432H125.449V243ZM129.454 243.828C129.334 244.132 129.214 244.388 129.094 244.596C128.982 244.804 128.854 244.972 128.71 245.1C128.574 245.236 128.418 245.332 128.242 245.388C128.074 245.452 127.878 245.484 127.654 245.484C127.534 245.484 127.414 245.476 127.294 245.46C127.174 245.444 127.058 245.416 126.946 245.376V244.44C127.034 244.48 127.134 244.512 127.246 244.536C127.366 244.568 127.466 244.584 127.546 244.584C127.754 244.584 127.926 244.532 128.062 244.428C128.206 244.332 128.314 244.192 128.386 244.008L128.806 242.964L126.346 236.796H127.498L129.31 241.872H129.334L131.074 236.796H132.154L129.454 243.828ZM132.355 241.668H133.687V242.88C133.687 243.336 133.583 243.728 133.375 244.056C133.167 244.384 132.831 244.616 132.367 244.752V244.152C132.503 244.104 132.615 244.032 132.703 243.936C132.799 243.848 132.875 243.748 132.931 243.636C132.987 243.532 133.023 243.424 133.039 243.312C133.063 243.2 133.071 243.096 133.063 243H132.355V241.668ZM138.963 234.432H140.175L144.687 241.38H144.711V234.432H145.791V243H144.543L140.067 236.124H140.043V243H138.963V234.432ZM152.963 242.976C152.787 243.08 152.543 243.132 152.231 243.132C151.967 243.132 151.755 243.06 151.595 242.916C151.443 242.764 151.367 242.52 151.367 242.184C151.087 242.52 150.759 242.764 150.383 242.916C150.015 243.06 149.615 243.132 149.183 243.132C148.903 243.132 148.635 243.1 148.379 243.036C148.131 242.972 147.915 242.872 147.731 242.736C147.547 242.6 147.399 242.424 147.287 242.208C147.183 241.984 147.131 241.716 147.131 241.404C147.131 241.052 147.191 240.764 147.311 240.54C147.431 240.316 147.587 240.136 147.779 240C147.979 239.856 148.203 239.748 148.451 239.676C148.707 239.604 148.967 239.544 149.231 239.496C149.511 239.44 149.775 239.4 150.023 239.376C150.279 239.344 150.503 239.304 150.695 239.256C150.887 239.2 151.039 239.124 151.151 239.028C151.263 238.924 151.319 238.776 151.319 238.584C151.319 238.36 151.275 238.18 151.187 238.044C151.107 237.908 150.999 237.804 150.863 237.732C150.735 237.66 150.587 237.612 150.419 237.588C150.259 237.564 150.099 237.552 149.939 237.552C149.507 237.552 149.147 237.636 148.859 237.804C148.571 237.964 148.415 238.272 148.391 238.728H147.371C147.387 238.344 147.467 238.02 147.611 237.756C147.755 237.492 147.947 237.28 148.187 237.12C148.427 236.952 148.699 236.832 149.003 236.76C149.315 236.688 149.647 236.652 149.999 236.652C150.279 236.652 150.555 236.672 150.827 236.712C151.107 236.752 151.359 236.836 151.583 236.964C151.807 237.084 151.987 237.256 152.123 237.48C152.259 237.704 152.327 237.996 152.327 238.356V241.548C152.327 241.788 152.339 241.964 152.363 242.076C152.395 242.188 152.491 242.244 152.651 242.244C152.739 242.244 152.843 242.224 152.963 242.184V242.976ZM151.307 239.796C151.179 239.892 151.011 239.964 150.803 240.012C150.595 240.052 150.375 240.088 150.143 240.12C149.919 240.144 149.691 240.176 149.459 240.216C149.227 240.248 149.019 240.304 148.835 240.384C148.651 240.464 148.499 240.58 148.379 240.732C148.267 240.876 148.211 241.076 148.211 241.332C148.211 241.5 148.243 241.644 148.307 241.764C148.379 241.876 148.467 241.968 148.571 242.04C148.683 242.112 148.811 242.164 148.955 242.196C149.099 242.228 149.251 242.244 149.411 242.244C149.747 242.244 150.035 242.2 150.275 242.112C150.515 242.016 150.711 241.9 150.863 241.764C151.015 241.62 151.127 241.468 151.199 241.308C151.271 241.14 151.307 240.984 151.307 240.84V239.796ZM156.709 243H155.617L153.313 236.796H154.453L156.193 241.968H156.217L157.909 236.796H158.977L156.709 243ZM160.993 235.68H159.973V234.432H160.993V235.68ZM159.973 236.796H160.993V243H159.973V236.796ZM167.925 242.472C167.925 243.488 167.693 244.248 167.229 244.752C166.765 245.256 166.037 245.508 165.045 245.508C164.757 245.508 164.461 245.476 164.157 245.412C163.861 245.348 163.589 245.244 163.341 245.1C163.101 244.956 162.901 244.768 162.741 244.536C162.581 244.304 162.493 244.02 162.477 243.684H163.497C163.505 243.868 163.561 244.024 163.665 244.152C163.777 244.28 163.909 244.384 164.061 244.464C164.221 244.544 164.393 244.6 164.577 244.632C164.761 244.672 164.937 244.692 165.105 244.692C165.441 244.692 165.725 244.632 165.957 244.512C166.189 244.4 166.381 244.24 166.533 244.032C166.685 243.832 166.793 243.588 166.857 243.3C166.929 243.012 166.965 242.696 166.965 242.352V241.944H166.941C166.765 242.328 166.497 242.612 166.137 242.796C165.785 242.972 165.409 243.06 165.009 243.06C164.545 243.06 164.141 242.976 163.797 242.808C163.453 242.64 163.165 242.416 162.933 242.136C162.701 241.848 162.525 241.516 162.405 241.14C162.293 240.756 162.237 240.352 162.237 239.928C162.237 239.56 162.285 239.184 162.381 238.8C162.477 238.408 162.637 238.056 162.861 237.744C163.085 237.424 163.381 237.164 163.749 236.964C164.117 236.756 164.569 236.652 165.105 236.652C165.497 236.652 165.857 236.74 166.185 236.916C166.513 237.084 166.769 237.34 166.953 237.684H166.965V236.796H167.925V242.472ZM165.069 242.172C165.405 242.172 165.689 242.104 165.921 241.968C166.161 241.824 166.353 241.64 166.497 241.416C166.641 241.184 166.745 240.924 166.809 240.636C166.881 240.348 166.917 240.06 166.917 239.772C166.917 239.5 166.885 239.232 166.821 238.968C166.757 238.704 166.653 238.468 166.509 238.26C166.373 238.044 166.193 237.872 165.969 237.744C165.745 237.616 165.473 237.552 165.153 237.552C164.825 237.552 164.545 237.616 164.313 237.744C164.081 237.864 163.889 238.028 163.737 238.236C163.593 238.444 163.485 238.684 163.413 238.956C163.349 239.228 163.317 239.512 163.317 239.808C163.317 240.088 163.345 240.368 163.401 240.648C163.457 240.928 163.553 241.184 163.689 241.416C163.825 241.64 164.005 241.824 164.229 241.968C164.453 242.104 164.733 242.172 165.069 242.172ZM174.959 242.976C174.783 243.08 174.539 243.132 174.227 243.132C173.963 243.132 173.751 243.06 173.591 242.916C173.439 242.764 173.363 242.52 173.363 242.184C173.083 242.52 172.755 242.764 172.379 242.916C172.011 243.06 171.611 243.132 171.179 243.132C170.899 243.132 170.631 243.1 170.375 243.036C170.127 242.972 169.911 242.872 169.727 242.736C169.543 242.6 169.395 242.424 169.283 242.208C169.179 241.984 169.127 241.716 169.127 241.404C169.127 241.052 169.187 240.764 169.307 240.54C169.427 240.316 169.583 240.136 169.775 240C169.975 239.856 170.199 239.748 170.447 239.676C170.703 239.604 170.963 239.544 171.227 239.496C171.507 239.44 171.771 239.4 172.019 239.376C172.275 239.344 172.499 239.304 172.691 239.256C172.883 239.2 173.035 239.124 173.147 239.028C173.259 238.924 173.315 238.776 173.315 238.584C173.315 238.36 173.271 238.18 173.183 238.044C173.103 237.908 172.995 237.804 172.859 237.732C172.731 237.66 172.583 237.612 172.415 237.588C172.255 237.564 172.095 237.552 171.935 237.552C171.503 237.552 171.143 237.636 170.855 237.804C170.567 237.964 170.411 238.272 170.387 238.728H169.367C169.383 238.344 169.463 238.02 169.607 237.756C169.751 237.492 169.943 237.28 170.183 237.12C170.423 236.952 170.695 236.832 170.999 236.76C171.311 236.688 171.643 236.652 171.995 236.652C172.275 236.652 172.551 236.672 172.823 236.712C173.103 236.752 173.355 236.836 173.579 236.964C173.803 237.084 173.983 237.256 174.119 237.48C174.255 237.704 174.323 237.996 174.323 238.356V241.548C174.323 241.788 174.335 241.964 174.359 242.076C174.391 242.188 174.487 242.244 174.647 242.244C174.735 242.244 174.839 242.224 174.959 242.184V242.976ZM173.303 239.796C173.175 239.892 173.007 239.964 172.799 240.012C172.591 240.052 172.371 240.088 172.139 240.12C171.915 240.144 171.687 240.176 171.455 240.216C171.223 240.248 171.015 240.304 170.831 240.384C170.647 240.464 170.495 240.58 170.375 240.732C170.263 240.876 170.207 241.076 170.207 241.332C170.207 241.5 170.239 241.644 170.303 241.764C170.375 241.876 170.463 241.968 170.567 242.04C170.679 242.112 170.807 242.164 170.951 242.196C171.095 242.228 171.247 242.244 171.407 242.244C171.743 242.244 172.031 242.2 172.271 242.112C172.511 242.016 172.707 241.9 172.859 241.764C173.011 241.62 173.123 241.468 173.195 241.308C173.267 241.14 173.303 240.984 173.303 240.84V239.796ZM177.325 236.796H178.561V237.696H177.325V241.548C177.325 241.668 177.333 241.764 177.349 241.836C177.373 241.908 177.413 241.964 177.469 242.004C177.525 242.044 177.601 242.072 177.697 242.088C177.801 242.096 177.933 242.1 178.093 242.1H178.561V243H177.781C177.517 243 177.289 242.984 177.097 242.952C176.913 242.912 176.761 242.844 176.641 242.748C176.529 242.652 176.445 242.516 176.389 242.34C176.333 242.164 176.305 241.932 176.305 241.644V237.696H175.249V236.796H176.305V234.936H177.325V236.796ZM180.774 235.68H179.754V234.432H180.774V235.68ZM179.754 236.796H180.774V243H179.754V236.796ZM183.098 239.904C183.098 240.28 183.146 240.616 183.242 240.912C183.346 241.2 183.486 241.444 183.662 241.644C183.838 241.836 184.042 241.984 184.274 242.088C184.514 242.192 184.766 242.244 185.03 242.244C185.294 242.244 185.542 242.192 185.774 242.088C186.014 241.984 186.222 241.836 186.398 241.644C186.574 241.444 186.71 241.2 186.806 240.912C186.91 240.616 186.962 240.28 186.962 239.904C186.962 239.528 186.91 239.196 186.806 238.908C186.71 238.612 186.574 238.364 186.398 238.164C186.222 237.964 186.014 237.812 185.774 237.708C185.542 237.604 185.294 237.552 185.03 237.552C184.766 237.552 184.514 237.604 184.274 237.708C184.042 237.812 183.838 237.964 183.662 238.164C183.486 238.364 183.346 238.612 183.242 238.908C183.146 239.196 183.098 239.528 183.098 239.904ZM182.018 239.904C182.018 239.448 182.082 239.024 182.21 238.632C182.338 238.232 182.53 237.888 182.786 237.6C183.042 237.304 183.358 237.072 183.734 236.904C184.11 236.736 184.542 236.652 185.03 236.652C185.526 236.652 185.958 236.736 186.326 236.904C186.702 237.072 187.018 237.304 187.274 237.6C187.53 237.888 187.722 238.232 187.85 238.632C187.978 239.024 188.042 239.448 188.042 239.904C188.042 240.36 187.978 240.784 187.85 241.176C187.722 241.568 187.53 241.912 187.274 242.208C187.018 242.496 186.702 242.724 186.326 242.892C185.958 243.052 185.526 243.132 185.03 243.132C184.542 243.132 184.11 243.052 183.734 242.892C183.358 242.724 183.042 242.496 182.786 242.208C182.53 241.912 182.338 241.568 182.21 241.176C182.082 240.784 182.018 240.36 182.018 239.904ZM189.245 236.796H190.205V237.78H190.229C190.653 237.028 191.325 236.652 192.245 236.652C192.653 236.652 192.993 236.708 193.265 236.82C193.537 236.932 193.757 237.088 193.925 237.288C194.093 237.488 194.209 237.728 194.273 238.008C194.345 238.28 194.381 238.584 194.381 238.92V243H193.361V238.8C193.361 238.416 193.249 238.112 193.025 237.888C192.801 237.664 192.493 237.552 192.101 237.552C191.789 237.552 191.517 237.6 191.285 237.696C191.061 237.792 190.873 237.928 190.721 238.104C190.569 238.28 190.453 238.488 190.373 238.728C190.301 238.96 190.265 239.216 190.265 239.496V243H189.245V236.796ZM196.141 241.668H197.473V242.88C197.473 243.336 197.369 243.728 197.161 244.056C196.953 244.384 196.617 244.616 196.153 244.752V244.152C196.289 244.104 196.401 244.032 196.489 243.936C196.585 243.848 196.661 243.748 196.717 243.636C196.773 243.532 196.809 243.424 196.825 243.312C196.849 243.2 196.857 243.096 196.849 243H196.141V241.668ZM204.704 235.392H201.848V234.432H208.7V235.392H205.844V243H204.704V235.392ZM213.643 242.976C213.467 243.08 213.223 243.132 212.911 243.132C212.647 243.132 212.435 243.06 212.275 242.916C212.123 242.764 212.047 242.52 212.047 242.184C211.767 242.52 211.439 242.764 211.063 242.916C210.695 243.06 210.295 243.132 209.863 243.132C209.583 243.132 209.315 243.1 209.059 243.036C208.811 242.972 208.595 242.872 208.411 242.736C208.227 242.6 208.079 242.424 207.967 242.208C207.863 241.984 207.811 241.716 207.811 241.404C207.811 241.052 207.871 240.764 207.991 240.54C208.111 240.316 208.267 240.136 208.459 240C208.659 239.856 208.883 239.748 209.131 239.676C209.387 239.604 209.647 239.544 209.911 239.496C210.191 239.44 210.455 239.4 210.703 239.376C210.959 239.344 211.183 239.304 211.375 239.256C211.567 239.2 211.719 239.124 211.831 239.028C211.943 238.924 211.999 238.776 211.999 238.584C211.999 238.36 211.955 238.18 211.867 238.044C211.787 237.908 211.679 237.804 211.543 237.732C211.415 237.66 211.267 237.612 211.099 237.588C210.939 237.564 210.779 237.552 210.619 237.552C210.187 237.552 209.827 237.636 209.539 237.804C209.251 237.964 209.095 238.272 209.071 238.728H208.051C208.067 238.344 208.147 238.02 208.291 237.756C208.435 237.492 208.627 237.28 208.867 237.12C209.107 236.952 209.379 236.832 209.683 236.76C209.995 236.688 210.327 236.652 210.679 236.652C210.959 236.652 211.235 236.672 211.507 236.712C211.787 236.752 212.039 236.836 212.263 236.964C212.487 237.084 212.667 237.256 212.803 237.48C212.939 237.704 213.007 237.996 213.007 238.356V241.548C213.007 241.788 213.019 241.964 213.043 242.076C213.075 242.188 213.171 242.244 213.331 242.244C213.419 242.244 213.523 242.224 213.643 242.184V242.976ZM211.987 239.796C211.859 239.892 211.691 239.964 211.483 240.012C211.275 240.052 211.055 240.088 210.823 240.12C210.599 240.144 210.371 240.176 210.139 240.216C209.907 240.248 209.699 240.304 209.515 240.384C209.331 240.464 209.179 240.58 209.059 240.732C208.947 240.876 208.891 241.076 208.891 241.332C208.891 241.5 208.923 241.644 208.987 241.764C209.059 241.876 209.147 241.968 209.251 242.04C209.363 242.112 209.491 242.164 209.635 242.196C209.779 242.228 209.931 242.244 210.091 242.244C210.427 242.244 210.715 242.2 210.955 242.112C211.195 242.016 211.391 241.9 211.543 241.764C211.695 241.62 211.807 241.468 211.879 241.308C211.951 241.14 211.987 240.984 211.987 240.84V239.796ZM219.944 242.472C219.944 243.488 219.712 244.248 219.248 244.752C218.784 245.256 218.056 245.508 217.064 245.508C216.776 245.508 216.48 245.476 216.176 245.412C215.88 245.348 215.608 245.244 215.36 245.1C215.12 244.956 214.92 244.768 214.76 244.536C214.6 244.304 214.512 244.02 214.496 243.684H215.516C215.524 243.868 215.58 244.024 215.684 244.152C215.796 244.28 215.928 244.384 216.08 244.464C216.24 244.544 216.412 244.6 216.596 244.632C216.78 244.672 216.956 244.692 217.124 244.692C217.46 244.692 217.744 244.632 217.976 244.512C218.208 244.4 218.4 244.24 218.552 244.032C218.704 243.832 218.812 243.588 218.876 243.3C218.948 243.012 218.984 242.696 218.984 242.352V241.944H218.96C218.784 242.328 218.516 242.612 218.156 242.796C217.804 242.972 217.428 243.06 217.028 243.06C216.564 243.06 216.16 242.976 215.816 242.808C215.472 242.64 215.184 242.416 214.952 242.136C214.72 241.848 214.544 241.516 214.424 241.14C214.312 240.756 214.256 240.352 214.256 239.928C214.256 239.56 214.304 239.184 214.4 238.8C214.496 238.408 214.656 238.056 214.88 237.744C215.104 237.424 215.4 237.164 215.768 236.964C216.136 236.756 216.588 236.652 217.124 236.652C217.516 236.652 217.876 236.74 218.204 236.916C218.532 237.084 218.788 237.34 218.972 237.684H218.984V236.796H219.944V242.472ZM217.088 242.172C217.424 242.172 217.708 242.104 217.94 241.968C218.18 241.824 218.372 241.64 218.516 241.416C218.66 241.184 218.764 240.924 218.828 240.636C218.9 240.348 218.936 240.06 218.936 239.772C218.936 239.5 218.904 239.232 218.84 238.968C218.776 238.704 218.672 238.468 218.528 238.26C218.392 238.044 218.212 237.872 217.988 237.744C217.764 237.616 217.492 237.552 217.172 237.552C216.844 237.552 216.564 237.616 216.332 237.744C216.1 237.864 215.908 238.028 215.756 238.236C215.612 238.444 215.504 238.684 215.432 238.956C215.368 239.228 215.336 239.512 215.336 239.808C215.336 240.088 215.364 240.368 215.42 240.648C215.476 240.928 215.572 241.184 215.708 241.416C215.844 241.64 216.024 241.824 216.248 241.968C216.472 242.104 216.752 242.172 217.088 242.172ZM222.107 241.044C222.115 241.268 222.167 241.46 222.263 241.62C222.359 241.772 222.483 241.896 222.635 241.992C222.795 242.08 222.971 242.144 223.163 242.184C223.363 242.224 223.567 242.244 223.775 242.244C223.935 242.244 224.103 242.232 224.279 242.208C224.455 242.184 224.615 242.14 224.759 242.076C224.911 242.012 225.035 241.92 225.131 241.8C225.227 241.672 225.275 241.512 225.275 241.32C225.275 241.056 225.175 240.856 224.975 240.72C224.775 240.584 224.523 240.476 224.219 240.396C223.923 240.308 223.599 240.232 223.247 240.168C222.895 240.096 222.567 240 222.263 239.88C221.967 239.752 221.719 239.576 221.519 239.352C221.319 239.128 221.219 238.816 221.219 238.416C221.219 238.104 221.287 237.836 221.423 237.612C221.567 237.388 221.747 237.208 221.963 237.072C222.187 236.928 222.435 236.824 222.707 236.76C222.987 236.688 223.263 236.652 223.535 236.652C223.887 236.652 224.211 236.684 224.507 236.748C224.803 236.804 225.063 236.908 225.287 237.06C225.519 237.204 225.703 237.404 225.839 237.66C225.975 237.908 226.055 238.22 226.079 238.596H225.059C225.043 238.396 224.991 238.232 224.903 238.104C224.815 237.968 224.703 237.86 224.567 237.78C224.431 237.7 224.279 237.644 224.111 237.612C223.951 237.572 223.787 237.552 223.619 237.552C223.467 237.552 223.311 237.564 223.151 237.588C222.999 237.612 222.859 237.656 222.731 237.72C222.603 237.776 222.499 237.856 222.419 237.96C222.339 238.056 222.299 238.184 222.299 238.344C222.299 238.52 222.359 238.668 222.479 238.788C222.607 238.9 222.767 238.996 222.959 239.076C223.151 239.148 223.367 239.212 223.607 239.268C223.847 239.316 224.087 239.368 224.327 239.424C224.583 239.48 224.831 239.548 225.071 239.628C225.319 239.708 225.535 239.816 225.719 239.952C225.911 240.08 226.063 240.244 226.175 240.444C226.295 240.644 226.355 240.892 226.355 241.188C226.355 241.564 226.275 241.876 226.115 242.124C225.963 242.372 225.759 242.572 225.503 242.724C225.255 242.876 224.971 242.98 224.651 243.036C224.339 243.1 224.027 243.132 223.715 243.132C223.371 243.132 223.043 243.096 222.731 243.024C222.419 242.952 222.143 242.836 221.903 242.676C221.663 242.508 221.471 242.292 221.327 242.028C221.183 241.756 221.103 241.428 221.087 241.044H222.107ZM227.711 241.668H229.043V242.88C229.043 243.336 228.939 243.728 228.731 244.056C228.523 244.384 228.187 244.616 227.723 244.752V244.152C227.859 244.104 227.971 244.032 228.059 243.936C228.155 243.848 228.231 243.748 228.287 243.636C228.343 243.532 228.379 243.424 228.395 243.312C228.419 243.2 228.427 243.096 228.419 243H227.711V241.668ZM18.88 252.392H16.024V251.432H22.876V252.392H20.02V260H18.88V252.392ZM27.8187 259.976C27.6427 260.08 27.3987 260.132 27.0867 260.132C26.8227 260.132 26.6107 260.06 26.4507 259.916C26.2987 259.764 26.2227 259.52 26.2227 259.184C25.9427 259.52 25.6147 259.764 25.2387 259.916C24.8707 260.06 24.4707 260.132 24.0387 260.132C23.7587 260.132 23.4907 260.1 23.2347 260.036C22.9867 259.972 22.7707 259.872 22.5867 259.736C22.4027 259.6 22.2547 259.424 22.1427 259.208C22.0387 258.984 21.9867 258.716 21.9867 258.404C21.9867 258.052 22.0467 257.764 22.1667 257.54C22.2867 257.316 22.4427 257.136 22.6347 257C22.8347 256.856 23.0587 256.748 23.3067 256.676C23.5627 256.604 23.8227 256.544 24.0867 256.496C24.3667 256.44 24.6307 256.4 24.8787 256.376C25.1347 256.344 25.3587 256.304 25.5507 256.256C25.7427 256.2 25.8947 256.124 26.0067 256.028C26.1187 255.924 26.1747 255.776 26.1747 255.584C26.1747 255.36 26.1307 255.18 26.0427 255.044C25.9627 254.908 25.8547 254.804 25.7187 254.732C25.5907 254.66 25.4427 254.612 25.2747 254.588C25.1147 254.564 24.9547 254.552 24.7947 254.552C24.3627 254.552 24.0027 254.636 23.7147 254.804C23.4267 254.964 23.2707 255.272 23.2467 255.728H22.2267C22.2427 255.344 22.3227 255.02 22.4667 254.756C22.6107 254.492 22.8027 254.28 23.0427 254.12C23.2827 253.952 23.5547 253.832 23.8587 253.76C24.1707 253.688 24.5027 253.652 24.8547 253.652C25.1347 253.652 25.4107 253.672 25.6827 253.712C25.9627 253.752 26.2147 253.836 26.4387 253.964C26.6627 254.084 26.8427 254.256 26.9787 254.48C27.1147 254.704 27.1827 254.996 27.1827 255.356V258.548C27.1827 258.788 27.1947 258.964 27.2187 259.076C27.2507 259.188 27.3467 259.244 27.5067 259.244C27.5947 259.244 27.6987 259.224 27.8187 259.184V259.976ZM26.1627 256.796C26.0347 256.892 25.8667 256.964 25.6587 257.012C25.4507 257.052 25.2307 257.088 24.9987 257.12C24.7747 257.144 24.5467 257.176 24.3147 257.216C24.0827 257.248 23.8747 257.304 23.6907 257.384C23.5067 257.464 23.3547 257.58 23.2347 257.732C23.1227 257.876 23.0667 258.076 23.0667 258.332C23.0667 258.5 23.0987 258.644 23.1627 258.764C23.2347 258.876 23.3227 258.968 23.4267 259.04C23.5387 259.112 23.6667 259.164 23.8107 259.196C23.9547 259.228 24.1067 259.244 24.2667 259.244C24.6027 259.244 24.8907 259.2 25.1307 259.112C25.3707 259.016 25.5667 258.9 25.7187 258.764C25.8707 258.62 25.9827 258.468 26.0547 258.308C26.1267 258.14 26.1627 257.984 26.1627 257.84V256.796ZM28.804 251.432H29.824V254.636H29.848C30.016 254.292 30.28 254.044 30.64 253.892C31 253.732 31.396 253.652 31.828 253.652C32.308 253.652 32.724 253.74 33.076 253.916C33.436 254.092 33.732 254.332 33.964 254.636C34.204 254.932 34.384 255.276 34.504 255.668C34.624 256.06 34.684 256.476 34.684 256.916C34.684 257.356 34.624 257.772 34.504 258.164C34.392 258.556 34.216 258.9 33.976 259.196C33.744 259.484 33.448 259.712 33.088 259.88C32.736 260.048 32.324 260.132 31.852 260.132C31.7 260.132 31.528 260.116 31.336 260.084C31.152 260.052 30.968 260 30.784 259.928C30.6 259.856 30.424 259.76 30.256 259.64C30.096 259.512 29.96 259.356 29.848 259.172H29.824V260H28.804V251.432ZM33.604 256.844C33.604 256.556 33.564 256.276 33.484 256.004C33.412 255.724 33.296 255.476 33.136 255.26C32.984 255.044 32.784 254.872 32.536 254.744C32.296 254.616 32.012 254.552 31.684 254.552C31.34 254.552 31.048 254.62 30.808 254.756C30.568 254.892 30.372 255.072 30.22 255.296C30.068 255.512 29.956 255.76 29.884 256.04C29.82 256.32 29.788 256.604 29.788 256.892C29.788 257.196 29.824 257.492 29.896 257.78C29.968 258.06 30.08 258.308 30.232 258.524C30.392 258.74 30.596 258.916 30.844 259.052C31.092 259.18 31.392 259.244 31.744 259.244C32.096 259.244 32.388 259.176 32.62 259.04C32.86 258.904 33.052 258.724 33.196 258.5C33.34 258.276 33.444 258.02 33.508 257.732C33.572 257.444 33.604 257.148 33.604 256.844ZM36.5053 258.044C36.5133 258.268 36.5653 258.46 36.6613 258.62C36.7573 258.772 36.8813 258.896 37.0333 258.992C37.1933 259.08 37.3693 259.144 37.5613 259.184C37.7613 259.224 37.9653 259.244 38.1733 259.244C38.3333 259.244 38.5013 259.232 38.6773 259.208C38.8533 259.184 39.0133 259.14 39.1573 259.076C39.3093 259.012 39.4333 258.92 39.5293 258.8C39.6253 258.672 39.6733 258.512 39.6733 258.32C39.6733 258.056 39.5733 257.856 39.3733 257.72C39.1733 257.584 38.9213 257.476 38.6173 257.396C38.3213 257.308 37.9973 257.232 37.6453 257.168C37.2933 257.096 36.9653 257 36.6613 256.88C36.3653 256.752 36.1173 256.576 35.9173 256.352C35.7173 256.128 35.6173 255.816 35.6173 255.416C35.6173 255.104 35.6853 254.836 35.8213 254.612C35.9653 254.388 36.1453 254.208 36.3613 254.072C36.5853 253.928 36.8333 253.824 37.1053 253.76C37.3853 253.688 37.6613 253.652 37.9333 253.652C38.2853 253.652 38.6093 253.684 38.9053 253.748C39.2013 253.804 39.4613 253.908 39.6853 254.06C39.9173 254.204 40.1013 254.404 40.2373 254.66C40.3733 254.908 40.4533 255.22 40.4773 255.596H39.4573C39.4413 255.396 39.3893 255.232 39.3013 255.104C39.2133 254.968 39.1013 254.86 38.9653 254.78C38.8293 254.7 38.6773 254.644 38.5093 254.612C38.3493 254.572 38.1853 254.552 38.0173 254.552C37.8653 254.552 37.7093 254.564 37.5493 254.588C37.3973 254.612 37.2573 254.656 37.1293 254.72C37.0013 254.776 36.8973 254.856 36.8173 254.96C36.7373 255.056 36.6973 255.184 36.6973 255.344C36.6973 255.52 36.7573 255.668 36.8773 255.788C37.0053 255.9 37.1653 255.996 37.3573 256.076C37.5493 256.148 37.7653 256.212 38.0053 256.268C38.2453 256.316 38.4853 256.368 38.7253 256.424C38.9813 256.48 39.2293 256.548 39.4693 256.628C39.7173 256.708 39.9333 256.816 40.1173 256.952C40.3093 257.08 40.4613 257.244 40.5733 257.444C40.6933 257.644 40.7533 257.892 40.7533 258.188C40.7533 258.564 40.6733 258.876 40.5133 259.124C40.3613 259.372 40.1573 259.572 39.9013 259.724C39.6533 259.876 39.3693 259.98 39.0493 260.036C38.7373 260.1 38.4253 260.132 38.1133 260.132C37.7693 260.132 37.4413 260.096 37.1293 260.024C36.8173 259.952 36.5413 259.836 36.3013 259.676C36.0613 259.508 35.8693 259.292 35.7253 259.028C35.5813 258.756 35.5013 258.428 35.4853 258.044H36.5053ZM42.1093 258.668H43.4413V259.88C43.4413 260.336 43.3373 260.728 43.1293 261.056C42.9213 261.384 42.5853 261.616 42.1213 261.752V261.152C42.2573 261.104 42.3693 261.032 42.4573 260.936C42.5533 260.848 42.6293 260.748 42.6853 260.636C42.7413 260.532 42.7773 260.424 42.7933 260.312C42.8173 260.2 42.8253 260.096 42.8173 260H42.1093V258.668ZM50.673 252.392H47.817V251.432H54.669V252.392H51.813V260H50.673V252.392ZM59.6117 259.976C59.4357 260.08 59.1917 260.132 58.8797 260.132C58.6157 260.132 58.4037 260.06 58.2437 259.916C58.0917 259.764 58.0157 259.52 58.0157 259.184C57.7357 259.52 57.4077 259.764 57.0317 259.916C56.6637 260.06 56.2637 260.132 55.8317 260.132C55.5517 260.132 55.2837 260.1 55.0277 260.036C54.7797 259.972 54.5637 259.872 54.3797 259.736C54.1957 259.6 54.0477 259.424 53.9357 259.208C53.8317 258.984 53.7797 258.716 53.7797 258.404C53.7797 258.052 53.8397 257.764 53.9597 257.54C54.0797 257.316 54.2357 257.136 54.4277 257C54.6277 256.856 54.8517 256.748 55.0997 256.676C55.3557 256.604 55.6157 256.544 55.8797 256.496C56.1597 256.44 56.4237 256.4 56.6717 256.376C56.9277 256.344 57.1517 256.304 57.3437 256.256C57.5357 256.2 57.6877 256.124 57.7997 256.028C57.9117 255.924 57.9677 255.776 57.9677 255.584C57.9677 255.36 57.9237 255.18 57.8357 255.044C57.7557 254.908 57.6477 254.804 57.5117 254.732C57.3837 254.66 57.2357 254.612 57.0677 254.588C56.9077 254.564 56.7477 254.552 56.5877 254.552C56.1557 254.552 55.7957 254.636 55.5077 254.804C55.2197 254.964 55.0637 255.272 55.0397 255.728H54.0197C54.0357 255.344 54.1157 255.02 54.2597 254.756C54.4037 254.492 54.5957 254.28 54.8357 254.12C55.0757 253.952 55.3477 253.832 55.6517 253.76C55.9637 253.688 56.2957 253.652 56.6477 253.652C56.9277 253.652 57.2037 253.672 57.4757 253.712C57.7557 253.752 58.0077 253.836 58.2317 253.964C58.4557 254.084 58.6357 254.256 58.7717 254.48C58.9077 254.704 58.9757 254.996 58.9757 255.356V258.548C58.9757 258.788 58.9877 258.964 59.0117 259.076C59.0437 259.188 59.1397 259.244 59.2997 259.244C59.3877 259.244 59.4917 259.224 59.6117 259.184V259.976ZM57.9557 256.796C57.8277 256.892 57.6597 256.964 57.4517 257.012C57.2437 257.052 57.0237 257.088 56.7917 257.12C56.5677 257.144 56.3397 257.176 56.1077 257.216C55.8757 257.248 55.6677 257.304 55.4837 257.384C55.2997 257.464 55.1477 257.58 55.0277 257.732C54.9157 257.876 54.8597 258.076 54.8597 258.332C54.8597 258.5 54.8917 258.644 54.9557 258.764C55.0277 258.876 55.1157 258.968 55.2197 259.04C55.3317 259.112 55.4597 259.164 55.6037 259.196C55.7477 259.228 55.8997 259.244 56.0597 259.244C56.3957 259.244 56.6837 259.2 56.9237 259.112C57.1637 259.016 57.3597 258.9 57.5117 258.764C57.6637 258.62 57.7757 258.468 57.8477 258.308C57.9197 258.14 57.9557 257.984 57.9557 257.84V256.796ZM60.597 251.432H61.617V254.636H61.641C61.809 254.292 62.073 254.044 62.433 253.892C62.793 253.732 63.189 253.652 63.621 253.652C64.101 253.652 64.517 253.74 64.869 253.916C65.229 254.092 65.525 254.332 65.757 254.636C65.997 254.932 66.177 255.276 66.297 255.668C66.417 256.06 66.477 256.476 66.477 256.916C66.477 257.356 66.417 257.772 66.297 258.164C66.185 258.556 66.009 258.9 65.769 259.196C65.537 259.484 65.241 259.712 64.881 259.88C64.529 260.048 64.117 260.132 63.645 260.132C63.493 260.132 63.321 260.116 63.129 260.084C62.945 260.052 62.761 260 62.577 259.928C62.393 259.856 62.217 259.76 62.049 259.64C61.889 259.512 61.753 259.356 61.641 259.172H61.617V260H60.597V251.432ZM65.397 256.844C65.397 256.556 65.357 256.276 65.277 256.004C65.205 255.724 65.089 255.476 64.929 255.26C64.777 255.044 64.577 254.872 64.329 254.744C64.089 254.616 63.805 254.552 63.477 254.552C63.133 254.552 62.841 254.62 62.601 254.756C62.361 254.892 62.165 255.072 62.013 255.296C61.861 255.512 61.749 255.76 61.677 256.04C61.613 256.32 61.581 256.604 61.581 256.892C61.581 257.196 61.617 257.492 61.689 257.78C61.761 258.06 61.873 258.308 62.025 258.524C62.185 258.74 62.389 258.916 62.637 259.052C62.885 259.18 63.185 259.244 63.537 259.244C63.889 259.244 64.181 259.176 64.413 259.04C64.653 258.904 64.845 258.724 64.989 258.5C65.133 258.276 65.237 258.02 65.301 257.732C65.365 257.444 65.397 257.148 65.397 256.844ZM67.7343 251.432H68.7543V260H67.7343V251.432ZM74.6424 256.304C74.6264 256.064 74.5704 255.836 74.4744 255.62C74.3864 255.404 74.2624 255.22 74.1024 255.068C73.9504 254.908 73.7664 254.784 73.5504 254.696C73.3424 254.6 73.1104 254.552 72.8544 254.552C72.5904 254.552 72.3504 254.6 72.1344 254.696C71.9264 254.784 71.7464 254.908 71.5944 255.068C71.4424 255.228 71.3224 255.416 71.2344 255.632C71.1464 255.84 71.0944 256.064 71.0784 256.304H74.6424ZM75.6264 258.032C75.4904 258.728 75.1904 259.252 74.7264 259.604C74.2624 259.956 73.6784 260.132 72.9744 260.132C72.4784 260.132 72.0464 260.052 71.6784 259.892C71.3184 259.732 71.0144 259.508 70.7664 259.22C70.5184 258.932 70.3304 258.588 70.2024 258.188C70.0824 257.788 70.0144 257.352 69.9984 256.88C69.9984 256.408 70.0704 255.976 70.2144 255.584C70.3584 255.192 70.5584 254.852 70.8144 254.564C71.0784 254.276 71.3864 254.052 71.7384 253.892C72.0984 253.732 72.4904 253.652 72.9144 253.652C73.4664 253.652 73.9224 253.768 74.2824 254C74.6504 254.224 74.9424 254.512 75.1584 254.864C75.3824 255.216 75.5344 255.6 75.6144 256.016C75.7024 256.432 75.7384 256.828 75.7224 257.204H71.0784C71.0704 257.476 71.1024 257.736 71.1744 257.984C71.2464 258.224 71.3624 258.44 71.5224 258.632C71.6824 258.816 71.8864 258.964 72.1344 259.076C72.3824 259.188 72.6744 259.244 73.0104 259.244C73.4424 259.244 73.7944 259.144 74.0664 258.944C74.3464 258.744 74.5304 258.44 74.6184 258.032H75.6264ZM80.2876 251.432H81.4276V255.116H85.9396V251.432H87.0796V260H85.9396V256.076H81.4276V260H80.2876V251.432ZM93.0877 256.304C93.0717 256.064 93.0157 255.836 92.9197 255.62C92.8317 255.404 92.7077 255.22 92.5477 255.068C92.3957 254.908 92.2117 254.784 91.9957 254.696C91.7877 254.6 91.5557 254.552 91.2997 254.552C91.0357 254.552 90.7957 254.6 90.5797 254.696C90.3717 254.784 90.1917 254.908 90.0397 255.068C89.8877 255.228 89.7677 255.416 89.6797 255.632C89.5917 255.84 89.5397 256.064 89.5237 256.304H93.0877ZM94.0717 258.032C93.9357 258.728 93.6357 259.252 93.1717 259.604C92.7077 259.956 92.1237 260.132 91.4197 260.132C90.9237 260.132 90.4917 260.052 90.1237 259.892C89.7637 259.732 89.4597 259.508 89.2117 259.22C88.9637 258.932 88.7757 258.588 88.6477 258.188C88.5277 257.788 88.4597 257.352 88.4437 256.88C88.4437 256.408 88.5157 255.976 88.6597 255.584C88.8037 255.192 89.0037 254.852 89.2597 254.564C89.5237 254.276 89.8317 254.052 90.1837 253.892C90.5437 253.732 90.9357 253.652 91.3597 253.652C91.9117 253.652 92.3677 253.768 92.7277 254C93.0957 254.224 93.3877 254.512 93.6037 254.864C93.8277 255.216 93.9797 255.6 94.0597 256.016C94.1477 256.432 94.1837 256.828 94.1677 257.204H89.5237C89.5157 257.476 89.5477 257.736 89.6197 257.984C89.6917 258.224 89.8077 258.44 89.9677 258.632C90.1277 258.816 90.3317 258.964 90.5797 259.076C90.8277 259.188 91.1197 259.244 91.4557 259.244C91.8877 259.244 92.2397 259.144 92.5117 258.944C92.7917 258.744 92.9757 258.44 93.0637 258.032H94.0717ZM100.721 259.976C100.545 260.08 100.301 260.132 99.989 260.132C99.725 260.132 99.513 260.06 99.353 259.916C99.201 259.764 99.125 259.52 99.125 259.184C98.845 259.52 98.517 259.764 98.141 259.916C97.773 260.06 97.373 260.132 96.941 260.132C96.661 260.132 96.393 260.1 96.137 260.036C95.889 259.972 95.673 259.872 95.489 259.736C95.305 259.6 95.157 259.424 95.045 259.208C94.941 258.984 94.889 258.716 94.889 258.404C94.889 258.052 94.949 257.764 95.069 257.54C95.189 257.316 95.345 257.136 95.537 257C95.737 256.856 95.961 256.748 96.209 256.676C96.465 256.604 96.725 256.544 96.989 256.496C97.269 256.44 97.533 256.4 97.781 256.376C98.037 256.344 98.261 256.304 98.453 256.256C98.645 256.2 98.797 256.124 98.909 256.028C99.021 255.924 99.077 255.776 99.077 255.584C99.077 255.36 99.033 255.18 98.945 255.044C98.865 254.908 98.757 254.804 98.621 254.732C98.493 254.66 98.345 254.612 98.177 254.588C98.017 254.564 97.857 254.552 97.697 254.552C97.265 254.552 96.905 254.636 96.617 254.804C96.329 254.964 96.173 255.272 96.149 255.728H95.129C95.145 255.344 95.225 255.02 95.369 254.756C95.513 254.492 95.705 254.28 95.945 254.12C96.185 253.952 96.457 253.832 96.761 253.76C97.073 253.688 97.405 253.652 97.757 253.652C98.037 253.652 98.313 253.672 98.585 253.712C98.865 253.752 99.117 253.836 99.341 253.964C99.565 254.084 99.745 254.256 99.881 254.48C100.017 254.704 100.085 254.996 100.085 255.356V258.548C100.085 258.788 100.097 258.964 100.121 259.076C100.153 259.188 100.249 259.244 100.409 259.244C100.497 259.244 100.601 259.224 100.721 259.184V259.976ZM99.065 256.796C98.937 256.892 98.769 256.964 98.561 257.012C98.353 257.052 98.133 257.088 97.901 257.12C97.677 257.144 97.449 257.176 97.217 257.216C96.985 257.248 96.777 257.304 96.593 257.384C96.409 257.464 96.257 257.58 96.137 257.732C96.025 257.876 95.969 258.076 95.969 258.332C95.969 258.5 96.001 258.644 96.065 258.764C96.137 258.876 96.225 258.968 96.329 259.04C96.441 259.112 96.569 259.164 96.713 259.196C96.857 259.228 97.009 259.244 97.169 259.244C97.505 259.244 97.793 259.2 98.033 259.112C98.273 259.016 98.469 258.9 98.621 258.764C98.773 258.62 98.885 258.468 98.957 258.308C99.029 258.14 99.065 257.984 99.065 257.84V256.796ZM102.414 256.952C102.414 257.24 102.45 257.524 102.522 257.804C102.602 258.076 102.718 258.32 102.87 258.536C103.03 258.752 103.23 258.924 103.47 259.052C103.718 259.18 104.006 259.244 104.334 259.244C104.678 259.244 104.97 259.176 105.21 259.04C105.45 258.904 105.646 258.728 105.798 258.512C105.95 258.288 106.058 258.036 106.122 257.756C106.194 257.476 106.23 257.192 106.23 256.904C106.23 256.6 106.194 256.308 106.122 256.028C106.05 255.74 105.934 255.488 105.774 255.272C105.622 255.056 105.422 254.884 105.174 254.756C104.926 254.62 104.626 254.552 104.274 254.552C103.93 254.552 103.638 254.62 103.398 254.756C103.158 254.892 102.966 255.072 102.822 255.296C102.678 255.52 102.574 255.776 102.51 256.064C102.446 256.352 102.414 256.648 102.414 256.952ZM107.214 260H106.194V259.16H106.17C106.002 259.504 105.738 259.752 105.378 259.904C105.018 260.056 104.622 260.132 104.19 260.132C103.71 260.132 103.29 260.044 102.93 259.868C102.578 259.692 102.282 259.456 102.042 259.16C101.81 258.864 101.634 258.52 101.514 258.128C101.394 257.736 101.334 257.32 101.334 256.88C101.334 256.44 101.39 256.024 101.502 255.632C101.622 255.24 101.798 254.9 102.03 254.612C102.27 254.316 102.566 254.084 102.918 253.916C103.278 253.74 103.694 253.652 104.166 253.652C104.326 253.652 104.498 253.668 104.682 253.7C104.866 253.732 105.05 253.788 105.234 253.868C105.418 253.94 105.59 254.04 105.75 254.168C105.918 254.288 106.058 254.44 106.17 254.624H106.194V251.432H107.214V260ZM113.092 256.304C113.076 256.064 113.02 255.836 112.924 255.62C112.836 255.404 112.712 255.22 112.552 255.068C112.4 254.908 112.216 254.784 112 254.696C111.792 254.6 111.56 254.552 111.304 254.552C111.04 254.552 110.8 254.6 110.584 254.696C110.376 254.784 110.196 254.908 110.044 255.068C109.892 255.228 109.772 255.416 109.684 255.632C109.596 255.84 109.544 256.064 109.528 256.304H113.092ZM114.076 258.032C113.94 258.728 113.64 259.252 113.176 259.604C112.712 259.956 112.128 260.132 111.424 260.132C110.928 260.132 110.496 260.052 110.128 259.892C109.768 259.732 109.464 259.508 109.216 259.22C108.968 258.932 108.78 258.588 108.652 258.188C108.532 257.788 108.464 257.352 108.448 256.88C108.448 256.408 108.52 255.976 108.664 255.584C108.808 255.192 109.008 254.852 109.264 254.564C109.528 254.276 109.836 254.052 110.188 253.892C110.548 253.732 110.94 253.652 111.364 253.652C111.916 253.652 112.372 253.768 112.732 254C113.1 254.224 113.392 254.512 113.608 254.864C113.832 255.216 113.984 255.6 114.064 256.016C114.152 256.432 114.188 256.828 114.172 257.204H109.528C109.52 257.476 109.552 257.736 109.624 257.984C109.696 258.224 109.812 258.44 109.972 258.632C110.132 258.816 110.336 258.964 110.584 259.076C110.832 259.188 111.124 259.244 111.46 259.244C111.892 259.244 112.244 259.144 112.516 258.944C112.796 258.744 112.98 258.44 113.068 258.032H114.076ZM115.193 253.796H116.153V255.104H116.177C116.425 254.6 116.729 254.228 117.089 253.988C117.449 253.748 117.905 253.636 118.457 253.652V254.732C118.049 254.732 117.701 254.788 117.413 254.9C117.125 255.012 116.893 255.176 116.717 255.392C116.541 255.608 116.413 255.872 116.333 256.184C116.253 256.488 116.213 256.84 116.213 257.24V260H115.193V253.796Z" fill="#322E24"/>
<rect x="16" y="368" width="77" height="29" rx="14.5" fill="#E94426"/>
<path d="M29.209 386.5H28.0898L28.541 384.244H27.1934L27.4102 383.137H28.7637L29.1328 381.309H27.7324L27.9492 380.207H29.3555L29.7949 378.045H30.9199L30.4805 380.207H32.1387L32.5723 378.045H33.7031L33.2695 380.207H34.6816L34.4707 381.309H33.0469L32.6777 383.137H34.1367L33.9258 384.244H32.4492L31.998 386.5H30.8613L31.3242 384.244H29.666L29.209 386.5ZM29.8359 383.189H31.582L31.9688 381.268H30.2227L29.8359 383.189ZM35.918 386.5V378.045H41.3906V379.316H37.4297V381.607H41.1738V382.809H37.4297V385.229H41.3906V386.5H35.918ZM46.1074 377.834C47.9121 377.834 49.4824 379.117 49.4824 382.164V382.176C49.4824 385.023 48.1992 386.711 46.0723 386.711C44.5195 386.711 43.3594 385.791 43.0898 384.496L43.0781 384.432H44.5664L44.584 384.49C44.8066 385.082 45.3281 385.469 46.0723 385.469C47.4141 385.469 47.9824 384.156 48.0469 382.539C48.0469 382.475 48.0527 382.41 48.0527 382.346H47.9355C47.625 383.014 46.8867 383.605 45.7266 383.605C44.1035 383.605 42.9668 382.422 42.9668 380.816V380.805C42.9668 379.088 44.2734 377.834 46.1074 377.834ZM46.1016 382.445C47.0566 382.445 47.7891 381.754 47.7891 380.799V380.787C47.7891 379.82 47.0566 379.064 46.1191 379.064C45.1875 379.064 44.4434 379.809 44.4434 380.752V380.764C44.4434 381.742 45.1406 382.445 46.1016 382.445ZM55.0137 386.5V384.877H50.877V383.641C51.9727 381.736 53.1738 379.791 54.3223 378.045H56.4609V383.629H57.5977V384.877H56.4609V386.5H55.0137ZM52.2832 383.664H55.0371V379.252H54.9492C54.082 380.576 53.1035 382.141 52.2832 383.576V383.664ZM63.0762 386.5V384.877H58.9395V383.641C60.0352 381.736 61.2363 379.791 62.3848 378.045H64.5234V383.629H65.6602V384.877H64.5234V386.5H63.0762ZM60.3457 383.664H63.0996V379.252H63.0117C62.1445 380.576 61.166 382.141 60.3457 383.576V383.664ZM67.2363 386.5V385.48L70.0137 382.645C71.1621 381.484 71.4844 381.057 71.4844 380.406V380.389C71.4844 379.609 70.9512 379.047 70.0723 379.047C69.1758 379.047 68.5723 379.639 68.5723 380.512L68.5664 380.535L67.1602 380.529L67.1543 380.512C67.1543 378.936 68.3848 377.834 70.1484 377.834C71.7949 377.834 72.9785 378.836 72.9785 380.26V380.277C72.9785 381.238 72.5156 382 70.9746 383.482L69.2812 385.123V385.246H73.1074V386.5H67.2363ZM78.0117 386.711C76.207 386.711 74.6367 385.428 74.6367 382.381V382.369C74.6367 379.521 75.9199 377.834 78.0469 377.834C79.5996 377.834 80.7598 378.754 81.0293 380.049L81.041 380.113H79.5586L79.5352 380.055C79.3125 379.463 78.791 379.076 78.0469 379.076C76.7051 379.076 76.1367 380.389 76.0723 382.006C76.0723 382.07 76.0664 382.135 76.0664 382.199H76.1836C76.4941 381.531 77.2324 380.939 78.3926 380.939C80.0156 380.939 81.1523 382.123 81.1523 383.729V383.74C81.1523 385.457 79.8457 386.711 78.0117 386.711ZM76.3301 383.758C76.3301 384.725 77.0625 385.48 78 385.48C78.9375 385.48 79.6758 384.736 79.6758 383.793V383.781C79.6758 382.803 78.9785 382.1 78.0176 382.1C77.0625 382.1 76.3301 382.791 76.3301 383.746V383.758Z" fill="white"/>
<rect x="105" y="368" width="78" height="29" rx="14.5" fill="black"/>
<path d="M118.209 386.5H117.09L117.541 384.244H116.193L116.41 383.137H117.764L118.133 381.309H116.732L116.949 380.207H118.355L118.795 378.045H119.92L119.48 380.207H121.139L121.572 378.045H122.703L122.27 380.207H123.682L123.471 381.309H122.047L121.678 383.137H123.137L122.926 384.244H121.449L120.998 386.5H119.861L120.324 384.244H118.666L118.209 386.5ZM118.836 383.189H120.582L120.969 381.268H119.223L118.836 383.189ZM127.859 386.711C125.85 386.711 124.643 385.006 124.643 382.275V382.264C124.643 379.533 125.85 377.834 127.859 377.834C129.869 377.834 131.088 379.533 131.088 382.264V382.275C131.088 385.006 129.869 386.711 127.859 386.711ZM127.859 385.486C128.938 385.486 129.564 384.279 129.564 382.275V382.264C129.564 380.26 128.938 379.064 127.859 379.064C126.781 379.064 126.166 380.26 126.166 382.264V382.275C126.166 384.279 126.781 385.486 127.859 385.486ZM135.84 386.711C133.83 386.711 132.623 385.006 132.623 382.275V382.264C132.623 379.533 133.83 377.834 135.84 377.834C137.85 377.834 139.068 379.533 139.068 382.264V382.275C139.068 385.006 137.85 386.711 135.84 386.711ZM135.84 385.486C136.918 385.486 137.545 384.279 137.545 382.275V382.264C137.545 380.26 136.918 379.064 135.84 379.064C134.762 379.064 134.146 380.26 134.146 382.264V382.275C134.146 384.279 134.762 385.486 135.84 385.486ZM143.82 386.711C141.811 386.711 140.604 385.006 140.604 382.275V382.264C140.604 379.533 141.811 377.834 143.82 377.834C145.83 377.834 147.049 379.533 147.049 382.264V382.275C147.049 385.006 145.83 386.711 143.82 386.711ZM143.82 385.486C144.898 385.486 145.525 384.279 145.525 382.275V382.264C145.525 380.26 144.898 379.064 143.82 379.064C142.742 379.064 142.127 380.26 142.127 382.264V382.275C142.127 384.279 142.742 385.486 143.82 385.486ZM151.801 386.711C149.791 386.711 148.584 385.006 148.584 382.275V382.264C148.584 379.533 149.791 377.834 151.801 377.834C153.811 377.834 155.029 379.533 155.029 382.264V382.275C155.029 385.006 153.811 386.711 151.801 386.711ZM151.801 385.486C152.879 385.486 153.506 384.279 153.506 382.275V382.264C153.506 380.26 152.879 379.064 151.801 379.064C150.723 379.064 150.107 380.26 150.107 382.264V382.275C150.107 384.279 150.723 385.486 151.801 385.486ZM159.781 386.711C157.771 386.711 156.564 385.006 156.564 382.275V382.264C156.564 379.533 157.771 377.834 159.781 377.834C161.791 377.834 163.01 379.533 163.01 382.264V382.275C163.01 385.006 161.791 386.711 159.781 386.711ZM159.781 385.486C160.859 385.486 161.486 384.279 161.486 382.275V382.264C161.486 380.26 160.859 379.064 159.781 379.064C158.703 379.064 158.088 380.26 158.088 382.264V382.275C158.088 384.279 158.703 385.486 159.781 385.486ZM167.762 386.711C165.752 386.711 164.545 385.006 164.545 382.275V382.264C164.545 379.533 165.752 377.834 167.762 377.834C169.771 377.834 170.99 379.533 170.99 382.264V382.275C170.99 385.006 169.771 386.711 167.762 386.711ZM167.762 385.486C168.84 385.486 169.467 384.279 169.467 382.275V382.264C169.467 380.26 168.84 379.064 167.762 379.064C166.684 379.064 166.068 380.26 166.068 382.264V382.275C166.068 384.279 166.684 385.486 167.762 385.486Z" fill="white"/>
<rect x="195" y="368" width="75" height="29" rx="14.5" fill="#F9F9F9"/>
<path d="M207.709 386.5H206.59L207.041 384.244H205.693L205.91 383.137H207.264L207.633 381.309H206.232L206.449 380.207H207.855L208.295 378.045H209.42L208.98 380.207H210.639L211.072 378.045H212.203L211.77 380.207H213.182L212.971 381.309H211.547L211.178 383.137H212.637L212.426 384.244H210.949L210.498 386.5H209.361L209.824 384.244H208.166L207.709 386.5ZM208.336 383.189H210.082L210.469 381.268H208.723L208.336 383.189ZM214.418 386.5V378.045H219.809V379.316H215.93V381.818H219.475V383.049H215.93V386.5H214.418ZM224.326 377.834C226.131 377.834 227.701 379.117 227.701 382.164V382.176C227.701 385.023 226.418 386.711 224.291 386.711C222.738 386.711 221.578 385.791 221.309 384.496L221.297 384.432H222.785L222.803 384.49C223.025 385.082 223.547 385.469 224.291 385.469C225.633 385.469 226.201 384.156 226.266 382.539C226.266 382.475 226.271 382.41 226.271 382.346H226.154C225.844 383.014 225.105 383.605 223.945 383.605C222.322 383.605 221.186 382.422 221.186 380.816V380.805C221.186 379.088 222.492 377.834 224.326 377.834ZM224.32 382.445C225.275 382.445 226.008 381.754 226.008 380.799V380.787C226.008 379.82 225.275 379.064 224.338 379.064C223.406 379.064 222.662 379.809 222.662 380.752V380.764C222.662 381.742 223.359 382.445 224.32 382.445ZM229.488 386.5V378.045H234.879V379.316H231V381.818H234.545V383.049H231V386.5H229.488ZM239.396 377.834C241.201 377.834 242.771 379.117 242.771 382.164V382.176C242.771 385.023 241.488 386.711 239.361 386.711C237.809 386.711 236.648 385.791 236.379 384.496L236.367 384.432H237.855L237.873 384.49C238.096 385.082 238.617 385.469 239.361 385.469C240.703 385.469 241.271 384.156 241.336 382.539C241.336 382.475 241.342 382.41 241.342 382.346H241.225C240.914 383.014 240.176 383.605 239.016 383.605C237.393 383.605 236.256 382.422 236.256 380.816V380.805C236.256 379.088 237.562 377.834 239.396 377.834ZM239.391 382.445C240.346 382.445 241.078 381.754 241.078 380.799V380.787C241.078 379.82 240.346 379.064 239.408 379.064C238.477 379.064 237.732 379.809 237.732 380.752V380.764C237.732 381.742 238.43 382.445 239.391 382.445ZM244.559 386.5V378.045H249.949V379.316H246.07V381.818H249.615V383.049H246.07V386.5H244.559ZM254.467 377.834C256.271 377.834 257.842 379.117 257.842 382.164V382.176C257.842 385.023 256.559 386.711 254.432 386.711C252.879 386.711 251.719 385.791 251.449 384.496L251.438 384.432H252.926L252.943 384.49C253.166 385.082 253.688 385.469 254.432 385.469C255.773 385.469 256.342 384.156 256.406 382.539C256.406 382.475 256.412 382.41 256.412 382.346H256.295C255.984 383.014 255.246 383.605 254.086 383.605C252.463 383.605 251.326 382.422 251.326 380.816V380.805C251.326 379.088 252.633 377.834 254.467 377.834ZM254.461 382.445C255.416 382.445 256.148 381.754 256.148 380.799V380.787C256.148 379.82 255.416 379.064 254.479 379.064C253.547 379.064 252.803 379.809 252.803 380.752V380.764C252.803 381.742 253.5 382.445 254.461 382.445Z" fill="black"/>
</svg>
