<svg width="128" height="40" viewBox="0 0 128 40" fill="none" xmlns="http://www.w3.org/2000/svg">
<path opacity="0.3" d="M0 20C0 8.95431 8.95431 0 20 0H108C119.046 0 128 8.95431 128 20C128 31.0457 119.046 40 108 40H20C8.95431 40 0 31.0457 0 20Z" fill="url(#paint0_linear_5609_39949)"/>
<path d="M17.5463 25L21.2963 14.4312H23.4276L27.1776 25H25.2001L24.3139 22.2681H20.4027L19.5238 25H17.5463ZM22.2997 16.394L20.8788 20.8105H23.8451L22.4242 16.394H22.2997ZM32.6567 25.1318C31.5361 25.1318 30.6645 24.6191 30.2251 23.7476H30.1006V25H28.2769V13.8965H30.1006V18.269H30.2251C30.6426 17.4048 31.5581 16.8628 32.6567 16.8628C34.6855 16.8628 35.9453 18.4448 35.9453 20.9937V21.0083C35.9453 23.5425 34.6636 25.1318 32.6567 25.1318ZM32.0854 23.5938C33.3306 23.5938 34.085 22.6196 34.085 21.0083V20.9937C34.085 19.3823 33.3306 18.4009 32.0854 18.4009C30.8477 18.4009 30.0786 19.3896 30.0786 20.9937V21.0083C30.0786 22.6123 30.8477 23.5938 32.0854 23.5938ZM40.6261 25.1611C38.2237 25.1611 36.7735 23.5938 36.7735 21.001V20.9863C36.7735 18.4155 38.2457 16.8408 40.6261 16.8408C43.0138 16.8408 44.4786 18.4082 44.4786 20.9863V21.001C44.4786 23.5938 43.0211 25.1611 40.6261 25.1611ZM40.6261 23.6816C41.8932 23.6816 42.6109 22.6929 42.6109 21.0083V20.9937C42.6109 19.3091 41.8858 18.313 40.6261 18.313C39.359 18.313 38.6339 19.3091 38.6339 20.9937V21.0083C38.6339 22.6929 39.359 23.6816 40.6261 23.6816ZM48.361 25.1611C46.5593 25.1611 45.6364 24.0771 45.6364 22.1729V16.9946H47.4602V21.7554C47.4602 22.9932 47.9216 23.623 49.0202 23.623C50.1994 23.623 50.8293 22.8613 50.8293 21.6602V16.9946H52.653V25H50.8293V23.7842H50.7048C50.3312 24.6411 49.5183 25.1611 48.361 25.1611ZM57.429 25.0366C55.5906 25.0366 54.8362 24.4214 54.8362 22.876V18.4082H53.5911V16.9946H54.8362V15.0317H56.6893V16.9946H58.3811V18.4082H56.6893V22.4438C56.6893 23.2422 57.0042 23.5791 57.7659 23.5791C58.0223 23.5791 58.1614 23.5718 58.3811 23.5498V24.9561C58.1175 25.0073 57.7806 25.0366 57.429 25.0366ZM63.187 25V14.4312H67.4058C69.5518 14.4312 71.002 15.8447 71.002 17.9614V17.9761C71.002 20.0854 69.5518 21.5063 67.4058 21.5063H65.0767V25H63.187ZM66.9443 15.9766H65.0767V19.9829H66.9443C68.2993 19.9829 69.0903 19.2505 69.0903 17.9834V17.9688C69.0903 16.7017 68.2993 15.9766 66.9443 15.9766ZM72.2989 25V16.9946H74.1227V18.2251H74.2472C74.5182 17.3682 75.2506 16.8628 76.3053 16.8628C76.5836 16.8628 76.8692 16.8994 77.045 16.9507V18.584C76.752 18.5254 76.4518 18.4814 76.1368 18.4814C74.921 18.4814 74.1227 19.2065 74.1227 20.3491V25H72.2989ZM81.1911 25.1611C78.7888 25.1611 77.3386 23.5938 77.3386 21.001V20.9863C77.3386 18.4155 78.8107 16.8408 81.1911 16.8408C83.5788 16.8408 85.0437 18.4082 85.0437 20.9863V21.001C85.0437 23.5938 83.5861 25.1611 81.1911 25.1611ZM81.1911 23.6816C82.4582 23.6816 83.176 22.6929 83.176 21.0083V20.9937C83.176 19.3091 82.4509 18.313 81.1911 18.313C79.924 18.313 79.1989 19.3091 79.1989 20.9937V21.0083C79.1989 22.6929 79.924 23.6816 81.1911 23.6816ZM87.1976 15.6543C86.6043 15.6543 86.1136 15.1782 86.1136 14.5776C86.1136 13.9844 86.6043 13.501 87.1976 13.501C87.7981 13.501 88.2889 13.9844 88.2889 14.5776C88.2889 15.1782 87.7981 15.6543 87.1976 15.6543ZM85.4104 27.7319C85.264 27.7319 85.0735 27.7246 84.971 27.7173V26.2817C85.0442 26.2891 85.1248 26.2891 85.2054 26.2891C85.9817 26.2891 86.2894 26.0254 86.2894 25.2856V16.9946H88.1131V25.3076C88.1131 26.9482 87.2049 27.7319 85.4104 27.7319ZM93.1894 25.1611C90.809 25.1611 89.3661 23.5645 89.3661 21.0156V21.0083C89.3661 18.4888 90.8236 16.8408 93.1015 16.8408C95.3793 16.8408 96.7855 18.4375 96.7855 20.8545V21.4551H91.1898C91.2118 22.8906 91.9882 23.7256 93.226 23.7256C94.2147 23.7256 94.7787 23.2275 94.9545 22.8613L94.9765 22.8101H96.7123L96.6903 22.876C96.434 23.9087 95.3646 25.1611 93.1894 25.1611ZM93.1234 18.269C92.1054 18.269 91.3437 18.9575 91.2045 20.2319H95.0058C94.8812 18.9209 94.1415 18.269 93.1234 18.269ZM101.444 25.1611C99.0347 25.1611 97.6138 23.6011 97.6138 20.9863V20.9717C97.6138 18.3862 99.0273 16.8408 101.437 16.8408C103.495 16.8408 104.726 17.9834 104.931 19.6387V19.668H103.209L103.202 19.646C103.034 18.8696 102.44 18.313 101.444 18.313C100.199 18.313 99.4668 19.2944 99.4668 20.9717V20.9863C99.4668 22.6855 100.207 23.6816 101.444 23.6816C102.389 23.6816 102.968 23.2495 103.195 22.4072L103.209 22.3779L104.931 22.3706L104.916 22.4292C104.652 24.0698 103.473 25.1611 101.444 25.1611ZM109.318 25.0366C107.48 25.0366 106.726 24.4214 106.726 22.876V18.4082H105.481V16.9946H106.726V15.0317H108.579V16.9946H110.271V18.4082H108.579V22.4438C108.579 23.2422 108.894 23.5791 109.655 23.5791C109.912 23.5791 110.051 23.5718 110.271 23.5498V24.9561C110.007 25.0073 109.67 25.0366 109.318 25.0366Z" fill="url(#paint1_linear_5609_39949)"/>
<defs>
<linearGradient id="paint0_linear_5609_39949" x1="0.441379" y1="20" x2="96.6621" y2="20" gradientUnits="userSpaceOnUse">
<stop stop-color="#FFCF82" stop-opacity="0.69"/>
<stop offset="1" stop-color="#FF1C03" stop-opacity="0.35"/>
</linearGradient>
<linearGradient id="paint1_linear_5609_39949" x1="17" y1="20" x2="118.806" y2="24.8114" gradientUnits="userSpaceOnUse">
<stop stop-color="#E49618"/>
<stop offset="1" stop-color="#FF4800"/>
</linearGradient>
</defs>
</svg>
