<svg width="118" height="40" viewBox="0 0 118 40" fill="none" xmlns="http://www.w3.org/2000/svg">
<path opacity="0.3" d="M0 20C0 8.95431 8.95431 0 20 0H98C109.046 0 118 8.95431 118 20C118 31.0457 109.046 40 98 40H20C8.95431 40 0 31.0457 0 20Z" fill="url(#paint0_linear_5609_40382)"/>
<path d="M17.3439 25V14.4312H21.3063C24.4484 14.4312 26.2795 16.3501 26.2795 19.6606V19.6753C26.2795 23.0591 24.4704 25 21.3063 25H17.3439ZM19.2336 23.4106H21.0573C23.1594 23.4106 24.3532 22.0776 24.3532 19.7046V19.6899C24.3532 17.3682 23.1301 16.0205 21.0573 16.0205H19.2336V23.4106ZM31.0848 25.1611C28.7044 25.1611 27.2615 23.5645 27.2615 21.0156V21.0083C27.2615 18.4888 28.719 16.8408 30.9969 16.8408C33.2747 16.8408 34.681 18.4375 34.681 20.8545V21.4551H29.0853C29.1072 22.8906 29.8836 23.7256 31.1214 23.7256C32.1102 23.7256 32.6741 23.2275 32.8499 22.8613L32.8719 22.8101H34.6077L34.5857 22.876C34.3294 23.9087 33.2601 25.1611 31.0848 25.1611ZM31.0188 18.269C30.0008 18.269 29.2391 18.9575 29.0999 20.2319H32.9012C32.7767 18.9209 32.0369 18.269 31.0188 18.269ZM38.9296 25.1611C36.8935 25.1611 35.663 24.2236 35.5092 22.8687V22.854H37.3183L37.3256 22.8687C37.516 23.4253 38.0507 23.8135 38.9589 23.8135C39.8671 23.8135 40.497 23.4033 40.497 22.8027V22.7881C40.497 22.3193 40.1454 22.0117 39.2665 21.814L37.9701 21.521C36.4467 21.1841 35.7216 20.4663 35.7216 19.2871V19.2798C35.7216 17.8369 37.0399 16.8408 38.9296 16.8408C40.8778 16.8408 42.0424 17.8076 42.1596 19.104V19.1187H40.4457L40.4384 19.0967C40.3065 18.5913 39.7792 18.1812 38.9223 18.1812C38.1093 18.1812 37.5233 18.5767 37.5233 19.1772V19.1846C37.5233 19.6533 37.8603 19.939 38.7245 20.1367L40.0209 20.4224C41.5883 20.7739 42.328 21.4404 42.328 22.605V22.6196C42.328 24.1431 40.8998 25.1611 38.9296 25.1611ZM44.5039 15.6543C43.9033 15.6543 43.4126 15.1782 43.4126 14.5776C43.4126 13.9844 43.9033 13.501 44.5039 13.501C45.0972 13.501 45.5879 13.9844 45.5879 14.5776C45.5879 15.1782 45.0972 15.6543 44.5039 15.6543ZM43.5884 25V16.9946H45.4121V25H43.5884ZM50.4957 27.8125C48.3863 27.8125 47.1192 26.9116 46.9361 25.564L46.9435 25.542H48.7672L48.7745 25.564C48.899 26.0767 49.5069 26.4355 50.525 26.4355C51.7701 26.4355 52.4952 25.8569 52.4952 24.8315V23.3008H52.3707C51.9093 24.1577 51.0377 24.6265 49.9317 24.6265C47.9029 24.6265 46.6432 23.0591 46.6432 20.7886V20.7739C46.6432 18.4595 47.9029 16.8628 49.9684 16.8628C51.0743 16.8628 51.9386 17.4048 52.3927 18.313H52.4879V16.9946H54.3116V24.8022C54.3116 26.6479 52.8321 27.8125 50.4957 27.8125ZM50.4957 23.1763C51.7628 23.1763 52.5245 22.2021 52.5245 20.7886V20.7739C52.5245 19.3604 51.7555 18.3789 50.4957 18.3789C49.2286 18.3789 48.5108 19.3604 48.5108 20.7739V20.7886C48.5108 22.2021 49.2286 23.1763 50.4957 23.1763ZM55.9455 25V16.9946H57.7692V18.2178H57.8937C58.2746 17.3608 59.0437 16.8408 60.2009 16.8408C61.988 16.8408 62.9621 17.9175 62.9621 19.8218V25H61.1384V20.2466C61.1384 19.0015 60.633 18.3716 59.5271 18.3716C58.4431 18.3716 57.7692 19.1333 57.7692 20.3345V25H55.9455ZM71.7743 25.2637C69.3207 25.2637 67.7606 24.0552 67.6288 22.2314L67.6215 22.1289H69.4525L69.4599 22.2021C69.5478 23.0884 70.4926 23.6743 71.8329 23.6743C73.1073 23.6743 74.0009 23.0444 74.0009 22.1362V22.1289C74.0009 21.3672 73.4516 20.9058 72.0893 20.6128L70.954 20.3784C68.7934 19.9243 67.8559 18.9136 67.8559 17.3389V17.3315C67.8559 15.4419 69.4818 14.1675 71.767 14.1675C74.1107 14.1675 75.5683 15.4492 75.7001 17.1484L75.7074 17.2437H73.8983L73.8837 17.1558C73.7519 16.3354 72.9682 15.7495 71.7597 15.7568C70.5878 15.7568 69.7528 16.3062 69.7528 17.207V17.2144C69.7528 17.9614 70.2875 18.4302 71.6059 18.7085L72.7411 18.9502C74.9677 19.4189 75.8979 20.3125 75.8979 21.9092V21.9165C75.8979 23.9746 74.3085 25.2637 71.7743 25.2637ZM80.3809 25.0366C78.5425 25.0366 77.7881 24.4214 77.7881 22.876V18.4082H76.543V16.9946H77.7881V15.0317H79.6411V16.9946H81.333V18.4082H79.6411V22.4438C79.6411 23.2422 79.9561 23.5791 80.7178 23.5791C80.9741 23.5791 81.1133 23.5718 81.333 23.5498V24.9561C81.0693 25.0073 80.7324 25.0366 80.3809 25.0366ZM83.4063 27.8125C83.1866 27.8125 82.9303 27.8052 82.7105 27.7832V26.3843C82.857 26.3989 83.0621 26.4062 83.2525 26.4062C83.9996 26.4062 84.4464 26.0986 84.6441 25.3735L84.7393 25.0073L81.8756 16.9946H83.8678L85.7354 23.2495H85.8746L87.735 16.9946H89.6539L86.7828 25.1685C86.0943 27.1753 85.1788 27.8125 83.4063 27.8125ZM90.6945 25V13.8965H92.5183V25H90.6945ZM97.6531 25.1611C95.2728 25.1611 93.8299 23.5645 93.8299 21.0156V21.0083C93.8299 18.4888 95.2874 16.8408 97.5652 16.8408C99.8431 16.8408 101.249 18.4375 101.249 20.8545V21.4551H95.6536C95.6756 22.8906 96.452 23.7256 97.6897 23.7256C98.6785 23.7256 99.2425 23.2275 99.4183 22.8613L99.4402 22.8101H101.176L101.154 22.876C100.898 23.9087 99.8284 25.1611 97.6531 25.1611ZM97.5872 18.269C96.5691 18.269 95.8074 18.9575 95.6683 20.2319H99.4695C99.345 18.9209 98.6053 18.269 97.5872 18.269Z" fill="url(#paint1_linear_5609_40382)"/>
<defs>
<linearGradient id="paint0_linear_5609_40382" x1="0.406897" y1="20" x2="89.1103" y2="20" gradientUnits="userSpaceOnUse">
<stop stop-color="#FFCF82" stop-opacity="0.69"/>
<stop offset="1" stop-color="#FF1C03" stop-opacity="0.35"/>
</linearGradient>
<linearGradient id="paint1_linear_5609_40382" x1="16" y1="20" x2="109.175" y2="24.0287" gradientUnits="userSpaceOnUse">
<stop stop-color="#E49618"/>
<stop offset="1" stop-color="#FF4800"/>
</linearGradient>
</defs>
</svg>
