<svg width="93" height="40" viewBox="0 0 93 40" fill="none" xmlns="http://www.w3.org/2000/svg">
<path opacity="0.3" d="M0 20C0 8.95431 8.95431 0 20 0H73C84.0457 0 93 8.95431 93 20C93 31.0457 84.0457 40 73 40H20C8.9543 40 0 31.0457 0 20Z" fill="url(#paint0_linear_5609_40497)"/>
<path d="M17.6259 25V14.4312H24.3642V16.0205H19.5155V19.1479H23.9467V20.686H19.5155V25H17.6259ZM29.0962 25.1611C26.7158 25.1611 25.2729 23.5645 25.2729 21.0156V21.0083C25.2729 18.4888 26.7305 16.8408 29.0083 16.8408C31.2861 16.8408 32.6924 18.4375 32.6924 20.8545V21.4551H27.0967C27.1187 22.8906 27.895 23.7256 29.1328 23.7256C30.1216 23.7256 30.6855 23.2275 30.8613 22.8613L30.8833 22.8101H32.6191L32.5972 22.876C32.3408 23.9087 31.2715 25.1611 29.0962 25.1611ZM29.0303 18.269C28.0122 18.269 27.2505 18.9575 27.1113 20.2319H30.9126C30.7881 18.9209 30.0483 18.269 29.0303 18.269ZM36.0987 25.1318C34.5753 25.1318 33.4693 24.1943 33.4693 22.7368V22.7222C33.4693 21.2939 34.5606 20.459 36.5089 20.3418L38.567 20.2173V19.5288C38.567 18.7305 38.047 18.291 37.0655 18.291C36.2306 18.291 35.6886 18.5913 35.5055 19.1187L35.4981 19.1479H33.777L33.7843 19.082C33.9601 17.7344 35.2491 16.8408 37.1534 16.8408C39.2115 16.8408 40.3687 17.8369 40.3687 19.5288V25H38.567V23.9014H38.4425C38.003 24.6777 37.1534 25.1318 36.0987 25.1318ZM35.2711 22.6489C35.2711 23.3301 35.8497 23.7329 36.6554 23.7329C37.754 23.7329 38.567 23.0151 38.567 22.063V21.4185L36.7652 21.5356C35.7472 21.6016 35.2711 21.9751 35.2711 22.6343V22.6489ZM45.1081 25.0366C43.2697 25.0366 42.5153 24.4214 42.5153 22.876V18.4082H41.2702V16.9946H42.5153V15.0317H44.3684V16.9946H46.0603V18.4082H44.3684V22.4438C44.3684 23.2422 44.6833 23.5791 45.445 23.5791C45.7014 23.5791 45.8405 23.5718 46.0603 23.5498V24.9561C45.7966 25.0073 45.4597 25.0366 45.1081 25.0366ZM49.928 25.1611C48.1263 25.1611 47.2034 24.0771 47.2034 22.1729V16.9946H49.0271V21.7554C49.0271 22.9932 49.4886 23.623 50.5872 23.623C51.7664 23.623 52.3963 22.8613 52.3963 21.6602V16.9946H54.22V25H52.3963V23.7842H52.2718C51.8982 24.6411 51.0853 25.1611 49.928 25.1611ZM55.8466 25V16.9946H57.6703V18.2251H57.7948C58.0658 17.3682 58.7982 16.8628 59.8529 16.8628C60.1312 16.8628 60.4169 16.8994 60.5927 16.9507V18.584C60.2997 18.5254 59.9994 18.4814 59.6845 18.4814C58.4687 18.4814 57.6703 19.2065 57.6703 20.3491V25H55.8466ZM64.7095 25.1611C62.3291 25.1611 60.8862 23.5645 60.8862 21.0156V21.0083C60.8862 18.4888 62.3438 16.8408 64.6216 16.8408C66.8994 16.8408 68.3057 18.4375 68.3057 20.8545V21.4551H62.71C62.7319 22.8906 63.5083 23.7256 64.7461 23.7256C65.7349 23.7256 66.2988 23.2275 66.4746 22.8613L66.4966 22.8101H68.2324L68.2104 22.876C67.9541 23.9087 66.8848 25.1611 64.7095 25.1611ZM64.6436 18.269C63.6255 18.269 62.8638 18.9575 62.7246 20.2319H66.5259C66.4014 18.9209 65.6616 18.269 64.6436 18.269ZM72.5543 25.1611C70.5182 25.1611 69.2877 24.2236 69.1339 22.8687V22.854H70.943L70.9503 22.8687C71.1407 23.4253 71.6754 23.8135 72.5836 23.8135C73.4918 23.8135 74.1217 23.4033 74.1217 22.8027V22.7881C74.1217 22.3193 73.7701 22.0117 72.8912 21.814L71.5948 21.521C70.0714 21.1841 69.3463 20.4663 69.3463 19.2871V19.2798C69.3463 17.8369 70.6646 16.8408 72.5543 16.8408C74.5025 16.8408 75.6671 17.8076 75.7843 19.104V19.1187H74.0704L74.0631 19.0967C73.9313 18.5913 73.4039 18.1812 72.547 18.1812C71.734 18.1812 71.148 18.5767 71.148 19.1772V19.1846C71.148 19.6533 71.485 19.939 72.3492 20.1367L73.6456 20.4224C75.213 20.7739 75.9527 21.4404 75.9527 22.605V22.6196C75.9527 24.1431 74.5245 25.1611 72.5543 25.1611Z" fill="url(#paint1_linear_5609_40497)"/>
<defs>
<linearGradient id="paint0_linear_5609_40497" x1="0.32069" y1="20" x2="70.231" y2="20" gradientUnits="userSpaceOnUse">
<stop stop-color="#FFCF82" stop-opacity="0.69"/>
<stop offset="1" stop-color="#FF1C03" stop-opacity="0.35"/>
</linearGradient>
<linearGradient id="paint1_linear_5609_40497" x1="16" y1="20" x2="82.1507" y2="22.0288" gradientUnits="userSpaceOnUse">
<stop stop-color="#E49618"/>
<stop offset="1" stop-color="#FF4800"/>
</linearGradient>
</defs>
</svg>
