<svg width="139" height="40" viewBox="0 0 139 40" fill="none" xmlns="http://www.w3.org/2000/svg">
<path opacity="0.3" d="M0 20C0 8.95431 8.95431 0 20 0H119C130.046 0 139 8.95431 139 20C139 31.0457 130.046 40 119 40H20C8.95431 40 0 31.0457 0 20Z" fill="url(#paint0_linear_5609_40203)"/>
<path d="M17.7433 25V14.4312H21.7057C24.8478 14.4312 26.6788 16.3501 26.6788 19.6606V19.6753C26.6788 23.0591 24.8697 25 21.7057 25H17.7433ZM19.6329 23.4106H21.4566C23.5587 23.4106 24.7525 22.0776 24.7525 19.7046V19.6899C24.7525 17.3682 23.5294 16.0205 21.4566 16.0205H19.6329V23.4106ZM31.4841 25.1611C29.1037 25.1611 27.6608 23.5645 27.6608 21.0156V21.0083C27.6608 18.4888 29.1184 16.8408 31.3962 16.8408C33.674 16.8408 35.0803 18.4375 35.0803 20.8545V21.4551H29.4846C29.5065 22.8906 30.2829 23.7256 31.5207 23.7256C32.5095 23.7256 33.0734 23.2275 33.2492 22.8613L33.2712 22.8101H35.007L34.9851 22.876C34.7287 23.9087 33.6594 25.1611 31.4841 25.1611ZM31.4182 18.269C30.4001 18.269 29.6384 18.9575 29.4992 20.2319H33.3005C33.176 18.9209 32.4362 18.269 31.4182 18.269ZM39.3289 25.1611C37.2928 25.1611 36.0623 24.2236 35.9085 22.8687V22.854H37.7176L37.7249 22.8687C37.9153 23.4253 38.45 23.8135 39.3582 23.8135C40.2664 23.8135 40.8963 23.4033 40.8963 22.8027V22.7881C40.8963 22.3193 40.5447 22.0117 39.6658 21.814L38.3694 21.521C36.846 21.1841 36.1209 20.4663 36.1209 19.2871V19.2798C36.1209 17.8369 37.4393 16.8408 39.3289 16.8408C41.2771 16.8408 42.4417 17.8076 42.5589 19.104V19.1187H40.845L40.8377 19.0967C40.7059 18.5913 40.1785 18.1812 39.3216 18.1812C38.5086 18.1812 37.9227 18.5767 37.9227 19.1772V19.1846C37.9227 19.6533 38.2596 19.939 39.1238 20.1367L40.4202 20.4224C41.9876 20.7739 42.7273 21.4404 42.7273 22.605V22.6196C42.7273 24.1431 41.2991 25.1611 39.3289 25.1611ZM44.9032 15.6543C44.3026 15.6543 43.8119 15.1782 43.8119 14.5776C43.8119 13.9844 44.3026 13.501 44.9032 13.501C45.4965 13.501 45.9872 13.9844 45.9872 14.5776C45.9872 15.1782 45.4965 15.6543 44.9032 15.6543ZM43.9877 25V16.9946H45.8114V25H43.9877ZM50.895 27.8125C48.7856 27.8125 47.5186 26.9116 47.3355 25.564L47.3428 25.542H49.1665L49.1738 25.564C49.2983 26.0767 49.9063 26.4355 50.9243 26.4355C52.1694 26.4355 52.8945 25.8569 52.8945 24.8315V23.3008H52.77C52.3086 24.1577 51.437 24.6265 50.3311 24.6265C48.3022 24.6265 47.0425 23.0591 47.0425 20.7886V20.7739C47.0425 18.4595 48.3022 16.8628 50.3677 16.8628C51.4736 16.8628 52.3379 17.4048 52.792 18.313H52.8872V16.9946H54.7109V24.8022C54.7109 26.6479 53.2314 27.8125 50.895 27.8125ZM50.895 23.1763C52.1621 23.1763 52.9238 22.2021 52.9238 20.7886V20.7739C52.9238 19.3604 52.1548 18.3789 50.895 18.3789C49.6279 18.3789 48.9102 19.3604 48.9102 20.7739V20.7886C48.9102 22.2021 49.6279 23.1763 50.895 23.1763ZM56.3448 25V16.9946H58.1686V18.2178H58.2931C58.6739 17.3608 59.443 16.8408 60.6002 16.8408C62.3873 16.8408 63.3614 17.9175 63.3614 19.8218V25H61.5377V20.2466C61.5377 19.0015 61.0323 18.3716 59.9264 18.3716C58.8424 18.3716 58.1686 19.1333 58.1686 20.3345V25H56.3448ZM68.5042 25V14.4312H72.7229C74.8689 14.4312 76.3191 15.8447 76.3191 17.9614V17.9761C76.3191 20.0854 74.8689 21.5063 72.7229 21.5063H70.3938V25H68.5042ZM72.2615 15.9766H70.3938V19.9829H72.2615C73.6165 19.9829 74.4075 19.2505 74.4075 17.9834V17.9688C74.4075 16.7017 73.6165 15.9766 72.2615 15.9766ZM77.6161 25V16.9946H79.4398V18.2251H79.5644C79.8354 17.3682 80.5678 16.8628 81.6225 16.8628C81.9008 16.8628 82.1864 16.8994 82.3622 16.9507V18.584C82.0692 18.5254 81.7689 18.4814 81.454 18.4814C80.2382 18.4814 79.4398 19.2065 79.4398 20.3491V25H77.6161ZM86.5083 25.1611C84.106 25.1611 82.6558 23.5938 82.6558 21.001V20.9863C82.6558 18.4155 84.1279 16.8408 86.5083 16.8408C88.896 16.8408 90.3608 18.4082 90.3608 20.9863V21.001C90.3608 23.5938 88.9033 25.1611 86.5083 25.1611ZM86.5083 23.6816C87.7754 23.6816 88.4932 22.6929 88.4932 21.0083V20.9937C88.4932 19.3091 87.7681 18.313 86.5083 18.313C85.2412 18.313 84.5161 19.3091 84.5161 20.9937V21.0083C84.5161 22.6929 85.2412 23.6816 86.5083 23.6816ZM95.027 25.1611C92.6173 25.1611 91.1964 23.6011 91.1964 20.9863V20.9717C91.1964 18.3862 92.61 16.8408 95.0196 16.8408C97.0777 16.8408 98.3082 17.9834 98.5133 19.6387V19.668H96.7921L96.7848 19.646C96.6163 18.8696 96.023 18.313 95.027 18.313C93.7818 18.313 93.0494 19.2944 93.0494 20.9717V20.9863C93.0494 22.6855 93.7892 23.6816 95.027 23.6816C95.9718 23.6816 96.5504 23.2495 96.7774 22.4072L96.7921 22.3779L98.5133 22.3706L98.4986 22.4292C98.235 24.0698 97.0558 25.1611 95.027 25.1611ZM103.077 25.1611C100.696 25.1611 99.2536 23.5645 99.2536 21.0156V21.0083C99.2536 18.4888 100.711 16.8408 102.989 16.8408C105.267 16.8408 106.673 18.4375 106.673 20.8545V21.4551H101.077C101.099 22.8906 101.876 23.7256 103.113 23.7256C104.102 23.7256 104.666 23.2275 104.842 22.8613L104.864 22.8101H106.6L106.578 22.876C106.321 23.9087 105.252 25.1611 103.077 25.1611ZM103.011 18.269C101.993 18.269 101.231 18.9575 101.092 20.2319H104.893C104.769 18.9209 104.029 18.269 103.011 18.269ZM110.922 25.1611C108.886 25.1611 107.655 24.2236 107.501 22.8687V22.854H109.31L109.318 22.8687C109.508 23.4253 110.043 23.8135 110.951 23.8135C111.859 23.8135 112.489 23.4033 112.489 22.8027V22.7881C112.489 22.3193 112.138 22.0117 111.259 21.814L109.962 21.521C108.439 21.1841 107.714 20.4663 107.714 19.2871V19.2798C107.714 17.8369 109.032 16.8408 110.922 16.8408C112.87 16.8408 114.034 17.8076 114.152 19.104V19.1187H112.438L112.43 19.0967C112.299 18.5913 111.771 18.1812 110.914 18.1812C110.101 18.1812 109.515 18.5767 109.515 19.1772V19.1846C109.515 19.6533 109.852 19.939 110.717 20.1367L112.013 20.4224C113.58 20.7739 114.32 21.4404 114.32 22.605V22.6196C114.32 24.1431 112.892 25.1611 110.922 25.1611ZM118.437 25.1611C116.401 25.1611 115.17 24.2236 115.017 22.8687V22.854H116.826L116.833 22.8687C117.023 23.4253 117.558 23.8135 118.466 23.8135C119.374 23.8135 120.004 23.4033 120.004 22.8027V22.7881C120.004 22.3193 119.653 22.0117 118.774 21.814L117.477 21.521C115.954 21.1841 115.229 20.4663 115.229 19.2871V19.2798C115.229 17.8369 116.547 16.8408 118.437 16.8408C120.385 16.8408 121.55 17.8076 121.667 19.104V19.1187H119.953L119.946 19.0967C119.814 18.5913 119.287 18.1812 118.43 18.1812C117.617 18.1812 117.031 18.5767 117.031 19.1772V19.1846C117.031 19.6533 117.368 19.939 118.232 20.1367L119.528 20.4224C121.096 20.7739 121.835 21.4404 121.835 22.605V22.6196C121.835 24.1431 120.407 25.1611 118.437 25.1611Z" fill="url(#paint1_linear_5609_40203)"/>
<defs>
<linearGradient id="paint0_linear_5609_40203" x1="0.47931" y1="20" x2="104.969" y2="20" gradientUnits="userSpaceOnUse">
<stop stop-color="#FFCF82" stop-opacity="0.69"/>
<stop offset="1" stop-color="#FF1C03" stop-opacity="0.35"/>
</linearGradient>
<linearGradient id="paint1_linear_5609_40203" x1="16" y1="20" x2="131.809" y2="26.2301" gradientUnits="userSpaceOnUse">
<stop stop-color="#E49618"/>
<stop offset="1" stop-color="#FF4800"/>
</linearGradient>
</defs>
</svg>
