<svg width="102" height="40" viewBox="0 0 102 40" fill="none" xmlns="http://www.w3.org/2000/svg">
<path opacity="0.3" d="M0 20C0 8.95431 8.95431 0 20 0H82C93.0457 0 102 8.95431 102 20C102 31.0457 93.0457 40 82 40H20C8.9543 40 0 31.0457 0 20Z" fill="url(#paint0_linear_5609_40502)"/>
<path d="M16.6544 25L20.4044 14.4312H22.5357L26.2857 25H24.3082L23.422 22.2681H19.5108L18.6319 25H16.6544ZM21.4078 16.394L19.9869 20.8105H22.9532L21.5323 16.394H21.4078ZM27.3117 25V16.9946H29.1355V18.2178H29.26C29.6408 17.3608 30.4099 16.8408 31.5671 16.8408C33.3542 16.8408 34.3283 17.9175 34.3283 19.8218V25H32.5046V20.2466C32.5046 19.0015 31.9992 18.3716 30.8933 18.3716C29.8093 18.3716 29.1355 19.1333 29.1355 20.3345V25H27.3117ZM36.8191 15.6543C36.2186 15.6543 35.7278 15.1782 35.7278 14.5776C35.7278 13.9844 36.2186 13.501 36.8191 13.501C37.4124 13.501 37.9031 13.9844 37.9031 14.5776C37.9031 15.1782 37.4124 15.6543 36.8191 15.6543ZM35.9036 25V16.9946H37.7273V25H35.9036ZM39.3686 25V16.9946H41.1923V18.2397H41.3168C41.661 17.3462 42.4667 16.8408 43.5141 16.8408C44.598 16.8408 45.3891 17.3975 45.7333 18.2837H45.8578C46.246 17.4121 47.1688 16.8408 48.2821 16.8408C49.8935 16.8408 50.8603 17.8296 50.8603 19.4922V25H49.0365V19.939C49.0365 18.8989 48.5605 18.3716 47.5863 18.3716C46.6342 18.3716 46.0189 19.082 46.0189 19.9976V25H44.1952V19.8071C44.1952 18.9209 43.6459 18.3716 42.7523 18.3716C41.8515 18.3716 41.1923 19.1333 41.1923 20.1294V25H39.3686ZM54.6035 25.1318C53.0801 25.1318 51.9741 24.1943 51.9741 22.7368V22.7222C51.9741 21.2939 53.0654 20.459 55.0137 20.3418L57.0718 20.2173V19.5288C57.0718 18.7305 56.5518 18.291 55.5703 18.291C54.7354 18.291 54.1934 18.5913 54.0103 19.1187L54.0029 19.1479H52.2817L52.2891 19.082C52.4648 17.7344 53.7539 16.8408 55.6582 16.8408C57.7163 16.8408 58.8735 17.8369 58.8735 19.5288V25H57.0718V23.9014H56.9473C56.5078 24.6777 55.6582 25.1318 54.6035 25.1318ZM53.7759 22.6489C53.7759 23.3301 54.3545 23.7329 55.1602 23.7329C56.2588 23.7329 57.0718 23.0151 57.0718 22.063V21.4185L55.27 21.5356C54.252 21.6016 53.7759 21.9751 53.7759 22.6343V22.6489ZM63.6129 25.0366C61.7745 25.0366 61.0201 24.4214 61.0201 22.876V18.4082H59.775V16.9946H61.0201V15.0317H62.8731V16.9946H64.565V18.4082H62.8731V22.4438C62.8731 23.2422 63.1881 23.5791 63.9498 23.5791C64.2062 23.5791 64.3453 23.5718 64.565 23.5498V24.9561C64.3014 25.0073 63.9645 25.0366 63.6129 25.0366ZM66.7189 15.6543C66.1184 15.6543 65.6276 15.1782 65.6276 14.5776C65.6276 13.9844 66.1184 13.501 66.7189 13.501C67.3122 13.501 67.8029 13.9844 67.8029 14.5776C67.8029 15.1782 67.3122 15.6543 66.7189 15.6543ZM65.8034 25V16.9946H67.6272V25H65.8034ZM72.7254 25.1611C70.323 25.1611 68.8729 23.5938 68.8729 21.001V20.9863C68.8729 18.4155 70.345 16.8408 72.7254 16.8408C75.1131 16.8408 76.5779 18.4082 76.5779 20.9863V21.001C76.5779 23.5938 75.1204 25.1611 72.7254 25.1611ZM72.7254 23.6816C73.9925 23.6816 74.7103 22.6929 74.7103 21.0083V20.9937C74.7103 19.3091 73.9852 18.313 72.7254 18.313C71.4583 18.313 70.7332 19.3091 70.7332 20.9937V21.0083C70.7332 22.6929 71.4583 23.6816 72.7254 23.6816ZM77.809 25V16.9946H79.6327V18.2178H79.7572C80.1381 17.3608 80.9071 16.8408 82.0644 16.8408C83.8515 16.8408 84.8256 17.9175 84.8256 19.8218V25H83.0019V20.2466C83.0019 19.0015 82.4965 18.3716 81.3905 18.3716C80.3065 18.3716 79.6327 19.1333 79.6327 20.3345V25H77.809Z" fill="url(#paint1_linear_5609_40502)"/>
<defs>
<linearGradient id="paint0_linear_5609_40502" x1="0.351724" y1="20" x2="77.0276" y2="20" gradientUnits="userSpaceOnUse">
<stop stop-color="#FFCF82" stop-opacity="0.69"/>
<stop offset="1" stop-color="#FF1C03" stop-opacity="0.35"/>
</linearGradient>
<linearGradient id="paint1_linear_5609_40502" x1="16" y1="20" x2="91.888" y2="22.6708" gradientUnits="userSpaceOnUse">
<stop stop-color="#E49618"/>
<stop offset="1" stop-color="#FF4800"/>
</linearGradient>
</defs>
</svg>
