<svg xmlns="http://www.w3.org/2000/svg" width="1920" height="732" viewBox="0 0 1920 732" fill="none">
  <g filter="url(#filter2_d_12360_16656)">
    <line x1="816" y1="571.5" x2="1920" y2="571.5" stroke="#201F27"/>
  </g>
  <path d="M816 571.5H781.327C771.869 571.5 762.716 568.148 755.495 562.039L665.553 485.96C658.331 479.851 649.179 476.5 639.72 476.5H542.387C532.964 476.5 523.844 473.173 516.634 467.106L373.876 346.987C364.843 339.387 359.629 328.185 359.629 316.38V262.119C359.629 250.314 354.415 239.112 345.382 231.512L250.164 151.393C242.953 145.326 233.833 142 224.41 142H125.53C116.143 142 107.056 138.699 99.8576 132.674L0 49.1025" stroke="#201F27"/>
  <defs>
    <filter id="filter0_d_12360_16656" x="1162" y="0.65625" width="236.359" height="168.844" filterUnits="userSpaceOnUse" color-interpolation-filters="sRGB">
      <feFlood flood-opacity="0" result="BackgroundImageFix"/>
      <feColorMatrix in="SourceAlpha" type="matrix" values="0 0 0 0 0 0 0 0 0 0 0 0 0 0 0 0 0 0 127 0" result="hardAlpha"/>
      <feOffset dx="0" dy="0"/>
      <feComposite in2="hardAlpha" operator="out"/>
      <feColorMatrix type="matrix" values="0 0 0 0 0 0 0 0 0 0 0 0 0 0 0 0 0 0 1 0"/>
      <feBlend mode="normal" in2="BackgroundImageFix" result="effect1_dropShadow_12360_16656"/>
      <feBlend mode="normal" in="SourceGraphic" in2="effect1_dropShadow_12360_16656" result="shape"/>
    </filter>
    <filter id="filter1_d_12360_16656" x="522.641" y="0.65625" width="236.359" height="168.844" filterUnits="userSpaceOnUse" color-interpolation-filters="sRGB">
      <feFlood flood-opacity="0" result="BackgroundImageFix"/>
      <feColorMatrix in="SourceAlpha" type="matrix" values="0 0 0 0 0 0 0 0 0 0 0 0 0 0 0 0 0 0 127 0" result="hardAlpha"/>
      <feOffset dx="0" dy="0"/>
      <feComposite in2="hardAlpha" operator="out"/>
      <feColorMatrix type="matrix" values="0 0 0 0 0 0 0 0 0 0 0 0 0 0 0 0 0 0 1 0"/>
      <feBlend mode="normal" in2="BackgroundImageFix" result="effect1_dropShadow_12360_16656"/>
      <feBlend mode="normal" in="SourceGraphic" in2="effect1_dropShadow_12360_16656" result="shape"/>
    </filter>
    <filter id="filter2_d_12360_16656" x="0" y="570" width="1921" height="2" filterUnits="userSpaceOnUse" color-interpolation-filters="sRGB">
      <feFlood flood-opacity="0" result="BackgroundImageFix"/>
      <feColorMatrix in="SourceAlpha" type="matrix" values="0 0 0 0 0 0 0 0 0 0 0 0 0 0 0 0 0 0 127 0" result="hardAlpha"/>
      <feOffset dx="0" dy="0"/>
      <feComposite in2="hardAlpha" operator="out"/>
      <feColorMatrix type="matrix" values="0 0 0 0 0 0 0 0 0 0 0 0 0 0 0 0 0 0 1 0"/>
      <feBlend mode="normal" in2="BackgroundImageFix" result="effect1_dropShadow_12360_16656"/>
      <feBlend mode="normal" in="SourceGraphic" in2="effect1_dropShadow_12360_16656" result="shape"/>
    </filter>
  </defs>
</svg>
