<svg xmlns="http://www.w3.org/2000/svg" width="1920" height="732" viewBox="0 0 1920 732" fill="none">
  <path visibility='hidden' d="M353 731L398.09 680.127C405.682 671.562 416.579 666.659 428.024 666.659H495.228C506.785 666.659 517.778 661.66 525.374 652.95L584.453 585.209C592.05 576.499 603.042 571.5 614.599 571.5H659" stroke="#201F27"/>
  <path visibility='hidden' d="M1568 731L1522.91 680.127C1515.32 671.562 1504.42 666.659 1492.98 666.659H1425.77C1414.21 666.659 1403.22 661.66 1395.63 652.95L1336.55 585.209C1328.95 576.499 1317.96 571.5 1306.4 571.5H1262" stroke="#201F27"/>
  <path visibility='hidden' d="M1568 731L1522.91 680.127C1515.32 671.562 1504.42 666.659 1492.98 666.659H1425.77C1414.21 666.659 1403.22 661.66 1395.63 652.95L1336.55 585.209C1328.95 576.499 1317.96 571.5 1306.4 571.5H1262" stroke="#201F27"/>
  <g filter="url(#filter2_d_12360_16656)">
    <line x1="4.37114e-08" y1="571.5" x2="1920" y2="571.5" stroke="#201F27"/>
  </g>
  <path visibility='hidden' d="M1486 571.5H1509.58C1520.46 571.5 1530.87 567.07 1538.41 559.231L1669.2 423.269C1676.74 415.43 1687.15 411 1698.02 411H1751.53C1760.88 411 1769.94 407.723 1777.12 401.739L1871.09 323.494C1880.22 315.895 1885.5 304.632 1885.5 292.755V259.131C1885.5 247.32 1890.72 236.112 1899.76 228.512L1920 211.5" stroke="#201F27"/>
  <path visibility='hidden' d="M434 572H410.42C399.543 572 389.134 567.57 381.593 559.731L250.803 423.769C243.261 415.93 232.853 411.5 221.975 411.5H168.473C159.121 411.5 150.065 408.223 142.878 402.239L48.9053 323.994C39.778 316.395 34.5 305.132 34.5 293.255V259.631C34.5 247.82 29.2797 236.612 20.2381 229.012L0 212" stroke="#201F27"/>
  <path visibility='hidden' d="M1104 571.5H1138.67C1148.13 571.5 1157.28 568.148 1164.51 562.04L1254.45 485.96C1261.67 479.852 1270.82 476.5 1280.28 476.5H1377.61C1387.04 476.5 1396.16 473.173 1403.37 467.107L1546.12 346.988C1555.16 339.387 1560.37 328.185 1560.37 316.381V262.119C1560.37 250.314 1565.59 239.113 1574.62 231.512L1669.84 151.393C1677.05 145.327 1686.17 142 1695.59 142H1794.52C1803.88 142 1812.94 138.719 1820.13 132.729L1920 49.5" stroke="#201F27"/>
  <path visibility='hidden' d="M816 571.5H781.327C771.869 571.5 762.716 568.148 755.495 562.039L665.553 485.96C658.331 479.851 649.179 476.5 639.72 476.5H542.387C532.964 476.5 523.844 473.173 516.634 467.106L373.876 346.987C364.843 339.387 359.629 328.185 359.629 316.38V262.119C359.629 250.314 354.415 239.112 345.382 231.512L250.164 151.393C242.953 145.326 233.833 142 224.41 142H125.53C116.143 142 107.056 138.699 99.8576 132.674L0 49.1025" stroke="#201F27"/>
  <path visibility='hidden' d="M816 571.5H781.327C771.869 571.5 762.716 568.148 755.495 562.039L665.553 485.96C658.331 479.851 649.179 476.5 639.72 476.5H542.387C532.964 476.5 523.844 473.173 516.634 467.106L373.876 346.987C364.843 339.387 359.629 328.185 359.629 316.38V262.119C359.629 250.314 354.415 239.112 345.382 231.512L250.164 151.393C242.953 145.326 233.833 142 224.41 142H125.53C116.143 142 107.056 138.699 99.8576 132.674L0 49.1025" stroke="#201F27"/>
  <path visibility='hidden' d="M2240 658H2289.63C2300.49 658 2310.89 653.578 2318.43 645.752L2560 395" stroke="#201F27"/>
  <defs>
    <filter id="filter0_d_12360_16656" x="1162" y="0.65625" width="236.359" height="168.844" filterUnits="userSpaceOnUse" color-interpolation-filters="sRGB">
      <feFlood flood-opacity="0" result="BackgroundImageFix"/>
      <feColorMatrix in="SourceAlpha" type="matrix" values="0 0 0 0 0 0 0 0 0 0 0 0 0 0 0 0 0 0 127 0" result="hardAlpha"/>
      <feOffset dx="1" dy="-1"/>
      <feComposite in2="hardAlpha" operator="out"/>
      <feColorMatrix type="matrix" values="0 0 0 0 0 0 0 0 0 0 0 0 0 0 0 0 0 0 1 0"/>
      <feBlend mode="normal" in2="BackgroundImageFix" result="effect1_dropShadow_12360_16656"/>
      <feBlend mode="normal" in="SourceGraphic" in2="effect1_dropShadow_12360_16656" result="shape"/>
    </filter>
    <filter id="filter1_d_12360_16656" x="522.641" y="0.65625" width="236.359" height="168.844" filterUnits="userSpaceOnUse" color-interpolation-filters="sRGB">
      <feFlood flood-opacity="0" result="BackgroundImageFix"/>
      <feColorMatrix in="SourceAlpha" type="matrix" values="0 0 0 0 0 0 0 0 0 0 0 0 0 0 0 0 0 0 127 0" result="hardAlpha"/>
      <feOffset dx="1" dy="-1"/>
      <feComposite in2="hardAlpha" operator="out"/>
      <feColorMatrix type="matrix" values="0 0 0 0 0 0 0 0 0 0 0 0 0 0 0 0 0 0 1 0"/>
      <feBlend mode="normal" in2="BackgroundImageFix" result="effect1_dropShadow_12360_16656"/>
      <feBlend mode="normal" in="SourceGraphic" in2="effect1_dropShadow_12360_16656" result="shape"/>
    </filter>
    <filter id="filter2_d_12360_16656" x="0" y="570" width="1921" height="2" filterUnits="userSpaceOnUse" color-interpolation-filters="sRGB">
      <feFlood flood-opacity="0" result="BackgroundImageFix"/>
      <feColorMatrix in="SourceAlpha" type="matrix" values="0 0 0 0 0 0 0 0 0 0 0 0 0 0 0 0 0 0 127 0" result="hardAlpha"/>
      <feOffset dx="1" dy="-1"/>
      <feComposite in2="hardAlpha" operator="out"/>
      <feColorMatrix type="matrix" values="0 0 0 0 0 0 0 0 0 0 0 0 0 0 0 0 0 0 1 0"/>
      <feBlend mode="normal" in2="BackgroundImageFix" result="effect1_dropShadow_12360_16656"/>
      <feBlend mode="normal" in="SourceGraphic" in2="effect1_dropShadow_12360_16656" result="shape"/>
    </filter>
  </defs>
</svg>
