<svg xmlns="http://www.w3.org/2000/svg" width="1920" height="732" viewBox="0 0 1920 732" fill="none">
  <g filter="url(#filter2_d_12360_16656)">
    <line x1="0" y1="571.5" x2="1104" y2="571.5" stroke="#201F27"/>
  </g>
  <path d="M1104 571.5H1138.67C1148.13 571.5 1157.28 568.148 1164.51 562.04L1254.45 485.96C1261.67 479.852 1270.82 476.5 1280.28 476.5H1377.61C1387.04 476.5 1396.16 473.173 1403.37 467.107L1546.12 346.988C1555.16 339.387 1560.37 328.185 1560.37 316.381V262.119C1560.37 250.314 1565.59 239.113 1574.62 231.512L1669.84 151.393C1677.05 145.327 1686.17 142 1695.59 142H1794.52C1803.88 142 1812.94 138.719 1820.13 132.729L1920 49.5" stroke="#201F27"/>
  <defs>
    <filter id="filter0_d_12360_16656" x="1162" y="0.65625" width="236.359" height="168.844" filterUnits="userSpaceOnUse" color-interpolation-filters="sRGB">
      <feFlood flood-opacity="0" result="BackgroundImageFix"/>
      <feColorMatrix in="SourceAlpha" type="matrix" values="0 0 0 0 0 0 0 0 0 0 0 0 0 0 0 0 0 0 127 0" result="hardAlpha"/>
      <feOffset dx="0" dy="0"/>
      <feComposite in2="hardAlpha" operator="out"/>
      <feColorMatrix type="matrix" values="0 0 0 0 0 0 0 0 0 0 0 0 0 0 0 0 0 0 1 0"/>
      <feBlend mode="normal" in2="BackgroundImageFix" result="effect1_dropShadow_12360_16656"/>
      <feBlend mode="normal" in="SourceGraphic" in2="effect1_dropShadow_12360_16656" result="shape"/>
    </filter>
    <filter id="filter1_d_12360_16656" x="522.641" y="0.65625" width="236.359" height="168.844" filterUnits="userSpaceOnUse" color-interpolation-filters="sRGB">
      <feFlood flood-opacity="0" result="BackgroundImageFix"/>
      <feColorMatrix in="SourceAlpha" type="matrix" values="0 0 0 0 0 0 0 0 0 0 0 0 0 0 0 0 0 0 127 0" result="hardAlpha"/>
      <feOffset dx="0" dy="0"/>
      <feComposite in2="hardAlpha" operator="out"/>
      <feColorMatrix type="matrix" values="0 0 0 0 0 0 0 0 0 0 0 0 0 0 0 0 0 0 1 0"/>
      <feBlend mode="normal" in2="BackgroundImageFix" result="effect1_dropShadow_12360_16656"/>
      <feBlend mode="normal" in="SourceGraphic" in2="effect1_dropShadow_12360_16656" result="shape"/>
    </filter>
    <filter id="filter2_d_12360_16656" x="0" y="570" width="1921" height="2" filterUnits="userSpaceOnUse" color-interpolation-filters="sRGB">
      <feFlood flood-opacity="0" result="BackgroundImageFix"/>
      <feColorMatrix in="SourceAlpha" type="matrix" values="0 0 0 0 0 0 0 0 0 0 0 0 0 0 0 0 0 0 127 0" result="hardAlpha"/>
      <feOffset dx="0" dy="0"/>
      <feComposite in2="hardAlpha" operator="out"/>
      <feColorMatrix type="matrix" values="0 0 0 0 0 0 0 0 0 0 0 0 0 0 0 0 0 0 1 0"/>
      <feBlend mode="normal" in2="BackgroundImageFix" result="effect1_dropShadow_12360_16656"/>
      <feBlend mode="normal" in="SourceGraphic" in2="effect1_dropShadow_12360_16656" result="shape"/>
    </filter>
  </defs>
</svg>
