<svg xmlns="http://www.w3.org/2000/svg" width="1024" height="720" viewBox="0 0 1024 720" fill="none">
  <g filter="url(#filter0_d_13147_6682)" visibility='hidden'>
    <line x1="4.93103e-08" y1="383.5" x2="1023" y2="383.5" stroke="#201F27"/>
  </g>
  <path visibility='hidden' d="M80 526L100.277 489.209C107.312 476.444 120.734 468.517 135.309 468.517H145.31C159.983 468.517 173.478 460.484 180.472 447.586L203.876 404.431C210.871 391.533 224.366 383.5 239.038 383.5H250" stroke="#201F27"/>
  <path visibility='hidden' d="M944 526L923.723 489.209C916.688 476.444 903.266 468.517 888.691 468.517H878.69C864.017 468.517 850.522 460.484 843.528 447.586L820.124 404.431C813.129 391.533 799.634 383.5 784.962 383.5H774" stroke="#201F27"/>
  <path visibility='hidden' d="M944 526L923.723 489.209C916.688 476.444 903.266 468.517 888.691 468.517H878.69C864.017 468.517 850.522 460.484 843.528 447.586L820.124 404.431C813.129 391.533 799.634 383.5 784.962 383.5H774" stroke="#201F27"/>
  <path d="M903 383.5H906.888C920.207 383.5 932.652 376.871 940.083 365.818L1024 241" stroke="#201F27"/>
  <path visibility='hidden' d="M348 383.5H337.469C325.323 383.5 313.835 377.981 306.244 368.5L262.527 313.896C254.935 304.415 243.447 298.896 231.301 298.896H193.331C181.222 298.896 169.764 293.41 162.171 283.976L81.5932 183.862C75.8727 176.755 72.7539 167.906 72.7539 158.782V105.491C72.7539 96.3672 69.635 87.5179 63.9146 80.4105L0 1" stroke="#201F27"/>
  <path visibility='hidden' d="M348 383.5H337.469C325.323 383.5 313.835 377.981 306.244 368.5L262.527 313.896C254.935 304.415 243.447 298.896 231.301 298.896H193.331C181.222 298.896 169.764 293.41 162.171 283.976L81.5932 183.862C75.8727 176.755 72.7539 167.906 72.7539 158.782V105.491C72.7539 96.3672 69.635 87.5179 63.9146 80.4105L0 1" stroke="#201F27"/>
  <path visibility='hidden' d="M121 383.5H117.112C103.793 383.5 91.3477 376.871 83.9165 365.818L0 241" stroke="#201F27"/>
  <path visibility='hidden' d="M676 383.5H686.531C698.677 383.5 710.165 377.981 717.756 368.5L761.473 313.896C769.065 304.415 780.553 298.896 792.699 298.896H830.669C842.778 298.896 854.236 293.41 861.829 283.976L942.407 183.862C948.127 176.755 951.246 167.906 951.246 158.782V105.491C951.246 96.3672 954.365 87.5179 960.085 80.4105L1024 1" stroke="#201F27"/>
  <defs>
    <filter id="filter0_d_13147_6682" x="0" y="382" width="1024" height="2" filterUnits="userSpaceOnUse" color-interpolation-filters="sRGB">
      <feFlood flood-opacity="0" result="BackgroundImageFix"/>
      <feColorMatrix in="SourceAlpha" type="matrix" values="0 0 0 0 0 0 0 0 0 0 0 0 0 0 0 0 0 0 127 0" result="hardAlpha"/>
      <feOffset dx="1" dy="-1"/>
      <feComposite in2="hardAlpha" operator="out"/>
      <feColorMatrix type="matrix" values="0 0 0 0 0 0 0 0 0 0 0 0 0 0 0 0 0 0 1 0"/>
      <feBlend mode="normal" in2="BackgroundImageFix" result="effect1_dropShadow_13147_6682"/>
      <feBlend mode="normal" in="SourceGraphic" in2="effect1_dropShadow_13147_6682" result="shape"/>
    </filter>
  </defs>
</svg>
