{
	"asset":{
		"generator":"Khronos glTF Blender I/O v3.5.30",
		"version":"2.0"
	},
	"scene":0,
	"scenes":[
		{
			"name":"Scene",
			"nodes":[
				0
			]
		}
	],
	"nodes":[
		{
			"mesh":0,
			"name":"Text",
			"rotation":[
				0.6970017552375793,
				-0.00041912731830962,
				0.029159801080822945,
				0.7164761424064636
			],
			"translation":[
				0.028336575254797935,
				0.18857988715171814,
				-0.021302685141563416
			]
		}
	],
	"animations":[
		{
			"channels":[
				{
					"sampler":0,
					"target":{
						"node":0,
						"path":"translation"
					}
				},
				{
					"sampler":1,
					"target":{
						"node":0,
						"path":"rotation"
					}
				},
				{
					"sampler":2,
					"target":{
						"node":0,
						"path":"scale"
					}
				}
			],
			"name":"Text",
			"samplers":[
				{
					"input":4,
					"interpolation":"LINEAR",
					"output":5
				},
				{
					"input":4,
					"interpolation":"LINEAR",
					"output":6
				},
				{
					"input":4,
					"interpolation":"LINEAR",
					"output":7
				}
			]
		}
	],
	"materials":[
		{
			"doubleSided":true,
			"name":"Material.001",
			"pbrMetallicRoughness":{
				"baseColorFactor":[
					0,
					0,
					0,
					1
				],
				"roughnessFactor":0.5031446218490601
			}
		}
	],
	"meshes":[
		{
			"name":"Text",
			"primitives":[
				{
					"attributes":{
						"POSITION":0,
						"TEXCOORD_0":1,
						"NORMAL":2
					},
					"indices":3,
					"material":0
				}
			]
		}
	],
	"accessors":[
		{
			"bufferView":0,
			"componentType":5126,
			"count":1193,
			"max":[
				0.23173515498638153,
				0.05000000074505806,
				0.1445966511964798
			],
			"min":[
				-0.2324962019920349,
				-0.05000000074505806,
				-0.41324201226234436
			],
			"type":"VEC3"
		},
		{
			"bufferView":1,
			"componentType":5126,
			"count":1193,
			"type":"VEC2"
		},
		{
			"bufferView":2,
			"componentType":5126,
			"count":1193,
			"type":"VEC3"
		},
		{
			"bufferView":3,
			"componentType":5123,
			"count":3552,
			"type":"SCALAR"
		},
		{
			"bufferView":4,
			"componentType":5126,
			"count":2,
			"max":[
				0.041666666666666664
			],
			"min":[
				0
			],
			"type":"SCALAR"
		},
		{
			"bufferView":5,
			"componentType":5126,
			"count":2,
			"type":"VEC3"
		},
		{
			"bufferView":6,
			"componentType":5126,
			"count":2,
			"type":"VEC4"
		},
		{
			"bufferView":7,
			"componentType":5126,
			"count":2,
			"type":"VEC3"
		}
	],
	"bufferViews":[
		{
			"buffer":0,
			"byteLength":14316,
			"byteOffset":0,
			"target":34962
		},
		{
			"buffer":0,
			"byteLength":9544,
			"byteOffset":14316,
			"target":34962
		},
		{
			"buffer":0,
			"byteLength":14316,
			"byteOffset":23860,
			"target":34962
		},
		{
			"buffer":0,
			"byteLength":7104,
			"byteOffset":38176,
			"target":34963
		},
		{
			"buffer":0,
			"byteLength":8,
			"byteOffset":45280
		},
		{
			"buffer":0,
			"byteLength":24,
			"byteOffset":45288
		},
		{
			"buffer":0,
			"byteLength":32,
			"byteOffset":45312
		},
		{
			"buffer":0,
			"byteLength":24,
			"byteOffset":45344
		}
	],
	"buffers":[
		{
			"byteLength":45368,
			"uri":"data:application/octet-stream;base64,"
		}
	]
}
